<svg width="2000" height="2000" viewBox="0 0 2000 2000" fill="none" xmlns="http://www.w3.org/2000/svg">
<path d="M1283.32 100C1217.92 146.145 1150.88 196.71 1083.01 251.082C1074.99 257.503 1066.97 263.974 1058.94 270.49C1109.87 313.417 1160.89 358.114 1211.65 404.293C1351.12 292.806 1484.23 200.238 1603.34 131.277C1622.48 120.198 1641.08 109.831 1659.13 100.164C1790.16 104.866 1895.49 210.411 1899.86 341.53C1890.25 359.446 1879.96 377.908 1868.97 396.899C1799.41 517.039 1705.84 651.415 1593.07 792.197C1480.41 932.838 1351.54 1076.18 1213.86 1213.86C1161.85 1265.86 1109.04 1316.61 1055.87 1365.7C1106.77 1411.24 1157.8 1455.08 1208.56 1496.87C1257.97 1450.86 1306.99 1403.57 1355.28 1355.28C1497.76 1212.8 1631.58 1064.02 1749.16 917.237C1803.44 849.482 1853.92 782.563 1900 717.273V1282.97C1848.32 1209.74 1791.25 1134.68 1729.75 1058.94C1686.76 1109.96 1642.05 1160.97 1595.95 1211.65C1705.98 1349.3 1799.04 1482.56 1868.97 1603.34C1879.97 1622.36 1890.26 1640.81 1899.85 1658.7C1895.37 1789.85 1789.85 1895.37 1658.7 1899.85C1640.79 1890.25 1622.33 1879.96 1603.34 1868.97C1483.2 1799.41 1348.83 1705.84 1208.05 1593.07C1067.41 1480.41 924.063 1351.54 786.386 1213.86L644.965 1355.28C787.443 1497.76 936.229 1631.58 1083.01 1749.16C1150.76 1803.44 1217.68 1853.92 1282.97 1900H717.273C782.563 1853.92 849.482 1803.44 917.237 1749.16C925.253 1742.74 933.273 1736.27 941.3 1729.75C890.287 1686.76 839.274 1642.05 788.593 1595.95C649.121 1707.44 516.014 1800.01 396.899 1868.97C377.908 1879.96 359.446 1890.25 341.53 1899.86C210.411 1895.49 104.865 1790.16 100.164 1659.12C109.83 1641.08 120.197 1622.48 131.276 1603.34C200.831 1483.2 294.4 1348.83 407.175 1208.05C519.837 1067.41 648.708 924.063 786.386 786.386C838.39 734.381 891.204 683.634 944.374 634.541C893.214 588.766 842.178 544.944 791.682 503.376C742.267 549.381 693.254 596.676 644.965 644.965C502.487 787.443 368.66 936.229 251.082 1083.01C196.71 1150.88 146.145 1217.92 100 1283.31V716.928C146.145 782.327 196.71 849.362 251.082 917.237C257.503 925.253 263.974 933.274 270.49 941.3C313.487 890.286 358.19 839.274 404.293 788.593C292.806 649.121 200.238 516.014 131.277 396.899C120.195 377.757 109.825 359.151 100.156 341.102C104.739 210.104 210.107 104.737 341.105 100.156C359.129 109.812 377.731 120.18 396.899 131.277C640.577 272.354 935.031 507.559 1213.86 786.386C1266.12 838.644 1316.84 891.451 1365.7 944.37C1411.24 893.476 1455.08 842.444 1496.87 791.683C1450.97 742.387 1403.69 693.375 1355.28 644.965C1145.17 434.858 923.733 245.92 716.929 100H1283.32ZM634.543 1055.87C589.005 1106.77 545.163 1157.8 503.375 1208.56C549.381 1257.98 596.676 1306.99 644.965 1355.28L786.386 1213.86C734.382 1161.85 683.635 1109.04 634.543 1055.87Z" fill="#1A1D1A"/>
</svg>
