<svg width="2000" height="2000" viewBox="0 0 2000 2000" fill="none" xmlns="http://www.w3.org/2000/svg">
<rect x="150" y="150" width="1700" height="1700" rx="300" stroke="#F2F5EA" stroke-width="100"/>
<mask id="mask0_7_2537" style="mask-type:alpha" maskUnits="userSpaceOnUse" x="200" y="200" width="1600" height="1600">
<rect x="200" y="200" width="1600" height="1600" rx="250" fill="#F2F5EA"/>
</mask>
<g mask="url(#mask0_7_2537)">
<path d="M791.833 564.843C842.24 606.05 893.321 649.852 944.542 695.87C901.969 735.484 859.682 776.274 817.978 817.978C695.865 940.091 581.587 1067.2 481.716 1191.88C381.732 1316.69 298.902 1435.67 237.417 1541.87C175.302 1649.16 138.946 1736.61 125.099 1800.51C118.227 1832.22 117.937 1853.51 119.801 1866.32C120.747 1872.81 122.056 1876.11 122.752 1877.46C124.107 1878.16 127.399 1879.47 133.899 1880.42C146.709 1882.28 167.994 1881.99 199.707 1875.12C263.606 1861.27 351.054 1824.91 458.344 1762.8C558.86 1704.61 670.825 1627.29 788.35 1534.4C838.989 1580.74 890.037 1625.53 941.08 1668.41C938.512 1670.47 935.946 1672.54 933.379 1674.59C802.711 1779.27 675.396 1868.24 558.55 1935.88C442.795 2002.9 334.814 2050.48 242.063 2070.58C154.844 2089.48 53.2667 2089.4 -17.1021 2020.61L-18.7583 2018.97C-89.1827 1948.55 -89.413 1846.06 -70.3638 1758.15C-50.2645 1665.4 -2.68466 1557.42 64.3315 1441.67C131.979 1324.82 220.949 1197.51 325.623 1066.84C430.41 936.025 549.642 803.469 676.556 676.556C714.542 638.569 753.034 601.271 791.833 564.843ZM1758.15 -70.3633C1846.06 -89.4125 1948.55 -89.1832 2018.98 -18.7588L2020.61 -17.1025C2089.4 53.2662 2089.48 154.844 2070.58 242.063C2050.48 334.815 2002.9 442.796 1935.89 558.551C1868.24 675.397 1779.27 802.711 1674.59 933.38C1569.81 1064.19 1450.57 1196.75 1323.66 1323.66C1285.67 1361.65 1247.18 1398.94 1208.38 1435.37C1157.66 1393.91 1106.58 1350.08 1055.68 1304.34C1098.25 1264.73 1140.54 1223.94 1182.24 1182.24C1304.35 1060.13 1418.63 933.013 1518.5 808.34C1618.48 683.525 1701.32 564.543 1762.8 458.344C1824.91 351.054 1861.27 263.605 1875.12 199.706C1881.99 167.994 1882.28 146.709 1880.42 133.899C1879.47 127.402 1878.16 124.11 1877.46 122.755C1876.11 122.058 1872.82 120.747 1866.32 119.802C1853.51 117.938 1832.22 118.228 1800.51 125.1C1736.61 138.947 1649.16 175.302 1541.87 237.417C1441.36 295.61 1329.39 372.928 1211.87 465.812C1161.14 419.403 1110.1 374.614 1059.14 331.808C1061.7 329.741 1064.27 327.679 1066.84 325.623C1197.51 220.949 1324.82 131.98 1441.67 64.332C1557.42 -2.68401 1665.4 -50.264 1758.15 -70.3633Z" fill="#F2F5EA"/>
<path d="M675.15 1049.66C718.787 1096.92 763.894 1143.87 810.12 1190.1C932.5 1312.48 1059.92 1427.03 1184.93 1527.17C1310.07 1627.42 1429.52 1710.59 1536.31 1772.42C1644.07 1834.8 1732.66 1871.78 1798.16 1885.98C1867.89 1901.09 1885.25 1885.56 1885.41 1885.41C1885.69 1885.13 1901.03 1867.61 1885.98 1798.16C1871.93 1733.33 1835.38 1645.07 1772.42 1536.31C1710.26 1428.94 1627.54 1310.49 1529.73 1188.13C1570.71 1143.08 1610.45 1097.74 1648.67 1052.39C1759.9 1189.39 1854.85 1323.88 1926.27 1447.23C1993.7 1563.7 2040.14 1670.16 2059.72 1760.51C2078.3 1846.22 2077.9 1944.34 2011.12 2011.12C1944.83 2077.41 1847.35 2078.54 1760.51 2059.72C1669.36 2039.97 1562.52 1993.01 1447.23 1926.27C1330.98 1858.96 1204.13 1770.34 1073.78 1665.92C943.315 1561.41 811.06 1442.45 684.413 1315.8C641.49 1272.88 599.45 1229.31 558.556 1185.39C595.701 1140.27 634.672 1094.9 675.15 1049.66ZM-10.9011 -10.9014C55.8771 -77.6793 153.995 -78.0774 239.71 -59.5029C330.058 -39.9246 436.516 6.52087 552.984 73.9492C786.842 209.341 1060.72 429.327 1315.8 684.413C1358.83 727.444 1400.87 771.011 1441.66 814.829C1404.52 859.951 1365.55 905.313 1325.07 950.552C1281.64 903.513 1236.55 856.573 1190.1 810.121C942.251 562.275 680.513 353.203 463.91 227.802C355.147 164.834 266.887 128.289 202.06 114.241C132.621 99.1938 115.097 114.518 114.807 114.807C114.681 114.933 99.1168 132.268 114.24 202.06C128.435 267.562 165.414 356.151 227.802 463.911C289.101 569.791 371.383 688.108 470.483 812.083C429.502 857.133 389.766 902.477 351.547 947.822C345.755 940.688 340.003 933.558 334.295 926.434C229.882 796.09 141.254 669.238 73.9485 552.983C7.20467 437.699 -39.7517 330.858 -59.5037 239.71C-78.3221 152.868 -77.1899 55.3875 -10.9011 -10.9014Z" fill="#69DC9E"/>
</g>
</svg>
