<svg width="2000" height="2000" viewBox="0 0 2000 2000" fill="none" xmlns="http://www.w3.org/2000/svg">
<rect x="150" y="150" width="1700" height="1700" rx="300" stroke="#F2F5EA" stroke-width="100"/>
<mask id="mask0_7_3011" style="mask-type:alpha" maskUnits="userSpaceOnUse" x="200" y="200" width="1600" height="1600">
<rect x="200" y="200" width="1600" height="1600" rx="250" fill="#F2F5EA"/>
</mask>
<g mask="url(#mask0_7_3011)">
<path d="M791.833 564.844C842.24 606.051 893.321 649.853 944.542 695.871C901.969 735.485 859.682 776.275 817.978 817.979C695.865 940.092 581.587 1067.2 481.716 1191.88C381.732 1316.69 298.902 1435.67 237.417 1541.87C175.302 1649.16 138.946 1736.61 125.099 1800.51C118.227 1832.22 117.937 1853.51 119.801 1866.32C120.747 1872.81 122.056 1876.11 122.752 1877.46C124.107 1878.16 127.399 1879.47 133.899 1880.42C146.709 1882.28 167.994 1881.99 199.707 1875.12C263.606 1861.27 351.054 1824.92 458.344 1762.8C558.86 1704.61 670.825 1627.29 788.35 1534.4C838.989 1580.74 890.037 1625.53 941.08 1668.41C938.512 1670.48 935.946 1672.54 933.379 1674.59C802.711 1779.27 675.396 1868.24 558.55 1935.88C442.795 2002.9 334.814 2050.48 242.063 2070.58C154.844 2089.48 53.2667 2089.4 -17.1021 2020.61L-18.7583 2018.98C-89.1827 1948.55 -89.413 1846.06 -70.3638 1758.15C-50.2645 1665.4 -2.68466 1557.42 64.3315 1441.67C131.979 1324.82 220.949 1197.51 325.623 1066.84C430.41 936.026 549.642 803.47 676.556 676.557C714.542 638.57 753.034 601.272 791.833 564.844ZM1758.15 -70.3623C1846.06 -89.4116 1948.55 -89.1822 2018.98 -18.7578L2020.61 -17.1016C2089.4 53.2672 2089.48 154.845 2070.58 242.064C2050.48 334.816 2002.9 442.797 1935.89 558.552C1868.24 675.398 1779.27 802.712 1674.59 933.381C1569.81 1064.19 1450.57 1196.75 1323.66 1323.66C1285.67 1361.65 1247.18 1398.95 1208.38 1435.37C1157.66 1393.91 1106.58 1350.08 1055.68 1304.34C1098.25 1264.73 1140.54 1223.94 1182.24 1182.24C1304.35 1060.13 1418.63 933.014 1518.5 808.341C1618.48 683.526 1701.32 564.544 1762.8 458.345C1824.91 351.055 1861.27 263.606 1875.12 199.707C1881.99 167.995 1882.28 146.71 1880.42 133.9C1879.47 127.403 1878.16 124.111 1877.46 122.756C1876.11 122.059 1872.82 120.748 1866.32 119.803C1853.51 117.939 1832.22 118.229 1800.51 125.101C1736.61 138.948 1649.16 175.303 1541.87 237.418C1441.36 295.611 1329.39 372.929 1211.87 465.812C1161.14 419.404 1110.1 374.615 1059.14 331.809C1061.7 329.742 1064.27 327.68 1066.84 325.624C1197.51 220.95 1324.82 131.981 1441.67 64.333C1557.42 -2.68304 1665.4 -50.263 1758.15 -70.3623Z" fill="#F2F5EA"/>
<path d="M675.15 1049.66C718.787 1096.92 763.894 1143.87 810.12 1190.1C932.5 1312.48 1059.92 1427.03 1184.93 1527.17C1310.07 1627.42 1429.52 1710.59 1536.31 1772.42C1644.07 1834.8 1732.66 1871.78 1798.16 1885.97C1867.89 1901.09 1885.25 1885.56 1885.41 1885.41C1885.69 1885.13 1901.03 1867.61 1885.98 1798.16C1871.93 1733.33 1835.38 1645.07 1772.42 1536.31C1710.26 1428.94 1627.54 1310.49 1529.73 1188.13C1570.71 1143.08 1610.45 1097.74 1648.67 1052.39C1759.9 1189.39 1854.85 1323.88 1926.27 1447.23C1993.7 1563.7 2040.14 1670.16 2059.72 1760.51C2078.3 1846.22 2077.9 1944.34 2011.12 2011.12C1944.83 2077.41 1847.35 2078.54 1760.51 2059.72C1669.36 2039.97 1562.52 1993.01 1447.23 1926.27C1330.98 1858.96 1204.13 1770.33 1073.78 1665.92C943.315 1561.41 811.06 1442.45 684.413 1315.8C641.49 1272.88 599.45 1229.31 558.556 1185.39C595.701 1140.26 634.672 1094.9 675.15 1049.66ZM-10.9011 -10.9023C55.8771 -77.6802 153.995 -78.0783 239.71 -59.5039C330.058 -39.9256 436.516 6.51989 552.984 73.9482C786.842 209.34 1060.72 429.326 1315.8 684.412C1358.83 727.443 1400.87 771.01 1441.66 814.828C1404.52 859.95 1365.55 905.312 1325.07 950.551C1281.64 903.512 1236.55 856.572 1190.1 810.12C942.251 562.274 680.513 353.202 463.91 227.801C355.147 164.833 266.887 128.288 202.06 114.24C132.621 99.1928 115.097 114.517 114.807 114.806C114.681 114.932 99.1168 132.267 114.24 202.059C128.435 267.561 165.414 356.15 227.802 463.91C289.101 569.79 371.383 688.107 470.483 812.082C429.502 857.132 389.766 902.476 351.547 947.821C345.755 940.687 340.003 933.558 334.295 926.433C229.882 796.089 141.254 669.237 73.9485 552.982C7.20467 437.698 -39.7517 330.857 -59.5037 239.709C-78.3221 152.867 -77.1899 55.3865 -10.9011 -10.9023Z" fill="#AB87FF"/>
</g>
</svg>
