<svg width="1800" height="1800" viewBox="0 0 1800 1800" fill="none" xmlns="http://www.w3.org/2000/svg">
<g clip-path="url(#clip0_7_3011)">
<rect x="50" y="50" width="1700" height="1700" rx="300" stroke="#F2F5EA" stroke-width="100"/>
<mask id="mask0_7_3011" style="mask-type:alpha" maskUnits="userSpaceOnUse" x="100" y="100" width="1600" height="1600">
<rect x="100" y="100" width="1600" height="1600" rx="250" fill="#F2F5EA"/>
</mask>
<g mask="url(#mask0_7_3011)">
<path d="M691.834 464.844C742.24 506.051 793.321 549.853 844.543 595.871C801.969 635.485 759.682 676.275 717.978 717.979C595.865 840.092 481.587 967.204 381.716 1091.88C281.732 1216.69 198.902 1335.67 137.418 1441.87C75.3022 1549.16 38.9463 1636.61 25.0992 1700.51C18.2272 1732.22 17.9373 1753.51 19.8014 1766.32C20.7467 1772.81 22.0558 1776.11 22.7526 1777.46C24.1071 1778.16 27.3994 1779.47 33.899 1780.42C46.7091 1782.28 67.9946 1781.99 99.7067 1775.12C163.606 1761.27 251.054 1724.92 358.344 1662.8C458.86 1604.61 570.825 1527.29 688.35 1434.4C738.989 1480.74 790.037 1525.53 841.08 1568.41C838.512 1570.48 835.946 1572.54 833.38 1574.59C702.711 1679.27 575.396 1768.24 458.55 1835.88C342.795 1902.9 234.815 1950.48 142.063 1970.58C54.8437 1989.48 -46.7332 1989.4 -117.102 1920.61L-118.758 1918.98C-189.183 1848.55 -189.413 1746.06 -170.364 1658.15C-150.264 1565.4 -102.685 1457.42 -35.6683 1341.67C31.9794 1224.82 120.949 1097.51 225.623 966.837C330.41 836.026 449.643 703.47 576.556 576.557C614.543 538.57 653.035 501.272 691.834 464.844ZM1658.15 -170.362C1746.06 -189.412 1848.55 -189.182 1918.98 -118.758L1920.61 -117.102C1989.4 -46.7328 1989.48 54.845 1970.58 142.064C1950.48 234.816 1902.9 342.797 1835.89 458.552C1768.24 575.398 1679.27 702.712 1574.59 833.381C1469.81 964.191 1350.57 1096.75 1223.66 1223.66C1185.67 1261.65 1147.18 1298.95 1108.38 1335.37C1057.66 1293.91 1006.58 1250.08 955.677 1204.34C998.25 1164.73 1040.54 1123.94 1082.24 1082.24C1204.35 960.127 1318.63 833.014 1418.5 708.341C1518.48 583.526 1601.32 464.544 1662.8 358.345C1724.91 251.055 1761.27 163.606 1775.12 99.707C1781.99 67.9954 1782.28 46.7104 1780.42 33.9004C1779.47 27.4034 1778.16 24.1115 1777.46 22.7559C1776.11 22.0592 1772.82 20.7483 1766.32 19.8027C1753.51 17.9385 1732.22 18.2285 1700.51 25.1006C1636.61 38.9477 1549.16 75.3029 1441.87 137.418C1341.36 195.611 1229.39 272.929 1111.87 365.812C1061.14 319.404 1010.1 274.615 959.136 231.809C961.704 229.742 964.27 227.68 966.837 225.624C1097.51 120.95 1224.82 31.9807 1341.67 -35.667C1457.42 -102.683 1565.4 -150.263 1658.15 -170.362Z" fill="#F2F5EA"/>
<path d="M575.15 949.662C618.787 996.924 663.895 1043.87 710.121 1090.1C832.501 1212.48 959.917 1327.03 1084.93 1427.17C1210.07 1527.42 1329.52 1610.59 1436.31 1672.41C1544.07 1734.8 1632.66 1771.78 1698.16 1785.97C1767.89 1801.08 1785.25 1785.56 1785.41 1785.41C1785.69 1785.13 1801.03 1767.61 1785.98 1698.16C1771.93 1633.33 1735.38 1545.07 1672.42 1436.31C1610.26 1328.94 1527.54 1210.49 1429.73 1088.13C1470.71 1043.08 1510.45 997.739 1548.67 952.393C1659.9 1089.39 1754.85 1223.88 1826.27 1347.23C1893.7 1463.7 1940.14 1570.16 1959.72 1660.51C1978.3 1746.22 1977.9 1844.34 1911.12 1911.12C1844.83 1977.41 1747.35 1978.54 1660.51 1959.72C1569.36 1939.97 1462.52 1893.01 1347.23 1826.27C1230.98 1758.96 1104.13 1670.33 973.785 1565.92C843.315 1461.41 711.061 1342.45 584.414 1215.8C541.49 1172.88 499.45 1129.31 458.556 1085.39C495.701 1040.26 534.672 994.902 575.15 949.662ZM-110.901 -110.903C-44.1227 -177.68 53.9955 -178.078 139.71 -159.504C230.058 -139.926 336.517 -93.4803 452.984 -26.0519C686.843 109.34 960.718 329.326 1215.8 584.412C1258.84 627.443 1300.87 671.01 1341.66 714.828C1304.52 759.95 1265.55 805.312 1225.07 850.551C1181.64 803.512 1136.55 756.572 1090.1 710.12C842.251 462.274 580.513 253.202 363.911 127.801C255.148 64.8326 166.888 28.2883 102.06 14.2401C32.6211 -0.807318 15.0969 14.5171 14.8072 14.8055C14.6814 14.9321 -0.882929 32.267 14.2408 102.058C28.4351 167.561 65.4146 256.15 127.802 363.91C189.101 469.79 271.383 588.107 370.483 712.082C329.502 757.132 289.767 802.476 251.547 847.821C245.755 840.687 240.003 833.557 234.295 826.432C129.882 696.089 41.254 569.237 -26.0512 452.982C-92.7951 337.697 -139.751 230.857 -159.503 139.709C-178.322 52.8673 -177.19 -44.6136 -110.901 -110.903Z" fill="#AB87FF"/>
</g>
</g>
<defs>
<clipPath id="clip0_7_3011">
<rect width="1800" height="1800" fill="white"/>
</clipPath>
</defs>
</svg>
