<svg width="1800" height="1800" viewBox="0 0 1800 1800" fill="none" xmlns="http://www.w3.org/2000/svg">
<g clip-path="url(#clip0_7_2537)">
<rect x="50" y="50" width="1700" height="1700" rx="300" stroke="#F2F5EA" stroke-width="100"/>
<mask id="mask0_7_2537" style="mask-type:alpha" maskUnits="userSpaceOnUse" x="100" y="100" width="1600" height="1600">
<rect x="100" y="100" width="1600" height="1600" rx="250" fill="#F2F5EA"/>
</mask>
<g mask="url(#mask0_7_2537)">
<path d="M691.834 464.843C742.24 506.05 793.321 549.852 844.543 595.87C801.969 635.484 759.682 676.274 717.978 717.978C595.865 840.091 481.587 967.203 381.716 1091.88C281.732 1216.69 198.902 1335.67 137.418 1441.87C75.3022 1549.16 38.9463 1636.61 25.0992 1700.51C18.2272 1732.22 17.9373 1753.51 19.8014 1766.32C20.7467 1772.81 22.0558 1776.11 22.7526 1777.46C24.1071 1778.16 27.3994 1779.47 33.899 1780.42C46.7091 1782.28 67.9946 1781.99 99.7067 1775.12C163.606 1761.27 251.054 1724.91 358.344 1662.8C458.86 1604.61 570.825 1527.29 688.35 1434.4C738.989 1480.74 790.037 1525.53 841.08 1568.41C838.512 1570.47 835.946 1572.54 833.38 1574.59C702.711 1679.27 575.396 1768.24 458.55 1835.88C342.795 1902.9 234.815 1950.48 142.063 1970.58C54.8437 1989.48 -46.7332 1989.4 -117.102 1920.61L-118.758 1918.97C-189.183 1848.55 -189.413 1746.06 -170.364 1658.15C-150.264 1565.4 -102.685 1457.42 -35.6683 1341.67C31.9794 1224.82 120.949 1097.51 225.623 966.836C330.41 836.025 449.643 703.469 576.556 576.556C614.543 538.569 653.035 501.271 691.834 464.843ZM1658.15 -170.363C1746.06 -189.413 1848.55 -189.183 1918.98 -118.759L1920.61 -117.103C1989.4 -46.7338 1989.48 54.844 1970.58 142.063C1950.48 234.815 1902.9 342.796 1835.89 458.551C1768.24 575.397 1679.27 702.711 1574.59 833.38C1469.81 964.19 1350.57 1096.75 1223.66 1223.66C1185.67 1261.65 1147.18 1298.94 1108.38 1335.37C1057.66 1293.91 1006.58 1250.08 955.677 1204.34C998.25 1164.73 1040.54 1123.94 1082.24 1082.24C1204.35 960.126 1318.63 833.013 1418.5 708.34C1518.48 583.525 1601.32 464.543 1662.8 358.344C1724.91 251.054 1761.27 163.605 1775.12 99.7061C1781.99 67.9944 1782.28 46.7094 1780.42 33.8994C1779.47 27.4025 1778.16 24.1105 1777.46 22.7549C1776.11 22.0583 1772.82 20.7474 1766.32 19.8018C1753.51 17.9376 1732.22 18.2275 1700.51 25.0996C1636.61 38.9467 1549.16 75.3019 1441.87 137.417C1341.36 195.61 1229.39 272.928 1111.87 365.812C1061.14 319.403 1010.1 274.614 959.136 231.808C961.704 229.741 964.27 227.679 966.837 225.623C1097.51 120.949 1224.82 31.9797 1341.67 -35.668C1457.42 -102.684 1565.4 -150.264 1658.15 -170.363Z" fill="#F2F5EA"/>
<path d="M575.15 949.663C618.787 996.925 663.895 1043.87 710.12 1090.1C832.501 1212.48 959.917 1327.03 1084.93 1427.17C1210.07 1527.42 1329.52 1610.59 1436.31 1672.42C1544.07 1734.8 1632.66 1771.78 1698.16 1785.98C1767.89 1801.09 1785.25 1785.56 1785.41 1785.41C1785.69 1785.13 1801.03 1767.61 1785.98 1698.16C1771.93 1633.33 1735.38 1545.07 1672.42 1436.31C1610.26 1328.94 1527.54 1210.49 1429.73 1088.13C1470.71 1043.08 1510.45 997.74 1548.67 952.395C1659.9 1089.39 1754.85 1223.88 1826.27 1347.23C1893.7 1463.7 1940.14 1570.16 1959.72 1660.51C1978.3 1746.22 1977.9 1844.34 1911.12 1911.12C1844.83 1977.41 1747.35 1978.54 1660.51 1959.72C1569.36 1939.97 1462.52 1893.01 1347.23 1826.27C1230.98 1758.96 1104.13 1670.34 973.785 1565.92C843.315 1461.41 711.06 1342.45 584.413 1215.8C541.49 1172.88 499.45 1129.31 458.556 1085.39C495.701 1040.27 534.672 994.903 575.15 949.663ZM-110.901 -110.901C-44.1228 -177.679 53.9953 -178.077 139.71 -159.503C230.058 -139.925 336.517 -93.4791 452.984 -26.0508C686.843 109.341 960.718 329.327 1215.8 584.413C1258.84 627.444 1300.87 671.011 1341.66 714.829C1304.52 759.951 1265.55 805.313 1225.07 850.552C1181.64 803.513 1136.55 756.573 1090.1 710.121C842.251 462.275 580.513 253.203 363.911 127.802C255.148 64.8337 166.887 28.2894 102.06 14.2412C32.621 -0.806182 15.0967 14.5182 14.807 14.8066C14.6813 14.9333 -0.883085 32.2681 14.2406 102.06C28.435 167.562 65.4145 256.151 127.802 363.911C189.101 469.791 271.383 588.108 370.483 712.083C329.502 757.133 289.767 802.477 251.547 847.822C245.755 840.688 240.003 833.558 234.295 826.434C129.882 696.09 41.2539 569.238 -26.0514 452.983C-92.7952 337.699 -139.752 230.858 -159.504 139.71C-178.322 52.8685 -177.19 -44.6125 -110.901 -110.901Z" fill="#69DC9E"/>
</g>
</g>
<defs>
<clipPath id="clip0_7_2537">
<rect width="1800" height="1800" fill="white"/>
</clipPath>
</defs>
</svg>
