<svg width="9000" height="2000" viewBox="0 0 9000 2000" fill="none" xmlns="http://www.w3.org/2000/svg">
<path d="M2120.8 1535V1811H2060V1535H2120.8ZM2232.4 1531L2232 1747.8C2232 1754.47 2234 1759.53 2238 1763C2242 1766.2 2247.86 1767.8 2255.6 1767.8H2271.6L2278.4 1807.8C2275.2 1809.4 2270.66 1810.73 2264.8 1811.8C2258.93 1813.13 2252.93 1814.07 2246.8 1814.6C2240.66 1815.4 2235.46 1815.8 2231.2 1815.8C2213.33 1815.8 2199.2 1811.13 2188.8 1801.8C2178.4 1792.47 2173.2 1779.4 2173.2 1762.6V1531H2232.4ZM2363.65 1531L2363.25 1747.8C2363.25 1754.47 2365.25 1759.53 2369.25 1763C2373.25 1766.2 2379.11 1767.8 2386.85 1767.8H2402.85L2409.65 1807.8C2406.45 1809.4 2401.91 1810.73 2396.05 1811.8C2390.18 1813.13 2384.18 1814.07 2378.05 1814.6C2371.91 1815.4 2366.71 1815.8 2362.45 1815.8C2344.58 1815.8 2330.45 1811.13 2320.05 1801.8C2309.65 1792.47 2304.45 1779.4 2304.45 1762.6V1531H2363.65ZM2493.3 1613.4V1743.4C2493.3 1751.67 2495.03 1757.53 2498.5 1761C2502.23 1764.47 2508.1 1766.2 2516.1 1766.2C2524.36 1766.2 2532.5 1764.73 2540.5 1761.8C2548.76 1758.6 2558.9 1753.67 2570.9 1747L2575.7 1779.4C2561.3 1791.93 2547.16 1801.27 2533.3 1807.4C2519.43 1813.53 2505.16 1816.6 2490.5 1816.6C2452.9 1816.6 2434.1 1798.2 2434.1 1761.4V1613.4H2493.3ZM2624.1 1613.4V1811H2577.3L2570.5 1772.2L2564.9 1766.6V1613.4H2624.1ZM2922.81 1608.2C2940.67 1608.2 2954.27 1612.87 2963.61 1622.2C2972.94 1631.53 2977.61 1645.13 2977.61 1663V1811H2918.81V1681.4C2918.81 1673.13 2917.21 1667.27 2914.01 1663.8C2910.81 1660.07 2905.21 1658.2 2897.21 1658.2C2892.41 1658.2 2887.87 1658.87 2883.61 1660.2C2879.34 1661.53 2874.41 1663.67 2868.81 1666.6C2863.21 1669.53 2856.41 1673.53 2848.41 1678.6L2845.21 1645.8C2858.01 1633.27 2870.54 1623.93 2882.81 1617.8C2895.34 1611.4 2908.67 1608.2 2922.81 1608.2ZM2719.61 1613.4L2725.61 1652.6L2731.61 1657.8V1811H2672.41V1613.4H2719.61ZM2799.61 1608.2C2817.21 1608.2 2830.54 1612.87 2839.61 1622.2C2848.94 1631.27 2853.61 1644.87 2853.61 1663V1811H2796.81V1681.4C2796.81 1672.87 2794.94 1666.87 2791.21 1663.4C2787.74 1659.93 2782.27 1658.2 2774.81 1658.2C2770.27 1658.2 2765.74 1658.87 2761.21 1660.2C2756.94 1661.27 2751.87 1663.27 2746.01 1666.2C2740.41 1669.13 2733.47 1673.27 2725.21 1678.6L2721.61 1645.8C2734.67 1633.27 2747.34 1623.93 2759.61 1617.8C2771.87 1611.4 2785.21 1608.2 2799.61 1608.2ZM3085.15 1613.4V1811H3026.35V1613.4H3085.15ZM3068.75 1526.2C3080.48 1526.2 3086.35 1532.2 3086.35 1544.2V1565.4C3086.35 1577.4 3080.48 1583.4 3068.75 1583.4H3043.15C3031.42 1583.4 3025.55 1577.4 3025.55 1565.4V1544.2C3025.55 1532.2 3031.42 1526.2 3043.15 1526.2H3068.75ZM3272.9 1608.2C3310.23 1608.2 3328.9 1626.47 3328.9 1663V1811H3269.7V1681.4C3269.7 1672.6 3268.1 1666.6 3264.9 1663.4C3261.7 1659.93 3256.23 1658.2 3248.5 1658.2C3239.96 1658.2 3231.16 1659.93 3222.1 1663.4C3213.03 1666.6 3201.83 1671.67 3188.5 1678.6L3185.7 1645.4C3199.83 1633.4 3214.23 1624.2 3228.9 1617.8C3243.83 1611.4 3258.5 1608.2 3272.9 1608.2ZM3182.9 1613.4L3189.7 1652.6L3194.5 1657.8V1811H3135.3V1613.4H3182.9ZM3479.93 1608.2C3496.46 1608.2 3510.46 1610.47 3521.93 1615C3533.4 1619.27 3542.06 1626.73 3547.93 1637.4C3554.06 1647.8 3557.13 1662.2 3557.13 1680.6V1811H3509.93L3501.53 1768.2L3497.53 1762.2V1680.2C3497.53 1670.87 3495.26 1664.07 3490.73 1659.8C3486.46 1655.53 3478.2 1653.4 3465.93 1653.4C3455.8 1653.4 3443.13 1653.8 3427.93 1654.6C3412.73 1655.13 3397.13 1655.93 3381.13 1657L3375.53 1617.8C3385.13 1615.93 3396.2 1614.33 3408.73 1613C3421.26 1611.67 3433.8 1610.6 3446.33 1609.8C3458.86 1608.73 3470.06 1608.2 3479.93 1608.2ZM3532.73 1689.4L3532.33 1722.6L3444.33 1723C3437.13 1723 3431.93 1724.73 3428.73 1728.2C3425.8 1731.67 3424.33 1736.33 3424.33 1742.2V1751.8C3424.33 1758.47 3426.2 1763.67 3429.93 1767.4C3433.66 1770.87 3439.66 1772.6 3447.93 1772.6C3454.86 1772.6 3462.33 1771.13 3470.33 1768.2C3478.6 1765.27 3486.73 1761.13 3494.73 1755.8C3502.73 1750.47 3509.8 1744.2 3515.93 1737V1762.6C3513.53 1766.6 3509.93 1771.67 3505.13 1777.8C3500.6 1783.67 3494.73 1789.53 3487.53 1795.4C3480.33 1801 3471.93 1805.8 3462.33 1809.8C3452.73 1813.8 3441.8 1815.8 3429.53 1815.8C3417.53 1815.8 3406.73 1813.67 3397.13 1809.4C3387.53 1805.13 3379.93 1798.87 3374.33 1790.6C3368.73 1782.33 3365.93 1772.07 3365.93 1759.8V1739.4C3365.93 1723.67 3371.26 1711.4 3381.93 1702.6C3392.6 1693.8 3407.26 1689.4 3425.93 1689.4H3532.73ZM3680.86 1558.6V1747.8C3680.86 1755 3682.46 1760.2 3685.66 1763.4C3689.12 1766.33 3694.72 1767.8 3702.46 1767.8H3728.06L3734.46 1807.8C3729.66 1809.4 3723.79 1810.73 3716.86 1811.8C3709.92 1813.13 3702.99 1814.07 3696.06 1814.6C3689.12 1815.4 3683.26 1815.8 3678.46 1815.8C3660.59 1815.8 3646.59 1811 3636.46 1801.4C3626.59 1791.8 3621.66 1778.33 3621.66 1761L3621.26 1558.6H3680.86ZM3736.06 1613.4V1652.2H3586.86V1615.4L3625.26 1613.4H3736.06ZM3828.12 1613.4V1811H3769.32V1613.4H3828.12ZM3811.72 1526.2C3823.45 1526.2 3829.32 1532.2 3829.32 1544.2V1565.4C3829.32 1577.4 3823.45 1583.4 3811.72 1583.4H3786.12C3774.39 1583.4 3768.52 1577.4 3768.52 1565.4V1544.2C3768.52 1532.2 3774.39 1526.2 3786.12 1526.2H3811.72ZM4015.87 1608.2C4053.2 1608.2 4071.87 1626.47 4071.87 1663V1811H4012.67V1681.4C4012.67 1672.6 4011.07 1666.6 4007.87 1663.4C4004.67 1659.93 3999.2 1658.2 3991.47 1658.2C3982.93 1658.2 3974.13 1659.93 3965.07 1663.4C3956 1666.6 3944.8 1671.67 3931.47 1678.6L3928.67 1645.4C3942.8 1633.4 3957.2 1624.2 3971.87 1617.8C3986.8 1611.4 4001.47 1608.2 4015.87 1608.2ZM3925.87 1613.4L3932.67 1652.6L3937.47 1657.8V1811H3878.27V1613.4H3925.87ZM4206.5 1608.2C4229.43 1608.2 4247.57 1610.33 4260.9 1614.6C4274.5 1618.87 4284.23 1625.53 4290.1 1634.6C4296.23 1643.67 4299.3 1655.8 4299.3 1671C4299.3 1685.67 4296.37 1697.67 4290.5 1707C4284.63 1716.07 4274.77 1722.73 4260.9 1727C4247.3 1731.27 4229.03 1733.4 4206.1 1733.4C4183.17 1733.4 4164.77 1731.27 4150.9 1727C4137.3 1722.73 4127.43 1716.07 4121.3 1707C4115.43 1697.93 4112.5 1685.93 4112.5 1671C4112.5 1656.07 4115.43 1644.07 4121.3 1635C4127.43 1625.67 4137.43 1618.87 4151.3 1614.6C4165.17 1610.33 4183.57 1608.2 4206.5 1608.2ZM4206.1 1644.6C4191.43 1644.6 4181.3 1646.6 4175.7 1650.6C4170.1 1654.33 4167.3 1661.13 4167.3 1671C4167.3 1680.87 4170.1 1687.8 4175.7 1691.8C4181.3 1695.8 4191.43 1697.8 4206.1 1697.8C4220.77 1697.8 4230.77 1695.8 4236.1 1691.8C4241.43 1687.8 4244.1 1680.87 4244.1 1671C4244.1 1661.13 4241.43 1654.33 4236.1 1650.6C4230.77 1646.6 4220.77 1644.6 4206.1 1644.6ZM4322.1 1613.4L4318.9 1638.6L4266.1 1645.4L4251.7 1613.4H4322.1ZM4146.5 1721.4L4176.1 1726.6C4172.37 1728.73 4169.7 1732.07 4168.1 1736.6C4166.77 1741.13 4167.17 1745.4 4169.3 1749.4C4171.43 1753.4 4176.1 1755.8 4183.3 1756.6L4256.1 1765C4276.9 1767.13 4291.57 1773 4300.1 1782.6C4308.63 1791.93 4312.9 1805.67 4312.9 1823.8C4312.9 1840.87 4309.43 1853.93 4302.5 1863C4295.57 1872.33 4284.5 1878.73 4269.3 1882.2C4254.1 1885.67 4233.83 1887.4 4208.5 1887.4C4187.7 1887.4 4170.5 1886.33 4156.9 1884.2C4143.57 1882.33 4132.9 1879.13 4124.9 1874.6C4117.17 1870.07 4111.7 1864.07 4108.5 1856.6C4105.57 1849.4 4104.1 1840.33 4104.1 1829.4C4104.1 1821.13 4105.57 1814.07 4108.5 1808.2C4111.43 1802.07 4116.37 1796.6 4123.3 1791.8C4130.5 1787 4140.5 1782.6 4153.3 1778.6L4182.5 1768.2L4203.7 1776.6L4187.7 1787C4181.03 1791.8 4175.57 1795.93 4171.3 1799.4C4167.3 1802.6 4164.37 1805.8 4162.5 1809C4160.9 1812.2 4160.1 1816.47 4160.1 1821.8C4160.1 1827.93 4161.43 1832.6 4164.1 1835.8C4166.77 1839.27 4171.57 1841.53 4178.5 1842.6C4185.7 1843.93 4195.43 1844.6 4207.7 1844.6C4220.5 1844.6 4230.5 1843.93 4237.7 1842.6C4244.9 1841.53 4249.83 1839.4 4252.5 1836.2C4255.43 1833 4256.9 1828.47 4256.9 1822.6C4256.9 1817.53 4255.83 1813.8 4253.7 1811.4C4251.83 1809 4248.5 1807.27 4243.7 1806.2C4239.17 1804.87 4232.77 1803.67 4224.5 1802.6L4162.5 1795.8C4152.1 1794.73 4143.97 1791.93 4138.1 1787.4C4132.23 1782.87 4128.1 1777.4 4125.7 1771C4123.57 1764.33 4123.03 1757.67 4124.1 1751C4125.17 1744.33 4127.57 1738.33 4131.3 1733C4135.3 1727.67 4140.37 1723.8 4146.5 1721.4ZM4507.81 1558.6V1747.8C4507.81 1755 4509.41 1760.2 4512.61 1763.4C4516.08 1766.33 4521.68 1767.8 4529.41 1767.8H4555.01L4561.41 1807.8C4556.61 1809.4 4550.74 1810.73 4543.81 1811.8C4536.88 1813.13 4529.94 1814.07 4523.01 1814.6C4516.08 1815.4 4510.21 1815.8 4505.41 1815.8C4487.54 1815.8 4473.54 1811 4463.41 1801.4C4453.54 1791.8 4448.61 1778.33 4448.61 1761L4448.21 1558.6H4507.81ZM4563.01 1613.4V1652.2H4413.81V1615.4L4452.21 1613.4H4563.01ZM4732.27 1608.2C4769.61 1608.2 4788.27 1626.47 4788.27 1663V1811H4728.67V1681.4C4728.67 1672.6 4727.07 1666.6 4723.87 1663.4C4720.94 1659.93 4715.61 1658.2 4707.87 1658.2C4699.34 1658.2 4690.54 1659.8 4681.47 1663C4672.41 1666.2 4661.21 1671.4 4647.87 1678.6L4642.67 1647.8C4657.34 1635 4672.27 1625.27 4687.47 1618.6C4702.67 1611.67 4717.61 1608.2 4732.27 1608.2ZM4653.87 1531L4654.27 1599.4C4654.27 1609.8 4653.61 1619.67 4652.27 1629C4651.21 1638.33 4649.87 1646.2 4648.27 1652.6L4653.87 1657.8V1811H4594.67V1531H4653.87ZM4928.51 1608.2C4961.84 1608.2 4985.71 1613.93 5000.11 1625.4C5014.77 1636.6 5022.11 1653.4 5022.11 1675.8C5022.37 1693.93 5017.84 1707.53 5008.51 1716.6C4999.17 1725.4 4983.04 1729.8 4960.11 1729.8H4849.71V1696.6H4943.71C4952.77 1696.6 4958.51 1694.73 4960.91 1691C4963.57 1687 4964.91 1681.53 4964.91 1674.6C4964.64 1665.27 4961.84 1658.87 4956.51 1655.4C4951.44 1651.67 4942.77 1649.8 4930.51 1649.8C4919.57 1649.8 4911.04 1651.27 4904.91 1654.2C4898.77 1657.13 4894.51 1662.73 4892.11 1671C4889.71 1679.27 4888.51 1691.27 4888.51 1707C4888.51 1723.53 4889.97 1736.33 4892.91 1745.4C4895.84 1754.2 4900.77 1760.33 4907.71 1763.8C4914.91 1767.27 4924.77 1769 4937.31 1769C4946.37 1769 4957.57 1768.73 4970.91 1768.2C4984.51 1767.4 4998.11 1766.2 5011.71 1764.6L5017.31 1801C5009.57 1804.73 5000.77 1807.67 4990.91 1809.8C4981.04 1811.93 4970.91 1813.4 4960.51 1814.2C4950.11 1815.27 4940.11 1815.8 4930.51 1815.8C4905.44 1815.8 4885.17 1812.2 4869.71 1805C4854.51 1797.53 4843.44 1786.2 4836.51 1771C4829.84 1755.8 4826.51 1736.33 4826.51 1712.6C4826.51 1686.73 4829.97 1666.2 4836.91 1651C4843.84 1635.8 4854.77 1624.87 4869.71 1618.2C4884.64 1611.53 4904.24 1608.2 4928.51 1608.2ZM5241.82 1529.8C5255.42 1529.8 5270.22 1530.6 5286.22 1532.2C5302.22 1533.53 5317.82 1536.47 5333.02 1541L5329.02 1581.4C5317.28 1581.13 5303.55 1580.87 5287.82 1580.6C5272.08 1580.33 5256.62 1580.2 5241.42 1580.2C5233.95 1580.2 5227.55 1580.47 5222.22 1581C5217.15 1581.27 5213.02 1582.33 5209.82 1584.2C5206.62 1585.8 5204.35 1588.33 5203.02 1591.8C5201.68 1595.27 5201.02 1600.07 5201.02 1606.2C5201.02 1615.53 5203.15 1622.33 5207.42 1626.6C5211.95 1630.87 5219.55 1634.73 5230.22 1638.2L5283.42 1655.4C5305.55 1662.87 5320.88 1673 5329.42 1685.8C5337.95 1698.6 5342.22 1715.4 5342.22 1736.2C5342.22 1751.93 5340.35 1765 5336.62 1775.4C5332.88 1785.8 5327.02 1793.93 5319.02 1799.8C5311.02 1805.67 5300.48 1809.8 5287.42 1812.2C5274.35 1814.87 5258.35 1816.2 5239.42 1816.2C5230.35 1816.2 5217.42 1815.53 5200.62 1814.2C5183.82 1813.13 5164.62 1810.2 5143.02 1805.4L5147.02 1762.2C5162.75 1762.47 5176.35 1762.87 5187.82 1763.4C5199.55 1763.67 5209.55 1763.93 5217.82 1764.2C5226.08 1764.2 5233.28 1764.2 5239.42 1764.2C5250.08 1764.2 5258.35 1763.53 5264.22 1762.2C5270.35 1760.87 5274.62 1758.2 5277.02 1754.2C5279.42 1750.2 5280.62 1744.47 5280.62 1737C5280.62 1730.6 5279.68 1725.53 5277.82 1721.8C5276.22 1717.8 5273.42 1714.73 5269.42 1712.6C5265.68 1710.2 5260.48 1708.07 5253.82 1706.2L5197.82 1687C5176.75 1679.27 5161.82 1669.13 5153.02 1656.6C5144.22 1644.07 5139.82 1627.53 5139.82 1607C5139.82 1591 5141.68 1578.07 5145.42 1568.2C5149.42 1558.07 5155.42 1550.2 5163.42 1544.6C5171.68 1539 5182.22 1535.13 5195.02 1533C5208.08 1530.87 5223.68 1529.8 5241.82 1529.8ZM5518.99 1608.2C5556.32 1608.2 5574.99 1626.47 5574.99 1663V1811H5515.39V1681.4C5515.39 1672.6 5513.79 1666.6 5510.59 1663.4C5507.66 1659.93 5502.32 1658.2 5494.59 1658.2C5486.06 1658.2 5477.26 1659.8 5468.19 1663C5459.12 1666.2 5447.92 1671.4 5434.59 1678.6L5429.39 1647.8C5444.06 1635 5458.99 1625.27 5474.19 1618.6C5489.39 1611.67 5504.32 1608.2 5518.99 1608.2ZM5440.59 1531L5440.99 1599.4C5440.99 1609.8 5440.32 1619.67 5438.99 1629C5437.92 1638.33 5436.59 1646.2 5434.99 1652.6L5440.59 1657.8V1811H5381.39V1531H5440.59ZM5715.63 1608.2C5740.43 1608.2 5760.29 1611.67 5775.23 1618.6C5790.16 1625.27 5800.83 1636.2 5807.23 1651.4C5813.89 1666.6 5817.23 1687 5817.23 1712.6C5817.23 1737.67 5813.89 1757.8 5807.23 1773C5800.83 1788.2 5790.16 1799.13 5775.23 1805.8C5760.29 1812.47 5740.43 1815.8 5715.63 1815.8C5691.09 1815.8 5671.23 1812.47 5656.03 1805.8C5641.09 1799.13 5630.29 1788.2 5623.63 1773C5616.96 1757.8 5613.63 1737.67 5613.63 1712.6C5613.63 1687 5616.96 1666.6 5623.63 1651.4C5630.29 1636.2 5641.09 1625.27 5656.03 1618.6C5671.23 1611.67 5691.09 1608.2 5715.63 1608.2ZM5715.63 1651.4C5705.49 1651.4 5697.49 1653.13 5691.63 1656.6C5685.76 1660.07 5681.63 1666.2 5679.23 1675C5676.83 1683.8 5675.63 1696.33 5675.63 1712.6C5675.63 1728.6 5676.83 1741 5679.23 1749.8C5681.63 1758.6 5685.76 1764.73 5691.63 1768.2C5697.49 1771.4 5705.49 1773 5715.63 1773C5725.76 1773 5733.76 1771.4 5739.63 1768.2C5745.49 1764.73 5749.63 1758.6 5752.03 1749.8C5754.43 1741 5755.63 1728.6 5755.63 1712.6C5755.63 1696.33 5754.43 1683.8 5752.03 1675C5749.63 1666.2 5745.49 1660.07 5739.63 1656.6C5733.76 1653.13 5725.76 1651.4 5715.63 1651.4ZM6165.21 1613.4L6116.41 1795.4C6115.34 1800.2 6112.94 1804.07 6109.21 1807C6105.48 1809.67 6101.08 1811 6096.01 1811H6051.21C6045.88 1811 6041.21 1809.4 6037.21 1806.2C6033.21 1802.73 6030.81 1798.33 6030.01 1793L6008.41 1681.8C6007.61 1676.2 6006.94 1670.73 6006.41 1665.4C6005.88 1659.8 6005.08 1654.2 6004.01 1648.6H5999.21C5998.41 1654.2 5997.61 1659.8 5996.81 1665.4C5996.01 1670.73 5995.21 1676.2 5994.41 1681.8L5972.81 1793C5972.01 1798.33 5969.61 1802.73 5965.61 1806.2C5961.61 1809.4 5956.94 1811 5951.61 1811H5907.21C5902.14 1811 5897.74 1809.67 5894.01 1807C5890.28 1804.07 5887.88 1800.2 5886.81 1795.4L5838.01 1613.4H5897.61L5924.81 1741.4C5925.88 1746.73 5926.81 1752.2 5927.61 1757.8C5928.41 1763.13 5929.08 1768.47 5929.61 1773.8H5934.81C5935.61 1768.47 5936.41 1763.13 5937.21 1757.8C5938.28 1752.2 5939.21 1746.73 5940.01 1741.4L5961.61 1631.4C5962.41 1626.07 5964.68 1621.8 5968.41 1618.6C5972.14 1615.13 5976.81 1613.4 5982.41 1613.4H6020.81C6026.14 1613.4 6030.68 1615.13 6034.41 1618.6C6038.41 1621.8 6040.81 1626.2 6041.61 1631.8L6062.81 1741.4C6063.61 1746.73 6064.54 1752.07 6065.61 1757.4C6066.68 1762.73 6067.61 1768.2 6068.41 1773.8H6073.21C6074.28 1768.2 6075.08 1762.87 6075.61 1757.8C6076.41 1752.47 6077.34 1747 6078.41 1741.4L6105.61 1613.4H6165.21Z" fill="#FB3640"/>
<path d="M2246.4 207V759H2074.4V207H2246.4ZM2571.43 195.8C2618.9 195.8 2658.9 200.333 2691.43 209.4C2724.5 217.933 2751.16 232.867 2771.43 254.2C2791.7 275.533 2806.36 304.867 2815.43 342.2C2824.5 379 2829.03 425.933 2829.03 483C2829.03 539.533 2824.5 586.467 2815.43 623.8C2806.36 661.133 2791.7 690.467 2771.43 711.8C2751.16 733.133 2724.5 748.333 2691.43 757.4C2658.9 765.933 2618.9 770.2 2571.43 770.2C2524.5 770.2 2484.5 765.933 2451.43 757.4C2418.9 748.333 2392.5 733.133 2372.23 711.8C2351.96 690.467 2337.3 661.133 2328.23 623.8C2319.16 586.467 2314.63 539.533 2314.63 483C2314.63 425.933 2319.16 379 2328.23 342.2C2337.3 304.867 2351.96 275.533 2372.23 254.2C2392.5 232.867 2418.9 217.933 2451.43 209.4C2484.5 200.333 2524.5 195.8 2571.43 195.8ZM2571.43 324.6C2551.7 324.6 2536.5 328.867 2525.83 337.4C2515.16 345.933 2507.7 361.667 2503.43 384.6C2499.16 407.533 2497.03 440.333 2497.03 483C2497.03 525.667 2499.16 558.467 2503.43 581.4C2507.7 604.333 2515.16 620.067 2525.83 628.6C2536.5 637.133 2551.7 641.4 2571.43 641.4C2591.16 641.4 2606.36 637.133 2617.03 628.6C2627.7 620.067 2635.16 604.333 2639.43 581.4C2643.7 558.467 2645.83 525.667 2645.83 483C2645.83 440.333 2643.7 407.533 2639.43 384.6C2635.16 361.667 2627.7 345.933 2617.03 337.4C2606.36 328.867 2591.16 324.6 2571.43 324.6ZM3404.26 207V699C3404.26 739 3384.26 759 3344.26 759H3277.86C3259.72 759 3246.12 754.733 3237.06 746.2C3228.52 737.667 3219.72 725.133 3210.66 708.6L3090.66 519C3083.19 505.133 3076.26 490.2 3069.86 474.2C3063.99 457.667 3058.66 441.133 3053.86 424.6H3048.26C3050.92 441.133 3052.79 458.2 3053.86 475.8C3055.46 492.867 3056.26 509.4 3056.26 525.4V759H2896.26V267C2896.26 227 2916.26 207 2956.26 207H3022.66C3040.79 207 3054.12 211.267 3062.66 219.8C3071.19 228.333 3080.26 240.867 3089.86 257.4L3205.06 438.2C3212.52 451.533 3219.72 466.2 3226.66 482.2C3234.12 498.2 3241.06 515 3247.46 532.6H3253.06C3250.92 515.533 3249.06 498.733 3247.46 482.2C3246.39 465.667 3245.86 449.133 3245.86 432.6L3245.06 207H3404.26ZM2199.2 853.8C2231.2 853.8 2264 854.067 2297.6 854.6C2331.73 854.6 2365.07 855.4 2397.6 857C2430.13 858.067 2459.73 860.467 2486.4 864.2L2478.4 986.6H2276C2265.87 986.6 2257.87 989.267 2252 994.6C2246.13 999.933 2243.2 1006.87 2243.2 1015.4V1250.6C2243.2 1259.13 2246.13 1266.07 2252 1271.4C2257.87 1276.73 2265.87 1279.4 2276 1279.4H2478.4L2486.4 1401.8C2459.73 1405 2430.13 1407.4 2397.6 1409C2365.07 1410.6 2331.73 1411.4 2297.6 1411.4C2264 1411.93 2231.2 1412.2 2199.2 1412.2C2161.33 1412.2 2130.13 1400.73 2105.6 1377.8C2081.6 1354.33 2069.6 1323.93 2069.6 1286.6V979.4C2069.6 942.067 2081.6 911.933 2105.6 889C2130.13 865.533 2161.33 853.8 2199.2 853.8ZM2084 1069H2449.6V1184.2H2084V1069ZM3058.16 857V1349C3058.16 1389 3038.16 1409 2998.16 1409H2931.76C2913.63 1409 2900.03 1404.73 2890.96 1396.2C2882.43 1387.67 2873.63 1375.13 2864.56 1358.6L2744.56 1169C2737.1 1155.13 2730.16 1140.2 2723.76 1124.2C2717.9 1107.67 2712.56 1091.13 2707.76 1074.6H2702.16C2704.83 1091.13 2706.7 1108.2 2707.76 1125.8C2709.36 1142.87 2710.16 1159.4 2710.16 1175.4V1409H2550.16V917C2550.16 877 2570.16 857 2610.16 857H2676.56C2694.7 857 2708.03 861.267 2716.56 869.8C2725.1 878.333 2734.16 890.867 2743.76 907.4L2858.96 1088.2C2866.43 1101.53 2873.63 1116.2 2880.56 1132.2C2888.03 1148.2 2894.96 1165 2901.36 1182.6H2906.96C2904.83 1165.53 2902.96 1148.73 2901.36 1132.2C2900.3 1115.67 2899.76 1099.13 2899.76 1082.6L2898.96 857H3058.16ZM3435.19 857V1409H3261.59V857H3435.19ZM3589.59 857V986.6H3107.19V857H3589.59ZM3764.83 853.8C3796.83 853.8 3829.63 854.067 3863.23 854.6C3897.36 854.6 3930.69 855.4 3963.23 857C3995.76 858.067 4025.36 860.467 4052.03 864.2L4044.03 986.6H3841.63C3831.49 986.6 3823.49 989.267 3817.63 994.6C3811.76 999.933 3808.82 1006.87 3808.82 1015.4V1250.6C3808.82 1259.13 3811.76 1266.07 3817.63 1271.4C3823.49 1276.73 3831.49 1279.4 3841.63 1279.4H4044.03L4052.03 1401.8C4025.36 1405 3995.76 1407.4 3963.23 1409C3930.69 1410.6 3897.36 1411.4 3863.23 1411.4C3829.63 1411.93 3796.83 1412.2 3764.83 1412.2C3726.96 1412.2 3695.76 1400.73 3671.23 1377.8C3647.23 1354.33 3635.23 1323.93 3635.23 1286.6V979.4C3635.23 942.067 3647.23 911.933 3671.23 889C3695.76 865.533 3726.96 853.8 3764.83 853.8ZM3649.63 1069H4015.23V1184.2H3649.63V1069ZM4350.19 849C4404.59 849 4448.85 854.067 4482.99 864.2C4517.12 874.333 4542.19 891.667 4558.19 916.2C4574.72 940.2 4582.99 973.8 4582.99 1017C4582.99 1038.87 4579.52 1059.4 4572.59 1078.6C4566.19 1097.27 4554.72 1112.73 4538.19 1125C4522.19 1137.27 4499.79 1145 4470.99 1148.2V1153C4481.12 1154.07 4492.32 1157.27 4504.59 1162.6C4516.85 1167.4 4528.32 1175.93 4538.99 1188.2C4549.65 1199.93 4557.12 1217 4561.39 1239.4L4604.59 1409H4422.99L4386.99 1245C4383.79 1229.53 4378.72 1219.4 4371.79 1214.6C4365.39 1209.8 4354.72 1207.4 4339.79 1207.4C4299.79 1206.87 4266.99 1206.6 4241.39 1206.6C4216.32 1206.6 4194.99 1206.33 4177.39 1205.8C4159.79 1205.27 4142.19 1204.47 4124.59 1203.4L4126.99 1085H4346.19C4362.72 1085 4375.52 1083.4 4384.59 1080.2C4393.65 1077 4399.79 1071.4 4402.99 1063.4C4406.72 1054.87 4408.59 1043.13 4408.59 1028.2C4408.59 1012.73 4406.72 1001 4402.99 993C4399.79 985 4393.65 979.4 4384.59 976.2C4375.52 973 4362.72 971.4 4346.19 971.4C4290.72 971.4 4244.05 971.667 4206.19 972.2C4168.32 972.733 4142.45 973.8 4128.59 975.4L4115.79 857C4140.32 854.333 4163.25 852.467 4184.59 851.4C4206.45 850.333 4230.19 849.8 4255.79 849.8C4281.92 849.267 4313.39 849 4350.19 849ZM4286.19 857V1409H4115.79V857H4286.19ZM4946.91 857V1409H4773.31V857H4946.91ZM5101.31 857V986.6H4618.91V857H5101.31ZM5415.25 857C5429.12 857 5441.38 861 5452.05 869C5462.72 877 5469.92 887.933 5473.65 901.8L5616.85 1409H5440.05L5356.85 1049.8C5354.72 1039.67 5352.85 1029.27 5351.25 1018.6C5349.65 1007.4 5348.32 996.733 5347.25 986.6H5325.65C5324.58 996.733 5323.25 1007.4 5321.65 1018.6C5320.05 1029.27 5318.18 1039.67 5316.05 1049.8L5232.85 1409H5056.05L5199.25 901.8C5202.98 887.933 5210.18 877 5220.85 869C5231.52 861 5243.78 857 5257.65 857H5415.25ZM5483.25 1168.2V1289.8H5189.65V1168.2H5483.25ZM5823.74 857V1409H5651.74V857H5823.74ZM6415.98 857V1349C6415.98 1389 6395.98 1409 6355.98 1409H6289.58C6271.44 1409 6257.84 1404.73 6248.78 1396.2C6240.24 1387.67 6231.44 1375.13 6222.38 1358.6L6102.38 1169C6094.91 1155.13 6087.98 1140.2 6081.58 1124.2C6075.71 1107.67 6070.38 1091.13 6065.58 1074.6H6059.98C6062.64 1091.13 6064.51 1108.2 6065.58 1125.8C6067.18 1142.87 6067.98 1159.4 6067.98 1175.4V1409H5907.98V917C5907.98 877 5927.98 857 5967.98 857H6034.38C6052.51 857 6065.84 861.267 6074.38 869.8C6082.91 878.333 6091.98 890.867 6101.57 907.4L6216.78 1088.2C6224.24 1101.53 6231.44 1116.2 6238.38 1132.2C6245.84 1148.2 6252.78 1165 6259.18 1182.6H6264.78C6262.64 1165.53 6260.78 1148.73 6259.18 1132.2C6258.11 1115.67 6257.58 1099.13 6257.58 1082.6L6256.78 857H6415.98ZM7106.6 857C7145.53 857 7165.8 877 7167.4 917L7186.6 1409H7030.6L7013.8 986.6H7001.8L6947.4 1268.2C6942.07 1303.4 6920.2 1321 6881.8 1321H6792.2C6754.33 1321 6732.2 1303.4 6725.8 1268.2L6670.6 986.6H6658.6L6645 1409H6489L6508.2 917C6509.8 877 6530.07 857 6569 857H6718.6C6755.93 857 6777.8 874.867 6784.2 910.6L6824.2 1129.8C6826.33 1143.13 6827.93 1156.73 6829 1170.6C6830.6 1184.47 6831.93 1198.33 6833 1212.2H6840.2C6841.8 1198.33 6843.13 1184.47 6844.2 1170.6C6845.8 1156.73 6847.67 1143.13 6849.8 1129.8L6887.4 910.6C6893.8 874.867 6915.93 857 6953.8 857H7106.6ZM7385.92 853.8C7417.92 853.8 7450.72 854.067 7484.32 854.6C7518.45 854.6 7551.79 855.4 7584.32 857C7616.85 858.067 7646.45 860.467 7673.12 864.2L7665.12 986.6H7462.72C7452.59 986.6 7444.59 989.267 7438.72 994.6C7432.85 999.933 7429.92 1006.87 7429.92 1015.4V1250.6C7429.92 1259.13 7432.85 1266.07 7438.72 1271.4C7444.59 1276.73 7452.59 1279.4 7462.72 1279.4H7665.12L7673.12 1401.8C7646.45 1405 7616.85 1407.4 7584.32 1409C7551.79 1410.6 7518.45 1411.4 7484.32 1411.4C7450.72 1411.93 7417.92 1412.2 7385.92 1412.2C7348.05 1412.2 7316.85 1400.73 7292.32 1377.8C7268.32 1354.33 7256.32 1323.93 7256.32 1286.6V979.4C7256.32 942.067 7268.32 911.933 7292.32 889C7316.85 865.533 7348.05 853.8 7385.92 853.8ZM7270.72 1069H7636.32V1184.2H7270.72V1069ZM8244.88 857V1349C8244.88 1389 8224.88 1409 8184.88 1409H8118.48C8100.35 1409 8086.75 1404.73 8077.68 1396.2C8069.15 1387.67 8060.35 1375.13 8051.28 1358.6L7931.28 1169C7923.81 1155.13 7916.88 1140.2 7910.48 1124.2C7904.61 1107.67 7899.28 1091.13 7894.48 1074.6H7888.88C7891.55 1091.13 7893.41 1108.2 7894.48 1125.8C7896.08 1142.87 7896.88 1159.4 7896.88 1175.4V1409H7736.88V917C7736.88 877 7756.88 857 7796.88 857H7863.28C7881.41 857 7894.75 861.267 7903.28 869.8C7911.81 878.333 7920.88 890.867 7930.48 907.4L8045.68 1088.2C8053.15 1101.53 8060.35 1116.2 8067.28 1132.2C8074.75 1148.2 8081.68 1165 8088.08 1182.6H8093.68C8091.55 1165.53 8089.68 1148.73 8088.08 1132.2C8087.01 1115.67 8086.48 1099.13 8086.48 1082.6L8085.68 857H8244.88ZM8621.91 857V1409H8448.31V857H8621.91ZM8776.31 857V986.6H8293.91V857H8776.31Z" fill="#F2F5EA"/>
<rect x="150" y="150" width="1700" height="1700" rx="300" stroke="#F2F5EA" stroke-width="100"/>
<mask id="mask0_7_1923" style="mask-type:alpha" maskUnits="userSpaceOnUse" x="200" y="200" width="1600" height="1600">
<rect x="200" y="200" width="1600" height="1600" rx="250" fill="#F2F5EA"/>
</mask>
<g mask="url(#mask0_7_1923)">
<path d="M791.835 564.843C842.242 606.05 893.323 649.852 944.544 695.87C901.97 735.485 859.683 776.274 817.979 817.978C695.866 940.091 581.589 1067.2 481.718 1191.88C381.734 1316.69 298.903 1435.67 237.419 1541.87C175.304 1649.16 138.948 1736.61 125.101 1800.51C118.229 1832.22 117.939 1853.51 119.803 1866.32C120.748 1872.81 122.057 1876.11 122.754 1877.46C124.108 1878.16 127.401 1879.47 133.9 1880.42C146.71 1882.28 167.996 1881.99 199.708 1875.12C263.607 1861.27 351.056 1824.91 458.346 1762.8C558.862 1704.61 670.827 1627.29 788.352 1534.4C838.991 1580.74 890.039 1625.53 941.081 1668.41C938.513 1670.47 935.947 1672.54 933.381 1674.59C802.712 1779.27 675.398 1868.24 558.552 1935.88C442.797 2002.9 334.816 2050.48 242.064 2070.58C154.845 2089.48 53.2681 2089.4 -17.1006 2020.61L-18.7568 2018.97C-89.1812 1948.55 -89.4116 1846.06 -70.3623 1758.15C-50.263 1665.4 -2.68319 1557.42 64.333 1441.67C131.981 1324.82 220.95 1197.51 325.624 1066.84C430.411 936.026 549.644 803.47 676.558 676.556C714.544 638.57 753.036 601.272 791.835 564.843ZM1758.15 -70.363C1846.06 -89.4123 1948.55 -89.1829 2018.98 -18.7585L2020.61 -17.1023C2089.4 53.2665 2089.48 154.844 2070.58 242.064C2050.48 334.815 2002.9 442.796 1935.89 558.551C1868.24 675.397 1779.27 802.711 1674.59 933.38C1569.81 1064.19 1450.58 1196.75 1323.66 1323.66C1285.68 1361.65 1247.18 1398.94 1208.38 1435.37C1157.66 1393.91 1106.59 1350.08 1055.68 1304.34C1098.25 1264.73 1140.54 1223.94 1182.24 1182.24C1304.35 1060.13 1418.63 933.013 1518.5 808.34C1618.49 683.526 1701.32 564.544 1762.8 458.344C1824.92 351.054 1861.27 263.606 1875.12 199.706C1881.99 167.995 1882.28 146.71 1880.42 133.9C1879.47 127.403 1878.16 124.111 1877.46 122.755C1876.11 122.059 1872.82 120.748 1866.32 119.802C1853.51 117.938 1832.22 118.228 1800.51 125.1C1736.61 138.947 1649.16 175.302 1541.88 237.417C1441.36 295.611 1329.39 372.928 1211.87 465.812C1161.14 419.403 1110.1 374.614 1059.14 331.808C1061.71 329.741 1064.27 327.679 1066.84 325.623C1197.51 220.95 1324.82 131.98 1441.67 64.3323C1557.42 -2.68377 1665.4 -50.2637 1758.15 -70.363Z" fill="#F2F5EA"/>
<path d="M675.148 1049.66C718.786 1096.92 763.893 1143.87 810.119 1190.1C932.499 1312.48 1059.92 1427.03 1184.93 1527.17C1310.07 1627.42 1429.51 1710.59 1536.31 1772.42C1644.07 1834.8 1732.65 1871.78 1798.16 1885.98C1867.89 1901.09 1885.25 1885.56 1885.41 1885.41C1885.69 1885.13 1901.03 1867.61 1885.97 1798.16C1871.93 1733.33 1835.38 1645.07 1772.41 1536.31C1710.26 1428.94 1627.54 1310.49 1529.73 1188.13C1570.71 1143.08 1610.45 1097.74 1648.67 1052.39C1759.9 1189.39 1854.85 1323.88 1926.27 1447.23C1993.7 1563.7 2040.14 1670.16 2059.72 1760.51C2078.3 1846.22 2077.9 1944.34 2011.12 2011.12C1944.83 2077.41 1847.35 2078.54 1760.51 2059.72C1669.36 2039.97 1562.52 1993.01 1447.23 1926.27C1330.98 1858.96 1204.13 1770.33 1073.78 1665.92C943.314 1561.41 811.059 1442.45 684.412 1315.8C641.488 1272.88 599.449 1229.31 558.555 1185.39C595.699 1140.27 634.67 1094.9 675.148 1049.66ZM-10.9023 -10.9015C55.8758 -77.6794 153.994 -78.0775 239.709 -59.5031C330.056 -39.9247 436.515 6.52075 552.982 73.9491C786.841 209.341 1060.72 429.327 1315.8 684.413C1358.83 727.444 1400.86 771.011 1441.66 814.829C1404.52 859.951 1365.55 905.313 1325.07 950.552C1281.64 903.513 1236.55 856.573 1190.1 810.121C942.249 562.275 680.512 353.203 463.909 227.802C355.146 164.834 266.886 128.289 202.059 114.241C132.62 99.1937 115.095 114.518 114.806 114.807C114.68 114.933 99.1156 132.268 114.239 202.059C128.434 267.562 165.413 356.151 227.801 463.911C289.1 569.791 371.382 688.108 470.481 812.083C429.501 857.133 389.765 902.477 351.546 947.822C345.753 940.688 340.001 933.558 334.294 926.433C229.881 796.09 141.253 669.238 73.9473 552.983C7.20345 437.698 -39.753 330.858 -59.5049 239.71C-78.3233 152.868 -77.1911 55.3874 -10.9023 -10.9015Z" fill="#FB3640"/>
</g>
</svg>
