<svg width="5250" height="2000" viewBox="0 0 5250 2000" fill="none" xmlns="http://www.w3.org/2000/svg">
<path d="M2165.13 1555.12C2179.13 1555.12 2193.25 1555.25 2207.5 1555.5C2221.75 1555.5 2235.75 1555.75 2249.5 1556.25C2263.25 1556.75 2276.13 1557.62 2288.13 1558.87L2285.5 1600.5H2186.13C2179.88 1600.5 2175.13 1602.12 2171.88 1605.37C2168.88 1608.62 2167.38 1613.37 2167.38 1619.62V1751.62C2167.38 1757.87 2168.88 1762.62 2171.88 1765.87C2175.13 1769.12 2179.88 1770.75 2186.13 1770.75H2285.5L2288.13 1812.37C2276.13 1813.37 2263.25 1814.25 2249.5 1815C2235.75 1815.5 2221.75 1815.75 2207.5 1815.75C2193.25 1816 2179.13 1816.13 2165.13 1816.13C2148.63 1816.13 2135.25 1811.37 2125 1801.87C2115 1792.12 2110 1779.5 2110 1764V1607.25C2110 1591.5 2115 1578.87 2125 1569.37C2135.25 1559.87 2148.63 1555.12 2165.13 1555.12ZM2116.75 1660.12H2271.63V1700.62H2116.75V1660.12ZM2547.67 1556.25V1794.37C2547.67 1808.12 2540.8 1815 2527.05 1815H2495.55C2489.3 1815 2484.55 1813.62 2481.3 1810.87C2478.05 1807.87 2475.05 1803.5 2472.3 1797.75L2400.67 1662C2397.67 1656.25 2394.67 1649.87 2391.67 1642.87C2388.92 1635.87 2386.55 1629.12 2384.55 1622.62H2380.42C2381.17 1629.37 2381.8 1636.25 2382.3 1643.25C2382.8 1650 2383.05 1656.75 2383.05 1663.5V1815H2328.67V1576.87C2328.67 1563.12 2335.67 1556.25 2349.67 1556.25H2380.8C2386.8 1556.25 2391.3 1557.75 2394.3 1560.75C2397.55 1563.5 2400.67 1567.75 2403.67 1573.5L2473.05 1705.12C2476.05 1710.87 2479.17 1717.25 2482.42 1724.25C2485.67 1731.25 2488.8 1738.5 2491.8 1746H2496.3C2495.55 1738.5 2494.92 1731.25 2494.42 1724.25C2494.17 1717 2494.05 1709.87 2494.05 1702.87L2493.67 1556.25H2547.67ZM2714.8 1556.25V1815H2657.43V1556.25H2714.8ZM2792.8 1556.25V1601.25H2579.8V1556.25H2792.8ZM2878.14 1555.12C2892.14 1555.12 2906.26 1555.25 2920.51 1555.5C2934.76 1555.5 2948.76 1555.75 2962.51 1556.25C2976.26 1556.75 2989.14 1557.62 3001.14 1558.87L2998.51 1600.5H2899.14C2892.89 1600.5 2888.14 1602.12 2884.89 1605.37C2881.89 1608.62 2880.39 1613.37 2880.39 1619.62V1751.62C2880.39 1757.87 2881.89 1762.62 2884.89 1765.87C2888.14 1769.12 2892.89 1770.75 2899.14 1770.75H2998.51L3001.14 1812.37C2989.14 1813.37 2976.26 1814.25 2962.51 1815C2948.76 1815.5 2934.76 1815.75 2920.51 1815.75C2906.26 1816 2892.14 1816.13 2878.14 1816.13C2861.64 1816.13 2848.26 1811.37 2838.01 1801.87C2828.01 1792.12 2823.01 1779.5 2823.01 1764V1607.25C2823.01 1591.5 2828.01 1578.87 2838.01 1569.37C2848.26 1559.87 2861.64 1555.12 2878.14 1555.12ZM2829.76 1660.12H2984.64V1700.62H2829.76V1660.12ZM3141.43 1552.5C3164.18 1552.5 3182.56 1554.87 3196.56 1559.62C3210.81 1564.12 3221.18 1572 3227.68 1583.25C3234.43 1594.25 3237.81 1609.62 3237.81 1629.37C3237.81 1641.37 3236.18 1652 3232.93 1661.25C3229.93 1670.25 3224.81 1677.5 3217.56 1683C3210.31 1688.5 3200.43 1692 3187.93 1693.5V1695.37C3192.43 1696.12 3197.06 1697.87 3201.81 1700.62C3206.81 1703.37 3211.43 1707.5 3215.68 1713C3219.93 1718.25 3223.06 1725.37 3225.06 1734.37L3247.56 1815H3187.18L3167.31 1736.25C3165.06 1727.75 3161.68 1721.87 3157.18 1718.63C3152.93 1715.37 3146.93 1713.75 3139.18 1713.75C3122.18 1713.75 3107.81 1713.75 3096.06 1713.75C3084.56 1713.5 3074.81 1713.25 3066.81 1713C3059.06 1712.75 3052.06 1712.5 3045.81 1712.25L3046.93 1670.62H3140.31C3150.31 1670.62 3158.18 1669.62 3163.93 1667.62C3169.93 1665.37 3174.06 1661.5 3176.31 1656C3178.81 1650.5 3180.06 1642.87 3180.06 1633.12C3180.06 1623.12 3178.81 1615.5 3176.31 1610.25C3174.06 1604.75 3169.93 1601 3163.93 1599C3158.18 1596.75 3150.31 1595.62 3140.31 1595.62C3116.81 1595.62 3096.93 1595.75 3080.68 1596C3064.43 1596.25 3053.31 1596.62 3047.31 1597.12L3041.68 1556.25C3052.18 1555 3062.06 1554.12 3071.31 1553.62C3080.56 1553.12 3090.68 1552.87 3101.68 1552.87C3112.68 1552.62 3125.93 1552.5 3141.43 1552.5ZM3098.31 1556.25V1815H3041.68V1556.25H3098.31ZM3397.05 1556.25V1815H3339.68V1556.25H3397.05ZM3475.05 1556.25V1601.25H3262.05V1556.25H3475.05ZM3609.28 1556.25C3614.03 1556.25 3618.16 1557.62 3621.66 1560.37C3625.41 1563.12 3627.91 1566.75 3629.16 1571.25L3704.16 1815H3645.66L3592.78 1624.87C3591.78 1620.62 3590.78 1616.37 3589.78 1612.12C3588.78 1607.62 3587.91 1603.37 3587.16 1599.37H3577.03C3576.28 1603.37 3575.41 1607.62 3574.41 1612.12C3573.66 1616.37 3572.66 1620.62 3571.41 1624.87L3518.53 1815H3459.66L3535.03 1571.25C3536.28 1566.75 3538.66 1563.12 3542.16 1560.37C3545.91 1557.62 3550.16 1556.25 3554.91 1556.25H3609.28ZM3649.03 1703.62V1746.75H3514.78V1703.62H3649.03ZM3787.9 1556.25V1815H3730.9V1556.25H3787.9ZM4059.02 1556.25V1794.37C4059.02 1808.12 4052.15 1815 4038.4 1815H4006.9C4000.65 1815 3995.9 1813.62 3992.65 1810.87C3989.4 1807.87 3986.4 1803.5 3983.65 1797.75L3912.02 1662C3909.02 1656.25 3906.02 1649.87 3903.02 1642.87C3900.27 1635.87 3897.9 1629.12 3895.9 1622.62H3891.77C3892.52 1629.37 3893.15 1636.25 3893.65 1643.25C3894.15 1650 3894.4 1656.75 3894.4 1663.5V1815H3840.02V1576.87C3840.02 1563.12 3847.02 1556.25 3861.02 1556.25H3892.15C3898.15 1556.25 3902.65 1557.75 3905.65 1560.75C3908.9 1563.5 3912.02 1567.75 3915.02 1573.5L3984.4 1705.12C3987.4 1710.87 3990.52 1717.25 3993.77 1724.25C3997.02 1731.25 4000.15 1738.5 4003.15 1746H4007.65C4006.9 1738.5 4006.27 1731.25 4005.77 1724.25C4005.52 1717 4005.4 1709.87 4005.4 1702.87L4005.02 1556.25H4059.02ZM4375.78 1556.25C4389.28 1556.25 4396.28 1563.25 4396.78 1577.25L4406.53 1815H4353.65L4345.03 1600.5H4338.28L4296.65 1761.75C4294.4 1773.75 4286.9 1779.75 4274.15 1779.75H4238.15C4225.4 1779.75 4217.65 1773.75 4214.9 1761.75L4173.28 1600.5H4166.9L4159.03 1815H4105.78L4115.53 1577.25C4116.03 1563.25 4123.15 1556.25 4136.9 1556.25H4190.53C4202.78 1556.25 4210.28 1562.37 4213.03 1574.62L4246.4 1704.75C4247.9 1710.75 4249.15 1716.87 4250.15 1723.12C4251.15 1729.12 4252.28 1735.25 4253.53 1741.5H4258.4C4259.65 1735.25 4260.78 1729.12 4261.78 1723.12C4263.03 1716.87 4264.28 1710.62 4265.53 1704.37L4298.53 1574.62C4301.03 1562.37 4308.53 1556.25 4321.03 1556.25H4375.78ZM4507.04 1555.12C4521.04 1555.12 4535.17 1555.25 4549.42 1555.5C4563.67 1555.5 4577.67 1555.75 4591.42 1556.25C4605.17 1556.75 4618.04 1557.62 4630.04 1558.87L4627.42 1600.5H4528.04C4521.79 1600.5 4517.04 1602.12 4513.79 1605.37C4510.79 1608.62 4509.29 1613.37 4509.29 1619.62V1751.62C4509.29 1757.87 4510.79 1762.62 4513.79 1765.87C4517.04 1769.12 4521.79 1770.75 4528.04 1770.75H4627.42L4630.04 1812.37C4618.04 1813.37 4605.17 1814.25 4591.42 1815C4577.67 1815.5 4563.67 1815.75 4549.42 1815.75C4535.17 1816 4521.04 1816.13 4507.04 1816.13C4490.54 1816.13 4477.17 1811.37 4466.92 1801.87C4456.92 1792.12 4451.92 1779.5 4451.92 1764V1607.25C4451.92 1591.5 4456.92 1578.87 4466.92 1569.37C4477.17 1559.87 4490.54 1555.12 4507.04 1555.12ZM4458.67 1660.12H4613.54V1700.62H4458.67V1660.12ZM4889.59 1556.25V1794.37C4889.59 1808.12 4882.72 1815 4868.97 1815H4837.47C4831.22 1815 4826.47 1813.62 4823.22 1810.87C4819.97 1807.87 4816.97 1803.5 4814.22 1797.75L4742.59 1662C4739.59 1656.25 4736.59 1649.87 4733.59 1642.87C4730.84 1635.87 4728.47 1629.12 4726.47 1622.62H4722.34C4723.09 1629.37 4723.72 1636.25 4724.22 1643.25C4724.72 1650 4724.97 1656.75 4724.97 1663.5V1815H4670.59V1576.87C4670.59 1563.12 4677.59 1556.25 4691.59 1556.25H4722.72C4728.72 1556.25 4733.22 1557.75 4736.22 1560.75C4739.47 1563.5 4742.59 1567.75 4745.59 1573.5L4814.97 1705.12C4817.97 1710.87 4821.09 1717.25 4824.34 1724.25C4827.59 1731.25 4830.72 1738.5 4833.72 1746H4838.22C4837.47 1738.5 4836.84 1731.25 4836.34 1724.25C4836.09 1717 4835.97 1709.87 4835.97 1702.87L4835.59 1556.25H4889.59ZM5056.72 1556.25V1815H4999.35V1556.25H5056.72ZM5134.72 1556.25V1601.25H4921.72V1556.25H5134.72Z" fill="#69DC9E"/>
<path d="M2482.4 185V1427H2095.4V185H2482.4ZM3213.72 159.8C3320.52 159.8 3410.52 170 3483.72 190.4C3558.12 209.6 3618.12 243.2 3663.72 291.2C3709.32 339.2 3742.32 405.2 3762.72 489.2C3783.12 572 3793.32 677.6 3793.32 806C3793.32 933.2 3783.12 1038.8 3762.72 1122.8C3742.32 1206.8 3709.32 1272.8 3663.72 1320.8C3618.12 1368.8 3558.12 1403 3483.72 1423.4C3410.52 1442.6 3320.52 1452.2 3213.72 1452.2C3108.12 1452.2 3018.12 1442.6 2943.72 1423.4C2870.52 1403 2811.12 1368.8 2765.52 1320.8C2719.92 1272.8 2686.92 1206.8 2666.52 1122.8C2646.12 1038.8 2635.92 933.2 2635.92 806C2635.92 677.6 2646.12 572 2666.52 489.2C2686.92 405.2 2719.92 339.2 2765.52 291.2C2811.12 243.2 2870.52 209.6 2943.72 190.4C3018.12 170 3108.12 159.8 3213.72 159.8ZM3213.72 449.6C3169.32 449.6 3135.12 459.2 3111.12 478.4C3087.12 497.6 3070.32 533 3060.72 584.6C3051.12 636.2 3046.32 710 3046.32 806C3046.32 902 3051.12 975.8 3060.72 1027.4C3070.32 1079 3087.12 1114.4 3111.12 1133.6C3135.12 1152.8 3169.32 1162.4 3213.72 1162.4C3258.12 1162.4 3292.32 1152.8 3316.32 1133.6C3340.32 1114.4 3357.12 1079 3366.72 1027.4C3376.32 975.8 3381.12 902 3381.12 806C3381.12 710 3376.32 636.2 3366.72 584.6C3357.12 533 3340.32 497.6 3316.32 478.4C3292.32 459.2 3258.12 449.6 3213.72 449.6ZM5087.58 185V1292C5087.58 1382 5042.58 1427 4952.58 1427H4803.18C4762.38 1427 4731.78 1417.4 4711.38 1398.2C4692.18 1379 4672.38 1350.8 4651.98 1313.6L4381.98 887C4365.18 855.8 4349.58 822.2 4335.18 786.2C4321.98 749 4309.98 711.8 4299.18 674.6H4286.58C4292.58 711.8 4296.78 750.2 4299.18 789.8C4302.78 828.2 4304.58 865.4 4304.58 901.4V1427H3944.58V320C3944.58 230 3989.58 185 4079.58 185H4228.98C4269.78 185 4299.78 194.6 4318.98 213.8C4338.18 233 4358.58 261.2 4380.18 298.4L4639.38 705.2C4656.18 735.2 4672.38 768.2 4687.98 804.2C4704.78 840.2 4720.38 878 4734.78 917.6H4747.38C4742.58 879.2 4738.38 841.4 4734.78 804.2C4732.38 767 4731.18 729.8 4731.18 692.6L4729.38 185H5087.58Z" fill="#F2F5EA"/>
<rect x="163" y="150" width="1700" height="1700" rx="300" stroke="#F2F5EA" stroke-width="100"/>
<mask id="mask0_7_2521" style="mask-type:alpha" maskUnits="userSpaceOnUse" x="213" y="200" width="1600" height="1600">
<rect x="213" y="200" width="1600" height="1600" rx="250" fill="#F2F5EA"/>
</mask>
<g mask="url(#mask0_7_2521)">
<path d="M804.833 564.843C855.239 606.05 906.32 649.852 957.541 695.87C914.968 735.484 872.68 776.274 830.977 817.978C708.863 940.091 594.586 1067.2 494.715 1191.88C394.731 1316.69 311.901 1435.67 250.417 1541.87C188.302 1649.16 151.946 1736.61 138.099 1800.51C131.227 1832.22 130.937 1853.51 132.801 1866.32C133.746 1872.81 135.055 1876.11 135.752 1877.46C137.106 1878.16 140.399 1879.47 146.898 1880.42C159.708 1882.28 180.993 1881.99 212.705 1875.12C276.604 1861.27 364.053 1824.91 471.343 1762.8C571.859 1704.61 683.824 1627.29 801.349 1534.4C851.988 1580.74 903.036 1625.53 954.078 1668.41C951.511 1670.48 948.944 1672.54 946.378 1674.59C815.709 1779.27 688.395 1868.24 571.549 1935.88C455.794 2002.9 347.813 2050.48 255.062 2070.58C167.842 2089.48 66.266 2089.4 -4.10254 2020.61L-5.75977 2018.97C-76.1842 1948.55 -76.4135 1846.06 -57.3643 1758.15C-37.2649 1665.4 10.3149 1557.42 77.3311 1441.67C144.979 1324.82 233.948 1197.5 338.622 1066.84C443.409 936.026 562.642 803.469 689.556 676.556C727.542 638.569 766.034 601.271 804.833 564.843ZM1771.15 -70.3633C1859.06 -89.4124 1961.55 -89.1829 2031.97 -18.7588L1890.55 122.663L2031.97 -18.7578C2102.4 51.6669 2102.63 154.157 2083.58 242.063C2063.48 334.815 2015.9 442.796 1948.88 558.551C1881.24 675.397 1792.27 802.712 1687.59 933.381C1582.8 1064.19 1463.57 1196.75 1336.66 1323.66C1298.67 1361.65 1260.18 1398.94 1221.38 1435.37C1170.66 1393.91 1119.58 1350.08 1068.67 1304.34C1111.25 1264.73 1153.53 1223.94 1195.24 1182.24C1317.35 1060.13 1431.63 933.013 1531.5 808.34C1631.48 683.525 1714.31 564.543 1775.8 458.344C1837.91 351.054 1874.27 263.606 1888.12 199.707C1894.99 167.995 1895.28 146.709 1893.41 133.899C1892.47 127.401 1891.16 124.109 1890.46 122.754C1889.11 122.057 1885.81 120.747 1879.32 119.802C1866.51 117.938 1845.22 118.228 1813.51 125.1C1749.61 138.947 1662.16 175.302 1554.87 237.417C1454.36 295.61 1342.39 372.928 1224.87 465.812C1174.14 419.403 1123.1 374.614 1072.14 331.808C1074.7 329.741 1077.27 327.679 1079.84 325.623C1210.5 220.949 1337.82 131.98 1454.67 64.332C1570.42 -2.68408 1678.4 -50.264 1771.15 -70.3633Z" fill="#F2F5EA"/>
<path d="M688.149 1049.66C731.787 1096.92 776.894 1143.87 823.12 1190.1C945.5 1312.48 1072.92 1427.03 1197.93 1527.17C1323.07 1627.42 1442.52 1710.59 1549.31 1772.42C1657.07 1834.8 1745.66 1871.78 1811.16 1885.98C1880.89 1901.09 1898.25 1885.56 1898.41 1885.41C1898.69 1885.13 1914.03 1867.61 1898.98 1798.16C1884.93 1733.33 1848.38 1645.07 1785.42 1536.31C1723.26 1428.94 1640.54 1310.49 1542.73 1188.13C1583.71 1143.08 1623.45 1097.74 1661.67 1052.39C1772.9 1189.39 1867.85 1323.88 1939.27 1447.23C2006.7 1563.7 2053.14 1670.16 2072.72 1760.51C2091.3 1846.22 2090.9 1944.34 2024.12 2011.12C1957.83 2077.41 1860.35 2078.54 1773.51 2059.72C1682.36 2039.97 1575.52 1993.01 1460.23 1926.27C1343.98 1858.96 1217.13 1770.34 1086.78 1665.92C956.315 1561.41 824.06 1442.45 697.413 1315.8C654.489 1272.88 612.45 1229.31 571.556 1185.39C608.7 1140.27 647.671 1094.9 688.149 1049.66ZM2.09863 -10.9014C68.8768 -77.6793 166.995 -78.0774 252.71 -59.5029C343.057 -39.9246 449.516 6.52087 565.983 73.9492C799.842 209.341 1073.72 429.327 1328.8 684.413C1371.83 727.444 1413.87 771.011 1454.66 814.829C1417.52 859.951 1378.55 905.313 1338.07 950.552C1294.64 903.513 1249.55 856.573 1203.1 810.121C955.25 562.275 693.513 353.203 476.91 227.802C368.147 164.834 279.887 128.289 215.06 114.241C145.621 99.1938 128.096 114.518 127.807 114.807C127.681 114.933 112.117 132.268 127.24 202.06C141.435 267.562 178.414 356.151 240.802 463.911C302.1 569.791 384.383 688.108 483.482 812.083C442.502 857.133 402.766 902.477 364.547 947.822C358.754 940.688 353.002 933.558 347.295 926.434C242.882 796.09 154.253 669.238 86.9482 552.983C20.2044 437.699 -26.752 330.858 -46.5039 239.71C-65.3224 152.868 -64.1902 55.3875 2.09863 -10.9014Z" fill="#69DC9E"/>
</g>
</svg>
