<svg width="5050" height="1800" viewBox="0 0 5050 1800" fill="none" xmlns="http://www.w3.org/2000/svg">
<g clip-path="url(#clip0_7_2758)">
<path d="M2065.13 1455.12C2079.13 1455.12 2093.25 1455.25 2107.5 1455.5C2121.75 1455.5 2135.75 1455.75 2149.5 1456.25C2163.25 1456.75 2176.13 1457.62 2188.13 1458.87L2185.5 1500.5H2086.13C2079.88 1500.5 2075.13 1502.12 2071.88 1505.37C2068.88 1508.62 2067.38 1513.37 2067.38 1519.62V1651.62C2067.38 1657.87 2068.88 1662.62 2071.88 1665.87C2075.13 1669.12 2079.88 1670.75 2086.13 1670.75H2185.5L2188.13 1712.37C2176.13 1713.37 2163.25 1714.25 2149.5 1715C2135.75 1715.5 2121.75 1715.75 2107.5 1715.75C2093.25 1716 2079.13 1716.13 2065.13 1716.13C2048.63 1716.13 2035.25 1711.37 2025 1701.87C2015 1692.12 2010 1679.5 2010 1664V1507.25C2010 1491.5 2015 1478.87 2025 1469.37C2035.25 1459.87 2048.63 1455.12 2065.13 1455.12ZM2016.75 1560.12H2171.63V1600.62H2016.75V1560.12ZM2447.67 1456.25V1694.37C2447.67 1708.12 2440.8 1715 2427.05 1715H2395.55C2389.3 1715 2384.55 1713.62 2381.3 1710.87C2378.05 1707.87 2375.05 1703.5 2372.3 1697.75L2300.67 1562C2297.67 1556.25 2294.67 1549.87 2291.67 1542.87C2288.92 1535.87 2286.55 1529.12 2284.55 1522.62H2280.42C2281.17 1529.37 2281.8 1536.25 2282.3 1543.25C2282.8 1550 2283.05 1556.75 2283.05 1563.5V1715H2228.67V1476.87C2228.67 1463.12 2235.67 1456.25 2249.67 1456.25H2280.8C2286.8 1456.25 2291.3 1457.75 2294.3 1460.75C2297.55 1463.5 2300.67 1467.75 2303.67 1473.5L2373.05 1605.12C2376.05 1610.87 2379.17 1617.25 2382.42 1624.25C2385.67 1631.25 2388.8 1638.5 2391.8 1646H2396.3C2395.55 1638.5 2394.92 1631.25 2394.42 1624.25C2394.17 1617 2394.05 1609.87 2394.05 1602.87L2393.67 1456.25H2447.67ZM2614.8 1456.25V1715H2557.43V1456.25H2614.8ZM2692.8 1456.25V1501.25H2479.8V1456.25H2692.8ZM2778.14 1455.12C2792.14 1455.12 2806.26 1455.25 2820.51 1455.5C2834.76 1455.5 2848.76 1455.75 2862.51 1456.25C2876.26 1456.75 2889.14 1457.62 2901.14 1458.87L2898.51 1500.5H2799.14C2792.89 1500.5 2788.14 1502.12 2784.89 1505.37C2781.89 1508.62 2780.39 1513.37 2780.39 1519.62V1651.62C2780.39 1657.87 2781.89 1662.62 2784.89 1665.87C2788.14 1669.12 2792.89 1670.75 2799.14 1670.75H2898.51L2901.14 1712.37C2889.14 1713.37 2876.26 1714.25 2862.51 1715C2848.76 1715.5 2834.76 1715.75 2820.51 1715.75C2806.26 1716 2792.14 1716.13 2778.14 1716.13C2761.64 1716.13 2748.26 1711.37 2738.01 1701.87C2728.01 1692.12 2723.01 1679.5 2723.01 1664V1507.25C2723.01 1491.5 2728.01 1478.87 2738.01 1469.37C2748.26 1459.87 2761.64 1455.12 2778.14 1455.12ZM2729.76 1560.12H2884.64V1600.62H2729.76V1560.12ZM3041.43 1452.5C3064.18 1452.5 3082.56 1454.87 3096.56 1459.62C3110.81 1464.12 3121.18 1472 3127.68 1483.25C3134.43 1494.25 3137.81 1509.62 3137.81 1529.37C3137.81 1541.37 3136.18 1552 3132.93 1561.25C3129.93 1570.25 3124.81 1577.5 3117.56 1583C3110.31 1588.5 3100.43 1592 3087.93 1593.5V1595.37C3092.43 1596.12 3097.06 1597.87 3101.81 1600.62C3106.81 1603.37 3111.43 1607.5 3115.68 1613C3119.93 1618.25 3123.06 1625.37 3125.06 1634.37L3147.56 1715H3087.18L3067.31 1636.25C3065.06 1627.75 3061.68 1621.87 3057.18 1618.63C3052.93 1615.37 3046.93 1613.75 3039.18 1613.75C3022.18 1613.75 3007.81 1613.75 2996.06 1613.75C2984.56 1613.5 2974.81 1613.25 2966.81 1613C2959.06 1612.75 2952.06 1612.5 2945.81 1612.25L2946.93 1570.62H3040.31C3050.31 1570.62 3058.18 1569.62 3063.93 1567.62C3069.93 1565.37 3074.06 1561.5 3076.31 1556C3078.81 1550.5 3080.06 1542.87 3080.06 1533.12C3080.06 1523.12 3078.81 1515.5 3076.31 1510.25C3074.06 1504.75 3069.93 1501 3063.93 1499C3058.18 1496.75 3050.31 1495.62 3040.31 1495.62C3016.81 1495.62 2996.93 1495.75 2980.68 1496C2964.43 1496.25 2953.31 1496.62 2947.31 1497.12L2941.68 1456.25C2952.18 1455 2962.06 1454.12 2971.31 1453.62C2980.56 1453.12 2990.68 1452.87 3001.68 1452.87C3012.68 1452.62 3025.93 1452.5 3041.43 1452.5ZM2998.31 1456.25V1715H2941.68V1456.25H2998.31ZM3297.05 1456.25V1715H3239.68V1456.25H3297.05ZM3375.05 1456.25V1501.25H3162.05V1456.25H3375.05ZM3509.28 1456.25C3514.03 1456.25 3518.16 1457.62 3521.66 1460.37C3525.41 1463.12 3527.91 1466.75 3529.16 1471.25L3604.16 1715H3545.66L3492.78 1524.87C3491.78 1520.62 3490.78 1516.37 3489.78 1512.12C3488.78 1507.62 3487.91 1503.37 3487.16 1499.37H3477.03C3476.28 1503.37 3475.41 1507.62 3474.41 1512.12C3473.66 1516.37 3472.66 1520.62 3471.41 1524.87L3418.53 1715H3359.66L3435.03 1471.25C3436.28 1466.75 3438.66 1463.12 3442.16 1460.37C3445.91 1457.62 3450.16 1456.25 3454.91 1456.25H3509.28ZM3549.03 1603.62V1646.75H3414.78V1603.62H3549.03ZM3687.9 1456.25V1715H3630.9V1456.25H3687.9ZM3959.02 1456.25V1694.37C3959.02 1708.12 3952.15 1715 3938.4 1715H3906.9C3900.65 1715 3895.9 1713.62 3892.65 1710.87C3889.4 1707.87 3886.4 1703.5 3883.65 1697.75L3812.02 1562C3809.02 1556.25 3806.02 1549.87 3803.02 1542.87C3800.27 1535.87 3797.9 1529.12 3795.9 1522.62H3791.77C3792.52 1529.37 3793.15 1536.25 3793.65 1543.25C3794.15 1550 3794.4 1556.75 3794.4 1563.5V1715H3740.02V1476.87C3740.02 1463.12 3747.02 1456.25 3761.02 1456.25H3792.15C3798.15 1456.25 3802.65 1457.75 3805.65 1460.75C3808.9 1463.5 3812.02 1467.75 3815.02 1473.5L3884.4 1605.12C3887.4 1610.87 3890.52 1617.25 3893.77 1624.25C3897.02 1631.25 3900.15 1638.5 3903.15 1646H3907.65C3906.9 1638.5 3906.27 1631.25 3905.77 1624.25C3905.52 1617 3905.4 1609.87 3905.4 1602.87L3905.02 1456.25H3959.02ZM4275.78 1456.25C4289.28 1456.25 4296.28 1463.25 4296.78 1477.25L4306.53 1715H4253.65L4245.03 1500.5H4238.28L4196.65 1661.75C4194.4 1673.75 4186.9 1679.75 4174.15 1679.75H4138.15C4125.4 1679.75 4117.65 1673.75 4114.9 1661.75L4073.28 1500.5H4066.9L4059.03 1715H4005.78L4015.53 1477.25C4016.03 1463.25 4023.15 1456.25 4036.9 1456.25H4090.53C4102.78 1456.25 4110.28 1462.37 4113.03 1474.62L4146.4 1604.75C4147.9 1610.75 4149.15 1616.87 4150.15 1623.12C4151.15 1629.12 4152.28 1635.25 4153.53 1641.5H4158.4C4159.65 1635.25 4160.78 1629.12 4161.78 1623.12C4163.03 1616.87 4164.28 1610.62 4165.53 1604.37L4198.53 1474.62C4201.03 1462.37 4208.53 1456.25 4221.03 1456.25H4275.78ZM4407.04 1455.12C4421.04 1455.12 4435.17 1455.25 4449.42 1455.5C4463.67 1455.5 4477.67 1455.75 4491.42 1456.25C4505.17 1456.75 4518.04 1457.62 4530.04 1458.87L4527.42 1500.5H4428.04C4421.79 1500.5 4417.04 1502.12 4413.79 1505.37C4410.79 1508.62 4409.29 1513.37 4409.29 1519.62V1651.62C4409.29 1657.87 4410.79 1662.62 4413.79 1665.87C4417.04 1669.12 4421.79 1670.75 4428.04 1670.75H4527.42L4530.04 1712.37C4518.04 1713.37 4505.17 1714.25 4491.42 1715C4477.67 1715.5 4463.67 1715.75 4449.42 1715.75C4435.17 1716 4421.04 1716.13 4407.04 1716.13C4390.54 1716.13 4377.17 1711.37 4366.92 1701.87C4356.92 1692.12 4351.92 1679.5 4351.92 1664V1507.25C4351.92 1491.5 4356.92 1478.87 4366.92 1469.37C4377.17 1459.87 4390.54 1455.12 4407.04 1455.12ZM4358.67 1560.12H4513.54V1600.62H4358.67V1560.12ZM4789.59 1456.25V1694.37C4789.59 1708.12 4782.72 1715 4768.97 1715H4737.47C4731.22 1715 4726.47 1713.62 4723.22 1710.87C4719.97 1707.87 4716.97 1703.5 4714.22 1697.75L4642.59 1562C4639.59 1556.25 4636.59 1549.87 4633.59 1542.87C4630.84 1535.87 4628.47 1529.12 4626.47 1522.62H4622.34C4623.09 1529.37 4623.72 1536.25 4624.22 1543.25C4624.72 1550 4624.97 1556.75 4624.97 1563.5V1715H4570.59V1476.87C4570.59 1463.12 4577.59 1456.25 4591.59 1456.25H4622.72C4628.72 1456.25 4633.22 1457.75 4636.22 1460.75C4639.47 1463.5 4642.59 1467.75 4645.59 1473.5L4714.97 1605.12C4717.97 1610.87 4721.09 1617.25 4724.34 1624.25C4727.59 1631.25 4730.72 1638.5 4733.72 1646H4738.22C4737.47 1638.5 4736.84 1631.25 4736.34 1624.25C4736.09 1617 4735.97 1609.87 4735.97 1602.87L4735.59 1456.25H4789.59ZM4956.72 1456.25V1715H4899.35V1456.25H4956.72ZM5034.72 1456.25V1501.25H4821.72V1456.25H5034.72Z" fill="#1B9AAA"/>
<path d="M2382.4 84.9999V1327H1995.4V84.9999H2382.4ZM3113.72 59.7999C3220.52 59.7999 3310.52 69.9999 3383.72 90.3999C3458.12 109.6 3518.12 143.2 3563.72 191.2C3609.32 239.2 3642.32 305.2 3662.72 389.2C3683.12 472 3693.32 577.6 3693.32 706C3693.32 833.2 3683.12 938.8 3662.72 1022.8C3642.32 1106.8 3609.32 1172.8 3563.72 1220.8C3518.12 1268.8 3458.12 1303 3383.72 1323.4C3310.52 1342.6 3220.52 1352.2 3113.72 1352.2C3008.12 1352.2 2918.12 1342.6 2843.72 1323.4C2770.52 1303 2711.12 1268.8 2665.52 1220.8C2619.92 1172.8 2586.92 1106.8 2566.52 1022.8C2546.12 938.8 2535.92 833.2 2535.92 706C2535.92 577.6 2546.12 472 2566.52 389.2C2586.92 305.2 2619.92 239.2 2665.52 191.2C2711.12 143.2 2770.52 109.6 2843.72 90.3999C2918.12 69.9999 3008.12 59.7999 3113.72 59.7999ZM3113.72 349.6C3069.32 349.6 3035.12 359.2 3011.12 378.4C2987.12 397.6 2970.32 433 2960.72 484.6C2951.12 536.2 2946.32 610 2946.32 706C2946.32 802 2951.12 875.8 2960.72 927.4C2970.32 979 2987.12 1014.4 3011.12 1033.6C3035.12 1052.8 3069.32 1062.4 3113.72 1062.4C3158.12 1062.4 3192.32 1052.8 3216.32 1033.6C3240.32 1014.4 3257.12 979 3266.72 927.4C3276.32 875.8 3281.12 802 3281.12 706C3281.12 610 3276.32 536.2 3266.72 484.6C3257.12 433 3240.32 397.6 3216.32 378.4C3192.32 359.2 3158.12 349.6 3113.72 349.6ZM4987.58 84.9999V1192C4987.58 1282 4942.58 1327 4852.58 1327H4703.18C4662.38 1327 4631.78 1317.4 4611.38 1298.2C4592.18 1279 4572.38 1250.8 4551.98 1213.6L4281.98 787C4265.18 755.8 4249.58 722.2 4235.18 686.2C4221.98 649 4209.98 611.8 4199.18 574.6H4186.58C4192.58 611.8 4196.78 650.2 4199.18 689.8C4202.78 728.2 4204.58 765.4 4204.58 801.4V1327H3844.58V220C3844.58 130 3889.58 84.9999 3979.58 84.9999H4128.98C4169.78 84.9999 4199.78 94.5999 4218.98 113.8C4238.18 133 4258.58 161.2 4280.18 198.4L4539.38 605.2C4556.18 635.2 4572.38 668.2 4587.98 704.2C4604.78 740.2 4620.38 778 4634.78 817.6H4647.38C4642.58 779.2 4638.38 741.4 4634.78 704.2C4632.38 667 4631.18 629.8 4631.18 592.6L4629.38 84.9999H4987.58Z" fill="#F2F5EA"/>
<rect x="63" y="50" width="1700" height="1700" rx="300" stroke="#F2F5EA" stroke-width="100"/>
<mask id="mask0_7_2758" style="mask-type:alpha" maskUnits="userSpaceOnUse" x="113" y="100" width="1600" height="1600">
<rect x="113" y="100" width="1600" height="1600" rx="250" fill="#F2F5EA"/>
</mask>
<g mask="url(#mask0_7_2758)">
<path d="M704.834 464.844C755.24 506.05 806.32 549.853 857.541 595.871C814.968 635.485 772.68 676.275 730.977 717.979C608.863 840.092 494.586 967.204 394.715 1091.88C294.731 1216.69 211.901 1335.67 150.417 1441.87C88.3016 1549.16 51.9456 1636.61 38.0986 1700.51C31.2265 1732.22 30.9366 1753.51 32.8008 1766.32C33.7463 1772.82 35.0554 1776.11 35.752 1777.46C37.1071 1778.16 40.3995 1779.47 46.8975 1780.42C59.7074 1782.28 80.9929 1781.99 112.705 1775.12C176.604 1761.27 264.052 1724.92 371.342 1662.8C471.858 1604.61 583.824 1527.29 701.35 1434.4C751.989 1480.74 803.036 1525.53 854.078 1568.41C851.51 1570.48 848.944 1572.54 846.378 1574.59C715.709 1679.27 588.395 1768.24 471.549 1835.88C355.793 1902.9 247.813 1950.48 155.062 1970.58C67.1552 1989.63 -35.3351 1989.4 -105.76 1918.98L-107.397 1917.32C-176.187 1846.95 -176.265 1745.37 -157.364 1658.15C-137.265 1565.4 -89.6851 1457.42 -22.6689 1341.67C44.9789 1224.82 133.948 1097.51 238.622 966.837C343.409 836.026 462.642 703.47 589.556 576.557C627.542 538.57 666.035 501.273 704.834 464.844ZM1671.15 -170.362C1758.37 -189.263 1859.95 -189.184 1930.32 -120.396L1931.97 -118.758C2002.4 -48.3331 2002.63 54.1582 1983.58 142.064C1963.48 234.816 1915.9 342.797 1848.88 458.552C1781.24 575.398 1692.27 702.712 1587.59 833.381C1482.8 964.191 1363.57 1096.75 1236.66 1223.66C1198.67 1261.65 1160.18 1298.94 1121.38 1335.37C1070.66 1293.91 1019.58 1250.08 968.676 1204.34C1011.25 1164.73 1053.53 1123.94 1095.24 1082.24C1217.35 960.127 1331.63 833.014 1431.5 708.341C1531.48 583.526 1614.31 464.544 1675.8 358.345C1737.91 251.054 1774.27 163.606 1788.12 99.707C1794.99 67.9953 1795.28 46.7104 1793.41 33.9004C1792.47 27.4003 1791.16 24.1083 1790.46 22.7539C1789.1 22.0571 1785.81 20.7479 1779.32 19.8027C1766.51 17.9386 1745.22 18.2286 1713.51 25.1006C1649.61 38.9476 1562.16 75.3029 1454.87 137.418C1354.36 195.611 1242.39 272.928 1124.87 365.812C1074.14 319.403 1023.1 274.614 972.136 231.808C974.703 229.741 977.27 227.68 979.836 225.624C1110.51 120.95 1237.82 31.9807 1354.67 -35.667C1470.42 -102.683 1578.4 -150.263 1671.15 -170.362Z" fill="#F2F5EA"/>
<path d="M588.15 949.662C631.787 996.924 676.894 1043.87 723.12 1090.1C845.5 1212.48 972.916 1327.03 1097.93 1427.17C1223.07 1527.42 1342.52 1610.59 1449.31 1672.41C1557.07 1734.8 1645.66 1771.78 1711.16 1785.97C1780.89 1801.09 1798.25 1785.56 1798.41 1785.41C1798.69 1785.13 1814.03 1767.61 1798.98 1698.16C1784.93 1633.33 1748.38 1545.07 1685.42 1436.31C1623.26 1328.94 1540.54 1210.49 1442.73 1088.13C1483.71 1043.08 1523.45 997.739 1561.67 952.393C1672.9 1089.39 1767.85 1223.88 1839.27 1347.23C1906.7 1463.7 1953.14 1570.16 1972.72 1660.51C1991.3 1746.22 1990.9 1844.34 1924.12 1911.12C1857.83 1977.41 1760.35 1978.54 1673.51 1959.72C1582.36 1939.97 1475.52 1893.01 1360.23 1826.27C1243.98 1758.96 1117.13 1670.33 986.784 1565.92C856.315 1461.41 724.06 1342.45 597.413 1215.8C554.49 1172.88 512.45 1129.31 471.556 1085.39C508.7 1040.26 547.672 994.902 588.15 949.662ZM-97.9012 -110.903C-31.123 -177.68 66.9951 -178.078 152.71 -159.504C243.057 -139.926 349.516 -93.4803 465.984 -26.0519C699.842 109.34 973.717 329.326 1228.8 584.412C1271.83 627.443 1313.87 671.01 1354.66 714.828C1317.52 759.95 1278.55 805.312 1238.07 850.551C1194.64 803.512 1149.55 756.571 1103.1 710.12C855.25 462.274 593.513 253.202 376.91 127.801C268.147 64.8326 179.887 28.2883 115.06 14.2401C45.6208 -0.807319 28.0965 14.5171 27.8068 14.8055C27.681 14.9321 12.1167 32.267 27.2404 102.058C41.4348 167.561 78.4143 256.149 140.802 363.91C202.101 469.79 284.383 588.107 383.483 712.082C342.502 757.132 302.766 802.476 264.547 847.821C258.755 840.687 253.003 833.557 247.295 826.432C142.882 696.089 54.2536 569.237 -13.0516 452.982C-79.7954 337.697 -126.752 230.857 -146.504 139.709C-165.322 52.8673 -164.19 -44.6136 -97.9012 -110.903Z" fill="#1B9AAA"/>
</g>
</g>
<defs>
<clipPath id="clip0_7_2758">
<rect width="5050" height="1800" fill="white"/>
</clipPath>
</defs>
</svg>
