<svg width="1800" height="2000" viewBox="0 0 1800 2000" fill="none" xmlns="http://www.w3.org/2000/svg">
<path d="M1183.31 0C1117.92 46.1443 1050.88 96.7093 983.007 151.081C974.991 157.502 966.97 163.972 958.943 170.489C1009.87 213.416 1060.89 258.112 1111.65 304.291C1251.12 192.804 1384.23 100.237 1503.34 31.2764C1522.48 20.1972 1541.08 9.83025 1559.12 0.164062C1690.16 4.86544 1795.49 110.413 1799.86 241.535C1790.25 259.45 1779.96 277.911 1768.97 296.9C1699.41 417.04 1605.85 551.416 1493.07 692.198C1380.41 832.839 1251.54 976.182 1113.86 1113.86C1061.86 1165.86 1009.04 1216.61 955.873 1265.7C1006.77 1311.24 1057.8 1355.08 1108.56 1396.87C1157.98 1350.86 1206.99 1303.57 1255.28 1255.28C1397.76 1112.8 1531.59 964.017 1649.16 817.238C1703.44 749.484 1753.92 682.566 1800 617.277V1550C1800 1688.07 1688.07 1800 1550 1800H617.277C682.566 1753.92 749.484 1703.44 817.239 1649.16C825.255 1642.74 833.275 1636.27 841.302 1629.75C790.289 1586.76 739.276 1542.05 688.595 1495.95C549.123 1607.44 416.016 1700.01 296.901 1768.97C277.911 1779.96 259.449 1790.25 241.534 1799.86C110.413 1795.49 4.86544 1690.16 0.164062 1559.12C9.83033 1541.08 20.1971 1522.48 31.2764 1503.34C100.831 1383.2 194.399 1248.83 307.175 1108.05C419.837 967.405 548.708 824.062 686.386 686.385C738.39 634.38 791.204 583.633 844.374 534.54C793.214 488.765 742.179 444.942 691.683 403.374C642.268 449.38 593.254 496.675 544.965 544.964C402.487 687.442 268.66 836.228 151.082 983.006C96.7102 1050.88 46.1446 1117.91 0 1183.31V250C8.24675e-06 111.929 111.929 8.24875e-06 250 0H1183.31Z" fill="#1A1D1A"/>
<mask id="mask0_7_2598" style="mask-type:alpha" maskUnits="userSpaceOnUse" x="0" y="0" width="1800" height="1800">
<rect width="1800" height="1800" rx="250" fill="#0A0A14"/>
</mask>
<g mask="url(#mask0_7_2598)">
<path d="M1629.75 958.942C1754.88 1113.06 1861.71 1264.36 1942.05 1403.14C2017.91 1534.16 2070.16 1653.93 2092.19 1755.57C2113.08 1852 2112.63 1962.38 2037.51 2037.51L2037.51 2037.51C1962.93 2112.08 1853.27 2113.36 1755.57 2092.19C1653.03 2069.97 1532.83 2017.14 1403.14 1942.05C1272.35 1866.33 1129.64 1766.63 983.008 1649.16C836.23 1531.58 687.444 1397.76 544.966 1255.28L686.387 1113.86C824.064 1251.54 967.407 1380.41 1108.05 1493.07C1248.83 1605.84 1383.21 1699.41 1503.35 1768.97C1624.58 1839.15 1724.24 1880.75 1797.93 1896.72C1876.29 1913.7 1895.87 1896.29 1896.09 1896.09C1896.4 1895.77 1913.65 1876.07 1896.72 1797.93C1880.92 1725 1839.81 1625.7 1768.97 1503.34C1699.04 1382.56 1605.98 1249.3 1495.95 1111.65C1542.05 1060.97 1586.75 1009.96 1629.75 958.942ZM534.543 955.872C583.635 1009.04 634.381 1061.85 686.385 1113.86L544.964 1255.28C496.675 1206.99 449.381 1157.98 403.375 1108.56C445.163 1057.8 489.005 1006.77 534.543 955.872ZM-237.263 -237.264C-162.137 -312.389 -51.7547 -312.838 44.6748 -291.941C146.316 -269.916 266.082 -217.665 397.107 -141.808C660.199 10.5084 968.308 257.993 1255.28 544.965L1255.28 544.966C1303.69 593.376 1350.97 642.388 1396.87 691.683C1355.08 742.444 1311.24 793.476 1265.7 844.37C1216.84 791.451 1166.12 738.644 1113.86 686.386V686.385C835.031 407.558 540.578 172.354 296.9 31.2773C174.542 -39.5618 75.2494 -80.6743 2.31836 -96.4785C-75.8162 -113.41 -95.5235 -96.1605 -95.8418 -95.8428L-237.263 -237.264ZM-95.8438 -95.8428C-95.9889 -95.6962 -113.492 -76.1901 -96.4795 2.31738C-80.5108 76.0073 -38.9097 175.669 31.2764 296.899C100.238 416.014 192.805 549.121 304.293 688.594C258.19 739.275 213.487 790.287 170.49 841.301C163.973 833.274 157.502 825.253 151.081 817.237C33.6162 670.601 -66.0902 527.893 -141.809 397.106C-216.896 267.411 -269.721 147.216 -291.942 44.6738C-313.113 -53.0229 -311.84 -162.689 -237.265 -237.264L-95.8438 -95.8428Z" fill="#1B9AAA"/>
</g>
<path d="M386.101 1875.02C392.901 1875.02 399.871 1875.08 407.011 1875.19C414.264 1875.19 421.347 1875.36 428.261 1875.7C435.174 1875.93 441.464 1876.44 447.131 1877.23L445.431 1903.24H402.421C400.267 1903.24 398.567 1903.81 397.321 1904.94C396.074 1906.07 395.451 1907.55 395.451 1909.36V1959.34C395.451 1961.15 396.074 1962.63 397.321 1963.76C398.567 1964.89 400.267 1965.46 402.421 1965.46H445.431L447.131 1991.47C441.464 1992.15 435.174 1992.66 428.261 1993C421.347 1993.34 414.264 1993.51 407.011 1993.51C399.871 1993.62 392.901 1993.68 386.101 1993.68C378.054 1993.68 371.424 1991.24 366.211 1986.37C361.111 1981.38 358.561 1974.92 358.561 1966.99V1901.71C358.561 1893.78 361.111 1887.37 366.211 1882.5C371.424 1877.51 378.054 1875.02 386.101 1875.02ZM361.621 1920.75H439.311V1945.23H361.621V1920.75Z" fill="#1B9AAA"/>
<path d="M568.63 1875.7V1980.25C568.63 1988.75 564.38 1993 555.88 1993H541.77C537.917 1993 535.027 1992.09 533.1 1990.28C531.287 1988.47 529.417 1985.8 527.49 1982.29L501.99 1942C500.403 1939.05 498.93 1935.88 497.57 1932.48C496.323 1928.97 495.19 1925.45 494.17 1921.94H492.98C493.547 1925.45 493.943 1929.08 494.17 1932.82C494.51 1936.45 494.68 1939.96 494.68 1943.36V1993H460.68V1888.45C460.68 1879.95 464.93 1875.7 473.43 1875.7H487.54C491.393 1875.7 494.227 1876.61 496.04 1878.42C497.853 1880.23 499.78 1882.9 501.82 1886.41L526.3 1924.83C527.887 1927.66 529.417 1930.78 530.89 1934.18C532.477 1937.58 533.95 1941.15 535.31 1944.89H536.5C536.047 1941.26 535.65 1937.69 535.31 1934.18C535.083 1930.67 534.97 1927.15 534.97 1923.64L534.8 1875.7H568.63Z" fill="#1B9AAA"/>
<path d="M648.748 1875.7V1993H611.858V1875.7H648.748ZM681.558 1875.7V1903.24H579.048V1875.7H681.558Z" fill="#1B9AAA"/>
<path d="M718.796 1875.02C725.596 1875.02 732.566 1875.08 739.706 1875.19C746.959 1875.19 754.043 1875.36 760.956 1875.7C767.869 1875.93 774.159 1876.44 779.826 1877.23L778.126 1903.24H735.116C732.963 1903.24 731.263 1903.81 730.016 1904.94C728.769 1906.07 728.146 1907.55 728.146 1909.36V1959.34C728.146 1961.15 728.769 1962.63 730.016 1963.76C731.263 1964.89 732.963 1965.46 735.116 1965.46H778.126L779.826 1991.47C774.159 1992.15 767.869 1992.66 760.956 1993C754.043 1993.34 746.959 1993.51 739.706 1993.51C732.566 1993.62 725.596 1993.68 718.796 1993.68C710.749 1993.68 704.119 1991.24 698.906 1986.37C693.806 1981.38 691.256 1974.92 691.256 1966.99V1901.71C691.256 1893.78 693.806 1887.37 698.906 1882.5C704.119 1877.51 710.749 1875.02 718.796 1875.02ZM694.316 1920.75H772.006V1945.23H694.316V1920.75Z" fill="#1B9AAA"/>
<path d="M843.185 1874C854.745 1874 864.152 1875.08 871.405 1877.23C878.659 1879.38 883.985 1883.07 887.385 1888.28C890.899 1893.38 892.655 1900.52 892.655 1909.7C892.655 1914.35 891.919 1918.71 890.445 1922.79C889.085 1926.76 886.649 1930.04 883.135 1932.65C879.735 1935.26 874.975 1936.9 868.855 1937.58V1938.6C871.009 1938.83 873.389 1939.51 875.995 1940.64C878.602 1941.66 881.039 1943.47 883.305 1946.08C885.572 1948.57 887.159 1952.2 888.065 1956.96L897.245 1993H858.655L851.005 1958.15C850.325 1954.86 849.249 1952.71 847.775 1951.69C846.415 1950.67 844.149 1950.16 840.975 1950.16C832.475 1950.05 825.505 1949.99 820.065 1949.99C814.739 1949.99 810.205 1949.93 806.465 1949.82C802.725 1949.71 798.985 1949.54 795.245 1949.31L795.755 1924.15H842.335C845.849 1924.15 848.569 1923.81 850.495 1923.13C852.422 1922.45 853.725 1921.26 854.405 1919.56C855.199 1917.75 855.595 1915.25 855.595 1912.08C855.595 1908.79 855.199 1906.3 854.405 1904.6C853.725 1902.9 852.422 1901.71 850.495 1901.03C848.569 1900.35 845.849 1900.01 842.335 1900.01C830.549 1900.01 820.632 1900.07 812.585 1900.18C804.539 1900.29 799.042 1900.52 796.095 1900.86L793.375 1875.7C798.589 1875.13 803.462 1874.74 807.995 1874.51C812.642 1874.28 817.685 1874.17 823.125 1874.17C828.679 1874.06 835.365 1874 843.185 1874ZM829.585 1875.7V1993H793.375V1875.7H829.585Z" fill="#1B9AAA"/>
<path d="M969.988 1875.7V1993H933.098V1875.7H969.988ZM1002.8 1875.7V1903.24H900.288V1875.7H1002.8Z" fill="#1B9AAA"/>
<path d="M1069.51 1875.7C1072.46 1875.7 1075.06 1876.55 1077.33 1878.25C1079.6 1879.95 1081.13 1882.27 1081.92 1885.22L1112.35 1993H1074.78L1057.1 1916.67C1056.65 1914.52 1056.25 1912.31 1055.91 1910.04C1055.57 1907.66 1055.29 1905.39 1055.06 1903.24H1050.47C1050.24 1905.39 1049.96 1907.66 1049.62 1910.04C1049.28 1912.31 1048.88 1914.52 1048.43 1916.67L1030.75 1993H993.181L1023.61 1885.22C1024.4 1882.27 1025.93 1879.95 1028.2 1878.25C1030.47 1876.55 1033.07 1875.7 1036.02 1875.7H1069.51ZM1083.96 1941.83V1967.67H1021.57V1941.83H1083.96Z" fill="#1B9AAA"/>
<path d="M1156.32 1875.7V1993H1119.77V1875.7H1156.32Z" fill="#1B9AAA"/>
<path d="M1282.17 1875.7V1980.25C1282.17 1988.75 1277.92 1993 1269.42 1993H1255.31C1251.45 1993 1248.56 1992.09 1246.64 1990.28C1244.82 1988.47 1242.95 1985.8 1241.03 1982.29L1215.53 1942C1213.94 1939.05 1212.47 1935.88 1211.11 1932.48C1209.86 1928.97 1208.73 1925.45 1207.71 1921.94H1206.52C1207.08 1925.45 1207.48 1929.08 1207.71 1932.82C1208.05 1936.45 1208.22 1939.96 1208.22 1943.36V1993H1174.22V1888.45C1174.22 1879.95 1178.47 1875.7 1186.97 1875.7H1201.08C1204.93 1875.7 1207.76 1876.61 1209.58 1878.42C1211.39 1880.23 1213.32 1882.9 1215.36 1886.41L1239.84 1924.83C1241.42 1927.66 1242.95 1930.78 1244.43 1934.18C1246.01 1937.58 1247.49 1941.15 1248.85 1944.89H1250.04C1249.58 1941.26 1249.19 1937.69 1248.85 1934.18C1248.62 1930.67 1248.51 1927.15 1248.51 1923.64L1248.34 1875.7H1282.17Z" fill="#1B9AAA"/>
<path d="M1428.92 1875.7C1437.2 1875.7 1441.5 1879.95 1441.84 1888.45L1445.92 1993H1412.77L1409.2 1903.24H1406.65L1395.09 1963.08C1393.96 1970.56 1389.31 1974.3 1381.15 1974.3H1362.11C1354.07 1974.3 1349.36 1970.56 1348 1963.08L1336.27 1903.24H1333.72L1330.83 1993H1297.68L1301.76 1888.45C1302.1 1879.95 1306.41 1875.7 1314.68 1875.7H1346.47C1354.41 1875.7 1359.05 1879.5 1360.41 1887.09L1368.91 1933.67C1369.37 1936.5 1369.71 1939.39 1369.93 1942.34C1370.27 1945.29 1370.56 1948.23 1370.78 1951.18H1372.31C1372.65 1948.23 1372.94 1945.29 1373.16 1942.34C1373.5 1939.39 1373.9 1936.5 1374.35 1933.67L1382.34 1887.09C1383.7 1879.5 1388.41 1875.7 1396.45 1875.7H1428.92Z" fill="#1B9AAA"/>
<path d="M1488.28 1875.02C1495.08 1875.02 1502.05 1875.08 1509.19 1875.19C1516.44 1875.19 1523.53 1875.36 1530.44 1875.7C1537.35 1875.93 1543.64 1876.44 1549.31 1877.23L1547.61 1903.24H1504.6C1502.44 1903.24 1500.74 1903.81 1499.5 1904.94C1498.25 1906.07 1497.63 1907.55 1497.63 1909.36V1959.34C1497.63 1961.15 1498.25 1962.63 1499.5 1963.76C1500.74 1964.89 1502.44 1965.46 1504.6 1965.46H1547.61L1549.31 1991.47C1543.64 1992.15 1537.35 1992.66 1530.44 1993C1523.53 1993.34 1516.44 1993.51 1509.19 1993.51C1502.05 1993.62 1495.08 1993.68 1488.28 1993.68C1480.23 1993.68 1473.6 1991.24 1468.39 1986.37C1463.29 1981.38 1460.74 1974.92 1460.74 1966.99V1901.71C1460.74 1893.78 1463.29 1887.37 1468.39 1882.5C1473.6 1877.51 1480.23 1875.02 1488.28 1875.02ZM1463.8 1920.75H1541.49V1945.23H1463.8V1920.75Z" fill="#1B9AAA"/>
<path d="M1670.81 1875.7V1980.25C1670.81 1988.75 1666.56 1993 1658.06 1993H1643.95C1640.09 1993 1637.2 1992.09 1635.28 1990.28C1633.46 1988.47 1631.59 1985.8 1629.67 1982.29L1604.17 1942C1602.58 1939.05 1601.11 1935.88 1599.75 1932.48C1598.5 1928.97 1597.37 1925.45 1596.35 1921.94H1595.16C1595.72 1925.45 1596.12 1929.08 1596.35 1932.82C1596.69 1936.45 1596.86 1939.96 1596.86 1943.36V1993H1562.86V1888.45C1562.86 1879.95 1567.11 1875.7 1575.61 1875.7H1589.72C1593.57 1875.7 1596.4 1876.61 1598.22 1878.42C1600.03 1880.23 1601.96 1882.9 1604 1886.41L1628.48 1924.83C1630.06 1927.66 1631.59 1930.78 1633.07 1934.18C1634.65 1937.58 1636.13 1941.15 1637.49 1944.89H1638.68C1638.22 1941.26 1637.83 1937.69 1637.49 1934.18C1637.26 1930.67 1637.15 1927.15 1637.15 1923.64L1636.98 1875.7H1670.81Z" fill="#1B9AAA"/>
<path d="M1750.93 1875.7V1993H1714.04V1875.7H1750.93ZM1783.74 1875.7V1903.24H1681.23V1875.7H1783.74Z" fill="#1B9AAA"/>
<path d="M60.1164 1875.7V1993H23.5664V1875.7H60.1164Z" fill="#1A1D1A"/>
<path d="M129.186 1873.32C139.272 1873.32 147.772 1874.28 154.686 1876.21C161.712 1878.02 167.379 1881.2 171.686 1885.73C175.992 1890.26 179.109 1896.5 181.036 1904.43C182.962 1912.25 183.926 1922.22 183.926 1934.35C183.926 1946.36 182.962 1956.34 181.036 1964.27C179.109 1972.2 175.992 1978.44 171.686 1982.97C167.379 1987.5 161.712 1990.73 154.686 1992.66C147.772 1994.47 139.272 1995.38 129.186 1995.38C119.212 1995.38 110.712 1994.47 103.686 1992.66C96.7722 1990.73 91.1622 1987.5 86.8555 1982.97C82.5489 1978.44 79.4322 1972.2 77.5055 1964.27C75.5789 1956.34 74.6155 1946.36 74.6155 1934.35C74.6155 1922.22 75.5789 1912.25 77.5055 1904.43C79.4322 1896.5 82.5489 1890.26 86.8555 1885.73C91.1622 1881.2 96.7722 1878.02 103.686 1876.21C110.712 1874.28 119.212 1873.32 129.186 1873.32ZM129.186 1900.69C124.992 1900.69 121.762 1901.6 119.496 1903.41C117.229 1905.22 115.642 1908.57 114.736 1913.44C113.829 1918.31 113.376 1925.28 113.376 1934.35C113.376 1943.42 113.829 1950.39 114.736 1955.26C115.642 1960.13 117.229 1963.48 119.496 1965.29C121.762 1967.1 124.992 1968.01 129.186 1968.01C133.379 1968.01 136.609 1967.1 138.876 1965.29C141.142 1963.48 142.729 1960.13 143.636 1955.26C144.542 1950.39 144.996 1943.42 144.996 1934.35C144.996 1925.28 144.542 1918.31 143.636 1913.44C142.729 1908.57 141.142 1905.22 138.876 1903.41C136.609 1901.6 133.379 1900.69 129.186 1900.69Z" fill="#1A1D1A"/>
<path d="M306.161 1875.7V1980.25C306.161 1988.75 301.911 1993 293.411 1993H279.301C275.448 1993 272.558 1992.09 270.631 1990.28C268.818 1988.47 266.948 1985.8 265.021 1982.29L239.521 1942C237.934 1939.05 236.461 1935.88 235.101 1932.48C233.854 1928.97 232.721 1925.45 231.701 1921.94H230.511C231.078 1925.45 231.474 1929.08 231.701 1932.82C232.041 1936.45 232.211 1939.96 232.211 1943.36V1993H198.211V1888.45C198.211 1879.95 202.461 1875.7 210.961 1875.7H225.071C228.924 1875.7 231.758 1876.61 233.571 1878.42C235.384 1880.23 237.311 1882.9 239.351 1886.41L263.831 1924.83C265.418 1927.66 266.948 1930.78 268.421 1934.18C270.008 1937.58 271.481 1941.15 272.841 1944.89H274.031C273.578 1941.26 273.181 1937.69 272.841 1934.18C272.614 1930.67 272.501 1927.15 272.501 1923.64L272.331 1875.7H306.161Z" fill="#1A1D1A"/>
</svg>
