<svg width="1800" height="2000" viewBox="0 0 1800 2000" fill="none" xmlns="http://www.w3.org/2000/svg">
<path d="M386.101 1875.02C392.901 1875.02 399.871 1875.08 407.011 1875.19C414.264 1875.19 421.347 1875.36 428.261 1875.7C435.174 1875.93 441.464 1876.44 447.131 1877.23L445.431 1903.24H402.421C400.267 1903.24 398.567 1903.81 397.321 1904.94C396.074 1906.07 395.451 1907.55 395.451 1909.36V1959.34C395.451 1961.15 396.074 1962.63 397.321 1963.76C398.567 1964.89 400.267 1965.46 402.421 1965.46H445.431L447.131 1991.47C441.464 1992.15 435.174 1992.66 428.261 1993C421.347 1993.34 414.264 1993.51 407.011 1993.51C399.871 1993.62 392.901 1993.68 386.101 1993.68C378.054 1993.68 371.424 1991.24 366.211 1986.37C361.111 1981.38 358.561 1974.92 358.561 1966.99V1901.71C358.561 1893.78 361.111 1887.37 366.211 1882.5C371.424 1877.51 378.054 1875.02 386.101 1875.02ZM361.621 1920.75H439.311V1945.23H361.621V1920.75Z" fill="#AB87FF"/>
<path d="M568.63 1875.7V1980.25C568.63 1988.75 564.38 1993 555.88 1993H541.77C537.917 1993 535.027 1992.09 533.1 1990.28C531.287 1988.47 529.417 1985.8 527.49 1982.29L501.99 1942C500.403 1939.05 498.93 1935.88 497.57 1932.48C496.323 1928.97 495.19 1925.45 494.17 1921.94H492.98C493.547 1925.45 493.943 1929.08 494.17 1932.82C494.51 1936.45 494.68 1939.96 494.68 1943.36V1993H460.68V1888.45C460.68 1879.95 464.93 1875.7 473.43 1875.7H487.54C491.393 1875.7 494.227 1876.61 496.04 1878.42C497.853 1880.23 499.78 1882.9 501.82 1886.41L526.3 1924.83C527.887 1927.66 529.417 1930.78 530.89 1934.18C532.477 1937.58 533.95 1941.15 535.31 1944.89H536.5C536.047 1941.26 535.65 1937.69 535.31 1934.18C535.083 1930.67 534.97 1927.15 534.97 1923.64L534.8 1875.7H568.63Z" fill="#AB87FF"/>
<path d="M648.748 1875.7V1993H611.858V1875.7H648.748ZM681.558 1875.7V1903.24H579.048V1875.7H681.558Z" fill="#AB87FF"/>
<path d="M718.796 1875.02C725.596 1875.02 732.566 1875.08 739.706 1875.19C746.959 1875.19 754.043 1875.36 760.956 1875.7C767.869 1875.93 774.159 1876.44 779.826 1877.23L778.126 1903.24H735.116C732.963 1903.24 731.263 1903.81 730.016 1904.94C728.769 1906.07 728.146 1907.55 728.146 1909.36V1959.34C728.146 1961.15 728.769 1962.63 730.016 1963.76C731.263 1964.89 732.963 1965.46 735.116 1965.46H778.126L779.826 1991.47C774.159 1992.15 767.869 1992.66 760.956 1993C754.043 1993.34 746.959 1993.51 739.706 1993.51C732.566 1993.62 725.596 1993.68 718.796 1993.68C710.749 1993.68 704.119 1991.24 698.906 1986.37C693.806 1981.38 691.256 1974.92 691.256 1966.99V1901.71C691.256 1893.78 693.806 1887.37 698.906 1882.5C704.119 1877.51 710.749 1875.02 718.796 1875.02ZM694.316 1920.75H772.006V1945.23H694.316V1920.75Z" fill="#AB87FF"/>
<path d="M843.185 1874C854.745 1874 864.152 1875.08 871.405 1877.23C878.659 1879.38 883.985 1883.07 887.385 1888.28C890.899 1893.38 892.655 1900.52 892.655 1909.7C892.655 1914.35 891.919 1918.71 890.445 1922.79C889.085 1926.76 886.649 1930.04 883.135 1932.65C879.735 1935.26 874.975 1936.9 868.855 1937.58V1938.6C871.009 1938.83 873.389 1939.51 875.995 1940.64C878.602 1941.66 881.039 1943.47 883.305 1946.08C885.572 1948.57 887.159 1952.2 888.065 1956.96L897.245 1993H858.655L851.005 1958.15C850.325 1954.86 849.249 1952.71 847.775 1951.69C846.415 1950.67 844.149 1950.16 840.975 1950.16C832.475 1950.05 825.505 1949.99 820.065 1949.99C814.739 1949.99 810.205 1949.93 806.465 1949.82C802.725 1949.71 798.985 1949.54 795.245 1949.31L795.755 1924.15H842.335C845.849 1924.15 848.569 1923.81 850.495 1923.13C852.422 1922.45 853.725 1921.26 854.405 1919.56C855.199 1917.75 855.595 1915.25 855.595 1912.08C855.595 1908.79 855.199 1906.3 854.405 1904.6C853.725 1902.9 852.422 1901.71 850.495 1901.03C848.569 1900.35 845.849 1900.01 842.335 1900.01C830.549 1900.01 820.632 1900.07 812.585 1900.18C804.539 1900.29 799.042 1900.52 796.095 1900.86L793.375 1875.7C798.589 1875.13 803.462 1874.74 807.995 1874.51C812.642 1874.28 817.685 1874.17 823.125 1874.17C828.679 1874.06 835.365 1874 843.185 1874ZM829.585 1875.7V1993H793.375V1875.7H829.585Z" fill="#AB87FF"/>
<path d="M969.988 1875.7V1993H933.098V1875.7H969.988ZM1002.8 1875.7V1903.24H900.288V1875.7H1002.8Z" fill="#AB87FF"/>
<path d="M1069.51 1875.7C1072.46 1875.7 1075.06 1876.55 1077.33 1878.25C1079.6 1879.95 1081.13 1882.27 1081.92 1885.22L1112.35 1993H1074.78L1057.1 1916.67C1056.65 1914.52 1056.25 1912.31 1055.91 1910.04C1055.57 1907.66 1055.29 1905.39 1055.06 1903.24H1050.47C1050.24 1905.39 1049.96 1907.66 1049.62 1910.04C1049.28 1912.31 1048.88 1914.52 1048.43 1916.67L1030.75 1993H993.181L1023.61 1885.22C1024.4 1882.27 1025.93 1879.95 1028.2 1878.25C1030.47 1876.55 1033.07 1875.7 1036.02 1875.7H1069.51ZM1083.96 1941.83V1967.67H1021.57V1941.83H1083.96Z" fill="#AB87FF"/>
<path d="M1156.32 1875.7V1993H1119.77V1875.7H1156.32Z" fill="#AB87FF"/>
<path d="M1282.17 1875.7V1980.25C1282.17 1988.75 1277.92 1993 1269.42 1993H1255.31C1251.45 1993 1248.56 1992.09 1246.64 1990.28C1244.82 1988.47 1242.95 1985.8 1241.03 1982.29L1215.53 1942C1213.94 1939.05 1212.47 1935.88 1211.11 1932.48C1209.86 1928.97 1208.73 1925.45 1207.71 1921.94H1206.52C1207.08 1925.45 1207.48 1929.08 1207.71 1932.82C1208.05 1936.45 1208.22 1939.96 1208.22 1943.36V1993H1174.22V1888.45C1174.22 1879.95 1178.47 1875.7 1186.97 1875.7H1201.08C1204.93 1875.7 1207.76 1876.61 1209.58 1878.42C1211.39 1880.23 1213.32 1882.9 1215.36 1886.41L1239.84 1924.83C1241.42 1927.66 1242.95 1930.78 1244.43 1934.18C1246.01 1937.58 1247.49 1941.15 1248.85 1944.89H1250.04C1249.58 1941.26 1249.19 1937.69 1248.85 1934.18C1248.62 1930.67 1248.51 1927.15 1248.51 1923.64L1248.34 1875.7H1282.17Z" fill="#AB87FF"/>
<path d="M1428.92 1875.7C1437.2 1875.7 1441.5 1879.95 1441.84 1888.45L1445.92 1993H1412.77L1409.2 1903.24H1406.65L1395.09 1963.08C1393.96 1970.56 1389.31 1974.3 1381.15 1974.3H1362.11C1354.07 1974.3 1349.36 1970.56 1348 1963.08L1336.27 1903.24H1333.72L1330.83 1993H1297.68L1301.76 1888.45C1302.1 1879.95 1306.41 1875.7 1314.68 1875.7H1346.47C1354.41 1875.7 1359.05 1879.5 1360.41 1887.09L1368.91 1933.67C1369.37 1936.5 1369.71 1939.39 1369.93 1942.34C1370.27 1945.29 1370.56 1948.23 1370.78 1951.18H1372.31C1372.65 1948.23 1372.94 1945.29 1373.16 1942.34C1373.5 1939.39 1373.9 1936.5 1374.35 1933.67L1382.34 1887.09C1383.7 1879.5 1388.41 1875.7 1396.45 1875.7H1428.92Z" fill="#AB87FF"/>
<path d="M1488.28 1875.02C1495.08 1875.02 1502.05 1875.08 1509.19 1875.19C1516.44 1875.19 1523.53 1875.36 1530.44 1875.7C1537.35 1875.93 1543.64 1876.44 1549.31 1877.23L1547.61 1903.24H1504.6C1502.44 1903.24 1500.74 1903.81 1499.5 1904.94C1498.25 1906.07 1497.63 1907.55 1497.63 1909.36V1959.34C1497.63 1961.15 1498.25 1962.63 1499.5 1963.76C1500.74 1964.89 1502.44 1965.46 1504.6 1965.46H1547.61L1549.31 1991.47C1543.64 1992.15 1537.35 1992.66 1530.44 1993C1523.53 1993.34 1516.44 1993.51 1509.19 1993.51C1502.05 1993.62 1495.08 1993.68 1488.28 1993.68C1480.23 1993.68 1473.6 1991.24 1468.39 1986.37C1463.29 1981.38 1460.74 1974.92 1460.74 1966.99V1901.71C1460.74 1893.78 1463.29 1887.37 1468.39 1882.5C1473.6 1877.51 1480.23 1875.02 1488.28 1875.02ZM1463.8 1920.75H1541.49V1945.23H1463.8V1920.75Z" fill="#AB87FF"/>
<path d="M1670.81 1875.7V1980.25C1670.81 1988.75 1666.56 1993 1658.06 1993H1643.95C1640.09 1993 1637.2 1992.09 1635.28 1990.28C1633.46 1988.47 1631.59 1985.8 1629.67 1982.29L1604.17 1942C1602.58 1939.05 1601.11 1935.88 1599.75 1932.48C1598.5 1928.97 1597.37 1925.45 1596.35 1921.94H1595.16C1595.72 1925.45 1596.12 1929.08 1596.35 1932.82C1596.69 1936.45 1596.86 1939.96 1596.86 1943.36V1993H1562.86V1888.45C1562.86 1879.95 1567.11 1875.7 1575.61 1875.7H1589.72C1593.57 1875.7 1596.4 1876.61 1598.22 1878.42C1600.03 1880.23 1601.96 1882.9 1604 1886.41L1628.48 1924.83C1630.06 1927.66 1631.59 1930.78 1633.07 1934.18C1634.65 1937.58 1636.13 1941.15 1637.49 1944.89H1638.68C1638.22 1941.26 1637.83 1937.69 1637.49 1934.18C1637.26 1930.67 1637.15 1927.15 1637.15 1923.64L1636.98 1875.7H1670.81Z" fill="#AB87FF"/>
<path d="M1750.93 1875.7V1993H1714.04V1875.7H1750.93ZM1783.74 1875.7V1903.24H1681.23V1875.7H1783.74Z" fill="#AB87FF"/>
<path d="M60.1164 1875.7V1993H23.5664V1875.7H60.1164Z" fill="#F2F5EA"/>
<path d="M129.186 1873.32C139.272 1873.32 147.772 1874.28 154.686 1876.21C161.712 1878.02 167.379 1881.2 171.686 1885.73C175.992 1890.26 179.109 1896.5 181.036 1904.43C182.962 1912.25 183.926 1922.22 183.926 1934.35C183.926 1946.36 182.962 1956.34 181.036 1964.27C179.109 1972.2 175.992 1978.44 171.686 1982.97C167.379 1987.5 161.712 1990.73 154.686 1992.66C147.772 1994.47 139.272 1995.38 129.186 1995.38C119.212 1995.38 110.712 1994.47 103.686 1992.66C96.7722 1990.73 91.1622 1987.5 86.8555 1982.97C82.5489 1978.44 79.4322 1972.2 77.5055 1964.27C75.5789 1956.34 74.6155 1946.36 74.6155 1934.35C74.6155 1922.22 75.5789 1912.25 77.5055 1904.43C79.4322 1896.5 82.5489 1890.26 86.8555 1885.73C91.1622 1881.2 96.7722 1878.02 103.686 1876.21C110.712 1874.28 119.212 1873.32 129.186 1873.32ZM129.186 1900.69C124.992 1900.69 121.762 1901.6 119.496 1903.41C117.229 1905.22 115.642 1908.57 114.736 1913.44C113.829 1918.31 113.376 1925.28 113.376 1934.35C113.376 1943.42 113.829 1950.39 114.736 1955.26C115.642 1960.13 117.229 1963.48 119.496 1965.29C121.762 1967.1 124.992 1968.01 129.186 1968.01C133.379 1968.01 136.609 1967.1 138.876 1965.29C141.142 1963.48 142.729 1960.13 143.636 1955.26C144.542 1950.39 144.996 1943.42 144.996 1934.35C144.996 1925.28 144.542 1918.31 143.636 1913.44C142.729 1908.57 141.142 1905.22 138.876 1903.41C136.609 1901.6 133.379 1900.69 129.186 1900.69Z" fill="#F2F5EA"/>
<path d="M306.161 1875.7V1980.25C306.161 1988.75 301.911 1993 293.411 1993H279.301C275.448 1993 272.558 1992.09 270.631 1990.28C268.818 1988.47 266.948 1985.8 265.021 1982.29L239.521 1942C237.934 1939.05 236.461 1935.88 235.101 1932.48C233.854 1928.97 232.721 1925.45 231.701 1921.94H230.511C231.078 1925.45 231.474 1929.08 231.701 1932.82C232.041 1936.45 232.211 1939.96 232.211 1943.36V1993H198.211V1888.45C198.211 1879.95 202.461 1875.7 210.961 1875.7H225.071C228.924 1875.7 231.758 1876.61 233.571 1878.42C235.384 1880.23 237.311 1882.9 239.351 1886.41L263.831 1924.83C265.418 1927.66 266.948 1930.78 268.421 1934.18C270.008 1937.58 271.481 1941.15 272.841 1944.89H274.031C273.578 1941.26 273.181 1937.69 272.841 1934.18C272.614 1930.67 272.501 1927.15 272.501 1923.64L272.331 1875.7H306.161Z" fill="#F2F5EA"/>
<rect x="50" y="50" width="1700" height="1700" rx="300" stroke="#F2F5EA" stroke-width="100"/>
<mask id="mask0_7_2859" style="mask-type:alpha" maskUnits="userSpaceOnUse" x="100" y="100" width="1600" height="1600">
<rect x="100" y="100" width="1600" height="1600" rx="250" fill="#F2F5EA"/>
</mask>
<g mask="url(#mask0_7_2859)">
<path d="M599.126 955.062C638.142 996.969 678.303 1038.6 719.358 1079.65L725.04 1085.32C844.433 1204.33 968.518 1315.69 1090.25 1413.21C1214.07 1512.39 1332.08 1594.55 1437.4 1655.52C1543.82 1717.13 1630.5 1753.16 1693.78 1766.87C1725.18 1773.68 1746.2 1773.95 1758.79 1772.12C1764.51 1771.28 1767.67 1770.17 1769.16 1769.48C1770.97 1765.71 1778.35 1746.78 1766.87 1693.78C1753.3 1631.16 1717.7 1544.8 1655.52 1437.41C1597.2 1336.68 1520.46 1225.92 1429.92 1111.28C1476.27 1060.64 1521.08 1009.59 1563.94 958.55C1669.56 1089.83 1759.94 1218.61 1828.6 1337.2C1895.8 1453.26 1942.54 1560.1 1962.33 1651.43C1980.85 1736.88 1981.58 1838.65 1912.56 1909.26L1910.92 1910.92C1840.75 1981.09 1738.71 1981.25 1651.42 1962.33C1559.29 1942.37 1452.07 1895.12 1337.2 1828.61C1221.23 1761.47 1094.88 1673.17 965.215 1569.3C837.437 1466.95 707.982 1350.7 583.845 1226.97L577.938 1221.07C540.598 1183.73 503.929 1145.9 468.104 1107.77C509.546 1057.05 553.375 1005.97 599.126 955.062ZM1221.07 577.942C1258.48 615.359 1295.15 653.19 1330.9 691.245C1289.46 741.964 1245.63 793.043 1199.88 843.951C1161.03 802.228 1120.89 760.605 1079.65 719.364L1221.07 577.942ZM-111.912 -111.907C-41.2414 -182.578 61.4599 -181.983 147.581 -163.32C238.914 -143.529 345.745 -96.7893 461.809 -29.5947C694.976 105.397 967.505 324.38 1221.07 577.942L1079.65 719.363C834.229 473.946 575.355 267.243 361.602 143.491C254.205 81.3142 167.847 45.7139 105.225 32.1436C52.2362 20.661 33.3036 28.0388 29.5283 29.8447C28.8395 31.3417 27.7257 34.4939 26.8926 40.2188C25.0608 52.8063 25.3344 73.8251 32.1396 105.229C45.8533 168.513 81.8785 255.193 143.486 361.606C201.003 460.953 277.363 571.589 369.079 687.732C322.731 738.369 277.928 789.419 235.06 840.464C233.271 838.24 231.486 836.017 229.705 833.794C125.836 704.129 37.5415 577.783 -29.5986 461.813C-96.1074 346.935 -143.358 239.722 -163.324 147.586C-182.24 60.2955 -182.076 -41.7436 -111.912 -111.907Z" fill="#AB87FF"/>
<path d="M691.24 468.108C741.64 509.289 792.723 553.092 843.949 599.128C802.041 638.144 760.415 678.306 719.358 719.362C598.224 840.497 484.865 966.589 385.798 1090.26C286.618 1214.07 204.463 1332.08 143.486 1437.41C81.8787 1543.82 45.8524 1630.5 32.1387 1693.78C25.3334 1725.19 25.0608 1746.21 26.8926 1758.79C27.7672 1764.8 28.953 1767.98 29.6299 1769.38C31.0307 1770.06 34.205 1771.24 40.2148 1772.12C52.8025 1773.95 73.8214 1773.67 105.226 1766.87C168.509 1753.16 255.188 1717.13 361.602 1655.52C460.948 1598.01 571.584 1521.64 687.728 1429.93C738.364 1476.28 789.415 1521.08 840.46 1563.95C838.236 1565.74 836.013 1567.52 833.79 1569.3C704.125 1673.17 577.779 1761.47 461.81 1828.61C346.931 1895.12 239.718 1942.37 147.582 1962.33C60.2915 1981.25 -41.7475 1981.08 -111.911 1910.92L-111.912 1910.92C-182.076 1840.76 -182.24 1738.72 -163.324 1651.43C-143.358 1559.29 -96.1073 1452.08 -29.5986 1337.2C37.5416 1221.23 125.836 1094.88 229.705 965.219C333.688 835.412 452.002 703.876 577.938 577.941C615.277 540.602 653.107 503.933 691.24 468.108ZM1651.42 -163.32C1738.71 -182.236 1840.75 -182.071 1910.92 -111.908H1910.92C1981.08 -41.7447 1981.25 60.2947 1962.33 147.585C1942.36 239.721 1895.11 346.934 1828.6 461.812C1761.46 577.782 1673.17 704.129 1569.3 833.794C1465.32 963.6 1347 1095.14 1221.07 1221.07C1183.73 1258.41 1145.9 1295.08 1107.76 1330.9C1057.05 1289.46 1005.97 1245.63 955.058 1199.88C996.965 1160.87 1038.59 1120.71 1079.65 1079.65C1200.78 958.516 1314.14 832.423 1413.21 708.754C1512.39 584.943 1594.54 466.929 1655.52 361.606C1717.13 255.193 1753.15 168.512 1766.87 105.229C1773.67 73.8242 1773.95 52.8054 1772.11 40.2178C1771.24 34.2084 1770.05 31.0346 1769.38 29.6338C1767.98 28.9568 1764.8 27.7712 1758.79 26.8965C1746.2 25.0647 1725.18 25.3383 1693.78 32.1436C1630.5 45.8572 1543.82 81.8824 1437.4 143.49C1338.06 201.007 1227.42 277.367 1111.28 369.083C1060.56 322.658 1009.51 277.862 958.545 235.063C960.769 233.274 962.993 231.49 965.216 229.709C1094.88 125.84 1221.23 37.5454 1337.2 -29.5947C1452.08 -96.1035 1559.29 -143.354 1651.42 -163.32Z" fill="#F2F5EA"/>
</g>
</svg>
