<svg width="6950" height="650" viewBox="0 0 6950 650" fill="none" xmlns="http://www.w3.org/2000/svg">
<path d="M1501.85 97.9C1527.85 97.9 1554.5 98.1167 1581.8 98.55C1609.53 98.55 1636.62 99.2 1663.05 100.5C1689.48 101.367 1713.53 103.317 1735.2 106.35L1728.7 205.8H1564.25C1556.02 205.8 1549.52 207.967 1544.75 212.3C1539.98 216.633 1537.6 222.267 1537.6 229.2V420.3C1537.6 427.233 1539.98 432.867 1544.75 437.2C1549.52 441.533 1556.02 443.7 1564.25 443.7H1728.7L1735.2 543.15C1713.53 545.75 1689.48 547.7 1663.05 549C1636.62 550.3 1609.53 550.95 1581.8 550.95C1554.5 551.383 1527.85 551.6 1501.85 551.6C1471.08 551.6 1445.73 542.283 1425.8 523.65C1406.3 504.583 1396.55 479.883 1396.55 449.55V199.95C1396.55 169.617 1406.3 145.133 1425.8 126.5C1445.73 107.433 1471.08 97.9 1501.85 97.9ZM1408.25 272.75H1705.3V366.35H1408.25V272.75ZM2199.76 100.5V500.25C2199.76 532.75 2183.51 549 2151.01 549H2097.06C2082.32 549 2071.27 545.533 2063.91 538.6C2056.97 531.667 2049.82 521.483 2042.46 508.05L1944.96 354C1938.89 342.733 1933.26 330.6 1928.06 317.6C1923.29 304.167 1918.96 290.733 1915.06 277.3H1910.51C1912.67 290.733 1914.19 304.6 1915.06 318.9C1916.36 332.767 1917.01 346.2 1917.01 359.2V549H1787.01V149.25C1787.01 116.75 1803.26 100.5 1835.76 100.5H1889.71C1904.44 100.5 1915.27 103.967 1922.21 110.9C1929.14 117.833 1936.51 128.017 1944.31 141.45L2037.91 288.35C2043.97 299.183 2049.82 311.1 2055.46 324.1C2061.52 337.1 2067.16 350.75 2072.36 365.05H2076.91C2075.17 351.183 2073.66 337.533 2072.36 324.1C2071.49 310.667 2071.06 297.233 2071.06 283.8L2070.41 100.5H2199.76ZM2506.09 100.5V549H2365.04V100.5H2506.09ZM2631.54 100.5V205.8H2239.59V100.5H2631.54ZM2773.92 97.9C2799.92 97.9 2826.57 98.1167 2853.87 98.55C2881.6 98.55 2908.69 99.2 2935.12 100.5C2961.55 101.367 2985.6 103.317 3007.27 106.35L3000.77 205.8H2836.32C2828.09 205.8 2821.59 207.967 2816.82 212.3C2812.05 216.633 2809.67 222.267 2809.67 229.2V420.3C2809.67 427.233 2812.05 432.867 2816.82 437.2C2821.59 441.533 2828.09 443.7 2836.32 443.7H3000.77L3007.27 543.15C2985.6 545.75 2961.55 547.7 2935.12 549C2908.69 550.3 2881.6 550.95 2853.87 550.95C2826.57 551.383 2799.92 551.6 2773.92 551.6C2743.15 551.6 2717.8 542.283 2697.87 523.65C2678.37 504.583 2668.62 479.883 2668.62 449.55V199.95C2668.62 169.617 2678.37 145.133 2697.87 126.5C2717.8 107.433 2743.15 97.9 2773.92 97.9ZM2680.32 272.75H2977.37V366.35H2680.32V272.75ZM3249.53 94C3293.73 94 3329.69 98.1166 3357.43 106.35C3385.16 114.583 3405.53 128.667 3418.53 148.6C3431.96 168.1 3438.68 195.4 3438.68 230.5C3438.68 248.267 3435.86 264.95 3430.23 280.55C3425.03 295.717 3415.71 308.283 3402.28 318.25C3389.28 328.217 3371.08 334.5 3347.68 337.1V341C3355.91 341.867 3365.01 344.467 3374.98 348.8C3384.94 352.7 3394.26 359.633 3402.93 369.6C3411.59 379.133 3417.66 393 3421.13 411.2L3456.23 549H3308.68L3279.43 415.75C3276.83 403.183 3272.71 394.95 3267.08 391.05C3261.88 387.15 3253.21 385.2 3241.08 385.2C3208.58 384.767 3181.93 384.55 3161.13 384.55C3140.76 384.55 3123.43 384.333 3109.13 383.9C3094.83 383.467 3080.53 382.817 3066.23 381.95L3068.18 285.75H3246.28C3259.71 285.75 3270.11 284.45 3277.48 281.85C3284.84 279.25 3289.83 274.7 3292.43 268.2C3295.46 261.267 3296.98 251.733 3296.98 239.6C3296.98 227.033 3295.46 217.5 3292.43 211C3289.83 204.5 3284.84 199.95 3277.48 197.35C3270.11 194.75 3259.71 193.45 3246.28 193.45C3201.21 193.45 3163.29 193.667 3132.53 194.1C3101.76 194.533 3080.74 195.4 3069.48 196.7L3059.08 100.5C3079.01 98.3333 3097.64 96.8166 3114.98 95.95C3132.74 95.0833 3152.03 94.65 3172.83 94.65C3194.06 94.2166 3219.63 94 3249.53 94ZM3197.53 100.5V549H3059.08V100.5H3197.53ZM3734.36 100.5V549H3593.31V100.5H3734.36ZM3859.81 100.5V205.8H3467.86V100.5H3859.81ZM4114.89 100.5C4126.16 100.5 4136.12 103.75 4144.79 110.25C4153.46 116.75 4159.31 125.633 4162.34 136.9L4278.69 549H4135.04L4067.44 257.15C4065.71 248.917 4064.19 240.467 4062.89 231.8C4061.59 222.7 4060.51 214.033 4059.64 205.8H4042.09C4041.22 214.033 4040.14 222.7 4038.84 231.8C4037.54 240.467 4036.02 248.917 4034.29 257.15L3966.69 549H3823.04L3939.39 136.9C3942.42 125.633 3948.27 116.75 3956.94 110.25C3965.61 103.75 3975.57 100.5 3986.84 100.5H4114.89ZM4170.14 353.35V452.15H3931.59V353.35H4170.14ZM4446.79 100.5V549H4307.04V100.5H4446.79ZM4927.98 100.5V500.25C4927.98 532.75 4911.73 549 4879.23 549H4825.28C4810.55 549 4799.5 545.533 4792.13 538.6C4785.2 531.667 4778.05 521.483 4770.68 508.05L4673.18 354C4667.11 342.733 4661.48 330.6 4656.28 317.6C4651.51 304.167 4647.18 290.733 4643.28 277.3H4638.73C4640.9 290.733 4642.41 304.6 4643.28 318.9C4644.58 332.767 4645.23 346.2 4645.23 359.2V549H4515.23V149.25C4515.23 116.75 4531.48 100.5 4563.98 100.5H4617.93C4632.66 100.5 4643.5 103.967 4650.43 110.9C4657.36 117.833 4664.73 128.017 4672.53 141.45L4766.13 288.35C4772.2 299.183 4778.05 311.1 4783.68 324.1C4789.75 337.1 4795.38 350.75 4800.58 365.05H4805.13C4803.4 351.183 4801.88 337.533 4800.58 324.1C4799.71 310.667 4799.28 297.233 4799.28 283.8L4798.63 100.5H4927.98ZM5489.11 100.5C5520.75 100.5 5537.21 116.75 5538.51 149.25L5554.11 549H5427.36L5413.71 205.8H5403.96L5359.76 434.6C5355.43 463.2 5337.66 477.5 5306.46 477.5H5233.66C5202.9 477.5 5184.91 463.2 5179.71 434.6L5134.86 205.8H5125.11L5114.06 549H4987.31L5002.91 149.25C5004.21 116.75 5020.68 100.5 5052.31 100.5H5173.86C5204.2 100.5 5221.96 115.017 5227.16 144.05L5259.66 322.15C5261.4 332.983 5262.7 344.033 5263.56 355.3C5264.86 366.567 5265.95 377.833 5266.81 389.1H5272.66C5273.96 377.833 5275.05 366.567 5275.91 355.3C5277.21 344.033 5278.73 332.983 5280.46 322.15L5311.01 144.05C5316.21 115.017 5334.2 100.5 5364.96 100.5H5489.11ZM5716.06 97.9C5742.06 97.9 5768.71 98.1167 5796.01 98.55C5823.74 98.55 5850.83 99.2 5877.26 100.5C5903.69 101.367 5927.74 103.317 5949.41 106.35L5942.91 205.8H5778.46C5770.23 205.8 5763.73 207.967 5758.96 212.3C5754.19 216.633 5751.81 222.267 5751.81 229.2V420.3C5751.81 427.233 5754.19 432.867 5758.96 437.2C5763.73 441.533 5770.23 443.7 5778.46 443.7H5942.91L5949.41 543.15C5927.74 545.75 5903.69 547.7 5877.26 549C5850.83 550.3 5823.74 550.95 5796.01 550.95C5768.71 551.383 5742.06 551.6 5716.06 551.6C5685.29 551.6 5659.94 542.283 5640.01 523.65C5620.51 504.583 5610.76 479.883 5610.76 449.55V199.95C5610.76 169.617 5620.51 145.133 5640.01 126.5C5659.94 107.433 5685.29 97.9 5716.06 97.9ZM5622.46 272.75H5919.51V366.35H5622.46V272.75ZM6413.97 100.5V500.25C6413.97 532.75 6397.72 549 6365.22 549H6311.27C6296.53 549 6285.48 545.533 6278.12 538.6C6271.18 531.667 6264.03 521.483 6256.67 508.05L6159.17 354C6153.1 342.733 6147.47 330.6 6142.27 317.6C6137.5 304.167 6133.17 290.733 6129.27 277.3H6124.72C6126.88 290.733 6128.4 304.6 6129.27 318.9C6130.57 332.767 6131.22 346.2 6131.22 359.2V549H6001.22V149.25C6001.22 116.75 6017.47 100.5 6049.97 100.5H6103.92C6118.65 100.5 6129.48 103.967 6136.42 110.9C6143.35 117.833 6150.72 128.017 6158.52 141.45L6252.12 288.35C6258.18 299.183 6264.03 311.1 6269.67 324.1C6275.73 337.1 6281.37 350.75 6286.57 365.05H6291.12C6289.38 351.183 6287.87 337.533 6286.57 324.1C6285.7 310.667 6285.27 297.233 6285.27 283.8L6284.62 100.5H6413.97ZM6720.3 100.5V549H6579.25V100.5H6720.3ZM6845.75 100.5V205.8H6453.8V100.5H6845.75Z" fill="#69DC9E"/>
<path d="M256.2 100.5V549H116.45V100.5H256.2ZM520.288 91.4C558.855 91.4 591.355 95.0833 617.788 102.45C644.655 109.383 666.321 121.517 682.788 138.85C699.255 156.183 711.171 180.017 718.538 210.35C725.905 240.25 729.588 278.383 729.588 324.75C729.588 370.683 725.905 408.817 718.538 439.15C711.171 469.483 699.255 493.317 682.788 510.65C666.321 527.983 644.655 540.333 617.788 547.7C591.355 554.633 558.855 558.1 520.288 558.1C482.155 558.1 449.655 554.633 422.788 547.7C396.355 540.333 374.905 527.983 358.438 510.65C341.971 493.317 330.055 469.483 322.688 439.15C315.321 408.817 311.638 370.683 311.638 324.75C311.638 278.383 315.321 240.25 322.688 210.35C330.055 180.017 341.971 156.183 358.438 138.85C374.905 121.517 396.355 109.383 422.788 102.45C449.655 95.0833 482.155 91.4 520.288 91.4ZM520.288 196.05C504.255 196.05 491.905 199.517 483.238 206.45C474.571 213.383 468.505 226.167 465.038 244.8C461.571 263.433 459.838 290.083 459.838 324.75C459.838 359.417 461.571 386.067 465.038 404.7C468.505 423.333 474.571 436.117 483.238 443.05C491.905 449.983 504.255 453.45 520.288 453.45C536.321 453.45 548.671 449.983 557.338 443.05C566.005 436.117 572.071 423.333 575.538 404.7C579.005 386.067 580.738 359.417 580.738 324.75C580.738 290.083 579.005 263.433 575.538 244.8C572.071 226.167 566.005 213.383 557.338 206.45C548.671 199.517 536.321 196.05 520.288 196.05ZM1196.96 100.5V500.25C1196.96 532.75 1180.71 549 1148.21 549H1094.26C1079.52 549 1068.47 545.533 1061.11 538.6C1054.17 531.667 1047.02 521.483 1039.66 508.05L942.158 354C936.092 342.733 930.458 330.6 925.258 317.6C920.492 304.167 916.158 290.733 912.258 277.3H907.708C909.875 290.733 911.392 304.6 912.258 318.9C913.558 332.767 914.208 346.2 914.208 359.2V549H784.208V149.25C784.208 116.75 800.458 100.5 832.958 100.5H886.908C901.642 100.5 912.475 103.967 919.408 110.9C926.342 117.833 933.708 128.017 941.508 141.45L1035.11 288.35C1041.17 299.183 1047.02 311.1 1052.66 324.1C1058.72 337.1 1064.36 350.75 1069.56 365.05H1074.11C1072.37 351.183 1070.86 337.533 1069.56 324.1C1068.69 310.667 1068.26 297.233 1068.26 283.8L1067.61 100.5H1196.96Z" fill="#1A1D1A"/>
</svg>
