<svg width="1800" height="1800" viewBox="0 0 1800 1800" fill="none" xmlns="http://www.w3.org/2000/svg">
<g clip-path="url(#clip0_7_2537)">
<rect x="50" y="50" width="1700" height="1700" rx="300" stroke="#F2F5EA" stroke-width="100"/>
<mask id="mask0_7_2537" style="mask-type:alpha" maskUnits="userSpaceOnUse" x="100" y="100" width="1600" height="1600">
<rect x="100" y="100" width="1600" height="1600" rx="250" fill="#F2F5EA"/>
</mask>
<g mask="url(#mask0_7_2537)">
<path d="M599.126 955.062C638.142 996.969 678.303 1038.6 719.358 1079.65L725.04 1085.32C844.433 1204.33 968.518 1315.69 1090.25 1413.21C1214.07 1512.39 1332.08 1594.55 1437.4 1655.52C1543.82 1717.13 1630.5 1753.16 1693.78 1766.87C1725.18 1773.68 1746.2 1773.95 1758.79 1772.12C1764.51 1771.28 1767.67 1770.17 1769.16 1769.48C1770.97 1765.71 1778.35 1746.78 1766.87 1693.78C1753.3 1631.16 1717.7 1544.8 1655.52 1437.41C1597.2 1336.68 1520.46 1225.92 1429.92 1111.28C1476.27 1060.64 1521.08 1009.59 1563.94 958.55C1669.56 1089.83 1759.94 1218.61 1828.6 1337.2C1895.8 1453.26 1942.54 1560.1 1962.33 1651.43C1980.85 1736.88 1981.58 1838.65 1912.56 1909.26L1910.92 1910.92C1840.75 1981.09 1738.71 1981.25 1651.42 1962.33C1559.29 1942.37 1452.07 1895.12 1337.2 1828.61C1221.23 1761.47 1094.88 1673.17 965.215 1569.3C837.437 1466.95 707.982 1350.7 583.845 1226.97L577.938 1221.07C540.598 1183.73 503.929 1145.9 468.104 1107.77C509.546 1057.05 553.375 1005.97 599.126 955.062ZM1221.07 577.942C1258.48 615.359 1295.15 653.19 1330.9 691.245C1289.46 741.964 1245.63 793.043 1199.88 843.951C1161.03 802.228 1120.89 760.605 1079.65 719.364L1221.07 577.942ZM-111.912 -111.907C-41.2414 -182.578 61.4599 -181.983 147.581 -163.32C238.914 -143.529 345.745 -96.7893 461.809 -29.5947C694.976 105.397 967.505 324.38 1221.07 577.942L1079.65 719.363C834.229 473.946 575.355 267.243 361.602 143.491C254.205 81.3142 167.847 45.7139 105.225 32.1436C52.2362 20.661 33.3036 28.0388 29.5283 29.8447C28.8395 31.3417 27.7257 34.4939 26.8926 40.2188C25.0608 52.8063 25.3344 73.8251 32.1396 105.229C45.8533 168.513 81.8785 255.193 143.486 361.606C201.003 460.953 277.363 571.589 369.079 687.732C322.731 738.369 277.928 789.419 235.06 840.464C233.271 838.24 231.486 836.017 229.705 833.794C125.836 704.129 37.5415 577.783 -29.5986 461.813C-96.1074 346.935 -143.358 239.722 -163.324 147.586C-182.24 60.2955 -182.076 -41.7436 -111.912 -111.907Z" fill="#69DC9E"/>
<path d="M691.24 468.108C741.64 509.289 792.723 553.092 843.949 599.128C802.041 638.144 760.415 678.306 719.358 719.362C598.224 840.497 484.865 966.589 385.798 1090.26C286.618 1214.07 204.463 1332.08 143.486 1437.41C81.8787 1543.82 45.8524 1630.5 32.1387 1693.78C25.3334 1725.19 25.0608 1746.21 26.8926 1758.79C27.7672 1764.8 28.953 1767.98 29.6299 1769.38C31.0307 1770.06 34.205 1771.24 40.2148 1772.12C52.8025 1773.95 73.8214 1773.67 105.226 1766.87C168.509 1753.16 255.188 1717.13 361.602 1655.52C460.948 1598.01 571.584 1521.64 687.728 1429.93C738.364 1476.28 789.415 1521.08 840.46 1563.95C838.236 1565.74 836.013 1567.52 833.79 1569.3C704.125 1673.17 577.779 1761.47 461.81 1828.61C346.931 1895.12 239.718 1942.37 147.582 1962.33C60.2915 1981.25 -41.7475 1981.08 -111.911 1910.92L-111.912 1910.92C-182.076 1840.76 -182.24 1738.72 -163.324 1651.43C-143.358 1559.29 -96.1073 1452.08 -29.5986 1337.2C37.5416 1221.23 125.836 1094.88 229.705 965.219C333.688 835.412 452.002 703.876 577.938 577.941C615.277 540.602 653.107 503.933 691.24 468.108ZM1651.42 -163.32C1738.71 -182.236 1840.75 -182.071 1910.92 -111.908H1910.92C1981.08 -41.7447 1981.25 60.2947 1962.33 147.585C1942.36 239.721 1895.11 346.934 1828.6 461.812C1761.46 577.782 1673.17 704.129 1569.3 833.794C1465.32 963.6 1347 1095.14 1221.07 1221.07C1183.73 1258.41 1145.9 1295.08 1107.76 1330.9C1057.05 1289.46 1005.97 1245.63 955.058 1199.88C996.965 1160.87 1038.59 1120.71 1079.65 1079.65C1200.78 958.516 1314.14 832.423 1413.21 708.754C1512.39 584.943 1594.54 466.929 1655.52 361.606C1717.13 255.193 1753.15 168.512 1766.87 105.229C1773.67 73.8242 1773.95 52.8054 1772.11 40.2178C1771.24 34.2084 1770.05 31.0346 1769.38 29.6338C1767.98 28.9568 1764.8 27.7712 1758.79 26.8965C1746.2 25.0647 1725.18 25.3383 1693.78 32.1436C1630.5 45.8572 1543.82 81.8824 1437.4 143.49C1338.06 201.007 1227.42 277.367 1111.28 369.083C1060.56 322.658 1009.51 277.862 958.545 235.063C960.769 233.274 962.993 231.49 965.216 229.709C1094.88 125.84 1221.23 37.5454 1337.2 -29.5947C1452.08 -96.1035 1559.29 -143.354 1651.42 -163.32Z" fill="#F2F5EA"/>
</g>
</g>
<defs>
<clipPath id="clip0_7_2537">
<rect width="1800" height="1800" fill="white"/>
</clipPath>
</defs>
</svg>
