<svg width="1800" height="1800" viewBox="0 0 1800 1800" fill="none" xmlns="http://www.w3.org/2000/svg">
<g clip-path="url(#clip0_7_2315)">
<path d="M1183.32 0C1117.92 46.1446 1050.88 96.7098 983.007 151.082C974.991 157.503 966.971 163.974 958.944 170.49C1009.87 213.417 1060.89 258.114 1111.65 304.293C1251.12 192.806 1384.23 100.238 1503.34 31.2773C1522.48 20.1978 1541.08 9.83058 1559.13 0.164062C1690.16 4.86637 1795.49 110.411 1799.86 241.53C1790.25 259.446 1779.96 277.908 1768.97 296.899C1699.41 417.039 1605.84 551.415 1493.07 692.197C1380.41 832.838 1251.54 976.181 1113.86 1113.86C1061.85 1165.86 1009.04 1216.61 955.871 1265.7C1006.77 1311.24 1057.8 1355.08 1108.56 1396.87C1157.97 1350.86 1206.99 1303.57 1255.28 1255.28C1397.76 1112.8 1531.58 964.016 1649.16 817.237C1703.44 749.482 1753.92 682.563 1800 617.273V1550C1800 1688.07 1688.07 1800 1550 1800H617.273C682.563 1753.92 749.482 1703.44 817.237 1649.16C825.253 1642.74 833.273 1636.27 841.3 1629.75C790.287 1586.76 739.274 1542.05 688.593 1495.95C549.121 1607.44 416.014 1700.01 296.899 1768.97C277.908 1779.96 259.446 1790.25 241.53 1799.86C110.411 1795.49 4.86539 1690.16 0.164062 1559.12C9.83022 1541.08 20.1972 1522.48 31.2764 1503.34C100.831 1383.2 194.4 1248.83 307.175 1108.05C419.837 967.406 548.708 824.063 686.386 686.386C738.39 634.381 791.204 583.634 844.374 534.541C793.214 488.766 742.178 444.944 691.682 403.376C642.267 449.381 593.254 496.676 544.965 544.965C402.487 687.443 268.66 836.229 151.082 983.007C96.7102 1050.88 46.1446 1117.92 0 1183.31V250C6.44434e-06 111.929 111.929 6.44277e-06 250 0H1183.32Z" fill="#1A1D1A"/>
<mask id="mask0_7_2315" style="mask-type:alpha" maskUnits="userSpaceOnUse" x="0" y="0" width="1800" height="1800">
<rect width="1800" height="1800" rx="250" fill="#0A0A14"/>
</mask>
<g mask="url(#mask0_7_2315)">
<path d="M686.386 1113.86C824.063 1251.54 967.406 1380.41 1108.05 1493.07C1248.83 1605.84 1383.2 1699.41 1503.34 1768.97C1624.58 1839.15 1724.24 1880.75 1797.93 1896.72C1876.44 1913.74 1895.94 1896.23 1896.09 1896.09L2037.51 2037.51C1962.93 2112.08 1853.27 2113.36 1755.57 2092.19C1653.03 2069.97 1532.83 2017.14 1403.14 1942.05C1272.35 1866.33 1129.64 1766.63 983.007 1649.16C836.229 1531.58 687.442 1397.76 544.965 1255.28L686.386 1113.86ZM1629.75 958.943C1754.88 1113.06 1861.71 1264.36 1942.05 1403.14C2017.91 1534.16 2070.16 1653.93 2092.19 1755.57C2113.08 1852 2112.63 1962.38 2037.51 2037.51L1896.09 1896.09C1896.4 1895.77 1913.66 1876.07 1896.72 1797.93C1880.92 1725 1839.81 1625.7 1768.97 1503.34C1699.04 1382.56 1605.98 1249.3 1495.95 1111.65C1542.05 1060.97 1586.76 1009.96 1629.75 958.943ZM534.543 955.871C583.635 1009.04 634.381 1061.85 686.386 1113.86L544.965 1255.28C496.675 1206.99 449.381 1157.98 403.375 1108.56C445.163 1057.8 489.005 1006.77 534.543 955.871ZM-237.264 -237.264C-162.138 -312.389 -51.7557 -312.838 44.6737 -291.941C146.315 -269.916 266.081 -217.665 397.106 -141.808C660.197 10.5084 968.307 257.993 1255.28 544.965C1303.69 593.375 1350.97 642.387 1396.87 691.683C1355.08 742.444 1311.24 793.476 1265.7 844.37C1216.84 791.451 1166.12 738.644 1113.86 686.386C835.031 407.559 540.577 172.354 296.899 31.2773C174.541 -39.5618 75.2483 -80.6743 2.31726 -96.4785C-75.8172 -113.41 -95.5246 -96.1605 -95.8429 -95.8428C-95.9882 -95.6961 -113.492 -76.1897 -96.4796 2.31738C-80.5109 76.0073 -38.9089 175.669 31.2772 296.899C100.238 416.014 192.806 549.121 304.293 688.593C258.19 739.274 213.487 790.286 170.49 841.3C163.974 833.274 157.503 825.253 151.082 817.237C33.6171 670.601 -66.0894 527.893 -141.808 397.106C-216.895 267.411 -269.721 147.216 -291.942 44.6738C-313.112 -53.0229 -311.839 -162.689 -237.264 -237.264Z" fill="#69DC9E"/>
</g>
</g>
<defs>
<clipPath id="clip0_7_2315">
<rect width="1800" height="1800" fill="white"/>
</clipPath>
</defs>
</svg>
