<svg width="3200" height="1800" viewBox="0 0 3200 1800" fill="none" xmlns="http://www.w3.org/2000/svg">
<g clip-path="url(#clip0_17_1290)">
<path d="M170.125 1455.12C184.125 1455.12 198.25 1455.25 212.5 1455.5C226.75 1455.5 240.75 1455.75 254.5 1456.25C268.25 1456.75 281.125 1457.62 293.125 1458.87L290.5 1500.5H191.125C184.875 1500.5 180.125 1502.12 176.875 1505.37C173.875 1508.62 172.375 1513.37 172.375 1519.62V1651.62C172.375 1657.87 173.875 1662.62 176.875 1665.87C180.125 1669.12 184.875 1670.75 191.125 1670.75H290.5L293.125 1712.37C281.125 1713.37 268.25 1714.25 254.5 1715C240.75 1715.5 226.75 1715.75 212.5 1715.75C198.25 1716 184.125 1716.13 170.125 1716.13C153.625 1716.13 140.25 1711.37 130 1701.87C120 1692.12 115 1679.5 115 1664V1507.25C115 1491.5 120 1478.87 130 1469.37C140.25 1459.87 153.625 1455.12 170.125 1455.12ZM121.75 1560.12H276.625V1600.62H121.75V1560.12ZM552.672 1456.25V1694.37C552.672 1708.12 545.797 1715 532.047 1715H500.547C494.297 1715 489.547 1713.62 486.297 1710.87C483.047 1707.87 480.047 1703.5 477.297 1697.75L405.672 1562C402.672 1556.25 399.672 1549.87 396.672 1542.87C393.922 1535.87 391.547 1529.12 389.547 1522.62H385.422C386.172 1529.37 386.797 1536.25 387.297 1543.25C387.797 1550 388.047 1556.75 388.047 1563.5V1715H333.672V1476.87C333.672 1463.12 340.672 1456.25 354.672 1456.25H385.797C391.797 1456.25 396.297 1457.75 399.297 1460.75C402.547 1463.5 405.672 1467.75 408.672 1473.5L478.047 1605.12C481.047 1610.87 484.172 1617.25 487.422 1624.25C490.672 1631.25 493.797 1638.5 496.797 1646H501.297C500.547 1638.5 499.922 1631.25 499.422 1624.25C499.172 1617 499.047 1609.87 499.047 1602.87L498.672 1456.25H552.672ZM719.802 1456.25V1715H662.427V1456.25H719.802ZM797.802 1456.25V1501.25H584.802V1456.25H797.802ZM883.138 1455.12C897.138 1455.12 911.263 1455.25 925.513 1455.5C939.763 1455.5 953.763 1455.75 967.513 1456.25C981.263 1456.75 994.138 1457.62 1006.14 1458.87L1003.51 1500.5H904.138C897.888 1500.5 893.138 1502.12 889.888 1505.37C886.888 1508.62 885.388 1513.37 885.388 1519.62V1651.62C885.388 1657.87 886.888 1662.62 889.888 1665.87C893.138 1669.12 897.888 1670.75 904.138 1670.75H1003.51L1006.14 1712.37C994.138 1713.37 981.263 1714.25 967.513 1715C953.763 1715.5 939.763 1715.75 925.513 1715.75C911.263 1716 897.138 1716.13 883.138 1716.13C866.638 1716.13 853.263 1711.37 843.013 1701.87C833.013 1692.12 828.013 1679.5 828.013 1664V1507.25C828.013 1491.5 833.013 1478.87 843.013 1469.37C853.263 1459.87 866.638 1455.12 883.138 1455.12ZM834.763 1560.12H989.638V1600.62H834.763V1560.12ZM1146.43 1452.5C1169.18 1452.5 1187.56 1454.87 1201.56 1459.62C1215.81 1464.12 1226.18 1472 1232.68 1483.25C1239.43 1494.25 1242.81 1509.62 1242.81 1529.37C1242.81 1541.37 1241.18 1552 1237.93 1561.25C1234.93 1570.25 1229.81 1577.5 1222.56 1583C1215.31 1588.5 1205.43 1592 1192.93 1593.5V1595.37C1197.43 1596.12 1202.06 1597.87 1206.81 1600.62C1211.81 1603.37 1216.43 1607.5 1220.68 1613C1224.93 1618.25 1228.06 1625.37 1230.06 1634.37L1252.56 1715H1192.18L1172.31 1636.25C1170.06 1627.75 1166.68 1621.87 1162.18 1618.63C1157.93 1615.37 1151.93 1613.75 1144.18 1613.75C1127.18 1613.75 1112.81 1613.75 1101.06 1613.75C1089.56 1613.5 1079.81 1613.25 1071.81 1613C1064.06 1612.75 1057.06 1612.5 1050.81 1612.25L1051.93 1570.62H1145.31C1155.31 1570.62 1163.18 1569.62 1168.93 1567.62C1174.93 1565.37 1179.06 1561.5 1181.31 1556C1183.81 1550.5 1185.06 1542.87 1185.06 1533.12C1185.06 1523.12 1183.81 1515.5 1181.31 1510.25C1179.06 1504.75 1174.93 1501 1168.93 1499C1163.18 1496.75 1155.31 1495.62 1145.31 1495.62C1121.81 1495.62 1101.93 1495.75 1085.68 1496C1069.43 1496.25 1058.31 1496.62 1052.31 1497.12L1046.68 1456.25C1057.18 1455 1067.06 1454.12 1076.31 1453.62C1085.56 1453.12 1095.68 1452.87 1106.68 1452.87C1117.68 1452.62 1130.93 1452.5 1146.43 1452.5ZM1103.31 1456.25V1715H1046.68V1456.25H1103.31ZM1402.05 1456.25V1715H1344.68V1456.25H1402.05ZM1480.05 1456.25V1501.25H1267.05V1456.25H1480.05ZM1614.28 1456.25C1619.03 1456.25 1623.16 1457.62 1626.66 1460.37C1630.41 1463.12 1632.91 1466.75 1634.16 1471.25L1709.16 1715H1650.66L1597.78 1524.87C1596.78 1520.62 1595.78 1516.37 1594.78 1512.12C1593.78 1507.62 1592.91 1503.37 1592.16 1499.37H1582.03C1581.28 1503.37 1580.41 1507.62 1579.41 1512.12C1578.66 1516.37 1577.66 1520.62 1576.41 1524.87L1523.53 1715H1464.66L1540.03 1471.25C1541.28 1466.75 1543.66 1463.12 1547.16 1460.37C1550.91 1457.62 1555.16 1456.25 1559.91 1456.25H1614.28ZM1654.03 1603.62V1646.75H1519.78V1603.62H1654.03ZM1792.9 1456.25V1715H1735.9V1456.25H1792.9ZM2064.02 1456.25V1694.37C2064.02 1708.12 2057.15 1715 2043.4 1715H2011.9C2005.65 1715 2000.9 1713.62 1997.65 1710.87C1994.4 1707.87 1991.4 1703.5 1988.65 1697.75L1917.02 1562C1914.02 1556.25 1911.02 1549.87 1908.02 1542.87C1905.27 1535.87 1902.9 1529.12 1900.9 1522.62H1896.77C1897.52 1529.37 1898.15 1536.25 1898.65 1543.25C1899.15 1550 1899.4 1556.75 1899.4 1563.5V1715H1845.02V1476.87C1845.02 1463.12 1852.02 1456.25 1866.02 1456.25H1897.15C1903.15 1456.25 1907.65 1457.75 1910.65 1460.75C1913.9 1463.5 1917.02 1467.75 1920.02 1473.5L1989.4 1605.12C1992.4 1610.87 1995.52 1617.25 1998.77 1624.25C2002.02 1631.25 2005.15 1638.5 2008.15 1646H2012.65C2011.9 1638.5 2011.27 1631.25 2010.77 1624.25C2010.52 1617 2010.4 1609.87 2010.4 1602.87L2010.02 1456.25H2064.02ZM2380.78 1456.25C2394.28 1456.25 2401.28 1463.25 2401.78 1477.25L2411.53 1715H2358.65L2350.03 1500.5H2343.28L2301.65 1661.75C2299.4 1673.75 2291.9 1679.75 2279.15 1679.75H2243.15C2230.4 1679.75 2222.65 1673.75 2219.9 1661.75L2178.28 1500.5H2171.9L2164.03 1715H2110.78L2120.53 1477.25C2121.03 1463.25 2128.15 1456.25 2141.9 1456.25H2195.53C2207.78 1456.25 2215.28 1462.37 2218.03 1474.62L2251.4 1604.75C2252.9 1610.75 2254.15 1616.87 2255.15 1623.12C2256.15 1629.12 2257.28 1635.25 2258.53 1641.5H2263.4C2264.65 1635.25 2265.78 1629.12 2266.78 1623.12C2268.03 1616.87 2269.28 1610.62 2270.53 1604.37L2303.53 1474.62C2306.03 1462.37 2313.53 1456.25 2326.03 1456.25H2380.78ZM2512.04 1455.12C2526.04 1455.12 2540.17 1455.25 2554.42 1455.5C2568.67 1455.5 2582.67 1455.75 2596.42 1456.25C2610.17 1456.75 2623.04 1457.62 2635.04 1458.87L2632.42 1500.5H2533.04C2526.79 1500.5 2522.04 1502.12 2518.79 1505.37C2515.79 1508.62 2514.29 1513.37 2514.29 1519.62V1651.62C2514.29 1657.87 2515.79 1662.62 2518.79 1665.87C2522.04 1669.12 2526.79 1670.75 2533.04 1670.75H2632.42L2635.04 1712.37C2623.04 1713.37 2610.17 1714.25 2596.42 1715C2582.67 1715.5 2568.67 1715.75 2554.42 1715.75C2540.17 1716 2526.04 1716.13 2512.04 1716.13C2495.54 1716.13 2482.17 1711.37 2471.92 1701.87C2461.92 1692.12 2456.92 1679.5 2456.92 1664V1507.25C2456.92 1491.5 2461.92 1478.87 2471.92 1469.37C2482.17 1459.87 2495.54 1455.12 2512.04 1455.12ZM2463.67 1560.12H2618.54V1600.62H2463.67V1560.12ZM2894.59 1456.25V1694.37C2894.59 1708.12 2887.72 1715 2873.97 1715H2842.47C2836.22 1715 2831.47 1713.62 2828.22 1710.87C2824.97 1707.87 2821.97 1703.5 2819.22 1697.75L2747.59 1562C2744.59 1556.25 2741.59 1549.87 2738.59 1542.87C2735.84 1535.87 2733.47 1529.12 2731.47 1522.62H2727.34C2728.09 1529.37 2728.72 1536.25 2729.22 1543.25C2729.72 1550 2729.97 1556.75 2729.97 1563.5V1715H2675.59V1476.87C2675.59 1463.12 2682.59 1456.25 2696.59 1456.25H2727.72C2733.72 1456.25 2738.22 1457.75 2741.22 1460.75C2744.47 1463.5 2747.59 1467.75 2750.59 1473.5L2819.97 1605.12C2822.97 1610.87 2826.09 1617.25 2829.34 1624.25C2832.59 1631.25 2835.72 1638.5 2838.72 1646H2843.22C2842.47 1638.5 2841.84 1631.25 2841.34 1624.25C2841.09 1617 2840.97 1609.87 2840.97 1602.87L2840.59 1456.25H2894.59ZM3061.72 1456.25V1715H3004.35V1456.25H3061.72ZM3139.72 1456.25V1501.25H2926.72V1456.25H3139.72Z" fill="#1B9AAA"/>
<path d="M487.4 84.9999V1327H100.4V84.9999H487.4ZM1218.72 59.7999C1325.52 59.7999 1415.52 69.9999 1488.72 90.3999C1563.12 109.6 1623.12 143.2 1668.72 191.2C1714.32 239.2 1747.32 305.2 1767.72 389.2C1788.12 472 1798.32 577.6 1798.32 706C1798.32 833.2 1788.12 938.8 1767.72 1022.8C1747.32 1106.8 1714.32 1172.8 1668.72 1220.8C1623.12 1268.8 1563.12 1303 1488.72 1323.4C1415.52 1342.6 1325.52 1352.2 1218.72 1352.2C1113.12 1352.2 1023.12 1342.6 948.72 1323.4C875.52 1303 816.12 1268.8 770.52 1220.8C724.92 1172.8 691.92 1106.8 671.52 1022.8C651.12 938.8 640.92 833.2 640.92 706C640.92 577.6 651.12 472 671.52 389.2C691.92 305.2 724.92 239.2 770.52 191.2C816.12 143.2 875.52 109.6 948.72 90.3999C1023.12 69.9999 1113.12 59.7999 1218.72 59.7999ZM1218.72 349.6C1174.32 349.6 1140.12 359.2 1116.12 378.4C1092.12 397.6 1075.32 433 1065.72 484.6C1056.12 536.2 1051.32 610 1051.32 706C1051.32 802 1056.12 875.8 1065.72 927.4C1075.32 979 1092.12 1014.4 1116.12 1033.6C1140.12 1052.8 1174.32 1062.4 1218.72 1062.4C1263.12 1062.4 1297.32 1052.8 1321.32 1033.6C1345.32 1014.4 1362.12 979 1371.72 927.4C1381.32 875.8 1386.12 802 1386.12 706C1386.12 610 1381.32 536.2 1371.72 484.6C1362.12 433 1345.32 397.6 1321.32 378.4C1297.32 359.2 1263.12 349.6 1218.72 349.6ZM3092.58 84.9999V1192C3092.58 1282 3047.58 1327 2957.58 1327H2808.18C2767.38 1327 2736.78 1317.4 2716.38 1298.2C2697.18 1279 2677.38 1250.8 2656.98 1213.6L2386.98 787C2370.18 755.8 2354.58 722.2 2340.18 686.2C2326.98 649 2314.98 611.8 2304.18 574.6H2291.58C2297.58 611.8 2301.78 650.2 2304.18 689.8C2307.78 728.2 2309.58 765.4 2309.58 801.4V1327H1949.58V220C1949.58 130 1994.58 84.9999 2084.58 84.9999H2233.98C2274.78 84.9999 2304.78 94.5999 2323.98 113.8C2343.18 133 2363.58 161.2 2385.18 198.4L2644.38 605.2C2661.18 635.2 2677.38 668.2 2692.98 704.2C2709.78 740.2 2725.38 778 2739.78 817.6H2752.38C2747.58 779.2 2743.38 741.4 2739.78 704.2C2737.38 667 2736.18 629.8 2736.18 592.6L2734.38 84.9999H3092.58Z" fill="#F2F5EA"/>
</g>
<defs>
<clipPath id="clip0_17_1290">
<rect width="3200" height="1800" fill="white"/>
</clipPath>
</defs>
</svg>
