<svg width="3200" height="1800" viewBox="0 0 3200 1800" fill="none" xmlns="http://www.w3.org/2000/svg">
<g clip-path="url(#clip0_17_1274)">
<path d="M165.125 1455.12C179.125 1455.12 193.25 1455.25 207.5 1455.5C221.75 1455.5 235.75 1455.75 249.5 1456.25C263.25 1456.75 276.125 1457.62 288.125 1458.87L285.5 1500.5H186.125C179.875 1500.5 175.125 1502.12 171.875 1505.37C168.875 1508.62 167.375 1513.37 167.375 1519.62V1651.62C167.375 1657.87 168.875 1662.62 171.875 1665.87C175.125 1669.12 179.875 1670.75 186.125 1670.75H285.5L288.125 1712.37C276.125 1713.37 263.25 1714.25 249.5 1715C235.75 1715.5 221.75 1715.75 207.5 1715.75C193.25 1716 179.125 1716.13 165.125 1716.13C148.625 1716.13 135.25 1711.37 125 1701.87C115 1692.12 110 1679.5 110 1664V1507.25C110 1491.5 115 1478.87 125 1469.37C135.25 1459.87 148.625 1455.12 165.125 1455.12ZM116.75 1560.12H271.625V1600.62H116.75V1560.12ZM547.672 1456.25V1694.37C547.672 1708.12 540.797 1715 527.047 1715H495.547C489.297 1715 484.547 1713.62 481.297 1710.87C478.047 1707.87 475.047 1703.5 472.297 1697.75L400.672 1562C397.672 1556.25 394.672 1549.87 391.672 1542.87C388.922 1535.87 386.547 1529.12 384.547 1522.62H380.422C381.172 1529.37 381.797 1536.25 382.297 1543.25C382.797 1550 383.047 1556.75 383.047 1563.5V1715H328.672V1476.87C328.672 1463.12 335.672 1456.25 349.672 1456.25H380.797C386.797 1456.25 391.297 1457.75 394.297 1460.75C397.547 1463.5 400.672 1467.75 403.672 1473.5L473.047 1605.12C476.047 1610.87 479.172 1617.25 482.422 1624.25C485.672 1631.25 488.797 1638.5 491.797 1646H496.297C495.547 1638.5 494.922 1631.25 494.422 1624.25C494.172 1617 494.047 1609.87 494.047 1602.87L493.672 1456.25H547.672ZM714.802 1456.25V1715H657.427V1456.25H714.802ZM792.802 1456.25V1501.25H579.802V1456.25H792.802ZM878.138 1455.12C892.138 1455.12 906.263 1455.25 920.513 1455.5C934.763 1455.5 948.763 1455.75 962.513 1456.25C976.263 1456.75 989.138 1457.62 1001.14 1458.87L998.513 1500.5H899.138C892.888 1500.5 888.138 1502.12 884.888 1505.37C881.888 1508.62 880.388 1513.37 880.388 1519.62V1651.62C880.388 1657.87 881.888 1662.62 884.888 1665.87C888.138 1669.12 892.888 1670.75 899.138 1670.75H998.513L1001.14 1712.37C989.138 1713.37 976.263 1714.25 962.513 1715C948.763 1715.5 934.763 1715.75 920.513 1715.75C906.263 1716 892.138 1716.13 878.138 1716.13C861.638 1716.13 848.263 1711.37 838.013 1701.87C828.013 1692.12 823.013 1679.5 823.013 1664V1507.25C823.013 1491.5 828.013 1478.87 838.013 1469.37C848.263 1459.87 861.638 1455.12 878.138 1455.12ZM829.763 1560.12H984.638V1600.62H829.763V1560.12ZM1141.43 1452.5C1164.18 1452.5 1182.56 1454.87 1196.56 1459.62C1210.81 1464.12 1221.18 1472 1227.68 1483.25C1234.43 1494.25 1237.81 1509.62 1237.81 1529.37C1237.81 1541.37 1236.18 1552 1232.93 1561.25C1229.93 1570.25 1224.81 1577.5 1217.56 1583C1210.31 1588.5 1200.43 1592 1187.93 1593.5V1595.37C1192.43 1596.12 1197.06 1597.87 1201.81 1600.62C1206.81 1603.37 1211.43 1607.5 1215.68 1613C1219.93 1618.25 1223.06 1625.37 1225.06 1634.37L1247.56 1715H1187.18L1167.31 1636.25C1165.06 1627.75 1161.68 1621.87 1157.18 1618.63C1152.93 1615.37 1146.93 1613.75 1139.18 1613.75C1122.18 1613.75 1107.81 1613.75 1096.06 1613.75C1084.56 1613.5 1074.81 1613.25 1066.81 1613C1059.06 1612.75 1052.06 1612.5 1045.81 1612.25L1046.93 1570.62H1140.31C1150.31 1570.62 1158.18 1569.62 1163.93 1567.62C1169.93 1565.37 1174.06 1561.5 1176.31 1556C1178.81 1550.5 1180.06 1542.87 1180.06 1533.12C1180.06 1523.12 1178.81 1515.5 1176.31 1510.25C1174.06 1504.75 1169.93 1501 1163.93 1499C1158.18 1496.75 1150.31 1495.62 1140.31 1495.62C1116.81 1495.62 1096.93 1495.75 1080.68 1496C1064.43 1496.25 1053.31 1496.62 1047.31 1497.12L1041.68 1456.25C1052.18 1455 1062.06 1454.12 1071.31 1453.62C1080.56 1453.12 1090.68 1452.87 1101.68 1452.87C1112.68 1452.62 1125.93 1452.5 1141.43 1452.5ZM1098.31 1456.25V1715H1041.68V1456.25H1098.31ZM1397.05 1456.25V1715H1339.68V1456.25H1397.05ZM1475.05 1456.25V1501.25H1262.05V1456.25H1475.05ZM1609.28 1456.25C1614.03 1456.25 1618.16 1457.62 1621.66 1460.37C1625.41 1463.12 1627.91 1466.75 1629.16 1471.25L1704.16 1715H1645.66L1592.78 1524.87C1591.78 1520.62 1590.78 1516.37 1589.78 1512.12C1588.78 1507.62 1587.91 1503.37 1587.16 1499.37H1577.03C1576.28 1503.37 1575.41 1507.62 1574.41 1512.12C1573.66 1516.37 1572.66 1520.62 1571.41 1524.87L1518.53 1715H1459.66L1535.03 1471.25C1536.28 1466.75 1538.66 1463.12 1542.16 1460.37C1545.91 1457.62 1550.16 1456.25 1554.91 1456.25H1609.28ZM1649.03 1603.62V1646.75H1514.78V1603.62H1649.03ZM1787.9 1456.25V1715H1730.9V1456.25H1787.9ZM2059.02 1456.25V1694.37C2059.02 1708.12 2052.15 1715 2038.4 1715H2006.9C2000.65 1715 1995.9 1713.62 1992.65 1710.87C1989.4 1707.87 1986.4 1703.5 1983.65 1697.75L1912.02 1562C1909.02 1556.25 1906.02 1549.87 1903.02 1542.87C1900.27 1535.87 1897.9 1529.12 1895.9 1522.62H1891.77C1892.52 1529.37 1893.15 1536.25 1893.65 1543.25C1894.15 1550 1894.4 1556.75 1894.4 1563.5V1715H1840.02V1476.87C1840.02 1463.12 1847.02 1456.25 1861.02 1456.25H1892.15C1898.15 1456.25 1902.65 1457.75 1905.65 1460.75C1908.9 1463.5 1912.02 1467.75 1915.02 1473.5L1984.4 1605.12C1987.4 1610.87 1990.52 1617.25 1993.77 1624.25C1997.02 1631.25 2000.15 1638.5 2003.15 1646H2007.65C2006.9 1638.5 2006.27 1631.25 2005.77 1624.25C2005.52 1617 2005.4 1609.87 2005.4 1602.87L2005.02 1456.25H2059.02ZM2375.78 1456.25C2389.28 1456.25 2396.28 1463.25 2396.78 1477.25L2406.53 1715H2353.65L2345.03 1500.5H2338.28L2296.65 1661.75C2294.4 1673.75 2286.9 1679.75 2274.15 1679.75H2238.15C2225.4 1679.75 2217.65 1673.75 2214.9 1661.75L2173.28 1500.5H2166.9L2159.03 1715H2105.78L2115.53 1477.25C2116.03 1463.25 2123.15 1456.25 2136.9 1456.25H2190.53C2202.78 1456.25 2210.28 1462.37 2213.03 1474.62L2246.4 1604.75C2247.9 1610.75 2249.15 1616.87 2250.15 1623.12C2251.15 1629.12 2252.28 1635.25 2253.53 1641.5H2258.4C2259.65 1635.25 2260.78 1629.12 2261.78 1623.12C2263.03 1616.87 2264.28 1610.62 2265.53 1604.37L2298.53 1474.62C2301.03 1462.37 2308.53 1456.25 2321.03 1456.25H2375.78ZM2507.04 1455.12C2521.04 1455.12 2535.17 1455.25 2549.42 1455.5C2563.67 1455.5 2577.67 1455.75 2591.42 1456.25C2605.17 1456.75 2618.04 1457.62 2630.04 1458.87L2627.42 1500.5H2528.04C2521.79 1500.5 2517.04 1502.12 2513.79 1505.37C2510.79 1508.62 2509.29 1513.37 2509.29 1519.62V1651.62C2509.29 1657.87 2510.79 1662.62 2513.79 1665.87C2517.04 1669.12 2521.79 1670.75 2528.04 1670.75H2627.42L2630.04 1712.37C2618.04 1713.37 2605.17 1714.25 2591.42 1715C2577.67 1715.5 2563.67 1715.75 2549.42 1715.75C2535.17 1716 2521.04 1716.13 2507.04 1716.13C2490.54 1716.13 2477.17 1711.37 2466.92 1701.87C2456.92 1692.12 2451.92 1679.5 2451.92 1664V1507.25C2451.92 1491.5 2456.92 1478.87 2466.92 1469.37C2477.17 1459.87 2490.54 1455.12 2507.04 1455.12ZM2458.67 1560.12H2613.54V1600.62H2458.67V1560.12ZM2889.59 1456.25V1694.37C2889.59 1708.12 2882.72 1715 2868.97 1715H2837.47C2831.22 1715 2826.47 1713.62 2823.22 1710.87C2819.97 1707.87 2816.97 1703.5 2814.22 1697.75L2742.59 1562C2739.59 1556.25 2736.59 1549.87 2733.59 1542.87C2730.84 1535.87 2728.47 1529.12 2726.47 1522.62H2722.34C2723.09 1529.37 2723.72 1536.25 2724.22 1543.25C2724.72 1550 2724.97 1556.75 2724.97 1563.5V1715H2670.59V1476.87C2670.59 1463.12 2677.59 1456.25 2691.59 1456.25H2722.72C2728.72 1456.25 2733.22 1457.75 2736.22 1460.75C2739.47 1463.5 2742.59 1467.75 2745.59 1473.5L2814.97 1605.12C2817.97 1610.87 2821.09 1617.25 2824.34 1624.25C2827.59 1631.25 2830.72 1638.5 2833.72 1646H2838.22C2837.47 1638.5 2836.84 1631.25 2836.34 1624.25C2836.09 1617 2835.97 1609.87 2835.97 1602.87L2835.59 1456.25H2889.59ZM3056.72 1456.25V1715H2999.35V1456.25H3056.72ZM3134.72 1456.25V1501.25H2921.72V1456.25H3134.72Z" fill="#69DC9E"/>
<path d="M482.4 84.9999V1327H95.4V84.9999H482.4ZM1213.72 59.7999C1320.52 59.7999 1410.52 69.9999 1483.72 90.3999C1558.12 109.6 1618.12 143.2 1663.72 191.2C1709.32 239.2 1742.32 305.2 1762.72 389.2C1783.12 472 1793.32 577.6 1793.32 706C1793.32 833.2 1783.12 938.8 1762.72 1022.8C1742.32 1106.8 1709.32 1172.8 1663.72 1220.8C1618.12 1268.8 1558.12 1303 1483.72 1323.4C1410.52 1342.6 1320.52 1352.2 1213.72 1352.2C1108.12 1352.2 1018.12 1342.6 943.72 1323.4C870.52 1303 811.12 1268.8 765.52 1220.8C719.92 1172.8 686.92 1106.8 666.52 1022.8C646.12 938.8 635.92 833.2 635.92 706C635.92 577.6 646.12 472 666.52 389.2C686.92 305.2 719.92 239.2 765.52 191.2C811.12 143.2 870.52 109.6 943.72 90.3999C1018.12 69.9999 1108.12 59.7999 1213.72 59.7999ZM1213.72 349.6C1169.32 349.6 1135.12 359.2 1111.12 378.4C1087.12 397.6 1070.32 433 1060.72 484.6C1051.12 536.2 1046.32 610 1046.32 706C1046.32 802 1051.12 875.8 1060.72 927.4C1070.32 979 1087.12 1014.4 1111.12 1033.6C1135.12 1052.8 1169.32 1062.4 1213.72 1062.4C1258.12 1062.4 1292.32 1052.8 1316.32 1033.6C1340.32 1014.4 1357.12 979 1366.72 927.4C1376.32 875.8 1381.12 802 1381.12 706C1381.12 610 1376.32 536.2 1366.72 484.6C1357.12 433 1340.32 397.6 1316.32 378.4C1292.32 359.2 1258.12 349.6 1213.72 349.6ZM3087.58 84.9999V1192C3087.58 1282 3042.58 1327 2952.58 1327H2803.18C2762.38 1327 2731.78 1317.4 2711.38 1298.2C2692.18 1279 2672.38 1250.8 2651.98 1213.6L2381.98 787C2365.18 755.8 2349.58 722.2 2335.18 686.2C2321.98 649 2309.98 611.8 2299.18 574.6H2286.58C2292.58 611.8 2296.78 650.2 2299.18 689.8C2302.78 728.2 2304.58 765.4 2304.58 801.4V1327H1944.58V220C1944.58 130 1989.58 84.9999 2079.58 84.9999H2228.98C2269.78 84.9999 2299.78 94.5999 2318.98 113.8C2338.18 133 2358.58 161.2 2380.18 198.4L2639.38 605.2C2656.18 635.2 2672.38 668.2 2687.98 704.2C2704.78 740.2 2720.38 778 2734.78 817.6H2747.38C2742.58 779.2 2738.38 741.4 2734.78 704.2C2732.38 667 2731.18 629.8 2731.18 592.6L2729.38 84.9999H3087.58Z" fill="#1A1D1A"/>
</g>
<defs>
<clipPath id="clip0_17_1274">
<rect width="3200" height="1800" fill="white"/>
</clipPath>
</defs>
</svg>
