<svg width="5050" height="1800" viewBox="0 0 5050 1800" fill="none" xmlns="http://www.w3.org/2000/svg">
<g clip-path="url(#clip0_7_2654)">
<path d="M2065.13 1455.12C2079.13 1455.12 2093.25 1455.25 2107.5 1455.5C2121.75 1455.5 2135.75 1455.75 2149.5 1456.25C2163.25 1456.75 2176.13 1457.62 2188.13 1458.87L2185.5 1500.5H2086.13C2079.88 1500.5 2075.13 1502.12 2071.88 1505.37C2068.88 1508.62 2067.38 1513.37 2067.38 1519.62V1651.62C2067.38 1657.87 2068.88 1662.62 2071.88 1665.87C2075.13 1669.12 2079.88 1670.75 2086.13 1670.75H2185.5L2188.13 1712.37C2176.13 1713.37 2163.25 1714.25 2149.5 1715C2135.75 1715.5 2121.75 1715.75 2107.5 1715.75C2093.25 1716 2079.13 1716.13 2065.13 1716.13C2048.63 1716.13 2035.25 1711.37 2025 1701.87C2015 1692.12 2010 1679.5 2010 1664V1507.25C2010 1491.5 2015 1478.87 2025 1469.37C2035.25 1459.87 2048.63 1455.12 2065.13 1455.12ZM2016.75 1560.12H2171.63V1600.62H2016.75V1560.12ZM2447.67 1456.25V1694.37C2447.67 1708.12 2440.8 1715 2427.05 1715H2395.55C2389.3 1715 2384.55 1713.62 2381.3 1710.87C2378.05 1707.87 2375.05 1703.5 2372.3 1697.75L2300.67 1562C2297.67 1556.25 2294.67 1549.87 2291.67 1542.87C2288.92 1535.87 2286.55 1529.12 2284.55 1522.62H2280.42C2281.17 1529.37 2281.8 1536.25 2282.3 1543.25C2282.8 1550 2283.05 1556.75 2283.05 1563.5V1715H2228.67V1476.87C2228.67 1463.12 2235.67 1456.25 2249.67 1456.25H2280.8C2286.8 1456.25 2291.3 1457.75 2294.3 1460.75C2297.55 1463.5 2300.67 1467.75 2303.67 1473.5L2373.05 1605.12C2376.05 1610.87 2379.17 1617.25 2382.42 1624.25C2385.67 1631.25 2388.8 1638.5 2391.8 1646H2396.3C2395.55 1638.5 2394.92 1631.25 2394.42 1624.25C2394.17 1617 2394.05 1609.87 2394.05 1602.87L2393.67 1456.25H2447.67ZM2614.8 1456.25V1715H2557.43V1456.25H2614.8ZM2692.8 1456.25V1501.25H2479.8V1456.25H2692.8ZM2778.14 1455.12C2792.14 1455.12 2806.26 1455.25 2820.51 1455.5C2834.76 1455.5 2848.76 1455.75 2862.51 1456.25C2876.26 1456.75 2889.14 1457.62 2901.14 1458.87L2898.51 1500.5H2799.14C2792.89 1500.5 2788.14 1502.12 2784.89 1505.37C2781.89 1508.62 2780.39 1513.37 2780.39 1519.62V1651.62C2780.39 1657.87 2781.89 1662.62 2784.89 1665.87C2788.14 1669.12 2792.89 1670.75 2799.14 1670.75H2898.51L2901.14 1712.37C2889.14 1713.37 2876.26 1714.25 2862.51 1715C2848.76 1715.5 2834.76 1715.75 2820.51 1715.75C2806.26 1716 2792.14 1716.13 2778.14 1716.13C2761.64 1716.13 2748.26 1711.37 2738.01 1701.87C2728.01 1692.12 2723.01 1679.5 2723.01 1664V1507.25C2723.01 1491.5 2728.01 1478.87 2738.01 1469.37C2748.26 1459.87 2761.64 1455.12 2778.14 1455.12ZM2729.76 1560.12H2884.64V1600.62H2729.76V1560.12ZM3041.43 1452.5C3064.18 1452.5 3082.56 1454.87 3096.56 1459.62C3110.81 1464.12 3121.18 1472 3127.68 1483.25C3134.43 1494.25 3137.81 1509.62 3137.81 1529.37C3137.81 1541.37 3136.18 1552 3132.93 1561.25C3129.93 1570.25 3124.81 1577.5 3117.56 1583C3110.31 1588.5 3100.43 1592 3087.93 1593.5V1595.37C3092.43 1596.12 3097.06 1597.87 3101.81 1600.62C3106.81 1603.37 3111.43 1607.5 3115.68 1613C3119.93 1618.25 3123.06 1625.37 3125.06 1634.37L3147.56 1715H3087.18L3067.31 1636.25C3065.06 1627.75 3061.68 1621.87 3057.18 1618.63C3052.93 1615.37 3046.93 1613.75 3039.18 1613.75C3022.18 1613.75 3007.81 1613.75 2996.06 1613.75C2984.56 1613.5 2974.81 1613.25 2966.81 1613C2959.06 1612.75 2952.06 1612.5 2945.81 1612.25L2946.93 1570.62H3040.31C3050.31 1570.62 3058.18 1569.62 3063.93 1567.62C3069.93 1565.37 3074.06 1561.5 3076.31 1556C3078.81 1550.5 3080.06 1542.87 3080.06 1533.12C3080.06 1523.12 3078.81 1515.5 3076.31 1510.25C3074.06 1504.75 3069.93 1501 3063.93 1499C3058.18 1496.75 3050.31 1495.62 3040.31 1495.62C3016.81 1495.62 2996.93 1495.75 2980.68 1496C2964.43 1496.25 2953.31 1496.62 2947.31 1497.12L2941.68 1456.25C2952.18 1455 2962.06 1454.12 2971.31 1453.62C2980.56 1453.12 2990.68 1452.87 3001.68 1452.87C3012.68 1452.62 3025.93 1452.5 3041.43 1452.5ZM2998.31 1456.25V1715H2941.68V1456.25H2998.31ZM3297.05 1456.25V1715H3239.68V1456.25H3297.05ZM3375.05 1456.25V1501.25H3162.05V1456.25H3375.05ZM3509.28 1456.25C3514.03 1456.25 3518.16 1457.62 3521.66 1460.37C3525.41 1463.12 3527.91 1466.75 3529.16 1471.25L3604.16 1715H3545.66L3492.78 1524.87C3491.78 1520.62 3490.78 1516.37 3489.78 1512.12C3488.78 1507.62 3487.91 1503.37 3487.16 1499.37H3477.03C3476.28 1503.37 3475.41 1507.62 3474.41 1512.12C3473.66 1516.37 3472.66 1520.62 3471.41 1524.87L3418.53 1715H3359.66L3435.03 1471.25C3436.28 1466.75 3438.66 1463.12 3442.16 1460.37C3445.91 1457.62 3450.16 1456.25 3454.91 1456.25H3509.28ZM3549.03 1603.62V1646.75H3414.78V1603.62H3549.03ZM3687.9 1456.25V1715H3630.9V1456.25H3687.9ZM3959.02 1456.25V1694.37C3959.02 1708.12 3952.15 1715 3938.4 1715H3906.9C3900.65 1715 3895.9 1713.62 3892.65 1710.87C3889.4 1707.87 3886.4 1703.5 3883.65 1697.75L3812.02 1562C3809.02 1556.25 3806.02 1549.87 3803.02 1542.87C3800.27 1535.87 3797.9 1529.12 3795.9 1522.62H3791.77C3792.52 1529.37 3793.15 1536.25 3793.65 1543.25C3794.15 1550 3794.4 1556.75 3794.4 1563.5V1715H3740.02V1476.87C3740.02 1463.12 3747.02 1456.25 3761.02 1456.25H3792.15C3798.15 1456.25 3802.65 1457.75 3805.65 1460.75C3808.9 1463.5 3812.02 1467.75 3815.02 1473.5L3884.4 1605.12C3887.4 1610.87 3890.52 1617.25 3893.77 1624.25C3897.02 1631.25 3900.15 1638.5 3903.15 1646H3907.65C3906.9 1638.5 3906.27 1631.25 3905.77 1624.25C3905.52 1617 3905.4 1609.87 3905.4 1602.87L3905.02 1456.25H3959.02ZM4275.78 1456.25C4289.28 1456.25 4296.28 1463.25 4296.78 1477.25L4306.53 1715H4253.65L4245.03 1500.5H4238.28L4196.65 1661.75C4194.4 1673.75 4186.9 1679.75 4174.15 1679.75H4138.15C4125.4 1679.75 4117.65 1673.75 4114.9 1661.75L4073.28 1500.5H4066.9L4059.03 1715H4005.78L4015.53 1477.25C4016.03 1463.25 4023.15 1456.25 4036.9 1456.25H4090.53C4102.78 1456.25 4110.28 1462.37 4113.03 1474.62L4146.4 1604.75C4147.9 1610.75 4149.15 1616.87 4150.15 1623.12C4151.15 1629.12 4152.28 1635.25 4153.53 1641.5H4158.4C4159.65 1635.25 4160.78 1629.12 4161.78 1623.12C4163.03 1616.87 4164.28 1610.62 4165.53 1604.37L4198.53 1474.62C4201.03 1462.37 4208.53 1456.25 4221.03 1456.25H4275.78ZM4407.04 1455.12C4421.04 1455.12 4435.17 1455.25 4449.42 1455.5C4463.67 1455.5 4477.67 1455.75 4491.42 1456.25C4505.17 1456.75 4518.04 1457.62 4530.04 1458.87L4527.42 1500.5H4428.04C4421.79 1500.5 4417.04 1502.12 4413.79 1505.37C4410.79 1508.62 4409.29 1513.37 4409.29 1519.62V1651.62C4409.29 1657.87 4410.79 1662.62 4413.79 1665.87C4417.04 1669.12 4421.79 1670.75 4428.04 1670.75H4527.42L4530.04 1712.37C4518.04 1713.37 4505.17 1714.25 4491.42 1715C4477.67 1715.5 4463.67 1715.75 4449.42 1715.75C4435.17 1716 4421.04 1716.13 4407.04 1716.13C4390.54 1716.13 4377.17 1711.37 4366.92 1701.87C4356.92 1692.12 4351.92 1679.5 4351.92 1664V1507.25C4351.92 1491.5 4356.92 1478.87 4366.92 1469.37C4377.17 1459.87 4390.54 1455.12 4407.04 1455.12ZM4358.67 1560.12H4513.54V1600.62H4358.67V1560.12ZM4789.59 1456.25V1694.37C4789.59 1708.12 4782.72 1715 4768.97 1715H4737.47C4731.22 1715 4726.47 1713.62 4723.22 1710.87C4719.97 1707.87 4716.97 1703.5 4714.22 1697.75L4642.59 1562C4639.59 1556.25 4636.59 1549.87 4633.59 1542.87C4630.84 1535.87 4628.47 1529.12 4626.47 1522.62H4622.34C4623.09 1529.37 4623.72 1536.25 4624.22 1543.25C4624.72 1550 4624.97 1556.75 4624.97 1563.5V1715H4570.59V1476.87C4570.59 1463.12 4577.59 1456.25 4591.59 1456.25H4622.72C4628.72 1456.25 4633.22 1457.75 4636.22 1460.75C4639.47 1463.5 4642.59 1467.75 4645.59 1473.5L4714.97 1605.12C4717.97 1610.87 4721.09 1617.25 4724.34 1624.25C4727.59 1631.25 4730.72 1638.5 4733.72 1646H4738.22C4737.47 1638.5 4736.84 1631.25 4736.34 1624.25C4736.09 1617 4735.97 1609.87 4735.97 1602.87L4735.59 1456.25H4789.59ZM4956.72 1456.25V1715H4899.35V1456.25H4956.72ZM5034.72 1456.25V1501.25H4821.72V1456.25H5034.72Z" fill="#1B9AAA"/>
<path d="M2382.4 84.9999V1327H1995.4V84.9999H2382.4ZM3113.72 59.7999C3220.52 59.7999 3310.52 69.9999 3383.72 90.3999C3458.12 109.6 3518.12 143.2 3563.72 191.2C3609.32 239.2 3642.32 305.2 3662.72 389.2C3683.12 472 3693.32 577.6 3693.32 706C3693.32 833.2 3683.12 938.8 3662.72 1022.8C3642.32 1106.8 3609.32 1172.8 3563.72 1220.8C3518.12 1268.8 3458.12 1303 3383.72 1323.4C3310.52 1342.6 3220.52 1352.2 3113.72 1352.2C3008.12 1352.2 2918.12 1342.6 2843.72 1323.4C2770.52 1303 2711.12 1268.8 2665.52 1220.8C2619.92 1172.8 2586.92 1106.8 2566.52 1022.8C2546.12 938.8 2535.92 833.2 2535.92 706C2535.92 577.6 2546.12 472 2566.52 389.2C2586.92 305.2 2619.92 239.2 2665.52 191.2C2711.12 143.2 2770.52 109.6 2843.72 90.3999C2918.12 69.9999 3008.12 59.7999 3113.72 59.7999ZM3113.72 349.6C3069.32 349.6 3035.12 359.2 3011.12 378.4C2987.12 397.6 2970.32 433 2960.72 484.6C2951.12 536.2 2946.32 610 2946.32 706C2946.32 802 2951.12 875.8 2960.72 927.4C2970.32 979 2987.12 1014.4 3011.12 1033.6C3035.12 1052.8 3069.32 1062.4 3113.72 1062.4C3158.12 1062.4 3192.32 1052.8 3216.32 1033.6C3240.32 1014.4 3257.12 979 3266.72 927.4C3276.32 875.8 3281.12 802 3281.12 706C3281.12 610 3276.32 536.2 3266.72 484.6C3257.12 433 3240.32 397.6 3216.32 378.4C3192.32 359.2 3158.12 349.6 3113.72 349.6ZM4987.58 84.9999V1192C4987.58 1282 4942.58 1327 4852.58 1327H4703.18C4662.38 1327 4631.78 1317.4 4611.38 1298.2C4592.18 1279 4572.38 1250.8 4551.98 1213.6L4281.98 787C4265.18 755.8 4249.58 722.2 4235.18 686.2C4221.98 649 4209.98 611.8 4199.18 574.6H4186.58C4192.58 611.8 4196.78 650.2 4199.18 689.8C4202.78 728.2 4204.58 765.4 4204.58 801.4V1327H3844.58V220C3844.58 130 3889.58 84.9999 3979.58 84.9999H4128.98C4169.78 84.9999 4199.78 94.5999 4218.98 113.8C4238.18 133 4258.58 161.2 4280.18 198.4L4539.38 605.2C4556.18 635.2 4572.38 668.2 4587.98 704.2C4604.78 740.2 4620.38 778 4634.78 817.6H4647.38C4642.58 779.2 4638.38 741.4 4634.78 704.2C4632.38 667 4631.18 629.8 4631.18 592.6L4629.38 84.9999H4987.58Z" fill="#1A1D1A"/>
<path d="M1183.31 0C1117.92 46.1443 1050.88 96.7093 983.007 151.081C974.991 157.502 966.97 163.973 958.943 170.49C1009.87 213.416 1060.89 258.113 1111.65 304.292C1251.12 192.805 1384.23 100.238 1503.34 31.2764C1522.48 20.1972 1541.08 9.83025 1559.12 0.164062C1690.16 4.8654 1795.49 110.411 1799.86 241.531C1790.25 259.447 1779.96 277.909 1768.97 296.9C1699.41 417.04 1605.84 551.416 1493.07 692.198C1380.41 832.839 1251.54 976.182 1113.86 1113.86C1061.85 1165.86 1009.04 1216.61 955.872 1265.7C1006.77 1311.24 1057.8 1355.08 1108.56 1396.87C1157.97 1350.86 1206.99 1303.57 1255.28 1255.28C1397.76 1112.8 1531.58 964.017 1649.16 817.238C1703.44 749.483 1753.92 682.564 1800 617.274V1550C1800 1688.07 1688.07 1800 1550 1800H617.275C682.564 1753.92 749.482 1703.44 817.237 1649.16C825.253 1642.74 833.273 1636.27 841.3 1629.75C790.286 1586.76 739.274 1542.05 688.593 1495.95C549.121 1607.44 416.014 1700.01 296.899 1768.97C277.909 1779.96 259.447 1790.25 241.532 1799.86C110.412 1795.49 4.86541 1690.16 0.164062 1559.12C9.83033 1541.08 20.1971 1522.48 31.2764 1503.34C100.831 1383.2 194.399 1248.83 307.175 1108.05C419.837 967.405 548.708 824.062 686.386 686.385C738.39 634.38 791.203 583.633 844.373 534.54C793.213 488.765 742.178 444.943 691.682 403.375C642.267 449.38 593.254 496.675 544.965 544.964C402.487 687.442 268.66 836.228 151.082 983.006C96.7102 1050.88 46.1446 1117.91 0 1183.31V250C8.24675e-06 111.929 111.929 8.24875e-06 250 0H1183.31Z" fill="#1A1D1A"/>
<mask id="mask0_7_2654" style="mask-type:alpha" maskUnits="userSpaceOnUse" x="0" y="0" width="1800" height="1800">
<rect x="0.5" y="0.5" width="1799" height="1799" rx="249.5" fill="#0A0A14" stroke="#0A0A14"/>
</mask>
<g mask="url(#mask0_7_2654)">
<path d="M686.386 1113.86C824.063 1251.54 967.406 1380.41 1108.05 1493.07C1248.83 1605.84 1383.2 1699.41 1503.34 1768.97C1624.58 1839.15 1724.24 1880.75 1797.93 1896.72C1876.44 1913.74 1895.94 1896.23 1896.09 1896.09L2037.51 2037.51C1962.93 2112.08 1853.27 2113.36 1755.57 2092.19C1653.03 2069.97 1532.83 2017.14 1403.14 1942.05C1272.35 1866.33 1129.64 1766.63 983.007 1649.16C836.229 1531.58 687.443 1397.76 544.965 1255.28L686.386 1113.86ZM1629.75 958.943C1754.88 1113.06 1861.71 1264.36 1942.05 1403.14C2017.91 1534.16 2070.16 1653.93 2092.19 1755.57C2113.08 1852 2112.63 1962.38 2037.51 2037.51L1896.09 1896.09C1896.4 1895.77 1913.66 1876.07 1896.72 1797.93C1880.92 1725 1839.81 1625.7 1768.97 1503.34C1699.04 1382.56 1605.98 1249.3 1495.95 1111.65C1542.05 1060.97 1586.76 1009.96 1629.75 958.943ZM534.543 955.872C583.635 1009.04 634.382 1061.85 686.386 1113.86L544.965 1255.28C496.676 1206.99 449.381 1157.98 403.375 1108.56C445.163 1057.8 489.005 1006.77 534.543 955.872ZM-237.264 -237.264C-162.138 -312.389 -51.7556 -312.838 44.6738 -291.941C146.315 -269.916 266.081 -217.665 397.106 -141.808C660.198 10.5084 968.307 257.993 1255.28 544.965C1303.69 593.375 1350.97 642.387 1396.87 691.683C1355.08 742.444 1311.24 793.476 1265.7 844.37C1216.84 791.451 1166.12 738.644 1113.86 686.386C835.031 407.559 540.577 172.354 296.899 31.2773C174.541 -39.5618 75.2484 -80.6743 2.31738 -96.4785C-75.8171 -113.41 -95.5245 -96.1605 -95.8428 -95.8428C-95.9879 -95.6962 -113.491 -76.1901 -96.4785 2.31738C-80.5098 76.0073 -38.9087 175.669 31.2773 296.899C100.238 416.014 192.806 549.121 304.293 688.593C258.19 739.274 213.487 790.286 170.49 841.3C163.974 833.274 157.503 825.253 151.082 817.237C33.6172 670.601 -66.0893 527.893 -141.808 397.106C-216.895 267.411 -269.72 147.216 -291.941 44.6738C-313.112 -53.0229 -311.839 -162.689 -237.264 -237.264Z" fill="#1B9AAA"/>
</g>
</g>
<defs>
<clipPath id="clip0_7_2654">
<rect width="5050" height="1800" fill="white"/>
</clipPath>
</defs>
</svg>
