<svg width="8800" height="1800" viewBox="0 0 8800 1800" fill="none" xmlns="http://www.w3.org/2000/svg">
<path d="M2039.8 1108V1384H1979V1108H2039.8ZM2151.4 1104L2151 1320.8C2151 1327.47 2153 1332.53 2157 1336C2161 1339.2 2166.86 1340.8 2174.6 1340.8H2190.6L2197.4 1380.8C2194.2 1382.4 2189.66 1383.73 2183.8 1384.8C2177.93 1386.13 2171.93 1387.07 2165.8 1387.6C2159.66 1388.4 2154.46 1388.8 2150.2 1388.8C2132.33 1388.8 2118.2 1384.13 2107.8 1374.8C2097.4 1365.47 2092.2 1352.4 2092.2 1335.6V1104H2151.4ZM2282.65 1104L2282.25 1320.8C2282.25 1327.47 2284.25 1332.53 2288.25 1336C2292.25 1339.2 2298.11 1340.8 2305.85 1340.8H2321.85L2328.65 1380.8C2325.45 1382.4 2320.91 1383.73 2315.05 1384.8C2309.18 1386.13 2303.18 1387.07 2297.05 1387.6C2290.91 1388.4 2285.71 1388.8 2281.45 1388.8C2263.58 1388.8 2249.45 1384.13 2239.05 1374.8C2228.65 1365.47 2223.45 1352.4 2223.45 1335.6V1104H2282.65ZM2412.3 1186.4V1316.4C2412.3 1324.67 2414.03 1330.53 2417.5 1334C2421.23 1337.47 2427.1 1339.2 2435.1 1339.2C2443.36 1339.2 2451.5 1337.73 2459.5 1334.8C2467.76 1331.6 2477.9 1326.67 2489.9 1320L2494.7 1352.4C2480.3 1364.93 2466.16 1374.27 2452.3 1380.4C2438.43 1386.53 2424.16 1389.6 2409.5 1389.6C2371.9 1389.6 2353.1 1371.2 2353.1 1334.4V1186.4H2412.3ZM2543.1 1186.4V1384H2496.3L2489.5 1345.2L2483.9 1339.6V1186.4H2543.1ZM2841.81 1181.2C2859.67 1181.2 2873.27 1185.87 2882.61 1195.2C2891.94 1204.53 2896.61 1218.13 2896.61 1236V1384H2837.81V1254.4C2837.81 1246.13 2836.21 1240.27 2833.01 1236.8C2829.81 1233.07 2824.21 1231.2 2816.21 1231.2C2811.41 1231.2 2806.87 1231.87 2802.61 1233.2C2798.34 1234.53 2793.41 1236.67 2787.81 1239.6C2782.21 1242.53 2775.41 1246.53 2767.41 1251.6L2764.21 1218.8C2777.01 1206.27 2789.54 1196.93 2801.81 1190.8C2814.34 1184.4 2827.67 1181.2 2841.81 1181.2ZM2638.61 1186.4L2644.61 1225.6L2650.61 1230.8V1384H2591.41V1186.4H2638.61ZM2718.61 1181.2C2736.21 1181.2 2749.54 1185.87 2758.61 1195.2C2767.94 1204.27 2772.61 1217.87 2772.61 1236V1384H2715.81V1254.4C2715.81 1245.87 2713.94 1239.87 2710.21 1236.4C2706.74 1232.93 2701.27 1231.2 2693.81 1231.2C2689.27 1231.2 2684.74 1231.87 2680.21 1233.2C2675.94 1234.27 2670.87 1236.27 2665.01 1239.2C2659.41 1242.13 2652.47 1246.27 2644.21 1251.6L2640.61 1218.8C2653.67 1206.27 2666.34 1196.93 2678.61 1190.8C2690.87 1184.4 2704.21 1181.2 2718.61 1181.2ZM3004.15 1186.4V1384H2945.35V1186.4H3004.15ZM2987.75 1099.2C2999.48 1099.2 3005.35 1105.2 3005.35 1117.2V1138.4C3005.35 1150.4 2999.48 1156.4 2987.75 1156.4H2962.15C2950.42 1156.4 2944.55 1150.4 2944.55 1138.4V1117.2C2944.55 1105.2 2950.42 1099.2 2962.15 1099.2H2987.75ZM3191.9 1181.2C3229.23 1181.2 3247.9 1199.47 3247.9 1236V1384H3188.7V1254.4C3188.7 1245.6 3187.1 1239.6 3183.9 1236.4C3180.7 1232.93 3175.23 1231.2 3167.5 1231.2C3158.96 1231.2 3150.16 1232.93 3141.1 1236.4C3132.03 1239.6 3120.83 1244.67 3107.5 1251.6L3104.7 1218.4C3118.83 1206.4 3133.23 1197.2 3147.9 1190.8C3162.83 1184.4 3177.5 1181.2 3191.9 1181.2ZM3101.9 1186.4L3108.7 1225.6L3113.5 1230.8V1384H3054.3V1186.4H3101.9ZM3398.93 1181.2C3415.46 1181.2 3429.46 1183.47 3440.93 1188C3452.4 1192.27 3461.06 1199.73 3466.93 1210.4C3473.06 1220.8 3476.13 1235.2 3476.13 1253.6V1384H3428.93L3420.53 1341.2L3416.53 1335.2V1253.2C3416.53 1243.87 3414.26 1237.07 3409.73 1232.8C3405.46 1228.53 3397.2 1226.4 3384.93 1226.4C3374.8 1226.4 3362.13 1226.8 3346.93 1227.6C3331.73 1228.13 3316.13 1228.93 3300.13 1230L3294.53 1190.8C3304.13 1188.93 3315.2 1187.33 3327.73 1186C3340.26 1184.67 3352.8 1183.6 3365.33 1182.8C3377.86 1181.73 3389.06 1181.2 3398.93 1181.2ZM3451.73 1262.4L3451.33 1295.6L3363.33 1296C3356.13 1296 3350.93 1297.73 3347.73 1301.2C3344.8 1304.67 3343.33 1309.33 3343.33 1315.2V1324.8C3343.33 1331.47 3345.2 1336.67 3348.93 1340.4C3352.66 1343.87 3358.66 1345.6 3366.93 1345.6C3373.86 1345.6 3381.33 1344.13 3389.33 1341.2C3397.6 1338.27 3405.73 1334.13 3413.73 1328.8C3421.73 1323.47 3428.8 1317.2 3434.93 1310V1335.6C3432.53 1339.6 3428.93 1344.67 3424.13 1350.8C3419.6 1356.67 3413.73 1362.53 3406.53 1368.4C3399.33 1374 3390.93 1378.8 3381.33 1382.8C3371.73 1386.8 3360.8 1388.8 3348.53 1388.8C3336.53 1388.8 3325.73 1386.67 3316.13 1382.4C3306.53 1378.13 3298.93 1371.87 3293.33 1363.6C3287.73 1355.33 3284.93 1345.07 3284.93 1332.8V1312.4C3284.93 1296.67 3290.26 1284.4 3300.93 1275.6C3311.6 1266.8 3326.26 1262.4 3344.93 1262.4H3451.73ZM3599.86 1131.6V1320.8C3599.86 1328 3601.46 1333.2 3604.66 1336.4C3608.12 1339.33 3613.72 1340.8 3621.46 1340.8H3647.06L3653.46 1380.8C3648.66 1382.4 3642.79 1383.73 3635.86 1384.8C3628.92 1386.13 3621.99 1387.07 3615.06 1387.6C3608.12 1388.4 3602.26 1388.8 3597.46 1388.8C3579.59 1388.8 3565.59 1384 3555.46 1374.4C3545.59 1364.8 3540.66 1351.33 3540.66 1334L3540.26 1131.6H3599.86ZM3655.06 1186.4V1225.2H3505.86V1188.4L3544.26 1186.4H3655.06ZM3747.12 1186.4V1384H3688.32V1186.4H3747.12ZM3730.72 1099.2C3742.45 1099.2 3748.32 1105.2 3748.32 1117.2V1138.4C3748.32 1150.4 3742.45 1156.4 3730.72 1156.4H3705.12C3693.39 1156.4 3687.52 1150.4 3687.52 1138.4V1117.2C3687.52 1105.2 3693.39 1099.2 3705.12 1099.2H3730.72ZM3934.87 1181.2C3972.2 1181.2 3990.87 1199.47 3990.87 1236V1384H3931.67V1254.4C3931.67 1245.6 3930.07 1239.6 3926.87 1236.4C3923.67 1232.93 3918.2 1231.2 3910.47 1231.2C3901.93 1231.2 3893.13 1232.93 3884.07 1236.4C3875 1239.6 3863.8 1244.67 3850.47 1251.6L3847.67 1218.4C3861.8 1206.4 3876.2 1197.2 3890.87 1190.8C3905.8 1184.4 3920.47 1181.2 3934.87 1181.2ZM3844.87 1186.4L3851.67 1225.6L3856.47 1230.8V1384H3797.27V1186.4H3844.87ZM4125.5 1181.2C4148.43 1181.2 4166.57 1183.33 4179.9 1187.6C4193.5 1191.87 4203.23 1198.53 4209.1 1207.6C4215.23 1216.67 4218.3 1228.8 4218.3 1244C4218.3 1258.67 4215.37 1270.67 4209.5 1280C4203.63 1289.07 4193.77 1295.73 4179.9 1300C4166.3 1304.27 4148.03 1306.4 4125.1 1306.4C4102.17 1306.4 4083.77 1304.27 4069.9 1300C4056.3 1295.73 4046.43 1289.07 4040.3 1280C4034.43 1270.93 4031.5 1258.93 4031.5 1244C4031.5 1229.07 4034.43 1217.07 4040.3 1208C4046.43 1198.67 4056.43 1191.87 4070.3 1187.6C4084.17 1183.33 4102.57 1181.2 4125.5 1181.2ZM4125.1 1217.6C4110.43 1217.6 4100.3 1219.6 4094.7 1223.6C4089.1 1227.33 4086.3 1234.13 4086.3 1244C4086.3 1253.87 4089.1 1260.8 4094.7 1264.8C4100.3 1268.8 4110.43 1270.8 4125.1 1270.8C4139.77 1270.8 4149.77 1268.8 4155.1 1264.8C4160.43 1260.8 4163.1 1253.87 4163.1 1244C4163.1 1234.13 4160.43 1227.33 4155.1 1223.6C4149.77 1219.6 4139.77 1217.6 4125.1 1217.6ZM4241.1 1186.4L4237.9 1211.6L4185.1 1218.4L4170.7 1186.4H4241.1ZM4065.5 1294.4L4095.1 1299.6C4091.37 1301.73 4088.7 1305.07 4087.1 1309.6C4085.77 1314.13 4086.17 1318.4 4088.3 1322.4C4090.43 1326.4 4095.1 1328.8 4102.3 1329.6L4175.1 1338C4195.9 1340.13 4210.57 1346 4219.1 1355.6C4227.63 1364.93 4231.9 1378.67 4231.9 1396.8C4231.9 1413.87 4228.43 1426.93 4221.5 1436C4214.57 1445.33 4203.5 1451.73 4188.3 1455.2C4173.1 1458.67 4152.83 1460.4 4127.5 1460.4C4106.7 1460.4 4089.5 1459.33 4075.9 1457.2C4062.57 1455.33 4051.9 1452.13 4043.9 1447.6C4036.17 1443.07 4030.7 1437.07 4027.5 1429.6C4024.57 1422.4 4023.1 1413.33 4023.1 1402.4C4023.1 1394.13 4024.57 1387.07 4027.5 1381.2C4030.43 1375.07 4035.37 1369.6 4042.3 1364.8C4049.5 1360 4059.5 1355.6 4072.3 1351.6L4101.5 1341.2L4122.7 1349.6L4106.7 1360C4100.03 1364.8 4094.57 1368.93 4090.3 1372.4C4086.3 1375.6 4083.37 1378.8 4081.5 1382C4079.9 1385.2 4079.1 1389.47 4079.1 1394.8C4079.1 1400.93 4080.43 1405.6 4083.1 1408.8C4085.77 1412.27 4090.57 1414.53 4097.5 1415.6C4104.7 1416.93 4114.43 1417.6 4126.7 1417.6C4139.5 1417.6 4149.5 1416.93 4156.7 1415.6C4163.9 1414.53 4168.83 1412.4 4171.5 1409.2C4174.43 1406 4175.9 1401.47 4175.9 1395.6C4175.9 1390.53 4174.83 1386.8 4172.7 1384.4C4170.83 1382 4167.5 1380.27 4162.7 1379.2C4158.17 1377.87 4151.77 1376.67 4143.5 1375.6L4081.5 1368.8C4071.1 1367.73 4062.97 1364.93 4057.1 1360.4C4051.23 1355.87 4047.1 1350.4 4044.7 1344C4042.57 1337.33 4042.03 1330.67 4043.1 1324C4044.17 1317.33 4046.57 1311.33 4050.3 1306C4054.3 1300.67 4059.37 1296.8 4065.5 1294.4ZM4426.81 1131.6V1320.8C4426.81 1328 4428.41 1333.2 4431.61 1336.4C4435.08 1339.33 4440.68 1340.8 4448.41 1340.8H4474.01L4480.41 1380.8C4475.61 1382.4 4469.74 1383.73 4462.81 1384.8C4455.88 1386.13 4448.94 1387.07 4442.01 1387.6C4435.08 1388.4 4429.21 1388.8 4424.41 1388.8C4406.54 1388.8 4392.54 1384 4382.41 1374.4C4372.54 1364.8 4367.61 1351.33 4367.61 1334L4367.21 1131.6H4426.81ZM4482.01 1186.4V1225.2H4332.81V1188.4L4371.21 1186.4H4482.01ZM4651.27 1181.2C4688.61 1181.2 4707.27 1199.47 4707.27 1236V1384H4647.67V1254.4C4647.67 1245.6 4646.07 1239.6 4642.87 1236.4C4639.94 1232.93 4634.61 1231.2 4626.87 1231.2C4618.34 1231.2 4609.54 1232.8 4600.47 1236C4591.41 1239.2 4580.21 1244.4 4566.87 1251.6L4561.67 1220.8C4576.34 1208 4591.27 1198.27 4606.47 1191.6C4621.67 1184.67 4636.61 1181.2 4651.27 1181.2ZM4572.87 1104L4573.27 1172.4C4573.27 1182.8 4572.61 1192.67 4571.27 1202C4570.21 1211.33 4568.87 1219.2 4567.27 1225.6L4572.87 1230.8V1384H4513.67V1104H4572.87ZM4847.51 1181.2C4880.84 1181.2 4904.71 1186.93 4919.11 1198.4C4933.77 1209.6 4941.11 1226.4 4941.11 1248.8C4941.37 1266.93 4936.84 1280.53 4927.51 1289.6C4918.17 1298.4 4902.04 1302.8 4879.11 1302.8H4768.71V1269.6H4862.71C4871.77 1269.6 4877.51 1267.73 4879.91 1264C4882.57 1260 4883.91 1254.53 4883.91 1247.6C4883.64 1238.27 4880.84 1231.87 4875.51 1228.4C4870.44 1224.67 4861.77 1222.8 4849.51 1222.8C4838.57 1222.8 4830.04 1224.27 4823.91 1227.2C4817.77 1230.13 4813.51 1235.73 4811.11 1244C4808.71 1252.27 4807.51 1264.27 4807.51 1280C4807.51 1296.53 4808.97 1309.33 4811.91 1318.4C4814.84 1327.2 4819.77 1333.33 4826.71 1336.8C4833.91 1340.27 4843.77 1342 4856.31 1342C4865.37 1342 4876.57 1341.73 4889.91 1341.2C4903.51 1340.4 4917.11 1339.2 4930.71 1337.6L4936.31 1374C4928.57 1377.73 4919.77 1380.67 4909.91 1382.8C4900.04 1384.93 4889.91 1386.4 4879.51 1387.2C4869.11 1388.27 4859.11 1388.8 4849.51 1388.8C4824.44 1388.8 4804.17 1385.2 4788.71 1378C4773.51 1370.53 4762.44 1359.2 4755.51 1344C4748.84 1328.8 4745.51 1309.33 4745.51 1285.6C4745.51 1259.73 4748.97 1239.2 4755.91 1224C4762.84 1208.8 4773.77 1197.87 4788.71 1191.2C4803.64 1184.53 4823.24 1181.2 4847.51 1181.2ZM5160.82 1102.8C5174.42 1102.8 5189.22 1103.6 5205.22 1105.2C5221.22 1106.53 5236.82 1109.47 5252.02 1114L5248.02 1154.4C5236.28 1154.13 5222.55 1153.87 5206.82 1153.6C5191.08 1153.33 5175.62 1153.2 5160.42 1153.2C5152.95 1153.2 5146.55 1153.47 5141.22 1154C5136.15 1154.27 5132.02 1155.33 5128.82 1157.2C5125.62 1158.8 5123.35 1161.33 5122.02 1164.8C5120.68 1168.27 5120.02 1173.07 5120.02 1179.2C5120.02 1188.53 5122.15 1195.33 5126.42 1199.6C5130.95 1203.87 5138.55 1207.73 5149.22 1211.2L5202.42 1228.4C5224.55 1235.87 5239.88 1246 5248.42 1258.8C5256.95 1271.6 5261.22 1288.4 5261.22 1309.2C5261.22 1324.93 5259.35 1338 5255.62 1348.4C5251.88 1358.8 5246.02 1366.93 5238.02 1372.8C5230.02 1378.67 5219.48 1382.8 5206.42 1385.2C5193.35 1387.87 5177.35 1389.2 5158.42 1389.2C5149.35 1389.2 5136.42 1388.53 5119.62 1387.2C5102.82 1386.13 5083.62 1383.2 5062.02 1378.4L5066.02 1335.2C5081.75 1335.47 5095.35 1335.87 5106.82 1336.4C5118.55 1336.67 5128.55 1336.93 5136.82 1337.2C5145.08 1337.2 5152.28 1337.2 5158.42 1337.2C5169.08 1337.2 5177.35 1336.53 5183.22 1335.2C5189.35 1333.87 5193.62 1331.2 5196.02 1327.2C5198.42 1323.2 5199.62 1317.47 5199.62 1310C5199.62 1303.6 5198.68 1298.53 5196.82 1294.8C5195.22 1290.8 5192.42 1287.73 5188.42 1285.6C5184.68 1283.2 5179.48 1281.07 5172.82 1279.2L5116.82 1260C5095.75 1252.27 5080.82 1242.13 5072.02 1229.6C5063.22 1217.07 5058.82 1200.53 5058.82 1180C5058.82 1164 5060.68 1151.07 5064.42 1141.2C5068.42 1131.07 5074.42 1123.2 5082.42 1117.6C5090.68 1112 5101.22 1108.13 5114.02 1106C5127.08 1103.87 5142.68 1102.8 5160.82 1102.8ZM5437.99 1181.2C5475.32 1181.2 5493.99 1199.47 5493.99 1236V1384H5434.39V1254.4C5434.39 1245.6 5432.79 1239.6 5429.59 1236.4C5426.66 1232.93 5421.32 1231.2 5413.59 1231.2C5405.06 1231.2 5396.26 1232.8 5387.19 1236C5378.12 1239.2 5366.92 1244.4 5353.59 1251.6L5348.39 1220.8C5363.06 1208 5377.99 1198.27 5393.19 1191.6C5408.39 1184.67 5423.32 1181.2 5437.99 1181.2ZM5359.59 1104L5359.99 1172.4C5359.99 1182.8 5359.32 1192.67 5357.99 1202C5356.92 1211.33 5355.59 1219.2 5353.99 1225.6L5359.59 1230.8V1384H5300.39V1104H5359.59ZM5634.63 1181.2C5659.43 1181.2 5679.29 1184.67 5694.23 1191.6C5709.16 1198.27 5719.83 1209.2 5726.23 1224.4C5732.89 1239.6 5736.23 1260 5736.23 1285.6C5736.23 1310.67 5732.89 1330.8 5726.23 1346C5719.83 1361.2 5709.16 1372.13 5694.23 1378.8C5679.29 1385.47 5659.43 1388.8 5634.63 1388.8C5610.09 1388.8 5590.23 1385.47 5575.03 1378.8C5560.09 1372.13 5549.29 1361.2 5542.63 1346C5535.96 1330.8 5532.63 1310.67 5532.63 1285.6C5532.63 1260 5535.96 1239.6 5542.63 1224.4C5549.29 1209.2 5560.09 1198.27 5575.03 1191.6C5590.23 1184.67 5610.09 1181.2 5634.63 1181.2ZM5634.63 1224.4C5624.49 1224.4 5616.49 1226.13 5610.63 1229.6C5604.76 1233.07 5600.63 1239.2 5598.23 1248C5595.83 1256.8 5594.63 1269.33 5594.63 1285.6C5594.63 1301.6 5595.83 1314 5598.23 1322.8C5600.63 1331.6 5604.76 1337.73 5610.63 1341.2C5616.49 1344.4 5624.49 1346 5634.63 1346C5644.76 1346 5652.76 1344.4 5658.63 1341.2C5664.49 1337.73 5668.63 1331.6 5671.03 1322.8C5673.43 1314 5674.63 1301.6 5674.63 1285.6C5674.63 1269.33 5673.43 1256.8 5671.03 1248C5668.63 1239.2 5664.49 1233.07 5658.63 1229.6C5652.76 1226.13 5644.76 1224.4 5634.63 1224.4ZM6084.21 1186.4L6035.41 1368.4C6034.34 1373.2 6031.94 1377.07 6028.21 1380C6024.48 1382.67 6020.08 1384 6015.01 1384H5970.21C5964.88 1384 5960.21 1382.4 5956.21 1379.2C5952.21 1375.73 5949.81 1371.33 5949.01 1366L5927.41 1254.8C5926.61 1249.2 5925.94 1243.73 5925.41 1238.4C5924.88 1232.8 5924.08 1227.2 5923.01 1221.6H5918.21C5917.41 1227.2 5916.61 1232.8 5915.81 1238.4C5915.01 1243.73 5914.21 1249.2 5913.41 1254.8L5891.81 1366C5891.01 1371.33 5888.61 1375.73 5884.61 1379.2C5880.61 1382.4 5875.94 1384 5870.61 1384H5826.21C5821.14 1384 5816.74 1382.67 5813.01 1380C5809.28 1377.07 5806.88 1373.2 5805.81 1368.4L5757.01 1186.4H5816.61L5843.81 1314.4C5844.88 1319.73 5845.81 1325.2 5846.61 1330.8C5847.41 1336.13 5848.08 1341.47 5848.61 1346.8H5853.81C5854.61 1341.47 5855.41 1336.13 5856.21 1330.8C5857.28 1325.2 5858.21 1319.73 5859.01 1314.4L5880.61 1204.4C5881.41 1199.07 5883.68 1194.8 5887.41 1191.6C5891.14 1188.13 5895.81 1186.4 5901.41 1186.4H5939.81C5945.14 1186.4 5949.68 1188.13 5953.41 1191.6C5957.41 1194.8 5959.81 1199.2 5960.61 1204.8L5981.81 1314.4C5982.61 1319.73 5983.54 1325.07 5984.61 1330.4C5985.68 1335.73 5986.61 1341.2 5987.41 1346.8H5992.21C5993.28 1341.2 5994.08 1335.87 5994.61 1330.8C5995.41 1325.47 5996.34 1320 5997.41 1314.4L6024.61 1186.4H6084.21Z" fill="#AB87FF"/>
<path d="M2125.2 484.5V933H1985.45V484.5H2125.2ZM2389.29 475.4C2427.85 475.4 2460.35 479.083 2486.79 486.45C2513.65 493.383 2535.32 505.517 2551.79 522.85C2568.25 540.183 2580.17 564.017 2587.54 594.35C2594.9 624.25 2598.59 662.383 2598.59 708.75C2598.59 754.683 2594.9 792.817 2587.54 823.15C2580.17 853.483 2568.25 877.317 2551.79 894.65C2535.32 911.983 2513.65 924.333 2486.79 931.7C2460.35 938.633 2427.85 942.1 2389.29 942.1C2351.15 942.1 2318.65 938.633 2291.79 931.7C2265.35 924.333 2243.9 911.983 2227.44 894.65C2210.97 877.317 2199.05 853.483 2191.69 823.15C2184.32 792.817 2180.64 754.683 2180.64 708.75C2180.64 662.383 2184.32 624.25 2191.69 594.35C2199.05 564.017 2210.97 540.183 2227.44 522.85C2243.9 505.517 2265.35 493.383 2291.79 486.45C2318.65 479.083 2351.15 475.4 2389.29 475.4ZM2389.29 580.05C2373.25 580.05 2360.9 583.517 2352.24 590.45C2343.57 597.383 2337.5 610.167 2334.04 628.8C2330.57 647.433 2328.84 674.083 2328.84 708.75C2328.84 743.417 2330.57 770.067 2334.04 788.7C2337.5 807.333 2343.57 820.117 2352.24 827.05C2360.9 833.983 2373.25 837.45 2389.29 837.45C2405.32 837.45 2417.67 833.983 2426.34 827.05C2435 820.117 2441.07 807.333 2444.54 788.7C2448 770.067 2449.74 743.417 2449.74 708.75C2449.74 674.083 2448 647.433 2444.54 628.8C2441.07 610.167 2435 597.383 2426.34 590.45C2417.67 583.517 2405.32 580.05 2389.29 580.05ZM3065.96 484.5V884.25C3065.96 916.75 3049.71 933 3017.21 933H2963.26C2948.52 933 2937.47 929.533 2930.11 922.6C2923.17 915.667 2916.02 905.483 2908.66 892.05L2811.16 738C2805.09 726.733 2799.46 714.6 2794.26 701.6C2789.49 688.167 2785.16 674.733 2781.26 661.3H2776.71C2778.87 674.733 2780.39 688.6 2781.26 702.9C2782.56 716.767 2783.21 730.2 2783.21 743.2V933H2653.21V533.25C2653.21 500.75 2669.46 484.5 2701.96 484.5H2755.91C2770.64 484.5 2781.47 487.967 2788.41 494.9C2795.34 501.833 2802.71 512.017 2810.51 525.45L2904.11 672.35C2910.17 683.183 2916.02 695.1 2921.66 708.1C2927.72 721.1 2933.36 734.75 2938.56 749.05H2943.11C2941.37 735.183 2939.86 721.533 2938.56 708.1C2937.69 694.667 2937.26 681.233 2937.26 667.8L2936.61 484.5H3065.96ZM3371.62 481.9C3397.62 481.9 3424.27 482.117 3451.57 482.55C3479.3 482.55 3506.38 483.2 3532.82 484.5C3559.25 485.367 3583.3 487.317 3604.97 490.35L3598.47 589.8H3434.02C3425.78 589.8 3419.28 591.967 3414.52 596.3C3409.75 600.633 3407.37 606.267 3407.37 613.2V804.3C3407.37 811.233 3409.75 816.867 3414.52 821.2C3419.28 825.533 3425.78 827.7 3434.02 827.7H3598.47L3604.97 927.15C3583.3 929.75 3559.25 931.7 3532.82 933C3506.38 934.3 3479.3 934.95 3451.57 934.95C3424.27 935.383 3397.62 935.6 3371.62 935.6C3340.85 935.6 3315.5 926.283 3295.57 907.65C3276.07 888.583 3266.32 863.883 3266.32 833.55V583.95C3266.32 553.617 3276.07 529.133 3295.57 510.5C3315.5 491.433 3340.85 481.9 3371.62 481.9ZM3278.02 656.75H3575.07V750.35H3278.02V656.75ZM4069.52 484.5V884.25C4069.52 916.75 4053.27 933 4020.77 933H3966.82C3952.09 933 3941.04 929.533 3933.67 922.6C3926.74 915.667 3919.59 905.483 3912.22 892.05L3814.72 738C3808.66 726.733 3803.02 714.6 3797.82 701.6C3793.06 688.167 3788.72 674.733 3784.82 661.3H3780.27C3782.44 674.733 3783.96 688.6 3784.82 702.9C3786.12 716.767 3786.77 730.2 3786.77 743.2V933H3656.77V533.25C3656.77 500.75 3673.02 484.5 3705.52 484.5H3759.47C3774.21 484.5 3785.04 487.967 3791.97 494.9C3798.91 501.833 3806.27 512.017 3814.07 525.45L3907.67 672.35C3913.74 683.183 3919.59 695.1 3925.22 708.1C3931.29 721.1 3936.92 734.75 3942.12 749.05H3946.67C3944.94 735.183 3943.42 721.533 3942.12 708.1C3941.26 694.667 3940.82 681.233 3940.82 667.8L3940.17 484.5H4069.52ZM4375.86 484.5V933H4234.81V484.5H4375.86ZM4501.31 484.5V589.8H4109.36V484.5H4501.31ZM4643.69 481.9C4669.69 481.9 4696.34 482.117 4723.64 482.55C4751.37 482.55 4778.45 483.2 4804.89 484.5C4831.32 485.367 4855.37 487.317 4877.04 490.35L4870.54 589.8H4706.09C4697.85 589.8 4691.35 591.967 4686.59 596.3C4681.82 600.633 4679.44 606.267 4679.44 613.2V804.3C4679.44 811.233 4681.82 816.867 4686.59 821.2C4691.35 825.533 4697.85 827.7 4706.09 827.7H4870.54L4877.04 927.15C4855.37 929.75 4831.32 931.7 4804.89 933C4778.45 934.3 4751.37 934.95 4723.64 934.95C4696.34 935.383 4669.69 935.6 4643.69 935.6C4612.92 935.6 4587.57 926.283 4567.64 907.65C4548.14 888.583 4538.39 863.883 4538.39 833.55V583.95C4538.39 553.617 4548.14 529.133 4567.64 510.5C4587.57 491.433 4612.92 481.9 4643.69 481.9ZM4550.09 656.75H4847.14V750.35H4550.09V656.75ZM5119.29 478C5163.49 478 5199.46 482.117 5227.19 490.35C5254.93 498.583 5275.29 512.667 5288.29 532.6C5301.73 552.1 5308.44 579.4 5308.44 614.5C5308.44 632.267 5305.63 648.95 5299.99 664.55C5294.79 679.717 5285.48 692.283 5272.04 702.25C5259.04 712.217 5240.84 718.5 5217.44 721.1V725C5225.68 725.867 5234.78 728.467 5244.74 732.8C5254.71 736.7 5264.03 743.633 5272.69 753.6C5281.36 763.133 5287.43 777 5290.89 795.2L5325.99 933H5178.44L5149.19 799.75C5146.59 787.183 5142.48 778.95 5136.84 775.05C5131.64 771.15 5122.98 769.2 5110.84 769.2C5078.34 768.767 5051.69 768.55 5030.89 768.55C5010.53 768.55 4993.19 768.333 4978.89 767.9C4964.59 767.467 4950.29 766.817 4935.99 765.95L4937.94 669.75H5116.04C5129.48 669.75 5139.88 668.45 5147.24 665.85C5154.61 663.25 5159.59 658.7 5162.19 652.2C5165.23 645.267 5166.74 635.733 5166.74 623.6C5166.74 611.033 5165.23 601.5 5162.19 595C5159.59 588.5 5154.61 583.95 5147.24 581.35C5139.88 578.75 5129.48 577.45 5116.04 577.45C5070.98 577.45 5033.06 577.667 5002.29 578.1C4971.53 578.533 4950.51 579.4 4939.24 580.7L4928.84 484.5C4948.78 482.333 4967.41 480.817 4984.74 479.95C5002.51 479.083 5021.79 478.65 5042.59 478.65C5063.83 478.217 5089.39 478 5119.29 478ZM5067.29 484.5V933H4928.84V484.5H5067.29ZM5604.13 484.5V933H5463.08V484.5H5604.13ZM5729.58 484.5V589.8H5337.63V484.5H5729.58ZM5984.66 484.5C5995.92 484.5 6005.89 487.75 6014.56 494.25C6023.22 500.75 6029.07 509.633 6032.11 520.9L6148.46 933H6004.81L5937.21 641.15C5935.47 632.917 5933.96 624.467 5932.66 615.8C5931.36 606.7 5930.27 598.033 5929.41 589.8H5911.86C5910.99 598.033 5909.91 606.7 5908.61 615.8C5907.31 624.467 5905.79 632.917 5904.06 641.15L5836.46 933H5692.81L5809.16 520.9C5812.19 509.633 5818.04 500.75 5826.71 494.25C5835.37 487.75 5845.34 484.5 5856.61 484.5H5984.66ZM6039.91 737.35V836.15H5801.36V737.35H6039.91ZM6316.56 484.5V933H6176.81V484.5H6316.56ZM6797.75 484.5V884.25C6797.75 916.75 6781.5 933 6749 933H6695.05C6680.31 933 6669.26 929.533 6661.9 922.6C6654.96 915.667 6647.81 905.483 6640.45 892.05L6542.95 738C6536.88 726.733 6531.25 714.6 6526.05 701.6C6521.28 688.167 6516.95 674.733 6513.05 661.3H6508.5C6510.66 674.733 6512.18 688.6 6513.05 702.9C6514.35 716.767 6515 730.2 6515 743.2V933H6385V533.25C6385 500.75 6401.25 484.5 6433.75 484.5H6487.7C6502.43 484.5 6513.26 487.967 6520.2 494.9C6527.13 501.833 6534.5 512.017 6542.3 525.45L6635.9 672.35C6641.96 683.183 6647.81 695.1 6653.45 708.1C6659.51 721.1 6665.15 734.75 6670.35 749.05H6674.9C6673.16 735.183 6671.65 721.533 6670.35 708.1C6669.48 694.667 6669.05 681.233 6669.05 667.8L6668.4 484.5H6797.75ZM7358.88 484.5C7390.51 484.5 7406.98 500.75 7408.28 533.25L7423.88 933H7297.13L7283.48 589.8H7273.73L7229.53 818.6C7225.19 847.2 7207.43 861.5 7176.23 861.5H7103.43C7072.66 861.5 7054.68 847.2 7049.48 818.6L7004.63 589.8H6994.88L6983.83 933H6857.08L6872.68 533.25C6873.98 500.75 6890.44 484.5 6922.08 484.5H7043.63C7073.96 484.5 7091.73 499.017 7096.93 528.05L7129.43 706.15C7131.16 716.983 7132.46 728.033 7133.33 739.3C7134.63 750.567 7135.71 761.833 7136.58 773.1H7142.43C7143.73 761.833 7144.81 750.567 7145.68 739.3C7146.98 728.033 7148.49 716.983 7150.23 706.15L7180.78 528.05C7185.98 499.017 7203.96 484.5 7234.73 484.5H7358.88ZM7585.82 481.9C7611.82 481.9 7638.47 482.117 7665.77 482.55C7693.51 482.55 7720.59 483.2 7747.02 484.5C7773.46 485.367 7797.51 487.317 7819.17 490.35L7812.67 589.8H7648.22C7639.99 589.8 7633.49 591.967 7628.72 596.3C7623.96 600.633 7621.57 606.267 7621.57 613.2V804.3C7621.57 811.233 7623.96 816.867 7628.72 821.2C7633.49 825.533 7639.99 827.7 7648.22 827.7H7812.67L7819.17 927.15C7797.51 929.75 7773.46 931.7 7747.02 933C7720.59 934.3 7693.51 934.95 7665.77 934.95C7638.47 935.383 7611.82 935.6 7585.82 935.6C7555.06 935.6 7529.71 926.283 7509.77 907.65C7490.27 888.583 7480.52 863.883 7480.52 833.55V583.95C7480.52 553.617 7490.27 529.133 7509.77 510.5C7529.71 491.433 7555.06 481.9 7585.82 481.9ZM7492.22 656.75H7789.27V750.35H7492.22V656.75ZM8283.73 484.5V884.25C8283.73 916.75 8267.48 933 8234.98 933H8181.03C8166.3 933 8155.25 929.533 8147.88 922.6C8140.95 915.667 8133.8 905.483 8126.43 892.05L8028.93 738C8022.86 726.733 8017.23 714.6 8012.03 701.6C8007.26 688.167 8002.93 674.733 7999.03 661.3H7994.48C7996.65 674.733 7998.16 688.6 7999.03 702.9C8000.33 716.767 8000.98 730.2 8000.98 743.2V933H7870.98V533.25C7870.98 500.75 7887.23 484.5 7919.73 484.5H7973.68C7988.41 484.5 7999.25 487.967 8006.18 494.9C8013.11 501.833 8020.48 512.017 8028.28 525.45L8121.88 672.35C8127.95 683.183 8133.8 695.1 8139.43 708.1C8145.5 721.1 8151.13 734.75 8156.33 749.05H8160.88C8159.15 735.183 8157.63 721.533 8156.33 708.1C8155.46 694.667 8155.03 681.233 8155.03 667.8L8154.38 484.5H8283.73ZM8590.06 484.5V933H8449.01V484.5H8590.06ZM8715.51 484.5V589.8H8323.56V484.5H8715.51Z" fill="#F2F5EA"/>
<rect x="50" y="50" width="1700" height="1700" rx="300" stroke="#F2F5EA" stroke-width="100"/>
<mask id="mask0_7_2979" style="mask-type:alpha" maskUnits="userSpaceOnUse" x="100" y="100" width="1600" height="1600">
<rect x="100" y="100" width="1600" height="1600" rx="250" fill="#F2F5EA"/>
</mask>
<g mask="url(#mask0_7_2979)">
<path d="M599.126 955.062C638.142 996.969 678.303 1038.6 719.358 1079.65L725.04 1085.32C844.433 1204.33 968.518 1315.69 1090.25 1413.21C1214.07 1512.39 1332.08 1594.55 1437.4 1655.52C1543.82 1717.13 1630.5 1753.16 1693.78 1766.87C1725.18 1773.68 1746.2 1773.95 1758.79 1772.12C1764.51 1771.28 1767.67 1770.17 1769.16 1769.48C1770.97 1765.71 1778.35 1746.78 1766.87 1693.78C1753.3 1631.16 1717.7 1544.8 1655.52 1437.41C1597.2 1336.68 1520.46 1225.92 1429.92 1111.28C1476.27 1060.64 1521.08 1009.59 1563.94 958.55C1669.56 1089.83 1759.94 1218.61 1828.6 1337.2C1895.8 1453.26 1942.54 1560.1 1962.33 1651.43C1980.85 1736.88 1981.58 1838.65 1912.56 1909.26L1910.92 1910.92C1840.75 1981.09 1738.71 1981.25 1651.42 1962.33C1559.29 1942.37 1452.07 1895.12 1337.2 1828.61C1221.23 1761.47 1094.88 1673.17 965.215 1569.3C837.437 1466.95 707.982 1350.7 583.845 1226.97L577.938 1221.07C540.598 1183.73 503.929 1145.9 468.104 1107.77C509.546 1057.05 553.375 1005.97 599.126 955.062ZM1221.07 577.942C1258.48 615.359 1295.15 653.19 1330.9 691.245C1289.46 741.964 1245.63 793.043 1199.88 843.951C1161.03 802.228 1120.89 760.605 1079.65 719.364L1221.07 577.942ZM-111.912 -111.907C-41.2414 -182.578 61.4599 -181.983 147.581 -163.32C238.914 -143.529 345.745 -96.7893 461.809 -29.5947C694.976 105.397 967.505 324.38 1221.07 577.942L1079.65 719.363C834.229 473.946 575.355 267.243 361.602 143.491C254.205 81.3142 167.847 45.7139 105.225 32.1436C52.2362 20.661 33.3036 28.0388 29.5283 29.8447C28.8395 31.3417 27.7257 34.4939 26.8926 40.2188C25.0608 52.8063 25.3344 73.8251 32.1396 105.229C45.8533 168.513 81.8785 255.193 143.486 361.606C201.003 460.953 277.363 571.589 369.079 687.732C322.731 738.369 277.928 789.419 235.06 840.464C233.271 838.24 231.486 836.017 229.705 833.794C125.836 704.129 37.5415 577.783 -29.5986 461.813C-96.1074 346.935 -143.358 239.722 -163.324 147.586C-182.24 60.2955 -182.076 -41.7436 -111.912 -111.907Z" fill="#AB87FF"/>
<path d="M691.24 468.108C741.64 509.289 792.723 553.092 843.949 599.128C802.041 638.144 760.415 678.306 719.358 719.362C598.224 840.497 484.865 966.589 385.798 1090.26C286.618 1214.07 204.463 1332.08 143.486 1437.41C81.8787 1543.82 45.8524 1630.5 32.1387 1693.78C25.3334 1725.19 25.0608 1746.21 26.8926 1758.79C27.7672 1764.8 28.953 1767.98 29.6299 1769.38C31.0307 1770.06 34.205 1771.24 40.2148 1772.12C52.8025 1773.95 73.8214 1773.67 105.226 1766.87C168.509 1753.16 255.188 1717.13 361.602 1655.52C460.948 1598.01 571.584 1521.64 687.728 1429.93C738.364 1476.28 789.415 1521.08 840.46 1563.95C838.236 1565.74 836.013 1567.52 833.79 1569.3C704.125 1673.17 577.779 1761.47 461.81 1828.61C346.931 1895.12 239.718 1942.37 147.582 1962.33C60.2915 1981.25 -41.7475 1981.08 -111.911 1910.92L-111.912 1910.92C-182.076 1840.76 -182.24 1738.72 -163.324 1651.43C-143.358 1559.29 -96.1073 1452.08 -29.5986 1337.2C37.5416 1221.23 125.836 1094.88 229.705 965.219C333.688 835.412 452.002 703.876 577.938 577.941C615.277 540.602 653.107 503.933 691.24 468.108ZM1651.42 -163.32C1738.71 -182.236 1840.75 -182.071 1910.92 -111.908H1910.92C1981.08 -41.7447 1981.25 60.2947 1962.33 147.585C1942.36 239.721 1895.11 346.934 1828.6 461.812C1761.46 577.782 1673.17 704.129 1569.3 833.794C1465.32 963.6 1347 1095.14 1221.07 1221.07C1183.73 1258.41 1145.9 1295.08 1107.76 1330.9C1057.05 1289.46 1005.97 1245.63 955.058 1199.88C996.965 1160.87 1038.59 1120.71 1079.65 1079.65C1200.78 958.516 1314.14 832.423 1413.21 708.754C1512.39 584.943 1594.54 466.929 1655.52 361.606C1717.13 255.193 1753.15 168.512 1766.87 105.229C1773.67 73.8242 1773.95 52.8054 1772.11 40.2178C1771.24 34.2084 1770.05 31.0346 1769.38 29.6338C1767.98 28.9568 1764.8 27.7712 1758.79 26.8965C1746.2 25.0647 1725.18 25.3383 1693.78 32.1436C1630.5 45.8572 1543.82 81.8824 1437.4 143.49C1338.06 201.007 1227.42 277.367 1111.28 369.083C1060.56 322.658 1009.51 277.862 958.545 235.063C960.769 233.274 962.993 231.49 965.216 229.709C1094.88 125.84 1221.23 37.5454 1337.2 -29.5947C1452.08 -96.1035 1559.29 -143.354 1651.42 -163.32Z" fill="#F2F5EA"/>
</g>
</svg>
