<svg width="2000" height="3050" viewBox="0 0 2000 3050" fill="none" xmlns="http://www.w3.org/2000/svg">
<path d="M169.618 2801C177.645 2801 185.743 2801.08 193.913 2801.22C202.083 2801.22 210.11 2801.36 217.993 2801.65C225.876 2801.94 233.258 2802.44 240.138 2803.15L238.633 2827.02H181.658C178.075 2827.02 175.351 2827.95 173.488 2829.81C171.768 2831.68 170.908 2834.4 170.908 2837.98V2913.66C170.908 2917.25 171.768 2919.97 173.488 2921.83C175.351 2923.7 178.075 2924.63 181.658 2924.63H238.633L240.138 2948.49C233.258 2949.07 225.876 2949.57 217.993 2950C210.11 2950.29 202.083 2950.43 193.913 2950.43C185.743 2950.57 177.645 2950.65 169.618 2950.65C160.158 2950.65 152.49 2947.92 146.613 2942.47C140.88 2936.88 138.013 2929.65 138.013 2920.76V2830.89C138.013 2821.86 140.88 2814.62 146.613 2809.17C152.49 2803.73 160.158 2801 169.618 2801ZM141.883 2861.2H230.678V2884.42H141.883V2861.2ZM388.945 2801.65V2938.17C388.945 2946.06 385.003 2950 377.12 2950H359.06C355.476 2950 352.753 2949.21 350.89 2947.63C349.026 2945.91 347.306 2943.41 345.73 2940.11L304.665 2862.28C302.945 2858.98 301.225 2855.33 299.505 2851.31C297.928 2847.3 296.566 2843.43 295.42 2839.7H293.055C293.485 2843.57 293.843 2847.52 294.13 2851.53C294.416 2855.4 294.56 2859.27 294.56 2863.14V2950H263.385V2813.47C263.385 2805.59 267.398 2801.65 275.425 2801.65H293.27C296.71 2801.65 299.29 2802.51 301.01 2804.23C302.873 2805.81 304.665 2808.24 306.385 2811.54L346.16 2887C347.88 2890.3 349.671 2893.96 351.535 2897.97C353.398 2901.98 355.19 2906.14 356.91 2910.44H359.49C359.06 2906.14 358.701 2901.98 358.415 2897.97C358.271 2893.81 358.2 2889.73 358.2 2885.71L357.985 2801.65H388.945ZM484.766 2801.65V2950H451.871V2801.65H484.766ZM529.486 2801.65V2827.45H407.366V2801.65H529.486ZM578.412 2801C586.439 2801 594.537 2801.08 602.707 2801.22C610.877 2801.22 618.904 2801.36 626.787 2801.65C634.67 2801.94 642.052 2802.44 648.932 2803.15L647.427 2827.02H590.452C586.869 2827.02 584.145 2827.95 582.282 2829.81C580.562 2831.68 579.702 2834.4 579.702 2837.98V2913.66C579.702 2917.25 580.562 2919.97 582.282 2921.83C584.145 2923.7 586.869 2924.63 590.452 2924.63H647.427L648.932 2948.49C642.052 2949.07 634.67 2949.57 626.787 2950C618.904 2950.29 610.877 2950.43 602.707 2950.43C594.537 2950.57 586.439 2950.65 578.412 2950.65C568.952 2950.65 561.284 2947.92 555.407 2942.47C549.674 2936.88 546.807 2929.65 546.807 2920.76V2830.89C546.807 2821.86 549.674 2814.62 555.407 2809.17C561.284 2803.73 568.952 2801 578.412 2801ZM550.677 2861.2H639.472V2884.42H550.677V2861.2ZM729.369 2799.5C742.412 2799.5 752.947 2800.86 760.974 2803.58C769.144 2806.16 775.092 2810.68 778.819 2817.13C782.689 2823.44 784.624 2832.25 784.624 2843.57C784.624 2850.45 783.692 2856.55 781.829 2861.85C780.109 2867.01 777.17 2871.17 773.014 2874.32C768.857 2877.47 763.195 2879.48 756.029 2880.34V2881.41C758.609 2881.84 761.26 2882.85 763.984 2884.42C766.85 2886 769.502 2888.37 771.939 2891.52C774.375 2894.53 776.167 2898.61 777.314 2903.77L790.214 2950H755.599L744.204 2904.85C742.914 2899.98 740.979 2896.61 738.399 2894.75C735.962 2892.88 732.522 2891.95 728.079 2891.95C718.332 2891.95 710.09 2891.95 703.354 2891.95C696.76 2891.81 691.17 2891.66 686.584 2891.52C682.14 2891.38 678.127 2891.23 674.544 2891.09L675.189 2867.22H728.724C734.457 2867.22 738.972 2866.65 742.269 2865.5C745.709 2864.21 748.074 2861.99 749.364 2858.84C750.797 2855.69 751.514 2851.31 751.514 2845.72C751.514 2839.99 750.797 2835.62 749.364 2832.61C748.074 2829.46 745.709 2827.31 742.269 2826.16C738.972 2824.87 734.457 2824.22 728.724 2824.22C715.25 2824.22 703.855 2824.3 694.539 2824.44C685.222 2824.58 678.844 2824.8 675.404 2825.08L672.179 2801.65C678.199 2800.93 683.86 2800.43 689.164 2800.14C694.467 2799.86 700.272 2799.71 706.579 2799.71C712.885 2799.57 720.482 2799.5 729.369 2799.5ZM704.644 2801.65V2950H672.179V2801.65H704.644ZM875.923 2801.65V2950H843.028V2801.65H875.923ZM920.643 2801.65V2827.45H798.523V2801.65H920.643ZM997.601 2801.65C1000.32 2801.65 1002.69 2802.44 1004.7 2804.01C1006.85 2805.59 1008.28 2807.67 1009 2810.25L1052 2950H1018.46L988.141 2840.99C987.568 2838.56 986.995 2836.12 986.421 2833.68C985.848 2831.1 985.346 2828.67 984.916 2826.37H979.111C978.681 2828.67 978.18 2831.1 977.606 2833.68C977.176 2836.12 976.603 2838.56 975.886 2840.99L945.571 2950H911.816L955.031 2810.25C955.748 2807.67 957.11 2805.59 959.116 2804.01C961.266 2802.44 963.703 2801.65 966.426 2801.65H997.601ZM1020.39 2886.14V2910.87H943.421V2886.14H1020.39ZM1100.01 2801.65V2950H1067.33V2801.65H1100.01ZM1255.45 2801.65V2938.17C1255.45 2946.06 1251.51 2950 1243.63 2950H1225.57C1221.99 2950 1219.26 2949.21 1217.4 2947.63C1215.54 2945.91 1213.82 2943.41 1212.24 2940.11L1171.17 2862.28C1169.45 2858.98 1167.73 2855.33 1166.01 2851.31C1164.44 2847.3 1163.08 2843.43 1161.93 2839.7H1159.56C1159.99 2843.57 1160.35 2847.52 1160.64 2851.53C1160.93 2855.4 1161.07 2859.27 1161.07 2863.14V2950H1129.89V2813.47C1129.89 2805.59 1133.91 2801.65 1141.93 2801.65H1159.78C1163.22 2801.65 1165.8 2802.51 1167.52 2804.23C1169.38 2805.81 1171.17 2808.24 1172.89 2811.54L1212.67 2887C1214.39 2890.3 1216.18 2893.96 1218.04 2897.97C1219.91 2901.98 1221.7 2906.14 1223.42 2910.44H1226C1225.57 2906.14 1225.21 2901.98 1224.92 2897.97C1224.78 2893.81 1224.71 2889.73 1224.71 2885.71L1224.49 2801.65H1255.45ZM1437.06 2801.65C1444.8 2801.65 1448.81 2805.66 1449.1 2813.69L1454.69 2950H1424.37L1419.43 2827.02H1415.56L1391.69 2919.47C1390.4 2926.35 1386.1 2929.79 1378.79 2929.79H1358.15C1350.84 2929.79 1346.4 2926.35 1344.82 2919.47L1320.96 2827.02H1317.3L1312.79 2950H1282.26L1287.85 2813.69C1288.14 2805.66 1292.22 2801.65 1300.1 2801.65H1330.85C1337.87 2801.65 1342.17 2805.16 1343.75 2812.18L1362.88 2886.79C1363.74 2890.23 1364.46 2893.74 1365.03 2897.32C1365.61 2900.76 1366.25 2904.28 1366.97 2907.86H1369.76C1370.48 2904.28 1371.13 2900.76 1371.7 2897.32C1372.42 2893.74 1373.13 2890.16 1373.85 2886.57L1392.77 2812.18C1394.2 2805.16 1398.5 2801.65 1405.67 2801.65H1437.06ZM1512.32 2801C1520.34 2801 1528.44 2801.08 1536.61 2801.22C1544.78 2801.22 1552.81 2801.36 1560.69 2801.65C1568.58 2801.94 1575.96 2802.44 1582.84 2803.15L1581.33 2827.02H1524.36C1520.77 2827.02 1518.05 2827.95 1516.19 2829.81C1514.47 2831.68 1513.61 2834.4 1513.61 2837.98V2913.66C1513.61 2917.25 1514.47 2919.97 1516.19 2921.83C1518.05 2923.7 1520.77 2924.63 1524.36 2924.63H1581.33L1582.84 2948.49C1575.96 2949.07 1568.58 2949.57 1560.69 2950C1552.81 2950.29 1544.78 2950.43 1536.61 2950.43C1528.44 2950.57 1520.34 2950.65 1512.32 2950.65C1502.86 2950.65 1495.19 2947.92 1489.31 2942.47C1483.58 2936.88 1480.71 2929.65 1480.71 2920.76V2830.89C1480.71 2821.86 1483.58 2814.62 1489.31 2809.17C1495.19 2803.73 1502.86 2801 1512.32 2801ZM1484.58 2861.2H1573.38V2884.42H1484.58V2861.2ZM1731.65 2801.65V2938.17C1731.65 2946.06 1727.7 2950 1719.82 2950H1701.76C1698.18 2950 1695.45 2949.21 1693.59 2947.63C1691.73 2945.91 1690.01 2943.41 1688.43 2940.11L1647.37 2862.28C1645.65 2858.98 1643.93 2855.33 1642.21 2851.31C1640.63 2847.3 1639.27 2843.43 1638.12 2839.7H1635.76C1636.19 2843.57 1636.54 2847.52 1636.83 2851.53C1637.12 2855.4 1637.26 2859.27 1637.26 2863.14V2950H1606.09V2813.47C1606.09 2805.59 1610.1 2801.65 1618.12 2801.65H1635.97C1639.41 2801.65 1641.99 2802.51 1643.71 2804.23C1645.57 2805.81 1647.37 2808.24 1649.09 2811.54L1688.86 2887C1690.58 2890.3 1692.37 2893.96 1694.24 2897.97C1696.1 2901.98 1697.89 2906.14 1699.61 2910.44H1702.19C1701.76 2906.14 1701.4 2901.98 1701.12 2897.97C1700.97 2893.81 1700.9 2889.73 1700.9 2885.71L1700.69 2801.65H1731.65ZM1827.47 2801.65V2950H1794.57V2801.65H1827.47ZM1872.19 2801.65V2827.45H1750.07V2801.65H1872.19Z" fill="#F2F5EA"/>
<path d="M353.934 1996.5V2721H128.184V1996.5H353.934ZM780.538 1981.8C842.838 1981.8 895.338 1987.75 938.038 1999.65C981.438 2010.85 1016.44 2030.45 1043.04 2058.45C1069.64 2086.45 1088.89 2124.95 1100.79 2173.95C1112.69 2222.25 1118.64 2283.85 1118.64 2358.75C1118.64 2432.95 1112.69 2494.55 1100.79 2543.55C1088.89 2592.55 1069.64 2631.05 1043.04 2659.05C1016.44 2687.05 981.438 2707 938.038 2718.9C895.338 2730.1 842.838 2735.7 780.538 2735.7C718.938 2735.7 666.438 2730.1 623.038 2718.9C580.338 2707 545.688 2687.05 519.088 2659.05C492.488 2631.05 473.238 2592.55 461.338 2543.55C449.438 2494.55 443.488 2432.95 443.488 2358.75C443.488 2283.85 449.438 2222.25 461.338 2173.95C473.238 2124.95 492.488 2086.45 519.088 2058.45C545.688 2030.45 580.338 2010.85 623.038 1999.65C666.438 1987.75 718.938 1981.8 780.538 1981.8ZM780.538 2150.85C754.638 2150.85 734.688 2156.45 720.688 2167.65C706.688 2178.85 696.888 2199.5 691.288 2229.6C685.688 2259.7 682.888 2302.75 682.888 2358.75C682.888 2414.75 685.688 2457.8 691.288 2487.9C696.888 2518 706.688 2538.65 720.688 2549.85C734.688 2561.05 754.638 2566.65 780.538 2566.65C806.438 2566.65 826.388 2561.05 840.388 2549.85C854.388 2538.65 864.188 2518 869.788 2487.9C875.388 2457.8 878.188 2414.75 878.188 2358.75C878.188 2302.75 875.388 2259.7 869.788 2229.6C864.188 2199.5 854.388 2178.85 840.388 2167.65C826.388 2156.45 806.438 2150.85 780.538 2150.85ZM1873.62 1996.5V2642.25C1873.62 2694.75 1847.37 2721 1794.87 2721H1707.72C1683.92 2721 1666.07 2715.4 1654.17 2704.2C1642.97 2693 1631.42 2676.55 1619.52 2654.85L1462.02 2406C1452.22 2387.8 1443.12 2368.2 1434.72 2347.2C1427.02 2325.5 1420.02 2303.8 1413.72 2282.1H1406.37C1409.87 2303.8 1412.32 2326.2 1413.72 2349.3C1415.82 2371.7 1416.87 2393.4 1416.87 2414.4V2721H1206.87V2075.25C1206.87 2022.75 1233.12 1996.5 1285.62 1996.5H1372.77C1396.57 1996.5 1414.07 2002.1 1425.27 2013.3C1436.47 2024.5 1448.37 2040.95 1460.97 2062.65L1612.17 2299.95C1621.97 2317.45 1631.42 2336.7 1640.52 2357.7C1650.32 2378.7 1659.42 2400.75 1667.82 2423.85H1675.17C1672.37 2401.45 1669.92 2379.4 1667.82 2357.7C1666.42 2336 1665.72 2314.3 1665.72 2292.6L1664.67 1996.5H1873.62Z" fill="#F2F5EA"/>
<rect x="150" y="150" width="1700" height="1700" rx="300" stroke="#F2F5EA" stroke-width="100"/>
<mask id="mask0_4_253" style="mask-type:alpha" maskUnits="userSpaceOnUse" x="200" y="200" width="1600" height="1600">
<rect x="200" y="200" width="1600" height="1600" rx="250" fill="#F2F5EA"/>
</mask>
<g mask="url(#mask0_4_253)">
<path d="M791.833 564.843C842.24 606.05 893.321 649.852 944.542 695.87C901.968 735.485 859.681 776.274 817.978 817.978C695.864 940.091 581.587 1067.2 481.716 1191.88C381.732 1316.69 298.901 1435.67 237.417 1541.87C175.302 1649.16 138.946 1736.61 125.099 1800.51C118.227 1832.22 117.937 1853.51 119.801 1866.32C120.746 1872.81 122.055 1876.11 122.752 1877.46C124.107 1878.16 127.4 1879.47 133.898 1880.42C146.708 1882.28 167.994 1881.99 199.706 1875.12C263.605 1861.27 351.054 1824.91 458.344 1762.8C558.86 1704.61 670.825 1627.29 788.35 1534.4C838.989 1580.74 890.037 1625.53 941.079 1668.41C938.511 1670.47 935.945 1672.54 933.379 1674.59C802.71 1779.27 675.396 1868.24 558.55 1935.88C442.795 2002.9 334.814 2050.48 242.062 2070.58C154.843 2089.48 53.2662 2089.4 -17.1025 2020.61L-18.7588 2018.97C-89.1832 1948.55 -89.4135 1846.06 -70.3643 1758.15C-50.2649 1665.4 -2.68514 1557.42 64.3311 1441.67C131.979 1324.82 220.948 1197.51 325.622 1066.84C430.409 936.026 549.642 803.47 676.556 676.556C714.542 638.57 753.034 601.272 791.833 564.843ZM1758.15 -70.363C1846.06 -89.4123 1948.55 -89.183 2018.97 -18.7585L2020.61 -17.1023C2089.4 53.2664 2089.48 154.843 2070.58 242.063C2050.48 334.814 2002.9 442.796 1935.88 558.551C1868.24 675.397 1779.27 802.711 1674.59 933.38C1569.81 1064.19 1450.57 1196.75 1323.66 1323.66C1285.67 1361.65 1247.18 1398.94 1208.38 1435.37C1157.66 1393.91 1106.58 1350.08 1055.68 1304.34C1098.25 1264.73 1140.54 1223.94 1182.24 1182.24C1304.35 1060.13 1418.63 933.013 1518.5 808.34C1618.48 683.526 1701.31 564.544 1762.8 458.344C1824.91 351.054 1861.27 263.606 1875.12 199.706C1881.99 167.995 1882.28 146.71 1880.42 133.9C1879.47 127.401 1878.16 124.109 1877.46 122.754C1876.11 122.057 1872.81 120.748 1866.32 119.802C1853.51 117.938 1832.22 118.228 1800.51 125.1C1736.61 138.947 1649.16 175.302 1541.87 237.417C1441.36 295.611 1329.39 372.928 1211.87 465.812C1161.14 419.403 1110.1 374.614 1059.14 331.807C1061.7 329.74 1064.27 327.679 1066.84 325.623C1197.51 220.95 1324.82 131.98 1441.67 64.3323C1557.42 -2.68377 1665.4 -50.2637 1758.15 -70.363Z" fill="#F2F5EA"/>
<path d="M675.15 1049.66C718.788 1096.92 763.895 1143.87 810.121 1190.1C932.501 1312.48 1059.92 1427.03 1184.93 1527.17C1310.07 1627.42 1429.52 1710.59 1536.31 1772.42C1644.07 1834.8 1732.66 1871.78 1798.16 1885.98C1867.89 1901.09 1885.25 1885.56 1885.41 1885.41C1885.69 1885.13 1901.03 1867.61 1885.98 1798.16C1871.93 1733.33 1835.38 1645.07 1772.42 1536.31C1710.26 1428.94 1627.54 1310.49 1529.73 1188.13C1570.71 1143.08 1610.45 1097.74 1648.67 1052.39C1759.9 1189.39 1854.85 1323.88 1926.27 1447.23C1993.7 1563.7 2040.14 1670.16 2059.72 1760.51C2078.3 1846.22 2077.9 1944.34 2011.12 2011.12C1944.83 2077.41 1847.35 2078.54 1760.51 2059.72C1669.36 2039.97 1562.52 1993.01 1447.23 1926.27C1330.98 1858.96 1204.13 1770.34 1073.79 1665.92C943.316 1561.41 811.061 1442.45 684.414 1315.8C641.49 1272.88 599.451 1229.31 558.557 1185.39C595.701 1140.27 634.672 1094.9 675.15 1049.66ZM-10.9004 -10.9014C55.8778 -77.6793 153.996 -78.0774 239.711 -59.5029C330.058 -39.9246 436.517 6.52087 552.984 73.9492C786.843 209.341 1060.72 429.327 1315.8 684.413C1358.84 727.444 1400.87 771.011 1441.66 814.829C1404.52 859.951 1365.55 905.313 1325.07 950.552C1281.64 903.513 1236.55 856.573 1190.1 810.121C942.251 562.275 680.514 353.203 463.911 227.802C355.148 164.834 266.888 128.289 202.061 114.241C132.622 99.1938 115.097 114.518 114.808 114.807C114.682 114.933 99.1175 132.268 114.241 202.06C128.436 267.562 165.415 356.151 227.803 463.911C289.101 569.791 371.384 688.108 470.483 812.083C429.503 857.133 389.767 902.477 351.548 947.822C345.755 940.688 340.003 933.558 334.296 926.434C229.883 796.09 141.254 669.238 73.9492 552.983C7.2054 437.699 -39.751 330.858 -59.5029 239.71C-78.3214 152.868 -77.1892 55.3875 -10.9004 -10.9014Z" fill="#F2F5EA"/>
</g>
</svg>
