<svg width="5050" height="1800" viewBox="0 0 5050 1800" fill="none" xmlns="http://www.w3.org/2000/svg">
<g clip-path="url(#clip0_2_294)">
<path d="M2065.13 1455.12C2079.13 1455.12 2093.25 1455.25 2107.5 1455.5C2121.75 1455.5 2135.75 1455.75 2149.5 1456.25C2163.25 1456.75 2176.13 1457.62 2188.13 1458.87L2185.5 1500.5H2086.13C2079.88 1500.5 2075.13 1502.12 2071.88 1505.37C2068.88 1508.62 2067.38 1513.37 2067.38 1519.62V1651.62C2067.38 1657.87 2068.88 1662.62 2071.88 1665.87C2075.13 1669.12 2079.88 1670.75 2086.13 1670.75H2185.5L2188.13 1712.37C2176.13 1713.37 2163.25 1714.25 2149.5 1715C2135.75 1715.5 2121.75 1715.75 2107.5 1715.75C2093.25 1716 2079.13 1716.13 2065.13 1716.13C2048.63 1716.13 2035.25 1711.37 2025 1701.87C2015 1692.12 2010 1679.5 2010 1664V1507.25C2010 1491.5 2015 1478.87 2025 1469.37C2035.25 1459.87 2048.63 1455.12 2065.13 1455.12ZM2016.75 1560.12H2171.63V1600.62H2016.75V1560.12ZM2447.67 1456.25V1694.37C2447.67 1708.12 2440.8 1715 2427.05 1715H2395.55C2389.3 1715 2384.55 1713.62 2381.3 1710.87C2378.05 1707.87 2375.05 1703.5 2372.3 1697.75L2300.67 1562C2297.67 1556.25 2294.67 1549.87 2291.67 1542.87C2288.92 1535.87 2286.55 1529.12 2284.55 1522.62H2280.42C2281.17 1529.37 2281.8 1536.25 2282.3 1543.25C2282.8 1550 2283.05 1556.75 2283.05 1563.5V1715H2228.67V1476.87C2228.67 1463.12 2235.67 1456.25 2249.67 1456.25H2280.8C2286.8 1456.25 2291.3 1457.75 2294.3 1460.75C2297.55 1463.5 2300.67 1467.75 2303.67 1473.5L2373.05 1605.12C2376.05 1610.87 2379.17 1617.25 2382.42 1624.25C2385.67 1631.25 2388.8 1638.5 2391.8 1646H2396.3C2395.55 1638.5 2394.92 1631.25 2394.42 1624.25C2394.17 1617 2394.05 1609.87 2394.05 1602.87L2393.67 1456.25H2447.67ZM2614.8 1456.25V1715H2557.43V1456.25H2614.8ZM2692.8 1456.25V1501.25H2479.8V1456.25H2692.8ZM2778.14 1455.12C2792.14 1455.12 2806.26 1455.25 2820.51 1455.5C2834.76 1455.5 2848.76 1455.75 2862.51 1456.25C2876.26 1456.75 2889.14 1457.62 2901.14 1458.87L2898.51 1500.5H2799.14C2792.89 1500.5 2788.14 1502.12 2784.89 1505.37C2781.89 1508.62 2780.39 1513.37 2780.39 1519.62V1651.62C2780.39 1657.87 2781.89 1662.62 2784.89 1665.87C2788.14 1669.12 2792.89 1670.75 2799.14 1670.75H2898.51L2901.14 1712.37C2889.14 1713.37 2876.26 1714.25 2862.51 1715C2848.76 1715.5 2834.76 1715.75 2820.51 1715.75C2806.26 1716 2792.14 1716.13 2778.14 1716.13C2761.64 1716.13 2748.26 1711.37 2738.01 1701.87C2728.01 1692.12 2723.01 1679.5 2723.01 1664V1507.25C2723.01 1491.5 2728.01 1478.87 2738.01 1469.37C2748.26 1459.87 2761.64 1455.12 2778.14 1455.12ZM2729.76 1560.12H2884.64V1600.62H2729.76V1560.12ZM3041.43 1452.5C3064.18 1452.5 3082.56 1454.87 3096.56 1459.62C3110.81 1464.12 3121.18 1472 3127.68 1483.25C3134.43 1494.25 3137.81 1509.62 3137.81 1529.37C3137.81 1541.37 3136.18 1552 3132.93 1561.25C3129.93 1570.25 3124.81 1577.5 3117.56 1583C3110.31 1588.5 3100.43 1592 3087.93 1593.5V1595.37C3092.43 1596.12 3097.06 1597.87 3101.81 1600.62C3106.81 1603.37 3111.43 1607.5 3115.68 1613C3119.93 1618.25 3123.06 1625.37 3125.06 1634.37L3147.56 1715H3087.18L3067.31 1636.25C3065.06 1627.75 3061.68 1621.87 3057.18 1618.63C3052.93 1615.37 3046.93 1613.75 3039.18 1613.75C3022.18 1613.75 3007.81 1613.75 2996.06 1613.75C2984.56 1613.5 2974.81 1613.25 2966.81 1613C2959.06 1612.75 2952.06 1612.5 2945.81 1612.25L2946.93 1570.62H3040.31C3050.31 1570.62 3058.18 1569.62 3063.93 1567.62C3069.93 1565.37 3074.06 1561.5 3076.31 1556C3078.81 1550.5 3080.06 1542.87 3080.06 1533.12C3080.06 1523.12 3078.81 1515.5 3076.31 1510.25C3074.06 1504.75 3069.93 1501 3063.93 1499C3058.18 1496.75 3050.31 1495.62 3040.31 1495.62C3016.81 1495.62 2996.93 1495.75 2980.68 1496C2964.43 1496.25 2953.31 1496.62 2947.31 1497.12L2941.68 1456.25C2952.18 1455 2962.06 1454.12 2971.31 1453.62C2980.56 1453.12 2990.68 1452.87 3001.68 1452.87C3012.68 1452.62 3025.93 1452.5 3041.43 1452.5ZM2998.31 1456.25V1715H2941.68V1456.25H2998.31ZM3297.05 1456.25V1715H3239.68V1456.25H3297.05ZM3375.05 1456.25V1501.25H3162.05V1456.25H3375.05ZM3509.28 1456.25C3514.03 1456.25 3518.16 1457.62 3521.66 1460.37C3525.41 1463.12 3527.91 1466.75 3529.16 1471.25L3604.16 1715H3545.66L3492.78 1524.87C3491.78 1520.62 3490.78 1516.37 3489.78 1512.12C3488.78 1507.62 3487.91 1503.37 3487.16 1499.37H3477.03C3476.28 1503.37 3475.41 1507.62 3474.41 1512.12C3473.66 1516.37 3472.66 1520.62 3471.41 1524.87L3418.53 1715H3359.66L3435.03 1471.25C3436.28 1466.75 3438.66 1463.12 3442.16 1460.37C3445.91 1457.62 3450.16 1456.25 3454.91 1456.25H3509.28ZM3549.03 1603.62V1646.75H3414.78V1603.62H3549.03ZM3687.9 1456.25V1715H3630.9V1456.25H3687.9ZM3959.02 1456.25V1694.37C3959.02 1708.12 3952.15 1715 3938.4 1715H3906.9C3900.65 1715 3895.9 1713.62 3892.65 1710.87C3889.4 1707.87 3886.4 1703.5 3883.65 1697.75L3812.02 1562C3809.02 1556.25 3806.02 1549.87 3803.02 1542.87C3800.27 1535.87 3797.9 1529.12 3795.9 1522.62H3791.77C3792.52 1529.37 3793.15 1536.25 3793.65 1543.25C3794.15 1550 3794.4 1556.75 3794.4 1563.5V1715H3740.02V1476.87C3740.02 1463.12 3747.02 1456.25 3761.02 1456.25H3792.15C3798.15 1456.25 3802.65 1457.75 3805.65 1460.75C3808.9 1463.5 3812.02 1467.75 3815.02 1473.5L3884.4 1605.12C3887.4 1610.87 3890.52 1617.25 3893.77 1624.25C3897.02 1631.25 3900.15 1638.5 3903.15 1646H3907.65C3906.9 1638.5 3906.27 1631.25 3905.77 1624.25C3905.52 1617 3905.4 1609.87 3905.4 1602.87L3905.02 1456.25H3959.02ZM4275.78 1456.25C4289.28 1456.25 4296.28 1463.25 4296.78 1477.25L4306.53 1715H4253.65L4245.03 1500.5H4238.28L4196.65 1661.75C4194.4 1673.75 4186.9 1679.75 4174.15 1679.75H4138.15C4125.4 1679.75 4117.65 1673.75 4114.9 1661.75L4073.28 1500.5H4066.9L4059.03 1715H4005.78L4015.53 1477.25C4016.03 1463.25 4023.15 1456.25 4036.9 1456.25H4090.53C4102.78 1456.25 4110.28 1462.37 4113.03 1474.62L4146.4 1604.75C4147.9 1610.75 4149.15 1616.87 4150.15 1623.12C4151.15 1629.12 4152.28 1635.25 4153.53 1641.5H4158.4C4159.65 1635.25 4160.78 1629.12 4161.78 1623.12C4163.03 1616.87 4164.28 1610.62 4165.53 1604.37L4198.53 1474.62C4201.03 1462.37 4208.53 1456.25 4221.03 1456.25H4275.78ZM4407.04 1455.12C4421.04 1455.12 4435.17 1455.25 4449.42 1455.5C4463.67 1455.5 4477.67 1455.75 4491.42 1456.25C4505.17 1456.75 4518.04 1457.62 4530.04 1458.87L4527.42 1500.5H4428.04C4421.79 1500.5 4417.04 1502.12 4413.79 1505.37C4410.79 1508.62 4409.29 1513.37 4409.29 1519.62V1651.62C4409.29 1657.87 4410.79 1662.62 4413.79 1665.87C4417.04 1669.12 4421.79 1670.75 4428.04 1670.75H4527.42L4530.04 1712.37C4518.04 1713.37 4505.17 1714.25 4491.42 1715C4477.67 1715.5 4463.67 1715.75 4449.42 1715.75C4435.17 1716 4421.04 1716.13 4407.04 1716.13C4390.54 1716.13 4377.17 1711.37 4366.92 1701.87C4356.92 1692.12 4351.92 1679.5 4351.92 1664V1507.25C4351.92 1491.5 4356.92 1478.87 4366.92 1469.37C4377.17 1459.87 4390.54 1455.12 4407.04 1455.12ZM4358.67 1560.12H4513.54V1600.62H4358.67V1560.12ZM4789.59 1456.25V1694.37C4789.59 1708.12 4782.72 1715 4768.97 1715H4737.47C4731.22 1715 4726.47 1713.62 4723.22 1710.87C4719.97 1707.87 4716.97 1703.5 4714.22 1697.75L4642.59 1562C4639.59 1556.25 4636.59 1549.87 4633.59 1542.87C4630.84 1535.87 4628.47 1529.12 4626.47 1522.62H4622.34C4623.09 1529.37 4623.72 1536.25 4624.22 1543.25C4624.72 1550 4624.97 1556.75 4624.97 1563.5V1715H4570.59V1476.87C4570.59 1463.12 4577.59 1456.25 4591.59 1456.25H4622.72C4628.72 1456.25 4633.22 1457.75 4636.22 1460.75C4639.47 1463.5 4642.59 1467.75 4645.59 1473.5L4714.97 1605.12C4717.97 1610.87 4721.09 1617.25 4724.34 1624.25C4727.59 1631.25 4730.72 1638.5 4733.72 1646H4738.22C4737.47 1638.5 4736.84 1631.25 4736.34 1624.25C4736.09 1617 4735.97 1609.87 4735.97 1602.87L4735.59 1456.25H4789.59ZM4956.72 1456.25V1715H4899.35V1456.25H4956.72ZM5034.72 1456.25V1501.25H4821.72V1456.25H5034.72Z" fill="#F2F5EA"/>
<path d="M2382.4 84.9999V1327H1995.4V84.9999H2382.4ZM3113.72 59.7999C3220.52 59.7999 3310.52 69.9999 3383.72 90.3999C3458.12 109.6 3518.12 143.2 3563.72 191.2C3609.32 239.2 3642.32 305.2 3662.72 389.2C3683.12 472 3693.32 577.6 3693.32 706C3693.32 833.2 3683.12 938.8 3662.72 1022.8C3642.32 1106.8 3609.32 1172.8 3563.72 1220.8C3518.12 1268.8 3458.12 1303 3383.72 1323.4C3310.52 1342.6 3220.52 1352.2 3113.72 1352.2C3008.12 1352.2 2918.12 1342.6 2843.72 1323.4C2770.52 1303 2711.12 1268.8 2665.52 1220.8C2619.92 1172.8 2586.92 1106.8 2566.52 1022.8C2546.12 938.8 2535.92 833.2 2535.92 706C2535.92 577.6 2546.12 472 2566.52 389.2C2586.92 305.2 2619.92 239.2 2665.52 191.2C2711.12 143.2 2770.52 109.6 2843.72 90.3999C2918.12 69.9999 3008.12 59.7999 3113.72 59.7999ZM3113.72 349.6C3069.32 349.6 3035.12 359.2 3011.12 378.4C2987.12 397.6 2970.32 433 2960.72 484.6C2951.12 536.2 2946.32 610 2946.32 706C2946.32 802 2951.12 875.8 2960.72 927.4C2970.32 979 2987.12 1014.4 3011.12 1033.6C3035.12 1052.8 3069.32 1062.4 3113.72 1062.4C3158.12 1062.4 3192.32 1052.8 3216.32 1033.6C3240.32 1014.4 3257.12 979 3266.72 927.4C3276.32 875.8 3281.12 802 3281.12 706C3281.12 610 3276.32 536.2 3266.72 484.6C3257.12 433 3240.32 397.6 3216.32 378.4C3192.32 359.2 3158.12 349.6 3113.72 349.6ZM4987.58 84.9999V1192C4987.58 1282 4942.58 1327 4852.58 1327H4703.18C4662.38 1327 4631.78 1317.4 4611.38 1298.2C4592.18 1279 4572.38 1250.8 4551.98 1213.6L4281.98 787C4265.18 755.8 4249.58 722.2 4235.18 686.2C4221.98 649 4209.98 611.8 4199.18 574.6H4186.58C4192.58 611.8 4196.78 650.2 4199.18 689.8C4202.78 728.2 4204.58 765.4 4204.58 801.4V1327H3844.58V220C3844.58 130 3889.58 84.9999 3979.58 84.9999H4128.98C4169.78 84.9999 4199.78 94.5999 4218.98 113.8C4238.18 133 4258.58 161.2 4280.18 198.4L4539.38 605.2C4556.18 635.2 4572.38 668.2 4587.98 704.2C4604.78 740.2 4620.38 778 4634.78 817.6H4647.38C4642.58 779.2 4638.38 741.4 4634.78 704.2C4632.38 667 4631.18 629.8 4631.18 592.6L4629.38 84.9999H4987.58Z" fill="#F2F5EA"/>
<rect x="50" y="50" width="1700" height="1700" rx="300" stroke="#F2F5EA" stroke-width="100"/>
<mask id="mask0_2_294" style="mask-type:alpha" maskUnits="userSpaceOnUse" x="100" y="100" width="1600" height="1600">
<rect x="100" y="100" width="1600" height="1600" rx="250" fill="#F2F5EA"/>
</mask>
<g mask="url(#mask0_2_294)">
<path d="M691.835 464.843C742.241 506.05 793.322 549.853 844.543 595.87C801.969 635.485 759.682 676.274 717.979 717.978C595.865 840.091 481.587 967.204 381.716 1091.88C281.732 1216.69 198.902 1335.67 137.418 1441.87C75.3026 1549.16 38.9466 1636.61 25.0996 1700.51C18.2275 1732.22 17.9376 1753.51 19.8018 1766.32C20.7471 1772.81 22.0562 1776.11 22.7529 1777.46C24.1073 1778.16 27.3995 1779.47 33.8994 1780.42C46.7094 1782.28 67.9948 1781.99 99.707 1775.12C163.606 1761.27 251.054 1724.91 358.345 1662.8C458.861 1604.61 570.826 1527.29 688.351 1434.4C738.99 1480.74 790.038 1525.53 841.08 1568.41C838.512 1570.47 835.946 1572.54 833.38 1574.59C702.711 1679.27 575.397 1768.24 458.551 1835.88C342.795 1902.9 234.815 1950.48 142.063 1970.58C54.1573 1989.63 -48.3332 1989.4 -118.758 1918.97C-189.182 1848.55 -189.412 1746.06 -170.363 1658.15C-150.264 1565.4 -102.684 1457.42 -35.668 1341.67C31.9797 1224.82 120.949 1097.51 225.623 966.836C330.41 836.026 449.643 703.47 576.557 576.556C614.543 538.569 653.036 501.272 691.835 464.843ZM1658.15 -170.363C1746.06 -189.412 1848.55 -189.183 1918.98 -118.759C1989.4 -48.334 1989.63 54.1567 1970.58 142.063C1950.48 234.814 1902.9 342.796 1835.89 458.551C1768.24 575.397 1679.27 702.711 1574.59 833.38C1469.81 964.191 1350.57 1096.75 1223.66 1223.66C1185.67 1261.65 1147.18 1298.94 1108.38 1335.37C1057.66 1293.91 1006.58 1250.08 955.678 1204.34C998.25 1164.73 1040.54 1123.94 1082.24 1082.24C1204.35 960.126 1318.63 833.013 1418.5 708.34C1518.48 583.526 1601.32 464.544 1662.8 358.344C1724.92 251.054 1761.27 163.606 1775.12 99.7063C1781.99 67.9947 1782.28 46.7097 1780.42 33.8997C1779.47 27.4013 1778.16 24.1092 1777.46 22.7542C1776.11 22.0575 1772.82 20.7475 1766.32 19.802C1753.51 17.9378 1732.22 18.2278 1700.51 25.0999C1636.61 38.947 1549.16 75.3021 1441.87 137.417C1341.36 195.611 1229.39 272.928 1111.87 365.812C1061.14 319.403 1010.1 274.614 959.137 231.807C961.704 229.74 964.271 227.679 966.837 225.623C1097.51 120.95 1224.82 31.9799 1341.67 -35.6677C1457.42 -102.684 1565.4 -150.264 1658.15 -170.363Z" fill="#F2F5EA"/>
<path d="M575.15 949.663C618.787 996.925 663.894 1043.87 710.12 1090.1C832.5 1212.48 959.916 1327.03 1084.93 1427.17C1210.07 1527.42 1329.52 1610.59 1436.31 1672.42C1544.07 1734.8 1632.66 1771.78 1698.16 1785.98C1767.89 1801.09 1785.25 1785.56 1785.41 1785.41C1785.69 1785.13 1801.03 1767.61 1785.98 1698.16C1771.93 1633.33 1735.38 1545.07 1672.42 1436.31C1610.26 1328.94 1527.54 1210.49 1429.73 1088.13C1470.71 1043.08 1510.45 997.74 1548.67 952.394C1659.9 1089.39 1754.85 1223.88 1826.27 1347.23C1893.7 1463.7 1940.14 1570.16 1959.72 1660.51C1978.3 1746.22 1977.9 1844.34 1911.12 1911.12C1844.83 1977.41 1747.35 1978.54 1660.51 1959.72C1569.36 1939.97 1462.52 1893.01 1347.23 1826.27C1230.98 1758.96 1104.13 1670.33 973.784 1565.92C843.315 1461.41 711.06 1342.45 584.413 1215.8C541.49 1172.88 499.45 1129.31 458.556 1085.39C495.7 1040.27 534.672 994.903 575.15 949.663ZM-110.901 -110.902C-44.123 -177.679 53.9951 -178.078 139.71 -159.503C230.057 -139.925 336.516 -93.4793 452.984 -26.0509C686.842 109.341 960.717 329.327 1215.8 584.413C1258.83 627.444 1300.87 671.011 1341.66 714.829C1304.52 759.951 1265.55 805.313 1225.07 850.552C1181.64 803.513 1136.55 756.572 1090.1 710.121C842.25 462.275 580.513 253.203 363.91 127.802C255.147 64.8336 166.887 28.2892 102.06 14.2411C32.6208 -0.806343 15.0965 14.5181 14.8068 14.8065C14.681 14.9331 -0.883297 32.2679 14.2404 102.059C28.4348 167.562 65.4143 256.15 127.802 363.911C189.101 469.791 271.383 588.108 370.483 712.083C329.502 757.133 289.766 802.477 251.547 847.822C245.755 840.688 240.003 833.558 234.295 826.433C129.882 696.09 41.2536 569.238 -26.0516 452.983C-92.7954 337.698 -139.752 230.858 -159.504 139.71C-178.322 52.8683 -177.19 -44.6127 -110.901 -110.902Z" fill="#F2F5EA"/>
</g>
</g>
<defs>
<clipPath id="clip0_2_294">
<rect width="5050" height="1800" fill="white"/>
</clipPath>
</defs>
</svg>
