<svg width="2000" height="2150" viewBox="0 0 2000 2150" fill="none" xmlns="http://www.w3.org/2000/svg">
<path d="M1283.32 100C1217.92 146.145 1150.88 196.71 1083.01 251.082C1074.99 257.503 1066.97 263.974 1058.94 270.49C1109.87 313.417 1160.89 358.114 1211.65 404.293C1351.12 292.806 1484.23 200.238 1603.34 131.277C1622.48 120.198 1641.08 109.831 1659.13 100.164C1790.16 104.866 1895.49 210.411 1899.86 341.53C1890.25 359.446 1879.96 377.908 1868.97 396.899C1799.41 517.039 1705.84 651.415 1593.07 792.197C1480.41 932.838 1351.54 1076.18 1213.86 1213.86C1161.85 1265.86 1109.04 1316.61 1055.87 1365.7C1106.77 1411.24 1157.8 1455.08 1208.56 1496.87C1257.97 1450.86 1306.99 1403.57 1355.28 1355.28C1497.76 1212.8 1631.58 1064.02 1749.16 917.237C1803.44 849.482 1853.92 782.563 1900 717.273V1650C1900 1788.07 1788.07 1900 1650 1900H717.273C782.563 1853.92 849.482 1803.44 917.237 1749.16C925.253 1742.74 933.273 1736.27 941.3 1729.75C890.287 1686.76 839.274 1642.05 788.593 1595.95C649.121 1707.44 516.014 1800.01 396.899 1868.97C377.908 1879.96 359.446 1890.25 341.53 1899.86C210.411 1895.49 104.865 1790.16 100.164 1659.12C109.83 1641.08 120.197 1622.48 131.276 1603.34C200.831 1483.2 294.4 1348.83 407.175 1208.05C519.837 1067.41 648.708 924.063 786.386 786.386C838.39 734.381 891.204 683.634 944.374 634.541C893.214 588.766 842.178 544.944 791.682 503.376C742.267 549.381 693.254 596.676 644.965 644.965C502.487 787.443 368.66 936.229 251.082 1083.01C196.71 1150.88 146.145 1217.92 100 1283.31V350C100 211.929 211.929 100 350 100H1283.32Z" fill="#1A1D1A"/>
<mask id="mask0_7_2835" style="mask-type:alpha" maskUnits="userSpaceOnUse" x="100" y="100" width="1800" height="1800">
<rect x="100" y="100" width="1800" height="1800" rx="250" fill="#0A0A14"/>
</mask>
<g mask="url(#mask0_7_2835)">
<path d="M786.385 1213.86C924.062 1351.54 1067.4 1480.41 1208.05 1593.07C1348.83 1705.84 1483.2 1799.41 1603.34 1868.97C1724.57 1939.15 1824.24 1980.75 1897.93 1996.72C1976.44 2013.74 1995.94 1996.23 1996.09 1996.09L2137.51 2137.51C2062.93 2212.08 1953.27 2213.36 1855.57 2192.19C1753.03 2169.97 1632.83 2117.14 1503.14 2042.05C1372.35 1966.33 1229.64 1866.63 1083.01 1749.16C936.228 1631.58 787.442 1497.76 644.964 1355.28L786.385 1213.86ZM1729.75 1058.94C1854.88 1213.06 1961.71 1364.36 2042.05 1503.14C2117.91 1634.16 2170.16 1753.93 2192.19 1855.57C2213.08 1952 2212.63 2062.38 2137.51 2137.51L1996.09 1996.09C1996.4 1995.77 2013.65 1976.07 1996.72 1897.93C1980.92 1825 1939.8 1725.7 1868.97 1603.34C1799.04 1482.56 1705.98 1349.3 1595.95 1211.65C1642.05 1160.97 1686.76 1109.96 1729.75 1058.94ZM634.542 1055.87C683.634 1109.04 734.381 1161.85 786.385 1213.86L644.964 1355.28C596.675 1306.99 549.38 1257.98 503.374 1208.56C545.162 1157.8 589.004 1106.77 634.542 1055.87ZM-137.265 -137.264C-62.1392 -212.389 48.2434 -212.838 144.673 -191.941C246.314 -169.916 366.08 -117.665 497.105 -41.8076C760.197 110.508 1068.31 357.993 1355.28 644.965C1403.69 693.375 1450.97 742.387 1496.87 791.683C1455.08 842.444 1411.24 893.476 1365.7 944.37C1316.84 891.451 1266.12 838.644 1213.86 786.386C935.03 507.559 640.576 272.354 396.898 131.277C274.54 60.4382 175.247 19.3257 102.316 3.52148C24.182 -13.4102 4.4745 3.83946 4.15625 4.15723C4.01096 4.30393 -13.4929 23.8103 3.51953 102.317C19.4882 176.007 61.0903 275.669 131.276 396.899C200.237 516.014 292.805 649.121 404.292 788.593C358.189 839.274 313.486 890.286 270.489 941.3C263.973 933.274 257.502 925.253 251.081 917.237C133.616 770.601 33.9098 627.893 -41.8086 497.106C-116.895 367.411 -169.721 247.216 -191.942 144.674C-213.113 46.9771 -211.84 -62.6886 -137.265 -137.264Z" fill="#AB87FF"/>
</g>
<path d="M486.101 1975.02C492.901 1975.02 499.871 1975.08 507.011 1975.19C514.264 1975.19 521.347 1975.36 528.261 1975.7C535.174 1975.93 541.464 1976.44 547.131 1977.23L545.431 2003.24H502.421C500.267 2003.24 498.567 2003.81 497.321 2004.94C496.074 2006.07 495.451 2007.55 495.451 2009.36V2059.34C495.451 2061.15 496.074 2062.63 497.321 2063.76C498.567 2064.89 500.267 2065.46 502.421 2065.46H545.431L547.131 2091.47C541.464 2092.15 535.174 2092.66 528.261 2093C521.347 2093.34 514.264 2093.51 507.011 2093.51C499.871 2093.62 492.901 2093.68 486.101 2093.68C478.054 2093.68 471.424 2091.24 466.211 2086.37C461.111 2081.38 458.561 2074.92 458.561 2066.99V2001.71C458.561 1993.78 461.111 1987.37 466.211 1982.5C471.424 1977.51 478.054 1975.02 486.101 1975.02ZM461.621 2020.75H539.311V2045.23H461.621V2020.75Z" fill="#AB87FF"/>
<path d="M668.63 1975.7V2080.25C668.63 2088.75 664.38 2093 655.88 2093H641.77C637.917 2093 635.027 2092.09 633.1 2090.28C631.287 2088.47 629.417 2085.8 627.49 2082.29L601.99 2042C600.403 2039.05 598.93 2035.88 597.57 2032.48C596.323 2028.97 595.19 2025.45 594.17 2021.94H592.98C593.547 2025.45 593.943 2029.08 594.17 2032.82C594.51 2036.45 594.68 2039.96 594.68 2043.36V2093H560.68V1988.45C560.68 1979.95 564.93 1975.7 573.43 1975.7H587.54C591.393 1975.7 594.227 1976.61 596.04 1978.42C597.853 1980.23 599.78 1982.9 601.82 1986.41L626.3 2024.83C627.887 2027.66 629.417 2030.78 630.89 2034.18C632.477 2037.58 633.95 2041.15 635.31 2044.89H636.5C636.047 2041.26 635.65 2037.69 635.31 2034.18C635.083 2030.67 634.97 2027.15 634.97 2023.64L634.8 1975.7H668.63Z" fill="#AB87FF"/>
<path d="M748.748 1975.7V2093H711.858V1975.7H748.748ZM781.558 1975.7V2003.24H679.048V1975.7H781.558Z" fill="#AB87FF"/>
<path d="M818.796 1975.02C825.596 1975.02 832.566 1975.08 839.706 1975.19C846.959 1975.19 854.043 1975.36 860.956 1975.7C867.869 1975.93 874.159 1976.44 879.826 1977.23L878.126 2003.24H835.116C832.963 2003.24 831.263 2003.81 830.016 2004.94C828.769 2006.07 828.146 2007.55 828.146 2009.36V2059.34C828.146 2061.15 828.769 2062.63 830.016 2063.76C831.263 2064.89 832.963 2065.46 835.116 2065.46H878.126L879.826 2091.47C874.159 2092.15 867.869 2092.66 860.956 2093C854.043 2093.34 846.959 2093.51 839.706 2093.51C832.566 2093.62 825.596 2093.68 818.796 2093.68C810.749 2093.68 804.119 2091.24 798.906 2086.37C793.806 2081.38 791.256 2074.92 791.256 2066.99V2001.71C791.256 1993.78 793.806 1987.37 798.906 1982.5C804.119 1977.51 810.749 1975.02 818.796 1975.02ZM794.316 2020.75H872.006V2045.23H794.316V2020.75Z" fill="#AB87FF"/>
<path d="M943.185 1974C954.745 1974 964.152 1975.08 971.405 1977.23C978.659 1979.38 983.985 1983.07 987.385 1988.28C990.899 1993.38 992.655 2000.52 992.655 2009.7C992.655 2014.35 991.919 2018.71 990.445 2022.79C989.085 2026.76 986.649 2030.04 983.135 2032.65C979.735 2035.26 974.975 2036.9 968.855 2037.58V2038.6C971.009 2038.83 973.389 2039.51 975.995 2040.64C978.602 2041.66 981.039 2043.47 983.305 2046.08C985.572 2048.57 987.159 2052.2 988.065 2056.96L997.245 2093H958.655L951.005 2058.15C950.325 2054.86 949.249 2052.71 947.775 2051.69C946.415 2050.67 944.149 2050.16 940.975 2050.16C932.475 2050.05 925.505 2049.99 920.065 2049.99C914.739 2049.99 910.205 2049.93 906.465 2049.82C902.725 2049.71 898.985 2049.54 895.245 2049.31L895.755 2024.15H942.335C945.849 2024.15 948.569 2023.81 950.495 2023.13C952.422 2022.45 953.725 2021.26 954.405 2019.56C955.199 2017.75 955.595 2015.25 955.595 2012.08C955.595 2008.79 955.199 2006.3 954.405 2004.6C953.725 2002.9 952.422 2001.71 950.495 2001.03C948.569 2000.35 945.849 2000.01 942.335 2000.01C930.549 2000.01 920.632 2000.07 912.585 2000.18C904.539 2000.29 899.042 2000.52 896.095 2000.86L893.375 1975.7C898.589 1975.13 903.462 1974.74 907.995 1974.51C912.642 1974.28 917.685 1974.17 923.125 1974.17C928.679 1974.06 935.365 1974 943.185 1974ZM929.585 1975.7V2093H893.375V1975.7H929.585Z" fill="#AB87FF"/>
<path d="M1069.99 1975.7V2093H1033.1V1975.7H1069.99ZM1102.8 1975.7V2003.24H1000.29V1975.7H1102.8Z" fill="#AB87FF"/>
<path d="M1169.51 1975.7C1172.46 1975.7 1175.06 1976.55 1177.33 1978.25C1179.6 1979.95 1181.13 1982.27 1181.92 1985.22L1212.35 2093H1174.78L1157.1 2016.67C1156.65 2014.52 1156.25 2012.31 1155.91 2010.04C1155.57 2007.66 1155.29 2005.39 1155.06 2003.24H1150.47C1150.24 2005.39 1149.96 2007.66 1149.62 2010.04C1149.28 2012.31 1148.88 2014.52 1148.43 2016.67L1130.75 2093H1093.18L1123.61 1985.22C1124.4 1982.27 1125.93 1979.95 1128.2 1978.25C1130.47 1976.55 1133.07 1975.7 1136.02 1975.7H1169.51ZM1183.96 2041.83V2067.67H1121.57V2041.83H1183.96Z" fill="#AB87FF"/>
<path d="M1256.32 1975.7V2093H1219.77V1975.7H1256.32Z" fill="#AB87FF"/>
<path d="M1382.17 1975.7V2080.25C1382.17 2088.75 1377.92 2093 1369.42 2093H1355.31C1351.45 2093 1348.56 2092.09 1346.64 2090.28C1344.82 2088.47 1342.95 2085.8 1341.03 2082.29L1315.53 2042C1313.94 2039.05 1312.47 2035.88 1311.11 2032.48C1309.86 2028.97 1308.73 2025.45 1307.71 2021.94H1306.52C1307.08 2025.45 1307.48 2029.08 1307.71 2032.82C1308.05 2036.45 1308.22 2039.96 1308.22 2043.36V2093H1274.22V1988.45C1274.22 1979.95 1278.47 1975.7 1286.97 1975.7H1301.08C1304.93 1975.7 1307.76 1976.61 1309.58 1978.42C1311.39 1980.23 1313.32 1982.9 1315.36 1986.41L1339.84 2024.83C1341.42 2027.66 1342.95 2030.78 1344.43 2034.18C1346.01 2037.58 1347.49 2041.15 1348.85 2044.89H1350.04C1349.58 2041.26 1349.19 2037.69 1348.85 2034.18C1348.62 2030.67 1348.51 2027.15 1348.51 2023.64L1348.34 1975.7H1382.17Z" fill="#AB87FF"/>
<path d="M1528.92 1975.7C1537.2 1975.7 1541.5 1979.95 1541.84 1988.45L1545.92 2093H1512.77L1509.2 2003.24H1506.65L1495.09 2063.08C1493.96 2070.56 1489.31 2074.3 1481.15 2074.3H1462.11C1454.07 2074.3 1449.36 2070.56 1448 2063.08L1436.27 2003.24H1433.72L1430.83 2093H1397.68L1401.76 1988.45C1402.1 1979.95 1406.41 1975.7 1414.68 1975.7H1446.47C1454.41 1975.7 1459.05 1979.5 1460.41 1987.09L1468.91 2033.67C1469.37 2036.5 1469.71 2039.39 1469.93 2042.34C1470.27 2045.29 1470.56 2048.23 1470.78 2051.18H1472.31C1472.65 2048.23 1472.94 2045.29 1473.16 2042.34C1473.5 2039.39 1473.9 2036.5 1474.35 2033.67L1482.34 1987.09C1483.7 1979.5 1488.41 1975.7 1496.45 1975.7H1528.92Z" fill="#AB87FF"/>
<path d="M1588.28 1975.02C1595.08 1975.02 1602.05 1975.08 1609.19 1975.19C1616.44 1975.19 1623.53 1975.36 1630.44 1975.7C1637.35 1975.93 1643.64 1976.44 1649.31 1977.23L1647.61 2003.24H1604.6C1602.44 2003.24 1600.74 2003.81 1599.5 2004.94C1598.25 2006.07 1597.63 2007.55 1597.63 2009.36V2059.34C1597.63 2061.15 1598.25 2062.63 1599.5 2063.76C1600.74 2064.89 1602.44 2065.46 1604.6 2065.46H1647.61L1649.31 2091.47C1643.64 2092.15 1637.35 2092.66 1630.44 2093C1623.53 2093.34 1616.44 2093.51 1609.19 2093.51C1602.05 2093.62 1595.08 2093.68 1588.28 2093.68C1580.23 2093.68 1573.6 2091.24 1568.39 2086.37C1563.29 2081.38 1560.74 2074.92 1560.74 2066.99V2001.71C1560.74 1993.78 1563.29 1987.37 1568.39 1982.5C1573.6 1977.51 1580.23 1975.02 1588.28 1975.02ZM1563.8 2020.75H1641.49V2045.23H1563.8V2020.75Z" fill="#AB87FF"/>
<path d="M1770.81 1975.7V2080.25C1770.81 2088.75 1766.56 2093 1758.06 2093H1743.95C1740.09 2093 1737.2 2092.09 1735.28 2090.28C1733.46 2088.47 1731.59 2085.8 1729.67 2082.29L1704.17 2042C1702.58 2039.05 1701.11 2035.88 1699.75 2032.48C1698.5 2028.97 1697.37 2025.45 1696.35 2021.94H1695.16C1695.72 2025.45 1696.12 2029.08 1696.35 2032.82C1696.69 2036.45 1696.86 2039.96 1696.86 2043.36V2093H1662.86V1988.45C1662.86 1979.95 1667.11 1975.7 1675.61 1975.7H1689.72C1693.57 1975.7 1696.4 1976.61 1698.22 1978.42C1700.03 1980.23 1701.96 1982.9 1704 1986.41L1728.48 2024.83C1730.06 2027.66 1731.59 2030.78 1733.07 2034.18C1734.65 2037.58 1736.13 2041.15 1737.49 2044.89H1738.68C1738.22 2041.26 1737.83 2037.69 1737.49 2034.18C1737.26 2030.67 1737.15 2027.15 1737.15 2023.64L1736.98 1975.7H1770.81Z" fill="#AB87FF"/>
<path d="M1850.93 1975.7V2093H1814.04V1975.7H1850.93ZM1883.74 1975.7V2003.24H1781.23V1975.7H1883.74Z" fill="#AB87FF"/>
<path d="M160.116 1975.7V2093H123.566V1975.7H160.116Z" fill="#1A1D1A"/>
<path d="M229.186 1973.32C239.272 1973.32 247.772 1974.28 254.686 1976.21C261.712 1978.02 267.379 1981.2 271.686 1985.73C275.992 1990.26 279.109 1996.5 281.036 2004.43C282.962 2012.25 283.926 2022.22 283.926 2034.35C283.926 2046.36 282.962 2056.34 281.036 2064.27C279.109 2072.2 275.992 2078.44 271.686 2082.97C267.379 2087.5 261.712 2090.73 254.686 2092.66C247.772 2094.47 239.272 2095.38 229.186 2095.38C219.212 2095.38 210.712 2094.47 203.686 2092.66C196.772 2090.73 191.162 2087.5 186.856 2082.97C182.549 2078.44 179.432 2072.2 177.506 2064.27C175.579 2056.34 174.616 2046.36 174.616 2034.35C174.616 2022.22 175.579 2012.25 177.506 2004.43C179.432 1996.5 182.549 1990.26 186.856 1985.73C191.162 1981.2 196.772 1978.02 203.686 1976.21C210.712 1974.28 219.212 1973.32 229.186 1973.32ZM229.186 2000.69C224.992 2000.69 221.762 2001.6 219.496 2003.41C217.229 2005.22 215.642 2008.57 214.736 2013.44C213.829 2018.31 213.376 2025.28 213.376 2034.35C213.376 2043.42 213.829 2050.39 214.736 2055.26C215.642 2060.13 217.229 2063.48 219.496 2065.29C221.762 2067.1 224.992 2068.01 229.186 2068.01C233.379 2068.01 236.609 2067.1 238.876 2065.29C241.142 2063.48 242.729 2060.13 243.636 2055.26C244.542 2050.39 244.996 2043.42 244.996 2034.35C244.996 2025.28 244.542 2018.31 243.636 2013.44C242.729 2008.57 241.142 2005.22 238.876 2003.41C236.609 2001.6 233.379 2000.69 229.186 2000.69Z" fill="#1A1D1A"/>
<path d="M406.161 1975.7V2080.25C406.161 2088.75 401.911 2093 393.411 2093H379.301C375.448 2093 372.558 2092.09 370.631 2090.28C368.818 2088.47 366.948 2085.8 365.021 2082.29L339.521 2042C337.934 2039.05 336.461 2035.88 335.101 2032.48C333.854 2028.97 332.721 2025.45 331.701 2021.94H330.511C331.078 2025.45 331.474 2029.08 331.701 2032.82C332.041 2036.45 332.211 2039.96 332.211 2043.36V2093H298.211V1988.45C298.211 1979.95 302.461 1975.7 310.961 1975.7H325.071C328.924 1975.7 331.758 1976.61 333.571 1978.42C335.384 1980.23 337.311 1982.9 339.351 1986.41L363.831 2024.83C365.418 2027.66 366.948 2030.78 368.421 2034.18C370.008 2037.58 371.481 2041.15 372.841 2044.89H374.031C373.578 2041.26 373.181 2037.69 372.841 2034.18C372.614 2030.67 372.501 2027.15 372.501 2023.64L372.331 1975.7H406.161Z" fill="#1A1D1A"/>
</svg>
