<svg width="2000" height="2000" viewBox="0 0 2000 2000" fill="none" xmlns="http://www.w3.org/2000/svg">
<path d="M1283.32 100C1217.92 146.145 1150.88 196.71 1083.01 251.082C1074.99 257.503 1066.97 263.974 1058.94 270.49C1109.87 313.417 1160.89 358.114 1211.65 404.293C1351.12 292.806 1484.23 200.238 1603.34 131.277C1622.48 120.198 1641.08 109.831 1659.13 100.164C1790.16 104.866 1895.49 210.411 1899.86 341.53C1890.25 359.446 1879.96 377.908 1868.97 396.899C1799.41 517.039 1705.84 651.415 1593.07 792.197C1480.41 932.838 1351.54 1076.18 1213.86 1213.86C1161.85 1265.86 1109.04 1316.61 1055.87 1365.7C1106.77 1411.24 1157.8 1455.08 1208.56 1496.87C1257.97 1450.86 1306.99 1403.57 1355.28 1355.28C1497.76 1212.8 1631.58 1064.02 1749.16 917.237C1803.44 849.482 1853.92 782.563 1900 717.273V1650C1900 1788.07 1788.07 1900 1650 1900H717.273C782.563 1853.92 849.482 1803.44 917.237 1749.16C925.253 1742.74 933.273 1736.27 941.3 1729.75C890.287 1686.76 839.274 1642.05 788.593 1595.95C649.121 1707.44 516.014 1800.01 396.899 1868.97C377.908 1879.96 359.446 1890.25 341.53 1899.86C210.411 1895.49 104.865 1790.16 100.164 1659.12C109.83 1641.08 120.197 1622.48 131.276 1603.34C200.831 1483.2 294.4 1348.83 407.175 1208.05C519.837 1067.41 648.708 924.063 786.386 786.386C838.39 734.381 891.204 683.634 944.374 634.541C893.214 588.766 842.178 544.944 791.682 503.376C742.267 549.381 693.254 596.676 644.965 644.965C502.487 787.443 368.66 936.229 251.082 1083.01C196.71 1150.88 146.145 1217.92 100 1283.31V350C100 211.929 211.929 100 350 100H1283.32Z" fill="#1A1D1A"/>
<mask id="mask0_7_2315" style="mask-type:alpha" maskUnits="userSpaceOnUse" x="100" y="100" width="1800" height="1800">
<rect x="100" y="100" width="1800" height="1800" rx="250" fill="#0A0A14"/>
</mask>
<g mask="url(#mask0_7_2315)">
<path d="M786.386 1213.86C924.063 1351.54 1067.41 1480.41 1208.05 1593.07C1348.83 1705.84 1483.2 1799.41 1603.34 1868.97C1724.58 1939.15 1824.24 1980.75 1897.93 1996.72C1976.44 2013.74 1995.94 1996.23 1996.09 1996.09L2137.51 2137.51C2062.93 2212.08 1953.27 2213.36 1855.57 2192.19C1753.03 2169.97 1632.83 2117.14 1503.14 2042.05C1372.35 1966.33 1229.64 1866.63 1083.01 1749.16C936.229 1631.58 787.442 1497.76 644.965 1355.28L786.386 1213.86ZM1729.75 1058.94C1854.88 1213.06 1961.71 1364.36 2042.05 1503.14C2117.91 1634.16 2170.16 1753.93 2192.19 1855.57C2213.08 1952 2212.63 2062.38 2137.51 2137.51L1996.09 1996.09C1996.4 1995.77 2013.66 1976.07 1996.72 1897.93C1980.92 1825 1939.81 1725.7 1868.97 1603.34C1799.04 1482.56 1705.98 1349.3 1595.95 1211.65C1642.05 1160.97 1686.76 1109.96 1729.75 1058.94ZM634.543 1055.87C683.635 1109.04 734.381 1161.85 786.386 1213.86L644.965 1355.28C596.675 1306.99 549.381 1257.98 503.375 1208.56C545.163 1157.8 589.005 1106.77 634.543 1055.87ZM-137.264 -137.264C-62.1384 -212.389 48.2443 -212.838 144.674 -191.941C246.315 -169.916 366.081 -117.665 497.106 -41.8076C760.197 110.508 1068.31 357.993 1355.28 644.965C1403.69 693.375 1450.97 742.387 1496.87 791.683C1455.08 842.444 1411.24 893.476 1365.7 944.37C1316.84 891.451 1266.12 838.644 1213.86 786.386C935.031 507.559 640.577 272.354 396.899 131.277C274.541 60.4382 175.248 19.3257 102.317 3.52148C24.1828 -13.4102 4.47536 3.83946 4.1571 4.15723C4.01181 4.30393 -13.492 23.8103 3.52039 102.317C19.4891 176.007 61.0911 275.669 131.277 396.899C200.238 516.014 292.806 649.121 404.293 788.593C358.19 839.274 313.487 890.286 270.49 941.3C263.974 933.274 257.503 925.253 251.082 917.237C133.617 770.601 33.9106 627.893 -41.8077 497.106C-116.895 367.411 -169.721 247.216 -191.942 144.674C-213.112 46.9771 -211.839 -62.6886 -137.264 -137.264Z" fill="#69DC9E"/>
</g>
</svg>
