<svg width="1800" height="2900" viewBox="0 0 1800 2900" fill="none" xmlns="http://www.w3.org/2000/svg">
<g clip-path="url(#clip0_7_2337)">
<path d="M1183.32 0C1117.92 46.1446 1050.88 96.7098 983.007 151.082C974.991 157.503 966.971 163.974 958.944 170.49C1009.87 213.416 1060.89 258.113 1111.65 304.292C1251.12 192.805 1384.23 100.238 1503.34 31.2773C1522.48 20.1978 1541.08 9.83054 1559.13 0.164062C1690.16 4.86641 1795.49 110.413 1799.86 241.534C1790.25 259.449 1779.96 277.91 1768.97 296.899C1699.41 417.039 1605.85 551.415 1493.07 692.197C1380.41 832.838 1251.54 976.181 1113.86 1113.86C1061.86 1165.86 1009.04 1216.61 955.873 1265.7C1006.77 1311.24 1057.8 1355.08 1108.56 1396.87C1157.98 1350.86 1206.99 1303.57 1255.28 1255.28C1397.76 1112.8 1531.59 964.016 1649.16 817.237C1703.44 749.483 1753.92 682.565 1800 617.276V1550C1800 1688.07 1688.07 1800 1550 1800H617.275C682.565 1753.92 749.484 1703.44 817.239 1649.16C825.255 1642.74 833.275 1636.27 841.301 1629.75C790.287 1586.76 739.275 1542.05 688.594 1495.95C549.122 1607.44 416.016 1700.01 296.901 1768.97C277.91 1779.96 259.448 1790.25 241.532 1799.86C110.412 1795.49 4.86541 1690.16 0.164062 1559.12C9.83022 1541.08 20.1972 1522.48 31.2764 1503.34C100.831 1383.2 194.399 1248.83 307.175 1108.05C419.837 967.406 548.708 824.063 686.386 686.386C738.391 634.381 791.204 583.633 844.374 534.54C793.214 488.765 742.179 444.943 691.683 403.375C642.268 449.381 593.254 496.676 544.965 544.965C402.487 687.443 268.66 836.229 151.082 983.007C96.7102 1050.88 46.1446 1117.92 0 1183.31V250C8.24675e-06 111.929 111.929 8.24875e-06 250 0H1183.32Z" fill="#1A1D1A"/>
<mask id="mask0_7_2337" style="mask-type:alpha" maskUnits="userSpaceOnUse" x="0" y="0" width="1800" height="1800">
<rect width="1800" height="1800" rx="250" fill="#0A0A14"/>
</mask>
<g mask="url(#mask0_7_2337)">
<path d="M1629.75 958.942C1754.88 1113.06 1861.71 1264.36 1942.05 1403.14C2017.91 1534.16 2070.16 1653.93 2092.19 1755.57C2113.08 1852 2112.63 1962.38 2037.51 2037.51L2037.51 2037.51C1962.93 2112.08 1853.27 2113.36 1755.57 2092.19C1653.03 2069.97 1532.83 2017.14 1403.14 1942.05C1272.35 1866.33 1129.64 1766.63 983.008 1649.16C836.23 1531.58 687.444 1397.76 544.966 1255.28L686.387 1113.86C824.064 1251.54 967.407 1380.41 1108.05 1493.07C1248.83 1605.84 1383.21 1699.41 1503.35 1768.97C1624.58 1839.15 1724.24 1880.75 1797.93 1896.72C1876.29 1913.7 1895.87 1896.29 1896.09 1896.09C1896.4 1895.77 1913.65 1876.07 1896.72 1797.93C1880.92 1725 1839.81 1625.7 1768.97 1503.34C1699.04 1382.56 1605.98 1249.3 1495.95 1111.65C1542.05 1060.97 1586.75 1009.96 1629.75 958.942ZM534.542 955.871C583.634 1009.04 634.381 1061.85 686.385 1113.86L544.964 1255.28C496.675 1206.99 449.38 1157.98 403.374 1108.56C445.162 1057.8 489.004 1006.77 534.542 955.871ZM-237.263 -237.264C-162.137 -312.389 -51.7547 -312.838 44.6748 -291.941C146.316 -269.916 266.082 -217.665 397.107 -141.808C660.199 10.5084 968.308 257.993 1255.28 544.965L1255.28 544.966C1303.69 593.375 1350.97 642.387 1396.87 691.682C1355.08 742.444 1311.24 793.475 1265.7 844.369C1216.84 791.451 1166.12 738.644 1113.86 686.386V686.385C835.031 407.558 540.578 172.354 296.9 31.2773C174.542 -39.5618 75.2494 -80.6743 2.31836 -96.4785C-75.8162 -113.41 -95.5235 -96.1605 -95.8418 -95.8428L-237.263 -237.264ZM-95.8438 -95.8428C-95.989 -95.6961 -113.493 -76.1897 -96.4805 2.31738C-80.5118 76.0073 -38.9097 175.669 31.2764 296.899C100.237 416.014 192.805 549.121 304.292 688.593C258.189 739.274 213.486 790.286 170.489 841.3C163.973 833.274 157.502 825.253 151.081 817.237C33.6163 670.601 -66.0902 527.893 -141.809 397.106C-216.895 267.411 -269.721 147.216 -291.942 44.6738C-313.113 -53.0229 -311.84 -162.689 -237.265 -237.264L-95.8438 -95.8428Z" fill="#69DC9E"/>
</g>
<path d="M69.6179 2701C77.6446 2701 85.7429 2701.08 93.9129 2701.22C102.083 2701.22 110.11 2701.36 117.993 2701.65C125.876 2701.94 133.258 2702.44 140.138 2703.15L138.633 2727.02H81.6579C78.0746 2727.02 75.3513 2727.95 73.4879 2729.81C71.7679 2731.68 70.9079 2734.4 70.9079 2737.98V2813.66C70.9079 2817.25 71.7679 2819.97 73.4879 2821.83C75.3513 2823.7 78.0746 2824.63 81.6579 2824.63H138.633L140.138 2848.49C133.258 2849.07 125.876 2849.57 117.993 2850C110.11 2850.29 102.083 2850.43 93.9129 2850.43C85.7429 2850.57 77.6446 2850.65 69.6179 2850.65C60.1579 2850.65 52.4896 2847.92 46.6129 2842.47C40.8796 2836.88 38.0129 2829.65 38.0129 2820.76V2730.89C38.0129 2721.86 40.8796 2714.62 46.6129 2709.17C52.4896 2703.73 60.1579 2701 69.6179 2701ZM41.8829 2761.2H130.678V2784.42H41.8829V2761.2ZM288.945 2701.65V2838.17C288.945 2846.06 285.003 2850 277.12 2850H259.06C255.476 2850 252.753 2849.21 250.89 2847.63C249.026 2845.91 247.306 2843.41 245.73 2840.11L204.665 2762.28C202.945 2758.98 201.225 2755.33 199.505 2751.31C197.928 2747.3 196.566 2743.43 195.42 2739.7H193.055C193.485 2743.57 193.843 2747.52 194.13 2751.53C194.416 2755.4 194.56 2759.27 194.56 2763.14V2850H163.385V2713.47C163.385 2705.59 167.398 2701.65 175.425 2701.65H193.27C196.71 2701.65 199.29 2702.51 201.01 2704.23C202.873 2705.81 204.665 2708.24 206.385 2711.54L246.16 2787C247.88 2790.3 249.671 2793.96 251.535 2797.97C253.398 2801.98 255.19 2806.14 256.91 2810.44H259.49C259.06 2806.14 258.701 2801.98 258.415 2797.97C258.271 2793.81 258.2 2789.73 258.2 2785.71L257.985 2701.65H288.945ZM384.766 2701.65V2850H351.871V2701.65H384.766ZM429.486 2701.65V2727.45H307.366V2701.65H429.486ZM478.412 2701C486.439 2701 494.537 2701.08 502.707 2701.22C510.877 2701.22 518.904 2701.36 526.787 2701.65C534.67 2701.94 542.052 2702.44 548.932 2703.15L547.427 2727.02H490.452C486.869 2727.02 484.145 2727.95 482.282 2729.81C480.562 2731.68 479.702 2734.4 479.702 2737.98V2813.66C479.702 2817.25 480.562 2819.97 482.282 2821.83C484.145 2823.7 486.869 2824.63 490.452 2824.63H547.427L548.932 2848.49C542.052 2849.07 534.67 2849.57 526.787 2850C518.904 2850.29 510.877 2850.43 502.707 2850.43C494.537 2850.57 486.439 2850.65 478.412 2850.65C468.952 2850.65 461.284 2847.92 455.407 2842.47C449.674 2836.88 446.807 2829.65 446.807 2820.76V2730.89C446.807 2721.86 449.674 2714.62 455.407 2709.17C461.284 2703.73 468.952 2701 478.412 2701ZM450.677 2761.2H539.472V2784.42H450.677V2761.2ZM629.369 2699.5C642.412 2699.5 652.947 2700.86 660.974 2703.58C669.144 2706.16 675.092 2710.68 678.819 2717.13C682.689 2723.44 684.624 2732.25 684.624 2743.57C684.624 2750.45 683.692 2756.55 681.829 2761.85C680.109 2767.01 677.17 2771.17 673.014 2774.32C668.857 2777.47 663.195 2779.48 656.029 2780.34V2781.41C658.609 2781.84 661.26 2782.85 663.984 2784.42C666.85 2786 669.502 2788.37 671.939 2791.52C674.375 2794.53 676.167 2798.61 677.314 2803.77L690.214 2850H655.599L644.204 2804.85C642.914 2799.98 640.979 2796.61 638.399 2794.75C635.962 2792.88 632.522 2791.95 628.079 2791.95C618.332 2791.95 610.09 2791.95 603.354 2791.95C596.76 2791.81 591.17 2791.66 586.584 2791.52C582.14 2791.38 578.127 2791.23 574.544 2791.09L575.189 2767.22H628.724C634.457 2767.22 638.972 2766.65 642.269 2765.5C645.709 2764.21 648.074 2761.99 649.364 2758.84C650.797 2755.69 651.514 2751.31 651.514 2745.72C651.514 2739.99 650.797 2735.62 649.364 2732.61C648.074 2729.46 645.709 2727.31 642.269 2726.16C638.972 2724.87 634.457 2724.22 628.724 2724.22C615.25 2724.22 603.855 2724.3 594.539 2724.44C585.222 2724.58 578.844 2724.8 575.404 2725.08L572.179 2701.65C578.199 2700.93 583.86 2700.43 589.164 2700.14C594.467 2699.86 600.272 2699.71 606.579 2699.71C612.885 2699.57 620.482 2699.5 629.369 2699.5ZM604.644 2701.65V2850H572.179V2701.65H604.644ZM775.923 2701.65V2850H743.028V2701.65H775.923ZM820.643 2701.65V2727.45H698.523V2701.65H820.643ZM897.601 2701.65C900.325 2701.65 902.69 2702.44 904.696 2704.01C906.846 2705.59 908.28 2707.67 908.996 2710.25L951.996 2850H918.456L888.141 2740.99C887.568 2738.56 886.995 2736.12 886.421 2733.68C885.848 2731.1 885.346 2728.67 884.916 2726.37H879.111C878.681 2728.67 878.18 2731.1 877.606 2733.68C877.176 2736.12 876.603 2738.56 875.886 2740.99L845.571 2850H811.816L855.031 2710.25C855.748 2707.67 857.11 2705.59 859.116 2704.01C861.266 2702.44 863.703 2701.65 866.426 2701.65H897.601ZM920.391 2786.14V2810.87H843.421V2786.14H920.391ZM1000.01 2701.65V2850H967.33V2701.65H1000.01ZM1155.45 2701.65V2838.17C1155.45 2846.06 1151.51 2850 1143.63 2850H1125.57C1121.99 2850 1119.26 2849.21 1117.4 2847.63C1115.54 2845.91 1113.82 2843.41 1112.24 2840.11L1071.17 2762.28C1069.45 2758.98 1067.73 2755.33 1066.01 2751.31C1064.44 2747.3 1063.08 2743.43 1061.93 2739.7H1059.56C1059.99 2743.57 1060.35 2747.52 1060.64 2751.53C1060.93 2755.4 1061.07 2759.27 1061.07 2763.14V2850H1029.89V2713.47C1029.89 2705.59 1033.91 2701.65 1041.93 2701.65H1059.78C1063.22 2701.65 1065.8 2702.51 1067.52 2704.23C1069.38 2705.81 1071.17 2708.24 1072.89 2711.54L1112.67 2787C1114.39 2790.3 1116.18 2793.96 1118.04 2797.97C1119.91 2801.98 1121.7 2806.14 1123.42 2810.44H1126C1125.57 2806.14 1125.21 2801.98 1124.92 2797.97C1124.78 2793.81 1124.71 2789.73 1124.71 2785.71L1124.49 2701.65H1155.45ZM1337.06 2701.65C1344.8 2701.65 1348.81 2705.66 1349.1 2713.69L1354.69 2850H1324.37L1319.43 2727.02H1315.56L1291.69 2819.47C1290.4 2826.35 1286.1 2829.79 1278.79 2829.79H1258.15C1250.84 2829.79 1246.4 2826.35 1244.82 2819.47L1220.96 2727.02H1217.3L1212.79 2850H1182.26L1187.85 2713.69C1188.14 2705.66 1192.22 2701.65 1200.1 2701.65H1230.85C1237.87 2701.65 1242.17 2705.16 1243.75 2712.18L1262.88 2786.79C1263.74 2790.23 1264.46 2793.74 1265.03 2797.32C1265.61 2800.76 1266.25 2804.28 1266.97 2807.86H1269.76C1270.48 2804.28 1271.13 2800.76 1271.7 2797.32C1272.42 2793.74 1273.13 2790.16 1273.85 2786.57L1292.77 2712.18C1294.2 2705.16 1298.5 2701.65 1305.67 2701.65H1337.06ZM1412.32 2701C1420.34 2701 1428.44 2701.08 1436.61 2701.22C1444.78 2701.22 1452.81 2701.36 1460.69 2701.65C1468.58 2701.94 1475.96 2702.44 1482.84 2703.15L1481.33 2727.02H1424.36C1420.77 2727.02 1418.05 2727.95 1416.19 2729.81C1414.47 2731.68 1413.61 2734.4 1413.61 2737.98V2813.66C1413.61 2817.25 1414.47 2819.97 1416.19 2821.83C1418.05 2823.7 1420.77 2824.63 1424.36 2824.63H1481.33L1482.84 2848.49C1475.96 2849.07 1468.58 2849.57 1460.69 2850C1452.81 2850.29 1444.78 2850.43 1436.61 2850.43C1428.44 2850.57 1420.34 2850.65 1412.32 2850.65C1402.86 2850.65 1395.19 2847.92 1389.31 2842.47C1383.58 2836.88 1380.71 2829.65 1380.71 2820.76V2730.89C1380.71 2721.86 1383.58 2714.62 1389.31 2709.17C1395.19 2703.73 1402.86 2701 1412.32 2701ZM1384.58 2761.2H1473.38V2784.42H1384.58V2761.2ZM1631.65 2701.65V2838.17C1631.65 2846.06 1627.7 2850 1619.82 2850H1601.76C1598.18 2850 1595.45 2849.21 1593.59 2847.63C1591.73 2845.91 1590.01 2843.41 1588.43 2840.11L1547.37 2762.28C1545.65 2758.98 1543.93 2755.33 1542.21 2751.31C1540.63 2747.3 1539.27 2743.43 1538.12 2739.7H1535.76C1536.19 2743.57 1536.54 2747.52 1536.83 2751.53C1537.12 2755.4 1537.26 2759.27 1537.26 2763.14V2850H1506.09V2713.47C1506.09 2705.59 1510.1 2701.65 1518.12 2701.65H1535.97C1539.41 2701.65 1541.99 2702.51 1543.71 2704.23C1545.57 2705.81 1547.37 2708.24 1549.09 2711.54L1588.86 2787C1590.58 2790.3 1592.37 2793.96 1594.24 2797.97C1596.1 2801.98 1597.89 2806.14 1599.61 2810.44H1602.19C1601.76 2806.14 1601.4 2801.98 1601.12 2797.97C1600.97 2793.81 1600.9 2789.73 1600.9 2785.71L1600.69 2701.65H1631.65ZM1727.47 2701.65V2850H1694.57V2701.65H1727.47ZM1772.19 2701.65V2727.45H1650.07V2701.65H1772.19Z" fill="#69DC9E"/>
<path d="M253.934 1896.5V2621H28.1842V1896.5H253.934ZM680.538 1881.8C742.838 1881.8 795.338 1887.75 838.038 1899.65C881.438 1910.85 916.438 1930.45 943.038 1958.45C969.638 1986.45 988.888 2024.95 1000.79 2073.95C1012.69 2122.25 1018.64 2183.85 1018.64 2258.75C1018.64 2332.95 1012.69 2394.55 1000.79 2443.55C988.888 2492.55 969.638 2531.05 943.038 2559.05C916.438 2587.05 881.438 2607 838.038 2618.9C795.338 2630.1 742.838 2635.7 680.538 2635.7C618.938 2635.7 566.438 2630.1 523.038 2618.9C480.338 2607 445.688 2587.05 419.088 2559.05C392.488 2531.05 373.238 2492.55 361.338 2443.55C349.438 2394.55 343.488 2332.95 343.488 2258.75C343.488 2183.85 349.438 2122.25 361.338 2073.95C373.238 2024.95 392.488 1986.45 419.088 1958.45C445.688 1930.45 480.338 1910.85 523.038 1899.65C566.438 1887.75 618.938 1881.8 680.538 1881.8ZM680.538 2050.85C654.638 2050.85 634.688 2056.45 620.688 2067.65C606.688 2078.85 596.888 2099.5 591.288 2129.6C585.688 2159.7 582.888 2202.75 582.888 2258.75C582.888 2314.75 585.688 2357.8 591.288 2387.9C596.888 2418 606.688 2438.65 620.688 2449.85C634.688 2461.05 654.638 2466.65 680.538 2466.65C706.438 2466.65 726.388 2461.05 740.388 2449.85C754.388 2438.65 764.188 2418 769.788 2387.9C775.388 2357.8 778.188 2314.75 778.188 2258.75C778.188 2202.75 775.388 2159.7 769.788 2129.6C764.188 2099.5 754.388 2078.85 740.388 2067.65C726.388 2056.45 706.438 2050.85 680.538 2050.85ZM1773.62 1896.5V2542.25C1773.62 2594.75 1747.37 2621 1694.87 2621H1607.72C1583.92 2621 1566.07 2615.4 1554.17 2604.2C1542.97 2593 1531.42 2576.55 1519.52 2554.85L1362.02 2306C1352.22 2287.8 1343.12 2268.2 1334.72 2247.2C1327.02 2225.5 1320.02 2203.8 1313.72 2182.1H1306.37C1309.87 2203.8 1312.32 2226.2 1313.72 2249.3C1315.82 2271.7 1316.87 2293.4 1316.87 2314.4V2621H1106.87V1975.25C1106.87 1922.75 1133.12 1896.5 1185.62 1896.5H1272.77C1296.57 1896.5 1314.07 1902.1 1325.27 1913.3C1336.47 1924.5 1348.37 1940.95 1360.97 1962.65L1512.17 2199.95C1521.97 2217.45 1531.42 2236.7 1540.52 2257.7C1550.32 2278.7 1559.42 2300.75 1567.82 2323.85H1575.17C1572.37 2301.45 1569.92 2279.4 1567.82 2257.7C1566.42 2236 1565.72 2214.3 1565.72 2192.6L1564.67 1896.5H1773.62Z" fill="#1A1D1A"/>
</g>
<defs>
<clipPath id="clip0_7_2337">
<rect width="1800" height="2900" fill="white"/>
</clipPath>
</defs>
</svg>
