<svg width="8800" height="1800" viewBox="0 0 8800 1800" fill="none" xmlns="http://www.w3.org/2000/svg">
<path d="M2020.8 1435V1711H1960V1435H2020.8ZM2132.4 1431L2132 1647.8C2132 1654.47 2134 1659.53 2138 1663C2142 1666.2 2147.86 1667.8 2155.6 1667.8H2171.6L2178.4 1707.8C2175.2 1709.4 2170.66 1710.73 2164.8 1711.8C2158.93 1713.13 2152.93 1714.07 2146.8 1714.6C2140.66 1715.4 2135.46 1715.8 2131.2 1715.8C2113.33 1715.8 2099.2 1711.13 2088.8 1701.8C2078.4 1692.47 2073.2 1679.4 2073.2 1662.6V1431H2132.4ZM2263.65 1431L2263.25 1647.8C2263.25 1654.47 2265.25 1659.53 2269.25 1663C2273.25 1666.2 2279.11 1667.8 2286.85 1667.8H2302.85L2309.65 1707.8C2306.45 1709.4 2301.91 1710.73 2296.05 1711.8C2290.18 1713.13 2284.18 1714.07 2278.05 1714.6C2271.91 1715.4 2266.71 1715.8 2262.45 1715.8C2244.58 1715.8 2230.45 1711.13 2220.05 1701.8C2209.65 1692.47 2204.45 1679.4 2204.45 1662.6V1431H2263.65ZM2393.3 1513.4V1643.4C2393.3 1651.67 2395.03 1657.53 2398.5 1661C2402.23 1664.47 2408.1 1666.2 2416.1 1666.2C2424.36 1666.2 2432.5 1664.73 2440.5 1661.8C2448.76 1658.6 2458.9 1653.67 2470.9 1647L2475.7 1679.4C2461.3 1691.93 2447.16 1701.27 2433.3 1707.4C2419.43 1713.53 2405.16 1716.6 2390.5 1716.6C2352.9 1716.6 2334.1 1698.2 2334.1 1661.4V1513.4H2393.3ZM2524.1 1513.4V1711H2477.3L2470.5 1672.2L2464.9 1666.6V1513.4H2524.1ZM2822.81 1508.2C2840.67 1508.2 2854.27 1512.87 2863.61 1522.2C2872.94 1531.53 2877.61 1545.13 2877.61 1563V1711H2818.81V1581.4C2818.81 1573.13 2817.21 1567.27 2814.01 1563.8C2810.81 1560.07 2805.21 1558.2 2797.21 1558.2C2792.41 1558.2 2787.87 1558.87 2783.61 1560.2C2779.34 1561.53 2774.41 1563.67 2768.81 1566.6C2763.21 1569.53 2756.41 1573.53 2748.41 1578.6L2745.21 1545.8C2758.01 1533.27 2770.54 1523.93 2782.81 1517.8C2795.34 1511.4 2808.67 1508.2 2822.81 1508.2ZM2619.61 1513.4L2625.61 1552.6L2631.61 1557.8V1711H2572.41V1513.4H2619.61ZM2699.61 1508.2C2717.21 1508.2 2730.54 1512.87 2739.61 1522.2C2748.94 1531.27 2753.61 1544.87 2753.61 1563V1711H2696.81V1581.4C2696.81 1572.87 2694.94 1566.87 2691.21 1563.4C2687.74 1559.93 2682.27 1558.2 2674.81 1558.2C2670.27 1558.2 2665.74 1558.87 2661.21 1560.2C2656.94 1561.27 2651.87 1563.27 2646.01 1566.2C2640.41 1569.13 2633.47 1573.27 2625.21 1578.6L2621.61 1545.8C2634.67 1533.27 2647.34 1523.93 2659.61 1517.8C2671.87 1511.4 2685.21 1508.2 2699.61 1508.2ZM2985.15 1513.4V1711H2926.35V1513.4H2985.15ZM2968.75 1426.2C2980.48 1426.2 2986.35 1432.2 2986.35 1444.2V1465.4C2986.35 1477.4 2980.48 1483.4 2968.75 1483.4H2943.15C2931.42 1483.4 2925.55 1477.4 2925.55 1465.4V1444.2C2925.55 1432.2 2931.42 1426.2 2943.15 1426.2H2968.75ZM3172.9 1508.2C3210.23 1508.2 3228.9 1526.47 3228.9 1563V1711H3169.7V1581.4C3169.7 1572.6 3168.1 1566.6 3164.9 1563.4C3161.7 1559.93 3156.23 1558.2 3148.5 1558.2C3139.96 1558.2 3131.16 1559.93 3122.1 1563.4C3113.03 1566.6 3101.83 1571.67 3088.5 1578.6L3085.7 1545.4C3099.83 1533.4 3114.23 1524.2 3128.9 1517.8C3143.83 1511.4 3158.5 1508.2 3172.9 1508.2ZM3082.9 1513.4L3089.7 1552.6L3094.5 1557.8V1711H3035.3V1513.4H3082.9ZM3379.93 1508.2C3396.46 1508.2 3410.46 1510.47 3421.93 1515C3433.4 1519.27 3442.06 1526.73 3447.93 1537.4C3454.06 1547.8 3457.13 1562.2 3457.13 1580.6V1711H3409.93L3401.53 1668.2L3397.53 1662.2V1580.2C3397.53 1570.87 3395.26 1564.07 3390.73 1559.8C3386.46 1555.53 3378.2 1553.4 3365.93 1553.4C3355.8 1553.4 3343.13 1553.8 3327.93 1554.6C3312.73 1555.13 3297.13 1555.93 3281.13 1557L3275.53 1517.8C3285.13 1515.93 3296.2 1514.33 3308.73 1513C3321.26 1511.67 3333.8 1510.6 3346.33 1509.8C3358.86 1508.73 3370.06 1508.2 3379.93 1508.2ZM3432.73 1589.4L3432.33 1622.6L3344.33 1623C3337.13 1623 3331.93 1624.73 3328.73 1628.2C3325.8 1631.67 3324.33 1636.33 3324.33 1642.2V1651.8C3324.33 1658.47 3326.2 1663.67 3329.93 1667.4C3333.66 1670.87 3339.66 1672.6 3347.93 1672.6C3354.86 1672.6 3362.33 1671.13 3370.33 1668.2C3378.6 1665.27 3386.73 1661.13 3394.73 1655.8C3402.73 1650.47 3409.8 1644.2 3415.93 1637V1662.6C3413.53 1666.6 3409.93 1671.67 3405.13 1677.8C3400.6 1683.67 3394.73 1689.53 3387.53 1695.4C3380.33 1701 3371.93 1705.8 3362.33 1709.8C3352.73 1713.8 3341.8 1715.8 3329.53 1715.8C3317.53 1715.8 3306.73 1713.67 3297.13 1709.4C3287.53 1705.13 3279.93 1698.87 3274.33 1690.6C3268.73 1682.33 3265.93 1672.07 3265.93 1659.8V1639.4C3265.93 1623.67 3271.26 1611.4 3281.93 1602.6C3292.6 1593.8 3307.26 1589.4 3325.93 1589.4H3432.73ZM3580.86 1458.6V1647.8C3580.86 1655 3582.46 1660.2 3585.66 1663.4C3589.12 1666.33 3594.72 1667.8 3602.46 1667.8H3628.06L3634.46 1707.8C3629.66 1709.4 3623.79 1710.73 3616.86 1711.8C3609.92 1713.13 3602.99 1714.07 3596.06 1714.6C3589.12 1715.4 3583.26 1715.8 3578.46 1715.8C3560.59 1715.8 3546.59 1711 3536.46 1701.4C3526.59 1691.8 3521.66 1678.33 3521.66 1661L3521.26 1458.6H3580.86ZM3636.06 1513.4V1552.2H3486.86V1515.4L3525.26 1513.4H3636.06ZM3728.12 1513.4V1711H3669.32V1513.4H3728.12ZM3711.72 1426.2C3723.45 1426.2 3729.32 1432.2 3729.32 1444.2V1465.4C3729.32 1477.4 3723.45 1483.4 3711.72 1483.4H3686.12C3674.39 1483.4 3668.52 1477.4 3668.52 1465.4V1444.2C3668.52 1432.2 3674.39 1426.2 3686.12 1426.2H3711.72ZM3915.87 1508.2C3953.2 1508.2 3971.87 1526.47 3971.87 1563V1711H3912.67V1581.4C3912.67 1572.6 3911.07 1566.6 3907.87 1563.4C3904.67 1559.93 3899.2 1558.2 3891.47 1558.2C3882.93 1558.2 3874.13 1559.93 3865.07 1563.4C3856 1566.6 3844.8 1571.67 3831.47 1578.6L3828.67 1545.4C3842.8 1533.4 3857.2 1524.2 3871.87 1517.8C3886.8 1511.4 3901.47 1508.2 3915.87 1508.2ZM3825.87 1513.4L3832.67 1552.6L3837.47 1557.8V1711H3778.27V1513.4H3825.87ZM4106.5 1508.2C4129.43 1508.2 4147.57 1510.33 4160.9 1514.6C4174.5 1518.87 4184.23 1525.53 4190.1 1534.6C4196.23 1543.67 4199.3 1555.8 4199.3 1571C4199.3 1585.67 4196.37 1597.67 4190.5 1607C4184.63 1616.07 4174.77 1622.73 4160.9 1627C4147.3 1631.27 4129.03 1633.4 4106.1 1633.4C4083.17 1633.4 4064.77 1631.27 4050.9 1627C4037.3 1622.73 4027.43 1616.07 4021.3 1607C4015.43 1597.93 4012.5 1585.93 4012.5 1571C4012.5 1556.07 4015.43 1544.07 4021.3 1535C4027.43 1525.67 4037.43 1518.87 4051.3 1514.6C4065.17 1510.33 4083.57 1508.2 4106.5 1508.2ZM4106.1 1544.6C4091.43 1544.6 4081.3 1546.6 4075.7 1550.6C4070.1 1554.33 4067.3 1561.13 4067.3 1571C4067.3 1580.87 4070.1 1587.8 4075.7 1591.8C4081.3 1595.8 4091.43 1597.8 4106.1 1597.8C4120.77 1597.8 4130.77 1595.8 4136.1 1591.8C4141.43 1587.8 4144.1 1580.87 4144.1 1571C4144.1 1561.13 4141.43 1554.33 4136.1 1550.6C4130.77 1546.6 4120.77 1544.6 4106.1 1544.6ZM4222.1 1513.4L4218.9 1538.6L4166.1 1545.4L4151.7 1513.4H4222.1ZM4046.5 1621.4L4076.1 1626.6C4072.37 1628.73 4069.7 1632.07 4068.1 1636.6C4066.77 1641.13 4067.17 1645.4 4069.3 1649.4C4071.43 1653.4 4076.1 1655.8 4083.3 1656.6L4156.1 1665C4176.9 1667.13 4191.57 1673 4200.1 1682.6C4208.63 1691.93 4212.9 1705.67 4212.9 1723.8C4212.9 1740.87 4209.43 1753.93 4202.5 1763C4195.57 1772.33 4184.5 1778.73 4169.3 1782.2C4154.1 1785.67 4133.83 1787.4 4108.5 1787.4C4087.7 1787.4 4070.5 1786.33 4056.9 1784.2C4043.57 1782.33 4032.9 1779.13 4024.9 1774.6C4017.17 1770.07 4011.7 1764.07 4008.5 1756.6C4005.57 1749.4 4004.1 1740.33 4004.1 1729.4C4004.1 1721.13 4005.57 1714.07 4008.5 1708.2C4011.43 1702.07 4016.37 1696.6 4023.3 1691.8C4030.5 1687 4040.5 1682.6 4053.3 1678.6L4082.5 1668.2L4103.7 1676.6L4087.7 1687C4081.03 1691.8 4075.57 1695.93 4071.3 1699.4C4067.3 1702.6 4064.37 1705.8 4062.5 1709C4060.9 1712.2 4060.1 1716.47 4060.1 1721.8C4060.1 1727.93 4061.43 1732.6 4064.1 1735.8C4066.77 1739.27 4071.57 1741.53 4078.5 1742.6C4085.7 1743.93 4095.43 1744.6 4107.7 1744.6C4120.5 1744.6 4130.5 1743.93 4137.7 1742.6C4144.9 1741.53 4149.83 1739.4 4152.5 1736.2C4155.43 1733 4156.9 1728.47 4156.9 1722.6C4156.9 1717.53 4155.83 1713.8 4153.7 1711.4C4151.83 1709 4148.5 1707.27 4143.7 1706.2C4139.17 1704.87 4132.77 1703.67 4124.5 1702.6L4062.5 1695.8C4052.1 1694.73 4043.97 1691.93 4038.1 1687.4C4032.23 1682.87 4028.1 1677.4 4025.7 1671C4023.57 1664.33 4023.03 1657.67 4024.1 1651C4025.17 1644.33 4027.57 1638.33 4031.3 1633C4035.3 1627.67 4040.37 1623.8 4046.5 1621.4ZM4407.81 1458.6V1647.8C4407.81 1655 4409.41 1660.2 4412.61 1663.4C4416.08 1666.33 4421.68 1667.8 4429.41 1667.8H4455.01L4461.41 1707.8C4456.61 1709.4 4450.74 1710.73 4443.81 1711.8C4436.88 1713.13 4429.94 1714.07 4423.01 1714.6C4416.08 1715.4 4410.21 1715.8 4405.41 1715.8C4387.54 1715.8 4373.54 1711 4363.41 1701.4C4353.54 1691.8 4348.61 1678.33 4348.61 1661L4348.21 1458.6H4407.81ZM4463.01 1513.4V1552.2H4313.81V1515.4L4352.21 1513.4H4463.01ZM4632.27 1508.2C4669.61 1508.2 4688.27 1526.47 4688.27 1563V1711H4628.67V1581.4C4628.67 1572.6 4627.07 1566.6 4623.87 1563.4C4620.94 1559.93 4615.61 1558.2 4607.87 1558.2C4599.34 1558.2 4590.54 1559.8 4581.47 1563C4572.41 1566.2 4561.21 1571.4 4547.87 1578.6L4542.67 1547.8C4557.34 1535 4572.27 1525.27 4587.47 1518.6C4602.67 1511.67 4617.61 1508.2 4632.27 1508.2ZM4553.87 1431L4554.27 1499.4C4554.27 1509.8 4553.61 1519.67 4552.27 1529C4551.21 1538.33 4549.87 1546.2 4548.27 1552.6L4553.87 1557.8V1711H4494.67V1431H4553.87ZM4828.51 1508.2C4861.84 1508.2 4885.71 1513.93 4900.11 1525.4C4914.77 1536.6 4922.11 1553.4 4922.11 1575.8C4922.37 1593.93 4917.84 1607.53 4908.51 1616.6C4899.17 1625.4 4883.04 1629.8 4860.11 1629.8H4749.71V1596.6H4843.71C4852.77 1596.6 4858.51 1594.73 4860.91 1591C4863.57 1587 4864.91 1581.53 4864.91 1574.6C4864.64 1565.27 4861.84 1558.87 4856.51 1555.4C4851.44 1551.67 4842.77 1549.8 4830.51 1549.8C4819.57 1549.8 4811.04 1551.27 4804.91 1554.2C4798.77 1557.13 4794.51 1562.73 4792.11 1571C4789.71 1579.27 4788.51 1591.27 4788.51 1607C4788.51 1623.53 4789.97 1636.33 4792.91 1645.4C4795.84 1654.2 4800.77 1660.33 4807.71 1663.8C4814.91 1667.27 4824.77 1669 4837.31 1669C4846.37 1669 4857.57 1668.73 4870.91 1668.2C4884.51 1667.4 4898.11 1666.2 4911.71 1664.6L4917.31 1701C4909.57 1704.73 4900.77 1707.67 4890.91 1709.8C4881.04 1711.93 4870.91 1713.4 4860.51 1714.2C4850.11 1715.27 4840.11 1715.8 4830.51 1715.8C4805.44 1715.8 4785.17 1712.2 4769.71 1705C4754.51 1697.53 4743.44 1686.2 4736.51 1671C4729.84 1655.8 4726.51 1636.33 4726.51 1612.6C4726.51 1586.73 4729.97 1566.2 4736.91 1551C4743.84 1535.8 4754.77 1524.87 4769.71 1518.2C4784.64 1511.53 4804.24 1508.2 4828.51 1508.2ZM5141.82 1429.8C5155.42 1429.8 5170.22 1430.6 5186.22 1432.2C5202.22 1433.53 5217.82 1436.47 5233.02 1441L5229.02 1481.4C5217.28 1481.13 5203.55 1480.87 5187.82 1480.6C5172.08 1480.33 5156.62 1480.2 5141.42 1480.2C5133.95 1480.2 5127.55 1480.47 5122.22 1481C5117.15 1481.27 5113.02 1482.33 5109.82 1484.2C5106.62 1485.8 5104.35 1488.33 5103.02 1491.8C5101.68 1495.27 5101.02 1500.07 5101.02 1506.2C5101.02 1515.53 5103.15 1522.33 5107.42 1526.6C5111.95 1530.87 5119.55 1534.73 5130.22 1538.2L5183.42 1555.4C5205.55 1562.87 5220.88 1573 5229.42 1585.8C5237.95 1598.6 5242.22 1615.4 5242.22 1636.2C5242.22 1651.93 5240.35 1665 5236.62 1675.4C5232.88 1685.8 5227.02 1693.93 5219.02 1699.8C5211.02 1705.67 5200.48 1709.8 5187.42 1712.2C5174.35 1714.87 5158.35 1716.2 5139.42 1716.2C5130.35 1716.2 5117.42 1715.53 5100.62 1714.2C5083.82 1713.13 5064.62 1710.2 5043.02 1705.4L5047.02 1662.2C5062.75 1662.47 5076.35 1662.87 5087.82 1663.4C5099.55 1663.67 5109.55 1663.93 5117.82 1664.2C5126.08 1664.2 5133.28 1664.2 5139.42 1664.2C5150.08 1664.2 5158.35 1663.53 5164.22 1662.2C5170.35 1660.87 5174.62 1658.2 5177.02 1654.2C5179.42 1650.2 5180.62 1644.47 5180.62 1637C5180.62 1630.6 5179.68 1625.53 5177.82 1621.8C5176.22 1617.8 5173.42 1614.73 5169.42 1612.6C5165.68 1610.2 5160.48 1608.07 5153.82 1606.2L5097.82 1587C5076.75 1579.27 5061.82 1569.13 5053.02 1556.6C5044.22 1544.07 5039.82 1527.53 5039.82 1507C5039.82 1491 5041.68 1478.07 5045.42 1468.2C5049.42 1458.07 5055.42 1450.2 5063.42 1444.6C5071.68 1439 5082.22 1435.13 5095.02 1433C5108.08 1430.87 5123.68 1429.8 5141.82 1429.8ZM5418.99 1508.2C5456.32 1508.2 5474.99 1526.47 5474.99 1563V1711H5415.39V1581.4C5415.39 1572.6 5413.79 1566.6 5410.59 1563.4C5407.66 1559.93 5402.32 1558.2 5394.59 1558.2C5386.06 1558.2 5377.26 1559.8 5368.19 1563C5359.12 1566.2 5347.92 1571.4 5334.59 1578.6L5329.39 1547.8C5344.06 1535 5358.99 1525.27 5374.19 1518.6C5389.39 1511.67 5404.32 1508.2 5418.99 1508.2ZM5340.59 1431L5340.99 1499.4C5340.99 1509.8 5340.32 1519.67 5338.99 1529C5337.92 1538.33 5336.59 1546.2 5334.99 1552.6L5340.59 1557.8V1711H5281.39V1431H5340.59ZM5615.63 1508.2C5640.43 1508.2 5660.29 1511.67 5675.23 1518.6C5690.16 1525.27 5700.83 1536.2 5707.23 1551.4C5713.89 1566.6 5717.23 1587 5717.23 1612.6C5717.23 1637.67 5713.89 1657.8 5707.23 1673C5700.83 1688.2 5690.16 1699.13 5675.23 1705.8C5660.29 1712.47 5640.43 1715.8 5615.63 1715.8C5591.09 1715.8 5571.23 1712.47 5556.03 1705.8C5541.09 1699.13 5530.29 1688.2 5523.63 1673C5516.96 1657.8 5513.63 1637.67 5513.63 1612.6C5513.63 1587 5516.96 1566.6 5523.63 1551.4C5530.29 1536.2 5541.09 1525.27 5556.03 1518.6C5571.23 1511.67 5591.09 1508.2 5615.63 1508.2ZM5615.63 1551.4C5605.49 1551.4 5597.49 1553.13 5591.63 1556.6C5585.76 1560.07 5581.63 1566.2 5579.23 1575C5576.83 1583.8 5575.63 1596.33 5575.63 1612.6C5575.63 1628.6 5576.83 1641 5579.23 1649.8C5581.63 1658.6 5585.76 1664.73 5591.63 1668.2C5597.49 1671.4 5605.49 1673 5615.63 1673C5625.76 1673 5633.76 1671.4 5639.63 1668.2C5645.49 1664.73 5649.63 1658.6 5652.03 1649.8C5654.43 1641 5655.63 1628.6 5655.63 1612.6C5655.63 1596.33 5654.43 1583.8 5652.03 1575C5649.63 1566.2 5645.49 1560.07 5639.63 1556.6C5633.76 1553.13 5625.76 1551.4 5615.63 1551.4ZM6065.21 1513.4L6016.41 1695.4C6015.34 1700.2 6012.94 1704.07 6009.21 1707C6005.48 1709.67 6001.08 1711 5996.01 1711H5951.21C5945.88 1711 5941.21 1709.4 5937.21 1706.2C5933.21 1702.73 5930.81 1698.33 5930.01 1693L5908.41 1581.8C5907.61 1576.2 5906.94 1570.73 5906.41 1565.4C5905.88 1559.8 5905.08 1554.2 5904.01 1548.6H5899.21C5898.41 1554.2 5897.61 1559.8 5896.81 1565.4C5896.01 1570.73 5895.21 1576.2 5894.41 1581.8L5872.81 1693C5872.01 1698.33 5869.61 1702.73 5865.61 1706.2C5861.61 1709.4 5856.94 1711 5851.61 1711H5807.21C5802.14 1711 5797.74 1709.67 5794.01 1707C5790.28 1704.07 5787.88 1700.2 5786.81 1695.4L5738.01 1513.4H5797.61L5824.81 1641.4C5825.88 1646.73 5826.81 1652.2 5827.61 1657.8C5828.41 1663.13 5829.08 1668.47 5829.61 1673.8H5834.81C5835.61 1668.47 5836.41 1663.13 5837.21 1657.8C5838.28 1652.2 5839.21 1646.73 5840.01 1641.4L5861.61 1531.4C5862.41 1526.07 5864.68 1521.8 5868.41 1518.6C5872.14 1515.13 5876.81 1513.4 5882.41 1513.4H5920.81C5926.14 1513.4 5930.68 1515.13 5934.41 1518.6C5938.41 1521.8 5940.81 1526.2 5941.61 1531.8L5962.81 1641.4C5963.61 1646.73 5964.54 1652.07 5965.61 1657.4C5966.68 1662.73 5967.61 1668.2 5968.41 1673.8H5973.21C5974.28 1668.2 5975.08 1662.87 5975.61 1657.8C5976.41 1652.47 5977.34 1647 5978.41 1641.4L6005.61 1513.4H6065.21Z" fill="#AB87FF"/>
<path d="M2146.4 107V659H1974.4V107H2146.4ZM2471.43 95.8C2518.9 95.8 2558.9 100.333 2591.43 109.4C2624.5 117.933 2651.16 132.867 2671.43 154.2C2691.7 175.533 2706.36 204.867 2715.43 242.2C2724.5 279 2729.03 325.933 2729.03 383C2729.03 439.533 2724.5 486.467 2715.43 523.8C2706.36 561.133 2691.7 590.467 2671.43 611.8C2651.16 633.133 2624.5 648.333 2591.43 657.4C2558.9 665.933 2518.9 670.2 2471.43 670.2C2424.5 670.2 2384.5 665.933 2351.43 657.4C2318.9 648.333 2292.5 633.133 2272.23 611.8C2251.96 590.467 2237.3 561.133 2228.23 523.8C2219.16 486.467 2214.63 439.533 2214.63 383C2214.63 325.933 2219.16 279 2228.23 242.2C2237.3 204.867 2251.96 175.533 2272.23 154.2C2292.5 132.867 2318.9 117.933 2351.43 109.4C2384.5 100.333 2424.5 95.8 2471.43 95.8ZM2471.43 224.6C2451.7 224.6 2436.5 228.867 2425.83 237.4C2415.16 245.933 2407.7 261.667 2403.43 284.6C2399.16 307.533 2397.03 340.333 2397.03 383C2397.03 425.667 2399.16 458.467 2403.43 481.4C2407.7 504.333 2415.16 520.067 2425.83 528.6C2436.5 537.133 2451.7 541.4 2471.43 541.4C2491.16 541.4 2506.36 537.133 2517.03 528.6C2527.7 520.067 2535.16 504.333 2539.43 481.4C2543.7 458.467 2545.83 425.667 2545.83 383C2545.83 340.333 2543.7 307.533 2539.43 284.6C2535.16 261.667 2527.7 245.933 2517.03 237.4C2506.36 228.867 2491.16 224.6 2471.43 224.6ZM3304.26 107V599C3304.26 639 3284.26 659 3244.26 659H3177.86C3159.72 659 3146.12 654.733 3137.06 646.2C3128.52 637.667 3119.72 625.133 3110.66 608.6L2990.66 419C2983.19 405.133 2976.26 390.2 2969.86 374.2C2963.99 357.667 2958.66 341.133 2953.86 324.6H2948.26C2950.92 341.133 2952.79 358.2 2953.86 375.8C2955.46 392.867 2956.26 409.4 2956.26 425.4V659H2796.26V167C2796.26 127 2816.26 107 2856.26 107H2922.66C2940.79 107 2954.12 111.267 2962.66 119.8C2971.19 128.333 2980.26 140.867 2989.86 157.4L3105.06 338.2C3112.52 351.533 3119.72 366.2 3126.66 382.2C3134.12 398.2 3141.06 415 3147.46 432.6H3153.06C3150.92 415.533 3149.06 398.733 3147.46 382.2C3146.39 365.667 3145.86 349.133 3145.86 332.6L3145.06 107H3304.26ZM2099.2 753.8C2131.2 753.8 2164 754.067 2197.6 754.6C2231.73 754.6 2265.07 755.4 2297.6 757C2330.13 758.067 2359.73 760.467 2386.4 764.2L2378.4 886.6H2176C2165.87 886.6 2157.87 889.267 2152 894.6C2146.13 899.933 2143.2 906.867 2143.2 915.4V1150.6C2143.2 1159.13 2146.13 1166.07 2152 1171.4C2157.87 1176.73 2165.87 1179.4 2176 1179.4H2378.4L2386.4 1301.8C2359.73 1305 2330.13 1307.4 2297.6 1309C2265.07 1310.6 2231.73 1311.4 2197.6 1311.4C2164 1311.93 2131.2 1312.2 2099.2 1312.2C2061.33 1312.2 2030.13 1300.73 2005.6 1277.8C1981.6 1254.33 1969.6 1223.93 1969.6 1186.6V879.4C1969.6 842.067 1981.6 811.933 2005.6 789C2030.13 765.533 2061.33 753.8 2099.2 753.8ZM1984 969H2349.6V1084.2H1984V969ZM2958.16 757V1249C2958.16 1289 2938.16 1309 2898.16 1309H2831.76C2813.63 1309 2800.03 1304.73 2790.96 1296.2C2782.43 1287.67 2773.63 1275.13 2764.56 1258.6L2644.56 1069C2637.1 1055.13 2630.16 1040.2 2623.76 1024.2C2617.9 1007.67 2612.56 991.133 2607.76 974.6H2602.16C2604.83 991.133 2606.7 1008.2 2607.76 1025.8C2609.36 1042.87 2610.16 1059.4 2610.16 1075.4V1309H2450.16V817C2450.16 777 2470.16 757 2510.16 757H2576.56C2594.7 757 2608.03 761.267 2616.56 769.8C2625.1 778.333 2634.16 790.867 2643.76 807.4L2758.96 988.2C2766.43 1001.53 2773.63 1016.2 2780.56 1032.2C2788.03 1048.2 2794.96 1065 2801.36 1082.6H2806.96C2804.83 1065.53 2802.96 1048.73 2801.36 1032.2C2800.3 1015.67 2799.76 999.133 2799.76 982.6L2798.96 757H2958.16ZM3335.19 757V1309H3161.59V757H3335.19ZM3489.59 757V886.6H3007.19V757H3489.59ZM3664.83 753.8C3696.83 753.8 3729.63 754.067 3763.23 754.6C3797.36 754.6 3830.69 755.4 3863.23 757C3895.76 758.067 3925.36 760.467 3952.03 764.2L3944.03 886.6H3741.63C3731.49 886.6 3723.49 889.267 3717.63 894.6C3711.76 899.933 3708.82 906.867 3708.82 915.4V1150.6C3708.82 1159.13 3711.76 1166.07 3717.63 1171.4C3723.49 1176.73 3731.49 1179.4 3741.63 1179.4H3944.03L3952.03 1301.8C3925.36 1305 3895.76 1307.4 3863.23 1309C3830.69 1310.6 3797.36 1311.4 3763.23 1311.4C3729.63 1311.93 3696.83 1312.2 3664.83 1312.2C3626.96 1312.2 3595.76 1300.73 3571.23 1277.8C3547.23 1254.33 3535.23 1223.93 3535.23 1186.6V879.4C3535.23 842.067 3547.23 811.933 3571.23 789C3595.76 765.533 3626.96 753.8 3664.83 753.8ZM3549.63 969H3915.23V1084.2H3549.63V969ZM4250.19 749C4304.59 749 4348.85 754.067 4382.99 764.2C4417.12 774.333 4442.19 791.667 4458.19 816.2C4474.72 840.2 4482.99 873.8 4482.99 917C4482.99 938.867 4479.52 959.4 4472.59 978.6C4466.19 997.267 4454.72 1012.73 4438.19 1025C4422.19 1037.27 4399.79 1045 4370.99 1048.2V1053C4381.12 1054.07 4392.32 1057.27 4404.59 1062.6C4416.85 1067.4 4428.32 1075.93 4438.99 1088.2C4449.65 1099.93 4457.12 1117 4461.39 1139.4L4504.59 1309H4322.99L4286.99 1145C4283.79 1129.53 4278.72 1119.4 4271.79 1114.6C4265.39 1109.8 4254.72 1107.4 4239.79 1107.4C4199.79 1106.87 4166.99 1106.6 4141.39 1106.6C4116.32 1106.6 4094.99 1106.33 4077.39 1105.8C4059.79 1105.27 4042.19 1104.47 4024.59 1103.4L4026.99 985H4246.19C4262.72 985 4275.52 983.4 4284.59 980.2C4293.65 977 4299.79 971.4 4302.99 963.4C4306.72 954.867 4308.59 943.133 4308.59 928.2C4308.59 912.733 4306.72 901 4302.99 893C4299.79 885 4293.65 879.4 4284.59 876.2C4275.52 873 4262.72 871.4 4246.19 871.4C4190.72 871.4 4144.05 871.667 4106.19 872.2C4068.32 872.733 4042.45 873.8 4028.59 875.4L4015.79 757C4040.32 754.333 4063.25 752.467 4084.59 751.4C4106.45 750.333 4130.19 749.8 4155.79 749.8C4181.92 749.267 4213.39 749 4250.19 749ZM4186.19 757V1309H4015.79V757H4186.19ZM4846.91 757V1309H4673.31V757H4846.91ZM5001.31 757V886.6H4518.91V757H5001.31ZM5315.25 757C5329.12 757 5341.38 761 5352.05 769C5362.72 777 5369.92 787.933 5373.65 801.8L5516.85 1309H5340.05L5256.85 949.8C5254.72 939.667 5252.85 929.267 5251.25 918.6C5249.65 907.4 5248.32 896.733 5247.25 886.6H5225.65C5224.58 896.733 5223.25 907.4 5221.65 918.6C5220.05 929.267 5218.18 939.667 5216.05 949.8L5132.85 1309H4956.05L5099.25 801.8C5102.98 787.933 5110.18 777 5120.85 769C5131.52 761 5143.78 757 5157.65 757H5315.25ZM5383.25 1068.2V1189.8H5089.65V1068.2H5383.25ZM5723.74 757V1309H5551.74V757H5723.74ZM6315.98 757V1249C6315.98 1289 6295.98 1309 6255.98 1309H6189.58C6171.44 1309 6157.84 1304.73 6148.78 1296.2C6140.24 1287.67 6131.44 1275.13 6122.38 1258.6L6002.38 1069C5994.91 1055.13 5987.98 1040.2 5981.58 1024.2C5975.71 1007.67 5970.38 991.133 5965.58 974.6H5959.98C5962.64 991.133 5964.51 1008.2 5965.58 1025.8C5967.18 1042.87 5967.98 1059.4 5967.98 1075.4V1309H5807.98V817C5807.98 777 5827.98 757 5867.98 757H5934.38C5952.51 757 5965.84 761.267 5974.38 769.8C5982.91 778.333 5991.98 790.867 6001.57 807.4L6116.78 988.2C6124.24 1001.53 6131.44 1016.2 6138.38 1032.2C6145.84 1048.2 6152.78 1065 6159.18 1082.6H6164.78C6162.64 1065.53 6160.78 1048.73 6159.18 1032.2C6158.11 1015.67 6157.58 999.133 6157.58 982.6L6156.78 757H6315.98ZM7006.6 757C7045.53 757 7065.8 777 7067.4 817L7086.6 1309H6930.6L6913.8 886.6H6901.8L6847.4 1168.2C6842.07 1203.4 6820.2 1221 6781.8 1221H6692.2C6654.33 1221 6632.2 1203.4 6625.8 1168.2L6570.6 886.6H6558.6L6545 1309H6389L6408.2 817C6409.8 777 6430.07 757 6469 757H6618.6C6655.93 757 6677.8 774.867 6684.2 810.6L6724.2 1029.8C6726.33 1043.13 6727.93 1056.73 6729 1070.6C6730.6 1084.47 6731.93 1098.33 6733 1112.2H6740.2C6741.8 1098.33 6743.13 1084.47 6744.2 1070.6C6745.8 1056.73 6747.67 1043.13 6749.8 1029.8L6787.4 810.6C6793.8 774.867 6815.93 757 6853.8 757H7006.6ZM7285.92 753.8C7317.92 753.8 7350.72 754.067 7384.32 754.6C7418.45 754.6 7451.79 755.4 7484.32 757C7516.85 758.067 7546.45 760.467 7573.12 764.2L7565.12 886.6H7362.72C7352.59 886.6 7344.59 889.267 7338.72 894.6C7332.85 899.933 7329.92 906.867 7329.92 915.4V1150.6C7329.92 1159.13 7332.85 1166.07 7338.72 1171.4C7344.59 1176.73 7352.59 1179.4 7362.72 1179.4H7565.12L7573.12 1301.8C7546.45 1305 7516.85 1307.4 7484.32 1309C7451.79 1310.6 7418.45 1311.4 7384.32 1311.4C7350.72 1311.93 7317.92 1312.2 7285.92 1312.2C7248.05 1312.2 7216.85 1300.73 7192.32 1277.8C7168.32 1254.33 7156.32 1223.93 7156.32 1186.6V879.4C7156.32 842.067 7168.32 811.933 7192.32 789C7216.85 765.533 7248.05 753.8 7285.92 753.8ZM7170.72 969H7536.32V1084.2H7170.72V969ZM8144.88 757V1249C8144.88 1289 8124.88 1309 8084.88 1309H8018.48C8000.35 1309 7986.75 1304.73 7977.68 1296.2C7969.15 1287.67 7960.35 1275.13 7951.28 1258.6L7831.28 1069C7823.81 1055.13 7816.88 1040.2 7810.48 1024.2C7804.61 1007.67 7799.28 991.133 7794.48 974.6H7788.88C7791.55 991.133 7793.41 1008.2 7794.48 1025.8C7796.08 1042.87 7796.88 1059.4 7796.88 1075.4V1309H7636.88V817C7636.88 777 7656.88 757 7696.88 757H7763.28C7781.41 757 7794.75 761.267 7803.28 769.8C7811.81 778.333 7820.88 790.867 7830.48 807.4L7945.68 988.2C7953.15 1001.53 7960.35 1016.2 7967.28 1032.2C7974.75 1048.2 7981.68 1065 7988.08 1082.6H7993.68C7991.55 1065.53 7989.68 1048.73 7988.08 1032.2C7987.01 1015.67 7986.48 999.133 7986.48 982.6L7985.68 757H8144.88ZM8521.91 757V1309H8348.31V757H8521.91ZM8676.31 757V886.6H8193.91V757H8676.31Z" fill="#1A1D1A"/>
<path d="M1183.31 0C1117.91 46.1441 1050.88 96.7095 983.005 151.081C974.99 157.502 966.968 163.972 958.942 170.488C1009.87 213.415 1060.89 258.112 1111.65 304.291C1251.12 192.804 1384.23 100.237 1503.34 31.2764C1522.48 20.1971 1541.08 9.83035 1559.12 0.164062C1690.16 4.86479 1795.49 110.406 1799.86 241.521C1790.25 259.44 1779.96 277.906 1768.96 296.9C1699.41 417.04 1605.84 551.416 1493.06 692.198C1380.4 832.839 1251.53 976.182 1113.85 1113.86C1061.85 1165.86 1009.03 1216.61 955.865 1265.7C1006.76 1311.24 1057.79 1355.08 1108.55 1396.87C1157.97 1350.86 1206.98 1303.57 1255.27 1255.28C1397.75 1112.8 1531.58 964.017 1649.16 817.238C1703.44 749.48 1753.92 682.558 1800 617.266V1550C1800 1688.07 1688.07 1800 1550 1800H617.27C682.559 1753.92 749.476 1703.44 817.231 1649.16C825.247 1642.74 833.267 1636.27 841.294 1629.75C790.281 1586.76 739.268 1542.05 688.587 1495.95C549.115 1607.44 416.008 1700.01 296.894 1768.97C277.903 1779.96 259.441 1790.25 241.526 1799.86C110.407 1795.49 4.86339 1690.16 0.164062 1559.12C9.82974 1541.08 20.1959 1522.48 31.2744 1503.34C100.829 1383.2 194.398 1248.83 307.173 1108.05C419.835 967.405 548.706 824.062 686.384 686.385C738.389 634.38 791.203 583.632 844.373 534.539C793.213 488.764 742.177 444.942 691.681 403.374C642.266 449.38 593.252 496.675 544.963 544.964C402.485 687.442 268.658 836.228 151.08 983.006C96.709 1050.88 46.144 1117.91 0 1183.31V250C8.24675e-06 111.929 111.929 8.24875e-06 250 0H1183.31Z" fill="#1A1D1A"/>
<mask id="mask0_7_2915" style="mask-type:alpha" maskUnits="userSpaceOnUse" x="0" y="0" width="1800" height="1800">
<rect x="0.5" y="0.5" width="1799" height="1799" rx="249.5" fill="#0A0A14" stroke="#0A0A14"/>
</mask>
<g mask="url(#mask0_7_2915)">
<path d="M534.541 955.87C583.634 1009.04 634.38 1061.85 686.385 1113.86L686.381 1113.86C824.057 1251.54 967.398 1380.41 1108.04 1493.07C1248.82 1605.84 1383.2 1699.41 1503.34 1768.97C1624.57 1839.15 1724.23 1880.75 1797.92 1896.72C1876.43 1913.74 1895.93 1896.23 1896.08 1896.09L2037.5 2037.51C1962.92 2112.08 1853.26 2113.36 1755.56 2092.19C1653.02 2069.97 1532.82 2017.14 1403.13 1942.05C1272.34 1866.33 1129.63 1766.63 982.998 1649.16C836.22 1531.58 687.434 1397.76 544.956 1255.28L544.96 1255.28C496.672 1206.99 449.378 1157.97 403.373 1108.56C445.161 1057.8 489.003 1006.76 534.541 955.87ZM1629.75 958.944C1754.88 1113.06 1861.71 1264.36 1942.05 1403.14C2017.91 1534.16 2070.16 1653.93 2092.19 1755.57C2113.08 1852 2112.63 1962.38 2037.51 2037.51L1896.09 1896.09C1896.4 1895.77 1913.65 1876.07 1896.72 1797.93C1880.92 1725 1839.81 1625.7 1768.97 1503.34C1699.04 1382.56 1605.98 1249.3 1495.95 1111.65C1542.05 1060.97 1586.76 1009.96 1629.75 958.944ZM1255.28 544.965C1303.69 593.375 1350.97 642.388 1396.87 691.684C1355.08 742.445 1311.24 793.477 1265.7 844.371C1216.84 791.452 1166.12 738.644 1113.86 686.386L1255.28 544.965ZM-237.272 -237.264C-162.147 -312.389 -51.7644 -312.838 44.665 -291.941C146.306 -269.916 266.072 -217.665 397.098 -141.808C660.189 10.5084 968.298 257.993 1255.27 544.965L1113.85 686.386C835.022 407.559 540.568 172.354 296.891 31.2773C174.532 -39.5618 75.2396 -80.6743 2.30859 -96.4785C-75.5629 -113.353 -95.4 -96.2764 -95.8477 -95.8467L-95.8438 -95.8428C-95.9851 -95.7005 -113.494 -76.1986 -96.4795 2.31738C-80.5108 76.0073 -38.9096 175.669 31.2764 296.899C100.237 416.014 192.804 549.12 304.291 688.592C258.188 739.273 213.485 790.285 170.488 841.298C163.972 833.272 157.502 825.252 151.081 817.237C33.6162 670.601 -66.0903 527.893 -141.809 397.106C-216.895 267.411 -269.721 147.216 -291.942 44.6738C-313.113 -53.0212 -311.84 -162.685 -237.269 -237.26L-237.272 -237.264Z" fill="#AB87FF"/>
</g>
</svg>
