<svg width="5250" height="2000" viewBox="0 0 5250 2000" fill="none" xmlns="http://www.w3.org/2000/svg">
<path d="M2165.13 1555.12C2179.13 1555.12 2193.25 1555.25 2207.5 1555.5C2221.75 1555.5 2235.75 1555.75 2249.5 1556.25C2263.25 1556.75 2276.13 1557.62 2288.13 1558.87L2285.5 1600.5H2186.13C2179.88 1600.5 2175.13 1602.12 2171.88 1605.37C2168.88 1608.62 2167.38 1613.37 2167.38 1619.62V1751.62C2167.38 1757.87 2168.88 1762.62 2171.88 1765.87C2175.13 1769.12 2179.88 1770.75 2186.13 1770.75H2285.5L2288.13 1812.37C2276.13 1813.37 2263.25 1814.25 2249.5 1815C2235.75 1815.5 2221.75 1815.75 2207.5 1815.75C2193.25 1816 2179.13 1816.13 2165.13 1816.13C2148.63 1816.13 2135.25 1811.37 2125 1801.87C2115 1792.12 2110 1779.5 2110 1764V1607.25C2110 1591.5 2115 1578.87 2125 1569.37C2135.25 1559.87 2148.63 1555.12 2165.13 1555.12ZM2116.75 1660.12H2271.63V1700.62H2116.75V1660.12ZM2547.67 1556.25V1794.37C2547.67 1808.12 2540.8 1815 2527.05 1815H2495.55C2489.3 1815 2484.55 1813.62 2481.3 1810.87C2478.05 1807.87 2475.05 1803.5 2472.3 1797.75L2400.67 1662C2397.67 1656.25 2394.67 1649.87 2391.67 1642.87C2388.92 1635.87 2386.55 1629.12 2384.55 1622.62H2380.42C2381.17 1629.37 2381.8 1636.25 2382.3 1643.25C2382.8 1650 2383.05 1656.75 2383.05 1663.5V1815H2328.67V1576.87C2328.67 1563.12 2335.67 1556.25 2349.67 1556.25H2380.8C2386.8 1556.25 2391.3 1557.75 2394.3 1560.75C2397.55 1563.5 2400.67 1567.75 2403.67 1573.5L2473.05 1705.12C2476.05 1710.87 2479.17 1717.25 2482.42 1724.25C2485.67 1731.25 2488.8 1738.5 2491.8 1746H2496.3C2495.55 1738.5 2494.92 1731.25 2494.42 1724.25C2494.17 1717 2494.05 1709.87 2494.05 1702.87L2493.67 1556.25H2547.67ZM2714.8 1556.25V1815H2657.43V1556.25H2714.8ZM2792.8 1556.25V1601.25H2579.8V1556.25H2792.8ZM2878.14 1555.12C2892.14 1555.12 2906.26 1555.25 2920.51 1555.5C2934.76 1555.5 2948.76 1555.75 2962.51 1556.25C2976.26 1556.75 2989.14 1557.62 3001.14 1558.87L2998.51 1600.5H2899.14C2892.89 1600.5 2888.14 1602.12 2884.89 1605.37C2881.89 1608.62 2880.39 1613.37 2880.39 1619.62V1751.62C2880.39 1757.87 2881.89 1762.62 2884.89 1765.87C2888.14 1769.12 2892.89 1770.75 2899.14 1770.75H2998.51L3001.14 1812.37C2989.14 1813.37 2976.26 1814.25 2962.51 1815C2948.76 1815.5 2934.76 1815.75 2920.51 1815.75C2906.26 1816 2892.14 1816.13 2878.14 1816.13C2861.64 1816.13 2848.26 1811.37 2838.01 1801.87C2828.01 1792.12 2823.01 1779.5 2823.01 1764V1607.25C2823.01 1591.5 2828.01 1578.87 2838.01 1569.37C2848.26 1559.87 2861.64 1555.12 2878.14 1555.12ZM2829.76 1660.12H2984.64V1700.62H2829.76V1660.12ZM3141.43 1552.5C3164.18 1552.5 3182.56 1554.87 3196.56 1559.62C3210.81 1564.12 3221.18 1572 3227.68 1583.25C3234.43 1594.25 3237.81 1609.62 3237.81 1629.37C3237.81 1641.37 3236.18 1652 3232.93 1661.25C3229.93 1670.25 3224.81 1677.5 3217.56 1683C3210.31 1688.5 3200.43 1692 3187.93 1693.5V1695.37C3192.43 1696.12 3197.06 1697.87 3201.81 1700.62C3206.81 1703.37 3211.43 1707.5 3215.68 1713C3219.93 1718.25 3223.06 1725.37 3225.06 1734.37L3247.56 1815H3187.18L3167.31 1736.25C3165.06 1727.75 3161.68 1721.87 3157.18 1718.63C3152.93 1715.37 3146.93 1713.75 3139.18 1713.75C3122.18 1713.75 3107.81 1713.75 3096.06 1713.75C3084.56 1713.5 3074.81 1713.25 3066.81 1713C3059.06 1712.75 3052.06 1712.5 3045.81 1712.25L3046.93 1670.62H3140.31C3150.31 1670.62 3158.18 1669.62 3163.93 1667.62C3169.93 1665.37 3174.06 1661.5 3176.31 1656C3178.81 1650.5 3180.06 1642.87 3180.06 1633.12C3180.06 1623.12 3178.81 1615.5 3176.31 1610.25C3174.06 1604.75 3169.93 1601 3163.93 1599C3158.18 1596.75 3150.31 1595.62 3140.31 1595.62C3116.81 1595.62 3096.93 1595.75 3080.68 1596C3064.43 1596.25 3053.31 1596.62 3047.31 1597.12L3041.68 1556.25C3052.18 1555 3062.06 1554.12 3071.31 1553.62C3080.56 1553.12 3090.68 1552.87 3101.68 1552.87C3112.68 1552.62 3125.93 1552.5 3141.43 1552.5ZM3098.31 1556.25V1815H3041.68V1556.25H3098.31ZM3397.05 1556.25V1815H3339.68V1556.25H3397.05ZM3475.05 1556.25V1601.25H3262.05V1556.25H3475.05ZM3609.28 1556.25C3614.03 1556.25 3618.16 1557.62 3621.66 1560.37C3625.41 1563.12 3627.91 1566.75 3629.16 1571.25L3704.16 1815H3645.66L3592.78 1624.87C3591.78 1620.62 3590.78 1616.37 3589.78 1612.12C3588.78 1607.62 3587.91 1603.37 3587.16 1599.37H3577.03C3576.28 1603.37 3575.41 1607.62 3574.41 1612.12C3573.66 1616.37 3572.66 1620.62 3571.41 1624.87L3518.53 1815H3459.66L3535.03 1571.25C3536.28 1566.75 3538.66 1563.12 3542.16 1560.37C3545.91 1557.62 3550.16 1556.25 3554.91 1556.25H3609.28ZM3649.03 1703.62V1746.75H3514.78V1703.62H3649.03ZM3787.9 1556.25V1815H3730.9V1556.25H3787.9ZM4059.02 1556.25V1794.37C4059.02 1808.12 4052.15 1815 4038.4 1815H4006.9C4000.65 1815 3995.9 1813.62 3992.65 1810.87C3989.4 1807.87 3986.4 1803.5 3983.65 1797.75L3912.02 1662C3909.02 1656.25 3906.02 1649.87 3903.02 1642.87C3900.27 1635.87 3897.9 1629.12 3895.9 1622.62H3891.77C3892.52 1629.37 3893.15 1636.25 3893.65 1643.25C3894.15 1650 3894.4 1656.75 3894.4 1663.5V1815H3840.02V1576.87C3840.02 1563.12 3847.02 1556.25 3861.02 1556.25H3892.15C3898.15 1556.25 3902.65 1557.75 3905.65 1560.75C3908.9 1563.5 3912.02 1567.75 3915.02 1573.5L3984.4 1705.12C3987.4 1710.87 3990.52 1717.25 3993.77 1724.25C3997.02 1731.25 4000.15 1738.5 4003.15 1746H4007.65C4006.9 1738.5 4006.27 1731.25 4005.77 1724.25C4005.52 1717 4005.4 1709.87 4005.4 1702.87L4005.02 1556.25H4059.02ZM4375.78 1556.25C4389.28 1556.25 4396.28 1563.25 4396.78 1577.25L4406.53 1815H4353.65L4345.03 1600.5H4338.28L4296.65 1761.75C4294.4 1773.75 4286.9 1779.75 4274.15 1779.75H4238.15C4225.4 1779.75 4217.65 1773.75 4214.9 1761.75L4173.28 1600.5H4166.9L4159.03 1815H4105.78L4115.53 1577.25C4116.03 1563.25 4123.15 1556.25 4136.9 1556.25H4190.53C4202.78 1556.25 4210.28 1562.37 4213.03 1574.62L4246.4 1704.75C4247.9 1710.75 4249.15 1716.87 4250.15 1723.12C4251.15 1729.12 4252.28 1735.25 4253.53 1741.5H4258.4C4259.65 1735.25 4260.78 1729.12 4261.78 1723.12C4263.03 1716.87 4264.28 1710.62 4265.53 1704.37L4298.53 1574.62C4301.03 1562.37 4308.53 1556.25 4321.03 1556.25H4375.78ZM4507.04 1555.12C4521.04 1555.12 4535.17 1555.25 4549.42 1555.5C4563.67 1555.5 4577.67 1555.75 4591.42 1556.25C4605.17 1556.75 4618.04 1557.62 4630.04 1558.87L4627.42 1600.5H4528.04C4521.79 1600.5 4517.04 1602.12 4513.79 1605.37C4510.79 1608.62 4509.29 1613.37 4509.29 1619.62V1751.62C4509.29 1757.87 4510.79 1762.62 4513.79 1765.87C4517.04 1769.12 4521.79 1770.75 4528.04 1770.75H4627.42L4630.04 1812.37C4618.04 1813.37 4605.17 1814.25 4591.42 1815C4577.67 1815.5 4563.67 1815.75 4549.42 1815.75C4535.17 1816 4521.04 1816.13 4507.04 1816.13C4490.54 1816.13 4477.17 1811.37 4466.92 1801.87C4456.92 1792.12 4451.92 1779.5 4451.92 1764V1607.25C4451.92 1591.5 4456.92 1578.87 4466.92 1569.37C4477.17 1559.87 4490.54 1555.12 4507.04 1555.12ZM4458.67 1660.12H4613.54V1700.62H4458.67V1660.12ZM4889.59 1556.25V1794.37C4889.59 1808.12 4882.72 1815 4868.97 1815H4837.47C4831.22 1815 4826.47 1813.62 4823.22 1810.87C4819.97 1807.87 4816.97 1803.5 4814.22 1797.75L4742.59 1662C4739.59 1656.25 4736.59 1649.87 4733.59 1642.87C4730.84 1635.87 4728.47 1629.12 4726.47 1622.62H4722.34C4723.09 1629.37 4723.72 1636.25 4724.22 1643.25C4724.72 1650 4724.97 1656.75 4724.97 1663.5V1815H4670.59V1576.87C4670.59 1563.12 4677.59 1556.25 4691.59 1556.25H4722.72C4728.72 1556.25 4733.22 1557.75 4736.22 1560.75C4739.47 1563.5 4742.59 1567.75 4745.59 1573.5L4814.97 1705.12C4817.97 1710.87 4821.09 1717.25 4824.34 1724.25C4827.59 1731.25 4830.72 1738.5 4833.72 1746H4838.22C4837.47 1738.5 4836.84 1731.25 4836.34 1724.25C4836.09 1717 4835.97 1709.87 4835.97 1702.87L4835.59 1556.25H4889.59ZM5056.72 1556.25V1815H4999.35V1556.25H5056.72ZM5134.72 1556.25V1601.25H4921.72V1556.25H5134.72Z" fill="#AB87FF"/>
<path d="M2482.4 185V1427H2095.4V185H2482.4ZM3213.72 159.8C3320.52 159.8 3410.52 170 3483.72 190.4C3558.12 209.6 3618.12 243.2 3663.72 291.2C3709.32 339.2 3742.32 405.2 3762.72 489.2C3783.12 572 3793.32 677.6 3793.32 806C3793.32 933.2 3783.12 1038.8 3762.72 1122.8C3742.32 1206.8 3709.32 1272.8 3663.72 1320.8C3618.12 1368.8 3558.12 1403 3483.72 1423.4C3410.52 1442.6 3320.52 1452.2 3213.72 1452.2C3108.12 1452.2 3018.12 1442.6 2943.72 1423.4C2870.52 1403 2811.12 1368.8 2765.52 1320.8C2719.92 1272.8 2686.92 1206.8 2666.52 1122.8C2646.12 1038.8 2635.92 933.2 2635.92 806C2635.92 677.6 2646.12 572 2666.52 489.2C2686.92 405.2 2719.92 339.2 2765.52 291.2C2811.12 243.2 2870.52 209.6 2943.72 190.4C3018.12 170 3108.12 159.8 3213.72 159.8ZM3213.72 449.6C3169.32 449.6 3135.12 459.2 3111.12 478.4C3087.12 497.6 3070.32 533 3060.72 584.6C3051.12 636.2 3046.32 710 3046.32 806C3046.32 902 3051.12 975.8 3060.72 1027.4C3070.32 1079 3087.12 1114.4 3111.12 1133.6C3135.12 1152.8 3169.32 1162.4 3213.72 1162.4C3258.12 1162.4 3292.32 1152.8 3316.32 1133.6C3340.32 1114.4 3357.12 1079 3366.72 1027.4C3376.32 975.8 3381.12 902 3381.12 806C3381.12 710 3376.32 636.2 3366.72 584.6C3357.12 533 3340.32 497.6 3316.32 478.4C3292.32 459.2 3258.12 449.6 3213.72 449.6ZM5087.58 185V1292C5087.58 1382 5042.58 1427 4952.58 1427H4803.18C4762.38 1427 4731.78 1417.4 4711.38 1398.2C4692.18 1379 4672.38 1350.8 4651.98 1313.6L4381.98 887C4365.18 855.8 4349.58 822.2 4335.18 786.2C4321.98 749 4309.98 711.8 4299.18 674.6H4286.58C4292.58 711.8 4296.78 750.2 4299.18 789.8C4302.78 828.2 4304.58 865.4 4304.58 901.4V1427H3944.58V320C3944.58 230 3989.58 185 4079.58 185H4228.98C4269.78 185 4299.78 194.6 4318.98 213.8C4338.18 233 4358.58 261.2 4380.18 298.4L4639.38 705.2C4656.18 735.2 4672.38 768.2 4687.98 804.2C4704.78 840.2 4720.38 878 4734.78 917.6H4747.38C4742.58 879.2 4738.38 841.4 4734.78 804.2C4732.38 767 4731.18 729.8 4731.18 692.6L4729.38 185H5087.58Z" fill="#1A1D1A"/>
<path d="M1283.32 100C1217.92 146.145 1150.88 196.71 1083.01 251.082C1074.99 257.503 1066.97 263.974 1058.94 270.49C1109.87 313.417 1160.89 358.114 1211.65 404.293C1351.12 292.806 1484.23 200.238 1603.34 131.277C1622.48 120.198 1641.08 109.831 1659.13 100.164C1790.16 104.866 1895.49 210.411 1899.86 341.53C1890.25 359.446 1879.96 377.908 1868.97 396.899C1799.41 517.039 1705.84 651.415 1593.07 792.197C1480.41 932.838 1351.54 1076.18 1213.86 1213.86C1161.85 1265.86 1109.04 1316.61 1055.87 1365.7C1106.77 1411.24 1157.8 1455.08 1208.56 1496.87C1257.97 1450.86 1306.99 1403.57 1355.28 1355.28C1497.76 1212.8 1631.58 1064.02 1749.16 917.237C1803.44 849.482 1853.92 782.563 1900 717.273V1650C1900 1788.07 1788.07 1900 1650 1900H717.273C782.563 1853.92 849.482 1803.44 917.237 1749.16C925.253 1742.74 933.273 1736.27 941.3 1729.75C890.287 1686.76 839.274 1642.05 788.593 1595.95C649.121 1707.44 516.014 1800.01 396.899 1868.97C377.908 1879.96 359.446 1890.25 341.53 1899.86C210.411 1895.49 104.865 1790.16 100.164 1659.12C109.83 1641.08 120.197 1622.48 131.276 1603.34C200.831 1483.2 294.4 1348.83 407.175 1208.05C519.837 1067.41 648.708 924.063 786.386 786.386C838.39 734.381 891.204 683.634 944.374 634.541C893.214 588.766 842.178 544.944 791.682 503.376C742.267 549.381 693.254 596.676 644.965 644.965C502.487 787.443 368.66 936.229 251.082 1083.01C196.71 1150.88 146.145 1217.92 100 1283.31V350C100 211.929 211.929 100 350 100H1283.32Z" fill="#1A1D1A"/>
<mask id="mask0_7_2891" style="mask-type:alpha" maskUnits="userSpaceOnUse" x="100" y="100" width="1800" height="1800">
<rect x="100.5" y="100.5" width="1799" height="1799" rx="249.5" fill="#0A0A14" stroke="#0A0A14"/>
</mask>
<g mask="url(#mask0_7_2891)">
<path d="M786.386 1213.86C924.063 1351.54 1067.41 1480.41 1208.05 1593.07C1348.83 1705.84 1483.2 1799.41 1603.34 1868.97C1724.58 1939.15 1824.24 1980.75 1897.93 1996.72C1976.44 2013.74 1995.94 1996.23 1996.09 1996.09L2137.51 2137.51C2062.93 2212.08 1953.27 2213.36 1855.57 2192.19C1753.03 2169.97 1632.83 2117.14 1503.14 2042.05C1372.35 1966.33 1229.64 1866.63 1083.01 1749.16C936.229 1631.58 787.443 1497.76 644.965 1355.28L786.386 1213.86ZM1729.75 1058.94C1854.88 1213.06 1961.71 1364.36 2042.05 1503.14C2117.91 1634.16 2170.16 1753.93 2192.19 1855.57C2213.08 1952 2212.63 2062.38 2137.51 2137.51L1996.09 1996.09C1996.4 1995.77 2013.66 1976.07 1996.72 1897.93C1980.92 1825 1939.81 1725.7 1868.97 1603.34C1799.04 1482.56 1705.98 1349.3 1595.95 1211.65C1642.05 1160.97 1686.76 1109.96 1729.75 1058.94ZM634.543 1055.87C683.635 1109.04 734.382 1161.85 786.386 1213.86L644.965 1355.28C596.676 1306.99 549.381 1257.98 503.375 1208.56C545.163 1157.8 589.005 1106.77 634.543 1055.87ZM-137.264 -137.264C-62.1382 -212.389 48.2444 -212.838 144.674 -191.941C246.315 -169.916 366.081 -117.665 497.106 -41.8076C760.198 110.508 1068.31 357.993 1355.28 644.965C1403.69 693.375 1450.97 742.387 1496.87 791.683C1455.08 842.444 1411.24 893.476 1365.7 944.37C1316.84 891.451 1266.12 838.644 1213.86 786.386C935.031 507.559 640.577 272.354 396.899 131.277C274.541 60.4382 175.248 19.3257 102.317 3.52148C24.1829 -13.4102 4.47548 3.83946 4.15723 4.15723C4.01194 4.30393 -13.4919 23.8103 3.52051 102.317C19.4892 176.007 61.0913 275.669 131.277 396.899C200.238 516.014 292.806 649.121 404.293 788.593C358.19 839.274 313.487 890.286 270.49 941.3C263.974 933.274 257.503 925.253 251.082 917.237C133.617 770.601 33.9108 627.893 -41.8076 497.106C-116.895 367.411 -169.72 247.216 -191.941 144.674C-213.112 46.9771 -211.839 -62.6886 -137.264 -137.264Z" fill="#AB87FF"/>
</g>
</svg>
