<svg width="9000" height="2000" viewBox="0 0 9000 2000" fill="none" xmlns="http://www.w3.org/2000/svg">
<path d="M2139.8 1208V1484H2079V1208H2139.8ZM2251.4 1204L2251 1420.8C2251 1427.47 2253 1432.53 2257 1436C2261 1439.2 2266.86 1440.8 2274.6 1440.8H2290.6L2297.4 1480.8C2294.2 1482.4 2289.66 1483.73 2283.8 1484.8C2277.93 1486.13 2271.93 1487.07 2265.8 1487.6C2259.66 1488.4 2254.46 1488.8 2250.2 1488.8C2232.33 1488.8 2218.2 1484.13 2207.8 1474.8C2197.4 1465.47 2192.2 1452.4 2192.2 1435.6V1204H2251.4ZM2382.65 1204L2382.25 1420.8C2382.25 1427.47 2384.25 1432.53 2388.25 1436C2392.25 1439.2 2398.11 1440.8 2405.85 1440.8H2421.85L2428.65 1480.8C2425.45 1482.4 2420.91 1483.73 2415.05 1484.8C2409.18 1486.13 2403.18 1487.07 2397.05 1487.6C2390.91 1488.4 2385.71 1488.8 2381.45 1488.8C2363.58 1488.8 2349.45 1484.13 2339.05 1474.8C2328.65 1465.47 2323.45 1452.4 2323.45 1435.6V1204H2382.65ZM2512.3 1286.4V1416.4C2512.3 1424.67 2514.03 1430.53 2517.5 1434C2521.23 1437.47 2527.1 1439.2 2535.1 1439.2C2543.36 1439.2 2551.5 1437.73 2559.5 1434.8C2567.76 1431.6 2577.9 1426.67 2589.9 1420L2594.7 1452.4C2580.3 1464.93 2566.16 1474.27 2552.3 1480.4C2538.43 1486.53 2524.16 1489.6 2509.5 1489.6C2471.9 1489.6 2453.1 1471.2 2453.1 1434.4V1286.4H2512.3ZM2643.1 1286.4V1484H2596.3L2589.5 1445.2L2583.9 1439.6V1286.4H2643.1ZM2941.81 1281.2C2959.67 1281.2 2973.27 1285.87 2982.61 1295.2C2991.94 1304.53 2996.61 1318.13 2996.61 1336V1484H2937.81V1354.4C2937.81 1346.13 2936.21 1340.27 2933.01 1336.8C2929.81 1333.07 2924.21 1331.2 2916.21 1331.2C2911.41 1331.2 2906.87 1331.87 2902.61 1333.2C2898.34 1334.53 2893.41 1336.67 2887.81 1339.6C2882.21 1342.53 2875.41 1346.53 2867.41 1351.6L2864.21 1318.8C2877.01 1306.27 2889.54 1296.93 2901.81 1290.8C2914.34 1284.4 2927.67 1281.2 2941.81 1281.2ZM2738.61 1286.4L2744.61 1325.6L2750.61 1330.8V1484H2691.41V1286.4H2738.61ZM2818.61 1281.2C2836.21 1281.2 2849.54 1285.87 2858.61 1295.2C2867.94 1304.27 2872.61 1317.87 2872.61 1336V1484H2815.81V1354.4C2815.81 1345.87 2813.94 1339.87 2810.21 1336.4C2806.74 1332.93 2801.27 1331.2 2793.81 1331.2C2789.27 1331.2 2784.74 1331.87 2780.21 1333.2C2775.94 1334.27 2770.87 1336.27 2765.01 1339.2C2759.41 1342.13 2752.47 1346.27 2744.21 1351.6L2740.61 1318.8C2753.67 1306.27 2766.34 1296.93 2778.61 1290.8C2790.87 1284.4 2804.21 1281.2 2818.61 1281.2ZM3104.15 1286.4V1484H3045.35V1286.4H3104.15ZM3087.75 1199.2C3099.48 1199.2 3105.35 1205.2 3105.35 1217.2V1238.4C3105.35 1250.4 3099.48 1256.4 3087.75 1256.4H3062.15C3050.42 1256.4 3044.55 1250.4 3044.55 1238.4V1217.2C3044.55 1205.2 3050.42 1199.2 3062.15 1199.2H3087.75ZM3291.9 1281.2C3329.23 1281.2 3347.9 1299.47 3347.9 1336V1484H3288.7V1354.4C3288.7 1345.6 3287.1 1339.6 3283.9 1336.4C3280.7 1332.93 3275.23 1331.2 3267.5 1331.2C3258.96 1331.2 3250.16 1332.93 3241.1 1336.4C3232.03 1339.6 3220.83 1344.67 3207.5 1351.6L3204.7 1318.4C3218.83 1306.4 3233.23 1297.2 3247.9 1290.8C3262.83 1284.4 3277.5 1281.2 3291.9 1281.2ZM3201.9 1286.4L3208.7 1325.6L3213.5 1330.8V1484H3154.3V1286.4H3201.9ZM3498.93 1281.2C3515.46 1281.2 3529.46 1283.47 3540.93 1288C3552.4 1292.27 3561.06 1299.73 3566.93 1310.4C3573.06 1320.8 3576.13 1335.2 3576.13 1353.6V1484H3528.93L3520.53 1441.2L3516.53 1435.2V1353.2C3516.53 1343.87 3514.26 1337.07 3509.73 1332.8C3505.46 1328.53 3497.2 1326.4 3484.93 1326.4C3474.8 1326.4 3462.13 1326.8 3446.93 1327.6C3431.73 1328.13 3416.13 1328.93 3400.13 1330L3394.53 1290.8C3404.13 1288.93 3415.2 1287.33 3427.73 1286C3440.26 1284.67 3452.8 1283.6 3465.33 1282.8C3477.86 1281.73 3489.06 1281.2 3498.93 1281.2ZM3551.73 1362.4L3551.33 1395.6L3463.33 1396C3456.13 1396 3450.93 1397.73 3447.73 1401.2C3444.8 1404.67 3443.33 1409.33 3443.33 1415.2V1424.8C3443.33 1431.47 3445.2 1436.67 3448.93 1440.4C3452.66 1443.87 3458.66 1445.6 3466.93 1445.6C3473.86 1445.6 3481.33 1444.13 3489.33 1441.2C3497.6 1438.27 3505.73 1434.13 3513.73 1428.8C3521.73 1423.47 3528.8 1417.2 3534.93 1410V1435.6C3532.53 1439.6 3528.93 1444.67 3524.13 1450.8C3519.6 1456.67 3513.73 1462.53 3506.53 1468.4C3499.33 1474 3490.93 1478.8 3481.33 1482.8C3471.73 1486.8 3460.8 1488.8 3448.53 1488.8C3436.53 1488.8 3425.73 1486.67 3416.13 1482.4C3406.53 1478.13 3398.93 1471.87 3393.33 1463.6C3387.73 1455.33 3384.93 1445.07 3384.93 1432.8V1412.4C3384.93 1396.67 3390.26 1384.4 3400.93 1375.6C3411.6 1366.8 3426.26 1362.4 3444.93 1362.4H3551.73ZM3699.86 1231.6V1420.8C3699.86 1428 3701.46 1433.2 3704.66 1436.4C3708.12 1439.33 3713.72 1440.8 3721.46 1440.8H3747.06L3753.46 1480.8C3748.66 1482.4 3742.79 1483.73 3735.86 1484.8C3728.92 1486.13 3721.99 1487.07 3715.06 1487.6C3708.12 1488.4 3702.26 1488.8 3697.46 1488.8C3679.59 1488.8 3665.59 1484 3655.46 1474.4C3645.59 1464.8 3640.66 1451.33 3640.66 1434L3640.26 1231.6H3699.86ZM3755.06 1286.4V1325.2H3605.86V1288.4L3644.26 1286.4H3755.06ZM3847.12 1286.4V1484H3788.32V1286.4H3847.12ZM3830.72 1199.2C3842.45 1199.2 3848.32 1205.2 3848.32 1217.2V1238.4C3848.32 1250.4 3842.45 1256.4 3830.72 1256.4H3805.12C3793.39 1256.4 3787.52 1250.4 3787.52 1238.4V1217.2C3787.52 1205.2 3793.39 1199.2 3805.12 1199.2H3830.72ZM4034.87 1281.2C4072.2 1281.2 4090.87 1299.47 4090.87 1336V1484H4031.67V1354.4C4031.67 1345.6 4030.07 1339.6 4026.87 1336.4C4023.67 1332.93 4018.2 1331.2 4010.47 1331.2C4001.93 1331.2 3993.13 1332.93 3984.07 1336.4C3975 1339.6 3963.8 1344.67 3950.47 1351.6L3947.67 1318.4C3961.8 1306.4 3976.2 1297.2 3990.87 1290.8C4005.8 1284.4 4020.47 1281.2 4034.87 1281.2ZM3944.87 1286.4L3951.67 1325.6L3956.47 1330.8V1484H3897.27V1286.4H3944.87ZM4225.5 1281.2C4248.43 1281.2 4266.57 1283.33 4279.9 1287.6C4293.5 1291.87 4303.23 1298.53 4309.1 1307.6C4315.23 1316.67 4318.3 1328.8 4318.3 1344C4318.3 1358.67 4315.37 1370.67 4309.5 1380C4303.63 1389.07 4293.77 1395.73 4279.9 1400C4266.3 1404.27 4248.03 1406.4 4225.1 1406.4C4202.17 1406.4 4183.77 1404.27 4169.9 1400C4156.3 1395.73 4146.43 1389.07 4140.3 1380C4134.43 1370.93 4131.5 1358.93 4131.5 1344C4131.5 1329.07 4134.43 1317.07 4140.3 1308C4146.43 1298.67 4156.43 1291.87 4170.3 1287.6C4184.17 1283.33 4202.57 1281.2 4225.5 1281.2ZM4225.1 1317.6C4210.43 1317.6 4200.3 1319.6 4194.7 1323.6C4189.1 1327.33 4186.3 1334.13 4186.3 1344C4186.3 1353.87 4189.1 1360.8 4194.7 1364.8C4200.3 1368.8 4210.43 1370.8 4225.1 1370.8C4239.77 1370.8 4249.77 1368.8 4255.1 1364.8C4260.43 1360.8 4263.1 1353.87 4263.1 1344C4263.1 1334.13 4260.43 1327.33 4255.1 1323.6C4249.77 1319.6 4239.77 1317.6 4225.1 1317.6ZM4341.1 1286.4L4337.9 1311.6L4285.1 1318.4L4270.7 1286.4H4341.1ZM4165.5 1394.4L4195.1 1399.6C4191.37 1401.73 4188.7 1405.07 4187.1 1409.6C4185.77 1414.13 4186.17 1418.4 4188.3 1422.4C4190.43 1426.4 4195.1 1428.8 4202.3 1429.6L4275.1 1438C4295.9 1440.13 4310.57 1446 4319.1 1455.6C4327.63 1464.93 4331.9 1478.67 4331.9 1496.8C4331.9 1513.87 4328.43 1526.93 4321.5 1536C4314.57 1545.33 4303.5 1551.73 4288.3 1555.2C4273.1 1558.67 4252.83 1560.4 4227.5 1560.4C4206.7 1560.4 4189.5 1559.33 4175.9 1557.2C4162.57 1555.33 4151.9 1552.13 4143.9 1547.6C4136.17 1543.07 4130.7 1537.07 4127.5 1529.6C4124.57 1522.4 4123.1 1513.33 4123.1 1502.4C4123.1 1494.13 4124.57 1487.07 4127.5 1481.2C4130.43 1475.07 4135.37 1469.6 4142.3 1464.8C4149.5 1460 4159.5 1455.6 4172.3 1451.6L4201.5 1441.2L4222.7 1449.6L4206.7 1460C4200.03 1464.8 4194.57 1468.93 4190.3 1472.4C4186.3 1475.6 4183.37 1478.8 4181.5 1482C4179.9 1485.2 4179.1 1489.47 4179.1 1494.8C4179.1 1500.93 4180.43 1505.6 4183.1 1508.8C4185.77 1512.27 4190.57 1514.53 4197.5 1515.6C4204.7 1516.93 4214.43 1517.6 4226.7 1517.6C4239.5 1517.6 4249.5 1516.93 4256.7 1515.6C4263.9 1514.53 4268.83 1512.4 4271.5 1509.2C4274.43 1506 4275.9 1501.47 4275.9 1495.6C4275.9 1490.53 4274.83 1486.8 4272.7 1484.4C4270.83 1482 4267.5 1480.27 4262.7 1479.2C4258.17 1477.87 4251.77 1476.67 4243.5 1475.6L4181.5 1468.8C4171.1 1467.73 4162.97 1464.93 4157.1 1460.4C4151.23 1455.87 4147.1 1450.4 4144.7 1444C4142.57 1437.33 4142.03 1430.67 4143.1 1424C4144.17 1417.33 4146.57 1411.33 4150.3 1406C4154.3 1400.67 4159.37 1396.8 4165.5 1394.4ZM4526.81 1231.6V1420.8C4526.81 1428 4528.41 1433.2 4531.61 1436.4C4535.08 1439.33 4540.68 1440.8 4548.41 1440.8H4574.01L4580.41 1480.8C4575.61 1482.4 4569.74 1483.73 4562.81 1484.8C4555.88 1486.13 4548.94 1487.07 4542.01 1487.6C4535.08 1488.4 4529.21 1488.8 4524.41 1488.8C4506.54 1488.8 4492.54 1484 4482.41 1474.4C4472.54 1464.8 4467.61 1451.33 4467.61 1434L4467.21 1231.6H4526.81ZM4582.01 1286.4V1325.2H4432.81V1288.4L4471.21 1286.4H4582.01ZM4751.27 1281.2C4788.61 1281.2 4807.27 1299.47 4807.27 1336V1484H4747.67V1354.4C4747.67 1345.6 4746.07 1339.6 4742.87 1336.4C4739.94 1332.93 4734.61 1331.2 4726.87 1331.2C4718.34 1331.2 4709.54 1332.8 4700.47 1336C4691.41 1339.2 4680.21 1344.4 4666.87 1351.6L4661.67 1320.8C4676.34 1308 4691.27 1298.27 4706.47 1291.6C4721.67 1284.67 4736.61 1281.2 4751.27 1281.2ZM4672.87 1204L4673.27 1272.4C4673.27 1282.8 4672.61 1292.67 4671.27 1302C4670.21 1311.33 4668.87 1319.2 4667.27 1325.6L4672.87 1330.8V1484H4613.67V1204H4672.87ZM4947.51 1281.2C4980.84 1281.2 5004.71 1286.93 5019.11 1298.4C5033.77 1309.6 5041.11 1326.4 5041.11 1348.8C5041.37 1366.93 5036.84 1380.53 5027.51 1389.6C5018.17 1398.4 5002.04 1402.8 4979.11 1402.8H4868.71V1369.6H4962.71C4971.77 1369.6 4977.51 1367.73 4979.91 1364C4982.57 1360 4983.91 1354.53 4983.91 1347.6C4983.64 1338.27 4980.84 1331.87 4975.51 1328.4C4970.44 1324.67 4961.77 1322.8 4949.51 1322.8C4938.57 1322.8 4930.04 1324.27 4923.91 1327.2C4917.77 1330.13 4913.51 1335.73 4911.11 1344C4908.71 1352.27 4907.51 1364.27 4907.51 1380C4907.51 1396.53 4908.97 1409.33 4911.91 1418.4C4914.84 1427.2 4919.77 1433.33 4926.71 1436.8C4933.91 1440.27 4943.77 1442 4956.31 1442C4965.37 1442 4976.57 1441.73 4989.91 1441.2C5003.51 1440.4 5017.11 1439.2 5030.71 1437.6L5036.31 1474C5028.57 1477.73 5019.77 1480.67 5009.91 1482.8C5000.04 1484.93 4989.91 1486.4 4979.51 1487.2C4969.11 1488.27 4959.11 1488.8 4949.51 1488.8C4924.44 1488.8 4904.17 1485.2 4888.71 1478C4873.51 1470.53 4862.44 1459.2 4855.51 1444C4848.84 1428.8 4845.51 1409.33 4845.51 1385.6C4845.51 1359.73 4848.97 1339.2 4855.91 1324C4862.84 1308.8 4873.77 1297.87 4888.71 1291.2C4903.64 1284.53 4923.24 1281.2 4947.51 1281.2ZM5260.82 1202.8C5274.42 1202.8 5289.22 1203.6 5305.22 1205.2C5321.22 1206.53 5336.82 1209.47 5352.02 1214L5348.02 1254.4C5336.28 1254.13 5322.55 1253.87 5306.82 1253.6C5291.08 1253.33 5275.62 1253.2 5260.42 1253.2C5252.95 1253.2 5246.55 1253.47 5241.22 1254C5236.15 1254.27 5232.02 1255.33 5228.82 1257.2C5225.62 1258.8 5223.35 1261.33 5222.02 1264.8C5220.68 1268.27 5220.02 1273.07 5220.02 1279.2C5220.02 1288.53 5222.15 1295.33 5226.42 1299.6C5230.95 1303.87 5238.55 1307.73 5249.22 1311.2L5302.42 1328.4C5324.55 1335.87 5339.88 1346 5348.42 1358.8C5356.95 1371.6 5361.22 1388.4 5361.22 1409.2C5361.22 1424.93 5359.35 1438 5355.62 1448.4C5351.88 1458.8 5346.02 1466.93 5338.02 1472.8C5330.02 1478.67 5319.48 1482.8 5306.42 1485.2C5293.35 1487.87 5277.35 1489.2 5258.42 1489.2C5249.35 1489.2 5236.42 1488.53 5219.62 1487.2C5202.82 1486.13 5183.62 1483.2 5162.02 1478.4L5166.02 1435.2C5181.75 1435.47 5195.35 1435.87 5206.82 1436.4C5218.55 1436.67 5228.55 1436.93 5236.82 1437.2C5245.08 1437.2 5252.28 1437.2 5258.42 1437.2C5269.08 1437.2 5277.35 1436.53 5283.22 1435.2C5289.35 1433.87 5293.62 1431.2 5296.02 1427.2C5298.42 1423.2 5299.62 1417.47 5299.62 1410C5299.62 1403.6 5298.68 1398.53 5296.82 1394.8C5295.22 1390.8 5292.42 1387.73 5288.42 1385.6C5284.68 1383.2 5279.48 1381.07 5272.82 1379.2L5216.82 1360C5195.75 1352.27 5180.82 1342.13 5172.02 1329.6C5163.22 1317.07 5158.82 1300.53 5158.82 1280C5158.82 1264 5160.68 1251.07 5164.42 1241.2C5168.42 1231.07 5174.42 1223.2 5182.42 1217.6C5190.68 1212 5201.22 1208.13 5214.02 1206C5227.08 1203.87 5242.68 1202.8 5260.82 1202.8ZM5537.99 1281.2C5575.32 1281.2 5593.99 1299.47 5593.99 1336V1484H5534.39V1354.4C5534.39 1345.6 5532.79 1339.6 5529.59 1336.4C5526.66 1332.93 5521.32 1331.2 5513.59 1331.2C5505.06 1331.2 5496.26 1332.8 5487.19 1336C5478.12 1339.2 5466.92 1344.4 5453.59 1351.6L5448.39 1320.8C5463.06 1308 5477.99 1298.27 5493.19 1291.6C5508.39 1284.67 5523.32 1281.2 5537.99 1281.2ZM5459.59 1204L5459.99 1272.4C5459.99 1282.8 5459.32 1292.67 5457.99 1302C5456.92 1311.33 5455.59 1319.2 5453.99 1325.6L5459.59 1330.8V1484H5400.39V1204H5459.59ZM5734.63 1281.2C5759.43 1281.2 5779.29 1284.67 5794.23 1291.6C5809.16 1298.27 5819.83 1309.2 5826.23 1324.4C5832.89 1339.6 5836.23 1360 5836.23 1385.6C5836.23 1410.67 5832.89 1430.8 5826.23 1446C5819.83 1461.2 5809.16 1472.13 5794.23 1478.8C5779.29 1485.47 5759.43 1488.8 5734.63 1488.8C5710.09 1488.8 5690.23 1485.47 5675.03 1478.8C5660.09 1472.13 5649.29 1461.2 5642.63 1446C5635.96 1430.8 5632.63 1410.67 5632.63 1385.6C5632.63 1360 5635.96 1339.6 5642.63 1324.4C5649.29 1309.2 5660.09 1298.27 5675.03 1291.6C5690.23 1284.67 5710.09 1281.2 5734.63 1281.2ZM5734.63 1324.4C5724.49 1324.4 5716.49 1326.13 5710.63 1329.6C5704.76 1333.07 5700.63 1339.2 5698.23 1348C5695.83 1356.8 5694.63 1369.33 5694.63 1385.6C5694.63 1401.6 5695.83 1414 5698.23 1422.8C5700.63 1431.6 5704.76 1437.73 5710.63 1441.2C5716.49 1444.4 5724.49 1446 5734.63 1446C5744.76 1446 5752.76 1444.4 5758.63 1441.2C5764.49 1437.73 5768.63 1431.6 5771.03 1422.8C5773.43 1414 5774.63 1401.6 5774.63 1385.6C5774.63 1369.33 5773.43 1356.8 5771.03 1348C5768.63 1339.2 5764.49 1333.07 5758.63 1329.6C5752.76 1326.13 5744.76 1324.4 5734.63 1324.4ZM6184.21 1286.4L6135.41 1468.4C6134.34 1473.2 6131.94 1477.07 6128.21 1480C6124.48 1482.67 6120.08 1484 6115.01 1484H6070.21C6064.88 1484 6060.21 1482.4 6056.21 1479.2C6052.21 1475.73 6049.81 1471.33 6049.01 1466L6027.41 1354.8C6026.61 1349.2 6025.94 1343.73 6025.41 1338.4C6024.88 1332.8 6024.08 1327.2 6023.01 1321.6H6018.21C6017.41 1327.2 6016.61 1332.8 6015.81 1338.4C6015.01 1343.73 6014.21 1349.2 6013.41 1354.8L5991.81 1466C5991.01 1471.33 5988.61 1475.73 5984.61 1479.2C5980.61 1482.4 5975.94 1484 5970.61 1484H5926.21C5921.14 1484 5916.74 1482.67 5913.01 1480C5909.28 1477.07 5906.88 1473.2 5905.81 1468.4L5857.01 1286.4H5916.61L5943.81 1414.4C5944.88 1419.73 5945.81 1425.2 5946.61 1430.8C5947.41 1436.13 5948.08 1441.47 5948.61 1446.8H5953.81C5954.61 1441.47 5955.41 1436.13 5956.21 1430.8C5957.28 1425.2 5958.21 1419.73 5959.01 1414.4L5980.61 1304.4C5981.41 1299.07 5983.68 1294.8 5987.41 1291.6C5991.14 1288.13 5995.81 1286.4 6001.41 1286.4H6039.81C6045.14 1286.4 6049.68 1288.13 6053.41 1291.6C6057.41 1294.8 6059.81 1299.2 6060.61 1304.8L6081.81 1414.4C6082.61 1419.73 6083.54 1425.07 6084.61 1430.4C6085.68 1435.73 6086.61 1441.2 6087.41 1446.8H6092.21C6093.28 1441.2 6094.08 1435.87 6094.61 1430.8C6095.41 1425.47 6096.34 1420 6097.41 1414.4L6124.61 1286.4H6184.21Z" fill="#FB3640"/>
<path d="M2225.2 584.5V1033H2085.45V584.5H2225.2ZM2489.29 575.4C2527.85 575.4 2560.35 579.083 2586.79 586.45C2613.65 593.383 2635.32 605.517 2651.79 622.85C2668.25 640.183 2680.17 664.017 2687.54 694.35C2694.9 724.25 2698.59 762.383 2698.59 808.75C2698.59 854.683 2694.9 892.817 2687.54 923.15C2680.17 953.483 2668.25 977.317 2651.79 994.65C2635.32 1011.98 2613.65 1024.33 2586.79 1031.7C2560.35 1038.63 2527.85 1042.1 2489.29 1042.1C2451.15 1042.1 2418.65 1038.63 2391.79 1031.7C2365.35 1024.33 2343.9 1011.98 2327.44 994.65C2310.97 977.317 2299.05 953.483 2291.69 923.15C2284.32 892.817 2280.64 854.683 2280.64 808.75C2280.64 762.383 2284.32 724.25 2291.69 694.35C2299.05 664.017 2310.97 640.183 2327.44 622.85C2343.9 605.517 2365.35 593.383 2391.79 586.45C2418.65 579.083 2451.15 575.4 2489.29 575.4ZM2489.29 680.05C2473.25 680.05 2460.9 683.517 2452.24 690.45C2443.57 697.383 2437.5 710.167 2434.04 728.8C2430.57 747.433 2428.84 774.083 2428.84 808.75C2428.84 843.417 2430.57 870.067 2434.04 888.7C2437.5 907.333 2443.57 920.117 2452.24 927.05C2460.9 933.983 2473.25 937.45 2489.29 937.45C2505.32 937.45 2517.67 933.983 2526.34 927.05C2535 920.117 2541.07 907.333 2544.54 888.7C2548 870.067 2549.74 843.417 2549.74 808.75C2549.74 774.083 2548 747.433 2544.54 728.8C2541.07 710.167 2535 697.383 2526.34 690.45C2517.67 683.517 2505.32 680.05 2489.29 680.05ZM3165.96 584.5V984.25C3165.96 1016.75 3149.71 1033 3117.21 1033H3063.26C3048.52 1033 3037.47 1029.53 3030.11 1022.6C3023.17 1015.67 3016.02 1005.48 3008.66 992.05L2911.16 838C2905.09 826.733 2899.46 814.6 2894.26 801.6C2889.49 788.167 2885.16 774.733 2881.26 761.3H2876.71C2878.87 774.733 2880.39 788.6 2881.26 802.9C2882.56 816.767 2883.21 830.2 2883.21 843.2V1033H2753.21V633.25C2753.21 600.75 2769.46 584.5 2801.96 584.5H2855.91C2870.64 584.5 2881.47 587.967 2888.41 594.9C2895.34 601.833 2902.71 612.017 2910.51 625.45L3004.11 772.35C3010.17 783.183 3016.02 795.1 3021.66 808.1C3027.72 821.1 3033.36 834.75 3038.56 849.05H3043.11C3041.37 835.183 3039.86 821.533 3038.56 808.1C3037.69 794.667 3037.26 781.233 3037.26 767.8L3036.61 584.5H3165.96ZM3471.62 581.9C3497.62 581.9 3524.27 582.117 3551.57 582.55C3579.3 582.55 3606.38 583.2 3632.82 584.5C3659.25 585.367 3683.3 587.317 3704.97 590.35L3698.47 689.8H3534.02C3525.78 689.8 3519.28 691.967 3514.52 696.3C3509.75 700.633 3507.37 706.267 3507.37 713.2V904.3C3507.37 911.233 3509.75 916.867 3514.52 921.2C3519.28 925.533 3525.78 927.7 3534.02 927.7H3698.47L3704.97 1027.15C3683.3 1029.75 3659.25 1031.7 3632.82 1033C3606.38 1034.3 3579.3 1034.95 3551.57 1034.95C3524.27 1035.38 3497.62 1035.6 3471.62 1035.6C3440.85 1035.6 3415.5 1026.28 3395.57 1007.65C3376.07 988.583 3366.32 963.883 3366.32 933.55V683.95C3366.32 653.617 3376.07 629.133 3395.57 610.5C3415.5 591.433 3440.85 581.9 3471.62 581.9ZM3378.02 756.75H3675.07V850.35H3378.02V756.75ZM4169.52 584.5V984.25C4169.52 1016.75 4153.27 1033 4120.77 1033H4066.82C4052.09 1033 4041.04 1029.53 4033.67 1022.6C4026.74 1015.67 4019.59 1005.48 4012.22 992.05L3914.72 838C3908.66 826.733 3903.02 814.6 3897.82 801.6C3893.06 788.167 3888.72 774.733 3884.82 761.3H3880.27C3882.44 774.733 3883.96 788.6 3884.82 802.9C3886.12 816.767 3886.77 830.2 3886.77 843.2V1033H3756.77V633.25C3756.77 600.75 3773.02 584.5 3805.52 584.5H3859.47C3874.21 584.5 3885.04 587.967 3891.97 594.9C3898.91 601.833 3906.27 612.017 3914.07 625.45L4007.67 772.35C4013.74 783.183 4019.59 795.1 4025.22 808.1C4031.29 821.1 4036.92 834.75 4042.12 849.05H4046.67C4044.94 835.183 4043.42 821.533 4042.12 808.1C4041.26 794.667 4040.82 781.233 4040.82 767.8L4040.17 584.5H4169.52ZM4475.86 584.5V1033H4334.81V584.5H4475.86ZM4601.31 584.5V689.8H4209.36V584.5H4601.31ZM4743.69 581.9C4769.69 581.9 4796.34 582.117 4823.64 582.55C4851.37 582.55 4878.45 583.2 4904.89 584.5C4931.32 585.367 4955.37 587.317 4977.04 590.35L4970.54 689.8H4806.09C4797.85 689.8 4791.35 691.967 4786.59 696.3C4781.82 700.633 4779.44 706.267 4779.44 713.2V904.3C4779.44 911.233 4781.82 916.867 4786.59 921.2C4791.35 925.533 4797.85 927.7 4806.09 927.7H4970.54L4977.04 1027.15C4955.37 1029.75 4931.32 1031.7 4904.89 1033C4878.45 1034.3 4851.37 1034.95 4823.64 1034.95C4796.34 1035.38 4769.69 1035.6 4743.69 1035.6C4712.92 1035.6 4687.57 1026.28 4667.64 1007.65C4648.14 988.583 4638.39 963.883 4638.39 933.55V683.95C4638.39 653.617 4648.14 629.133 4667.64 610.5C4687.57 591.433 4712.92 581.9 4743.69 581.9ZM4650.09 756.75H4947.14V850.35H4650.09V756.75ZM5219.29 578C5263.49 578 5299.46 582.117 5327.19 590.35C5354.93 598.583 5375.29 612.667 5388.29 632.6C5401.73 652.1 5408.44 679.4 5408.44 714.5C5408.44 732.267 5405.63 748.95 5399.99 764.55C5394.79 779.717 5385.48 792.283 5372.04 802.25C5359.04 812.217 5340.84 818.5 5317.44 821.1V825C5325.68 825.867 5334.78 828.467 5344.74 832.8C5354.71 836.7 5364.03 843.633 5372.69 853.6C5381.36 863.133 5387.43 877 5390.89 895.2L5425.99 1033H5278.44L5249.19 899.75C5246.59 887.183 5242.48 878.95 5236.84 875.05C5231.64 871.15 5222.98 869.2 5210.84 869.2C5178.34 868.767 5151.69 868.55 5130.89 868.55C5110.53 868.55 5093.19 868.333 5078.89 867.9C5064.59 867.467 5050.29 866.817 5035.99 865.95L5037.94 769.75H5216.04C5229.48 769.75 5239.88 768.45 5247.24 765.85C5254.61 763.25 5259.59 758.7 5262.19 752.2C5265.23 745.267 5266.74 735.733 5266.74 723.6C5266.74 711.033 5265.23 701.5 5262.19 695C5259.59 688.5 5254.61 683.95 5247.24 681.35C5239.88 678.75 5229.48 677.45 5216.04 677.45C5170.98 677.45 5133.06 677.667 5102.29 678.1C5071.53 678.533 5050.51 679.4 5039.24 680.7L5028.84 584.5C5048.78 582.333 5067.41 580.817 5084.74 579.95C5102.51 579.083 5121.79 578.65 5142.59 578.65C5163.83 578.217 5189.39 578 5219.29 578ZM5167.29 584.5V1033H5028.84V584.5H5167.29ZM5704.13 584.5V1033H5563.08V584.5H5704.13ZM5829.58 584.5V689.8H5437.63V584.5H5829.58ZM6084.66 584.5C6095.92 584.5 6105.89 587.75 6114.56 594.25C6123.22 600.75 6129.07 609.633 6132.11 620.9L6248.46 1033H6104.81L6037.21 741.15C6035.47 732.917 6033.96 724.467 6032.66 715.8C6031.36 706.7 6030.27 698.033 6029.41 689.8H6011.86C6010.99 698.033 6009.91 706.7 6008.61 715.8C6007.31 724.467 6005.79 732.917 6004.06 741.15L5936.46 1033H5792.81L5909.16 620.9C5912.19 609.633 5918.04 600.75 5926.71 594.25C5935.37 587.75 5945.34 584.5 5956.61 584.5H6084.66ZM6139.91 837.35V936.15H5901.36V837.35H6139.91ZM6416.56 584.5V1033H6276.81V584.5H6416.56ZM6897.75 584.5V984.25C6897.75 1016.75 6881.5 1033 6849 1033H6795.05C6780.31 1033 6769.26 1029.53 6761.9 1022.6C6754.96 1015.67 6747.81 1005.48 6740.45 992.05L6642.95 838C6636.88 826.733 6631.25 814.6 6626.05 801.6C6621.28 788.167 6616.95 774.733 6613.05 761.3H6608.5C6610.66 774.733 6612.18 788.6 6613.05 802.9C6614.35 816.767 6615 830.2 6615 843.2V1033H6485V633.25C6485 600.75 6501.25 584.5 6533.75 584.5H6587.7C6602.43 584.5 6613.26 587.967 6620.2 594.9C6627.13 601.833 6634.5 612.017 6642.3 625.45L6735.9 772.35C6741.96 783.183 6747.81 795.1 6753.45 808.1C6759.51 821.1 6765.15 834.75 6770.35 849.05H6774.9C6773.16 835.183 6771.65 821.533 6770.35 808.1C6769.48 794.667 6769.05 781.233 6769.05 767.8L6768.4 584.5H6897.75ZM7458.88 584.5C7490.51 584.5 7506.98 600.75 7508.28 633.25L7523.88 1033H7397.13L7383.48 689.8H7373.73L7329.53 918.6C7325.19 947.2 7307.43 961.5 7276.23 961.5H7203.43C7172.66 961.5 7154.68 947.2 7149.48 918.6L7104.63 689.8H7094.88L7083.83 1033H6957.08L6972.68 633.25C6973.98 600.75 6990.44 584.5 7022.08 584.5H7143.63C7173.96 584.5 7191.73 599.017 7196.93 628.05L7229.43 806.15C7231.16 816.983 7232.46 828.033 7233.33 839.3C7234.63 850.567 7235.71 861.833 7236.58 873.1H7242.43C7243.73 861.833 7244.81 850.567 7245.68 839.3C7246.98 828.033 7248.49 816.983 7250.23 806.15L7280.78 628.05C7285.98 599.017 7303.96 584.5 7334.73 584.5H7458.88ZM7685.82 581.9C7711.82 581.9 7738.47 582.117 7765.77 582.55C7793.51 582.55 7820.59 583.2 7847.02 584.5C7873.46 585.367 7897.51 587.317 7919.17 590.35L7912.67 689.8H7748.22C7739.99 689.8 7733.49 691.967 7728.72 696.3C7723.96 700.633 7721.57 706.267 7721.57 713.2V904.3C7721.57 911.233 7723.96 916.867 7728.72 921.2C7733.49 925.533 7739.99 927.7 7748.22 927.7H7912.67L7919.17 1027.15C7897.51 1029.75 7873.46 1031.7 7847.02 1033C7820.59 1034.3 7793.51 1034.95 7765.77 1034.95C7738.47 1035.38 7711.82 1035.6 7685.82 1035.6C7655.06 1035.6 7629.71 1026.28 7609.77 1007.65C7590.27 988.583 7580.52 963.883 7580.52 933.55V683.95C7580.52 653.617 7590.27 629.133 7609.77 610.5C7629.71 591.433 7655.06 581.9 7685.82 581.9ZM7592.22 756.75H7889.27V850.35H7592.22V756.75ZM8383.73 584.5V984.25C8383.73 1016.75 8367.48 1033 8334.98 1033H8281.03C8266.3 1033 8255.25 1029.53 8247.88 1022.6C8240.95 1015.67 8233.8 1005.48 8226.43 992.05L8128.93 838C8122.86 826.733 8117.23 814.6 8112.03 801.6C8107.26 788.167 8102.93 774.733 8099.03 761.3H8094.48C8096.65 774.733 8098.16 788.6 8099.03 802.9C8100.33 816.767 8100.98 830.2 8100.98 843.2V1033H7970.98V633.25C7970.98 600.75 7987.23 584.5 8019.73 584.5H8073.68C8088.41 584.5 8099.25 587.967 8106.18 594.9C8113.11 601.833 8120.48 612.017 8128.28 625.45L8221.88 772.35C8227.95 783.183 8233.8 795.1 8239.43 808.1C8245.5 821.1 8251.13 834.75 8256.33 849.05H8260.88C8259.15 835.183 8257.63 821.533 8256.33 808.1C8255.46 794.667 8255.03 781.233 8255.03 767.8L8254.38 584.5H8383.73ZM8690.06 584.5V1033H8549.01V584.5H8690.06ZM8815.51 584.5V689.8H8423.56V584.5H8815.51Z" fill="#1A1D1A"/>
<path d="M1283.32 100C1217.92 146.145 1150.88 196.71 1083.01 251.082C1074.99 257.503 1066.97 263.974 1058.94 270.49C1109.87 313.417 1160.89 358.114 1211.65 404.293C1351.12 292.806 1484.23 200.238 1603.34 131.277C1622.48 120.198 1641.08 109.831 1659.13 100.164C1790.16 104.866 1895.49 210.411 1899.86 341.53C1890.25 359.446 1879.96 377.908 1868.97 396.899C1799.41 517.039 1705.84 651.415 1593.07 792.197C1480.41 932.838 1351.54 1076.18 1213.86 1213.86C1161.85 1265.86 1109.04 1316.61 1055.87 1365.7C1106.77 1411.24 1157.8 1455.08 1208.56 1496.87C1257.97 1450.86 1306.99 1403.57 1355.28 1355.28C1497.76 1212.8 1631.58 1064.02 1749.16 917.237C1803.44 849.482 1853.92 782.563 1900 717.273V1650C1900 1788.07 1788.07 1900 1650 1900H717.273C782.563 1853.92 849.482 1803.44 917.237 1749.16C925.253 1742.74 933.273 1736.27 941.3 1729.75C890.287 1686.76 839.274 1642.05 788.593 1595.95C649.121 1707.44 516.014 1800.01 396.899 1868.97C377.908 1879.96 359.446 1890.25 341.53 1899.86C210.411 1895.49 104.865 1790.16 100.164 1659.12C109.83 1641.08 120.197 1622.48 131.276 1603.34C200.831 1483.2 294.4 1348.83 407.175 1208.05C519.837 1067.41 648.708 924.063 786.386 786.386C838.39 734.381 891.204 683.634 944.374 634.541C893.214 588.766 842.178 544.944 791.682 503.376C742.267 549.381 693.254 596.676 644.965 644.965C502.487 787.443 368.66 936.229 251.082 1083.01C196.71 1150.88 146.145 1217.92 100 1283.31V350C100 211.929 211.929 100 350 100H1283.32Z" fill="#1A1D1A"/>
<mask id="mask0_7_1898" style="mask-type:alpha" maskUnits="userSpaceOnUse" x="100" y="100" width="1800" height="1800">
<rect x="100.5" y="100.5" width="1799" height="1799" rx="249.5" fill="#0A0A14" stroke="#0A0A14"/>
</mask>
<g mask="url(#mask0_7_1898)">
<path d="M786.385 1213.86C924.062 1351.54 1067.4 1480.41 1208.05 1593.07C1348.83 1705.84 1483.2 1799.41 1603.34 1868.97C1724.57 1939.15 1824.24 1980.75 1897.93 1996.72C1976.44 2013.74 1995.94 1996.23 1996.09 1996.09L2137.51 2137.51C2062.93 2212.08 1953.27 2213.36 1855.57 2192.19C1753.03 2169.97 1632.83 2117.14 1503.14 2042.05C1372.35 1966.33 1229.64 1866.63 1083.01 1749.16C936.228 1631.58 787.442 1497.76 644.964 1355.28L786.385 1213.86ZM1729.75 1058.94C1854.88 1213.06 1961.71 1364.36 2042.05 1503.14C2117.91 1634.16 2170.16 1753.93 2192.19 1855.57C2213.08 1952 2212.63 2062.38 2137.51 2137.51L1996.09 1996.09C1996.4 1995.77 2013.65 1976.07 1996.72 1897.93C1980.92 1825 1939.8 1725.7 1868.97 1603.34C1799.04 1482.56 1705.98 1349.3 1595.95 1211.65C1642.05 1160.97 1686.76 1109.96 1729.75 1058.94ZM634.542 1055.87C683.634 1109.04 734.381 1161.85 786.385 1213.86L644.964 1355.28C596.675 1306.99 549.38 1257.98 503.374 1208.56C545.162 1157.8 589.004 1106.77 634.542 1055.87ZM-137.265 -137.264C-62.1392 -212.389 48.2434 -212.838 144.673 -191.941C246.314 -169.916 366.08 -117.665 497.105 -41.8076C760.197 110.508 1068.31 357.993 1355.28 644.965C1403.69 693.375 1450.97 742.387 1496.87 791.683C1455.08 842.444 1411.24 893.476 1365.7 944.37C1316.84 891.451 1266.12 838.644 1213.86 786.386C935.03 507.559 640.576 272.354 396.898 131.277C274.54 60.4382 175.247 19.3257 102.316 3.52145C24.182 -13.4103 4.4745 3.83943 4.15625 4.1572C4.01096 4.3039 -13.4929 23.8102 3.51953 102.317C19.4882 176.007 61.0903 275.669 131.276 396.899C200.237 516.014 292.805 649.121 404.292 788.593C358.189 839.274 313.486 890.286 270.489 941.3C263.973 933.274 257.502 925.253 251.081 917.237C133.616 770.601 33.9098 627.893 -41.8086 497.106C-116.895 367.411 -169.721 247.216 -191.942 144.674C-213.113 46.9771 -211.84 -62.6887 -137.265 -137.264Z" fill="#FB3640"/>
</g>
</svg>
