<svg width="2000" height="2150" viewBox="0 0 2000 2150" fill="none" xmlns="http://www.w3.org/2000/svg">
<mask id="path-1-outside-1_4_521" maskUnits="userSpaceOnUse" x="433.561" y="1949" width="1476" height="170" fill="black">
<rect fill="white" x="433.561" y="1949" width="1476" height="170"/>
<path d="M486.101 1975.02C492.901 1975.02 499.871 1975.08 507.011 1975.19C514.264 1975.19 521.347 1975.36 528.261 1975.7C535.174 1975.93 541.464 1976.44 547.131 1977.23L545.431 2003.24H502.421C500.267 2003.24 498.567 2003.81 497.321 2004.94C496.074 2006.07 495.451 2007.55 495.451 2009.36V2059.34C495.451 2061.15 496.074 2062.63 497.321 2063.76C498.567 2064.89 500.267 2065.46 502.421 2065.46H545.431L547.131 2091.47C541.464 2092.15 535.174 2092.66 528.261 2093C521.347 2093.34 514.264 2093.51 507.011 2093.51C499.871 2093.62 492.901 2093.68 486.101 2093.68C478.054 2093.68 471.424 2091.24 466.211 2086.37C461.111 2081.38 458.561 2074.92 458.561 2066.99V2001.71C458.561 1993.78 461.111 1987.37 466.211 1982.5C471.424 1977.51 478.054 1975.02 486.101 1975.02ZM461.621 2020.75H539.311V2045.23H461.621V2020.75Z"/>
<path d="M668.63 1975.7V2080.25C668.63 2088.75 664.38 2093 655.88 2093H641.77C637.917 2093 635.027 2092.09 633.1 2090.28C631.287 2088.47 629.417 2085.8 627.49 2082.29L601.99 2042C600.403 2039.05 598.93 2035.88 597.57 2032.48C596.323 2028.97 595.19 2025.45 594.17 2021.94H592.98C593.547 2025.45 593.943 2029.08 594.17 2032.82C594.51 2036.45 594.68 2039.96 594.68 2043.36V2093H560.68V1988.45C560.68 1979.95 564.93 1975.7 573.43 1975.7H587.54C591.393 1975.7 594.227 1976.61 596.04 1978.42C597.853 1980.23 599.78 1982.9 601.82 1986.41L626.3 2024.83C627.887 2027.66 629.417 2030.78 630.89 2034.18C632.477 2037.58 633.95 2041.15 635.31 2044.89H636.5C636.047 2041.26 635.65 2037.69 635.31 2034.18C635.083 2030.67 634.97 2027.15 634.97 2023.64L634.8 1975.7H668.63Z"/>
<path d="M748.748 1975.7V2093H711.858V1975.7H748.748ZM781.558 1975.7V2003.24H679.048V1975.7H781.558Z"/>
<path d="M818.796 1975.02C825.596 1975.02 832.566 1975.08 839.706 1975.19C846.959 1975.19 854.043 1975.36 860.956 1975.7C867.869 1975.93 874.159 1976.44 879.826 1977.23L878.126 2003.24H835.116C832.963 2003.24 831.263 2003.81 830.016 2004.94C828.769 2006.07 828.146 2007.55 828.146 2009.36V2059.34C828.146 2061.15 828.769 2062.63 830.016 2063.76C831.263 2064.89 832.963 2065.46 835.116 2065.46H878.126L879.826 2091.47C874.159 2092.15 867.869 2092.66 860.956 2093C854.043 2093.34 846.959 2093.51 839.706 2093.51C832.566 2093.62 825.596 2093.68 818.796 2093.68C810.749 2093.68 804.119 2091.24 798.906 2086.37C793.806 2081.38 791.256 2074.92 791.256 2066.99V2001.71C791.256 1993.78 793.806 1987.37 798.906 1982.5C804.119 1977.51 810.749 1975.02 818.796 1975.02ZM794.316 2020.75H872.006V2045.23H794.316V2020.75Z"/>
<path d="M943.185 1974C954.745 1974 964.152 1975.08 971.405 1977.23C978.659 1979.38 983.985 1983.07 987.385 1988.28C990.899 1993.38 992.655 2000.52 992.655 2009.7C992.655 2014.35 991.919 2018.71 990.445 2022.79C989.085 2026.76 986.649 2030.04 983.135 2032.65C979.735 2035.26 974.975 2036.9 968.855 2037.58V2038.6C971.009 2038.83 973.389 2039.51 975.995 2040.64C978.602 2041.66 981.039 2043.47 983.305 2046.08C985.572 2048.57 987.159 2052.2 988.065 2056.96L997.245 2093H958.655L951.005 2058.15C950.325 2054.86 949.249 2052.71 947.775 2051.69C946.415 2050.67 944.149 2050.16 940.975 2050.16C932.475 2050.05 925.505 2049.99 920.065 2049.99C914.739 2049.99 910.205 2049.93 906.465 2049.82C902.725 2049.71 898.985 2049.54 895.245 2049.31L895.755 2024.15H942.335C945.849 2024.15 948.569 2023.81 950.495 2023.13C952.422 2022.45 953.725 2021.26 954.405 2019.56C955.199 2017.75 955.595 2015.25 955.595 2012.08C955.595 2008.79 955.199 2006.3 954.405 2004.6C953.725 2002.9 952.422 2001.71 950.495 2001.03C948.569 2000.35 945.849 2000.01 942.335 2000.01C930.549 2000.01 920.632 2000.07 912.585 2000.18C904.539 2000.29 899.042 2000.52 896.095 2000.86L893.375 1975.7C898.589 1975.13 903.462 1974.74 907.995 1974.51C912.642 1974.28 917.685 1974.17 923.125 1974.17C928.679 1974.06 935.365 1974 943.185 1974ZM929.585 1975.7V2093H893.375V1975.7H929.585Z"/>
<path d="M1069.99 1975.7V2093H1033.1V1975.7H1069.99ZM1102.8 1975.7V2003.24H1000.29V1975.7H1102.8Z"/>
<path d="M1169.51 1975.7C1172.46 1975.7 1175.06 1976.55 1177.33 1978.25C1179.6 1979.95 1181.13 1982.27 1181.92 1985.22L1212.35 2093H1174.78L1157.1 2016.67C1156.65 2014.52 1156.25 2012.31 1155.91 2010.04C1155.57 2007.66 1155.29 2005.39 1155.06 2003.24H1150.47C1150.24 2005.39 1149.96 2007.66 1149.62 2010.04C1149.28 2012.31 1148.88 2014.52 1148.43 2016.67L1130.75 2093H1093.18L1123.61 1985.22C1124.4 1982.27 1125.93 1979.95 1128.2 1978.25C1130.47 1976.55 1133.07 1975.7 1136.02 1975.7H1169.51ZM1183.96 2041.83V2067.67H1121.57V2041.83H1183.96Z"/>
<path d="M1256.32 1975.7V2093H1219.77V1975.7H1256.32Z"/>
<path d="M1382.17 1975.7V2080.25C1382.17 2088.75 1377.92 2093 1369.42 2093H1355.31C1351.45 2093 1348.56 2092.09 1346.64 2090.28C1344.82 2088.47 1342.95 2085.8 1341.03 2082.29L1315.53 2042C1313.94 2039.05 1312.47 2035.88 1311.11 2032.48C1309.86 2028.97 1308.73 2025.45 1307.71 2021.94H1306.52C1307.08 2025.45 1307.48 2029.08 1307.71 2032.82C1308.05 2036.45 1308.22 2039.96 1308.22 2043.36V2093H1274.22V1988.45C1274.22 1979.95 1278.47 1975.7 1286.97 1975.7H1301.08C1304.93 1975.7 1307.76 1976.61 1309.58 1978.42C1311.39 1980.23 1313.32 1982.9 1315.36 1986.41L1339.84 2024.83C1341.42 2027.66 1342.95 2030.78 1344.43 2034.18C1346.01 2037.58 1347.49 2041.15 1348.85 2044.89H1350.04C1349.58 2041.26 1349.19 2037.69 1348.85 2034.18C1348.62 2030.67 1348.51 2027.15 1348.51 2023.64L1348.34 1975.7H1382.17Z"/>
<path d="M1528.92 1975.7C1537.2 1975.7 1541.5 1979.95 1541.84 1988.45L1545.92 2093H1512.77L1509.2 2003.24H1506.65L1495.09 2063.08C1493.96 2070.56 1489.31 2074.3 1481.15 2074.3H1462.11C1454.07 2074.3 1449.36 2070.56 1448 2063.08L1436.27 2003.24H1433.72L1430.83 2093H1397.68L1401.76 1988.45C1402.1 1979.95 1406.41 1975.7 1414.68 1975.7H1446.47C1454.41 1975.7 1459.05 1979.5 1460.41 1987.09L1468.91 2033.67C1469.37 2036.5 1469.71 2039.39 1469.93 2042.34C1470.27 2045.29 1470.56 2048.23 1470.78 2051.18H1472.31C1472.65 2048.23 1472.94 2045.29 1473.16 2042.34C1473.5 2039.39 1473.9 2036.5 1474.35 2033.67L1482.34 1987.09C1483.7 1979.5 1488.41 1975.7 1496.45 1975.7H1528.92Z"/>
<path d="M1588.28 1975.02C1595.08 1975.02 1602.05 1975.08 1609.19 1975.19C1616.44 1975.19 1623.53 1975.36 1630.44 1975.7C1637.35 1975.93 1643.64 1976.44 1649.31 1977.23L1647.61 2003.24H1604.6C1602.44 2003.24 1600.74 2003.81 1599.5 2004.94C1598.25 2006.07 1597.63 2007.55 1597.63 2009.36V2059.34C1597.63 2061.15 1598.25 2062.63 1599.5 2063.76C1600.74 2064.89 1602.44 2065.46 1604.6 2065.46H1647.61L1649.31 2091.47C1643.64 2092.15 1637.35 2092.66 1630.44 2093C1623.53 2093.34 1616.44 2093.51 1609.19 2093.51C1602.05 2093.62 1595.08 2093.68 1588.28 2093.68C1580.23 2093.68 1573.6 2091.24 1568.39 2086.37C1563.29 2081.38 1560.74 2074.92 1560.74 2066.99V2001.71C1560.74 1993.78 1563.29 1987.37 1568.39 1982.5C1573.6 1977.51 1580.23 1975.02 1588.28 1975.02ZM1563.8 2020.75H1641.49V2045.23H1563.8V2020.75Z"/>
<path d="M1770.81 1975.7V2080.25C1770.81 2088.75 1766.56 2093 1758.06 2093H1743.95C1740.09 2093 1737.2 2092.09 1735.28 2090.28C1733.46 2088.47 1731.59 2085.8 1729.67 2082.29L1704.17 2042C1702.58 2039.05 1701.11 2035.88 1699.75 2032.48C1698.5 2028.97 1697.37 2025.45 1696.35 2021.94H1695.16C1695.72 2025.45 1696.12 2029.08 1696.35 2032.82C1696.69 2036.45 1696.86 2039.96 1696.86 2043.36V2093H1662.86V1988.45C1662.86 1979.95 1667.11 1975.7 1675.61 1975.7H1689.72C1693.57 1975.7 1696.4 1976.61 1698.22 1978.42C1700.03 1980.23 1701.96 1982.9 1704 1986.41L1728.48 2024.83C1730.06 2027.66 1731.59 2030.78 1733.07 2034.18C1734.65 2037.58 1736.13 2041.15 1737.49 2044.89H1738.68C1738.22 2041.26 1737.83 2037.69 1737.49 2034.18C1737.26 2030.67 1737.15 2027.15 1737.15 2023.64L1736.98 1975.7H1770.81Z"/>
<path d="M1850.93 1975.7V2093H1814.04V1975.7H1850.93ZM1883.74 1975.7V2003.24H1781.23V1975.7H1883.74Z"/>
</mask>
<path d="M507.011 1975.19L506.614 2000.19C506.746 2000.19 506.878 2000.19 507.011 2000.19L507.011 1975.19ZM528.261 1975.7L527.033 2000.67C527.169 2000.68 527.305 2000.68 527.441 2000.69L528.261 1975.7ZM547.131 1977.23L572.077 1978.86C572.931 1965.8 563.562 1954.29 550.597 1952.47L547.131 1977.23ZM545.431 2003.24V2028.24C558.605 2028.24 569.518 2018.02 570.377 2004.87L545.431 2003.24ZM545.431 2065.46L570.377 2063.83C569.518 2050.68 558.605 2040.46 545.431 2040.46V2065.46ZM547.131 2091.47L550.109 2116.29C563.296 2114.71 572.943 2103.09 572.077 2089.84L547.131 2091.47ZM507.011 2093.51V2068.51C506.878 2068.51 506.746 2068.51 506.614 2068.51L507.011 2093.51ZM466.211 2086.37L448.733 2104.25C448.866 2104.38 449.002 2104.51 449.138 2104.63L466.211 2086.37ZM466.211 1982.5L483.482 2000.57L483.491 2000.57L466.211 1982.5ZM461.621 2020.75V1995.75C447.813 1995.75 436.621 2006.94 436.621 2020.75H461.621ZM539.311 2020.75H564.311C564.311 2006.94 553.118 1995.75 539.311 1995.75V2020.75ZM539.311 2045.23V2070.23C553.118 2070.23 564.311 2059.04 564.311 2045.23H539.311ZM461.621 2045.23H436.621C436.621 2059.04 447.813 2070.23 461.621 2070.23V2045.23ZM668.63 1975.7H693.63C693.63 1961.89 682.437 1950.7 668.63 1950.7V1975.7ZM633.1 2090.28L615.422 2107.96C615.601 2108.14 615.782 2108.31 615.966 2108.49L633.1 2090.28ZM627.49 2082.29L649.41 2070.27C649.159 2069.81 648.894 2069.36 648.615 2068.92L627.49 2082.29ZM601.99 2042L579.978 2053.85C580.256 2054.37 580.552 2054.87 580.866 2055.37L601.99 2042ZM597.57 2032.48L574.009 2040.84C574.12 2041.15 574.236 2041.46 574.358 2041.76L597.57 2032.48ZM594.17 2021.94L618.179 2014.97C615.078 2004.29 605.293 1996.94 594.17 1996.94V2021.94ZM592.98 2021.94V1996.94C585.654 1996.94 578.697 2000.15 573.947 2005.73C569.197 2011.31 567.133 2018.69 568.299 2025.92L592.98 2021.94ZM594.17 2032.82L569.216 2034.33C569.232 2034.61 569.254 2034.88 569.279 2035.15L594.17 2032.82ZM594.68 2093V2118C608.487 2118 619.68 2106.81 619.68 2093H594.68ZM560.68 2093H535.68C535.68 2106.81 546.873 2118 560.68 2118V2093ZM596.04 1978.42L578.362 1996.1L578.362 1996.1L596.04 1978.42ZM601.82 1986.41L580.2 1998.96C580.373 1999.26 580.552 1999.55 580.736 1999.84L601.82 1986.41ZM626.3 2024.83L648.113 2012.61C647.881 2012.2 647.638 2011.8 647.384 2011.4L626.3 2024.83ZM630.89 2034.18L607.951 2044.12C608.043 2044.33 608.138 2044.54 608.235 2044.75L630.89 2034.18ZM635.31 2044.89L611.815 2053.43C615.408 2063.31 624.797 2069.89 635.31 2069.89V2044.89ZM636.5 2044.89V2069.89C643.671 2069.89 650.496 2066.81 655.242 2061.44C659.988 2056.06 662.196 2048.9 661.307 2041.79L636.5 2044.89ZM635.31 2034.18L610.362 2035.79C610.379 2036.06 610.401 2036.32 610.426 2036.59L635.31 2034.18ZM634.97 2023.64H659.97C659.97 2023.61 659.97 2023.58 659.97 2023.55L634.97 2023.64ZM634.8 1975.7V1950.7C628.154 1950.7 621.782 1953.35 617.091 1958.05C612.4 1962.76 609.777 1969.14 609.8 1975.79L634.8 1975.7ZM748.748 1975.7H773.748C773.748 1961.89 762.555 1950.7 748.748 1950.7V1975.7ZM748.748 2093V2118C762.555 2118 773.748 2106.81 773.748 2093H748.748ZM711.858 2093H686.858C686.858 2106.81 698.051 2118 711.858 2118V2093ZM711.858 1975.7V1950.7C698.051 1950.7 686.858 1961.89 686.858 1975.7H711.858ZM781.558 1975.7H806.558C806.558 1961.89 795.365 1950.7 781.558 1950.7V1975.7ZM781.558 2003.24V2028.24C795.365 2028.24 806.558 2017.05 806.558 2003.24H781.558ZM679.048 2003.24H654.048C654.048 2017.05 665.241 2028.24 679.048 2028.24V2003.24ZM679.048 1975.7V1950.7C665.241 1950.7 654.048 1961.89 654.048 1975.7H679.048ZM839.706 1975.19L839.309 2000.19C839.441 2000.19 839.574 2000.19 839.706 2000.19V1975.19ZM860.956 1975.7L859.728 2000.67C859.864 2000.68 860 2000.68 860.137 2000.69L860.956 1975.7ZM879.826 1977.23L904.773 1978.86C905.626 1965.8 896.257 1954.29 883.292 1952.47L879.826 1977.23ZM878.126 2003.24V2028.24C891.3 2028.24 902.213 2018.02 903.073 2004.87L878.126 2003.24ZM878.126 2065.46L903.073 2063.83C902.213 2050.68 891.3 2040.46 878.126 2040.46V2065.46ZM879.826 2091.47L882.804 2116.29C895.991 2114.71 905.639 2103.09 904.773 2089.84L879.826 2091.47ZM839.706 2093.51V2068.51C839.574 2068.51 839.441 2068.51 839.309 2068.51L839.706 2093.51ZM798.906 2086.37L781.428 2104.25C781.562 2104.38 781.697 2104.51 781.834 2104.63L798.906 2086.37ZM798.906 1982.5L816.177 2000.57L816.186 2000.57L798.906 1982.5ZM794.316 2020.75V1995.75C780.509 1995.75 769.316 2006.94 769.316 2020.75H794.316ZM872.006 2020.75H897.006C897.006 2006.94 885.813 1995.75 872.006 1995.75V2020.75ZM872.006 2045.23V2070.23C885.813 2070.23 897.006 2059.04 897.006 2045.23H872.006ZM794.316 2045.23H769.316C769.316 2059.04 780.509 2070.23 794.316 2070.23V2045.23ZM987.385 1988.28L966.445 2001.94C966.56 2002.11 966.678 2002.29 966.798 2002.46L987.385 1988.28ZM990.445 2022.79L966.932 2014.3C966.886 2014.43 966.841 2014.55 966.797 2014.68L990.445 2022.79ZM983.135 2032.65L968.239 2012.57C968.134 2012.65 968.029 2012.73 967.925 2012.81L983.135 2032.65ZM968.855 2037.58L966.095 2012.73C953.434 2014.14 943.855 2024.84 943.855 2037.58H968.855ZM968.855 2038.6H943.855C943.855 2051.39 953.515 2062.12 966.238 2063.46L968.855 2038.6ZM975.995 2040.64L966.027 2063.57C966.311 2063.69 966.597 2063.81 966.885 2063.92L975.995 2040.64ZM983.305 2046.08L964.44 2062.48C964.561 2062.62 964.683 2062.76 964.807 2062.9L983.305 2046.08ZM988.065 2056.96L963.507 2061.64C963.602 2062.14 963.713 2062.64 963.839 2063.13L988.065 2056.96ZM997.245 2093V2118C1004.96 2118 1012.25 2114.44 1016.98 2108.34C1021.72 2102.25 1023.38 2094.31 1021.47 2086.83L997.245 2093ZM958.655 2093L934.237 2098.36C936.754 2109.83 946.914 2118 958.655 2118V2093ZM951.005 2058.15L926.524 2063.22C926.544 2063.31 926.565 2063.41 926.587 2063.51L951.005 2058.15ZM947.775 2051.69L932.775 2071.69C933.028 2071.88 933.285 2072.06 933.545 2072.24L947.775 2051.69ZM940.975 2050.16L940.642 2075.16C940.753 2075.16 940.864 2075.16 940.975 2075.16L940.975 2050.16ZM906.465 2049.82L905.708 2074.81L905.708 2074.81L906.465 2049.82ZM895.245 2049.31L870.251 2048.8C869.979 2062.22 880.342 2073.45 893.733 2074.26L895.245 2049.31ZM895.755 2024.15V1999.15C882.146 1999.15 871.036 2010.04 870.761 2023.64L895.755 2024.15ZM950.495 2023.13L958.816 2046.7L958.816 2046.7L950.495 2023.13ZM954.405 2019.56L931.501 2009.54C931.395 2009.78 931.292 2010.03 931.193 2010.28L954.405 2019.56ZM954.405 2004.6L931.193 2013.88C931.367 2014.32 931.553 2014.75 931.751 2015.17L954.405 2004.6ZM950.495 2001.03L942.175 2024.6L942.175 2024.6L950.495 2001.03ZM912.585 2000.18L912.937 2025.18L912.937 2025.18L912.585 2000.18ZM896.095 2000.86L871.24 2003.55C871.956 2010.17 875.286 2016.23 880.49 2020.39C885.695 2024.55 892.343 2026.46 898.961 2025.7L896.095 2000.86ZM893.375 1975.7L890.674 1950.85C877.987 1952.23 868.375 1962.94 868.375 1975.7H893.375ZM907.995 1974.51L906.777 1949.54C906.767 1949.54 906.757 1949.54 906.747 1949.54L907.995 1974.51ZM923.125 1974.17V1999.17C923.295 1999.17 923.465 1999.17 923.635 1999.16L923.125 1974.17ZM929.585 1975.7H954.585C954.585 1961.89 943.392 1950.7 929.585 1950.7V1975.7ZM929.585 2093V2118C943.392 2118 954.585 2106.81 954.585 2093H929.585ZM893.375 2093H868.375C868.375 2106.81 879.568 2118 893.375 2118V2093ZM1069.99 1975.7H1094.99C1094.99 1961.89 1083.8 1950.7 1069.99 1950.7V1975.7ZM1069.99 2093V2118C1083.8 2118 1094.99 2106.81 1094.99 2093H1069.99ZM1033.1 2093H1008.1C1008.1 2106.81 1019.29 2118 1033.1 2118V2093ZM1033.1 1975.7V1950.7C1019.29 1950.7 1008.1 1961.89 1008.1 1975.7H1033.1ZM1102.8 1975.7H1127.8C1127.8 1961.89 1116.61 1950.7 1102.8 1950.7V1975.7ZM1102.8 2003.24V2028.24C1116.61 2028.24 1127.8 2017.05 1127.8 2003.24H1102.8ZM1000.29 2003.24H975.288C975.288 2017.05 986.481 2028.24 1000.29 2028.24V2003.24ZM1000.29 1975.7V1950.7C986.481 1950.7 975.288 1961.89 975.288 1975.7H1000.29ZM1177.33 1978.25L1162.33 1998.25L1162.33 1998.25L1177.33 1978.25ZM1181.92 1985.22L1157.78 1991.72C1157.81 1991.82 1157.83 1991.92 1157.86 1992.01L1181.92 1985.22ZM1212.35 2093V2118C1220.18 2118 1227.56 2114.33 1232.29 2108.09C1237.01 2101.84 1238.54 2093.74 1236.41 2086.21L1212.35 2093ZM1174.78 2093L1150.43 2098.64C1153.05 2109.98 1163.15 2118 1174.78 2118V2093ZM1157.1 2016.67L1132.64 2021.82C1132.67 2021.98 1132.71 2022.15 1132.75 2022.31L1157.1 2016.67ZM1155.91 2010.04L1131.16 2013.58C1131.17 2013.63 1131.18 2013.69 1131.19 2013.75L1155.91 2010.04ZM1155.06 2003.24L1179.92 2000.62C1178.58 1987.9 1167.86 1978.24 1155.06 1978.24V2003.24ZM1150.47 2003.24V1978.24C1137.68 1978.24 1126.95 1987.9 1125.61 2000.62L1150.47 2003.24ZM1149.62 2010.04L1174.34 2013.75C1174.35 2013.69 1174.36 2013.63 1174.37 2013.58L1149.62 2010.04ZM1148.43 2016.67L1172.79 2022.31C1172.82 2022.15 1172.86 2021.98 1172.89 2021.82L1148.43 2016.67ZM1130.75 2093V2118C1142.39 2118 1152.48 2109.98 1155.11 2098.64L1130.75 2093ZM1093.18 2093L1069.12 2086.21C1066.99 2093.74 1068.52 2101.84 1073.25 2108.09C1077.97 2114.33 1085.35 2118 1093.18 2118V2093ZM1123.61 1985.22L1147.67 1992.01C1147.7 1991.92 1147.73 1991.82 1147.75 1991.72L1123.61 1985.22ZM1128.2 1978.25L1143.2 1998.25L1143.2 1998.25L1128.2 1978.25ZM1183.96 2041.83H1208.96C1208.96 2028.02 1197.77 2016.83 1183.96 2016.83V2041.83ZM1183.96 2067.67V2092.67C1197.77 2092.67 1208.96 2081.48 1208.96 2067.67H1183.96ZM1121.57 2067.67H1096.57C1096.57 2081.48 1107.76 2092.67 1121.57 2092.67V2067.67ZM1121.57 2041.83V2016.83C1107.76 2016.83 1096.57 2028.02 1096.57 2041.83H1121.57ZM1256.32 1975.7H1281.32C1281.32 1961.89 1270.12 1950.7 1256.32 1950.7V1975.7ZM1256.32 2093V2118C1270.12 2118 1281.32 2106.81 1281.32 2093H1256.32ZM1219.77 2093H1194.77C1194.77 2106.81 1205.96 2118 1219.77 2118V2093ZM1219.77 1975.7V1950.7C1205.96 1950.7 1194.77 1961.89 1194.77 1975.7H1219.77ZM1382.17 1975.7H1407.17C1407.17 1961.89 1395.97 1950.7 1382.17 1950.7V1975.7ZM1346.64 2090.28L1328.96 2107.96C1329.14 2108.14 1329.32 2108.31 1329.5 2108.49L1346.64 2090.28ZM1341.03 2082.29L1362.95 2070.27C1362.69 2069.81 1362.43 2069.36 1362.15 2068.92L1341.03 2082.29ZM1315.53 2042L1293.51 2053.85C1293.79 2054.37 1294.09 2054.87 1294.4 2055.37L1315.53 2042ZM1311.11 2032.48L1287.54 2040.84C1287.65 2041.15 1287.77 2041.46 1287.89 2041.76L1311.11 2032.48ZM1307.71 2021.94L1331.71 2014.97C1328.61 2004.29 1318.83 1996.94 1307.71 1996.94V2021.94ZM1306.52 2021.94V1996.94C1299.19 1996.94 1292.23 2000.15 1287.48 2005.73C1282.73 2011.31 1280.67 2018.69 1281.83 2025.92L1306.52 2021.94ZM1307.71 2032.82L1282.75 2034.33C1282.77 2034.61 1282.79 2034.88 1282.81 2035.15L1307.71 2032.82ZM1308.22 2093V2118C1322.02 2118 1333.22 2106.81 1333.22 2093H1308.22ZM1274.22 2093H1249.22C1249.22 2106.81 1260.41 2118 1274.22 2118V2093ZM1309.58 1978.42L1291.9 1996.1L1291.9 1996.1L1309.58 1978.42ZM1315.36 1986.41L1293.74 1998.96C1293.91 1999.26 1294.09 1999.55 1294.27 1999.84L1315.36 1986.41ZM1339.84 2024.83L1361.65 2012.61C1361.42 2012.2 1361.17 2011.8 1360.92 2011.4L1339.84 2024.83ZM1344.43 2034.18L1321.49 2044.12C1321.58 2044.33 1321.67 2044.54 1321.77 2044.75L1344.43 2034.18ZM1348.85 2044.89L1325.35 2053.43C1328.94 2063.31 1338.33 2069.89 1348.85 2069.89V2044.89ZM1350.04 2044.89V2069.89C1357.21 2069.89 1364.03 2066.81 1368.78 2061.44C1373.52 2056.06 1375.73 2048.9 1374.84 2041.79L1350.04 2044.89ZM1348.85 2034.18L1323.9 2035.79C1323.91 2036.06 1323.94 2036.32 1323.96 2036.59L1348.85 2034.18ZM1348.51 2023.64H1373.51C1373.51 2023.61 1373.51 2023.58 1373.51 2023.55L1348.51 2023.64ZM1348.34 1975.7V1950.7C1341.69 1950.7 1335.32 1953.35 1330.63 1958.05C1325.94 1962.76 1323.31 1969.14 1323.34 1975.79L1348.34 1975.7ZM1541.84 1988.45L1566.82 1987.48C1566.82 1987.47 1566.82 1987.46 1566.82 1987.45L1541.84 1988.45ZM1545.92 2093V2118C1552.72 2118 1559.23 2115.23 1563.94 2110.33C1568.66 2105.43 1571.17 2098.82 1570.9 2092.03L1545.92 2093ZM1512.77 2093L1487.79 2093.99C1488.33 2107.4 1499.35 2118 1512.77 2118V2093ZM1509.2 2003.24L1534.18 2002.25C1533.65 1988.84 1522.62 1978.24 1509.2 1978.24V2003.24ZM1506.65 2003.24V1978.24C1494.67 1978.24 1484.38 1986.74 1482.11 1998.5L1506.65 2003.24ZM1495.09 2063.08L1470.55 2058.34C1470.48 2058.67 1470.43 2059 1470.38 2059.33L1495.09 2063.08ZM1448 2063.08L1472.6 2058.61C1472.58 2058.5 1472.56 2058.38 1472.54 2058.27L1448 2063.08ZM1436.27 2003.24L1460.81 1998.43C1458.51 1986.7 1448.23 1978.24 1436.27 1978.24V2003.24ZM1433.72 2003.24V1978.24C1420.23 1978.24 1409.17 1988.95 1408.74 2002.44L1433.72 2003.24ZM1430.83 2093V2118C1444.33 2118 1455.39 2107.29 1455.82 2093.8L1430.83 2093ZM1397.68 2093L1372.7 2092.03C1372.44 2098.82 1374.95 2105.43 1379.66 2110.33C1384.38 2115.23 1390.88 2118 1397.68 2118V2093ZM1401.76 1988.45L1376.78 1987.45C1376.78 1987.46 1376.78 1987.47 1376.78 1987.48L1401.76 1988.45ZM1460.41 1987.09L1435.8 1991.5C1435.81 1991.52 1435.81 1991.55 1435.82 1991.58L1460.41 1987.09ZM1468.91 2033.67L1493.6 2029.72C1493.57 2029.54 1493.54 2029.36 1493.51 2029.18L1468.91 2033.67ZM1469.93 2042.34L1445.01 2044.26C1445.03 2044.57 1445.06 2044.89 1445.1 2045.21L1469.93 2042.34ZM1470.78 2051.18L1445.86 2053.1C1446.86 2066.12 1457.72 2076.18 1470.78 2076.18V2051.18ZM1472.31 2051.18V2076.18C1485.01 2076.18 1495.69 2066.66 1497.15 2054.05L1472.31 2051.18ZM1473.16 2042.34L1448.33 2039.47C1448.29 2039.79 1448.26 2040.11 1448.24 2040.42L1473.16 2042.34ZM1474.35 2033.67L1449.71 2029.44C1449.7 2029.54 1449.68 2029.63 1449.67 2029.72L1474.35 2033.67ZM1482.34 1987.09L1457.73 1982.68C1457.72 1982.74 1457.71 1982.8 1457.7 1982.86L1482.34 1987.09ZM1609.19 1975.19L1608.79 2000.19C1608.92 2000.19 1609.06 2000.19 1609.19 2000.19V1975.19ZM1630.44 1975.7L1629.21 2000.67C1629.35 2000.68 1629.48 2000.68 1629.62 2000.69L1630.44 1975.7ZM1649.31 1977.23L1674.26 1978.86C1675.11 1965.8 1665.74 1954.29 1652.77 1952.47L1649.31 1977.23ZM1647.61 2003.24V2028.24C1660.78 2028.24 1671.7 2018.02 1672.56 2004.87L1647.61 2003.24ZM1647.61 2065.46L1672.56 2063.83C1671.7 2050.68 1660.78 2040.46 1647.61 2040.46V2065.46ZM1649.31 2091.47L1652.29 2116.29C1665.47 2114.71 1675.12 2103.09 1674.26 2089.84L1649.31 2091.47ZM1609.19 2093.51V2068.51C1609.06 2068.51 1608.92 2068.51 1608.79 2068.51L1609.19 2093.51ZM1568.39 2086.37L1550.91 2104.25C1551.04 2104.38 1551.18 2104.51 1551.32 2104.63L1568.39 2086.37ZM1568.39 1982.5L1585.66 2000.57L1585.67 2000.57L1568.39 1982.5ZM1563.8 2020.75V1995.75C1549.99 1995.75 1538.8 2006.94 1538.8 2020.75H1563.8ZM1641.49 2020.75H1666.49C1666.49 2006.94 1655.3 1995.75 1641.49 1995.75V2020.75ZM1641.49 2045.23V2070.23C1655.3 2070.23 1666.49 2059.04 1666.49 2045.23H1641.49ZM1563.8 2045.23H1538.8C1538.8 2059.04 1549.99 2070.23 1563.8 2070.23V2045.23ZM1770.81 1975.7H1795.81C1795.81 1961.89 1784.61 1950.7 1770.81 1950.7V1975.7ZM1735.28 2090.28L1717.6 2107.96C1717.78 2108.14 1717.96 2108.31 1718.14 2108.49L1735.28 2090.28ZM1729.67 2082.29L1751.59 2070.27C1751.34 2069.81 1751.07 2069.36 1750.79 2068.92L1729.67 2082.29ZM1704.17 2042L1682.16 2053.85C1682.43 2054.37 1682.73 2054.87 1683.04 2055.37L1704.17 2042ZM1699.75 2032.48L1676.19 2040.84C1676.3 2041.15 1676.41 2041.46 1676.54 2041.76L1699.75 2032.48ZM1696.35 2021.94L1720.36 2014.97C1717.26 2004.29 1707.47 1996.94 1696.35 1996.94V2021.94ZM1695.16 2021.94V1996.94C1687.83 1996.94 1680.87 2000.15 1676.12 2005.73C1671.37 2011.31 1669.31 2018.69 1670.48 2025.92L1695.16 2021.94ZM1696.35 2032.82L1671.39 2034.33C1671.41 2034.61 1671.43 2034.88 1671.46 2035.15L1696.35 2032.82ZM1696.86 2093V2118C1710.66 2118 1721.86 2106.81 1721.86 2093H1696.86ZM1662.86 2093H1637.86C1637.86 2106.81 1649.05 2118 1662.86 2118V2093ZM1698.22 1978.42L1680.54 1996.1L1680.54 1996.1L1698.22 1978.42ZM1704 1986.41L1682.38 1998.96C1682.55 1999.26 1682.73 1999.55 1682.91 1999.84L1704 1986.41ZM1728.48 2024.83L1750.29 2012.61C1750.06 2012.2 1749.82 2011.8 1749.56 2011.4L1728.48 2024.83ZM1733.07 2034.18L1710.13 2044.12C1710.22 2044.33 1710.32 2044.54 1710.41 2044.75L1733.07 2034.18ZM1737.49 2044.89L1713.99 2053.43C1717.59 2063.31 1726.98 2069.89 1737.49 2069.89V2044.89ZM1738.68 2044.89V2069.89C1745.85 2069.89 1752.67 2066.81 1757.42 2061.44C1762.17 2056.06 1764.37 2048.9 1763.48 2041.79L1738.68 2044.89ZM1737.49 2034.18L1712.54 2035.79C1712.56 2036.06 1712.58 2036.32 1712.6 2036.59L1737.49 2034.18ZM1737.15 2023.64H1762.15C1762.15 2023.61 1762.15 2023.58 1762.15 2023.55L1737.15 2023.64ZM1736.98 1975.7V1950.7C1730.33 1950.7 1723.96 1953.35 1719.27 1958.05C1714.58 1962.76 1711.95 1969.14 1711.98 1975.79L1736.98 1975.7ZM1850.93 1975.7H1875.93C1875.93 1961.89 1864.73 1950.7 1850.93 1950.7V1975.7ZM1850.93 2093V2118C1864.73 2118 1875.93 2106.81 1875.93 2093H1850.93ZM1814.04 2093H1789.04C1789.04 2106.81 1800.23 2118 1814.04 2118V2093ZM1814.04 1975.7V1950.7C1800.23 1950.7 1789.04 1961.89 1789.04 1975.7H1814.04ZM1883.74 1975.7H1908.74C1908.74 1961.89 1897.54 1950.7 1883.74 1950.7V1975.7ZM1883.74 2003.24V2028.24C1897.54 2028.24 1908.74 2017.05 1908.74 2003.24H1883.74ZM1781.23 2003.24H1756.23C1756.23 2017.05 1767.42 2028.24 1781.23 2028.24V2003.24ZM1781.23 1975.7V1950.7C1767.42 1950.7 1756.23 1961.89 1756.23 1975.7H1781.23ZM486.101 1975.02V2000.02C492.762 2000.02 499.599 2000.08 506.614 2000.19L507.011 1975.19L507.407 1950.19C500.142 1950.08 493.039 1950.02 486.101 1950.02V1975.02ZM507.011 1975.19V2000.19C513.874 2000.19 520.547 2000.35 527.033 2000.67L528.261 1975.7L529.489 1950.73C522.147 1950.37 514.654 1950.19 507.011 1950.19V1975.19ZM528.261 1975.7L527.441 2000.69C533.645 2000.89 539.034 2001.34 543.664 2001.99L547.131 1977.23L550.597 1952.47C543.894 1951.53 536.703 1950.96 529.08 1950.71L528.261 1975.7ZM547.131 1977.23L522.184 1975.6L520.484 2001.61L545.431 2003.24L570.377 2004.87L572.077 1978.86L547.131 1977.23ZM545.431 2003.24V1978.24H502.421V2003.24V2028.24H545.431V2003.24ZM502.421 2003.24V1978.24C495.835 1978.24 487.523 1980.06 480.504 1986.44L497.321 2004.94L514.137 2023.44C509.612 2027.55 504.699 2028.24 502.421 2028.24V2003.24ZM497.321 2004.94L480.504 1986.44C473.615 1992.7 470.451 2001.11 470.451 2009.36H495.451H520.451C520.451 2011.35 520.097 2013.91 518.942 2016.64C517.769 2019.41 516.047 2021.7 514.137 2023.44L497.321 2004.94ZM495.451 2009.36H470.451V2059.34H495.451H520.451V2009.36H495.451ZM495.451 2059.34H470.451C470.451 2067.59 473.615 2076 480.504 2082.26L497.321 2063.76L514.137 2045.26C516.047 2047 517.769 2049.29 518.942 2052.06C520.097 2054.79 520.451 2057.35 520.451 2059.34H495.451ZM497.321 2063.76L480.504 2082.26C487.523 2088.64 495.836 2090.46 502.421 2090.46V2065.46V2040.46C504.699 2040.46 509.612 2041.15 514.137 2045.26L497.321 2063.76ZM502.421 2065.46V2090.46H545.431V2065.46V2040.46H502.421V2065.46ZM545.431 2065.46L520.484 2067.09L522.184 2093.1L547.131 2091.47L572.077 2089.84L570.377 2063.83L545.431 2065.46ZM547.131 2091.47L544.152 2066.65C539.173 2067.25 533.479 2067.71 527.033 2068.03L528.261 2093L529.489 2117.97C536.869 2117.61 543.754 2117.05 550.109 2116.29L547.131 2091.47ZM528.261 2093L527.033 2068.03C520.547 2068.35 513.874 2068.51 507.011 2068.51V2093.51V2118.51C514.654 2118.51 522.147 2118.33 529.489 2117.97L528.261 2093ZM507.011 2093.51L506.614 2068.51C499.599 2068.62 492.762 2068.68 486.101 2068.68V2093.68V2118.68C493.039 2118.68 500.142 2118.62 507.407 2118.51L507.011 2093.51ZM486.101 2093.68V2068.68C484.615 2068.68 483.914 2068.46 483.717 2068.39C483.57 2068.33 483.475 2068.29 483.283 2068.11L466.211 2086.37L449.138 2104.63C459.583 2114.4 472.588 2118.68 486.101 2118.68V2093.68ZM466.211 2086.37L483.688 2068.49C483.606 2068.41 483.61 2068.4 483.649 2068.46C483.69 2068.52 483.717 2068.58 483.727 2068.61C483.758 2068.68 483.561 2068.26 483.561 2066.99H458.561H433.561C433.561 2080.82 438.259 2094 448.733 2104.25L466.211 2086.37ZM458.561 2066.99H483.561V2001.71H458.561H433.561V2066.99H458.561ZM458.561 2001.71H483.561C483.561 2000.44 483.759 2000.06 483.699 2000.21C483.674 2000.27 483.624 2000.37 483.552 2000.48C483.481 2000.58 483.441 2000.61 483.482 2000.57L466.211 1982.5L448.939 1964.43C438.265 1974.63 433.561 1987.89 433.561 2001.71H458.561ZM466.211 1982.5L483.491 2000.57C483.706 2000.36 483.795 2000.33 483.893 2000.29C484.039 2000.23 484.678 2000.02 486.101 2000.02V1975.02V1950.02C472.423 1950.02 459.348 1954.47 448.93 1964.43L466.211 1982.5ZM461.621 2020.75V2045.75H539.311V2020.75V1995.75H461.621V2020.75ZM539.311 2020.75H514.311V2045.23H539.311H564.311V2020.75H539.311ZM539.311 2045.23V2020.23H461.621V2045.23V2070.23H539.311V2045.23ZM461.621 2045.23H486.621V2020.75H461.621H436.621V2045.23H461.621ZM668.63 1975.7H643.63V2080.25H668.63H693.63V1975.7H668.63ZM668.63 2080.25H643.63C643.63 2080.65 643.548 2076.35 647.765 2072.13C651.982 2067.92 656.276 2068 655.88 2068V2093V2118C663.984 2118 674.653 2115.96 683.12 2107.49C691.587 2099.02 693.63 2088.35 693.63 2080.25H668.63ZM655.88 2093V2068H641.77V2093V2118H655.88V2093ZM641.77 2093V2068C641.777 2068 641.997 2068 642.392 2068.05C642.788 2068.11 643.41 2068.22 644.196 2068.47C645.831 2068.98 648.076 2070.04 650.234 2072.07L633.1 2090.28L615.966 2108.49C624.271 2116.3 634.428 2118 641.77 2118V2093ZM633.1 2090.28L650.778 2072.6C651.122 2072.95 651.112 2073 650.798 2072.56C650.497 2072.13 650.028 2071.39 649.41 2070.27L627.49 2082.29L605.57 2094.31C608.072 2098.87 611.27 2103.8 615.422 2107.96L633.1 2090.28ZM627.49 2082.29L648.615 2068.92L623.115 2028.63L601.99 2042L580.866 2055.37L606.366 2095.66L627.49 2082.29ZM601.99 2042L624.002 2030.15C622.903 2028.11 621.823 2025.8 620.782 2023.2L597.57 2032.48L574.358 2041.76C576.037 2045.96 577.904 2050 579.978 2053.85L601.99 2042ZM597.57 2032.48L621.131 2024.12C620.044 2021.06 619.06 2018.01 618.179 2014.97L594.17 2021.94L570.161 2028.91C571.32 2032.9 572.603 2036.88 574.009 2040.84L597.57 2032.48ZM594.17 2021.94V1996.94H592.98V2021.94V2046.94H594.17V2021.94ZM592.98 2021.94L568.299 2025.92C568.727 2028.57 569.037 2031.38 569.216 2034.33L594.17 2032.82L619.124 2031.31C618.85 2026.78 618.366 2022.33 617.661 2017.96L592.98 2021.94ZM594.17 2032.82L569.279 2035.15C569.552 2038.06 569.68 2040.79 569.68 2043.36H594.68H619.68C619.68 2039.13 619.469 2034.83 619.061 2030.49L594.17 2032.82ZM594.68 2043.36H569.68V2093H594.68H619.68V2043.36H594.68ZM594.68 2093V2068H560.68V2093V2118H594.68V2093ZM560.68 2093H585.68V1988.45H560.68H535.68V2093H560.68ZM560.68 1988.45H585.68C585.68 1988.05 585.762 1992.35 581.545 1996.57C577.328 2000.78 573.034 2000.7 573.43 2000.7V1975.7V1950.7C565.326 1950.7 554.657 1952.74 546.19 1961.21C537.723 1969.68 535.68 1980.35 535.68 1988.45H560.68ZM573.43 1975.7V2000.7H587.54V1975.7V1950.7H573.43V1975.7ZM587.54 1975.7V2000.7C587.534 2000.7 587.301 2000.7 586.88 2000.64C586.459 2000.59 585.787 2000.46 584.936 2000.19C583.167 1999.62 580.692 1998.43 578.362 1996.1L596.04 1978.42L613.718 1960.74C605.313 1952.34 594.733 1950.7 587.54 1950.7V1975.7ZM596.04 1978.42L578.362 1996.1C578.112 1995.85 578.199 1995.89 578.589 1996.43C578.965 1996.95 579.506 1997.77 580.2 1998.96L601.82 1986.41L623.44 1973.86C620.867 1969.43 617.683 1964.71 613.718 1960.74L596.04 1978.42ZM601.82 1986.41L580.736 1999.84L605.216 2038.26L626.3 2024.83L647.384 2011.4L622.904 1972.98L601.82 1986.41ZM626.3 2024.83L604.487 2037.05C605.608 2039.05 606.769 2041.39 607.951 2044.12L630.89 2034.18L653.829 2024.24C652.065 2020.17 650.166 2016.28 648.113 2012.61L626.3 2024.83ZM630.89 2034.18L608.235 2044.75C609.494 2047.45 610.69 2050.34 611.815 2053.43L635.31 2044.89L658.805 2036.35C657.21 2031.96 655.459 2027.71 653.545 2023.61L630.89 2034.18ZM635.31 2044.89V2069.89H636.5V2044.89V2019.89H635.31V2044.89ZM636.5 2044.89L661.307 2041.79C660.881 2038.38 660.511 2035.05 660.194 2031.77L635.31 2034.18L610.426 2036.59C610.789 2040.34 611.212 2044.14 611.693 2047.99L636.5 2044.89ZM635.31 2034.18L660.258 2032.57C660.066 2029.59 659.97 2026.62 659.97 2023.64H634.97H609.97C609.97 2027.69 610.101 2031.74 610.362 2035.79L635.31 2034.18ZM634.97 2023.64L659.97 2023.55L659.8 1975.61L634.8 1975.7L609.8 1975.79L609.97 2023.73L634.97 2023.64ZM634.8 1975.7V2000.7H668.63V1975.7V1950.7H634.8V1975.7ZM748.748 1975.7H723.748V2093H748.748H773.748V1975.7H748.748ZM748.748 2093V2068H711.858V2093V2118H748.748V2093ZM711.858 2093H736.858V1975.7H711.858H686.858V2093H711.858ZM711.858 1975.7V2000.7H748.748V1975.7V1950.7H711.858V1975.7ZM781.558 1975.7H756.558V2003.24H781.558H806.558V1975.7H781.558ZM781.558 2003.24V1978.24H679.048V2003.24V2028.24H781.558V2003.24ZM679.048 2003.24H704.048V1975.7H679.048H654.048V2003.24H679.048ZM679.048 1975.7V2000.7H781.558V1975.7V1950.7H679.048V1975.7ZM818.796 1975.02V2000.02C825.457 2000.02 832.295 2000.08 839.309 2000.19L839.706 1975.19L840.103 1950.19C832.837 1950.08 825.735 1950.02 818.796 1950.02V1975.02ZM839.706 1975.19V2000.19C846.569 2000.19 853.242 2000.35 859.728 2000.67L860.956 1975.7L862.184 1950.73C854.843 1950.37 847.349 1950.19 839.706 1950.19V1975.19ZM860.956 1975.7L860.137 2000.69C866.34 2000.89 871.729 2001.34 876.36 2001.99L879.826 1977.23L883.292 1952.47C876.589 1951.53 869.398 1950.96 861.775 1950.71L860.956 1975.7ZM879.826 1977.23L854.879 1975.6L853.179 2001.61L878.126 2003.24L903.073 2004.87L904.773 1978.86L879.826 1977.23ZM878.126 2003.24V1978.24H835.116V2003.24V2028.24H878.126V2003.24ZM835.116 2003.24V1978.24C828.531 1978.24 820.218 1980.06 813.199 1986.44L830.016 2004.94L846.833 2023.44C842.307 2027.55 837.394 2028.24 835.116 2028.24V2003.24ZM830.016 2004.94L813.199 1986.44C806.31 1992.7 803.146 2001.11 803.146 2009.36H828.146H853.146C853.146 2011.35 852.793 2013.91 851.638 2016.64C850.464 2019.41 848.743 2021.7 846.833 2023.44L830.016 2004.94ZM828.146 2009.36H803.146V2059.34H828.146H853.146V2009.36H828.146ZM828.146 2059.34H803.146C803.146 2067.59 806.31 2076 813.199 2082.26L830.016 2063.76L846.833 2045.26C848.743 2047 850.464 2049.29 851.638 2052.06C852.793 2054.79 853.146 2057.35 853.146 2059.34H828.146ZM830.016 2063.76L813.199 2082.26C820.218 2088.64 828.531 2090.46 835.116 2090.46V2065.46V2040.46C837.394 2040.46 842.307 2041.15 846.833 2045.26L830.016 2063.76ZM835.116 2065.46V2090.46H878.126V2065.46V2040.46H835.116V2065.46ZM878.126 2065.46L853.179 2067.09L854.879 2093.1L879.826 2091.47L904.773 2089.84L903.073 2063.83L878.126 2065.46ZM879.826 2091.47L876.847 2066.65C871.869 2067.25 866.174 2067.71 859.728 2068.03L860.956 2093L862.184 2117.97C869.564 2117.61 876.45 2117.05 882.804 2116.29L879.826 2091.47ZM860.956 2093L859.728 2068.03C853.242 2068.35 846.569 2068.51 839.706 2068.51V2093.51V2118.51C847.349 2118.51 854.843 2118.33 862.184 2117.97L860.956 2093ZM839.706 2093.51L839.309 2068.51C832.295 2068.62 825.457 2068.68 818.796 2068.68V2093.68V2118.68C825.735 2118.68 832.837 2118.62 840.103 2118.51L839.706 2093.51ZM818.796 2093.68V2068.68C817.31 2068.68 816.61 2068.46 816.412 2068.39C816.266 2068.33 816.17 2068.29 815.978 2068.11L798.906 2086.37L781.834 2104.63C792.279 2114.4 805.283 2118.68 818.796 2118.68V2093.68ZM798.906 2086.37L816.384 2068.49C816.301 2068.41 816.305 2068.4 816.344 2068.46C816.385 2068.52 816.413 2068.58 816.422 2068.61C816.453 2068.68 816.256 2068.26 816.256 2066.99H791.256H766.256C766.256 2080.82 770.955 2094 781.428 2104.25L798.906 2086.37ZM791.256 2066.99H816.256V2001.71H791.256H766.256V2066.99H791.256ZM791.256 2001.71H816.256C816.256 2000.44 816.454 2000.06 816.394 2000.21C816.37 2000.27 816.32 2000.37 816.248 2000.48C816.176 2000.58 816.136 2000.61 816.177 2000.57L798.906 1982.5L781.634 1964.43C770.96 1974.63 766.256 1987.88 766.256 2001.71H791.256ZM798.906 1982.5L816.186 2000.57C816.401 2000.36 816.491 2000.33 816.588 2000.29C816.735 2000.23 817.374 2000.02 818.796 2000.02V1975.02V1950.02C805.118 1950.02 792.044 1954.47 781.625 1964.43L798.906 1982.5ZM794.316 2020.75V2045.75H872.006V2020.75V1995.75H794.316V2020.75ZM872.006 2020.75H847.006V2045.23H872.006H897.006V2020.75H872.006ZM872.006 2045.23V2020.23H794.316V2045.23V2070.23H872.006V2045.23ZM794.316 2045.23H819.316V2020.75H794.316H769.316V2045.23H794.316ZM943.185 1974V1999C953.464 1999 960.224 1999.99 964.29 2001.2L971.405 1977.23L978.52 1953.26C968.081 1950.16 956.026 1949 943.185 1949V1974ZM971.405 1977.23L964.29 2001.2C965.8 2001.64 966.462 2002.06 966.621 2002.17C966.728 2002.24 966.588 2002.16 966.445 2001.94L987.385 1988.28L1008.33 1974.62C1001.03 1963.43 990.183 1956.73 978.52 1953.26L971.405 1977.23ZM987.385 1988.28L966.798 2002.46C966.55 2002.1 966.774 2002.26 967.062 2003.43C967.358 2004.64 967.655 2006.65 967.655 2009.7H992.655H1017.66C1017.66 1997.77 1015.44 1984.93 1007.97 1974.1L987.385 1988.28ZM992.655 2009.7H967.655C967.655 2011.66 967.354 2013.13 966.932 2014.3L990.445 2022.79L1013.96 2031.28C1016.48 2024.29 1017.66 2017.03 1017.66 2009.7H992.655ZM990.445 2022.79L966.797 2014.68C966.929 2014.3 967.166 2013.81 967.515 2013.34C967.859 2012.88 968.158 2012.63 968.239 2012.57L983.135 2032.65L998.032 2052.73C1005.42 2047.25 1011.02 2039.86 1014.09 2030.9L990.445 2022.79ZM983.135 2032.65L967.925 2012.81C968.693 2012.22 969.132 2012.11 968.857 2012.21C968.562 2012.31 967.707 2012.55 966.095 2012.73L968.855 2037.58L971.616 2062.43C980.394 2061.45 990.082 2058.83 998.346 2052.49L983.135 2032.65ZM968.855 2037.58H943.855V2038.6H968.855H993.855V2037.58H968.855ZM968.855 2038.6L966.238 2063.46C965.96 2063.43 965.749 2063.4 965.61 2063.37C965.471 2063.34 965.396 2063.32 965.387 2063.32C965.379 2063.32 965.429 2063.33 965.539 2063.37C965.649 2063.41 965.812 2063.47 966.027 2063.57L975.995 2040.64L985.964 2017.71C981.706 2015.86 976.811 2014.3 971.472 2013.74L968.855 2038.6ZM975.995 2040.64L966.885 2063.92C964.953 2063.16 964.212 2062.22 964.44 2062.48L983.305 2046.08L1002.17 2029.68C997.865 2024.72 992.251 2020.16 985.105 2017.36L975.995 2040.64ZM983.305 2046.08L964.807 2062.9C963.824 2061.82 963.402 2060.94 963.291 2060.69C963.19 2060.46 963.329 2060.7 963.507 2061.64L988.065 2056.96L1012.62 2052.28C1011.21 2044.87 1008.24 2036.35 1001.8 2029.26L983.305 2046.08ZM988.065 2056.96L963.839 2063.13L973.019 2099.17L997.245 2093L1021.47 2086.83L1012.29 2050.79L988.065 2056.96ZM997.245 2093V2068H958.655V2093V2118H997.245V2093ZM958.655 2093L983.074 2087.64L975.424 2052.79L951.005 2058.15L926.587 2063.51L934.237 2098.36L958.655 2093ZM951.005 2058.15L975.487 2053.08C974.517 2048.4 971.782 2037.9 962.006 2031.14L947.775 2051.69L933.545 2072.24C929.843 2069.68 928.048 2066.69 927.327 2065.25C926.6 2063.8 926.465 2062.93 926.524 2063.22L951.005 2058.15ZM947.775 2051.69L962.775 2031.69C954.694 2025.63 945.504 2025.16 940.975 2025.16V2050.16V2075.16C941.337 2075.16 940.754 2075.2 939.568 2074.93C938.445 2074.68 935.755 2073.92 932.775 2071.69L947.775 2051.69ZM940.975 2050.16L941.309 2025.16C932.752 2025.05 925.66 2024.99 920.065 2024.99V2049.99V2074.99C925.351 2074.99 932.199 2075.05 940.642 2075.16L940.975 2050.16ZM920.065 2049.99V2024.99C914.895 2024.99 910.63 2024.93 907.223 2024.83L906.465 2049.82L905.708 2074.81C909.781 2074.93 914.582 2074.99 920.065 2074.99V2049.99ZM906.465 2049.82L907.223 2024.83C903.735 2024.73 900.247 2024.57 896.758 2024.36L895.245 2049.31L893.733 2074.26C897.724 2074.51 901.716 2074.69 905.708 2074.81L906.465 2049.82ZM895.245 2049.31L920.24 2049.82L920.75 2024.66L895.755 2024.15L870.761 2023.64L870.251 2048.8L895.245 2049.31ZM895.755 2024.15V2049.15H942.335V2024.15V1999.15H895.755V2024.15ZM942.335 2024.15V2049.15C946.949 2049.15 952.964 2048.77 958.816 2046.7L950.495 2023.13L942.175 1999.56C942.804 1999.33 943.278 1999.22 943.541 1999.16C943.81 1999.1 943.942 1999.08 943.91 1999.09C943.88 1999.09 943.736 1999.11 943.46 1999.12C943.186 1999.14 942.815 1999.15 942.335 1999.15V2024.15ZM950.495 2023.13L958.816 2046.7C966.653 2043.94 973.935 2038.05 977.617 2028.84L954.405 2019.56L931.193 2010.28C932.199 2007.76 933.824 2005.31 936.061 2003.27C938.243 2001.27 940.472 2000.16 942.175 1999.56L950.495 2023.13ZM954.405 2019.56L977.309 2029.58C980.069 2023.27 980.595 2016.86 980.595 2012.08H955.595H930.595C930.595 2012.67 930.555 2012.73 930.608 2012.4C930.657 2012.1 930.85 2011.03 931.501 2009.54L954.405 2019.56ZM955.595 2012.08H980.595C980.595 2007.49 980.153 2000.65 977.06 1994.03L954.405 2004.6L931.751 2015.17C930.89 2013.33 930.658 2011.99 930.608 2011.67C930.549 2011.3 930.595 2011.38 930.595 2012.08H955.595ZM954.405 2004.6L977.617 1995.32C973.935 1986.11 966.653 1980.22 958.816 1977.46L950.495 2001.03L942.175 2024.6C940.472 2024 938.243 2022.89 936.061 2020.89C933.824 2018.85 932.199 2016.4 931.193 2013.88L954.405 2004.6ZM950.495 2001.03L958.816 1977.46C952.964 1975.39 946.949 1975.01 942.335 1975.01V2000.01V2025.01C942.815 2025.01 943.186 2025.02 943.46 2025.04C943.736 2025.05 943.88 2025.07 943.91 2025.07C943.942 2025.08 943.81 2025.06 943.541 2025C943.278 2024.94 942.803 2024.83 942.175 2024.6L950.495 2001.03ZM942.335 2000.01V1975.01C930.48 1975.01 920.437 1975.07 912.233 1975.18L912.585 2000.18L912.937 2025.18C920.827 2025.07 930.618 2025.01 942.335 2025.01V2000.01ZM912.585 2000.18L912.233 1975.18C904.302 1975.29 897.604 1975.52 893.23 1976.02L896.095 2000.86L898.961 2025.7C900.48 2025.52 904.775 2025.29 912.937 2025.18L912.585 2000.18ZM896.095 2000.86L920.951 1998.17L918.231 1973.01L893.375 1975.7L868.52 1978.39L871.24 2003.55L896.095 2000.86ZM893.375 1975.7L896.077 2000.55C900.879 2000.03 905.263 1999.68 909.244 1999.48L907.995 1974.51L906.747 1949.54C901.661 1949.8 896.298 1950.24 890.674 1950.85L893.375 1975.7ZM907.995 1974.51L909.213 1999.48C913.394 1999.28 918.026 1999.17 923.125 1999.17V1974.17V1949.17C917.345 1949.17 911.891 1949.29 906.777 1949.54L907.995 1974.51ZM923.125 1974.17L923.635 1999.16C928.966 1999.06 935.473 1999 943.185 1999V1974V1949C935.258 1949 928.391 1949.06 922.615 1949.18L923.125 1974.17ZM929.585 1975.7H904.585V2093H929.585H954.585V1975.7H929.585ZM929.585 2093V2068H893.375V2093V2118H929.585V2093ZM893.375 2093H918.375V1975.7H893.375H868.375V2093H893.375ZM893.375 1975.7V2000.7H929.585V1975.7V1950.7H893.375V1975.7ZM1069.99 1975.7H1044.99V2093H1069.99H1094.99V1975.7H1069.99ZM1069.99 2093V2068H1033.1V2093V2118H1069.99V2093ZM1033.1 2093H1058.1V1975.7H1033.1H1008.1V2093H1033.1ZM1033.1 1975.7V2000.7H1069.99V1975.7V1950.7H1033.1V1975.7ZM1102.8 1975.7H1077.8V2003.24H1102.8H1127.8V1975.7H1102.8ZM1102.8 2003.24V1978.24H1000.29V2003.24V2028.24H1102.8V2003.24ZM1000.29 2003.24H1025.29V1975.7H1000.29H975.288V2003.24H1000.29ZM1000.29 1975.7V2000.7H1102.8V1975.7V1950.7H1000.29V1975.7ZM1169.51 1975.7V2000.7C1168.55 2000.7 1167.31 2000.56 1165.93 2000.11C1164.54 1999.65 1163.32 1998.99 1162.33 1998.25L1177.33 1978.25L1192.33 1958.25C1185.56 1953.17 1177.64 1950.7 1169.51 1950.7V1975.7ZM1177.33 1978.25L1162.33 1998.25C1161.2 1997.4 1160.15 1996.31 1159.3 1995.02C1158.46 1993.75 1158.01 1992.57 1157.78 1991.72L1181.92 1985.22L1206.06 1978.72C1203.94 1970.82 1199.42 1963.57 1192.33 1958.25L1177.33 1978.25ZM1181.92 1985.22L1157.86 1992.01L1188.29 2099.79L1212.35 2093L1236.41 2086.21L1205.98 1978.43L1181.92 1985.22ZM1212.35 2093V2068H1174.78V2093V2118H1212.35V2093ZM1174.78 2093L1199.14 2087.36L1181.46 2011.03L1157.1 2016.67L1132.75 2022.31L1150.43 2098.64L1174.78 2093ZM1157.1 2016.67L1181.56 2011.52C1181.22 2009.86 1180.91 2008.13 1180.63 2006.33L1155.91 2010.04L1131.19 2013.75C1131.6 2016.48 1132.08 2019.17 1132.64 2021.82L1157.1 2016.67ZM1155.91 2010.04L1180.66 2006.5C1180.36 2004.4 1180.11 2002.44 1179.92 2000.62L1155.06 2003.24L1130.2 2005.86C1130.46 2008.35 1130.78 2010.92 1131.16 2013.58L1155.91 2010.04ZM1155.06 2003.24V1978.24H1150.47V2003.24V2028.24H1155.06V2003.24ZM1150.47 2003.24L1125.61 2000.62C1125.42 2002.44 1125.17 2004.4 1124.87 2006.5L1149.62 2010.04L1174.37 2013.58C1174.75 2010.92 1175.07 2008.35 1175.33 2005.86L1150.47 2003.24ZM1149.62 2010.04L1124.9 2006.33C1124.63 2008.13 1124.32 2009.86 1123.97 2011.52L1148.43 2016.67L1172.89 2021.82C1173.45 2019.17 1173.94 2016.48 1174.34 2013.75L1149.62 2010.04ZM1148.43 2016.67L1124.08 2011.03L1106.4 2087.36L1130.75 2093L1155.11 2098.64L1172.79 2022.31L1148.43 2016.67ZM1130.75 2093V2068H1093.18V2093V2118H1130.75V2093ZM1093.18 2093L1117.24 2099.79L1147.67 1992.01L1123.61 1985.22L1099.55 1978.43L1069.12 2086.21L1093.18 2093ZM1123.61 1985.22L1147.75 1991.72C1147.52 1992.57 1147.07 1993.75 1146.23 1995.02C1145.38 1996.31 1144.33 1997.4 1143.2 1998.25L1128.2 1978.25L1113.2 1958.25C1106.11 1963.57 1101.6 1970.82 1099.47 1978.72L1123.61 1985.22ZM1128.2 1978.25L1143.2 1998.25C1142.22 1998.99 1141 1999.65 1139.61 2000.11C1138.23 2000.56 1136.98 2000.7 1136.02 2000.7V1975.7V1950.7C1127.9 1950.7 1119.98 1953.17 1113.2 1958.25L1128.2 1978.25ZM1136.02 1975.7V2000.7H1169.51V1975.7V1950.7H1136.02V1975.7ZM1183.96 2041.83H1158.96V2067.67H1183.96H1208.96V2041.83H1183.96ZM1183.96 2067.67V2042.67H1121.57V2067.67V2092.67H1183.96V2067.67ZM1121.57 2067.67H1146.57V2041.83H1121.57H1096.57V2067.67H1121.57ZM1121.57 2041.83V2066.83H1183.96V2041.83V2016.83H1121.57V2041.83ZM1256.32 1975.7H1231.32V2093H1256.32H1281.32V1975.7H1256.32ZM1256.32 2093V2068H1219.77V2093V2118H1256.32V2093ZM1219.77 2093H1244.77V1975.7H1219.77H1194.77V2093H1219.77ZM1219.77 1975.7V2000.7H1256.32V1975.7V1950.7H1219.77V1975.7ZM1382.17 1975.7H1357.17V2080.25H1382.17H1407.17V1975.7H1382.17ZM1382.17 2080.25H1357.17C1357.17 2080.65 1357.08 2076.35 1361.3 2072.13C1365.52 2067.92 1369.81 2068 1369.42 2068V2093V2118C1377.52 2118 1388.19 2115.96 1396.66 2107.49C1405.12 2099.02 1407.17 2088.35 1407.17 2080.25H1382.17ZM1369.42 2093V2068H1355.31V2093V2118H1369.42V2093ZM1355.31 2093V2068C1355.31 2068 1355.53 2068 1355.93 2068.05C1356.32 2068.11 1356.94 2068.22 1357.73 2068.47C1359.37 2068.98 1361.61 2070.04 1363.77 2072.07L1346.64 2090.28L1329.5 2108.49C1337.81 2116.3 1347.96 2118 1355.31 2118V2093ZM1346.64 2090.28L1364.31 2072.6C1364.66 2072.95 1364.65 2073 1364.33 2072.56C1364.03 2072.13 1363.56 2071.39 1362.95 2070.27L1341.03 2082.29L1319.1 2094.31C1321.61 2098.87 1324.8 2103.8 1328.96 2107.96L1346.64 2090.28ZM1341.03 2082.29L1362.15 2068.92L1336.65 2028.63L1315.53 2042L1294.4 2055.37L1319.9 2095.66L1341.03 2082.29ZM1315.53 2042L1337.54 2030.15C1336.44 2028.11 1335.36 2025.8 1334.32 2023.2L1311.11 2032.48L1287.89 2041.76C1289.57 2045.96 1291.44 2050 1293.51 2053.85L1315.53 2042ZM1311.11 2032.48L1334.67 2024.12C1333.58 2021.06 1332.6 2018.01 1331.71 2014.97L1307.71 2021.94L1283.7 2028.91C1284.85 2032.9 1286.14 2036.88 1287.54 2040.84L1311.11 2032.48ZM1307.71 2021.94V1996.94H1306.52V2021.94V2046.94H1307.71V2021.94ZM1306.52 2021.94L1281.83 2025.92C1282.26 2028.57 1282.57 2031.38 1282.75 2034.33L1307.71 2032.82L1332.66 2031.31C1332.39 2026.78 1331.9 2022.33 1331.2 2017.96L1306.52 2021.94ZM1307.71 2032.82L1282.81 2035.15C1283.09 2038.06 1283.22 2040.79 1283.22 2043.36H1308.22H1333.22C1333.22 2039.13 1333 2034.83 1332.6 2030.49L1307.71 2032.82ZM1308.22 2043.36H1283.22V2093H1308.22H1333.22V2043.36H1308.22ZM1308.22 2093V2068H1274.22V2093V2118H1308.22V2093ZM1274.22 2093H1299.22V1988.45H1274.22H1249.22V2093H1274.22ZM1274.22 1988.45H1299.22C1299.22 1988.05 1299.3 1992.35 1295.08 1996.57C1290.86 2000.78 1286.57 2000.7 1286.97 2000.7V1975.7V1950.7C1278.86 1950.7 1268.19 1952.74 1259.73 1961.21C1251.26 1969.68 1249.22 1980.35 1249.22 1988.45H1274.22ZM1286.97 1975.7V2000.7H1301.08V1975.7V1950.7H1286.97V1975.7ZM1301.08 1975.7V2000.7C1301.07 2000.7 1300.84 2000.7 1300.41 2000.64C1299.99 2000.59 1299.32 2000.46 1298.47 2000.19C1296.7 1999.62 1294.23 1998.43 1291.9 1996.1L1309.58 1978.42L1327.25 1960.74C1318.85 1952.34 1308.27 1950.7 1301.08 1950.7V1975.7ZM1309.58 1978.42L1291.9 1996.1C1291.65 1995.85 1291.73 1995.89 1292.12 1996.43C1292.5 1996.95 1293.04 1997.77 1293.74 1998.96L1315.36 1986.41L1336.97 1973.86C1334.4 1969.43 1331.22 1964.71 1327.25 1960.74L1309.58 1978.42ZM1315.36 1986.41L1294.27 1999.84L1318.75 2038.26L1339.84 2024.83L1360.92 2011.4L1336.44 1972.98L1315.36 1986.41ZM1339.84 2024.83L1318.02 2037.05C1319.14 2039.05 1320.3 2041.39 1321.49 2044.12L1344.43 2034.18L1367.36 2024.24C1365.6 2020.17 1363.7 2016.28 1361.65 2012.61L1339.84 2024.83ZM1344.43 2034.18L1321.77 2044.75C1323.03 2047.45 1324.23 2050.34 1325.35 2053.43L1348.85 2044.89L1372.34 2036.35C1370.74 2031.96 1368.99 2027.71 1367.08 2023.61L1344.43 2034.18ZM1348.85 2044.89V2069.89H1350.04V2044.89V2019.89H1348.85V2044.89ZM1350.04 2044.89L1374.84 2041.79C1374.42 2038.38 1374.05 2035.05 1373.73 2031.77L1348.85 2034.18L1323.96 2036.59C1324.32 2040.34 1324.75 2044.14 1325.23 2047.99L1350.04 2044.89ZM1348.85 2034.18L1373.79 2032.57C1373.6 2029.59 1373.51 2026.62 1373.51 2023.64H1348.51H1323.51C1323.51 2027.69 1323.64 2031.74 1323.9 2035.79L1348.85 2034.18ZM1348.51 2023.64L1373.51 2023.55L1373.34 1975.61L1348.34 1975.7L1323.34 1975.79L1323.51 2023.73L1348.51 2023.64ZM1348.34 1975.7V2000.7H1382.17V1975.7V1950.7H1348.34V1975.7ZM1528.92 1975.7V2000.7C1528.91 2000.7 1527.93 2000.71 1526.38 2000.18C1524.72 1999.62 1522.67 1998.53 1520.8 1996.68C1516.88 1992.82 1516.84 1988.96 1516.86 1989.45L1541.84 1988.45L1566.82 1987.45C1566.5 1979.44 1564.14 1969.21 1555.92 1961.09C1547.58 1952.87 1537.17 1950.7 1528.92 1950.7V1975.7ZM1541.84 1988.45L1516.86 1989.42L1520.94 2093.97L1545.92 2093L1570.9 2092.03L1566.82 1987.48L1541.84 1988.45ZM1545.92 2093V2068H1512.77V2093V2118H1545.92V2093ZM1512.77 2093L1537.75 2092.01L1534.18 2002.25L1509.2 2003.24L1484.22 2004.23L1487.79 2093.99L1512.77 2093ZM1509.2 2003.24V1978.24H1506.65V2003.24V2028.24H1509.2V2003.24ZM1506.65 2003.24L1482.11 1998.5L1470.55 2058.34L1495.09 2063.08L1519.64 2067.82L1531.2 2007.98L1506.65 2003.24ZM1495.09 2063.08L1470.38 2059.33C1470.49 2058.61 1471.32 2055.05 1475.08 2052.02C1478.59 2049.2 1481.61 2049.3 1481.15 2049.3V2074.3V2099.3C1488.85 2099.3 1498.28 2097.53 1506.43 2090.97C1514.84 2084.2 1518.57 2075.03 1519.81 2066.83L1495.09 2063.08ZM1481.15 2074.3V2049.3H1462.11V2074.3V2099.3H1481.15V2074.3ZM1462.11 2074.3V2049.3C1461.83 2049.3 1464.74 2049.25 1468.11 2051.93C1471.65 2054.75 1472.49 2058.02 1472.6 2058.61L1448 2063.08L1423.41 2067.55C1424.87 2075.62 1428.74 2084.5 1436.99 2091.06C1445.06 2097.48 1454.35 2099.3 1462.11 2099.3V2074.3ZM1448 2063.08L1472.54 2058.27L1460.81 1998.43L1436.27 2003.24L1411.74 2008.05L1423.47 2067.89L1448 2063.08ZM1436.27 2003.24V1978.24H1433.72V2003.24V2028.24H1436.27V2003.24ZM1433.72 2003.24L1408.74 2002.44L1405.85 2092.2L1430.83 2093L1455.82 2093.8L1458.71 2004.04L1433.72 2003.24ZM1430.83 2093V2068H1397.68V2093V2118H1430.83V2093ZM1397.68 2093L1422.66 2093.97L1426.74 1989.42L1401.76 1988.45L1376.78 1987.48L1372.7 2092.03L1397.68 2093ZM1401.76 1988.45L1426.74 1989.45C1426.76 1988.96 1426.72 1992.82 1422.81 1996.68C1420.93 1998.53 1418.89 1999.62 1417.22 2000.18C1415.67 2000.71 1414.69 2000.7 1414.68 2000.7V1975.7V1950.7C1406.44 1950.7 1396.02 1952.87 1387.69 1961.09C1379.47 1969.2 1377.1 1979.44 1376.78 1987.45L1401.76 1988.45ZM1414.68 1975.7V2000.7H1446.47V1975.7V1950.7H1414.68V1975.7ZM1446.47 1975.7V2000.7C1446.47 2000.7 1446.3 2000.7 1445.99 2000.66C1445.67 2000.62 1445.19 2000.53 1444.58 2000.35C1443.32 1999.96 1441.7 1999.22 1440.09 1997.91C1436.6 1995.06 1435.87 1991.86 1435.8 1991.5L1460.41 1987.09L1485.02 1982.68C1483.6 1974.73 1479.86 1965.83 1471.73 1959.19C1463.68 1952.61 1454.34 1950.7 1446.47 1950.7V1975.7ZM1460.41 1987.09L1435.82 1991.58L1444.32 2038.16L1468.91 2033.67L1493.51 2029.18L1485.01 1982.6L1460.41 1987.09ZM1468.91 2033.67L1444.23 2037.62C1444.57 2039.76 1444.83 2041.97 1445.01 2044.26L1469.93 2042.34L1494.86 2040.42C1494.58 2036.82 1494.16 2033.25 1493.6 2029.72L1468.91 2033.67ZM1469.93 2042.34L1445.1 2045.21C1445.4 2047.84 1445.65 2050.47 1445.86 2053.1L1470.78 2051.18L1495.71 2049.26C1495.46 2046 1495.14 2042.74 1494.77 2039.47L1469.93 2042.34ZM1470.78 2051.18V2076.18H1472.31V2051.18V2026.18H1470.78V2051.18ZM1472.31 2051.18L1497.15 2054.05C1497.52 2050.78 1497.84 2047.52 1498.09 2044.26L1473.16 2042.34L1448.24 2040.42C1448.03 2043.05 1447.78 2045.68 1447.48 2048.31L1472.31 2051.18ZM1473.16 2042.34L1498 2045.21C1498.3 2042.61 1498.65 2040.08 1499.04 2037.62L1474.35 2033.67L1449.67 2029.72C1449.15 2032.93 1448.71 2036.18 1448.33 2039.47L1473.16 2042.34ZM1474.35 2033.67L1498.99 2037.9L1506.98 1991.32L1482.34 1987.09L1457.7 1982.86L1449.71 2029.44L1474.35 2033.67ZM1482.34 1987.09L1506.95 1991.5C1506.87 1991.94 1506.1 1995.17 1502.59 1998C1499.22 2000.73 1496.25 2000.7 1496.45 2000.7V1975.7V1950.7C1488.61 1950.7 1479.27 1952.57 1471.19 1959.09C1462.98 1965.72 1459.17 1974.64 1457.73 1982.68L1482.34 1987.09ZM1496.45 1975.7V2000.7H1528.92V1975.7V1950.7H1496.45V1975.7ZM1588.28 1975.02V2000.02C1594.94 2000.02 1601.78 2000.08 1608.79 2000.19L1609.19 1975.19L1609.59 1950.19C1602.32 1950.08 1595.22 1950.02 1588.28 1950.02V1975.02ZM1609.19 1975.19V2000.19C1616.05 2000.19 1622.72 2000.35 1629.21 2000.67L1630.44 1975.7L1631.67 1950.73C1624.33 1950.37 1616.83 1950.19 1609.19 1950.19V1975.19ZM1630.44 1975.7L1629.62 2000.69C1635.82 2000.89 1641.21 2001.34 1645.84 2001.99L1649.31 1977.23L1652.77 1952.47C1646.07 1951.53 1638.88 1950.96 1631.26 1950.71L1630.44 1975.7ZM1649.31 1977.23L1624.36 1975.6L1622.66 2001.61L1647.61 2003.24L1672.56 2004.87L1674.26 1978.86L1649.31 1977.23ZM1647.61 2003.24V1978.24H1604.6V2003.24V2028.24H1647.61V2003.24ZM1604.6 2003.24V1978.24C1598.01 1978.24 1589.7 1980.06 1582.68 1986.44L1599.5 2004.94L1616.32 2023.44C1611.79 2027.55 1606.88 2028.24 1604.6 2028.24V2003.24ZM1599.5 2004.94L1582.68 1986.44C1575.79 1992.7 1572.63 2001.11 1572.63 2009.36H1597.63H1622.63C1622.63 2011.35 1622.28 2013.91 1621.12 2016.64C1619.95 2019.41 1618.23 2021.7 1616.32 2023.44L1599.5 2004.94ZM1597.63 2009.36H1572.63V2059.34H1597.63H1622.63V2009.36H1597.63ZM1597.63 2059.34H1572.63C1572.63 2067.59 1575.79 2076 1582.68 2082.26L1599.5 2063.76L1616.32 2045.26C1618.23 2047 1619.95 2049.29 1621.12 2052.06C1622.28 2054.79 1622.63 2057.35 1622.63 2059.34H1597.63ZM1599.5 2063.76L1582.68 2082.26C1589.7 2088.64 1598.01 2090.46 1604.6 2090.46V2065.46V2040.46C1606.88 2040.46 1611.79 2041.15 1616.32 2045.26L1599.5 2063.76ZM1604.6 2065.46V2090.46H1647.61V2065.46V2040.46H1604.6V2065.46ZM1647.61 2065.46L1622.66 2067.09L1624.36 2093.1L1649.31 2091.47L1674.26 2089.84L1672.56 2063.83L1647.61 2065.46ZM1649.31 2091.47L1646.33 2066.65C1641.35 2067.25 1635.66 2067.71 1629.21 2068.03L1630.44 2093L1631.67 2117.97C1639.05 2117.61 1645.93 2117.05 1652.29 2116.29L1649.31 2091.47ZM1630.44 2093L1629.21 2068.03C1622.72 2068.35 1616.05 2068.51 1609.19 2068.51V2093.51V2118.51C1616.83 2118.51 1624.33 2118.33 1631.67 2117.97L1630.44 2093ZM1609.19 2093.51L1608.79 2068.51C1601.78 2068.62 1594.94 2068.68 1588.28 2068.68V2093.68V2118.68C1595.22 2118.68 1602.32 2118.62 1609.59 2118.51L1609.19 2093.51ZM1588.28 2093.68V2068.68C1586.79 2068.68 1586.09 2068.46 1585.89 2068.39C1585.75 2068.33 1585.65 2068.29 1585.46 2068.11L1568.39 2086.37L1551.32 2104.63C1561.76 2114.4 1574.77 2118.68 1588.28 2118.68V2093.68ZM1568.39 2086.37L1585.87 2068.49C1585.78 2068.41 1585.79 2068.4 1585.83 2068.46C1585.87 2068.52 1585.9 2068.58 1585.9 2068.61C1585.94 2068.68 1585.74 2068.26 1585.74 2066.99H1560.74H1535.74C1535.74 2080.82 1540.44 2094 1550.91 2104.25L1568.39 2086.37ZM1560.74 2066.99H1585.74V2001.71H1560.74H1535.74V2066.99H1560.74ZM1560.74 2001.71H1585.74C1585.74 2000.44 1585.94 2000.06 1585.88 2000.21C1585.85 2000.27 1585.8 2000.37 1585.73 2000.48C1585.66 2000.58 1585.62 2000.61 1585.66 2000.57L1568.39 1982.5L1551.12 1964.43C1540.44 1974.63 1535.74 1987.88 1535.74 2001.71H1560.74ZM1568.39 1982.5L1585.67 2000.57C1585.88 2000.36 1585.97 2000.33 1586.07 2000.29C1586.22 2000.23 1586.86 2000.02 1588.28 2000.02V1975.02V1950.02C1574.6 1950.02 1561.53 1954.47 1551.11 1964.43L1568.39 1982.5ZM1563.8 2020.75V2045.75H1641.49V2020.75V1995.75H1563.8V2020.75ZM1641.49 2020.75H1616.49V2045.23H1641.49H1666.49V2020.75H1641.49ZM1641.49 2045.23V2020.23H1563.8V2045.23V2070.23H1641.49V2045.23ZM1563.8 2045.23H1588.8V2020.75H1563.8H1538.8V2045.23H1563.8ZM1770.81 1975.7H1745.81V2080.25H1770.81H1795.81V1975.7H1770.81ZM1770.81 2080.25H1745.81C1745.81 2080.65 1745.73 2076.35 1749.94 2072.13C1754.16 2067.92 1758.45 2068 1758.06 2068V2093V2118C1766.16 2118 1776.83 2115.96 1785.3 2107.49C1793.77 2099.02 1795.81 2088.35 1795.81 2080.25H1770.81ZM1758.06 2093V2068H1743.95V2093V2118H1758.06V2093ZM1743.95 2093V2068C1743.96 2068 1744.17 2068 1744.57 2068.05C1744.97 2068.11 1745.59 2068.22 1746.37 2068.47C1748.01 2068.98 1750.25 2070.04 1752.41 2072.07L1735.28 2090.28L1718.14 2108.49C1726.45 2116.3 1736.61 2118 1743.95 2118V2093ZM1735.28 2090.28L1752.96 2072.6C1753.3 2072.95 1753.29 2073 1752.98 2072.56C1752.67 2072.13 1752.21 2071.39 1751.59 2070.27L1729.67 2082.29L1707.75 2094.31C1710.25 2098.87 1713.45 2103.8 1717.6 2107.96L1735.28 2090.28ZM1729.67 2082.29L1750.79 2068.92L1725.29 2028.63L1704.17 2042L1683.04 2055.37L1708.54 2095.66L1729.67 2082.29ZM1704.17 2042L1726.18 2030.15C1725.08 2028.11 1724 2025.8 1722.96 2023.2L1699.75 2032.48L1676.54 2041.76C1678.21 2045.96 1680.08 2050 1682.16 2053.85L1704.17 2042ZM1699.75 2032.48L1723.31 2024.12C1722.22 2021.06 1721.24 2018.01 1720.36 2014.97L1696.35 2021.94L1672.34 2028.91C1673.5 2032.9 1674.78 2036.88 1676.19 2040.84L1699.75 2032.48ZM1696.35 2021.94V1996.94H1695.16V2021.94V2046.94H1696.35V2021.94ZM1695.16 2021.94L1670.48 2025.92C1670.9 2028.57 1671.21 2031.38 1671.39 2034.33L1696.35 2032.82L1721.3 2031.31C1721.03 2026.78 1720.54 2022.33 1719.84 2017.96L1695.16 2021.94ZM1696.35 2032.82L1671.46 2035.15C1671.73 2038.06 1671.86 2040.79 1671.86 2043.36H1696.86H1721.86C1721.86 2039.13 1721.65 2034.83 1721.24 2030.49L1696.35 2032.82ZM1696.86 2043.36H1671.86V2093H1696.86H1721.86V2043.36H1696.86ZM1696.86 2093V2068H1662.86V2093V2118H1696.86V2093ZM1662.86 2093H1687.86V1988.45H1662.86H1637.86V2093H1662.86ZM1662.86 1988.45H1687.86C1687.86 1988.05 1687.94 1992.35 1683.72 1996.57C1679.51 2000.78 1675.21 2000.7 1675.61 2000.7V1975.7V1950.7C1667.5 1950.7 1656.83 1952.74 1648.37 1961.21C1639.9 1969.68 1637.86 1980.35 1637.86 1988.45H1662.86ZM1675.61 1975.7V2000.7H1689.72V1975.7V1950.7H1675.61V1975.7ZM1689.72 1975.7V2000.7C1689.71 2000.7 1689.48 2000.7 1689.06 2000.64C1688.64 2000.59 1687.96 2000.46 1687.11 2000.19C1685.35 1999.62 1682.87 1998.43 1680.54 1996.1L1698.22 1978.42L1715.9 1960.74C1707.49 1952.34 1696.91 1950.7 1689.72 1950.7V1975.7ZM1698.22 1978.42L1680.54 1996.1C1680.29 1995.85 1680.38 1995.89 1680.77 1996.43C1681.14 1996.95 1681.68 1997.77 1682.38 1998.96L1704 1986.41L1725.62 1973.86C1723.04 1969.43 1719.86 1964.71 1715.9 1960.74L1698.22 1978.42ZM1704 1986.41L1682.91 1999.84L1707.39 2038.26L1728.48 2024.83L1749.56 2011.4L1725.08 1972.98L1704 1986.41ZM1728.48 2024.83L1706.67 2037.05C1707.79 2039.05 1708.95 2041.39 1710.13 2044.12L1733.07 2034.18L1756.01 2024.24C1754.24 2020.17 1752.34 2016.28 1750.29 2012.61L1728.48 2024.83ZM1733.07 2034.18L1710.41 2044.75C1711.67 2047.45 1712.87 2050.34 1713.99 2053.43L1737.49 2044.89L1760.98 2036.35C1759.39 2031.96 1757.64 2027.71 1755.72 2023.61L1733.07 2034.18ZM1737.49 2044.89V2069.89H1738.68V2044.89V2019.89H1737.49V2044.89ZM1738.68 2044.89L1763.48 2041.79C1763.06 2038.38 1762.69 2035.05 1762.37 2031.77L1737.49 2034.18L1712.6 2036.59C1712.97 2040.34 1713.39 2044.14 1713.87 2047.99L1738.68 2044.89ZM1737.49 2034.18L1762.44 2032.57C1762.24 2029.59 1762.15 2026.62 1762.15 2023.64H1737.15H1712.15C1712.15 2027.69 1712.28 2031.74 1712.54 2035.79L1737.49 2034.18ZM1737.15 2023.64L1762.15 2023.55L1761.98 1975.61L1736.98 1975.7L1711.98 1975.79L1712.15 2023.73L1737.15 2023.64ZM1736.98 1975.7V2000.7H1770.81V1975.7V1950.7H1736.98V1975.7ZM1850.93 1975.7H1825.93V2093H1850.93H1875.93V1975.7H1850.93ZM1850.93 2093V2068H1814.04V2093V2118H1850.93V2093ZM1814.04 2093H1839.04V1975.7H1814.04H1789.04V2093H1814.04ZM1814.04 1975.7V2000.7H1850.93V1975.7V1950.7H1814.04V1975.7ZM1883.74 1975.7H1858.74V2003.24H1883.74H1908.74V1975.7H1883.74ZM1883.74 2003.24V1978.24H1781.23V2003.24V2028.24H1883.74V2003.24ZM1781.23 2003.24H1806.23V1975.7H1781.23H1756.23V2003.24H1781.23ZM1781.23 1975.7V2000.7H1883.74V1975.7V1950.7H1781.23V1975.7Z" fill="#1A1D1A" mask="url(#path-1-outside-1_4_521)"/>
<path d="M229.186 1960.82C239.936 1960.82 249.603 1961.83 257.925 1964.14C266.801 1966.45 274.61 1970.66 280.748 1977.12C282.726 1979.2 284.472 1981.47 286.01 1983.91C286.672 1979.04 288.534 1974.07 292.56 1970.05C297.856 1964.75 304.784 1963.2 310.961 1963.2H325.071C330.422 1963.2 336.883 1964.39 341.926 1969.11L342.41 1969.58L342.947 1970.13C345.558 1972.87 347.893 1976.26 350.018 1979.89L359.9 1995.4L359.831 1975.74C359.819 1972.42 361.131 1969.23 363.477 1966.88C365.822 1964.52 369.008 1963.2 372.331 1963.2H406.161C413.065 1963.2 418.661 1968.8 418.661 1975.7V2080.25C418.661 2086.43 417.108 2093.35 411.812 2098.65C406.517 2103.95 399.588 2105.5 393.411 2105.5H379.301C373.703 2105.5 367.179 2104.2 362.063 2099.38C361.972 2099.3 361.881 2099.21 361.792 2099.12C358.901 2096.23 356.432 2092.57 354.267 2088.67L344.711 2073.57V2093C344.711 2099.9 339.114 2105.5 332.211 2105.5H298.211C291.307 2105.5 285.711 2099.9 285.711 2093V2085.26C284.247 2087.51 282.599 2089.63 280.748 2091.58C274.629 2098.02 266.847 2102.29 257.991 2104.72C257.947 2104.73 257.902 2104.74 257.857 2104.75C249.582 2106.92 239.941 2107.88 229.186 2107.88C218.521 2107.88 208.909 2106.92 200.562 2104.76C200.485 2104.74 200.407 2104.72 200.33 2104.7C191.567 2102.26 183.875 2097.98 177.793 2091.58C175.852 2089.54 174.133 2087.31 172.616 2084.93V2093C172.616 2099.9 167.02 2105.5 160.116 2105.5H123.566C116.663 2105.5 111.066 2099.9 111.066 2093V1975.7C111.066 1968.8 116.663 1963.2 123.566 1963.2H160.116C167.02 1963.2 172.616 1968.8 172.616 1975.7V1983.77C174.133 1981.39 175.852 1979.16 177.793 1977.12C183.92 1970.67 191.68 1966.44 200.514 1964.12V1964.12C208.9 1961.84 218.532 1960.82 229.186 1960.82ZM229.186 2013.19C228.516 2013.19 228.009 2013.23 227.641 2013.28C227.455 2013.82 227.232 2014.61 227.024 2015.73C226.329 2019.47 225.876 2025.53 225.876 2034.35C225.876 2043.17 226.329 2049.23 227.024 2052.97C227.232 2054.09 227.455 2054.88 227.641 2055.42C228.009 2055.47 228.516 2055.51 229.186 2055.51C229.855 2055.51 230.361 2055.47 230.729 2055.42C230.915 2054.88 231.139 2054.09 231.347 2052.97C232.042 2049.23 232.495 2043.17 232.495 2034.35C232.495 2025.53 232.042 2019.47 231.347 2015.73C231.139 2014.61 230.915 2013.82 230.729 2013.28C230.361 2013.23 229.855 2013.19 229.186 2013.19Z" stroke="#1A1D1A" stroke-width="25" stroke-linejoin="round"/>
<path d="M1283.32 100L1290.52 110.214C1294.97 107.073 1296.88 101.412 1295.23 96.2197C1293.58 91.0275 1288.76 87.5 1283.32 87.5V100ZM1083.01 251.082L1075.19 241.326L1075.19 241.326L1083.01 251.082ZM1058.94 270.49L1051.07 260.786C1048.17 263.134 1046.48 266.65 1046.44 270.376C1046.41 274.101 1048.04 277.647 1050.89 280.048L1058.94 270.49ZM1211.65 404.293L1203.24 413.54C1207.78 417.673 1214.66 417.892 1219.46 414.057L1211.65 404.293ZM1603.34 131.277L1597.08 120.46L1597.08 120.46L1603.34 131.277ZM1659.13 100.164L1659.58 87.6721C1657.37 87.5928 1655.17 88.1012 1653.22 89.1454L1659.13 100.164ZM1899.86 341.53L1910.87 347.436C1911.91 345.495 1912.42 343.315 1912.35 341.114L1899.86 341.53ZM1868.97 396.899L1879.78 403.162L1879.78 403.162L1868.97 396.899ZM1593.07 792.197L1602.83 800.012L1602.83 800.012L1593.07 792.197ZM1213.86 1213.86L1222.7 1222.7L1222.7 1222.7L1213.86 1213.86ZM1055.87 1365.7L1047.39 1356.52C1044.8 1358.91 1043.34 1362.28 1043.37 1365.8C1043.4 1369.32 1044.91 1372.67 1047.54 1375.02L1055.87 1365.7ZM1208.56 1496.87L1200.62 1506.52C1205.45 1510.5 1212.49 1510.29 1217.08 1506.02L1208.56 1496.87ZM1355.28 1355.28L1364.12 1364.12L1364.12 1364.12L1355.28 1355.28ZM1749.16 917.237L1758.92 925.052L1758.92 925.052L1749.16 917.237ZM1900 717.273H1912.5C1912.5 711.826 1908.97 707.007 1903.78 705.359C1898.59 703.711 1892.93 705.615 1889.79 710.066L1900 717.273ZM1900 1282.97L1889.79 1290.18C1892.93 1294.63 1898.59 1296.53 1903.78 1294.89C1908.97 1293.24 1912.5 1288.42 1912.5 1282.97H1900ZM1729.75 1058.94L1739.46 1051.06C1737.11 1048.17 1733.59 1046.48 1729.87 1046.44C1726.14 1046.41 1722.6 1048.04 1720.2 1050.89L1729.75 1058.94ZM1595.95 1211.65L1586.7 1203.24C1582.57 1207.78 1582.35 1214.66 1586.19 1219.46L1595.95 1211.65ZM1868.97 1603.34L1879.78 1597.08L1879.78 1597.08L1868.97 1603.34ZM1899.85 1658.7L1912.34 1659.12C1912.42 1656.92 1911.91 1654.73 1910.87 1652.79L1899.85 1658.7ZM1658.7 1899.85L1652.79 1910.87C1654.73 1911.91 1656.92 1912.42 1659.12 1912.34L1658.7 1899.85ZM1603.34 1868.97L1597.08 1879.79L1597.08 1879.79L1603.34 1868.97ZM1208.05 1593.07L1200.23 1602.83L1200.23 1602.83L1208.05 1593.07ZM786.386 1213.86L777.547 1222.7L777.547 1222.7L786.386 1213.86ZM634.543 1055.87L643.727 1047.39C641.338 1044.8 637.967 1043.34 634.445 1043.37C630.923 1043.4 627.576 1044.91 625.227 1047.54L634.543 1055.87ZM503.375 1208.56L493.724 1200.62C489.742 1205.45 489.957 1212.49 494.226 1217.08L503.375 1208.56ZM644.965 1355.28L636.126 1364.12L636.126 1364.12L644.965 1355.28ZM1083.01 1749.16L1075.19 1758.92L1075.19 1758.92L1083.01 1749.16ZM1282.97 1900V1912.5C1288.42 1912.5 1293.24 1908.97 1294.88 1903.78C1296.53 1898.59 1294.63 1892.93 1290.18 1889.79L1282.97 1900ZM717.273 1900L710.066 1889.79C705.615 1892.93 703.711 1898.59 705.359 1903.78C707.007 1908.97 711.826 1912.5 717.273 1912.5V1900ZM917.237 1749.16L925.052 1758.92L925.052 1758.92L917.237 1749.16ZM941.3 1729.75L949.179 1739.46C952.071 1737.11 953.765 1733.59 953.799 1729.87C953.833 1726.14 952.204 1722.6 949.356 1720.19L941.3 1729.75ZM788.593 1595.95L797.004 1586.7C792.46 1582.57 785.586 1582.35 780.788 1586.19L788.593 1595.95ZM396.899 1868.97L403.162 1879.78L403.162 1879.78L396.899 1868.97ZM341.53 1899.86L341.114 1912.35C343.315 1912.42 345.495 1911.91 347.436 1910.87L341.53 1899.86ZM100.164 1659.12L89.1454 1653.22C88.1012 1655.17 87.5928 1657.36 87.6721 1659.57L100.164 1659.12ZM131.276 1603.34L120.459 1597.08L120.459 1597.08L131.276 1603.34ZM407.175 1208.05L397.419 1200.23L397.419 1200.23L407.175 1208.05ZM786.386 786.386L777.547 777.547L777.547 777.547L786.386 786.386ZM944.374 634.541L952.854 643.725C955.442 641.336 956.901 637.965 956.874 634.443C956.846 630.921 955.334 627.574 952.709 625.225L944.374 634.541ZM791.682 503.376L799.626 493.725C794.788 489.743 787.75 489.958 783.164 494.227L791.682 503.376ZM644.965 644.965L636.126 636.126L636.126 636.126L644.965 644.965ZM251.082 1083.01L241.326 1075.19L241.326 1075.19L251.082 1083.01ZM100 1283.31H87.5C87.5 1288.76 91.0275 1293.58 96.2197 1295.23C101.412 1296.88 107.073 1294.97 110.214 1290.52L100 1283.31ZM100 716.928L110.214 709.721C107.073 705.27 101.412 703.366 96.2197 705.013C91.0275 706.66 87.5 711.48 87.5 716.928H100ZM251.082 917.237L241.326 925.052L241.326 925.052L251.082 917.237ZM270.49 941.3L260.786 949.179C263.134 952.071 266.65 953.765 270.375 953.799C274.101 953.833 277.647 952.204 280.048 949.356L270.49 941.3ZM404.293 788.593L413.54 797.004C417.673 792.46 417.892 785.586 414.057 780.788L404.293 788.593ZM131.277 396.899L120.46 403.162L120.46 403.162L131.277 396.899ZM100.156 341.102L87.6639 340.665C87.5867 342.871 88.0952 345.058 89.1376 347.004L100.156 341.102ZM341.105 100.156L347.008 89.1377C345.062 88.0953 342.875 87.5867 340.669 87.6639L341.105 100.156ZM396.899 131.277L403.162 120.46L403.162 120.46L396.899 131.277ZM1213.86 786.386L1222.7 777.547L1222.7 777.547L1213.86 786.386ZM1365.7 944.37L1356.52 952.85C1358.91 955.438 1362.28 956.897 1365.8 956.87C1369.32 956.842 1372.67 955.33 1375.02 952.705L1365.7 944.37ZM1496.87 791.683L1506.52 799.627C1510.5 794.789 1510.29 787.751 1506.02 783.165L1496.87 791.683ZM1355.28 644.965L1364.12 636.126L1364.12 636.126L1355.28 644.965ZM716.929 100V87.5C711.481 87.5 706.661 91.0275 705.014 96.2197C703.367 101.412 705.271 107.073 709.722 110.213L716.929 100ZM1283.32 100L1276.11 89.7865C1210.49 136.09 1143.25 186.809 1075.19 241.326L1083.01 251.082L1090.82 260.838C1158.52 206.611 1225.35 156.2 1290.52 110.214L1283.32 100ZM1083.01 251.082L1075.19 241.326C1067.15 247.765 1059.11 254.253 1051.07 260.786L1058.94 270.49L1066.82 280.194C1074.83 273.694 1082.83 267.241 1090.82 260.838L1083.01 251.082ZM1058.94 270.49L1050.89 280.048C1101.69 322.87 1152.59 367.463 1203.24 413.54L1211.65 404.293L1220.06 395.046C1169.18 348.764 1118.05 303.963 1067 260.932L1058.94 270.49ZM1211.65 404.293L1219.46 414.057C1358.56 302.861 1491.15 210.674 1609.61 142.095L1603.34 131.277L1597.08 120.46C1477.31 189.803 1343.68 282.751 1203.85 394.529L1211.65 404.293ZM1603.34 131.277L1609.61 142.095C1628.63 131.081 1647.11 120.781 1665.03 111.183L1659.13 100.164L1653.22 89.1454C1635.05 98.8802 1616.33 109.315 1597.08 120.46L1603.34 131.277ZM1659.13 100.164L1658.68 112.656C1783.15 117.123 1883.22 217.394 1887.36 341.946L1899.86 341.53L1912.35 341.114C1907.77 203.429 1797.17 92.6099 1659.58 87.6721L1659.13 100.164ZM1899.86 341.53L1888.84 335.625C1879.3 353.415 1869.08 371.758 1858.15 390.636L1868.97 396.899L1879.78 403.162C1890.84 384.059 1901.2 365.477 1910.87 347.436L1899.86 341.53ZM1868.97 396.899L1858.15 390.636C1788.98 510.111 1695.8 643.966 1583.31 784.382L1593.07 792.197L1602.83 800.012C1715.89 658.864 1809.84 523.968 1879.78 403.162L1868.97 396.899ZM1593.07 792.197L1583.31 784.382C1470.96 924.64 1342.4 1067.64 1205.02 1205.02L1213.86 1213.86L1222.7 1222.7C1360.67 1084.72 1489.86 941.037 1602.83 800.012L1593.07 792.197ZM1213.86 1213.86L1205.02 1205.02C1153.13 1256.91 1100.44 1307.54 1047.39 1356.52L1055.87 1365.7L1064.35 1374.88C1117.64 1325.68 1170.58 1274.82 1222.7 1222.7L1213.86 1213.86ZM1055.87 1365.7L1047.54 1375.02C1098.55 1420.66 1149.71 1464.62 1200.62 1506.52L1208.56 1496.87L1216.5 1487.22C1165.88 1445.54 1114.98 1401.81 1064.21 1356.38L1055.87 1365.7ZM1208.56 1496.87L1217.08 1506.02C1266.6 1459.91 1315.72 1412.51 1364.12 1364.12L1355.28 1355.28L1346.44 1346.44C1298.26 1394.62 1249.35 1441.82 1200.04 1487.72L1208.56 1496.87ZM1355.28 1355.28L1364.12 1364.12C1506.9 1221.34 1641.03 1072.21 1758.92 925.052L1749.16 917.237L1739.41 909.422C1622.14 1055.82 1488.62 1204.26 1346.44 1346.44L1355.28 1355.28ZM1749.16 917.237L1758.92 925.052C1813.34 857.116 1863.98 789.995 1910.21 724.481L1900 717.273L1889.79 710.066C1843.87 775.131 1793.54 841.847 1739.41 909.422L1749.16 917.237ZM1900 717.273H1887.5V1282.97H1900H1912.5V717.273H1900ZM1900 1282.97L1910.21 1275.76C1858.35 1202.29 1801.11 1127 1739.46 1051.06L1729.75 1058.94L1720.05 1066.82C1781.38 1142.37 1838.28 1217.2 1889.79 1290.18L1900 1282.97ZM1729.75 1058.94L1720.2 1050.89C1677.3 1101.78 1632.7 1152.67 1586.7 1203.24L1595.95 1211.65L1605.2 1220.06C1651.4 1169.27 1696.21 1118.14 1739.31 1067L1729.75 1058.94ZM1595.95 1211.65L1586.19 1219.46C1695.93 1356.75 1788.61 1489.49 1858.15 1609.61L1868.97 1603.34L1879.78 1597.08C1809.47 1475.63 1716.03 1341.85 1605.71 1203.85L1595.95 1211.65ZM1868.97 1603.34L1858.15 1609.61C1869.09 1628.51 1879.31 1646.84 1888.83 1664.6L1899.85 1658.7L1910.87 1652.79C1901.21 1634.78 1890.86 1616.2 1879.78 1597.08L1868.97 1603.34ZM1899.85 1658.7L1887.36 1658.27C1883.1 1782.86 1782.86 1883.1 1658.27 1887.36L1658.7 1899.85L1659.12 1912.34C1796.85 1907.63 1907.63 1796.85 1912.34 1659.12L1899.85 1658.7ZM1658.7 1899.85L1664.6 1888.83C1646.82 1879.3 1628.48 1869.08 1609.61 1858.15L1603.34 1868.97L1597.08 1879.79C1616.18 1890.84 1634.75 1901.2 1652.79 1910.87L1658.7 1899.85ZM1603.34 1868.97L1609.61 1858.15C1490.13 1788.98 1356.28 1695.8 1215.86 1583.31L1208.05 1593.07L1200.23 1602.83C1341.38 1715.89 1476.28 1809.85 1597.08 1879.79L1603.34 1868.97ZM1208.05 1593.07L1215.86 1583.31C1075.6 1470.96 932.602 1342.4 795.225 1205.02L786.386 1213.86L777.547 1222.7C915.525 1360.67 1059.21 1489.86 1200.23 1602.83L1208.05 1593.07ZM786.386 1213.86L795.225 1205.02C743.337 1153.13 692.706 1100.44 643.727 1047.39L634.543 1055.87L625.359 1064.35C674.565 1117.64 725.426 1170.58 777.547 1222.7L786.386 1213.86ZM634.543 1055.87L625.227 1047.54C579.58 1098.55 535.625 1149.72 493.724 1200.62L503.375 1208.56L513.026 1216.5C554.7 1165.88 598.43 1114.98 643.858 1064.21L634.543 1055.87ZM503.375 1208.56L494.226 1217.08C540.334 1266.6 587.732 1315.72 636.126 1364.12L644.965 1355.28L653.804 1346.44C605.619 1298.26 558.428 1249.35 512.524 1200.04L503.375 1208.56ZM644.965 1355.28L636.126 1364.12C778.904 1506.9 928.03 1641.03 1075.19 1758.92L1083.01 1749.16L1090.82 1739.41C944.427 1622.14 795.981 1488.62 653.804 1346.44L644.965 1355.28ZM1083.01 1749.16L1075.19 1758.92C1143.13 1813.34 1210.25 1863.98 1275.76 1910.21L1282.97 1900L1290.18 1889.79C1225.11 1843.87 1158.4 1793.54 1090.82 1739.41L1083.01 1749.16ZM1282.97 1900V1887.5H717.273V1900V1912.5H1282.97V1900ZM717.273 1900L724.481 1910.21C789.995 1863.98 857.116 1813.34 925.052 1758.92L917.237 1749.16L909.422 1739.41C841.847 1793.54 775.131 1843.87 710.066 1889.79L717.273 1900ZM917.237 1749.16L925.052 1758.92C933.092 1752.48 941.133 1745.99 949.179 1739.46L941.3 1729.75L933.421 1720.05C925.413 1726.55 917.415 1733 909.422 1739.41L917.237 1749.16ZM941.3 1729.75L949.356 1720.19C898.467 1677.3 847.572 1632.7 797.004 1586.7L788.593 1595.95L780.181 1605.2C830.976 1651.4 882.107 1696.21 933.244 1739.31L941.3 1729.75ZM788.593 1595.95L780.788 1586.19C641.68 1697.38 509.091 1789.57 390.636 1858.15L396.899 1868.97L403.162 1879.78C522.937 1810.44 656.561 1717.49 796.398 1605.71L788.593 1595.95ZM396.899 1868.97L390.636 1858.15C371.758 1869.08 353.415 1879.3 335.625 1888.84L341.53 1899.86L347.436 1910.87C365.477 1901.2 384.059 1890.84 403.162 1879.78L396.899 1868.97ZM341.53 1899.86L341.946 1887.36C217.393 1883.22 117.122 1783.15 112.656 1658.68L100.164 1659.12L87.6721 1659.57C92.6089 1797.17 203.428 1907.77 341.114 1912.35L341.53 1899.86ZM100.164 1659.12L111.183 1665.03C120.781 1647.11 131.08 1628.63 142.094 1609.61L131.276 1603.34L120.459 1597.08C109.314 1616.33 98.8798 1635.05 89.1454 1653.22L100.164 1659.12ZM131.276 1603.34L142.094 1609.61C211.264 1490.13 304.448 1356.28 416.931 1215.86L407.175 1208.05L397.419 1200.23C284.351 1341.38 190.399 1476.28 120.459 1597.08L131.276 1603.34ZM407.175 1208.05L416.931 1215.86C529.285 1075.6 657.847 932.602 795.225 795.225L786.386 786.386L777.547 777.547C639.569 915.524 510.388 1059.21 397.419 1200.23L407.175 1208.05ZM786.386 786.386L795.225 795.225C847.113 743.337 899.806 692.704 952.854 643.725L944.374 634.541L935.894 625.357C882.601 674.563 829.668 725.426 777.547 777.547L786.386 786.386ZM944.374 634.541L952.709 625.225C901.425 579.34 850.259 535.406 799.626 493.725L791.682 503.376L783.737 513.027C834.097 554.483 885.002 598.192 936.039 643.857L944.374 634.541ZM791.682 503.376L783.164 494.227C733.64 540.335 684.519 587.733 636.126 636.126L644.965 644.965L653.804 653.804C701.988 605.619 750.895 558.428 800.199 512.525L791.682 503.376ZM644.965 644.965L636.126 636.126C493.348 778.904 359.212 928.03 241.326 1075.19L251.082 1083.01L260.838 1090.82C378.109 944.427 511.626 795.982 653.804 653.804L644.965 644.965ZM251.082 1083.01L241.326 1075.19C186.81 1143.25 136.09 1210.48 89.7865 1276.11L100 1283.31L110.214 1290.52C156.199 1225.35 206.611 1158.52 260.838 1090.82L251.082 1083.01ZM100 1283.31H112.5V716.928H100H87.5V1283.31H100ZM100 716.928L89.7865 724.134C136.09 789.758 186.809 856.996 241.326 925.052L251.082 917.237L260.838 909.422C206.611 841.728 156.2 774.896 110.214 709.721L100 716.928ZM251.082 917.237L241.326 925.052C247.765 933.09 254.253 941.132 260.786 949.179L270.49 941.3L280.194 933.421C273.694 925.415 267.241 917.415 260.838 909.422L251.082 917.237ZM270.49 941.3L280.048 949.356C322.94 898.466 367.539 847.573 413.54 797.004L404.293 788.593L395.046 780.181C348.84 830.976 304.034 882.106 260.932 933.244L270.49 941.3ZM404.293 788.593L414.057 780.788C302.861 641.68 210.674 509.091 142.095 390.636L131.277 396.899L120.46 403.162C189.803 522.937 282.751 656.562 394.529 796.398L404.293 788.593ZM131.277 396.899L142.095 390.636C131.078 371.607 120.776 353.122 111.175 335.199L100.156 341.102L89.1376 347.004C98.8746 365.181 109.311 383.906 120.46 403.162L131.277 396.899ZM100.156 341.102L112.649 341.539C117.002 217.101 217.105 117 341.542 112.649L341.105 100.156L340.669 87.6639C203.11 92.4741 92.4762 203.106 87.6639 340.665L100.156 341.102ZM341.105 100.156L335.203 111.175C353.099 120.762 371.581 131.063 390.636 142.095L396.899 131.277L403.162 120.46C383.881 109.297 365.159 98.8613 347.008 89.1377L341.105 100.156ZM396.899 131.277L390.636 142.095C633.101 282.469 926.701 516.906 1205.02 795.225L1213.86 786.386L1222.7 777.547C943.361 498.211 648.053 262.239 403.162 120.46L396.899 131.277ZM1213.86 786.386L1205.02 795.225C1257.16 847.366 1307.77 900.053 1356.52 952.85L1365.7 944.37L1374.89 935.89C1325.91 882.849 1275.07 829.922 1222.7 777.547L1213.86 786.386ZM1365.7 944.37L1375.02 952.705C1420.67 901.689 1464.62 850.527 1506.52 799.627L1496.87 791.683L1487.22 783.738C1445.54 834.362 1401.82 885.264 1356.39 936.035L1365.7 944.37ZM1496.87 791.683L1506.02 783.165C1460.02 733.76 1412.63 684.641 1364.12 636.126L1355.28 644.965L1346.44 653.804C1394.75 702.109 1441.93 751.014 1487.72 800.2L1496.87 791.683ZM1355.28 644.965L1364.12 636.126C1153.59 425.596 931.609 236.179 724.135 89.7865L716.929 100L709.722 110.213C915.857 255.661 1136.76 444.119 1346.44 653.804L1355.28 644.965ZM716.929 100V112.5H1283.32V100V87.5H716.929V100Z" fill="#1A1D1A"/>
</svg>
