<svg width="1800" height="1800" viewBox="0 0 1800 1800" fill="none" xmlns="http://www.w3.org/2000/svg">
<g clip-path="url(#clip0_1_122)">
<path d="M1183.32 0L1190.52 10.2135C1194.97 7.07307 1196.88 1.41191 1195.23 -3.78027C1193.58 -8.97245 1188.76 -12.5 1183.32 -12.5V0ZM983.007 151.082L975.192 141.326L975.192 141.326L983.007 151.082ZM958.944 170.49L951.065 160.786C948.173 163.134 946.479 166.65 946.445 170.376C946.411 174.101 948.04 177.647 950.889 180.048L958.944 170.49ZM1111.65 304.293L1103.24 313.54C1107.78 317.673 1114.66 317.892 1119.46 314.057L1111.65 304.293ZM1503.34 31.2773L1497.08 20.4595L1497.08 20.4595L1503.34 31.2773ZM1559.13 0.164062L1559.58 -12.3279C1557.37 -12.4072 1555.17 -11.8988 1553.22 -10.8546L1559.13 0.164062ZM1799.86 241.53L1810.87 247.436C1811.91 245.495 1812.42 243.315 1812.35 241.114L1799.86 241.53ZM1768.97 296.899L1779.78 303.162L1779.78 303.162L1768.97 296.899ZM1493.07 692.197L1502.83 700.012L1502.83 700.012L1493.07 692.197ZM1113.86 1113.86L1122.7 1122.7L1122.7 1122.7L1113.86 1113.86ZM955.871 1265.7L947.391 1256.52C944.804 1258.91 943.344 1262.28 943.371 1265.8C943.399 1269.32 944.911 1272.67 947.536 1275.02L955.871 1265.7ZM1108.56 1396.87L1100.62 1406.52C1105.45 1410.5 1112.49 1410.29 1117.08 1406.02L1108.56 1396.87ZM1255.28 1255.28L1264.12 1264.12L1264.12 1264.12L1255.28 1255.28ZM1649.16 817.237L1658.92 825.052L1658.92 825.052L1649.16 817.237ZM1800 617.273H1812.5C1812.5 611.826 1808.97 607.007 1803.78 605.359C1798.59 603.711 1792.93 605.615 1789.79 610.066L1800 617.273ZM1800 1182.97L1789.79 1190.18C1792.93 1194.63 1798.59 1196.53 1803.78 1194.89C1808.97 1193.24 1812.5 1188.42 1812.5 1182.97H1800ZM1629.75 958.943L1639.46 951.064C1637.11 948.172 1633.59 946.478 1629.87 946.444C1626.14 946.41 1622.6 948.039 1620.2 950.887L1629.75 958.943ZM1495.95 1111.65L1486.7 1103.24C1482.57 1107.78 1482.35 1114.66 1486.19 1119.46L1495.95 1111.65ZM1768.97 1503.34L1779.78 1497.08L1779.78 1497.08L1768.97 1503.34ZM1799.85 1558.7L1812.34 1559.12C1812.42 1556.92 1811.91 1554.73 1810.87 1552.79L1799.85 1558.7ZM1558.7 1799.85L1552.79 1810.87C1554.73 1811.91 1556.92 1812.42 1559.12 1812.34L1558.7 1799.85ZM1503.34 1768.97L1497.08 1779.79L1497.08 1779.79L1503.34 1768.97ZM1108.05 1493.07L1100.23 1502.83L1100.23 1502.83L1108.05 1493.07ZM686.386 1113.86L677.547 1122.7L677.547 1122.7L686.386 1113.86ZM534.543 955.871L543.727 947.391C541.338 944.804 537.967 943.344 534.445 943.371C530.923 943.399 527.576 944.911 525.227 947.536L534.543 955.871ZM403.375 1108.56L393.724 1100.62C389.742 1105.45 389.957 1112.49 394.226 1117.08L403.375 1108.56ZM544.965 1255.28L536.126 1264.12L536.126 1264.12L544.965 1255.28ZM983.007 1649.16L975.192 1658.92L975.192 1658.92L983.007 1649.16ZM1182.97 1800V1812.5C1188.42 1812.5 1193.24 1808.97 1194.88 1803.78C1196.53 1798.59 1194.63 1792.93 1190.18 1789.79L1182.97 1800ZM617.273 1800L610.066 1789.79C605.615 1792.93 603.711 1798.59 605.359 1803.78C607.007 1808.97 611.826 1812.5 617.273 1812.5V1800ZM817.237 1649.16L825.052 1658.92L825.052 1658.92L817.237 1649.16ZM841.3 1629.75L849.179 1639.46C852.071 1637.11 853.765 1633.59 853.799 1629.87C853.833 1626.14 852.204 1622.6 849.356 1620.19L841.3 1629.75ZM688.593 1495.95L697.004 1486.7C692.46 1482.57 685.586 1482.35 680.788 1486.19L688.593 1495.95ZM296.899 1768.97L303.162 1779.78L303.162 1779.78L296.899 1768.97ZM241.53 1799.86L241.114 1812.35C243.315 1812.42 245.495 1811.91 247.436 1810.87L241.53 1799.86ZM0.164062 1559.12L-10.8546 1553.22C-11.8988 1555.17 -12.4072 1557.36 -12.3279 1559.57L0.164062 1559.12ZM31.2764 1503.34L20.4585 1497.08L20.4585 1497.08L31.2764 1503.34ZM307.175 1108.05L297.419 1100.23L297.419 1100.23L307.175 1108.05ZM686.386 686.386L677.547 677.547L677.547 677.547L686.386 686.386ZM844.374 534.541L852.854 543.725C855.442 541.336 856.901 537.965 856.874 534.443C856.846 530.921 855.334 527.574 852.709 525.225L844.374 534.541ZM691.682 403.376L699.626 393.725C694.788 389.743 687.75 389.958 683.164 394.227L691.682 403.376ZM544.965 544.965L536.126 536.126L536.126 536.126L544.965 544.965ZM151.082 983.007L141.326 975.192L141.326 975.192L151.082 983.007ZM0 1183.31H-12.5C-12.5 1188.76 -8.97246 1193.58 -3.78029 1195.23C1.41189 1196.88 7.07304 1194.97 10.2135 1190.52L0 1183.31ZM0 616.928L10.2135 609.721C7.07307 605.27 1.41191 603.366 -3.78027 605.013C-8.97245 606.66 -12.5 611.48 -12.5 616.928H0ZM151.082 817.237L141.326 825.052L141.326 825.052L151.082 817.237ZM170.49 841.3L160.786 849.179C163.134 852.071 166.65 853.765 170.375 853.799C174.101 853.833 177.647 852.204 180.048 849.356L170.49 841.3ZM304.293 688.593L313.54 697.004C317.673 692.46 317.892 685.586 314.057 680.788L304.293 688.593ZM31.2773 296.899L20.4595 303.162L20.4595 303.162L31.2773 296.899ZM0.15625 241.102L-12.3361 240.665C-12.4133 242.871 -11.9048 245.058 -10.8624 247.004L0.15625 241.102ZM241.105 0.15625L247.008 -10.8623C245.062 -11.9047 242.875 -12.4133 240.669 -12.3361L241.105 0.15625ZM296.899 31.2773L303.162 20.4595L303.162 20.4595L296.899 31.2773ZM1113.86 686.386L1122.7 677.547L1122.7 677.547L1113.86 686.386ZM1265.7 844.37L1256.52 852.85C1258.91 855.438 1262.28 856.897 1265.8 856.87C1269.32 856.842 1272.67 855.33 1275.02 852.705L1265.7 844.37ZM1396.87 691.683L1406.52 699.627C1410.5 694.789 1410.29 687.751 1406.02 683.165L1396.87 691.683ZM1255.28 544.965L1264.12 536.126L1264.12 536.126L1255.28 544.965ZM616.929 0V-12.5C611.481 -12.5 606.661 -8.97247 605.014 -3.7803C603.367 1.41186 605.271 7.07301 609.722 10.2135L616.929 0ZM1183.32 0L1176.11 -10.2135C1110.49 36.0896 1043.25 86.8091 975.192 141.326L983.007 151.082L990.822 160.838C1058.52 106.611 1125.35 56.1996 1190.52 10.2135L1183.32 0ZM983.007 151.082L975.192 141.326C967.154 147.765 959.112 154.253 951.065 160.786L958.944 170.49L966.823 180.194C974.829 173.694 982.829 167.241 990.822 160.838L983.007 151.082ZM958.944 170.49L950.889 180.048C1001.69 222.87 1052.59 267.463 1103.24 313.54L1111.65 304.293L1120.06 295.046C1069.18 248.764 1018.05 203.963 967 160.932L958.944 170.49ZM1111.65 304.293L1119.46 314.057C1258.56 202.861 1391.15 110.674 1509.61 42.0952L1503.34 31.2773L1497.08 20.4595C1377.31 89.8029 1243.68 182.751 1103.85 294.529L1111.65 304.293ZM1503.34 31.2773L1509.61 42.0952C1528.63 31.081 1547.11 20.781 1565.03 11.1827L1559.13 0.164062L1553.22 -10.8546C1535.05 -1.11984 1516.33 9.31465 1497.08 20.4595L1503.34 31.2773ZM1559.13 0.164062L1558.68 12.656C1683.15 17.1228 1783.22 117.394 1787.36 241.946L1799.86 241.53L1812.35 241.114C1807.77 103.429 1697.17 -7.39009 1559.58 -12.3279L1559.13 0.164062ZM1799.86 241.53L1788.84 235.625C1779.3 253.415 1769.08 271.758 1758.15 290.636L1768.97 296.899L1779.78 303.162C1790.84 284.059 1801.2 265.477 1810.87 247.436L1799.86 241.53ZM1768.97 296.899L1758.15 290.636C1688.98 410.111 1595.8 543.966 1483.31 684.382L1493.07 692.197L1502.83 700.012C1615.89 558.864 1709.84 423.968 1779.78 303.162L1768.97 296.899ZM1493.07 692.197L1483.31 684.382C1370.96 824.64 1242.4 967.642 1105.02 1105.02L1113.86 1113.86L1122.7 1122.7C1260.67 984.72 1389.86 841.037 1502.83 700.012L1493.07 692.197ZM1113.86 1113.86L1105.02 1105.02C1053.13 1156.91 1000.44 1207.54 947.391 1256.52L955.871 1265.7L964.351 1274.88C1017.64 1225.68 1070.58 1174.82 1122.7 1122.7L1113.86 1113.86ZM955.871 1265.7L947.536 1275.02C998.553 1320.66 1049.71 1364.62 1100.62 1406.52L1108.56 1396.87L1116.5 1387.22C1065.88 1345.54 1014.98 1301.81 964.206 1256.38L955.871 1265.7ZM1108.56 1396.87L1117.08 1406.02C1166.6 1359.91 1215.72 1312.51 1264.12 1264.12L1255.28 1255.28L1246.44 1246.44C1198.26 1294.62 1149.35 1341.82 1100.04 1387.72L1108.56 1396.87ZM1255.28 1255.28L1264.12 1264.12C1406.9 1121.34 1541.03 972.214 1658.92 825.052L1649.16 817.237L1639.41 809.422C1522.14 955.817 1388.62 1104.26 1246.44 1246.44L1255.28 1255.28ZM1649.16 817.237L1658.92 825.052C1713.34 757.116 1763.98 689.995 1810.21 624.481L1800 617.273L1789.79 610.066C1743.87 675.131 1693.54 741.847 1639.41 809.422L1649.16 817.237ZM1800 617.273H1787.5V1182.97H1800H1812.5V617.273H1800ZM1800 1182.97L1810.21 1175.76C1758.35 1102.29 1701.11 1027 1639.46 951.064L1629.75 958.943L1620.05 966.822C1681.38 1042.37 1738.28 1117.2 1789.79 1190.18L1800 1182.97ZM1629.75 958.943L1620.2 950.887C1577.3 1001.78 1532.7 1052.67 1486.7 1103.24L1495.95 1111.65L1505.2 1120.06C1551.4 1069.27 1596.21 1018.14 1639.31 966.999L1629.75 958.943ZM1495.95 1111.65L1486.19 1119.46C1595.93 1256.75 1688.61 1389.49 1758.15 1509.61L1768.97 1503.34L1779.78 1497.08C1709.47 1375.63 1616.03 1241.85 1505.71 1103.85L1495.95 1111.65ZM1768.97 1503.34L1758.15 1509.61C1769.09 1528.51 1779.31 1546.84 1788.83 1564.6L1799.85 1558.7L1810.87 1552.79C1801.21 1534.78 1790.86 1516.2 1779.78 1497.08L1768.97 1503.34ZM1799.85 1558.7L1787.36 1558.27C1783.1 1682.86 1682.86 1783.1 1558.27 1787.36L1558.7 1799.85L1559.12 1812.34C1696.85 1807.63 1807.63 1696.85 1812.34 1559.12L1799.85 1558.7ZM1558.7 1799.85L1564.6 1788.83C1546.82 1779.3 1528.48 1769.08 1509.61 1758.15L1503.34 1768.97L1497.08 1779.79C1516.18 1790.84 1534.75 1801.2 1552.79 1810.87L1558.7 1799.85ZM1503.34 1768.97L1509.61 1758.15C1390.13 1688.98 1256.28 1595.8 1115.86 1483.31L1108.05 1493.07L1100.23 1502.83C1241.38 1615.89 1376.28 1709.85 1497.08 1779.79L1503.34 1768.97ZM1108.05 1493.07L1115.86 1483.31C975.604 1370.96 832.602 1242.4 695.225 1105.02L686.386 1113.86L677.547 1122.7C815.525 1260.67 959.207 1389.86 1100.23 1502.83L1108.05 1493.07ZM686.386 1113.86L695.225 1105.02C643.337 1053.13 592.706 1000.44 543.727 947.391L534.543 955.871L525.359 964.351C574.565 1017.64 625.426 1070.58 677.547 1122.7L686.386 1113.86ZM534.543 955.871L525.227 947.536C479.58 998.553 435.625 1049.72 393.724 1100.62L403.375 1108.56L413.026 1116.5C454.7 1065.88 498.43 1014.98 543.858 964.206L534.543 955.871ZM403.375 1108.56L394.226 1117.08C440.334 1166.6 487.732 1215.72 536.126 1264.12L544.965 1255.28L553.804 1246.44C505.619 1198.26 458.428 1149.35 412.524 1100.04L403.375 1108.56ZM544.965 1255.28L536.126 1264.12C678.904 1406.9 828.03 1541.03 975.192 1658.92L983.007 1649.16L990.822 1639.41C844.427 1522.14 695.981 1388.62 553.804 1246.44L544.965 1255.28ZM983.007 1649.16L975.192 1658.92C1043.13 1713.34 1110.25 1763.98 1175.76 1810.21L1182.97 1800L1190.18 1789.79C1125.11 1743.87 1058.4 1693.54 990.822 1639.41L983.007 1649.16ZM1182.97 1800V1787.5H617.273V1800V1812.5H1182.97V1800ZM617.273 1800L624.481 1810.21C689.995 1763.98 757.116 1713.34 825.052 1658.92L817.237 1649.16L809.422 1639.41C741.847 1693.54 675.131 1743.87 610.066 1789.79L617.273 1800ZM817.237 1649.16L825.052 1658.92C833.092 1652.48 841.133 1645.99 849.179 1639.46L841.3 1629.75L833.421 1620.05C825.413 1626.55 817.415 1633 809.422 1639.41L817.237 1649.16ZM841.3 1629.75L849.356 1620.19C798.467 1577.3 747.572 1532.7 697.004 1486.7L688.593 1495.95L680.181 1505.2C730.976 1551.4 782.107 1596.21 833.244 1639.31L841.3 1629.75ZM688.593 1495.95L680.788 1486.19C541.68 1597.38 409.091 1689.57 290.636 1758.15L296.899 1768.97L303.162 1779.78C422.937 1710.44 556.561 1617.49 696.398 1505.71L688.593 1495.95ZM296.899 1768.97L290.636 1758.15C271.758 1769.08 253.415 1779.3 235.625 1788.84L241.53 1799.86L247.436 1810.87C265.477 1801.2 284.059 1790.84 303.162 1779.78L296.899 1768.97ZM241.53 1799.86L241.946 1787.36C117.393 1783.22 17.1219 1683.15 12.656 1558.68L0.164062 1559.12L-12.3279 1559.57C-7.39111 1697.17 103.428 1807.77 241.114 1812.35L241.53 1799.86ZM0.164062 1559.12L11.1827 1565.03C20.7806 1547.11 31.0804 1528.63 42.0942 1509.61L31.2764 1503.34L20.4585 1497.08C9.31408 1516.33 -1.12018 1535.05 -10.8546 1553.22L0.164062 1559.12ZM31.2764 1503.34L42.0942 1509.61C111.264 1390.13 204.448 1256.28 316.931 1115.86L307.175 1108.05L297.419 1100.23C184.351 1241.38 90.3986 1376.28 20.4585 1497.08L31.2764 1503.34ZM307.175 1108.05L316.931 1115.86C429.285 975.604 557.847 832.602 695.225 695.225L686.386 686.386L677.547 677.547C539.569 815.524 410.388 959.207 297.419 1100.23L307.175 1108.05ZM686.386 686.386L695.225 695.225C747.113 643.337 799.806 592.704 852.854 543.725L844.374 534.541L835.894 525.357C782.601 574.563 729.668 625.426 677.547 677.547L686.386 686.386ZM844.374 534.541L852.709 525.225C801.425 479.34 750.259 435.406 699.626 393.725L691.682 403.376L683.737 413.027C734.097 454.483 785.002 498.192 836.039 543.857L844.374 534.541ZM691.682 403.376L683.164 394.227C633.64 440.335 584.519 487.733 536.126 536.126L544.965 544.965L553.804 553.804C601.988 505.619 650.895 458.428 700.199 412.525L691.682 403.376ZM544.965 544.965L536.126 536.126C393.348 678.904 259.212 828.03 141.326 975.192L151.082 983.007L160.838 990.822C278.109 844.427 411.626 695.982 553.804 553.804L544.965 544.965ZM151.082 983.007L141.326 975.192C86.8095 1043.25 36.0896 1110.48 -10.2135 1176.11L0 1183.31L10.2135 1190.52C56.1995 1125.35 106.611 1058.52 160.838 990.822L151.082 983.007ZM0 1183.31H12.5V616.928H0H-12.5V1183.31H0ZM0 616.928L-10.2135 624.134C36.0896 689.758 86.8091 756.996 141.326 825.052L151.082 817.237L160.838 809.422C106.611 741.728 56.1996 674.896 10.2135 609.721L0 616.928ZM151.082 817.237L141.326 825.052C147.765 833.09 154.253 841.132 160.786 849.179L170.49 841.3L180.194 833.421C173.694 825.415 167.241 817.415 160.838 809.422L151.082 817.237ZM170.49 841.3L180.048 849.356C222.94 798.466 267.539 747.573 313.54 697.004L304.293 688.593L295.046 680.181C248.84 730.976 204.034 782.106 160.932 833.244L170.49 841.3ZM304.293 688.593L314.057 680.788C202.861 541.68 110.674 409.091 42.0952 290.636L31.2773 296.899L20.4595 303.162C89.8029 422.937 182.751 556.562 294.529 696.398L304.293 688.593ZM31.2773 296.899L42.0952 290.636C31.078 271.607 20.7757 253.122 11.1749 235.199L0.15625 241.102L-10.8624 247.004C-1.12542 265.181 9.31137 283.906 20.4595 303.162L31.2773 296.899ZM0.15625 241.102L12.6486 241.539C17.0019 117.101 117.105 17 241.542 12.6486L241.105 0.15625L240.669 -12.3361C103.11 -7.52594 -7.52382 103.106 -12.3361 240.665L0.15625 241.102ZM241.105 0.15625L235.203 11.1748C253.099 20.762 271.581 31.063 290.636 42.0952L296.899 31.2773L303.162 20.4595C283.881 9.29675 265.159 -1.13871 247.008 -10.8623L241.105 0.15625ZM296.899 31.2773L290.636 42.0952C533.101 182.469 826.701 416.906 1105.02 695.225L1113.86 686.386L1122.7 677.547C843.361 398.211 548.053 162.239 303.162 20.4595L296.899 31.2773ZM1113.86 686.386L1105.02 695.225C1157.16 747.366 1207.77 800.053 1256.52 852.85L1265.7 844.37L1274.89 835.89C1225.91 782.849 1175.07 729.922 1122.7 677.547L1113.86 686.386ZM1265.7 844.37L1275.02 852.705C1320.67 801.689 1364.62 750.527 1406.52 699.627L1396.87 691.683L1387.22 683.738C1345.54 734.362 1301.82 785.264 1256.39 836.035L1265.7 844.37ZM1396.87 691.683L1406.02 683.165C1360.02 633.76 1312.63 584.641 1264.12 536.126L1255.28 544.965L1246.44 553.804C1294.75 602.109 1341.93 651.014 1387.72 700.2L1396.87 691.683ZM1255.28 544.965L1264.12 536.126C1053.59 325.596 831.609 136.179 624.135 -10.2135L616.929 0L609.722 10.2135C815.857 155.661 1036.76 344.119 1246.44 553.804L1255.28 544.965ZM616.929 0V12.5H1183.32V0V-12.5H616.929V0Z" fill="#1A1D1A"/>
</g>
<defs>
<clipPath id="clip0_1_122">
<rect width="1800" height="1800" fill="white"/>
</clipPath>
</defs>
</svg>
