<svg width="2000" height="2000" viewBox="0 0 2000 2000" fill="none" xmlns="http://www.w3.org/2000/svg">
<mask id="path-1-inside-1_1_102" fill="white">
<path d="M1283.32 100C1217.92 146.145 1150.88 196.71 1083.01 251.082C1074.99 257.503 1066.97 263.974 1058.94 270.49C1109.87 313.417 1160.89 358.114 1211.65 404.293C1351.12 292.806 1484.23 200.238 1603.34 131.277C1622.48 120.198 1641.08 109.831 1659.13 100.164C1790.16 104.866 1895.49 210.411 1899.86 341.53C1890.25 359.446 1879.96 377.908 1868.97 396.899C1799.41 517.039 1705.84 651.415 1593.07 792.197C1480.41 932.838 1351.54 1076.18 1213.86 1213.86C1161.85 1265.86 1109.04 1316.61 1055.87 1365.7C1106.77 1411.24 1157.8 1455.08 1208.56 1496.87C1257.97 1450.86 1306.99 1403.57 1355.28 1355.28C1497.76 1212.8 1631.58 1064.02 1749.16 917.237C1803.44 849.482 1853.92 782.563 1900 717.273V1282.97C1848.32 1209.74 1791.25 1134.68 1729.75 1058.94C1686.76 1109.96 1642.05 1160.97 1595.95 1211.65C1705.98 1349.3 1799.04 1482.56 1868.97 1603.34C1879.97 1622.36 1890.26 1640.81 1899.85 1658.7C1895.37 1789.85 1789.85 1895.37 1658.7 1899.85C1640.79 1890.25 1622.33 1879.96 1603.34 1868.97C1483.2 1799.41 1348.83 1705.84 1208.05 1593.07C1067.41 1480.41 924.063 1351.54 786.386 1213.86L644.965 1355.28C787.443 1497.76 936.229 1631.58 1083.01 1749.16C1150.76 1803.44 1217.68 1853.92 1282.97 1900H717.273C782.563 1853.92 849.482 1803.44 917.237 1749.16C925.253 1742.74 933.273 1736.27 941.3 1729.75C890.287 1686.76 839.274 1642.05 788.593 1595.95C649.121 1707.44 516.014 1800.01 396.899 1868.97C377.908 1879.96 359.446 1890.25 341.53 1899.86C210.411 1895.49 104.865 1790.16 100.164 1659.12C109.83 1641.08 120.197 1622.48 131.276 1603.34C200.831 1483.2 294.4 1348.83 407.175 1208.05C519.837 1067.41 648.708 924.063 786.386 786.386C838.39 734.381 891.204 683.634 944.374 634.541C893.214 588.766 842.178 544.944 791.682 503.376C742.267 549.381 693.254 596.676 644.965 644.965C502.487 787.443 368.66 936.229 251.082 1083.01C196.71 1150.88 146.145 1217.92 100 1283.31V716.928C146.145 782.327 196.71 849.362 251.082 917.237C257.503 925.253 263.974 933.274 270.49 941.3C313.487 890.286 358.19 839.274 404.293 788.593C292.806 649.121 200.238 516.014 131.277 396.899C120.195 377.757 109.825 359.151 100.156 341.102C104.739 210.104 210.107 104.737 341.105 100.156C359.129 109.812 377.731 120.18 396.899 131.277C640.577 272.354 935.031 507.559 1213.86 786.386C1266.12 838.644 1316.84 891.451 1365.7 944.37C1411.24 893.476 1455.08 842.444 1496.87 791.683C1450.97 742.387 1403.69 693.375 1355.28 644.965C1145.17 434.858 923.733 245.92 716.929 100H1283.32ZM634.543 1055.87C589.005 1106.77 545.163 1157.8 503.375 1208.56C549.381 1257.98 596.676 1306.99 644.965 1355.28L786.386 1213.86C734.382 1161.85 683.635 1109.04 634.543 1055.87Z"/>
</mask>
<path d="M1283.32 100L1340.97 181.708L1598.5 0H1283.32V100ZM1083.01 251.082L1020.49 173.036L1083.01 251.082ZM1058.94 270.49L995.912 192.857L902.069 269.05L994.498 346.954L1058.94 270.49ZM1211.65 404.293L1144.36 478.266L1207.46 535.665L1274.09 482.405L1211.65 404.293ZM1603.34 131.277L1553.24 44.7347V44.7347L1603.34 131.277ZM1659.13 100.164L1662.71 0.228394L1635.72 -0.740372L1611.91 12.0151L1659.13 100.164ZM1899.86 341.53L1987.99 388.774L2000.7 365.076L1999.8 338.203L1899.86 341.53ZM1868.97 396.899L1955.51 447.003L1868.97 396.899ZM1593.07 792.197L1671.12 854.717L1593.07 792.197ZM1213.86 1213.86L1284.57 1284.57L1213.86 1213.86ZM1055.87 1365.7L988.034 1292.23L907.2 1366.86L989.191 1440.22L1055.87 1365.7ZM1208.56 1496.87L1145 1574.07L1212.61 1629.73L1276.7 1570.06L1208.56 1496.87ZM1355.28 1355.28L1425.99 1425.99L1355.28 1355.28ZM1749.16 917.237L1827.21 979.757L1749.16 917.237ZM1900 717.273H2000V402.157L1818.3 659.612L1900 717.273ZM1900 1282.97L1818.3 1340.63L2000 1598.08V1282.97H1900ZM1729.75 1058.94L1807.39 995.911L1731.19 902.068L1653.29 994.496L1729.75 1058.94ZM1595.95 1211.65L1521.98 1144.36L1464.58 1207.46L1517.84 1274.09L1595.95 1211.65ZM1868.97 1603.34L1955.51 1553.24L1868.97 1603.34ZM1899.85 1658.7L1999.79 1662.11L2000.71 1635.19L1987.98 1611.45L1899.85 1658.7ZM1658.7 1899.85L1611.45 1987.99L1635.19 2000.71L1662.11 1999.79L1658.7 1899.85ZM1603.34 1868.97L1553.24 1955.51L1603.34 1868.97ZM1208.05 1593.07L1145.53 1671.12L1208.05 1593.07ZM644.965 1355.28L574.254 1284.57L503.544 1355.28L574.254 1425.99L644.965 1355.28ZM1083.01 1749.16L1020.49 1827.21L1083.01 1749.16ZM1282.97 1900V2000H1598.08L1340.63 1818.3L1282.97 1900ZM717.273 1900L659.612 1818.3L402.157 2000H717.273V1900ZM917.237 1749.16L979.757 1827.21L917.237 1749.16ZM941.3 1729.75L1004.33 1807.39L1098.17 1731.19L1005.75 1653.29L941.3 1729.75ZM788.593 1595.95L855.883 1521.98L792.784 1464.58L726.154 1517.84L788.593 1595.95ZM396.899 1868.97L447.003 1955.51H447.003L396.899 1868.97ZM341.53 1899.86L338.203 1999.8L365.076 2000.7L388.774 1987.99L341.53 1899.86ZM100.164 1659.12L12.015 1611.9L-0.740173 1635.72L0.228363 1662.71L100.164 1659.12ZM131.276 1603.34L44.7337 1553.24H44.7337L131.276 1603.34ZM407.175 1208.05L329.128 1145.53V1145.53L407.175 1208.05ZM786.386 786.386L715.675 715.675L786.386 786.386ZM944.374 634.541L1012.21 708.013L1093.05 633.378L1011.05 560.017L944.374 634.541ZM791.682 503.376L855.237 426.17L787.63 370.517L723.54 430.186L791.682 503.376ZM644.965 644.965L574.254 574.254L644.965 644.965ZM251.082 1083.01L173.036 1020.49H173.036L251.082 1083.01ZM100 1283.31H0V1598.49L181.708 1340.97L100 1283.31ZM100 716.928L181.708 659.276L0 401.747V716.928H100ZM251.082 917.237L173.036 979.757H173.036L251.082 917.237ZM270.49 941.3L192.857 1004.33L269.05 1098.17L346.953 1005.75L270.49 941.3ZM404.293 788.593L478.266 855.883L535.665 792.784L482.405 726.154L404.293 788.593ZM131.277 396.899L44.7347 447.003L44.7347 447.003L131.277 396.899ZM100.156 341.102L0.217384 337.605L-0.725327 364.553L12.0068 388.321L100.156 341.102ZM341.105 100.156L388.327 12.0081L364.559 -0.724983L337.611 0.217331L341.105 100.156ZM396.899 131.277L447.003 44.7347L447.003 44.7347L396.899 131.277ZM1213.86 786.386L1284.57 715.675L1213.86 786.386ZM1365.7 944.37L1292.23 1012.21L1366.87 1093.04L1440.23 1011.05L1365.7 944.37ZM1496.87 791.683L1574.07 855.238L1629.73 787.631L1570.06 723.541L1496.87 791.683ZM1355.28 644.965L1425.99 574.254V574.254L1355.28 644.965ZM716.929 100V0H401.751L659.276 181.708L716.929 100ZM634.543 1055.87L708.015 988.034L633.38 907.2L560.019 989.191L634.543 1055.87ZM503.375 1208.56L426.169 1145.01L370.516 1212.61L430.185 1276.7L503.375 1208.56ZM644.965 1355.28L574.254 1425.99L644.965 1496.7L715.676 1425.99L644.965 1355.28ZM1283.32 100L1225.66 18.2918C1158.47 65.7048 1089.81 117.504 1020.49 173.036L1083.01 251.082L1145.53 329.129C1211.95 275.916 1277.37 226.584 1340.97 181.708L1283.32 100ZM1083.01 251.082L1020.49 173.036C1012.29 179.601 1004.1 186.209 995.912 192.857L1058.94 270.49L1121.98 348.124C1129.84 341.738 1137.69 335.405 1145.53 329.129L1083.01 251.082ZM1058.94 270.49L994.498 346.954C1044.44 389.043 1094.5 432.909 1144.36 478.266L1211.65 404.293L1278.94 330.32C1227.27 283.319 1175.31 237.79 1123.39 194.027L1058.94 270.49ZM1211.65 404.293L1274.09 482.405C1410.65 373.246 1539.62 283.723 1653.45 217.82L1603.34 131.277L1553.24 44.7347C1428.84 116.754 1291.6 212.365 1149.21 326.181L1211.65 404.293ZM1603.34 131.277L1653.45 217.82C1671.68 207.263 1689.32 197.434 1706.35 188.313L1659.13 100.164L1611.91 12.0151C1592.84 22.2272 1573.28 33.1323 1553.24 44.7347L1603.34 131.277ZM1659.13 100.164L1655.54 200.1C1734.07 202.918 1797.3 266.269 1799.91 344.857L1899.86 341.53L1999.8 338.203C1993.69 154.553 1846.25 6.81474 1662.71 0.228394L1659.13 100.164ZM1899.86 341.53L1811.72 294.287C1802.66 311.195 1792.9 328.704 1782.42 346.796L1868.97 396.899L1955.51 447.003C1967.03 427.112 1977.85 407.696 1987.99 388.774L1899.86 341.53ZM1868.97 396.899L1782.42 346.796C1715.95 461.612 1625.45 591.822 1515.02 729.677L1593.07 792.197L1671.12 854.717C1786.24 711.008 1882.87 572.466 1955.51 447.003L1868.97 396.899ZM1593.07 792.197L1515.02 729.677C1404.82 867.25 1278.42 1007.87 1143.15 1143.15L1213.86 1213.86L1284.57 1284.57C1424.65 1144.49 1556 998.427 1671.12 854.717L1593.07 792.197ZM1213.86 1213.86L1143.15 1143.15C1092.08 1194.22 1040.22 1244.04 988.034 1292.23L1055.87 1365.7L1123.71 1439.17C1177.86 1389.17 1231.63 1337.51 1284.57 1284.57L1213.86 1213.86ZM1055.87 1365.7L989.191 1440.22C1041.07 1486.64 1093.14 1531.38 1145 1574.07L1208.56 1496.87L1272.12 1419.66C1222.46 1378.78 1172.46 1335.84 1122.55 1291.18L1055.87 1365.7ZM1208.56 1496.87L1276.7 1570.06C1326.99 1523.24 1376.86 1475.12 1425.99 1425.99L1355.28 1355.28L1284.57 1284.57C1237.12 1332.02 1188.96 1378.49 1140.42 1423.68L1208.56 1496.87ZM1355.28 1355.28L1425.99 1425.99C1570.87 1281.11 1707.17 1129.6 1827.21 979.757L1749.16 917.237L1671.12 854.717C1556 998.427 1424.65 1144.49 1284.57 1284.57L1355.28 1355.28ZM1749.16 917.237L1827.21 979.757C1882.64 910.557 1934.36 842.018 1981.7 774.935L1900 717.273L1818.3 659.612C1773.49 723.108 1724.23 788.407 1671.12 854.717L1749.16 917.237ZM1900 717.273H1800V1282.97H1900H2000V717.273H1900ZM1900 1282.97L1981.7 1225.31C1928.6 1150.07 1870.16 1073.22 1807.39 995.911L1729.75 1058.94L1652.12 1121.98C1712.34 1196.14 1768.03 1269.41 1818.3 1340.63L1900 1282.97ZM1729.75 1058.94L1653.29 994.496C1611.13 1044.52 1567.26 1094.58 1521.98 1144.36L1595.95 1211.65L1669.92 1278.94C1716.85 1227.36 1762.38 1175.4 1806.22 1123.39L1729.75 1058.94ZM1595.95 1211.65L1517.84 1274.09C1625.59 1408.88 1715.58 1538 1782.42 1653.45L1868.97 1603.34L1955.51 1553.24C1882.49 1427.12 1786.38 1289.72 1674.06 1149.21L1595.95 1211.65ZM1868.97 1603.34L1782.42 1653.45C1792.91 1671.56 1802.67 1689.06 1811.71 1705.94L1899.85 1658.7L1987.98 1611.45C1977.86 1592.56 1967.04 1573.15 1955.51 1553.24L1868.97 1603.34ZM1899.85 1658.7L1799.91 1655.28C1797.22 1733.89 1733.89 1797.22 1655.28 1799.91L1658.7 1899.85L1662.11 1999.79C1845.82 1993.51 1993.51 1845.82 1999.79 1662.11L1899.85 1658.7ZM1658.7 1899.85L1705.94 1811.71C1689.04 1802.65 1671.54 1792.9 1653.45 1782.43L1603.34 1868.97L1553.24 1955.51C1573.12 1967.02 1592.53 1977.84 1611.45 1987.99L1658.7 1899.85ZM1603.34 1868.97L1653.45 1782.43C1538.63 1715.95 1408.42 1625.45 1270.57 1515.02L1208.05 1593.07L1145.53 1671.12C1289.24 1786.24 1427.78 1882.87 1553.24 1955.51L1603.34 1868.97ZM1208.05 1593.07L1270.57 1515.02C1132.99 1404.82 992.374 1278.42 857.096 1143.15L786.386 1213.86L715.675 1284.57C855.753 1424.65 1001.82 1556 1145.53 1671.12L1208.05 1593.07ZM786.386 1213.86L715.675 1143.15L574.254 1284.57L644.965 1355.28L715.676 1425.99L857.097 1284.57L786.386 1213.86ZM644.965 1355.28L574.254 1425.99C719.132 1570.87 870.64 1707.17 1020.49 1827.21L1083.01 1749.16L1145.53 1671.12C1001.82 1556 855.753 1424.65 715.676 1284.57L644.965 1355.28ZM1083.01 1749.16L1020.49 1827.21C1089.69 1882.64 1158.22 1934.36 1225.31 1981.7L1282.97 1900L1340.63 1818.3C1277.14 1773.49 1211.84 1724.23 1145.53 1671.12L1083.01 1749.16ZM1282.97 1900V1800H717.273V1900V2000H1282.97V1900ZM717.273 1900L774.935 1981.7C842.018 1934.36 910.557 1882.64 979.757 1827.21L917.237 1749.16L854.717 1671.12C788.407 1724.23 723.108 1773.49 659.612 1818.3L717.273 1900ZM917.237 1749.16L979.757 1827.21C987.96 1820.64 996.152 1814.03 1004.33 1807.39L941.3 1729.75L878.268 1652.12C870.395 1658.51 862.546 1664.84 854.717 1671.12L917.237 1749.16ZM941.3 1729.75L1005.75 1653.29C955.727 1611.13 905.661 1567.26 855.883 1521.98L788.593 1595.95L721.302 1669.92C772.886 1716.85 824.847 1762.38 876.853 1806.21L941.3 1729.75ZM788.593 1595.95L726.154 1517.84C589.595 1627 460.628 1716.52 346.796 1782.42L396.899 1868.97L447.003 1955.51C571.401 1883.49 708.646 1787.88 851.031 1674.06L788.593 1595.95ZM396.899 1868.97L346.796 1782.42C328.704 1792.9 311.195 1802.66 294.287 1811.72L341.53 1899.86L388.774 1987.99C407.696 1977.85 427.112 1967.03 447.003 1955.51L396.899 1868.97ZM341.53 1899.86L344.857 1799.91C266.269 1797.3 202.917 1734.07 200.1 1655.54L100.164 1659.12L0.228363 1662.71C6.81334 1846.25 154.552 1993.69 338.203 1999.8L341.53 1899.86ZM100.164 1659.12L188.313 1706.35C197.433 1689.32 207.263 1671.68 217.819 1653.45L131.276 1603.34L44.7337 1553.24C33.132 1573.28 22.227 1592.84 12.015 1611.9L100.164 1659.12ZM131.276 1603.34L217.819 1653.45C284.292 1538.63 374.79 1408.42 485.221 1270.57L407.175 1208.05L329.128 1145.53C214.009 1289.24 117.371 1427.78 44.7337 1553.24L131.276 1603.34ZM407.175 1208.05L485.221 1270.57C595.425 1132.99 721.819 992.374 857.096 857.096L786.386 786.386L715.675 715.675C575.597 855.753 444.248 1001.82 329.128 1145.53L407.175 1208.05ZM786.386 786.386L857.096 857.096C908.168 806.025 960.024 756.198 1012.21 708.013L944.374 634.541L876.537 561.069C822.384 611.069 768.612 662.738 715.675 715.675L786.386 786.386ZM944.374 634.541L1011.05 560.017C958.904 513.357 906.828 468.64 855.237 426.17L791.682 503.376L728.126 580.582C777.529 621.249 827.523 664.175 877.695 709.065L944.374 634.541ZM791.682 503.376L723.54 430.186C673.25 477.007 623.38 525.129 574.254 574.254L644.965 644.965L715.676 715.676C763.128 668.223 811.285 621.755 859.823 576.566L791.682 503.376ZM644.965 644.965L574.254 574.254C429.376 719.132 293.072 870.64 173.036 1020.49L251.082 1083.01L329.129 1145.53C444.249 1001.82 575.598 855.753 715.676 715.676L644.965 644.965ZM251.082 1083.01L173.036 1020.49C117.505 1089.81 65.7052 1158.47 18.2919 1225.66L100 1283.31L181.708 1340.97C226.584 1277.37 275.916 1211.95 329.129 1145.53L251.082 1083.01ZM100 1283.31H200V716.928H100H0V1283.31H100ZM100 716.928L18.2918 774.58C65.7048 841.777 117.504 910.435 173.036 979.757L251.082 917.237L329.129 854.717C275.916 788.289 226.584 722.877 181.708 659.276L100 716.928ZM251.082 917.237L173.036 979.757C179.601 987.953 186.209 996.144 192.857 1004.33L270.49 941.3L348.124 878.268C341.738 870.403 335.405 862.553 329.129 854.717L251.082 917.237ZM270.49 941.3L346.953 1005.75C389.113 955.727 432.984 905.662 478.266 855.883L404.293 788.593L330.32 721.302C283.396 772.886 237.861 824.846 194.027 876.853L270.49 941.3ZM404.293 788.593L482.405 726.154C373.246 589.596 283.723 460.628 217.82 346.796L131.277 396.899L44.7347 447.003C116.754 571.4 212.365 708.646 326.181 851.031L404.293 788.593ZM131.277 396.899L217.82 346.796C207.261 328.558 197.429 310.914 188.306 293.882L100.156 341.102L12.0068 388.321C22.2208 407.388 33.1282 426.955 44.7347 447.003L131.277 396.899ZM100.156 341.102L200.095 344.598C202.842 266.085 266.087 202.841 344.6 200.095L341.105 100.156L337.611 0.217331C154.127 6.6334 6.63627 154.123 0.217384 337.605L100.156 341.102ZM341.105 100.156L293.884 188.304C310.889 197.414 328.53 207.245 346.796 217.82L396.899 131.277L447.003 44.7347C426.932 33.1148 407.369 22.209 388.327 12.0081L341.105 100.156ZM396.899 131.277L346.796 217.82C580.767 353.277 868.393 582.342 1143.15 857.096L1213.86 786.386L1284.57 715.675C1001.67 432.776 700.388 191.431 447.003 44.7347L396.899 131.277ZM1213.86 786.386L1143.15 857.096C1194.47 908.419 1244.28 960.268 1292.23 1012.21L1365.7 944.37L1439.17 876.532C1389.41 822.634 1337.76 768.869 1284.57 715.675L1213.86 786.386ZM1365.7 944.37L1440.23 1011.05C1486.64 959.175 1531.38 907.102 1574.07 855.238L1496.87 791.683L1419.66 728.127C1378.78 777.787 1335.84 827.778 1291.18 877.69L1365.7 944.37ZM1496.87 791.683L1570.06 723.541C1523.35 673.372 1475.24 623.503 1425.99 574.254L1355.28 644.965L1284.57 715.676C1332.14 763.246 1378.6 811.403 1423.68 859.824L1496.87 791.683ZM1355.28 644.965L1425.99 574.254C1212.5 360.768 986.741 167.991 774.581 18.2921L716.929 100L659.276 181.708C860.725 323.849 1077.84 508.947 1284.57 715.676L1355.28 644.965ZM716.929 100V200H1283.32V100V0H716.929V100ZM634.543 1055.87L560.019 989.191C513.604 1041.07 468.865 1093.14 426.169 1145.01L503.375 1208.56L580.581 1272.12C621.461 1222.46 664.407 1172.46 709.067 1122.55L634.543 1055.87ZM503.375 1208.56L430.185 1276.7C477.006 1326.99 525.128 1376.86 574.254 1425.99L644.965 1355.28L715.676 1284.57C668.223 1237.12 621.755 1188.96 576.565 1140.42L503.375 1208.56ZM644.965 1355.28L715.676 1425.99L857.096 1284.57L786.386 1213.86L715.675 1143.15L574.254 1284.57L644.965 1355.28ZM786.386 1213.86L857.096 1143.15C806.026 1092.08 756.2 1040.22 708.015 988.034L634.543 1055.87L561.071 1123.71C611.07 1177.86 662.738 1231.63 715.675 1284.57L786.386 1213.86Z" fill="#1A1D1A" mask="url(#path-1-inside-1_1_102)"/>
</svg>
