<svg width="4000" height="4000" viewBox="0 0 4000 4000" fill="none" xmlns="http://www.w3.org/2000/svg">
<g clip-path="url(#clip0_8_3967)">
<rect width="4000" height="4000" fill="#1A1D1A"/>
<path d="M2613.85 50C2472.15 149.98 2326.91 259.538 2179.85 377.344C2162.48 391.256 2145.1 405.276 2127.71 419.396C2238.06 512.403 2348.59 609.246 2458.58 709.301C2760.77 467.746 3049.17 267.183 3307.25 117.768C3348.71 93.762 3389.01 71.2996 3428.11 50.3555C3712.01 60.5438 3940.23 289.224 3949.69 573.316C3928.88 612.133 3906.58 652.135 3882.76 693.282C3732.06 953.585 3529.33 1244.73 3284.98 1549.76C3040.88 1854.48 2761.66 2165.06 2463.36 2463.36C2350.68 2576.04 2236.25 2685.98 2121.05 2792.35C2231.33 2891.02 2341.89 2986.01 2451.88 3076.55C2558.94 2976.87 2665.15 2874.4 2769.77 2769.77C3078.47 2461.07 3368.43 2138.7 3623.18 1820.68C3740.78 1673.88 3850.16 1528.89 3950 1387.43V2613.1C3838.02 2454.45 3714.37 2291.81 3581.13 2127.71C3487.97 2238.24 3391.12 2348.77 3291.23 2458.58C3529.63 2756.82 3731.25 3045.55 3882.76 3307.25C3906.61 3348.44 3928.9 3388.42 3949.67 3427.17C3939.96 3711.35 3711.35 3939.96 3427.18 3949.67C3388.37 3928.87 3348.38 3906.58 3307.25 3882.76C3046.94 3732.06 2755.8 3529.33 2450.77 3284.98C2146.05 3040.88 1835.47 2761.66 1537.17 2463.36C1424.49 2350.68 1314.54 2236.26 1208.18 2121.05C1109.51 2231.33 1014.52 2341.9 923.979 2451.88C1023.66 2558.95 1126.13 2665.15 1230.76 2769.77C1539.46 3078.47 1861.83 3368.43 2179.85 3623.18C2326.65 3740.78 2471.64 3850.16 2613.1 3950H1387.43C1528.89 3850.16 1673.88 3740.78 1820.68 3623.18C1838.05 3609.27 1855.43 3595.25 1872.82 3581.13C1762.29 3487.97 1651.76 3391.12 1541.95 3291.23C1239.76 3532.78 951.364 3733.35 693.282 3882.76C652.135 3906.58 612.133 3928.88 573.316 3949.69C289.223 3940.23 60.5417 3712.01 50.3555 3428.1C71.2988 3389.01 93.7607 3348.71 117.765 3307.25C268.467 3046.94 471.199 2755.8 715.545 2450.77C959.647 2146.05 1238.87 1835.47 1537.17 1537.17C1649.85 1424.49 1764.28 1314.54 1879.48 1208.17C1768.63 1108.99 1658.05 1014.05 1548.64 923.981C1441.58 1023.66 1335.38 1126.13 1230.76 1230.76C922.055 1539.46 632.097 1861.83 377.344 2179.85C259.539 2326.91 149.98 2472.15 50 2613.85V1386.68C149.98 1528.37 259.538 1673.62 377.344 1820.68C391.256 1838.05 405.276 1855.43 419.396 1872.82C512.555 1762.29 609.411 1651.76 709.301 1541.95C467.746 1239.76 267.183 951.364 117.768 693.282C93.7551 651.806 71.2878 611.495 50.3385 572.387C60.2679 288.558 288.566 60.2635 572.395 50.3385C611.446 71.2585 651.751 93.7231 693.282 117.768C1221.25 423.434 1859.23 933.044 2463.36 1537.17C2576.59 1650.4 2686.49 1764.81 2792.36 1879.47C2891.02 1769.2 2986.01 1658.63 3076.55 1548.65C2977.11 1441.84 2874.66 1335.65 2769.77 1230.76C2314.54 775.525 1834.76 366.159 1386.68 50H2613.85Z" stroke="#1B9AAA" stroke-opacity="0.5" stroke-width="100" stroke-linejoin="round"/>
</g>
<defs>
<clipPath id="clip0_8_3967">
<rect width="4000" height="4000" fill="white"/>
</clipPath>
</defs>
</svg>
