<svg width="1800" height="1800" viewBox="0 0 1800 1800" fill="none" xmlns="http://www.w3.org/2000/svg">
<g clip-path="url(#clip0_1_57)">
<rect x="50" y="50" width="1700" height="1700" rx="300" stroke="#F2F5EA" stroke-width="100"/>
<mask id="mask0_1_57" style="mask-type:alpha" maskUnits="userSpaceOnUse" x="100" y="100" width="1600" height="1600">
<rect x="100" y="100" width="1600" height="1600" rx="250" fill="#F2F5EA"/>
</mask>
<g mask="url(#mask0_1_57)">
<path d="M599.126 955.061C638.142 996.968 678.303 1038.6 719.358 1079.65L725.04 1085.32C844.433 1204.32 968.518 1315.69 1090.25 1413.21C1214.07 1512.39 1332.08 1594.55 1437.4 1655.52C1543.82 1717.13 1630.5 1753.16 1693.78 1766.87C1725.18 1773.67 1746.2 1773.95 1758.79 1772.12C1764.51 1771.28 1767.67 1770.17 1769.16 1769.48C1770.97 1765.71 1778.35 1746.77 1766.87 1693.78C1753.3 1631.16 1717.7 1544.8 1655.52 1437.41C1597.2 1336.68 1520.46 1225.92 1429.92 1111.28C1476.27 1060.64 1521.08 1009.59 1563.94 958.549C1669.56 1089.83 1759.94 1218.61 1828.6 1337.2C1895.8 1453.26 1942.54 1560.09 1962.33 1651.43C1980.85 1736.88 1981.58 1838.65 1912.56 1909.26L1910.92 1910.92C1840.75 1981.09 1738.71 1981.25 1651.42 1962.33C1559.29 1942.37 1452.07 1895.12 1337.2 1828.61C1221.23 1761.47 1094.88 1673.17 965.215 1569.3C837.437 1466.95 707.983 1350.7 583.845 1226.97L577.938 1221.07C540.598 1183.73 503.929 1145.9 468.105 1107.77C509.546 1057.05 553.375 1005.97 599.126 955.061ZM1221.07 577.942C1258.48 615.359 1295.15 653.189 1330.9 691.245C1289.46 741.963 1245.63 793.043 1199.88 843.951C1161.03 802.228 1120.89 760.605 1079.65 719.364L1221.07 577.942ZM-111.912 -111.908C-41.2414 -182.578 61.46 -181.983 147.581 -163.321C238.914 -143.529 345.745 -96.7898 461.809 -29.5951C694.976 105.396 967.505 324.379 1221.07 577.942L1079.65 719.363C834.229 473.946 575.355 267.243 361.602 143.491C254.205 81.3138 167.847 45.7135 105.225 32.1431C52.2362 20.6606 33.3036 28.0384 29.5284 29.8443C28.8396 31.3412 27.7257 34.4935 26.8926 40.2183C25.0608 52.8059 25.3344 73.8247 32.1397 105.229C45.8533 168.513 81.8785 255.192 143.486 361.606C201.003 460.952 277.363 571.589 369.079 687.732C322.731 738.368 277.928 789.419 235.06 840.463C233.271 838.24 231.486 836.016 229.705 833.794C125.836 704.129 37.5416 577.782 -29.5986 461.813C-96.1073 346.934 -143.358 239.721 -163.324 147.586C-182.24 60.2951 -182.076 -41.7441 -111.912 -111.908Z" fill="#F2F5EA"/>
<path d="M691.24 468.109C741.64 509.29 792.724 553.093 843.949 599.128C802.041 638.144 760.415 678.306 719.358 719.363C598.224 840.497 484.865 966.59 385.798 1090.26C286.618 1214.07 204.463 1332.08 143.486 1437.41C81.8787 1543.82 45.8525 1630.5 32.1387 1693.78C25.3334 1725.19 25.0609 1746.21 26.8927 1758.8C27.7673 1764.81 28.9531 1767.98 29.63 1769.38C31.0308 1770.06 34.2051 1771.24 40.2149 1772.12C52.8026 1773.95 73.8215 1773.67 105.226 1766.87C168.509 1753.16 255.188 1717.13 361.602 1655.52C460.948 1598.01 571.585 1521.65 687.728 1429.93C738.364 1476.28 789.415 1521.08 840.46 1563.95C838.236 1565.74 836.013 1567.52 833.79 1569.3C704.125 1673.17 577.779 1761.47 461.81 1828.61C346.931 1895.12 239.718 1942.37 147.582 1962.33C60.2916 1981.25 -41.7474 1981.08 -111.911 1910.92L-111.912 1910.92C-182.075 1840.76 -182.24 1738.72 -163.324 1651.43C-143.358 1559.29 -96.1073 1452.08 -29.5986 1337.2C37.5417 1221.23 125.836 1094.88 229.705 965.219C333.688 835.413 452.003 703.877 577.938 577.942C615.277 540.603 653.108 503.933 691.24 468.109ZM1651.42 -163.32C1738.71 -182.236 1840.75 -182.071 1910.92 -111.908H1910.92C1981.08 -41.7444 1981.25 60.295 1962.33 147.585C1942.36 239.721 1895.11 346.934 1828.6 461.813C1761.46 577.782 1673.17 704.129 1569.3 833.794C1465.32 963.601 1347 1095.14 1221.07 1221.07C1183.73 1258.41 1145.9 1295.08 1107.76 1330.9C1057.05 1289.46 1005.97 1245.63 955.058 1199.88C996.965 1160.87 1038.59 1120.71 1079.65 1079.65C1200.78 958.516 1314.14 832.424 1413.21 708.754C1512.39 584.944 1594.54 466.93 1655.52 361.607C1717.13 255.193 1753.15 168.512 1766.87 105.229C1773.67 73.8246 1773.95 52.8057 1772.11 40.2181C1771.24 34.2087 1770.05 31.0349 1769.38 29.6341C1767.98 28.9571 1764.8 27.7715 1758.79 26.8968C1746.2 25.065 1725.18 25.3386 1693.78 32.1439C1630.5 45.8576 1543.82 81.8828 1437.4 143.491C1338.06 201.007 1227.42 277.367 1111.28 369.083C1060.56 322.659 1009.51 277.862 958.545 235.064C960.769 233.275 962.993 231.49 965.216 229.709C1094.88 125.84 1221.23 37.5458 1337.2 -29.5944C1452.08 -96.1031 1559.29 -143.354 1651.42 -163.32Z" fill="#F2F5EA"/>
</g>
</g>
<defs>
<clipPath id="clip0_1_57">
<rect width="1800" height="1800" fill="white"/>
</clipPath>
</defs>
</svg>
