<svg width="1800" height="1800" viewBox="0 0 1800 1800" fill="none" xmlns="http://www.w3.org/2000/svg">
<g clip-path="url(#clip0_1_24)">
<path d="M1183.32 0C1117.92 46.1446 1050.88 96.7098 983.007 151.082C974.991 157.503 966.971 163.974 958.944 170.49C1009.87 213.417 1060.89 258.114 1111.65 304.293C1251.12 192.806 1384.23 100.238 1503.34 31.2773C1522.48 20.1978 1541.08 9.83058 1559.13 0.164062C1690.16 4.86637 1795.49 110.411 1799.86 241.53C1790.25 259.446 1779.96 277.908 1768.97 296.899C1699.41 417.039 1605.84 551.415 1493.07 692.197C1380.41 832.838 1251.54 976.181 1113.86 1113.86C1061.85 1165.86 1009.04 1216.61 955.871 1265.7C1006.77 1311.24 1057.8 1355.08 1108.56 1396.87C1157.97 1350.86 1206.99 1303.57 1255.28 1255.28C1397.76 1112.8 1531.58 964.016 1649.16 817.237C1703.44 749.482 1753.92 682.563 1800 617.273V1182.97C1748.32 1109.74 1691.25 1034.68 1629.75 958.943C1586.76 1009.96 1542.05 1060.97 1495.95 1111.65C1605.98 1249.3 1699.04 1382.56 1768.97 1503.34C1779.97 1522.36 1790.26 1540.81 1799.85 1558.7C1795.37 1689.85 1689.85 1795.37 1558.7 1799.85C1540.79 1790.25 1522.33 1779.96 1503.34 1768.97C1383.2 1699.41 1248.83 1605.84 1108.05 1493.07C967.406 1380.41 824.063 1251.54 686.386 1113.86L544.965 1255.28C687.443 1397.76 836.229 1531.58 983.007 1649.16C1050.76 1703.44 1117.68 1753.92 1182.97 1800H617.273C682.563 1753.92 749.482 1703.44 817.237 1649.16C825.253 1642.74 833.273 1636.27 841.3 1629.75C790.287 1586.76 739.274 1542.05 688.593 1495.95C549.121 1607.44 416.014 1700.01 296.899 1768.97C277.908 1779.96 259.446 1790.25 241.53 1799.86C110.411 1795.49 4.86539 1690.16 0.164062 1559.12C9.83022 1541.08 20.1972 1522.48 31.2764 1503.34C100.831 1383.2 194.4 1248.83 307.175 1108.05C419.837 967.406 548.708 824.063 686.386 686.386C738.39 634.381 791.204 583.634 844.374 534.541C793.214 488.766 742.178 444.944 691.682 403.376C642.267 449.381 593.254 496.676 544.965 544.965C402.487 687.443 268.66 836.229 151.082 983.007C96.7102 1050.88 46.1446 1117.92 0 1183.31V616.928C46.1446 682.327 96.7098 749.362 151.082 817.237C157.503 825.253 163.974 833.274 170.49 841.3C213.487 790.286 258.19 739.274 304.293 688.593C192.806 549.121 100.238 416.014 31.2773 296.899C20.1947 277.757 9.82512 259.151 0.15625 241.102C4.73902 110.104 110.107 4.73701 241.105 0.15625C259.129 9.81162 277.731 20.1799 296.899 31.2773C540.577 172.354 835.031 407.559 1113.86 686.386C1166.12 738.644 1216.84 791.451 1265.7 844.37C1311.24 793.476 1355.08 742.444 1396.87 691.683C1350.97 642.387 1303.69 593.375 1255.28 544.965C1045.17 334.858 823.733 145.92 616.929 0H1183.32ZM534.543 955.871C489.005 1006.77 445.163 1057.8 403.375 1108.56C449.381 1157.98 496.676 1206.99 544.965 1255.28L686.386 1113.86C634.382 1061.85 583.635 1009.04 534.543 955.871Z" fill="#1A1D1A"/>
</g>
<defs>
<clipPath id="clip0_1_24">
<rect width="1800" height="1800" fill="white"/>
</clipPath>
</defs>
</svg>
