<svg width="6950" height="650" viewBox="0 0 6950 650" fill="none" xmlns="http://www.w3.org/2000/svg">
<mask id="path-1-outside-1_17_1240" maskUnits="userSpaceOnUse" x="91.4531" y="66.3999" width="6780" height="517" fill="black">
<rect fill="white" x="91.4531" y="66.3999" width="6780" height="517"/>
<path d="M1501.85 97.8999C1527.85 97.8999 1554.5 98.1166 1581.8 98.5499C1609.54 98.5499 1636.62 99.1999 1663.05 100.5C1689.49 101.367 1713.54 103.317 1735.2 106.35L1728.7 205.8H1564.25C1556.02 205.8 1549.52 207.967 1544.75 212.3C1539.99 216.633 1537.6 222.267 1537.6 229.2V420.3C1537.6 427.233 1539.99 432.867 1544.75 437.2C1549.52 441.533 1556.02 443.7 1564.25 443.7H1728.7L1735.2 543.15C1713.54 545.75 1689.49 547.7 1663.05 549C1636.62 550.3 1609.54 550.95 1581.8 550.95C1554.5 551.383 1527.85 551.6 1501.85 551.6C1471.09 551.6 1445.74 542.283 1425.8 523.65C1406.3 504.583 1396.55 479.883 1396.55 449.55V199.95C1396.55 169.617 1406.3 145.133 1425.8 126.5C1445.74 107.433 1471.09 97.8999 1501.85 97.8999ZM1408.25 272.75H1705.3V366.35H1408.25V272.75Z"/>
<path d="M2199.76 100.5V500.25C2199.76 532.75 2183.51 549 2151.01 549H2097.06C2082.33 549 2071.28 545.533 2063.91 538.6C2056.98 531.667 2049.83 521.483 2042.46 508.05L1944.96 354C1938.89 342.733 1933.26 330.6 1928.06 317.6C1923.29 304.167 1918.96 290.733 1915.06 277.3H1910.51C1912.68 290.733 1914.19 304.6 1915.06 318.9C1916.36 332.767 1917.01 346.2 1917.01 359.2V549H1787.01V149.25C1787.01 116.75 1803.26 100.5 1835.76 100.5H1889.71C1904.44 100.5 1915.28 103.967 1922.21 110.9C1929.14 117.833 1936.51 128.017 1944.31 141.45L2037.91 288.35C2043.98 299.183 2049.83 311.1 2055.46 324.1C2061.53 337.1 2067.16 350.75 2072.36 365.05H2076.91C2075.18 351.183 2073.66 337.533 2072.36 324.1C2071.49 310.667 2071.06 297.233 2071.06 283.8L2070.41 100.5H2199.76Z"/>
<path d="M2506.09 100.5V549H2365.04V100.5H2506.09ZM2631.54 100.5V205.8H2239.59V100.5H2631.54Z"/>
<path d="M2773.92 97.8999C2799.92 97.8999 2826.57 98.1166 2853.87 98.5499C2881.61 98.5499 2908.69 99.1999 2935.12 100.5C2961.56 101.367 2985.61 103.317 3007.27 106.35L3000.77 205.8H2836.32C2828.09 205.8 2821.59 207.967 2816.82 212.3C2812.06 216.633 2809.67 222.267 2809.67 229.2V420.3C2809.67 427.233 2812.06 432.867 2816.82 437.2C2821.59 441.533 2828.09 443.7 2836.32 443.7H3000.77L3007.27 543.15C2985.61 545.75 2961.56 547.7 2935.12 549C2908.69 550.3 2881.61 550.95 2853.87 550.95C2826.57 551.383 2799.92 551.6 2773.92 551.6C2743.16 551.6 2717.81 542.283 2697.87 523.65C2678.37 504.583 2668.62 479.883 2668.62 449.55V199.95C2668.62 169.617 2678.37 145.133 2697.87 126.5C2717.81 107.433 2743.16 97.8999 2773.92 97.8999ZM2680.32 272.75H2977.37V366.35H2680.32V272.75Z"/>
<path d="M3249.53 93.9999C3293.73 93.9999 3329.7 98.1166 3357.43 106.35C3385.16 114.583 3405.53 128.667 3418.53 148.6C3431.96 168.1 3438.68 195.4 3438.68 230.5C3438.68 248.267 3435.86 264.95 3430.23 280.55C3425.03 295.717 3415.71 308.283 3402.28 318.25C3389.28 328.217 3371.08 334.5 3347.68 337.1V341C3355.91 341.867 3365.01 344.467 3374.98 348.8C3384.95 352.7 3394.26 359.633 3402.93 369.6C3411.6 379.133 3417.66 393 3421.13 411.2L3456.23 549H3308.68L3279.43 415.75C3276.83 403.183 3272.71 394.95 3267.08 391.05C3261.88 387.15 3253.21 385.2 3241.08 385.2C3208.58 384.767 3181.93 384.55 3161.13 384.55C3140.76 384.55 3123.43 384.333 3109.13 383.9C3094.83 383.467 3080.53 382.817 3066.23 381.95L3068.18 285.75H3246.28C3259.71 285.75 3270.11 284.45 3277.48 281.85C3284.85 279.25 3289.83 274.7 3292.43 268.2C3295.46 261.267 3296.98 251.733 3296.98 239.6C3296.98 227.033 3295.46 217.5 3292.43 211C3289.83 204.5 3284.85 199.95 3277.48 197.35C3270.11 194.75 3259.71 193.45 3246.28 193.45C3201.21 193.45 3163.3 193.667 3132.53 194.1C3101.76 194.533 3080.75 195.4 3069.48 196.7L3059.08 100.5C3079.01 98.3332 3097.65 96.8166 3114.98 95.9499C3132.75 95.0832 3152.03 94.6499 3172.83 94.6499C3194.06 94.2166 3219.63 93.9999 3249.53 93.9999ZM3197.53 100.5V549H3059.08V100.5H3197.53Z"/>
<path d="M3734.36 100.5V549H3593.31V100.5H3734.36ZM3859.81 100.5V205.8H3467.86V100.5H3859.81Z"/>
<path d="M4114.89 100.5C4126.16 100.5 4136.13 103.75 4144.79 110.25C4153.46 116.75 4159.31 125.633 4162.34 136.9L4278.69 549H4135.04L4067.44 257.15C4065.71 248.917 4064.19 240.467 4062.89 231.8C4061.59 222.7 4060.51 214.033 4059.64 205.8H4042.09C4041.23 214.033 4040.14 222.7 4038.84 231.8C4037.54 240.467 4036.03 248.917 4034.29 257.15L3966.69 549H3823.04L3939.39 136.9C3942.43 125.633 3948.28 116.75 3956.94 110.25C3965.61 103.75 3975.58 100.5 3986.84 100.5H4114.89ZM4170.14 353.35V452.15H3931.59V353.35H4170.14Z"/>
<path d="M4446.79 100.5V549H4307.04V100.5H4446.79Z"/>
<path d="M4927.98 100.5V500.25C4927.98 532.75 4911.73 549 4879.23 549H4825.28C4810.55 549 4799.5 545.533 4792.13 538.6C4785.2 531.667 4778.05 521.483 4770.68 508.05L4673.18 354C4667.12 342.733 4661.48 330.6 4656.28 317.6C4651.52 304.167 4647.18 290.733 4643.28 277.3H4638.73C4640.9 290.733 4642.42 304.6 4643.28 318.9C4644.58 332.767 4645.23 346.2 4645.23 359.2V549H4515.23V149.25C4515.23 116.75 4531.48 100.5 4563.98 100.5H4617.93C4632.67 100.5 4643.5 103.967 4650.43 110.9C4657.37 117.833 4664.73 128.017 4672.53 141.45L4766.13 288.35C4772.2 299.183 4778.05 311.1 4783.68 324.1C4789.75 337.1 4795.38 350.75 4800.58 365.05H4805.13C4803.4 351.183 4801.88 337.533 4800.58 324.1C4799.72 310.667 4799.28 297.233 4799.28 283.8L4798.63 100.5H4927.98Z"/>
<path d="M5489.12 100.5C5520.75 100.5 5537.22 116.75 5538.52 149.25L5554.12 549H5427.37L5413.72 205.8H5403.97L5359.77 434.6C5355.43 463.2 5337.67 477.5 5306.47 477.5H5233.67C5202.9 477.5 5184.92 463.2 5179.72 434.6L5134.87 205.8H5125.12L5114.07 549H4987.32L5002.92 149.25C5004.22 116.75 5020.68 100.5 5052.32 100.5H5173.87C5204.2 100.5 5221.97 115.017 5227.17 144.05L5259.67 322.15C5261.4 332.983 5262.7 344.033 5263.57 355.3C5264.87 366.567 5265.95 377.833 5266.82 389.1H5272.67C5273.97 377.833 5275.05 366.567 5275.92 355.3C5277.22 344.033 5278.73 332.983 5280.47 322.15L5311.02 144.05C5316.22 115.017 5334.2 100.5 5364.97 100.5H5489.12Z"/>
<path d="M5716.06 97.8999C5742.06 97.8999 5768.71 98.1166 5796.01 98.5499C5823.75 98.5499 5850.83 99.1999 5877.26 100.5C5903.7 101.367 5927.75 103.317 5949.41 106.35L5942.91 205.8H5778.46C5770.23 205.8 5763.73 207.967 5758.96 212.3C5754.2 216.633 5751.81 222.267 5751.81 229.2V420.3C5751.81 427.233 5754.2 432.867 5758.96 437.2C5763.73 441.533 5770.23 443.7 5778.46 443.7H5942.91L5949.41 543.15C5927.75 545.75 5903.7 547.7 5877.26 549C5850.83 550.3 5823.75 550.95 5796.01 550.95C5768.71 551.383 5742.06 551.6 5716.06 551.6C5685.3 551.6 5659.95 542.283 5640.01 523.65C5620.51 504.583 5610.76 479.883 5610.76 449.55V199.95C5610.76 169.617 5620.51 145.133 5640.01 126.5C5659.95 107.433 5685.3 97.8999 5716.06 97.8999ZM5622.46 272.75H5919.51V366.35H5622.46V272.75Z"/>
<path d="M6413.97 100.5V500.25C6413.97 532.75 6397.72 549 6365.22 549H6311.27C6296.54 549 6285.49 545.533 6278.12 538.6C6271.19 531.667 6264.04 521.483 6256.67 508.05L6159.17 354C6153.1 342.733 6147.47 330.6 6142.27 317.6C6137.5 304.167 6133.17 290.733 6129.27 277.3H6124.72C6126.89 290.733 6128.4 304.6 6129.27 318.9C6130.57 332.767 6131.22 346.2 6131.22 359.2V549H6001.22V149.25C6001.22 116.75 6017.47 100.5 6049.97 100.5H6103.92C6118.65 100.5 6129.49 103.967 6136.42 110.9C6143.35 117.833 6150.72 128.017 6158.52 141.45L6252.12 288.35C6258.19 299.183 6264.04 311.1 6269.67 324.1C6275.74 337.1 6281.37 350.75 6286.57 365.05H6291.12C6289.39 351.183 6287.87 337.533 6286.57 324.1C6285.7 310.667 6285.27 297.233 6285.27 283.8L6284.62 100.5H6413.97Z"/>
<path d="M6720.3 100.5V549H6579.25V100.5H6720.3ZM6845.75 100.5V205.8H6453.8V100.5H6845.75Z"/>
<path d="M256.203 100.5V549H116.453V100.5H256.203Z"/>
<path d="M520.291 91.3999C558.858 91.3999 591.358 95.0832 617.791 102.45C644.658 109.383 666.324 121.517 682.791 138.85C699.258 156.183 711.174 180.017 718.541 210.35C725.908 240.25 729.591 278.383 729.591 324.75C729.591 370.683 725.908 408.817 718.541 439.15C711.174 469.483 699.258 493.317 682.791 510.65C666.324 527.983 644.658 540.333 617.791 547.7C591.358 554.633 558.858 558.1 520.291 558.1C482.158 558.1 449.658 554.633 422.791 547.7C396.358 540.333 374.908 527.983 358.441 510.65C341.974 493.317 330.058 469.483 322.691 439.15C315.324 408.817 311.641 370.683 311.641 324.75C311.641 278.383 315.324 240.25 322.691 210.35C330.058 180.017 341.974 156.183 358.441 138.85C374.908 121.517 396.358 109.383 422.791 102.45C449.658 95.0832 482.158 91.3999 520.291 91.3999ZM520.291 196.05C504.258 196.05 491.908 199.517 483.241 206.45C474.574 213.383 468.508 226.167 465.041 244.8C461.574 263.433 459.841 290.083 459.841 324.75C459.841 359.417 461.574 386.067 465.041 404.7C468.508 423.333 474.574 436.117 483.241 443.05C491.908 449.983 504.258 453.45 520.291 453.45C536.324 453.45 548.674 449.983 557.341 443.05C566.008 436.117 572.074 423.333 575.541 404.7C579.008 386.067 580.741 359.417 580.741 324.75C580.741 290.083 579.008 263.433 575.541 244.8C572.074 226.167 566.008 213.383 557.341 206.45C548.674 199.517 536.324 196.05 520.291 196.05Z"/>
<path d="M1196.96 100.5V500.25C1196.96 532.75 1180.71 549 1148.21 549H1094.26C1079.53 549 1068.48 545.533 1061.11 538.6C1054.18 531.667 1047.03 521.483 1039.66 508.05L942.161 354C936.095 342.733 930.461 330.6 925.261 317.6C920.495 304.167 916.161 290.733 912.261 277.3H907.711C909.878 290.733 911.395 304.6 912.261 318.9C913.561 332.767 914.211 346.2 914.211 359.2V549H784.211V149.25C784.211 116.75 800.461 100.5 832.961 100.5H886.911C901.645 100.5 912.478 103.967 919.411 110.9C926.345 117.833 933.711 128.017 941.511 141.45L1035.11 288.35C1041.18 299.183 1047.03 311.1 1052.66 324.1C1058.73 337.1 1064.36 350.75 1069.56 365.05H1074.11C1072.38 351.183 1070.86 337.533 1069.56 324.1C1068.69 310.667 1068.26 297.233 1068.26 283.8L1067.61 100.5H1196.96Z"/>
</mask>
<path d="M1581.8 98.5499L1581.41 123.547C1581.54 123.549 1581.67 123.55 1581.8 123.55V98.5499ZM1663.05 100.5L1661.83 125.47C1661.96 125.476 1662.1 125.482 1662.23 125.486L1663.05 100.5ZM1735.2 106.35L1760.15 107.98C1761 94.9166 1751.63 83.4065 1738.67 81.5914L1735.2 106.35ZM1728.7 205.8V230.8C1741.88 230.8 1752.79 220.577 1753.65 207.43L1728.7 205.8ZM1728.7 443.7L1753.65 442.069C1752.79 428.923 1741.88 418.7 1728.7 418.7V443.7ZM1735.2 543.15L1738.18 567.972C1751.37 566.389 1761.02 554.772 1760.15 541.519L1735.2 543.15ZM1581.8 550.95V525.95C1581.67 525.95 1581.54 525.951 1581.41 525.953L1581.8 550.95ZM1425.8 523.65L1408.33 541.525C1408.46 541.656 1408.59 541.785 1408.73 541.913L1425.8 523.65ZM1425.8 126.5L1443.07 144.575L1443.08 144.566L1425.8 126.5ZM1408.25 272.75V247.75C1394.45 247.75 1383.25 258.943 1383.25 272.75H1408.25ZM1705.3 272.75H1730.3C1730.3 258.943 1719.11 247.75 1705.3 247.75V272.75ZM1705.3 366.35V391.35C1719.11 391.35 1730.3 380.157 1730.3 366.35H1705.3ZM1408.25 366.35H1383.25C1383.25 380.157 1394.45 391.35 1408.25 391.35V366.35ZM2199.76 100.5H2224.76C2224.76 86.6928 2213.57 75.4999 2199.76 75.4999V100.5ZM2063.91 538.6L2046.23 556.278C2046.41 556.456 2046.59 556.632 2046.78 556.805L2063.91 538.6ZM2042.46 508.05L2064.38 496.029C2064.13 495.571 2063.86 495.121 2063.58 494.68L2042.46 508.05ZM1944.96 354L1922.95 365.852C1923.23 366.368 1923.52 366.875 1923.84 367.37L1944.96 354ZM1928.06 317.6L1904.5 325.96C1904.61 326.271 1904.73 326.579 1904.85 326.885L1928.06 317.6ZM1915.06 277.3L1939.07 270.33C1935.97 259.648 1926.18 252.3 1915.06 252.3V277.3ZM1910.51 277.3V252.3C1903.18 252.3 1896.23 255.513 1891.48 261.091C1886.73 266.668 1884.66 274.048 1885.83 281.281L1910.51 277.3ZM1915.06 318.9L1890.11 320.412C1890.12 320.686 1890.14 320.96 1890.17 321.233L1915.06 318.9ZM1917.01 549V574C1930.82 574 1942.01 562.807 1942.01 549H1917.01ZM1787.01 549H1762.01C1762.01 562.807 1773.2 574 1787.01 574V549ZM1922.21 110.9L1904.53 128.578L1904.53 128.578L1922.21 110.9ZM1944.31 141.45L1922.69 154.003C1922.86 154.3 1923.04 154.594 1923.23 154.884L1944.31 141.45ZM2037.91 288.35L2059.72 276.135C2059.49 275.722 2059.25 275.315 2058.99 274.916L2037.91 288.35ZM2055.46 324.1L2032.52 334.04C2032.61 334.252 2032.71 334.463 2032.81 334.672L2055.46 324.1ZM2072.36 365.05L2048.87 373.594C2052.46 383.473 2061.85 390.05 2072.36 390.05V365.05ZM2076.91 365.05V390.05C2084.08 390.05 2090.91 386.971 2095.65 381.595C2100.4 376.219 2102.61 369.064 2101.72 361.949L2076.91 365.05ZM2072.36 324.1L2047.41 325.709C2047.43 325.976 2047.45 326.242 2047.48 326.508L2072.36 324.1ZM2071.06 283.8H2096.06C2096.06 283.77 2096.06 283.741 2096.06 283.711L2071.06 283.8ZM2070.41 100.5V75.4999C2063.76 75.4999 2057.39 78.146 2052.7 82.8536C2048.01 87.5612 2045.39 93.9428 2045.41 100.589L2070.41 100.5ZM2506.09 100.5H2531.09C2531.09 86.6928 2519.9 75.4999 2506.09 75.4999V100.5ZM2506.09 549V574C2519.9 574 2531.09 562.807 2531.09 549H2506.09ZM2365.04 549H2340.04C2340.04 562.807 2351.24 574 2365.04 574V549ZM2365.04 100.5V75.4999C2351.24 75.4999 2340.04 86.6928 2340.04 100.5H2365.04ZM2631.54 100.5H2656.54C2656.54 86.6928 2645.35 75.4999 2631.54 75.4999V100.5ZM2631.54 205.8V230.8C2645.35 230.8 2656.54 219.607 2656.54 205.8H2631.54ZM2239.59 205.8H2214.59C2214.59 219.607 2225.79 230.8 2239.59 230.8V205.8ZM2239.59 100.5V75.4999C2225.79 75.4999 2214.59 86.6928 2214.59 100.5H2239.59ZM2853.87 98.5499L2853.48 123.547C2853.61 123.549 2853.74 123.55 2853.87 123.55V98.5499ZM2935.12 100.5L2933.9 125.47C2934.03 125.476 2934.17 125.482 2934.3 125.486L2935.12 100.5ZM3007.27 106.35L3032.22 107.98C3033.07 94.9166 3023.7 83.4065 3010.74 81.5914L3007.27 106.35ZM3000.77 205.8V230.8C3013.95 230.8 3024.86 220.577 3025.72 207.43L3000.77 205.8ZM3000.77 443.7L3025.72 442.069C3024.86 428.923 3013.95 418.7 3000.77 418.7V443.7ZM3007.27 543.15L3010.25 567.972C3023.44 566.389 3033.09 554.772 3032.22 541.519L3007.27 543.15ZM2853.87 550.95V525.95C2853.74 525.95 2853.61 525.951 2853.48 525.953L2853.87 550.95ZM2697.87 523.65L2680.4 541.525C2680.53 541.656 2680.66 541.785 2680.8 541.913L2697.87 523.65ZM2697.87 126.5L2715.14 144.575L2715.15 144.566L2697.87 126.5ZM2680.32 272.75V247.75C2666.52 247.75 2655.32 258.943 2655.32 272.75H2680.32ZM2977.37 272.75H3002.37C3002.37 258.943 2991.18 247.75 2977.37 247.75V272.75ZM2977.37 366.35V391.35C2991.18 391.35 3002.37 380.157 3002.37 366.35H2977.37ZM2680.32 366.35H2655.32C2655.32 380.157 2666.52 391.35 2680.32 391.35V366.35ZM3418.53 148.6L3397.59 162.257C3397.71 162.433 3397.82 162.609 3397.94 162.783L3418.53 148.6ZM3430.23 280.55L3406.72 272.059C3406.67 272.186 3406.63 272.314 3406.58 272.442L3430.23 280.55ZM3402.28 318.25L3387.38 298.172C3387.28 298.251 3387.17 298.33 3387.07 298.41L3402.28 318.25ZM3347.68 337.1L3344.92 312.253C3332.26 313.66 3322.68 324.361 3322.68 337.1H3347.68ZM3347.68 341H3322.68C3322.68 353.794 3332.34 364.523 3345.06 365.863L3347.68 341ZM3374.98 348.8L3365.01 371.727C3365.3 371.85 3365.58 371.968 3365.87 372.081L3374.98 348.8ZM3402.93 369.6L3384.07 386.004C3384.19 386.143 3384.31 386.281 3384.43 386.417L3402.93 369.6ZM3421.13 411.2L3396.57 415.878C3396.67 416.379 3396.78 416.877 3396.9 417.371L3421.13 411.2ZM3456.23 549V574C3463.95 574 3471.23 570.435 3475.97 564.342C3480.71 558.248 3482.36 550.308 3480.46 542.829L3456.23 549ZM3308.68 549L3284.26 554.36C3286.78 565.829 3296.94 574 3308.68 574V549ZM3279.43 415.75L3254.95 420.815C3254.97 420.914 3254.99 421.012 3255.01 421.11L3279.43 415.75ZM3267.08 391.05L3252.08 411.05C3252.33 411.24 3252.59 411.425 3252.85 411.605L3267.08 391.05ZM3241.08 385.2L3240.75 410.198C3240.86 410.199 3240.97 410.2 3241.08 410.2L3241.08 385.2ZM3109.13 383.9L3108.37 408.888L3108.37 408.888L3109.13 383.9ZM3066.23 381.95L3041.24 381.443C3040.96 394.856 3051.33 406.093 3064.72 406.904L3066.23 381.95ZM3068.18 285.75V260.75C3054.57 260.75 3043.46 271.636 3043.19 285.243L3068.18 285.75ZM3277.48 281.85L3285.8 305.425L3285.8 305.425L3277.48 281.85ZM3292.43 268.2L3269.53 258.179C3269.42 258.423 3269.32 258.668 3269.22 258.915L3292.43 268.2ZM3292.43 211L3269.22 220.285C3269.39 220.719 3269.58 221.148 3269.78 221.572L3292.43 211ZM3277.48 197.35L3269.16 220.925L3269.16 220.925L3277.48 197.35ZM3132.53 194.1L3132.88 219.097L3132.88 219.097L3132.53 194.1ZM3069.48 196.7L3044.63 199.387C3045.34 206.01 3048.67 212.073 3053.88 216.231C3059.08 220.39 3065.73 222.299 3072.35 221.535L3069.48 196.7ZM3059.08 100.5L3056.38 75.6463C3043.69 77.0253 3034.08 87.7384 3034.08 100.5H3059.08ZM3114.98 95.9499L3113.76 70.9796C3113.75 70.9801 3113.74 70.9806 3113.73 70.9811L3114.98 95.9499ZM3172.83 94.6499V119.65C3173 119.65 3173.17 119.648 3173.34 119.645L3172.83 94.6499ZM3197.53 100.5H3222.53C3222.53 86.6928 3211.34 75.4999 3197.53 75.4999V100.5ZM3197.53 549V574C3211.34 574 3222.53 562.807 3222.53 549H3197.53ZM3059.08 549H3034.08C3034.08 562.807 3045.27 574 3059.08 574V549ZM3734.36 100.5H3759.36C3759.36 86.6928 3748.17 75.4999 3734.36 75.4999V100.5ZM3734.36 549V574C3748.17 574 3759.36 562.807 3759.36 549H3734.36ZM3593.31 549H3568.31C3568.31 562.807 3579.51 574 3593.31 574V549ZM3593.31 100.5V75.4999C3579.51 75.4999 3568.31 86.6928 3568.31 100.5H3593.31ZM3859.81 100.5H3884.81C3884.81 86.6928 3873.62 75.4999 3859.81 75.4999V100.5ZM3859.81 205.8V230.8C3873.62 230.8 3884.81 219.607 3884.81 205.8H3859.81ZM3467.86 205.8H3442.86C3442.86 219.607 3454.06 230.8 3467.86 230.8V205.8ZM3467.86 100.5V75.4999C3454.06 75.4999 3442.86 86.6928 3442.86 100.5H3467.86ZM4144.79 110.25L4129.79 130.25L4129.79 130.25L4144.79 110.25ZM4162.34 136.9L4138.2 143.399C4138.23 143.497 4138.26 143.595 4138.28 143.693L4162.34 136.9ZM4278.69 549V574C4286.52 574 4293.9 570.331 4298.63 564.086C4303.35 557.842 4304.88 549.744 4302.75 542.207L4278.69 549ZM4135.04 549L4110.69 554.641C4113.31 565.975 4123.41 574 4135.04 574V549ZM4067.44 257.15L4042.98 262.3C4043.01 262.464 4043.05 262.628 4043.09 262.791L4067.44 257.15ZM4062.89 231.8L4038.15 235.335C4038.15 235.393 4038.16 235.451 4038.17 235.508L4062.89 231.8ZM4059.64 205.8L4084.51 203.183C4083.17 190.459 4072.44 180.8 4059.64 180.8V205.8ZM4042.09 205.8V180.8C4029.3 180.8 4018.57 190.459 4017.23 203.183L4042.09 205.8ZM4038.84 231.8L4063.57 235.508C4063.58 235.451 4063.58 235.393 4063.59 235.335L4038.84 231.8ZM4034.29 257.15L4058.65 262.791C4058.69 262.628 4058.72 262.464 4058.76 262.3L4034.29 257.15ZM3966.69 549V574C3978.33 574 3988.42 565.975 3991.05 554.641L3966.69 549ZM3823.04 549L3798.98 542.207C3796.86 549.744 3798.38 557.842 3803.11 564.086C3807.83 570.331 3815.21 574 3823.04 574V549ZM3939.39 136.9L3963.45 143.693C3963.48 143.595 3963.51 143.497 3963.53 143.399L3939.39 136.9ZM3956.94 110.25L3971.94 130.25L3971.94 130.25L3956.94 110.25ZM4170.14 353.35H4195.14C4195.14 339.543 4183.95 328.35 4170.14 328.35V353.35ZM4170.14 452.15V477.15C4183.95 477.15 4195.14 465.957 4195.14 452.15H4170.14ZM3931.59 452.15H3906.59C3906.59 465.957 3917.79 477.15 3931.59 477.15V452.15ZM3931.59 353.35V328.35C3917.79 328.35 3906.59 339.543 3906.59 353.35H3931.59ZM4446.79 100.5H4471.79C4471.79 86.6928 4460.6 75.4999 4446.79 75.4999V100.5ZM4446.79 549V574C4460.6 574 4471.79 562.807 4471.79 549H4446.79ZM4307.04 549H4282.04C4282.04 562.807 4293.24 574 4307.04 574V549ZM4307.04 100.5V75.4999C4293.24 75.4999 4282.04 86.6928 4282.04 100.5H4307.04ZM4927.98 100.5H4952.98C4952.98 86.6928 4941.79 75.4999 4927.98 75.4999V100.5ZM4792.13 538.6L4774.46 556.278C4774.63 556.456 4774.81 556.632 4775 556.805L4792.13 538.6ZM4770.68 508.05L4792.6 496.029C4792.35 495.571 4792.09 495.121 4791.81 494.68L4770.68 508.05ZM4673.18 354L4651.17 365.852C4651.45 366.368 4651.74 366.875 4652.06 367.37L4673.18 354ZM4656.28 317.6L4632.72 325.96C4632.83 326.271 4632.95 326.579 4633.07 326.885L4656.28 317.6ZM4643.28 277.3L4667.29 270.33C4664.19 259.648 4654.41 252.3 4643.28 252.3V277.3ZM4638.73 277.3V252.3C4631.41 252.3 4624.45 255.513 4619.7 261.091C4614.95 266.668 4612.89 274.048 4614.05 281.281L4638.73 277.3ZM4643.28 318.9L4618.33 320.412C4618.35 320.686 4618.37 320.96 4618.39 321.233L4643.28 318.9ZM4645.23 549V574C4659.04 574 4670.23 562.807 4670.23 549H4645.23ZM4515.23 549H4490.23C4490.23 562.807 4501.43 574 4515.23 574V549ZM4650.43 110.9L4632.75 128.578L4632.75 128.578L4650.43 110.9ZM4672.53 141.45L4650.91 154.003C4651.09 154.3 4651.26 154.594 4651.45 154.884L4672.53 141.45ZM4766.13 288.35L4787.95 276.135C4787.71 275.722 4787.47 275.315 4787.22 274.916L4766.13 288.35ZM4783.68 324.1L4760.74 334.04C4760.84 334.252 4760.93 334.463 4761.03 334.672L4783.68 324.1ZM4800.58 365.05L4777.09 373.594C4780.68 383.473 4790.07 390.05 4800.58 390.05V365.05ZM4805.13 365.05V390.05C4812.3 390.05 4819.13 386.971 4823.87 381.595C4828.62 376.219 4830.83 369.064 4829.94 361.949L4805.13 365.05ZM4800.58 324.1L4775.63 325.709C4775.65 325.976 4775.67 326.242 4775.7 326.508L4800.58 324.1ZM4799.28 283.8H4824.28C4824.28 283.77 4824.28 283.741 4824.28 283.711L4799.28 283.8ZM4798.63 100.5V75.4999C4791.99 75.4999 4785.61 78.146 4780.92 82.8536C4776.23 87.5612 4773.61 93.9428 4773.63 100.589L4798.63 100.5ZM5538.52 149.25L5563.5 148.275C5563.5 148.267 5563.5 148.259 5563.5 148.251L5538.52 149.25ZM5554.12 549V574C5560.92 574 5567.42 571.23 5572.13 566.33C5576.85 561.429 5579.36 554.819 5579.1 548.025L5554.12 549ZM5427.37 549L5402.39 549.993C5402.92 563.403 5413.95 574 5427.37 574V549ZM5413.72 205.8L5438.7 204.806C5438.16 191.396 5427.14 180.8 5413.72 180.8V205.8ZM5403.97 205.8V180.8C5391.99 180.8 5381.69 189.297 5379.42 201.058L5403.97 205.8ZM5359.77 434.6L5335.22 429.858C5335.16 430.189 5335.1 430.521 5335.05 430.855L5359.77 434.6ZM5179.72 434.6L5204.31 430.128C5204.29 430.015 5204.27 429.903 5204.25 429.791L5179.72 434.6ZM5134.87 205.8L5159.4 200.991C5157.1 189.261 5146.82 180.8 5134.87 180.8V205.8ZM5125.12 205.8V180.8C5111.62 180.8 5100.56 191.508 5100.13 204.995L5125.12 205.8ZM5114.07 549V574C5127.56 574 5138.62 563.291 5139.05 549.804L5114.07 549ZM4987.32 549L4962.33 548.025C4962.07 554.819 4964.58 561.429 4969.3 566.33C4974.01 571.23 4980.52 574 4987.32 574V549ZM5002.92 149.25L4977.94 148.251C4977.94 148.259 4977.93 148.267 4977.93 148.275L5002.92 149.25ZM5227.17 144.05L5202.56 148.457C5202.56 148.484 5202.57 148.511 5202.57 148.538L5227.17 144.05ZM5259.67 322.15L5284.35 318.2C5284.32 318.02 5284.29 317.841 5284.26 317.662L5259.67 322.15ZM5263.57 355.3L5238.64 357.217C5238.66 357.534 5238.69 357.85 5238.73 358.166L5263.57 355.3ZM5266.82 389.1L5241.89 391.017C5242.89 404.042 5253.75 414.1 5266.82 414.1V389.1ZM5272.67 389.1V414.1C5285.36 414.1 5296.05 404.58 5297.5 391.966L5272.67 389.1ZM5275.92 355.3L5251.08 352.434C5251.04 352.75 5251.01 353.066 5250.99 353.383L5275.92 355.3ZM5280.47 322.15L5255.83 317.923C5255.81 318.016 5255.79 318.108 5255.78 318.2L5280.47 322.15ZM5311.02 144.05L5286.41 139.642C5286.4 139.703 5286.39 139.763 5286.38 139.823L5311.02 144.05ZM5796.01 98.5499L5795.62 123.547C5795.75 123.549 5795.88 123.55 5796.01 123.55V98.5499ZM5877.26 100.5L5876.03 125.47C5876.17 125.476 5876.31 125.482 5876.44 125.486L5877.26 100.5ZM5949.41 106.35L5974.36 107.98C5975.21 94.9166 5965.84 83.4065 5952.88 81.5914L5949.41 106.35ZM5942.91 205.8V230.8C5956.09 230.8 5967 220.577 5967.86 207.43L5942.91 205.8ZM5942.91 443.7L5967.86 442.069C5967 428.923 5956.09 418.7 5942.91 418.7V443.7ZM5949.41 543.15L5952.39 567.972C5965.58 566.389 5975.23 554.772 5974.36 541.519L5949.41 543.15ZM5796.01 550.95V525.95C5795.88 525.95 5795.75 525.951 5795.62 525.953L5796.01 550.95ZM5640.01 523.65L5622.53 541.525C5622.67 541.656 5622.8 541.785 5622.94 541.913L5640.01 523.65ZM5640.01 126.5L5657.28 144.575L5657.29 144.566L5640.01 126.5ZM5622.46 272.75V247.75C5608.65 247.75 5597.46 258.943 5597.46 272.75H5622.46ZM5919.51 272.75H5944.51C5944.51 258.943 5933.32 247.75 5919.51 247.75V272.75ZM5919.51 366.35V391.35C5933.32 391.35 5944.51 380.157 5944.51 366.35H5919.51ZM5622.46 366.35H5597.46C5597.46 380.157 5608.65 391.35 5622.46 391.35V366.35ZM6413.97 100.5H6438.97C6438.97 86.6928 6427.78 75.4999 6413.97 75.4999V100.5ZM6278.12 538.6L6260.44 556.278C6260.62 556.456 6260.8 556.632 6260.99 556.805L6278.12 538.6ZM6256.67 508.05L6278.59 496.029C6278.34 495.571 6278.07 495.121 6277.79 494.68L6256.67 508.05ZM6159.17 354L6137.16 365.852C6137.44 366.368 6137.73 366.875 6138.04 367.37L6159.17 354ZM6142.27 317.6L6118.71 325.96C6118.82 326.271 6118.93 326.579 6119.06 326.885L6142.27 317.6ZM6129.27 277.3L6153.28 270.33C6150.18 259.648 6140.39 252.3 6129.27 252.3V277.3ZM6124.72 277.3V252.3C6117.39 252.3 6110.44 255.513 6105.69 261.091C6100.94 266.668 6098.87 274.048 6100.04 281.281L6124.72 277.3ZM6129.27 318.9L6104.31 320.412C6104.33 320.686 6104.35 320.96 6104.38 321.233L6129.27 318.9ZM6131.22 549V574C6145.03 574 6156.22 562.807 6156.22 549H6131.22ZM6001.22 549H5976.22C5976.22 562.807 5987.41 574 6001.22 574V549ZM6136.42 110.9L6118.74 128.578L6118.74 128.578L6136.42 110.9ZM6158.52 141.45L6136.9 154.003C6137.07 154.3 6137.25 154.594 6137.44 154.884L6158.52 141.45ZM6252.12 288.35L6273.93 276.135C6273.7 275.722 6273.46 275.315 6273.2 274.916L6252.12 288.35ZM6269.67 324.1L6246.73 334.04C6246.82 334.252 6246.92 334.463 6247.01 334.672L6269.67 324.1ZM6286.57 365.05L6263.07 373.594C6266.67 383.473 6276.06 390.05 6286.57 390.05V365.05ZM6291.12 365.05V390.05C6298.29 390.05 6305.12 386.971 6309.86 381.595C6314.61 376.219 6316.82 369.064 6315.93 361.949L6291.12 365.05ZM6286.57 324.1L6261.62 325.709C6261.64 325.976 6261.66 326.242 6261.69 326.508L6286.57 324.1ZM6285.27 283.8H6310.27C6310.27 283.77 6310.27 283.741 6310.27 283.711L6285.27 283.8ZM6284.62 100.5V75.4999C6277.97 75.4999 6271.6 78.146 6266.91 82.8536C6262.22 87.5612 6259.6 93.9428 6259.62 100.589L6284.62 100.5ZM6720.3 100.5H6745.3C6745.3 86.6928 6734.11 75.4999 6720.3 75.4999V100.5ZM6720.3 549V574C6734.11 574 6745.3 562.807 6745.3 549H6720.3ZM6579.25 549H6554.25C6554.25 562.807 6565.44 574 6579.25 574V549ZM6579.25 100.5V75.4999C6565.44 75.4999 6554.25 86.6928 6554.25 100.5H6579.25ZM6845.75 100.5H6870.75C6870.75 86.6928 6859.56 75.4999 6845.75 75.4999V100.5ZM6845.75 205.8V230.8C6859.56 230.8 6870.75 219.607 6870.75 205.8H6845.75ZM6453.8 205.8H6428.8C6428.8 219.607 6439.99 230.8 6453.8 230.8V205.8ZM6453.8 100.5V75.4999C6439.99 75.4999 6428.8 86.6928 6428.8 100.5H6453.8ZM256.203 100.5H281.203C281.203 86.6928 270.01 75.4999 256.203 75.4999V100.5ZM256.203 549V574C270.01 574 281.203 562.807 281.203 549H256.203ZM116.453 549H91.4531C91.4531 562.807 102.646 574 116.453 574V549ZM116.453 100.5V75.4999C102.646 75.4999 91.4531 86.6928 91.4531 100.5H116.453ZM617.791 102.45L611.08 126.532C611.234 126.575 611.389 126.617 611.544 126.657L617.791 102.45ZM682.791 138.85L700.916 121.631L700.916 121.631L682.791 138.85ZM718.541 210.35L694.247 216.25C694.254 216.277 694.26 216.304 694.267 216.33L718.541 210.35ZM718.541 439.15L742.835 445.05L742.835 445.05L718.541 439.15ZM682.791 510.65L700.916 527.869L700.916 527.869L682.791 510.65ZM617.791 547.7L624.134 571.882C624.223 571.858 624.313 571.835 624.402 571.81L617.791 547.7ZM422.791 547.7L416.08 571.782C416.234 571.825 416.389 571.867 416.544 571.907L422.791 547.7ZM322.691 439.15L346.985 433.25L346.985 433.25L322.691 439.15ZM322.691 210.35L346.965 216.331C346.972 216.304 346.978 216.277 346.985 216.25L322.691 210.35ZM358.441 138.85L340.316 121.631L340.316 121.631L358.441 138.85ZM422.791 102.45L429.134 126.632C429.223 126.608 429.313 126.584 429.402 126.56L422.791 102.45ZM483.241 206.45L498.858 225.972L498.858 225.972L483.241 206.45ZM465.041 244.8L440.463 240.227L440.463 240.227L465.041 244.8ZM465.041 404.7L440.463 409.273L440.463 409.273L465.041 404.7ZM483.241 443.05L467.624 462.572L467.624 462.572L483.241 443.05ZM557.341 443.05L572.958 462.572L572.958 462.572L557.341 443.05ZM575.541 404.7L600.119 409.273L600.119 409.273L575.541 404.7ZM575.541 244.8L600.119 240.227L600.119 240.227L575.541 244.8ZM557.341 206.45L541.724 225.972L541.724 225.972L557.341 206.45ZM1196.96 100.5H1221.96C1221.96 86.6928 1210.77 75.4999 1196.96 75.4999V100.5ZM1061.11 538.6L1043.43 556.278C1043.61 556.456 1043.79 556.632 1043.98 556.805L1061.11 538.6ZM1039.66 508.05L1061.58 496.029C1061.33 495.571 1061.07 495.121 1060.79 494.68L1039.66 508.05ZM942.161 354L920.15 365.852C920.427 366.368 920.723 366.875 921.037 367.37L942.161 354ZM925.261 317.6L901.701 325.96C901.811 326.271 901.927 326.579 902.049 326.885L925.261 317.6ZM912.261 277.3L936.27 270.33C933.169 259.648 923.384 252.3 912.261 252.3V277.3ZM907.711 277.3V252.3C900.385 252.3 893.428 255.513 888.678 261.091C883.928 266.668 881.864 274.048 883.03 281.281L907.711 277.3ZM912.261 318.9L887.307 320.412C887.324 320.686 887.345 320.96 887.37 321.233L912.261 318.9ZM914.211 549V574C928.018 574 939.211 562.807 939.211 549H914.211ZM784.211 549H759.211C759.211 562.807 770.404 574 784.211 574V549ZM919.411 110.9L901.734 128.578L901.734 128.578L919.411 110.9ZM941.511 141.45L919.892 154.003C920.064 154.3 920.243 154.594 920.427 154.884L941.511 141.45ZM1035.11 288.35L1056.92 276.135C1056.69 275.722 1056.45 275.315 1056.2 274.916L1035.11 288.35ZM1052.66 324.1L1029.72 334.04C1029.81 334.252 1029.91 334.463 1030.01 334.672L1052.66 324.1ZM1069.56 365.05L1046.07 373.594C1049.66 383.473 1059.05 390.05 1069.56 390.05V365.05ZM1074.11 365.05V390.05C1081.28 390.05 1088.11 386.971 1092.85 381.595C1097.6 376.219 1099.81 369.064 1098.92 361.949L1074.11 365.05ZM1069.56 324.1L1044.61 325.709C1044.63 325.976 1044.65 326.242 1044.68 326.508L1069.56 324.1ZM1068.26 283.8H1093.26C1093.26 283.77 1093.26 283.741 1093.26 283.711L1068.26 283.8ZM1067.61 100.5V75.4999C1060.97 75.4999 1054.59 78.146 1049.9 82.8536C1045.21 87.5612 1042.59 93.9428 1042.61 100.589L1067.61 100.5ZM1501.85 97.8999V122.9C1527.71 122.9 1554.23 123.115 1581.41 123.547L1581.8 98.5499L1582.2 73.5531C1554.77 73.1178 1527.99 72.8999 1501.85 72.8999V97.8999ZM1581.8 98.5499V123.55C1609.15 123.55 1635.82 124.191 1661.83 125.47L1663.05 100.5L1664.28 75.5301C1637.42 74.2091 1609.93 73.5499 1581.8 73.5499V98.5499ZM1663.05 100.5L1662.23 125.486C1687.96 126.33 1711.11 128.22 1731.74 131.108L1735.2 106.35L1738.67 81.5914C1715.97 78.413 1691.02 76.4033 1663.87 75.5133L1663.05 100.5ZM1735.2 106.35L1710.26 104.719L1703.76 204.169L1728.7 205.8L1753.65 207.43L1760.15 107.98L1735.2 106.35ZM1728.7 205.8V180.8H1564.25V205.8V230.8H1728.7V205.8ZM1564.25 205.8V180.8C1551.59 180.8 1538.48 184.221 1527.94 193.801L1544.75 212.3L1561.57 230.798C1561.22 231.119 1560.95 231.196 1561.11 231.142C1561.36 231.06 1562.3 230.8 1564.25 230.8V205.8ZM1544.75 212.3L1527.94 193.801C1517.53 203.264 1512.6 215.826 1512.6 229.2H1537.6H1562.6C1562.6 228.635 1562.69 228.866 1562.41 229.516C1562.29 229.818 1562.12 230.111 1561.94 230.366C1561.76 230.618 1561.61 230.759 1561.57 230.798L1544.75 212.3ZM1537.6 229.2H1512.6V420.3H1537.6H1562.6V229.2H1537.6ZM1537.6 420.3H1512.6C1512.6 433.674 1517.53 446.236 1527.94 455.698L1544.75 437.2L1561.57 418.701C1561.61 418.741 1561.76 418.882 1561.94 419.133C1562.12 419.389 1562.29 419.682 1562.41 419.984C1562.69 420.634 1562.6 420.865 1562.6 420.3H1537.6ZM1544.75 437.2L1527.94 455.698C1538.48 465.279 1551.59 468.7 1564.25 468.7V443.7V418.7C1562.3 418.7 1561.36 418.44 1561.11 418.358C1560.95 418.304 1561.22 418.381 1561.57 418.701L1544.75 437.2ZM1564.25 443.7V468.7H1728.7V443.7V418.7H1564.25V443.7ZM1728.7 443.7L1703.76 445.33L1710.26 544.78L1735.2 543.15L1760.15 541.519L1753.65 442.069L1728.7 443.7ZM1735.2 543.15L1732.22 518.328C1711.25 520.845 1687.79 522.753 1661.83 524.03L1663.05 549L1664.28 573.97C1691.18 572.647 1715.83 570.654 1738.18 567.972L1735.2 543.15ZM1663.05 549L1661.83 524.03C1635.82 525.309 1609.15 525.95 1581.8 525.95V550.95V575.95C1609.93 575.95 1637.42 575.291 1664.28 573.97L1663.05 549ZM1581.8 550.95L1581.41 525.953C1554.23 526.384 1527.71 526.6 1501.85 526.6V551.6V576.6C1527.99 576.6 1554.77 576.382 1582.2 575.947L1581.8 550.95ZM1501.85 551.6V526.6C1476.55 526.6 1457.58 519.13 1442.88 505.387L1425.8 523.65L1408.73 541.913C1433.9 565.437 1465.62 576.6 1501.85 576.6V551.6ZM1425.8 523.65L1443.28 505.775C1429.15 491.962 1421.55 473.985 1421.55 449.55H1396.55H1371.55C1371.55 485.781 1383.45 517.205 1408.33 541.525L1425.8 523.65ZM1396.55 449.55H1421.55V199.95H1396.55H1371.55V449.55H1396.55ZM1396.55 199.95H1421.55C1421.55 175.508 1429.15 157.882 1443.07 144.575L1425.8 126.5L1408.53 108.425C1383.46 132.385 1371.55 163.725 1371.55 199.95H1396.55ZM1425.8 126.5L1443.08 144.566C1457.81 130.478 1476.72 122.9 1501.85 122.9V97.8999V72.8999C1465.46 72.8999 1433.66 84.3886 1408.52 108.434L1425.8 126.5ZM1408.25 272.75V297.75H1705.3V272.75V247.75H1408.25V272.75ZM1705.3 272.75H1680.3V366.35H1705.3H1730.3V272.75H1705.3ZM1705.3 366.35V341.35H1408.25V366.35V391.35H1705.3V366.35ZM1408.25 366.35H1433.25V272.75H1408.25H1383.25V366.35H1408.25ZM2199.76 100.5H2174.76V500.25H2199.76H2224.76V100.5H2199.76ZM2199.76 500.25H2174.76C2174.76 512.646 2171.68 517.352 2169.9 519.135C2168.11 520.918 2163.41 524 2151.01 524V549V574C2171.11 574 2190.78 568.957 2205.25 554.49C2219.72 540.023 2224.76 520.354 2224.76 500.25H2199.76ZM2151.01 549V524H2097.06V549V574H2151.01V549ZM2097.06 549V524C2085.82 524 2082.03 521.325 2081.04 520.395L2063.91 538.6L2046.78 556.805C2060.52 569.741 2078.84 574 2097.06 574V549ZM2063.91 538.6L2081.59 520.922C2076.99 516.328 2071.17 508.412 2064.38 496.029L2042.46 508.05L2020.54 520.071C2028.48 534.554 2036.96 547.005 2046.23 556.278L2063.91 538.6ZM2042.46 508.05L2063.58 494.68L1966.08 340.63L1944.96 354L1923.84 367.37L2021.34 521.42L2042.46 508.05ZM1944.96 354L1966.97 342.147C1961.39 331.787 1956.15 320.518 1951.27 308.315L1928.06 317.6L1904.85 326.885C1910.37 340.682 1916.39 353.68 1922.95 365.852L1944.96 354ZM1928.06 317.6L1951.62 309.24C1947.01 296.257 1942.83 283.287 1939.07 270.33L1915.06 277.3L1891.05 284.27C1895.09 298.18 1899.57 312.077 1904.5 325.96L1928.06 317.6ZM1915.06 277.3V252.3H1910.51V277.3V302.3H1915.06V277.3ZM1910.51 277.3L1885.83 281.281C1887.86 293.855 1889.29 306.896 1890.11 320.412L1915.06 318.9L1940.01 317.388C1939.1 302.304 1937.5 287.612 1935.19 273.319L1910.51 277.3ZM1915.06 318.9L1890.17 321.233C1891.4 334.379 1892.01 347.032 1892.01 359.2H1917.01H1942.01C1942.01 345.368 1941.32 331.154 1939.95 316.566L1915.06 318.9ZM1917.01 359.2H1892.01V549H1917.01H1942.01V359.2H1917.01ZM1917.01 549V524H1787.01V549V574H1917.01V549ZM1787.01 549H1812.01V149.25H1787.01H1762.01V549H1787.01ZM1787.01 149.25H1812.01C1812.01 136.854 1815.09 132.148 1816.88 130.365C1818.66 128.582 1823.36 125.5 1835.76 125.5V100.5V75.4999C1815.66 75.4999 1795.99 80.5427 1781.52 95.0097C1767.05 109.477 1762.01 129.146 1762.01 149.25H1787.01ZM1835.76 100.5V125.5H1889.71V100.5V75.4999H1835.76V100.5ZM1889.71 100.5V125.5C1901.1 125.5 1904.19 128.236 1904.53 128.578L1922.21 110.9L1939.89 93.2223C1926.36 79.6975 1907.78 75.4999 1889.71 75.4999V100.5ZM1922.21 110.9L1904.53 128.578C1909.31 133.359 1915.42 141.488 1922.69 154.003L1944.31 141.45L1965.93 128.897C1957.6 114.545 1948.97 102.307 1939.89 93.2222L1922.21 110.9ZM1944.31 141.45L1923.23 154.884L2016.83 301.784L2037.91 288.35L2058.99 274.916L1965.39 128.016L1944.31 141.45ZM2037.91 288.35L2016.1 300.565C2021.7 310.565 2027.18 321.711 2032.52 334.04L2055.46 324.1L2078.4 314.16C2072.48 300.489 2066.26 287.801 2059.72 276.135L2037.91 288.35ZM2055.46 324.1L2032.81 334.672C2038.54 346.97 2043.9 359.941 2048.87 373.594L2072.36 365.05L2095.86 356.506C2090.42 341.559 2084.51 327.23 2078.11 313.528L2055.46 324.1ZM2072.36 365.05V390.05H2076.91V365.05V340.05H2072.36V365.05ZM2076.91 365.05L2101.72 361.949C2100.01 348.305 2098.52 334.886 2097.24 321.692L2072.36 324.1L2047.48 326.508C2048.8 340.181 2050.34 354.062 2052.1 368.151L2076.91 365.05ZM2072.36 324.1L2097.31 322.49C2096.48 309.592 2096.06 296.695 2096.06 283.8H2071.06H2046.06C2046.06 297.771 2046.51 311.742 2047.41 325.709L2072.36 324.1ZM2071.06 283.8L2096.06 283.711L2095.41 100.411L2070.41 100.5L2045.41 100.589L2046.06 283.889L2071.06 283.8ZM2070.41 100.5V125.5H2199.76V100.5V75.4999H2070.41V100.5ZM2506.09 100.5H2481.09V549H2506.09H2531.09V100.5H2506.09ZM2506.09 549V524H2365.04V549V574H2506.09V549ZM2365.04 549H2390.04V100.5H2365.04H2340.04V549H2365.04ZM2365.04 100.5V125.5H2506.09V100.5V75.4999H2365.04V100.5ZM2631.54 100.5H2606.54V205.8H2631.54H2656.54V100.5H2631.54ZM2631.54 205.8V180.8H2239.59V205.8V230.8H2631.54V205.8ZM2239.59 205.8H2264.59V100.5H2239.59H2214.59V205.8H2239.59ZM2239.59 100.5V125.5H2631.54V100.5V75.4999H2239.59V100.5ZM2773.92 97.8999V122.9C2799.78 122.9 2826.3 123.115 2853.48 123.547L2853.87 98.5499L2854.27 73.5531C2826.84 73.1178 2800.06 72.8999 2773.92 72.8999V97.8999ZM2853.87 98.5499V123.55C2881.22 123.55 2907.89 124.191 2933.9 125.47L2935.12 100.5L2936.35 75.5301C2909.49 74.2091 2882 73.5499 2853.87 73.5499V98.5499ZM2935.12 100.5L2934.3 125.486C2960.03 126.33 2983.18 128.22 3003.81 131.108L3007.27 106.35L3010.74 81.5914C2988.04 78.413 2963.09 76.4033 2935.94 75.5133L2935.12 100.5ZM3007.27 106.35L2982.33 104.719L2975.83 204.169L3000.77 205.8L3025.72 207.43L3032.22 107.98L3007.27 106.35ZM3000.77 205.8V180.8H2836.32V205.8V230.8H3000.77V205.8ZM2836.32 205.8V180.8C2823.66 180.8 2810.55 184.221 2800.01 193.801L2816.82 212.3L2833.64 230.798C2833.29 231.119 2833.02 231.196 2833.18 231.142C2833.43 231.06 2834.37 230.8 2836.32 230.8V205.8ZM2816.82 212.3L2800.01 193.801C2789.6 203.264 2784.67 215.826 2784.67 229.2H2809.67H2834.67C2834.67 228.635 2834.76 228.866 2834.48 229.516C2834.36 229.818 2834.19 230.111 2834.01 230.367C2833.83 230.618 2833.68 230.759 2833.64 230.798L2816.82 212.3ZM2809.67 229.2H2784.67V420.3H2809.67H2834.67V229.2H2809.67ZM2809.67 420.3H2784.67C2784.67 433.674 2789.6 446.236 2800.01 455.698L2816.82 437.2L2833.64 418.701C2833.68 418.741 2833.83 418.881 2834.01 419.133C2834.19 419.389 2834.36 419.681 2834.48 419.984C2834.76 420.634 2834.67 420.865 2834.67 420.3H2809.67ZM2816.82 437.2L2800.01 455.698C2810.55 465.279 2823.66 468.7 2836.32 468.7V443.7V418.7C2834.37 418.7 2833.43 418.44 2833.18 418.358C2833.02 418.304 2833.29 418.381 2833.64 418.701L2816.82 437.2ZM2836.32 443.7V468.7H3000.77V443.7V418.7H2836.32V443.7ZM3000.77 443.7L2975.83 445.33L2982.33 544.78L3007.27 543.15L3032.22 541.519L3025.72 442.069L3000.77 443.7ZM3007.27 543.15L3004.29 518.328C2983.32 520.845 2959.86 522.753 2933.9 524.03L2935.12 549L2936.35 573.97C2963.25 572.647 2987.9 570.654 3010.25 567.972L3007.27 543.15ZM2935.12 549L2933.9 524.03C2907.89 525.309 2881.22 525.95 2853.87 525.95V550.95V575.95C2882 575.95 2909.49 575.291 2936.35 573.97L2935.12 549ZM2853.87 550.95L2853.48 525.953C2826.3 526.384 2799.78 526.6 2773.92 526.6V551.6V576.6C2800.06 576.6 2826.84 576.382 2854.27 575.947L2853.87 550.95ZM2773.92 551.6V526.6C2748.62 526.6 2729.65 519.13 2714.95 505.387L2697.87 523.65L2680.8 541.913C2705.97 565.437 2737.69 576.6 2773.92 576.6V551.6ZM2697.87 523.65L2715.35 505.775C2701.22 491.962 2693.62 473.985 2693.62 449.55H2668.62H2643.62C2643.62 485.781 2655.52 517.205 2680.4 541.525L2697.87 523.65ZM2668.62 449.55H2693.62V199.95H2668.62H2643.62V449.55H2668.62ZM2668.62 199.95H2693.62C2693.62 175.508 2701.22 157.882 2715.14 144.575L2697.87 126.5L2680.6 108.425C2655.53 132.385 2643.62 163.725 2643.62 199.95H2668.62ZM2697.87 126.5L2715.15 144.566C2729.88 130.478 2748.79 122.9 2773.92 122.9V97.8999V72.8999C2737.53 72.8999 2705.73 84.3886 2680.59 108.434L2697.87 126.5ZM2680.32 272.75V297.75H2977.37V272.75V247.75H2680.32V272.75ZM2977.37 272.75H2952.37V366.35H2977.37H3002.37V272.75H2977.37ZM2977.37 366.35V341.35H2680.32V366.35V391.35H2977.37V366.35ZM2680.32 366.35H2705.32V272.75H2680.32H2655.32V366.35H2680.32ZM3249.53 93.9999V119C3292.45 119 3325.77 123.029 3350.32 130.316L3357.43 106.35L3364.55 82.3837C3333.63 73.2044 3295.01 68.9999 3249.53 68.9999V93.9999ZM3357.43 106.35L3350.32 130.316C3373.64 137.24 3388.49 148.302 3397.59 162.257L3418.53 148.6L3439.47 134.943C3422.57 109.031 3396.69 91.9261 3364.55 82.3837L3357.43 106.35ZM3418.53 148.6L3397.94 162.783C3407.42 176.545 3413.68 198.154 3413.68 230.5H3438.68H3463.68C3463.68 192.645 3456.5 159.655 3439.12 134.417L3418.53 148.6ZM3438.68 230.5H3413.68C3413.68 245.579 3411.3 259.37 3406.72 272.059L3430.23 280.55L3453.74 289.041C3460.43 270.53 3463.68 250.955 3463.68 230.5H3438.68ZM3430.23 280.55L3406.58 272.442C3403.1 282.611 3396.94 291.081 3387.38 298.172L3402.28 318.25L3417.18 338.327C3434.48 325.486 3446.97 308.823 3453.88 288.658L3430.23 280.55ZM3402.28 318.25L3387.07 298.41C3378.93 304.647 3365.66 309.948 3344.92 312.253L3347.68 337.1L3350.44 361.947C3376.5 359.052 3399.63 351.786 3417.49 338.09L3402.28 318.25ZM3347.68 337.1H3322.68V341H3347.68H3372.68V337.1H3347.68ZM3347.68 341L3345.06 365.863C3350.11 366.394 3356.7 368.111 3365.01 371.727L3374.98 348.8L3384.95 325.873C3373.33 320.822 3361.72 317.339 3350.3 316.137L3347.68 341ZM3374.98 348.8L3365.87 372.081C3371.3 374.205 3377.44 378.382 3384.07 386.004L3402.93 369.6L3421.8 353.195C3411.09 340.884 3398.6 331.195 3384.09 325.519L3374.98 348.8ZM3402.93 369.6L3384.43 386.417C3388.93 391.36 3393.61 400.33 3396.57 415.878L3421.13 411.2L3445.69 406.522C3441.72 385.67 3434.27 366.907 3421.43 352.783L3402.93 369.6ZM3421.13 411.2L3396.9 417.371L3432 555.171L3456.23 549L3480.46 542.829L3445.36 405.029L3421.13 411.2ZM3456.23 549V524H3308.68V549V574H3456.23V549ZM3308.68 549L3333.1 543.64L3303.85 410.39L3279.43 415.75L3255.01 421.11L3284.26 554.36L3308.68 549ZM3279.43 415.75L3303.91 410.685C3301.02 396.716 3295.25 380.143 3281.31 370.495L3267.08 391.05L3252.85 411.605C3251.23 410.482 3251.23 409.732 3252.03 411.33C3252.83 412.916 3253.93 415.888 3254.95 420.815L3279.43 415.75ZM3267.08 391.05L3282.08 371.05C3270.16 362.109 3254.57 360.2 3241.08 360.2V385.2V410.2C3245.92 410.2 3249.18 410.6 3251.19 411.053C3253.27 411.52 3253.14 411.845 3252.08 411.05L3267.08 391.05ZM3241.08 385.2L3241.41 360.202C3208.86 359.768 3182.08 359.55 3161.13 359.55V384.55V409.55C3181.78 409.55 3208.3 409.765 3240.75 410.198L3241.08 385.2ZM3161.13 384.55V359.55C3140.92 359.55 3123.85 359.335 3109.89 358.911L3109.13 383.9L3108.37 408.888C3123.01 409.332 3140.61 409.55 3161.13 409.55V384.55ZM3109.13 383.9L3109.89 358.911C3095.84 358.486 3081.79 357.847 3067.74 356.996L3066.23 381.95L3064.72 406.904C3079.27 407.786 3093.82 408.447 3108.37 408.888L3109.13 383.9ZM3066.23 381.95L3091.23 382.457L3093.18 286.257L3068.18 285.75L3043.19 285.243L3041.24 381.443L3066.23 381.95ZM3068.18 285.75V310.75H3246.28V285.75V260.75H3068.18V285.75ZM3246.28 285.75V310.75C3260.81 310.75 3274.51 309.41 3285.8 305.425L3277.48 281.85L3269.16 258.275C3265.72 259.49 3258.61 260.75 3246.28 260.75V285.75ZM3277.48 281.85L3285.8 305.425C3299.08 300.739 3310.04 291.49 3315.64 277.485L3292.43 268.2L3269.22 258.915C3269.22 258.916 3269.22 258.906 3269.23 258.888C3269.24 258.87 3269.25 258.845 3269.27 258.812C3269.3 258.746 3269.35 258.661 3269.42 258.563C3269.56 258.356 3269.73 258.169 3269.89 258.025C3270.04 257.885 3270.11 257.853 3270.03 257.899C3269.95 257.948 3269.68 258.092 3269.16 258.275L3277.48 281.85ZM3292.43 268.2L3315.33 278.22C3320.33 266.792 3321.98 253.343 3321.98 239.6H3296.98H3271.98C3271.98 250.124 3270.59 255.742 3269.53 258.179L3292.43 268.2ZM3296.98 239.6H3321.98C3321.98 225.728 3320.42 211.855 3315.09 200.428L3292.43 211L3269.78 221.572C3270.51 223.145 3271.98 228.339 3271.98 239.6H3296.98ZM3292.43 211L3315.64 201.715C3310.04 187.71 3299.08 178.461 3285.8 173.775L3277.48 197.35L3269.16 220.925C3269.68 221.108 3269.95 221.252 3270.03 221.301C3270.11 221.347 3270.04 221.314 3269.89 221.175C3269.73 221.031 3269.56 220.844 3269.42 220.637C3269.35 220.539 3269.3 220.454 3269.27 220.388C3269.25 220.355 3269.24 220.33 3269.23 220.312C3269.22 220.294 3269.22 220.284 3269.22 220.285L3292.43 211ZM3277.48 197.35L3285.8 173.775C3274.51 169.79 3260.81 168.45 3246.28 168.45V193.45V218.45C3258.61 218.45 3265.72 219.71 3269.16 220.925L3277.48 197.35ZM3246.28 193.45V168.45C3201.14 168.45 3163.1 168.667 3132.18 169.102L3132.53 194.1L3132.88 219.097C3163.49 218.666 3201.28 218.45 3246.28 218.45V193.45ZM3132.53 194.1L3132.18 169.102C3101.53 169.534 3079.31 170.4 3066.61 171.865L3069.48 196.7L3072.35 221.535C3082.18 220.4 3102 219.532 3132.88 219.097L3132.53 194.1ZM3069.48 196.7L3094.34 194.013L3083.94 97.8129L3059.08 100.5L3034.23 103.187L3044.63 199.387L3069.48 196.7ZM3059.08 100.5L3061.78 125.354C3081.3 123.232 3099.45 121.758 3116.23 120.919L3114.98 95.9499L3113.73 70.9811C3095.85 71.8754 3076.72 73.435 3056.38 75.6463L3059.08 100.5ZM3114.98 95.9499L3116.2 120.92C3133.5 120.076 3152.37 119.65 3172.83 119.65V94.6499V69.6499C3151.69 69.6499 3132 70.0902 3113.76 70.9796L3114.98 95.9499ZM3172.83 94.6499L3173.34 119.645C3194.35 119.216 3219.74 119 3249.53 119V93.9999V68.9999C3219.52 68.9999 3193.78 69.2172 3172.32 69.6551L3172.83 94.6499ZM3197.53 100.5H3172.53V549H3197.53H3222.53V100.5H3197.53ZM3197.53 549V524H3059.08V549V574H3197.53V549ZM3059.08 549H3084.08V100.5H3059.08H3034.08V549H3059.08ZM3059.08 100.5V125.5H3197.53V100.5V75.4999H3059.08V100.5ZM3734.36 100.5H3709.36V549H3734.36H3759.36V100.5H3734.36ZM3734.36 549V524H3593.31V549V574H3734.36V549ZM3593.31 549H3618.31V100.5H3593.31H3568.31V549H3593.31ZM3593.31 100.5V125.5H3734.36V100.5V75.4999H3593.31V100.5ZM3859.81 100.5H3834.81V205.8H3859.81H3884.81V100.5H3859.81ZM3859.81 205.8V180.8H3467.86V205.8V230.8H3859.81V205.8ZM3467.86 205.8H3492.86V100.5H3467.86H3442.86V205.8H3467.86ZM3467.86 100.5V125.5H3859.81V100.5V75.4999H3467.86V100.5ZM4114.89 100.5V125.5C4120.98 125.5 4125.64 127.132 4129.79 130.25L4144.79 110.25L4159.79 90.2499C4146.62 80.368 4131.34 75.4999 4114.89 75.4999V100.5ZM4144.79 110.25L4129.79 130.25C4133.64 133.132 4136.5 137.084 4138.2 143.399L4162.34 136.9L4186.48 130.401C4182.12 114.182 4173.28 100.368 4159.79 90.2499L4144.79 110.25ZM4162.34 136.9L4138.28 143.693L4254.63 555.793L4278.69 549L4302.75 542.207L4186.4 130.107L4162.34 136.9ZM4278.69 549V524H4135.04V549V574H4278.69V549ZM4135.04 549L4159.4 543.359L4091.8 251.509L4067.44 257.15L4043.09 262.791L4110.69 554.641L4135.04 549ZM4067.44 257.15L4091.91 252C4090.28 244.263 4088.85 236.295 4087.62 228.091L4062.89 231.8L4038.17 235.508C4039.54 244.638 4041.14 253.57 4042.98 262.3L4067.44 257.15ZM4062.89 231.8L4087.64 228.264C4086.38 219.437 4085.34 211.078 4084.51 203.183L4059.64 205.8L4034.78 208.417C4035.68 216.988 4036.81 225.963 4038.15 235.335L4062.89 231.8ZM4059.64 205.8V180.8H4042.09V205.8V230.8H4059.64V205.8ZM4042.09 205.8L4017.23 203.183C4016.4 211.078 4015.36 219.437 4014.1 228.264L4038.84 231.8L4063.59 235.335C4064.93 225.963 4066.05 216.988 4066.96 208.417L4042.09 205.8ZM4038.84 231.8L4014.12 228.091C4012.89 236.295 4011.46 244.263 4009.83 252L4034.29 257.15L4058.76 262.3C4060.6 253.57 4062.2 244.638 4063.57 235.508L4038.84 231.8ZM4034.29 257.15L4009.94 251.509L3942.34 543.359L3966.69 549L3991.05 554.641L4058.65 262.791L4034.29 257.15ZM3966.69 549V524H3823.04V549V574H3966.69V549ZM3823.04 549L3847.1 555.793L3963.45 143.693L3939.39 136.9L3915.33 130.107L3798.98 542.207L3823.04 549ZM3939.39 136.9L3963.53 143.399C3965.23 137.084 3968.1 133.132 3971.94 130.25L3956.94 110.25L3941.94 90.2499C3928.45 100.368 3919.62 114.182 3915.25 130.401L3939.39 136.9ZM3956.94 110.25L3971.94 130.25C3976.1 127.132 3980.75 125.5 3986.84 125.5V100.5V75.4999C3970.4 75.4999 3955.12 80.368 3941.94 90.25L3956.94 110.25ZM3986.84 100.5V125.5H4114.89V100.5V75.4999H3986.84V100.5ZM4170.14 353.35H4145.14V452.15H4170.14H4195.14V353.35H4170.14ZM4170.14 452.15V427.15H3931.59V452.15V477.15H4170.14V452.15ZM3931.59 452.15H3956.59V353.35H3931.59H3906.59V452.15H3931.59ZM3931.59 353.35V378.35H4170.14V353.35V328.35H3931.59V353.35ZM4446.79 100.5H4421.79V549H4446.79H4471.79V100.5H4446.79ZM4446.79 549V524H4307.04V549V574H4446.79V549ZM4307.04 549H4332.04V100.5H4307.04H4282.04V549H4307.04ZM4307.04 100.5V125.5H4446.79V100.5V75.4999H4307.04V100.5ZM4927.98 100.5H4902.98V500.25H4927.98H4952.98V100.5H4927.98ZM4927.98 500.25H4902.98C4902.98 512.646 4899.9 517.352 4898.12 519.135C4896.33 520.918 4891.63 524 4879.23 524V549V574C4899.34 574 4919.01 568.957 4933.47 554.49C4947.94 540.023 4952.98 520.354 4952.98 500.25H4927.98ZM4879.23 549V524H4825.28V549V574H4879.23V549ZM4825.28 549V524C4814.04 524 4810.26 521.325 4809.27 520.395L4792.13 538.6L4775 556.805C4788.74 569.741 4807.06 574 4825.28 574V549ZM4792.13 538.6L4809.81 520.922C4805.22 516.328 4799.39 508.412 4792.6 496.029L4770.68 508.05L4748.76 520.071C4756.7 534.554 4765.18 547.005 4774.46 556.278L4792.13 538.6ZM4770.68 508.05L4791.81 494.68L4694.31 340.63L4673.18 354L4652.06 367.37L4749.56 521.42L4770.68 508.05ZM4673.18 354L4695.19 342.147C4689.62 331.787 4684.38 320.518 4679.49 308.315L4656.28 317.6L4633.07 326.885C4638.59 340.682 4644.62 353.68 4651.17 365.852L4673.18 354ZM4656.28 317.6L4679.84 309.24C4675.24 296.257 4671.05 283.287 4667.29 270.33L4643.28 277.3L4619.27 284.27C4623.31 298.18 4627.8 312.077 4632.72 325.96L4656.28 317.6ZM4643.28 277.3V252.3H4638.73V277.3V302.3H4643.28V277.3ZM4638.73 277.3L4614.05 281.281C4616.08 293.854 4617.51 306.896 4618.33 320.412L4643.28 318.9L4668.24 317.388C4667.32 302.304 4665.72 287.612 4663.41 273.319L4638.73 277.3ZM4643.28 318.9L4618.39 321.233C4619.62 334.379 4620.23 347.032 4620.23 359.2H4645.23H4670.23C4670.23 345.368 4669.54 331.154 4668.17 316.566L4643.28 318.9ZM4645.23 359.2H4620.23V549H4645.23H4670.23V359.2H4645.23ZM4645.23 549V524H4515.23V549V574H4645.23V549ZM4515.23 549H4540.23V149.25H4515.23H4490.23V549H4515.23ZM4515.23 149.25H4540.23C4540.23 136.854 4543.32 132.148 4545.1 130.365C4546.88 128.582 4551.59 125.5 4563.98 125.5V100.5V75.4999C4543.88 75.4999 4524.21 80.5427 4509.74 95.0097C4495.28 109.477 4490.23 129.146 4490.23 149.25H4515.23ZM4563.98 100.5V125.5H4617.93V100.5V75.4999H4563.98V100.5ZM4617.93 100.5V125.5C4629.33 125.5 4632.41 128.236 4632.75 128.578L4650.43 110.9L4668.11 93.2223C4654.59 79.6975 4636.01 75.4999 4617.93 75.4999V100.5ZM4650.43 110.9L4632.75 128.578C4637.54 133.359 4643.65 141.488 4650.91 154.003L4672.53 141.45L4694.15 128.897C4685.82 114.545 4677.2 102.307 4668.11 93.2222L4650.43 110.9ZM4672.53 141.45L4651.45 154.884L4745.05 301.784L4766.13 288.35L4787.22 274.916L4693.62 128.016L4672.53 141.45ZM4766.13 288.35L4744.32 300.565C4749.92 310.565 4755.4 321.711 4760.74 334.04L4783.68 324.1L4806.62 314.16C4800.7 300.489 4794.48 287.801 4787.95 276.135L4766.13 288.35ZM4783.68 324.1L4761.03 334.672C4766.77 346.97 4772.12 359.941 4777.09 373.594L4800.58 365.05L4824.08 356.506C4818.64 341.559 4812.73 327.23 4806.34 313.528L4783.68 324.1ZM4800.58 365.05V390.05H4805.13V365.05V340.05H4800.58V365.05ZM4805.13 365.05L4829.94 361.949C4828.23 348.305 4826.74 334.886 4825.47 321.692L4800.58 324.1L4775.7 326.508C4777.02 340.18 4778.56 354.061 4780.33 368.151L4805.13 365.05ZM4800.58 324.1L4825.53 322.49C4824.7 309.591 4824.28 296.695 4824.28 283.8H4799.28H4774.28C4774.28 297.772 4774.73 311.742 4775.63 325.709L4800.58 324.1ZM4799.28 283.8L4824.28 283.711L4823.63 100.411L4798.63 100.5L4773.63 100.589L4774.28 283.889L4799.28 283.8ZM4798.63 100.5V125.5H4927.98V100.5V75.4999H4798.63V100.5ZM5489.12 100.5V125.5C5500.83 125.5 5505.58 128.457 5507.63 130.482C5509.8 132.62 5513.04 137.755 5513.54 150.249L5538.52 149.25L5563.5 148.251C5562.7 128.245 5557.05 109.005 5542.75 94.8931C5528.34 80.6675 5509.04 75.4999 5489.12 75.4999V100.5ZM5538.52 149.25L5513.53 150.225L5529.13 549.975L5554.12 549L5579.1 548.025L5563.5 148.275L5538.52 149.25ZM5554.12 549V524H5427.37V549V574H5554.12V549ZM5427.37 549L5452.35 548.006L5438.7 204.806L5413.72 205.8L5388.74 206.793L5402.39 549.993L5427.37 549ZM5413.72 205.8V180.8H5403.97V205.8V230.8H5413.72V205.8ZM5403.97 205.8L5379.42 201.058L5335.22 429.858L5359.77 434.6L5384.31 439.342L5428.51 210.542L5403.97 205.8ZM5359.77 434.6L5335.05 430.855C5333.56 440.688 5330.31 445.047 5327.52 447.3C5324.46 449.756 5318.45 452.5 5306.47 452.5V477.5V502.5C5325.68 502.5 5344.15 498.093 5358.87 486.25C5373.83 474.203 5381.64 457.112 5384.48 438.345L5359.77 434.6ZM5306.47 477.5V452.5H5233.67V477.5V502.5H5306.47V477.5ZM5233.67 477.5V452.5C5222.02 452.5 5215.94 449.81 5212.66 447.207C5209.57 444.746 5206.13 440.098 5204.31 430.128L5179.72 434.6L5155.12 439.072C5158.51 457.702 5166.66 474.504 5181.54 486.342C5196.25 498.04 5214.54 502.5 5233.67 502.5V477.5ZM5179.72 434.6L5204.25 429.791L5159.4 200.991L5134.87 205.8L5110.33 210.609L5155.18 439.409L5179.72 434.6ZM5134.87 205.8V180.8H5125.12V205.8V230.8H5134.87V205.8ZM5125.12 205.8L5100.13 204.995L5089.08 548.195L5114.07 549L5139.05 549.804L5150.1 206.604L5125.12 205.8ZM5114.07 549V524H4987.32V549V574H5114.07V549ZM4987.32 549L5012.3 549.975L5027.9 150.225L5002.92 149.25L4977.93 148.275L4962.33 548.025L4987.32 549ZM5002.92 149.25L5027.9 150.249C5028.4 137.755 5031.63 132.62 5033.8 130.482C5035.85 128.457 5040.6 125.5 5052.32 125.5V100.5V75.4999C5032.39 75.4999 5013.1 80.6675 4998.68 94.8931C4984.38 109.005 4978.74 128.245 4977.94 148.251L5002.92 149.25ZM5052.32 100.5V125.5H5173.87V100.5V75.4999H5052.32V100.5ZM5173.87 100.5V125.5C5185.14 125.5 5190.96 128.166 5194.12 130.747C5197.19 133.257 5200.7 138.098 5202.56 148.457L5227.17 144.05L5251.77 139.642C5248.43 120.968 5240.45 104.035 5225.76 92.028C5211.15 80.0922 5192.93 75.4999 5173.87 75.4999V100.5ZM5227.17 144.05L5202.57 148.538L5235.07 326.638L5259.67 322.15L5284.26 317.662L5251.76 139.562L5227.17 144.05ZM5259.67 322.15L5234.98 326.1C5236.6 336.239 5237.82 346.611 5238.64 357.217L5263.57 355.3L5288.49 353.383C5287.57 341.456 5286.2 329.727 5284.35 318.2L5259.67 322.15ZM5263.57 355.3L5238.73 358.166C5239.99 369.118 5241.05 380.068 5241.89 391.017L5266.82 389.1L5291.74 387.183C5290.85 375.598 5289.74 364.015 5288.4 352.434L5263.57 355.3ZM5266.82 389.1V414.1H5272.67V389.1V364.1H5266.82V389.1ZM5272.67 389.1L5297.5 391.966C5298.84 380.385 5299.95 368.802 5300.84 357.217L5275.92 355.3L5250.99 353.383C5250.15 364.331 5249.09 375.282 5247.83 386.234L5272.67 389.1ZM5275.92 355.3L5300.75 358.166C5302.01 347.25 5303.48 336.561 5305.15 326.1L5280.47 322.15L5255.78 318.2C5253.99 329.405 5252.42 340.817 5251.08 352.434L5275.92 355.3ZM5280.47 322.15L5305.11 326.376L5335.66 148.276L5311.02 144.05L5286.38 139.823L5255.83 317.923L5280.47 322.15ZM5311.02 144.05L5335.62 148.457C5337.46 138.184 5340.97 133.369 5344.11 130.84C5347.37 128.205 5353.4 125.5 5364.97 125.5V100.5V75.4999C5345.77 75.4999 5327.42 80.0527 5312.7 91.9344C5297.85 103.922 5289.77 120.883 5286.41 139.642L5311.02 144.05ZM5364.97 100.5V125.5H5489.12V100.5V75.4999H5364.97V100.5ZM5716.06 97.8999V122.9C5741.92 122.9 5768.44 123.115 5795.62 123.547L5796.01 98.5499L5796.41 73.5531C5768.98 73.1178 5742.2 72.8999 5716.06 72.8999V97.8999ZM5796.01 98.5499V123.55C5823.36 123.55 5850.03 124.191 5876.03 125.47L5877.26 100.5L5878.49 75.5301C5851.63 74.2091 5824.14 73.5499 5796.01 73.5499V98.5499ZM5877.26 100.5L5876.44 125.486C5902.17 126.33 5925.32 128.22 5945.95 131.108L5949.41 106.35L5952.88 81.5914C5930.18 78.413 5905.22 76.4033 5878.08 75.5133L5877.26 100.5ZM5949.41 106.35L5924.47 104.719L5917.97 204.169L5942.91 205.8L5967.86 207.43L5974.36 107.98L5949.41 106.35ZM5942.91 205.8V180.8H5778.46V205.8V230.8H5942.91V205.8ZM5778.46 205.8V180.8C5765.8 180.8 5752.68 184.221 5742.15 193.801L5758.96 212.3L5775.78 230.798C5775.43 231.119 5775.16 231.196 5775.32 231.142C5775.56 231.06 5776.51 230.8 5778.46 230.8V205.8ZM5758.96 212.3L5742.15 193.801C5731.74 203.264 5726.81 215.826 5726.81 229.2H5751.81H5776.81C5776.81 228.634 5776.9 228.865 5776.62 229.516C5776.5 229.818 5776.33 230.111 5776.15 230.366C5775.97 230.618 5775.82 230.759 5775.78 230.798L5758.96 212.3ZM5751.81 229.2H5726.81V420.3H5751.81H5776.81V229.2H5751.81ZM5751.81 420.3H5726.81C5726.81 433.673 5731.74 446.236 5742.15 455.698L5758.96 437.2L5775.78 418.701C5775.82 418.741 5775.97 418.882 5776.15 419.134C5776.33 419.389 5776.5 419.682 5776.62 419.984C5776.9 420.635 5776.81 420.865 5776.81 420.3H5751.81ZM5758.96 437.2L5742.15 455.698C5752.68 465.279 5765.8 468.7 5778.46 468.7V443.7V418.7C5776.51 418.7 5775.56 418.44 5775.32 418.358C5775.16 418.304 5775.43 418.381 5775.78 418.701L5758.96 437.2ZM5778.46 443.7V468.7H5942.91V443.7V418.7H5778.46V443.7ZM5942.91 443.7L5917.97 445.33L5924.47 544.78L5949.41 543.15L5974.36 541.519L5967.86 442.069L5942.91 443.7ZM5949.41 543.15L5946.43 518.328C5925.45 520.845 5902 522.753 5876.03 524.03L5877.26 549L5878.49 573.97C5905.39 572.647 5930.04 570.654 5952.39 567.972L5949.41 543.15ZM5877.26 549L5876.03 524.03C5850.03 525.309 5823.36 525.95 5796.01 525.95V550.95V575.95C5824.14 575.95 5851.63 575.291 5878.49 573.97L5877.26 549ZM5796.01 550.95L5795.62 525.953C5768.44 526.384 5741.92 526.6 5716.06 526.6V551.6V576.6C5742.2 576.6 5768.98 576.382 5796.41 575.947L5796.01 550.95ZM5716.06 551.6V526.6C5690.76 526.6 5671.79 519.13 5657.08 505.387L5640.01 523.65L5622.94 541.913C5648.1 565.437 5679.83 576.6 5716.06 576.6V551.6ZM5640.01 523.65L5657.49 505.775C5643.36 491.962 5635.76 473.985 5635.76 449.55H5610.76H5585.76C5585.76 485.781 5597.66 517.205 5622.53 541.525L5640.01 523.65ZM5610.76 449.55H5635.76V199.95H5610.76H5585.76V449.55H5610.76ZM5610.76 199.95H5635.76C5635.76 175.508 5643.36 157.882 5657.28 144.575L5640.01 126.5L5622.74 108.425C5597.67 132.385 5585.76 163.725 5585.76 199.95H5610.76ZM5640.01 126.5L5657.29 144.566C5672.02 130.478 5690.93 122.9 5716.06 122.9V97.8999V72.8999C5679.66 72.8999 5647.87 84.3886 5622.73 108.434L5640.01 126.5ZM5622.46 272.75V297.75H5919.51V272.75V247.75H5622.46V272.75ZM5919.51 272.75H5894.51V366.35H5919.51H5944.51V272.75H5919.51ZM5919.51 366.35V341.35H5622.46V366.35V391.35H5919.51V366.35ZM5622.46 366.35H5647.46V272.75H5622.46H5597.46V366.35H5622.46ZM6413.97 100.5H6388.97V500.25H6413.97H6438.97V100.5H6413.97ZM6413.97 500.25H6388.97C6388.97 512.646 6385.89 517.352 6384.1 519.135C6382.32 520.918 6377.62 524 6365.22 524V549V574C6385.32 574 6404.99 568.957 6419.46 554.49C6433.93 540.023 6438.97 520.354 6438.97 500.25H6413.97ZM6365.22 549V524H6311.27V549V574H6365.22V549ZM6311.27 549V524C6300.02 524 6296.24 521.325 6295.25 520.395L6278.12 538.6L6260.99 556.805C6274.73 569.741 6293.05 574 6311.27 574V549ZM6278.12 538.6L6295.8 520.922C6291.2 516.328 6285.38 508.412 6278.59 496.029L6256.67 508.05L6234.75 520.071C6242.69 534.554 6251.17 547.005 6260.44 556.278L6278.12 538.6ZM6256.67 508.05L6277.79 494.68L6180.29 340.63L6159.17 354L6138.04 367.37L6235.54 521.42L6256.67 508.05ZM6159.17 354L6181.18 342.147C6175.6 331.787 6170.36 320.518 6165.48 308.315L6142.27 317.6L6119.06 326.885C6124.58 340.682 6130.6 353.68 6137.16 365.852L6159.17 354ZM6142.27 317.6L6165.83 309.24C6161.22 296.257 6157.04 283.287 6153.28 270.33L6129.27 277.3L6105.26 284.27C6109.3 298.18 6113.78 312.077 6118.71 325.96L6142.27 317.6ZM6129.27 277.3V252.3H6124.72V277.3V302.3H6129.27V277.3ZM6124.72 277.3L6100.04 281.281C6102.07 293.854 6103.5 306.896 6104.31 320.412L6129.27 318.9L6154.22 317.388C6153.31 302.304 6151.71 287.612 6149.4 273.319L6124.72 277.3ZM6129.27 318.9L6104.38 321.233C6105.61 334.379 6106.22 347.032 6106.22 359.2H6131.22H6156.22C6156.22 345.368 6155.53 331.154 6154.16 316.566L6129.27 318.9ZM6131.22 359.2H6106.22V549H6131.22H6156.22V359.2H6131.22ZM6131.22 549V524H6001.22V549V574H6131.22V549ZM6001.22 549H6026.22V149.25H6001.22H5976.22V549H6001.22ZM6001.22 149.25H6026.22C6026.22 136.854 6029.3 132.148 6031.08 130.365C6032.87 128.582 6037.57 125.5 6049.97 125.5V100.5V75.4999C6029.87 75.4999 6010.2 80.5427 5995.73 95.0097C5981.26 109.477 5976.22 129.146 5976.22 149.25H6001.22ZM6049.97 100.5V125.5H6103.92V100.5V75.4999H6049.97V100.5ZM6103.92 100.5V125.5C6115.31 125.5 6118.4 128.236 6118.74 128.578L6136.42 110.9L6154.1 93.2223C6140.57 79.6975 6121.99 75.4999 6103.92 75.4999V100.5ZM6136.42 110.9L6118.74 128.578C6123.52 133.359 6129.63 141.488 6136.9 154.003L6158.52 141.45L6180.14 128.897C6171.81 114.545 6163.18 102.307 6154.1 93.2222L6136.42 110.9ZM6158.52 141.45L6137.44 154.884L6231.04 301.784L6252.12 288.35L6273.2 274.916L6179.6 128.016L6158.52 141.45ZM6252.12 288.35L6230.31 300.565C6235.91 310.565 6241.39 321.711 6246.73 334.04L6269.67 324.1L6292.61 314.16C6286.68 300.489 6280.47 287.801 6273.93 276.135L6252.12 288.35ZM6269.67 324.1L6247.01 334.672C6252.75 346.97 6258.11 359.941 6263.07 373.594L6286.57 365.05L6310.06 356.506C6304.63 341.559 6298.72 327.23 6292.32 313.528L6269.67 324.1ZM6286.57 365.05V390.05H6291.12V365.05V340.05H6286.57V365.05ZM6291.12 365.05L6315.93 361.949C6314.22 348.305 6312.73 334.886 6311.45 321.692L6286.57 324.1L6261.69 326.508C6263.01 340.18 6264.55 354.061 6266.31 368.151L6291.12 365.05ZM6286.57 324.1L6311.52 322.49C6310.69 309.591 6310.27 296.695 6310.27 283.8H6285.27H6260.27C6260.27 297.772 6260.72 311.742 6261.62 325.709L6286.57 324.1ZM6285.27 283.8L6310.27 283.711L6309.62 100.411L6284.62 100.5L6259.62 100.589L6260.27 283.889L6285.27 283.8ZM6284.62 100.5V125.5H6413.97V100.5V75.4999H6284.62V100.5ZM6720.3 100.5H6695.3V549H6720.3H6745.3V100.5H6720.3ZM6720.3 549V524H6579.25V549V574H6720.3V549ZM6579.25 549H6604.25V100.5H6579.25H6554.25V549H6579.25ZM6579.25 100.5V125.5H6720.3V100.5V75.4999H6579.25V100.5ZM6845.75 100.5H6820.75V205.8H6845.75H6870.75V100.5H6845.75ZM6845.75 205.8V180.8H6453.8V205.8V230.8H6845.75V205.8ZM6453.8 205.8H6478.8V100.5H6453.8H6428.8V205.8H6453.8ZM6453.8 100.5V125.5H6845.75V100.5V75.4999H6453.8V100.5ZM256.203 100.5H231.203V549H256.203H281.203V100.5H256.203ZM256.203 549V524H116.453V549V574H256.203V549ZM116.453 549H141.453V100.5H116.453H91.4531V549H116.453ZM116.453 100.5V125.5H256.203V100.5V75.4999H116.453V100.5ZM520.291 91.3999V116.4C557.43 116.4 587.515 119.965 611.08 126.532L617.791 102.45L624.502 78.3676C595.2 70.2014 560.286 66.3999 520.291 66.3999V91.3999ZM617.791 102.45L611.544 126.657C634.617 132.611 651.916 142.647 664.666 156.069L682.791 138.85L700.916 121.631C680.733 100.386 654.699 86.1554 624.038 78.243L617.791 102.45ZM682.791 138.85L664.666 156.069C677.338 169.408 687.605 188.9 694.247 216.25L718.541 210.35L742.835 204.45C734.744 171.133 721.177 142.959 700.916 121.631L682.791 138.85ZM718.541 210.35L694.267 216.33C700.975 243.556 704.591 279.494 704.591 324.75H729.591H754.591C754.591 277.273 750.841 236.944 742.815 204.369L718.541 210.35ZM729.591 324.75H704.591C704.591 369.535 700.981 405.522 694.247 433.25L718.541 439.15L742.835 445.05C750.834 412.111 754.591 371.831 754.591 324.75H729.591ZM718.541 439.15L694.247 433.25C687.605 460.6 677.338 480.092 664.666 493.431L682.791 510.65L700.916 527.869C721.177 506.541 734.744 478.367 742.835 445.05L718.541 439.15ZM682.791 510.65L664.666 493.431C651.825 506.948 634.389 517.226 611.18 523.59L617.791 547.7L624.402 571.81C654.927 563.44 680.824 549.018 700.916 527.869L682.791 510.65ZM617.791 547.7L611.448 523.518C587.739 529.737 557.519 533.1 520.291 533.1V558.1V583.1C560.196 583.1 594.976 579.53 624.134 571.882L617.791 547.7ZM520.291 558.1V533.1C483.54 533.1 453.264 529.745 429.038 523.493L422.791 547.7L416.544 571.907C446.051 579.522 480.776 583.1 520.291 583.1V558.1ZM422.791 547.7L429.502 523.618C406.769 517.282 389.482 507.027 376.566 493.431L358.441 510.65L340.316 527.869C360.334 548.94 385.946 563.384 416.08 571.782L422.791 547.7ZM358.441 510.65L376.566 493.431C363.894 480.092 353.627 460.6 346.985 433.25L322.691 439.15L298.397 445.05C306.488 478.367 320.055 506.541 340.316 527.869L358.441 510.65ZM322.691 439.15L346.985 433.25C340.251 405.522 336.641 369.535 336.641 324.75H311.641H286.641C286.641 371.832 290.398 412.111 298.397 445.05L322.691 439.15ZM311.641 324.75H336.641C336.641 279.494 340.257 243.556 346.965 216.331L322.691 210.35L298.417 204.369C290.391 236.944 286.641 277.273 286.641 324.75H311.641ZM322.691 210.35L346.985 216.25C353.627 188.9 363.894 169.408 376.566 156.069L358.441 138.85L340.316 121.631C320.055 142.959 306.488 171.133 298.397 204.45L322.691 210.35ZM358.441 138.85L376.566 156.069C389.391 142.568 406.541 132.558 429.134 126.632L422.791 102.45L416.448 78.2679C386.174 86.2087 360.424 100.465 340.316 121.631L358.441 138.85ZM422.791 102.45L429.402 126.56C453.488 119.956 483.631 116.4 520.291 116.4V91.3999V66.3999C480.684 66.3999 445.828 70.2107 416.18 78.3398L422.791 102.45ZM520.291 196.05V171.05C501.034 171.05 482.32 175.171 467.624 186.928L483.241 206.45L498.858 225.972C501.496 223.862 507.481 221.05 520.291 221.05V196.05ZM483.241 206.45L467.624 186.928C451.937 199.477 444.315 219.521 440.463 240.227L465.041 244.8L489.619 249.373C492.7 232.812 497.212 227.289 498.858 225.972L483.241 206.45ZM465.041 244.8L440.463 240.227C436.574 261.128 434.841 289.586 434.841 324.75H459.841H484.841C484.841 290.58 486.574 265.739 489.619 249.373L465.041 244.8ZM459.841 324.75H434.841C434.841 359.914 436.574 388.372 440.463 409.273L465.041 404.7L489.619 400.127C486.574 383.761 484.841 358.92 484.841 324.75H459.841ZM465.041 404.7L440.463 409.273C444.315 429.979 451.937 450.022 467.624 462.572L483.241 443.05L498.858 423.528C497.212 422.211 492.7 416.688 489.619 400.127L465.041 404.7ZM483.241 443.05L467.624 462.572C482.32 474.329 501.034 478.45 520.291 478.45V453.45V428.45C507.481 428.45 501.496 425.638 498.858 423.528L483.241 443.05ZM520.291 453.45V478.45C539.548 478.45 558.262 474.329 572.958 462.572L557.341 443.05L541.724 423.528C539.086 425.638 533.101 428.45 520.291 428.45V453.45ZM557.341 443.05L572.958 462.572C588.645 450.022 596.267 429.979 600.119 409.273L575.541 404.7L550.963 400.127C547.882 416.688 543.37 422.211 541.724 423.528L557.341 443.05ZM575.541 404.7L600.119 409.273C604.008 388.372 605.741 359.914 605.741 324.75H580.741H555.741C555.741 358.92 554.008 383.761 550.963 400.127L575.541 404.7ZM580.741 324.75H605.741C605.741 289.586 604.008 261.128 600.119 240.227L575.541 244.8L550.963 249.373C554.008 265.739 555.741 290.58 555.741 324.75H580.741ZM575.541 244.8L600.119 240.227C596.267 219.521 588.645 199.477 572.958 186.928L557.341 206.45L541.724 225.972C543.37 227.289 547.882 232.812 550.963 249.373L575.541 244.8ZM557.341 206.45L572.958 186.928C558.262 175.171 539.548 171.05 520.291 171.05V196.05V221.05C533.101 221.05 539.086 223.862 541.724 225.972L557.341 206.45ZM1196.96 100.5H1171.96V500.25H1196.96H1221.96V100.5H1196.96ZM1196.96 500.25H1171.96C1171.96 512.646 1168.88 517.352 1167.1 519.135C1165.31 520.918 1160.61 524 1148.21 524V549V574C1168.31 574 1187.98 568.957 1202.45 554.49C1216.92 540.023 1221.96 520.354 1221.96 500.25H1196.96ZM1148.21 549V524H1094.26V549V574H1148.21V549ZM1094.26 549V524C1083.02 524 1079.23 521.325 1078.25 520.395L1061.11 538.6L1043.98 556.805C1057.72 569.741 1076.04 574 1094.26 574V549ZM1061.11 538.6L1078.79 520.922C1074.2 516.328 1068.37 508.412 1061.58 496.029L1039.66 508.05L1017.74 520.071C1025.68 534.554 1034.16 547.005 1043.43 556.278L1061.11 538.6ZM1039.66 508.05L1060.79 494.68L963.286 340.63L942.161 354L921.037 367.37L1018.54 521.42L1039.66 508.05ZM942.161 354L964.173 342.147C958.594 331.787 953.354 320.518 948.473 308.315L925.261 317.6L902.049 326.885C907.568 340.682 913.595 353.68 920.15 365.852L942.161 354ZM925.261 317.6L948.822 309.24C944.215 296.257 940.032 283.287 936.27 270.33L912.261 277.3L888.253 284.27C892.291 298.18 896.774 312.077 901.701 325.96L925.261 317.6ZM912.261 277.3V252.3H907.711V277.3V302.3H912.261V277.3ZM907.711 277.3L883.03 281.281C885.058 293.855 886.488 306.896 887.307 320.412L912.261 318.9L937.216 317.388C936.301 302.304 934.698 287.612 932.392 273.319L907.711 277.3ZM912.261 318.9L887.37 321.233C888.603 334.379 889.211 347.032 889.211 359.2H914.211H939.211C939.211 345.368 938.52 331.154 937.152 316.566L912.261 318.9ZM914.211 359.2H889.211V549H914.211H939.211V359.2H914.211ZM914.211 549V524H784.211V549V574H914.211V549ZM784.211 549H809.211V149.25H784.211H759.211V549H784.211ZM784.211 149.25H809.211C809.211 136.854 812.293 132.148 814.076 130.365C815.859 128.582 820.565 125.5 832.961 125.5V100.5V75.4999C812.858 75.4999 793.188 80.5427 778.721 95.0097C764.254 109.477 759.211 129.146 759.211 149.25H784.211ZM832.961 100.5V125.5H886.911V100.5V75.4999H832.961V100.5ZM886.911 100.5V125.5C898.305 125.5 901.392 128.236 901.734 128.578L919.411 110.9L937.089 93.2223C923.564 79.6975 904.984 75.4999 886.911 75.4999V100.5ZM919.411 110.9L901.734 128.578C906.515 133.359 912.625 141.488 919.892 154.003L941.511 141.45L963.131 128.897C954.798 114.545 946.174 102.307 937.089 93.2222L919.411 110.9ZM941.511 141.45L920.427 154.884L1014.03 301.784L1035.11 288.35L1056.2 274.916L962.595 128.016L941.511 141.45ZM1035.11 288.35L1013.3 300.565C1018.9 310.565 1024.38 321.711 1029.72 334.04L1052.66 324.1L1075.6 314.16C1069.68 300.489 1063.46 287.801 1056.92 276.135L1035.11 288.35ZM1052.66 324.1L1030.01 334.672C1035.75 346.97 1041.1 359.94 1046.07 373.594L1069.56 365.05L1093.06 356.506C1087.62 341.559 1081.71 327.23 1075.32 313.528L1052.66 324.1ZM1069.56 365.05V390.05H1074.11V365.05V340.05H1069.56V365.05ZM1074.11 365.05L1098.92 361.949C1097.21 348.305 1095.72 334.886 1094.45 321.692L1069.56 324.1L1044.68 326.508C1046 340.181 1047.54 354.062 1049.3 368.151L1074.11 365.05ZM1069.56 324.1L1094.51 322.49C1093.68 309.592 1093.26 296.695 1093.26 283.8H1068.26H1043.26C1043.26 297.771 1043.71 311.741 1044.61 325.709L1069.56 324.1ZM1068.26 283.8L1093.26 283.711L1092.61 100.411L1067.61 100.5L1042.61 100.589L1043.26 283.889L1068.26 283.8ZM1067.61 100.5V125.5H1196.96V100.5V75.4999H1067.61V100.5Z" fill="#F2F5EA" mask="url(#path-1-outside-1_17_1240)"/>
</svg>
