<svg width="1800" height="1800" viewBox="0 0 1800 1800" fill="none" xmlns="http://www.w3.org/2000/svg">
<g clip-path="url(#clip0_1_70)">
<mask id="path-1-inside-1_1_70" fill="white">
<path d="M1183.32 0C1117.92 46.1446 1050.88 96.7098 983.007 151.082C974.991 157.503 966.971 163.974 958.944 170.49C1009.87 213.417 1060.89 258.114 1111.65 304.293C1251.12 192.806 1384.23 100.238 1503.34 31.2773C1522.48 20.1978 1541.08 9.83058 1559.13 0.164062C1690.16 4.86637 1795.49 110.411 1799.86 241.53C1790.25 259.446 1779.96 277.908 1768.97 296.899C1699.41 417.039 1605.84 551.415 1493.07 692.197C1380.41 832.838 1251.54 976.181 1113.86 1113.86C1061.85 1165.86 1009.04 1216.61 955.871 1265.7C1006.77 1311.24 1057.8 1355.08 1108.56 1396.87C1157.97 1350.86 1206.99 1303.57 1255.28 1255.28C1397.76 1112.8 1531.58 964.016 1649.16 817.237C1703.44 749.482 1753.92 682.563 1800 617.273V1182.97C1748.32 1109.74 1691.25 1034.68 1629.75 958.943C1586.76 1009.96 1542.05 1060.97 1495.95 1111.65C1605.98 1249.3 1699.04 1382.56 1768.97 1503.34C1779.97 1522.36 1790.26 1540.81 1799.85 1558.7C1795.37 1689.85 1689.85 1795.37 1558.7 1799.85C1540.79 1790.25 1522.33 1779.96 1503.34 1768.97C1383.2 1699.41 1248.83 1605.84 1108.05 1493.07C967.406 1380.41 824.063 1251.54 686.386 1113.86L544.965 1255.28C687.443 1397.76 836.229 1531.58 983.007 1649.16C1050.76 1703.44 1117.68 1753.92 1182.97 1800H617.273C682.563 1753.92 749.482 1703.44 817.237 1649.16C825.253 1642.74 833.273 1636.27 841.3 1629.75C790.287 1586.76 739.274 1542.05 688.593 1495.95C549.121 1607.44 416.014 1700.01 296.899 1768.97C277.908 1779.96 259.446 1790.25 241.53 1799.86C110.411 1795.49 4.86539 1690.16 0.164062 1559.12C9.83022 1541.08 20.1972 1522.48 31.2764 1503.34C100.831 1383.2 194.4 1248.83 307.175 1108.05C419.837 967.406 548.708 824.063 686.386 686.386C738.39 634.381 791.204 583.634 844.374 534.541C793.214 488.766 742.178 444.944 691.682 403.376C642.267 449.381 593.254 496.676 544.965 544.965C402.487 687.443 268.66 836.229 151.082 983.007C96.7102 1050.88 46.1446 1117.92 0 1183.31V616.928C46.1446 682.327 96.7098 749.362 151.082 817.237C157.503 825.253 163.974 833.274 170.49 841.3C213.487 790.286 258.19 739.274 304.293 688.593C192.806 549.121 100.238 416.014 31.2773 296.899C20.1947 277.757 9.82512 259.151 0.15625 241.102C4.73902 110.104 110.107 4.73701 241.105 0.15625C259.129 9.81162 277.731 20.1799 296.899 31.2773C540.577 172.354 835.031 407.559 1113.86 686.386C1166.12 738.644 1216.84 791.451 1265.7 844.37C1311.24 793.476 1355.08 742.444 1396.87 691.683C1350.97 642.387 1303.69 593.375 1255.28 544.965C1045.17 334.858 823.733 145.92 616.929 0H1183.32ZM534.543 955.871C489.005 1006.77 445.163 1057.8 403.375 1108.56C449.381 1157.98 496.676 1206.99 544.965 1255.28L686.386 1113.86C634.382 1061.85 583.635 1009.04 534.543 955.871Z"/>
</mask>
<path d="M1183.32 0L1240.97 81.7082L1498.5 -100L1183.32 -100V0ZM983.007 151.082L920.487 73.0355L920.487 73.0355L983.007 151.082ZM958.944 170.49L895.912 92.8568L802.069 169.05L894.498 246.954L958.944 170.49ZM1111.65 304.293L1044.36 378.266L1107.46 435.665L1174.09 382.405L1111.65 304.293ZM1503.34 31.2773L1453.24 -55.2653L1453.24 -55.2653L1503.34 31.2773ZM1559.13 0.164062L1562.71 -99.7716L1535.72 -100.74L1511.91 -87.9849L1559.13 0.164062ZM1799.86 241.53L1887.99 288.774L1900.7 265.076L1899.8 238.203L1799.86 241.53ZM1768.97 296.899L1855.51 347.003L1855.51 347.003L1768.97 296.899ZM1493.07 692.197L1571.12 754.717L1571.12 754.717L1493.07 692.197ZM1113.86 1113.86L1184.57 1184.57L1184.57 1184.57L1113.86 1113.86ZM955.871 1265.7L888.034 1192.23L807.2 1266.86L889.191 1340.22L955.871 1265.7ZM1108.56 1396.87L1045 1474.07L1112.61 1529.73L1176.7 1470.06L1108.56 1396.87ZM1255.28 1255.28L1325.99 1325.99L1325.99 1325.99L1255.28 1255.28ZM1649.16 817.237L1727.21 879.757L1727.21 879.757L1649.16 817.237ZM1800 617.273H1900V302.157L1718.3 559.612L1800 617.273ZM1800 1182.97L1718.3 1240.63L1900 1498.08V1182.97H1800ZM1629.75 958.943L1707.39 895.911L1631.19 802.068L1553.29 894.496L1629.75 958.943ZM1495.95 1111.65L1421.98 1044.36L1364.58 1107.46L1417.84 1174.09L1495.95 1111.65ZM1768.97 1503.34L1855.51 1453.24L1855.51 1453.24L1768.97 1503.34ZM1799.85 1558.7L1899.79 1562.11L1900.71 1535.19L1887.98 1511.45L1799.85 1558.7ZM1558.7 1799.85L1511.45 1887.99L1535.19 1900.71L1562.11 1899.79L1558.7 1799.85ZM1503.34 1768.97L1453.24 1855.51L1453.24 1855.51L1503.34 1768.97ZM1108.05 1493.07L1045.53 1571.12L1045.53 1571.12L1108.05 1493.07ZM544.965 1255.28L474.254 1184.57L403.544 1255.28L474.254 1325.99L544.965 1255.28ZM983.007 1649.16L920.487 1727.21L920.487 1727.21L983.007 1649.16ZM1182.97 1800V1900H1498.08L1240.63 1718.3L1182.97 1800ZM617.273 1800L559.612 1718.3L302.157 1900H617.273V1800ZM817.237 1649.16L879.757 1727.21L879.757 1727.21L817.237 1649.16ZM841.3 1629.75L904.332 1707.39L998.175 1631.19L905.747 1553.29L841.3 1629.75ZM688.593 1495.95L755.883 1421.98L692.784 1364.58L626.154 1417.84L688.593 1495.95ZM296.899 1768.97L347.003 1855.51L347.003 1855.51L296.899 1768.97ZM241.53 1799.86L238.203 1899.8L265.076 1900.7L288.774 1887.99L241.53 1799.86ZM0.164062 1559.12L-87.985 1511.9L-100.74 1535.72L-99.7716 1562.71L0.164062 1559.12ZM31.2764 1503.34L-55.2663 1453.24L-55.2663 1453.24L31.2764 1503.34ZM307.175 1108.05L229.128 1045.53L229.128 1045.53L307.175 1108.05ZM686.386 686.386L615.675 615.675L615.675 615.675L686.386 686.386ZM844.374 534.541L912.211 608.013L993.045 533.378L911.053 460.017L844.374 534.541ZM691.682 403.376L755.237 326.17L687.63 270.517L623.54 330.186L691.682 403.376ZM544.965 544.965L474.254 474.254L474.254 474.254L544.965 544.965ZM151.082 983.007L73.0355 920.487L73.0355 920.487L151.082 983.007ZM0 1183.31H-100V1498.49L81.7081 1240.97L0 1183.31ZM0 616.928L81.7082 559.276L-100 301.747V616.928H0ZM151.082 817.237L73.0355 879.757L73.0355 879.757L151.082 817.237ZM170.49 841.3L92.8568 904.332L169.05 998.175L246.953 905.747L170.49 841.3ZM304.293 688.593L378.266 755.883L435.665 692.784L382.404 626.154L304.293 688.593ZM31.2773 296.899L-55.2653 347.003L-55.2653 347.003L31.2773 296.899ZM0.15625 241.102L-99.7826 237.605L-100.725 264.553L-87.9932 288.321L0.15625 241.102ZM241.105 0.15625L288.327 -87.9919L264.559 -100.725L237.611 -99.7827L241.105 0.15625ZM296.899 31.2773L347.003 -55.2653L347.003 -55.2653L296.899 31.2773ZM1113.86 686.386L1184.57 615.675L1184.57 615.675L1113.86 686.386ZM1265.7 844.37L1192.23 912.208L1266.87 993.04L1340.23 911.05L1265.7 844.37ZM1396.87 691.683L1474.07 755.238L1529.73 687.631L1470.06 623.541L1396.87 691.683ZM1255.28 544.965L1325.99 474.254L1325.99 474.254L1255.28 544.965ZM616.929 0V-100H301.751L559.276 81.7079L616.929 0ZM534.543 955.871L608.015 888.034L533.38 807.2L460.019 889.191L534.543 955.871ZM403.375 1108.56L326.169 1045.01L270.516 1112.61L330.185 1176.7L403.375 1108.56ZM544.965 1255.28L474.254 1325.99L544.965 1396.7L615.676 1325.99L544.965 1255.28ZM1183.32 0L1125.66 -81.7082C1058.47 -34.2952 989.81 17.5039 920.487 73.0355L983.007 151.082L1045.53 229.129C1111.95 175.916 1177.37 126.584 1240.97 81.7082L1183.32 0ZM983.007 151.082L920.487 73.0355C912.291 79.6005 904.1 86.2091 895.912 92.8568L958.944 170.49L1021.98 248.124C1029.84 241.738 1037.69 235.405 1045.53 229.129L983.007 151.082ZM958.944 170.49L894.498 246.954C944.436 289.043 994.5 332.909 1044.36 378.266L1111.65 304.293L1178.94 230.32C1127.27 183.319 1075.31 137.79 1023.39 94.027L958.944 170.49ZM1111.65 304.293L1174.09 382.405C1310.65 273.246 1439.62 183.723 1553.45 117.82L1503.34 31.2773L1453.24 -55.2653C1328.84 16.7542 1191.6 112.365 1049.21 226.181L1111.65 304.293ZM1503.34 31.2773L1553.45 117.82C1571.68 107.263 1589.32 97.4339 1606.35 88.313L1559.13 0.164062L1511.91 -87.9849C1492.84 -77.7728 1473.28 -66.8677 1453.24 -55.2653L1503.34 31.2773ZM1559.13 0.164062L1555.54 100.1C1634.07 102.918 1697.3 166.269 1699.91 244.857L1799.86 241.53L1899.8 238.203C1893.69 54.5531 1746.25 -93.1853 1562.71 -99.7716L1559.13 0.164062ZM1799.86 241.53L1711.72 194.287C1702.66 211.195 1692.9 228.704 1682.42 246.796L1768.97 296.899L1855.51 347.003C1867.03 327.112 1877.85 307.696 1887.99 288.774L1799.86 241.53ZM1768.97 296.899L1682.42 246.796C1615.95 361.612 1525.45 491.822 1415.02 629.677L1493.07 692.197L1571.12 754.717C1686.24 611.008 1782.87 472.466 1855.51 347.003L1768.97 296.899ZM1493.07 692.197L1415.02 629.677C1304.82 767.25 1178.42 907.871 1043.15 1043.15L1113.86 1113.86L1184.57 1184.57C1324.65 1044.49 1456 898.427 1571.12 754.717L1493.07 692.197ZM1113.86 1113.86L1043.15 1043.15C992.078 1094.22 940.221 1144.04 888.034 1192.23L955.871 1265.7L1023.71 1339.17C1077.86 1289.17 1131.63 1237.51 1184.57 1184.57L1113.86 1113.86ZM955.871 1265.7L889.191 1340.22C941.066 1386.64 993.139 1431.38 1045 1474.07L1108.56 1396.87L1172.12 1319.66C1122.46 1278.78 1072.46 1235.84 1022.55 1191.18L955.871 1265.7ZM1108.56 1396.87L1176.7 1470.06C1226.99 1423.24 1276.86 1375.12 1325.99 1325.99L1255.28 1255.28L1184.57 1184.57C1137.12 1232.02 1088.96 1278.49 1040.42 1323.68L1108.56 1396.87ZM1255.28 1255.28L1325.99 1325.99C1470.87 1181.11 1607.17 1029.6 1727.21 879.757L1649.16 817.237L1571.12 754.717C1456 898.427 1324.65 1044.49 1184.57 1184.57L1255.28 1255.28ZM1649.16 817.237L1727.21 879.757C1782.64 810.557 1834.36 742.018 1881.7 674.935L1800 617.273L1718.3 559.612C1673.49 623.108 1624.23 688.407 1571.12 754.717L1649.16 817.237ZM1800 617.273H1700V1182.97H1800H1900V617.273H1800ZM1800 1182.97L1881.7 1125.31C1828.6 1050.07 1770.16 973.223 1707.39 895.911L1629.75 958.943L1552.12 1021.98C1612.34 1096.14 1668.03 1169.41 1718.3 1240.63L1800 1182.97ZM1629.75 958.943L1553.29 894.496C1511.13 944.516 1467.26 994.581 1421.98 1044.36L1495.95 1111.65L1569.92 1178.94C1616.85 1127.36 1662.38 1075.4 1706.22 1023.39L1629.75 958.943ZM1495.95 1111.65L1417.84 1174.09C1525.59 1308.88 1615.58 1438 1682.42 1553.45L1768.97 1503.34L1855.51 1453.24C1782.49 1327.12 1686.38 1189.72 1574.06 1049.21L1495.95 1111.65ZM1768.97 1503.34L1682.42 1553.45C1692.91 1571.56 1702.67 1589.06 1711.71 1605.94L1799.85 1558.7L1887.98 1511.45C1877.86 1492.56 1867.04 1473.15 1855.51 1453.24L1768.97 1503.34ZM1799.85 1558.7L1699.91 1555.28C1697.22 1633.89 1633.89 1697.22 1555.28 1699.91L1558.7 1799.85L1562.11 1899.79C1745.82 1893.51 1893.51 1745.82 1899.79 1562.11L1799.85 1558.7ZM1558.7 1799.85L1605.94 1711.71C1589.04 1702.65 1571.54 1692.9 1553.45 1682.43L1503.34 1768.97L1453.24 1855.51C1473.12 1867.02 1492.53 1877.84 1511.45 1887.99L1558.7 1799.85ZM1503.34 1768.97L1553.45 1682.43C1438.63 1615.95 1308.42 1525.45 1170.57 1415.02L1108.05 1493.07L1045.53 1571.12C1189.24 1686.24 1327.78 1782.87 1453.24 1855.51L1503.34 1768.97ZM1108.05 1493.07L1170.57 1415.02C1032.99 1304.82 892.374 1178.42 757.096 1043.15L686.386 1113.86L615.675 1184.57C755.753 1324.65 901.817 1456 1045.53 1571.12L1108.05 1493.07ZM686.386 1113.86L615.675 1043.15L474.254 1184.57L544.965 1255.28L615.676 1325.99L757.097 1184.57L686.386 1113.86ZM544.965 1255.28L474.254 1325.99C619.132 1470.87 770.64 1607.17 920.487 1727.21L983.007 1649.16L1045.53 1571.12C901.817 1456 755.753 1324.65 615.676 1184.57L544.965 1255.28ZM983.007 1649.16L920.487 1727.21C989.686 1782.64 1058.22 1834.36 1125.31 1881.7L1182.97 1800L1240.63 1718.3C1177.14 1673.49 1111.84 1624.23 1045.53 1571.12L983.007 1649.16ZM1182.97 1800V1700H617.273V1800V1900H1182.97V1800ZM617.273 1800L674.935 1881.7C742.018 1834.36 810.557 1782.64 879.757 1727.21L817.237 1649.16L754.717 1571.12C688.407 1624.23 623.108 1673.49 559.612 1718.3L617.273 1800ZM817.237 1649.16L879.757 1727.21C887.96 1720.64 896.152 1714.03 904.332 1707.39L841.3 1629.75L778.268 1552.12C770.395 1558.51 762.546 1564.84 754.717 1571.12L817.237 1649.16ZM841.3 1629.75L905.747 1553.29C855.727 1511.13 805.662 1467.26 755.883 1421.98L688.593 1495.95L621.302 1569.92C672.886 1616.85 724.847 1662.38 776.853 1706.21L841.3 1629.75ZM688.593 1495.95L626.154 1417.84C489.595 1527 360.628 1616.52 246.796 1682.42L296.899 1768.97L347.003 1855.51C471.401 1783.49 608.646 1687.88 751.031 1574.06L688.593 1495.95ZM296.899 1768.97L246.796 1682.42C228.704 1692.9 211.195 1702.66 194.287 1711.72L241.53 1799.86L288.774 1887.99C307.696 1877.85 327.112 1867.03 347.003 1855.51L296.899 1768.97ZM241.53 1799.86L244.857 1699.91C166.269 1697.3 102.917 1634.07 100.1 1555.54L0.164062 1559.12L-99.7716 1562.71C-93.1867 1746.25 54.5521 1893.69 238.203 1899.8L241.53 1799.86ZM0.164062 1559.12L88.3131 1606.35C97.4334 1589.32 107.263 1571.68 117.819 1553.45L31.2764 1503.34L-55.2663 1453.24C-66.868 1473.28 -77.773 1492.84 -87.985 1511.9L0.164062 1559.12ZM31.2764 1503.34L117.819 1553.45C184.292 1438.63 274.79 1308.42 385.221 1170.57L307.175 1108.05L229.128 1045.53C114.009 1189.24 17.3705 1327.78 -55.2663 1453.24L31.2764 1503.34ZM307.175 1108.05L385.221 1170.57C495.425 1032.99 621.819 892.374 757.096 757.096L686.386 686.386L615.675 615.675C475.597 755.753 344.248 901.817 229.128 1045.53L307.175 1108.05ZM686.386 686.386L757.096 757.096C808.168 706.025 860.024 656.198 912.211 608.013L844.374 534.541L776.537 461.069C722.384 511.069 668.612 562.738 615.675 615.675L686.386 686.386ZM844.374 534.541L911.053 460.017C858.904 413.357 806.828 368.64 755.237 326.17L691.682 403.376L628.126 480.582C677.528 521.249 727.523 564.175 777.695 609.065L844.374 534.541ZM691.682 403.376L623.54 330.186C573.25 377.007 523.38 425.129 474.254 474.254L544.965 544.965L615.676 615.676C663.128 568.223 711.285 521.756 759.823 476.566L691.682 403.376ZM544.965 544.965L474.254 474.254C329.376 619.132 193.072 770.64 73.0355 920.487L151.082 983.007L229.129 1045.53C344.249 901.817 475.598 755.753 615.676 615.676L544.965 544.965ZM151.082 983.007L73.0355 920.487C17.5048 989.808 -34.2948 1058.47 -81.7081 1125.66L0 1183.31L81.7081 1240.97C126.584 1177.37 175.916 1111.95 229.129 1045.53L151.082 983.007ZM0 1183.31H100V616.928H0H-100V1183.31H0ZM0 616.928L-81.7082 674.58C-34.2952 741.777 17.5039 810.435 73.0355 879.757L151.082 817.237L229.129 754.717C175.916 688.289 126.584 622.877 81.7082 559.276L0 616.928ZM151.082 817.237L73.0355 879.757C79.6005 887.953 86.2091 896.144 92.8568 904.332L170.49 841.3L248.124 778.268C241.738 770.403 235.405 762.553 229.129 754.717L151.082 817.237ZM170.49 841.3L246.953 905.747C289.113 855.727 332.984 805.662 378.266 755.883L304.293 688.593L230.32 621.302C183.396 672.886 137.861 724.846 94.0273 776.853L170.49 841.3ZM304.293 688.593L382.404 626.154C273.246 489.596 183.723 360.628 117.82 246.796L31.2773 296.899L-55.2653 347.003C16.7542 471.4 112.365 608.646 226.181 751.031L304.293 688.593ZM31.2773 296.899L117.82 246.796C107.261 228.558 97.4295 210.914 88.3057 193.882L0.15625 241.102L-87.9932 288.321C-77.7792 307.388 -66.8718 326.955 -55.2653 347.003L31.2773 296.899ZM0.15625 241.102L100.095 244.598C102.842 166.085 166.087 102.841 244.6 100.095L241.105 0.15625L237.611 -99.7827C54.1274 -93.3666 -93.3637 54.1225 -99.7826 237.605L0.15625 241.102ZM241.105 0.15625L193.884 88.3044C210.889 97.4143 228.53 107.245 246.796 117.82L296.899 31.2773L347.003 -55.2653C326.932 -66.8852 307.369 -77.791 288.327 -87.9919L241.105 0.15625ZM296.899 31.2773L246.796 117.82C480.767 253.277 768.393 482.342 1043.15 757.096L1113.86 686.386L1184.57 615.675C901.67 332.776 600.388 91.4311 347.003 -55.2653L296.899 31.2773ZM1113.86 686.386L1043.15 757.096C1094.47 808.419 1144.28 860.269 1192.23 912.208L1265.7 844.37L1339.17 776.532C1289.41 722.634 1237.76 668.869 1184.57 615.675L1113.86 686.386ZM1265.7 844.37L1340.23 911.05C1386.64 859.175 1431.38 807.102 1474.07 755.238L1396.87 691.683L1319.66 628.127C1278.78 677.787 1235.84 727.778 1191.18 777.69L1265.7 844.37ZM1396.87 691.683L1470.06 623.541C1423.35 573.372 1375.24 523.503 1325.99 474.254L1255.28 544.965L1184.57 615.676C1232.14 663.246 1278.6 711.403 1323.68 759.824L1396.87 691.683ZM1255.28 544.965L1325.99 474.254C1112.5 260.768 886.741 67.9909 674.581 -81.7079L616.929 0L559.276 81.7079C760.725 223.849 977.84 408.947 1184.57 615.676L1255.28 544.965ZM616.929 0V100H1183.32V0V-100H616.929V0ZM534.543 955.871L460.019 889.191C413.604 941.067 368.865 993.14 326.169 1045.01L403.375 1108.56L480.581 1172.12C521.461 1122.46 564.407 1072.46 609.067 1022.55L534.543 955.871ZM403.375 1108.56L330.185 1176.7C377.006 1226.99 425.128 1276.86 474.254 1325.99L544.965 1255.28L615.676 1184.57C568.223 1137.12 521.755 1088.96 476.565 1040.42L403.375 1108.56ZM544.965 1255.28L615.676 1325.99L757.096 1184.57L686.386 1113.86L615.675 1043.15L474.254 1184.57L544.965 1255.28ZM686.386 1113.86L757.096 1043.15C706.026 992.077 656.2 940.221 608.015 888.034L534.543 955.871L461.071 1023.71C511.07 1077.86 562.738 1131.63 615.675 1184.57L686.386 1113.86Z" fill="#F2F5EA" mask="url(#path-1-inside-1_1_70)"/>
</g>
<defs>
<clipPath id="clip0_1_70">
<rect width="1800" height="1800" fill="white"/>
</clipPath>
</defs>
</svg>
