<svg width="1800" height="1800" viewBox="0 0 1800 1800" fill="none" xmlns="http://www.w3.org/2000/svg">
<g clip-path="url(#clip0_1_90)">
<path d="M1176.47 12L1183.68 22.2095C1188.13 19.0673 1190.03 13.4069 1188.39 8.21642C1186.74 3.02592 1181.92 -0.5 1176.47 -0.5V12ZM980.485 159.9L972.67 150.145L972.67 150.145L980.485 159.9ZM958.465 177.651L950.59 167.943C947.696 170.291 946 173.808 945.965 177.535C945.931 181.262 947.561 184.809 950.411 187.211L958.465 177.651ZM1111.17 311.476L1102.76 320.719C1107.3 324.854 1114.17 325.076 1118.97 321.244L1111.17 311.476ZM1495.16 44.0449L1488.9 33.2271L1488.9 33.2271L1495.16 44.0449ZM1551.91 12.4375L1552.64 -0.0409465C1550.34 -0.17616 1548.05 0.326666 1546.02 1.41202L1551.91 12.4375ZM1786.6 247.719L1797.62 253.611C1798.7 251.588 1799.21 249.306 1799.08 247.016L1786.6 247.719ZM1755.2 304.08L1766.02 310.343L1766.02 310.343L1755.2 304.08ZM1483.25 693.716L1493 701.531L1493 701.531L1483.25 693.716ZM1109.41 1109.41L1118.25 1118.25L1118.25 1118.25L1109.41 1109.41ZM955.35 1257.54L946.866 1248.35C944.28 1250.74 942.822 1254.11 942.85 1257.63C942.878 1261.15 944.389 1264.5 947.012 1266.85L955.35 1257.54ZM1108.04 1388.69L1100.1 1398.34C1104.94 1402.32 1111.98 1402.1 1116.56 1397.83L1108.04 1388.69ZM1250.83 1250.83L1259.67 1259.67L1259.67 1259.67L1250.83 1250.83ZM1639.34 818.756L1649.1 826.571L1649.1 826.571L1639.34 818.756ZM1787 623.11H1799.5C1799.5 617.665 1795.97 612.846 1790.78 611.197C1785.59 609.548 1779.93 611.449 1776.79 615.897L1787 623.11ZM1787 1178.54L1776.79 1185.75C1779.93 1190.2 1785.59 1192.1 1790.78 1190.46C1795.97 1188.81 1799.5 1183.99 1799.5 1178.54H1787ZM1619.12 957.625L1628.82 949.746C1626.47 946.854 1622.96 945.16 1619.23 945.126C1615.51 945.091 1611.96 946.721 1609.56 949.569L1619.12 957.625ZM1487.17 1108.21L1477.93 1099.8C1473.79 1104.34 1473.57 1111.22 1477.41 1116.02L1487.17 1108.21ZM1756.4 1494.46L1767.22 1488.2L1767.22 1488.2L1756.4 1494.46ZM1786.72 1548.81L1799.21 1549.39C1799.32 1547.14 1798.81 1544.9 1797.74 1542.9L1786.72 1548.81ZM1548.81 1786.72L1542.9 1797.74C1544.89 1798.81 1547.14 1799.32 1549.39 1799.21L1548.81 1786.72ZM1494.46 1756.4L1488.2 1767.22L1488.2 1767.22L1494.46 1756.4ZM1104.66 1484.33L1096.84 1494.09L1096.84 1494.09L1104.66 1484.33ZM688.853 1110.39L680.014 1119.23L680.014 1119.23L688.853 1110.39ZM539.118 954.595L548.302 946.115C545.913 943.527 542.542 942.068 539.02 942.095C535.498 942.123 532.151 943.635 529.803 946.26L539.118 954.595ZM409.772 1105.16L400.122 1097.22C396.139 1102.06 396.354 1109.1 400.624 1113.68L409.772 1105.16ZM549.396 1249.84L540.557 1258.68L540.557 1258.68L549.396 1249.84ZM981.354 1638.26L973.539 1648.01L973.539 1648.01L981.354 1638.26ZM1178.54 1787V1799.5C1183.99 1799.5 1188.81 1795.97 1190.45 1790.78C1192.1 1785.59 1190.2 1779.93 1185.75 1776.79L1178.54 1787ZM623.111 1787L615.898 1776.79C611.45 1779.93 609.549 1785.59 611.198 1790.78C612.847 1795.97 617.666 1799.5 623.111 1799.5V1787ZM818.756 1639.34L826.571 1649.1L826.571 1649.1L818.756 1639.34ZM840.775 1621.59L848.65 1631.3C851.544 1628.95 853.24 1625.43 853.275 1621.7C853.31 1617.98 851.68 1614.43 848.829 1612.03L840.775 1621.59ZM688.068 1487.76L696.483 1478.52C691.941 1474.39 685.069 1474.16 680.27 1477.99L688.068 1487.76ZM304.08 1755.2L310.343 1766.01L310.343 1766.01L304.08 1755.2ZM247.717 1786.6L247.014 1799.08C249.304 1799.21 251.586 1798.7 253.609 1797.62L247.717 1786.6ZM12.4375 1551.91L1.41203 1546.02C0.326667 1548.05 -0.17616 1550.34 -0.0409464 1552.64L12.4375 1551.91ZM44.0449 1495.16L33.2271 1488.9L33.2271 1488.9L44.0449 1495.16ZM315.993 1105.53L306.237 1097.71L306.237 1097.71L315.993 1105.53ZM689.836 689.835L680.997 680.996L680.997 680.996L689.836 689.835ZM843.893 541.704L852.376 550.884C854.962 548.495 856.42 545.126 856.392 541.605C856.364 538.084 854.853 534.739 852.23 532.39L843.893 541.704ZM691.201 410.554L699.142 400.9C694.302 396.919 687.263 397.137 682.679 401.409L691.201 410.554ZM548.414 548.414L539.575 539.575L539.575 539.575L548.414 548.414ZM159.9 980.485L150.145 972.67L150.145 972.67L159.9 980.485ZM12 1176.47H-0.5C-0.5 1181.92 3.02592 1186.74 8.21642 1188.39C13.4069 1190.03 19.0673 1188.13 22.2095 1183.68L12 1176.47ZM12 620.36L22.2135 613.154C19.0731 608.703 13.4119 606.798 8.21974 608.446C3.02755 610.093 -0.5 614.913 -0.5 620.36H12ZM160.983 817.887L151.228 825.702L151.228 825.702L160.983 817.887ZM180.122 841.615L170.418 849.494C172.766 852.386 176.282 854.081 180.007 854.115C183.733 854.149 187.279 852.52 189.68 849.671L180.122 841.615ZM312.066 691.029L321.313 699.441C325.447 694.897 325.666 688.023 321.83 683.224L312.066 691.029ZM42.8428 304.775L32.0249 311.038L32.0249 311.038L42.8428 304.775ZM12.2842 249.995L-0.201874 249.405C-0.308616 251.663 0.198824 253.907 1.26644 255.899L12.2842 249.995ZM249.997 12.2832L255.902 1.26561C253.909 0.197911 251.665 -0.309583 249.407 -0.202855L249.997 12.2832ZM304.775 42.8428L311.038 32.0249L311.038 32.0249L304.775 42.8428ZM1110.39 688.853L1119.23 680.014L1119.23 680.014L1110.39 688.853ZM1260.12 844.643L1250.94 853.122C1253.33 855.71 1256.7 857.17 1260.22 857.142C1263.74 857.115 1267.09 855.602 1269.44 852.978L1260.12 844.643ZM1389.47 694.076L1399.12 702.021C1403.1 697.183 1402.89 690.144 1398.62 685.558L1389.47 694.076ZM1249.84 549.396L1258.68 540.557L1258.68 540.557L1249.84 549.396ZM620.36 12V-0.5C614.913 -0.5 610.093 3.02753 608.446 8.2197C606.798 13.4119 608.703 19.073 613.154 22.2135L620.36 12ZM1176.47 12L1169.26 1.79047C1105.03 47.1636 1039.25 96.8142 972.67 150.145L980.485 159.9L988.3 169.656C1054.52 116.613 1119.9 67.2683 1183.68 22.2095L1176.47 12ZM980.485 159.9L972.67 150.145C965.315 156.037 957.954 161.97 950.59 167.943L958.465 177.651L966.339 187.359C973.664 181.418 980.985 175.516 988.3 169.656L980.485 159.9ZM958.465 177.651L950.411 187.211C1001.22 230.017 1052.11 274.619 1102.76 320.719L1111.17 311.476L1119.59 302.232C1068.71 255.922 1017.58 211.11 966.519 168.092L958.465 177.651ZM1111.17 311.476L1118.97 321.244C1255.34 212.376 1385.29 122.098 1501.42 54.8628L1495.16 44.0449L1488.9 33.2271C1371.45 101.223 1240.47 192.258 1103.38 301.707L1111.17 311.476ZM1495.16 44.0449L1501.42 54.8628C1520.8 43.6476 1539.59 33.1865 1557.79 23.463L1551.91 12.4375L1546.02 1.41202C1527.55 11.2762 1508.5 21.8763 1488.9 33.2271L1495.16 44.0449ZM1551.91 12.4375L1551.17 24.9159C1671.24 31.9763 1767.35 128.27 1774.12 248.422L1786.6 247.719L1799.08 247.016C1791.6 114.184 1685.38 7.76453 1552.64 -0.0409465L1551.91 12.4375ZM1786.6 247.719L1775.57 241.826C1765.91 259.911 1755.52 278.581 1744.38 297.817L1755.2 304.08L1766.02 310.343C1777.29 290.873 1787.82 271.955 1797.62 253.611L1786.6 247.719ZM1755.2 304.08L1744.38 297.817C1676.22 415.549 1584.38 547.48 1473.49 685.901L1483.25 693.716L1493 701.531C1604.47 562.378 1697.08 429.406 1766.02 310.343L1755.2 304.08ZM1483.25 693.716L1473.49 685.901C1362.74 824.162 1236 965.136 1100.57 1100.57L1109.41 1109.41L1118.25 1118.25C1254.28 982.213 1381.63 840.56 1493 701.531L1483.25 693.716ZM1109.41 1109.41L1100.57 1100.57C1049.97 1151.17 998.589 1200.56 946.866 1248.35L955.35 1257.54L963.833 1266.72C1015.8 1218.69 1067.41 1169.08 1118.25 1118.25L1109.41 1109.41ZM955.35 1257.54L947.012 1266.85C998.032 1312.52 1049.2 1356.47 1100.1 1398.34L1108.04 1388.69L1115.98 1379.03C1065.36 1337.4 1014.46 1293.67 963.687 1248.22L955.35 1257.54ZM1108.04 1388.69L1116.56 1397.83C1164.76 1352.92 1212.56 1306.77 1259.67 1259.67L1250.83 1250.83L1241.99 1241.99C1195.09 1288.89 1147.5 1334.83 1099.52 1379.54L1108.04 1388.69ZM1250.83 1250.83L1259.67 1259.67C1400.5 1118.83 1532.81 971.737 1649.1 826.571L1639.34 818.756L1629.59 810.941C1513.91 955.34 1382.22 1101.76 1241.99 1241.99L1250.83 1250.83ZM1639.34 818.756L1649.1 826.571C1702.33 760.114 1751.9 694.445 1797.21 630.324L1787 623.11L1776.79 615.897C1731.8 679.574 1682.53 744.843 1629.59 810.941L1639.34 818.756ZM1787 623.11H1774.5V1178.54H1787H1799.5V623.11H1787ZM1787 1178.54L1797.21 1171.33C1746.07 1098.87 1689.62 1024.63 1628.82 949.746L1619.12 957.625L1609.41 965.504C1669.89 1040 1726 1113.79 1776.79 1185.75L1787 1178.54ZM1619.12 957.625L1609.56 949.569C1567.26 999.75 1523.29 1049.94 1477.93 1099.8L1487.17 1108.21L1496.42 1116.62C1541.98 1066.53 1586.17 1016.11 1628.68 965.681L1619.12 957.625ZM1487.17 1108.21L1477.41 1116.02C1585.63 1251.4 1677.01 1382.29 1745.58 1500.73L1756.4 1494.46L1767.22 1488.2C1697.87 1368.43 1605.73 1236.5 1496.94 1100.41L1487.17 1108.21ZM1756.4 1494.46L1745.58 1500.73C1756.32 1519.28 1766.36 1537.28 1775.71 1554.72L1786.72 1548.81L1797.74 1542.9C1788.25 1525.22 1778.09 1506.98 1767.22 1488.2L1756.4 1494.46ZM1786.72 1548.81L1774.24 1548.23C1768.55 1670.46 1670.46 1768.55 1548.23 1774.24L1548.81 1786.72L1549.39 1799.21C1684.51 1792.93 1792.93 1684.51 1799.21 1549.39L1786.72 1548.81ZM1548.81 1786.72L1554.72 1775.71C1537.26 1766.34 1519.25 1756.31 1500.73 1745.58L1494.46 1756.4L1488.2 1767.22C1506.95 1778.07 1525.19 1788.24 1542.9 1797.74L1548.81 1786.72ZM1494.46 1756.4L1500.73 1745.58C1382.92 1677.38 1250.93 1585.49 1112.47 1474.58L1104.66 1484.33L1096.84 1494.09C1236.04 1605.59 1369.07 1698.24 1488.2 1767.22L1494.46 1756.4ZM1104.66 1484.33L1112.47 1474.58C974.168 1363.79 833.157 1237.01 697.691 1101.55L688.853 1110.39L680.014 1119.23C816.079 1255.29 957.771 1382.68 1096.84 1494.09L1104.66 1484.33ZM688.853 1110.39L697.691 1101.55C646.526 1050.38 596.599 998.423 548.302 946.115L539.118 954.595L529.934 963.074C578.458 1015.63 628.615 1067.83 680.014 1119.23L688.853 1110.39ZM539.118 954.595L529.803 946.26C484.788 996.57 441.442 1047.02 400.122 1097.22L409.772 1105.16L419.423 1113.11C460.517 1063.19 503.638 1012.99 548.434 962.93L539.118 954.595ZM409.772 1105.16L400.624 1113.68C446.092 1162.52 492.834 1210.96 540.557 1258.68L549.396 1249.84L558.234 1241.01C510.72 1193.49 464.186 1145.27 418.921 1096.65L409.772 1105.16ZM549.396 1249.84L540.557 1258.68C681.356 1399.48 828.416 1531.76 973.539 1648.01L981.354 1638.26L989.169 1628.5C844.813 1512.86 698.433 1381.2 558.234 1241.01L549.396 1249.84ZM981.354 1638.26L973.539 1648.01C1040.53 1701.68 1106.73 1751.62 1171.33 1797.21L1178.54 1787L1185.75 1776.79C1121.59 1731.51 1055.8 1681.88 989.169 1628.5L981.354 1638.26ZM1178.54 1787V1774.5H623.111V1787V1799.5H1178.54V1787ZM623.111 1787L630.325 1797.21C694.446 1751.9 760.115 1702.33 826.571 1649.1L818.756 1639.34L810.941 1629.59C744.843 1682.53 679.575 1731.8 615.898 1776.79L623.111 1787ZM818.756 1639.34L826.571 1649.1C833.928 1643.2 841.288 1637.27 848.65 1631.3L840.775 1621.59L832.901 1611.88C825.574 1617.82 818.254 1623.73 810.941 1629.59L818.756 1639.34ZM840.775 1621.59L848.829 1612.03C797.94 1569.15 747.045 1524.54 696.483 1478.52L688.068 1487.76L679.654 1497.01C730.444 1543.24 781.58 1588.06 832.721 1631.15L840.775 1621.59ZM688.068 1487.76L680.27 1477.99C543.901 1586.86 413.95 1677.14 297.817 1744.38L304.08 1755.2L310.343 1766.01C427.791 1698.02 558.772 1606.98 695.867 1497.53L688.068 1487.76ZM304.08 1755.2L297.817 1744.38C278.581 1755.52 259.909 1765.91 241.824 1775.57L247.717 1786.6L253.609 1797.62C271.954 1787.82 290.872 1777.29 310.343 1766.01L304.08 1755.2ZM247.717 1786.6L248.42 1774.12C128.269 1767.35 31.9763 1671.24 24.9159 1551.17L12.4375 1551.91L-0.0409464 1552.64C7.7645 1685.38 114.183 1791.6 247.014 1799.08L247.717 1786.6ZM12.4375 1551.91L23.463 1557.8C33.1866 1539.59 43.6476 1520.8 54.8628 1501.42L44.0449 1495.16L33.2271 1488.9C21.8763 1508.5 11.2762 1527.55 1.41203 1546.02L12.4375 1551.91ZM44.0449 1495.16L54.8627 1501.42C123.023 1383.69 214.866 1251.76 325.749 1113.34L315.993 1105.53L306.237 1097.71C194.768 1236.86 102.158 1369.84 33.2271 1488.9L44.0449 1495.16ZM315.993 1105.53L325.749 1113.34C436.505 975.079 563.243 834.106 698.675 698.674L689.836 689.835L680.997 680.996C544.965 817.028 417.608 958.682 306.237 1097.71L315.993 1105.53ZM689.836 689.835L698.675 698.674C749.276 648.073 800.653 598.683 852.376 550.884L843.893 541.704L835.409 532.524C783.443 580.547 731.829 630.164 680.997 680.996L689.836 689.835ZM843.893 541.704L852.23 532.39C800.938 486.477 749.767 442.542 699.142 400.9L691.201 410.554L683.26 420.207C733.608 461.621 784.514 505.328 835.556 551.018L843.893 541.704ZM691.201 410.554L682.679 401.409C634.484 446.322 586.68 492.471 539.575 539.575L548.414 548.414L557.253 557.253C604.151 510.355 651.744 464.41 699.723 419.698L691.201 410.554ZM548.414 548.414L539.575 539.575C398.743 680.407 266.431 827.505 150.145 972.67L159.9 980.485L169.656 988.3C285.328 843.902 417.021 697.485 557.253 557.253L548.414 548.414ZM159.9 980.485L150.145 972.67C96.8142 1039.25 47.1636 1105.03 1.79047 1169.26L12 1176.47L22.2095 1183.68C67.2683 1119.9 116.613 1054.52 169.656 988.3L159.9 980.485ZM12 1176.47H24.5V620.36H12H-0.5V1176.47H12ZM12 620.36L1.78646 627.567C47.4485 692.282 97.4659 758.589 151.228 825.702L160.983 817.887L170.739 810.072C117.267 743.32 67.5584 677.42 22.2135 613.154L12 620.36ZM160.983 817.887L151.228 825.702C157.577 833.628 163.975 841.559 170.418 849.494L180.122 841.615L189.826 833.736C183.417 825.842 177.053 817.954 170.739 810.072L160.983 817.887ZM180.122 841.615L189.68 849.671C231.975 799.491 275.953 749.305 321.313 699.441L312.066 691.029L302.82 682.618C257.254 732.708 213.068 783.13 170.564 833.559L180.122 841.615ZM312.066 691.029L321.83 683.224C212.183 546.054 121.282 415.312 53.6606 298.512L42.8428 304.775L32.0249 311.038C100.411 429.159 192.073 560.935 302.302 698.834L312.066 691.029ZM42.8428 304.775L53.6606 298.512C42.8468 279.834 32.7317 261.688 23.3019 244.091L12.2842 249.995L1.26644 255.899C10.8317 273.749 21.0807 292.135 32.0249 311.038L42.8428 304.775ZM12.2842 249.995L24.7702 250.585C30.5419 128.506 128.508 30.54 250.587 24.7693L249.997 12.2832L249.407 -0.202855C114.448 6.17665 6.17867 114.446 -0.201874 249.405L12.2842 249.995ZM249.997 12.2832L244.093 23.3008C261.664 32.7175 279.808 42.8318 298.512 53.6606L304.775 42.8428L311.038 32.0249C292.109 21.066 273.726 10.818 255.902 1.26561L249.997 12.2832ZM304.775 42.8428L298.512 53.6606C537.592 192.075 827.103 423.246 1101.55 697.691L1110.39 688.853L1119.23 680.014C843.763 404.55 552.545 171.845 311.038 32.0249L304.775 42.8428ZM1110.39 688.853L1101.55 697.691C1152.96 749.107 1202.87 801.061 1250.94 853.122L1260.12 844.643L1269.31 836.163C1221.01 783.857 1170.88 731.663 1119.23 680.014L1110.39 688.853ZM1260.12 844.643L1269.44 852.978C1314.45 802.668 1357.8 752.215 1399.12 702.021L1389.47 694.076L1379.82 686.132C1338.72 736.051 1295.6 786.244 1250.81 836.308L1260.12 844.643ZM1389.47 694.076L1398.62 685.558C1353.26 636.839 1306.53 588.399 1258.68 540.557L1249.84 549.396L1241.01 558.234C1288.64 605.867 1335.16 654.092 1380.32 702.594L1389.47 694.076ZM1249.84 549.396L1258.68 540.557C1051.07 332.945 832.168 146.152 627.567 1.78651L620.36 12L613.154 22.2135C816.416 165.634 1034.24 351.468 1241.01 558.234L1249.84 549.396ZM620.36 12V24.5H1176.47V12V-0.5H620.36V12Z" fill="#F2F5EA"/>
</g>
<defs>
<clipPath id="clip0_1_90">
<rect width="1800" height="1800" fill="white"/>
</clipPath>
</defs>
</svg>
