<svg width="1800" height="2000" viewBox="0 0 1800 2000" fill="none" xmlns="http://www.w3.org/2000/svg">
<g clip-path="url(#clip0_4_543)">
<mask id="path-1-outside-1_4_543" maskUnits="userSpaceOnUse" x="333.561" y="1849" width="1476" height="170" fill="black">
<rect fill="white" x="333.561" y="1849" width="1476" height="170"/>
<path d="M386.101 1875.02C392.901 1875.02 399.871 1875.08 407.011 1875.19C414.264 1875.19 421.347 1875.36 428.261 1875.7C435.174 1875.93 441.464 1876.44 447.131 1877.23L445.431 1903.24H402.421C400.267 1903.24 398.567 1903.81 397.321 1904.94C396.074 1906.07 395.451 1907.55 395.451 1909.36V1959.34C395.451 1961.15 396.074 1962.63 397.321 1963.76C398.567 1964.89 400.267 1965.46 402.421 1965.46H445.431L447.131 1991.47C441.464 1992.15 435.174 1992.66 428.261 1993C421.347 1993.34 414.264 1993.51 407.011 1993.51C399.871 1993.62 392.901 1993.68 386.101 1993.68C378.054 1993.68 371.424 1991.24 366.211 1986.37C361.111 1981.38 358.561 1974.92 358.561 1966.99V1901.71C358.561 1893.78 361.111 1887.37 366.211 1882.5C371.424 1877.51 378.054 1875.02 386.101 1875.02ZM361.621 1920.75H439.311V1945.23H361.621V1920.75Z"/>
<path d="M568.63 1875.7V1980.25C568.63 1988.75 564.38 1993 555.88 1993H541.77C537.917 1993 535.027 1992.09 533.1 1990.28C531.287 1988.47 529.417 1985.8 527.49 1982.29L501.99 1942C500.403 1939.05 498.93 1935.88 497.57 1932.48C496.323 1928.97 495.19 1925.45 494.17 1921.94H492.98C493.547 1925.45 493.943 1929.08 494.17 1932.82C494.51 1936.45 494.68 1939.96 494.68 1943.36V1993H460.68V1888.45C460.68 1879.95 464.93 1875.7 473.43 1875.7H487.54C491.393 1875.7 494.227 1876.61 496.04 1878.42C497.853 1880.23 499.78 1882.9 501.82 1886.41L526.3 1924.83C527.887 1927.66 529.417 1930.78 530.89 1934.18C532.477 1937.58 533.95 1941.15 535.31 1944.89H536.5C536.047 1941.26 535.65 1937.69 535.31 1934.18C535.083 1930.67 534.97 1927.15 534.97 1923.64L534.8 1875.7H568.63Z"/>
<path d="M648.748 1875.7V1993H611.858V1875.7H648.748ZM681.558 1875.7V1903.24H579.048V1875.7H681.558Z"/>
<path d="M718.796 1875.02C725.596 1875.02 732.566 1875.08 739.706 1875.19C746.959 1875.19 754.043 1875.36 760.956 1875.7C767.869 1875.93 774.159 1876.44 779.826 1877.23L778.126 1903.24H735.116C732.963 1903.24 731.263 1903.81 730.016 1904.94C728.769 1906.07 728.146 1907.55 728.146 1909.36V1959.34C728.146 1961.15 728.769 1962.63 730.016 1963.76C731.263 1964.89 732.963 1965.46 735.116 1965.46H778.126L779.826 1991.47C774.159 1992.15 767.869 1992.66 760.956 1993C754.043 1993.34 746.959 1993.51 739.706 1993.51C732.566 1993.62 725.596 1993.68 718.796 1993.68C710.749 1993.68 704.119 1991.24 698.906 1986.37C693.806 1981.38 691.256 1974.92 691.256 1966.99V1901.71C691.256 1893.78 693.806 1887.37 698.906 1882.5C704.119 1877.51 710.749 1875.02 718.796 1875.02ZM694.316 1920.75H772.006V1945.23H694.316V1920.75Z"/>
<path d="M843.185 1874C854.745 1874 864.152 1875.08 871.405 1877.23C878.659 1879.38 883.985 1883.07 887.385 1888.28C890.899 1893.38 892.655 1900.52 892.655 1909.7C892.655 1914.35 891.919 1918.71 890.445 1922.79C889.085 1926.76 886.649 1930.04 883.135 1932.65C879.735 1935.26 874.975 1936.9 868.855 1937.58V1938.6C871.009 1938.83 873.389 1939.51 875.995 1940.64C878.602 1941.66 881.039 1943.47 883.305 1946.08C885.572 1948.57 887.159 1952.2 888.065 1956.96L897.245 1993H858.655L851.005 1958.15C850.325 1954.86 849.249 1952.71 847.775 1951.69C846.415 1950.67 844.149 1950.16 840.975 1950.16C832.475 1950.05 825.505 1949.99 820.065 1949.99C814.739 1949.99 810.205 1949.93 806.465 1949.82C802.725 1949.71 798.985 1949.54 795.245 1949.31L795.755 1924.15H842.335C845.849 1924.15 848.569 1923.81 850.495 1923.13C852.422 1922.45 853.725 1921.26 854.405 1919.56C855.199 1917.75 855.595 1915.25 855.595 1912.08C855.595 1908.79 855.199 1906.3 854.405 1904.6C853.725 1902.9 852.422 1901.71 850.495 1901.03C848.569 1900.35 845.849 1900.01 842.335 1900.01C830.549 1900.01 820.632 1900.07 812.585 1900.18C804.539 1900.29 799.042 1900.52 796.095 1900.86L793.375 1875.7C798.589 1875.13 803.462 1874.74 807.995 1874.51C812.642 1874.28 817.685 1874.17 823.125 1874.17C828.679 1874.06 835.365 1874 843.185 1874ZM829.585 1875.7V1993H793.375V1875.7H829.585Z"/>
<path d="M969.988 1875.7V1993H933.098V1875.7H969.988ZM1002.8 1875.7V1903.24H900.288V1875.7H1002.8Z"/>
<path d="M1069.51 1875.7C1072.46 1875.7 1075.06 1876.55 1077.33 1878.25C1079.6 1879.95 1081.13 1882.27 1081.92 1885.22L1112.35 1993H1074.78L1057.1 1916.67C1056.65 1914.52 1056.25 1912.31 1055.91 1910.04C1055.57 1907.66 1055.29 1905.39 1055.06 1903.24H1050.47C1050.24 1905.39 1049.96 1907.66 1049.62 1910.04C1049.28 1912.31 1048.88 1914.52 1048.43 1916.67L1030.75 1993H993.181L1023.61 1885.22C1024.4 1882.27 1025.93 1879.95 1028.2 1878.25C1030.47 1876.55 1033.07 1875.7 1036.02 1875.7H1069.51ZM1083.96 1941.83V1967.67H1021.57V1941.83H1083.96Z"/>
<path d="M1156.32 1875.7V1993H1119.77V1875.7H1156.32Z"/>
<path d="M1282.17 1875.7V1980.25C1282.17 1988.75 1277.92 1993 1269.42 1993H1255.31C1251.45 1993 1248.56 1992.09 1246.64 1990.28C1244.82 1988.47 1242.95 1985.8 1241.03 1982.29L1215.53 1942C1213.94 1939.05 1212.47 1935.88 1211.11 1932.48C1209.86 1928.97 1208.73 1925.45 1207.71 1921.94H1206.52C1207.08 1925.45 1207.48 1929.08 1207.71 1932.82C1208.05 1936.45 1208.22 1939.96 1208.22 1943.36V1993H1174.22V1888.45C1174.22 1879.95 1178.47 1875.7 1186.97 1875.7H1201.08C1204.93 1875.7 1207.76 1876.61 1209.58 1878.42C1211.39 1880.23 1213.32 1882.9 1215.36 1886.41L1239.84 1924.83C1241.42 1927.66 1242.95 1930.78 1244.43 1934.18C1246.01 1937.58 1247.49 1941.15 1248.85 1944.89H1250.04C1249.58 1941.26 1249.19 1937.69 1248.85 1934.18C1248.62 1930.67 1248.51 1927.15 1248.51 1923.64L1248.34 1875.7H1282.17Z"/>
<path d="M1428.92 1875.7C1437.2 1875.7 1441.5 1879.95 1441.84 1888.45L1445.92 1993H1412.77L1409.2 1903.24H1406.65L1395.09 1963.08C1393.96 1970.56 1389.31 1974.3 1381.15 1974.3H1362.11C1354.07 1974.3 1349.36 1970.56 1348 1963.08L1336.27 1903.24H1333.72L1330.83 1993H1297.68L1301.76 1888.45C1302.1 1879.95 1306.41 1875.7 1314.68 1875.7H1346.47C1354.41 1875.7 1359.05 1879.5 1360.41 1887.09L1368.91 1933.67C1369.37 1936.5 1369.71 1939.39 1369.93 1942.34C1370.27 1945.29 1370.56 1948.23 1370.78 1951.18H1372.31C1372.65 1948.23 1372.94 1945.29 1373.16 1942.34C1373.5 1939.39 1373.9 1936.5 1374.35 1933.67L1382.34 1887.09C1383.7 1879.5 1388.41 1875.7 1396.45 1875.7H1428.92Z"/>
<path d="M1488.28 1875.02C1495.08 1875.02 1502.05 1875.08 1509.19 1875.19C1516.44 1875.19 1523.53 1875.36 1530.44 1875.7C1537.35 1875.93 1543.64 1876.44 1549.31 1877.23L1547.61 1903.24H1504.6C1502.44 1903.24 1500.74 1903.81 1499.5 1904.94C1498.25 1906.07 1497.63 1907.55 1497.63 1909.36V1959.34C1497.63 1961.15 1498.25 1962.63 1499.5 1963.76C1500.74 1964.89 1502.44 1965.46 1504.6 1965.46H1547.61L1549.31 1991.47C1543.64 1992.15 1537.35 1992.66 1530.44 1993C1523.53 1993.34 1516.44 1993.51 1509.19 1993.51C1502.05 1993.62 1495.08 1993.68 1488.28 1993.68C1480.23 1993.68 1473.6 1991.24 1468.39 1986.37C1463.29 1981.38 1460.74 1974.92 1460.74 1966.99V1901.71C1460.74 1893.78 1463.29 1887.37 1468.39 1882.5C1473.6 1877.51 1480.23 1875.02 1488.28 1875.02ZM1463.8 1920.75H1541.49V1945.23H1463.8V1920.75Z"/>
<path d="M1670.81 1875.7V1980.25C1670.81 1988.75 1666.56 1993 1658.06 1993H1643.95C1640.09 1993 1637.2 1992.09 1635.28 1990.28C1633.46 1988.47 1631.59 1985.8 1629.67 1982.29L1604.17 1942C1602.58 1939.05 1601.11 1935.88 1599.75 1932.48C1598.5 1928.97 1597.37 1925.45 1596.35 1921.94H1595.16C1595.72 1925.45 1596.12 1929.08 1596.35 1932.82C1596.69 1936.45 1596.86 1939.96 1596.86 1943.36V1993H1562.86V1888.45C1562.86 1879.95 1567.11 1875.7 1575.61 1875.7H1589.72C1593.57 1875.7 1596.4 1876.61 1598.22 1878.42C1600.03 1880.23 1601.96 1882.9 1604 1886.41L1628.48 1924.83C1630.06 1927.66 1631.59 1930.78 1633.07 1934.18C1634.65 1937.58 1636.13 1941.15 1637.49 1944.89H1638.68C1638.22 1941.26 1637.83 1937.69 1637.49 1934.18C1637.26 1930.67 1637.15 1927.15 1637.15 1923.64L1636.98 1875.7H1670.81Z"/>
<path d="M1750.93 1875.7V1993H1714.04V1875.7H1750.93ZM1783.74 1875.7V1903.24H1681.23V1875.7H1783.74Z"/>
</mask>
<path d="M407.011 1875.19L406.614 1900.19C406.746 1900.19 406.878 1900.19 407.011 1900.19L407.011 1875.19ZM428.261 1875.7L427.033 1900.67C427.169 1900.68 427.305 1900.68 427.441 1900.69L428.261 1875.7ZM447.131 1877.23L472.077 1878.86C472.931 1865.8 463.562 1854.29 450.597 1852.47L447.131 1877.23ZM445.431 1903.24V1928.24C458.605 1928.24 469.518 1918.02 470.377 1904.87L445.431 1903.24ZM445.431 1965.46L470.377 1963.83C469.518 1950.68 458.605 1940.46 445.431 1940.46V1965.46ZM447.131 1991.47L450.109 2016.29C463.296 2014.71 472.943 2003.09 472.077 1989.84L447.131 1991.47ZM407.011 1993.51V1968.51C406.878 1968.51 406.746 1968.51 406.614 1968.51L407.011 1993.51ZM366.211 1986.37L348.733 2004.25C348.866 2004.38 349.002 2004.51 349.138 2004.63L366.211 1986.37ZM366.211 1882.5L383.482 1900.57L383.491 1900.57L366.211 1882.5ZM361.621 1920.75V1895.75C347.813 1895.75 336.621 1906.94 336.621 1920.75H361.621ZM439.311 1920.75H464.311C464.311 1906.94 453.118 1895.75 439.311 1895.75V1920.75ZM439.311 1945.23V1970.23C453.118 1970.23 464.311 1959.04 464.311 1945.23H439.311ZM361.621 1945.23H336.621C336.621 1959.04 347.813 1970.23 361.621 1970.23V1945.23ZM568.63 1875.7H593.63C593.63 1861.89 582.437 1850.7 568.63 1850.7V1875.7ZM533.1 1990.28L515.422 2007.96C515.601 2008.14 515.782 2008.31 515.966 2008.49L533.1 1990.28ZM527.49 1982.29L549.41 1970.27C549.159 1969.81 548.894 1969.36 548.615 1968.92L527.49 1982.29ZM501.99 1942L479.978 1953.85C480.256 1954.37 480.552 1954.87 480.866 1955.37L501.99 1942ZM497.57 1932.48L474.009 1940.84C474.12 1941.15 474.236 1941.46 474.358 1941.76L497.57 1932.48ZM494.17 1921.94L518.179 1914.97C515.078 1904.29 505.293 1896.94 494.17 1896.94V1921.94ZM492.98 1921.94V1896.94C485.654 1896.94 478.697 1900.15 473.947 1905.73C469.197 1911.31 467.133 1918.69 468.299 1925.92L492.98 1921.94ZM494.17 1932.82L469.216 1934.33C469.232 1934.61 469.254 1934.88 469.279 1935.15L494.17 1932.82ZM494.68 1993V2018C508.487 2018 519.68 2006.81 519.68 1993H494.68ZM460.68 1993H435.68C435.68 2006.81 446.873 2018 460.68 2018V1993ZM496.04 1878.42L478.362 1896.1L478.362 1896.1L496.04 1878.42ZM501.82 1886.41L480.2 1898.96C480.373 1899.26 480.552 1899.55 480.736 1899.84L501.82 1886.41ZM526.3 1924.83L548.113 1912.61C547.881 1912.2 547.638 1911.8 547.384 1911.4L526.3 1924.83ZM530.89 1934.18L507.951 1944.12C508.043 1944.33 508.138 1944.54 508.235 1944.75L530.89 1934.18ZM535.31 1944.89L511.815 1953.43C515.408 1963.31 524.797 1969.89 535.31 1969.89V1944.89ZM536.5 1944.89V1969.89C543.671 1969.89 550.496 1966.81 555.242 1961.44C559.988 1956.06 562.196 1948.9 561.307 1941.79L536.5 1944.89ZM535.31 1934.18L510.362 1935.79C510.379 1936.06 510.401 1936.32 510.426 1936.59L535.31 1934.18ZM534.97 1923.64H559.97C559.97 1923.61 559.97 1923.58 559.97 1923.55L534.97 1923.64ZM534.8 1875.7V1850.7C528.154 1850.7 521.782 1853.35 517.091 1858.05C512.4 1862.76 509.777 1869.14 509.8 1875.79L534.8 1875.7ZM648.748 1875.7H673.748C673.748 1861.89 662.555 1850.7 648.748 1850.7V1875.7ZM648.748 1993V2018C662.555 2018 673.748 2006.81 673.748 1993H648.748ZM611.858 1993H586.858C586.858 2006.81 598.051 2018 611.858 2018V1993ZM611.858 1875.7V1850.7C598.051 1850.7 586.858 1861.89 586.858 1875.7H611.858ZM681.558 1875.7H706.558C706.558 1861.89 695.365 1850.7 681.558 1850.7V1875.7ZM681.558 1903.24V1928.24C695.365 1928.24 706.558 1917.05 706.558 1903.24H681.558ZM579.048 1903.24H554.048C554.048 1917.05 565.241 1928.24 579.048 1928.24V1903.24ZM579.048 1875.7V1850.7C565.241 1850.7 554.048 1861.89 554.048 1875.7H579.048ZM739.706 1875.19L739.309 1900.19C739.441 1900.19 739.574 1900.19 739.706 1900.19V1875.19ZM760.956 1875.7L759.728 1900.67C759.864 1900.68 760 1900.68 760.137 1900.69L760.956 1875.7ZM779.826 1877.23L804.773 1878.86C805.626 1865.8 796.257 1854.29 783.292 1852.47L779.826 1877.23ZM778.126 1903.24V1928.24C791.3 1928.24 802.213 1918.02 803.073 1904.87L778.126 1903.24ZM778.126 1965.46L803.073 1963.83C802.213 1950.68 791.3 1940.46 778.126 1940.46V1965.46ZM779.826 1991.47L782.804 2016.29C795.991 2014.71 805.639 2003.09 804.773 1989.84L779.826 1991.47ZM739.706 1993.51V1968.51C739.574 1968.51 739.441 1968.51 739.309 1968.51L739.706 1993.51ZM698.906 1986.37L681.428 2004.25C681.562 2004.38 681.697 2004.51 681.834 2004.63L698.906 1986.37ZM698.906 1882.5L716.177 1900.57L716.186 1900.57L698.906 1882.5ZM694.316 1920.75V1895.75C680.509 1895.75 669.316 1906.94 669.316 1920.75H694.316ZM772.006 1920.75H797.006C797.006 1906.94 785.813 1895.75 772.006 1895.75V1920.75ZM772.006 1945.23V1970.23C785.813 1970.23 797.006 1959.04 797.006 1945.23H772.006ZM694.316 1945.23H669.316C669.316 1959.04 680.509 1970.23 694.316 1970.23V1945.23ZM887.385 1888.28L866.445 1901.94C866.56 1902.11 866.678 1902.29 866.798 1902.46L887.385 1888.28ZM890.445 1922.79L866.932 1914.3C866.886 1914.43 866.841 1914.55 866.797 1914.68L890.445 1922.79ZM883.135 1932.65L868.239 1912.57C868.134 1912.65 868.029 1912.73 867.925 1912.81L883.135 1932.65ZM868.855 1937.58L866.095 1912.73C853.434 1914.14 843.855 1924.84 843.855 1937.58H868.855ZM868.855 1938.6H843.855C843.855 1951.39 853.515 1962.12 866.238 1963.46L868.855 1938.6ZM875.995 1940.64L866.027 1963.57C866.311 1963.69 866.597 1963.81 866.885 1963.92L875.995 1940.64ZM883.305 1946.08L864.44 1962.48C864.561 1962.62 864.683 1962.76 864.807 1962.9L883.305 1946.08ZM888.065 1956.96L863.507 1961.64C863.602 1962.14 863.713 1962.64 863.839 1963.13L888.065 1956.96ZM897.245 1993V2018C904.963 2018 912.248 2014.44 916.985 2008.34C921.721 2002.25 923.377 1994.31 921.472 1986.83L897.245 1993ZM858.655 1993L834.237 1998.36C836.754 2009.83 846.914 2018 858.655 2018V1993ZM851.005 1958.15L826.524 1963.22C826.544 1963.31 826.565 1963.41 826.587 1963.51L851.005 1958.15ZM847.775 1951.69L832.775 1971.69C833.028 1971.88 833.285 1972.06 833.545 1972.24L847.775 1951.69ZM840.975 1950.16L840.642 1975.16C840.753 1975.16 840.864 1975.16 840.975 1975.16L840.975 1950.16ZM806.465 1949.82L805.708 1974.81L805.708 1974.81L806.465 1949.82ZM795.245 1949.31L770.251 1948.8C769.979 1962.22 780.342 1973.45 793.733 1974.26L795.245 1949.31ZM795.755 1924.15V1899.15C782.146 1899.15 771.036 1910.04 770.761 1923.64L795.755 1924.15ZM850.495 1923.13L858.816 1946.7L858.816 1946.7L850.495 1923.13ZM854.405 1919.56L831.501 1909.54C831.395 1909.78 831.292 1910.03 831.193 1910.28L854.405 1919.56ZM854.405 1904.6L831.193 1913.88C831.367 1914.32 831.553 1914.75 831.751 1915.17L854.405 1904.6ZM850.495 1901.03L842.175 1924.6L842.175 1924.6L850.495 1901.03ZM812.585 1900.18L812.937 1925.18L812.937 1925.18L812.585 1900.18ZM796.095 1900.86L771.24 1903.55C771.956 1910.17 775.286 1916.23 780.49 1920.39C785.695 1924.55 792.343 1926.46 798.961 1925.7L796.095 1900.86ZM793.375 1875.7L790.674 1850.85C777.987 1852.23 768.375 1862.94 768.375 1875.7H793.375ZM807.995 1874.51L806.777 1849.54C806.767 1849.54 806.757 1849.54 806.747 1849.54L807.995 1874.51ZM823.125 1874.17V1899.17C823.295 1899.17 823.465 1899.17 823.635 1899.16L823.125 1874.17ZM829.585 1875.7H854.585C854.585 1861.89 843.392 1850.7 829.585 1850.7V1875.7ZM829.585 1993V2018C843.392 2018 854.585 2006.81 854.585 1993H829.585ZM793.375 1993H768.375C768.375 2006.81 779.568 2018 793.375 2018V1993ZM969.988 1875.7H994.988C994.988 1861.89 983.795 1850.7 969.988 1850.7V1875.7ZM969.988 1993V2018C983.795 2018 994.988 2006.81 994.988 1993H969.988ZM933.098 1993H908.098C908.098 2006.81 919.291 2018 933.098 2018V1993ZM933.098 1875.7V1850.7C919.291 1850.7 908.098 1861.89 908.098 1875.7H933.098ZM1002.8 1875.7H1027.8C1027.8 1861.89 1016.61 1850.7 1002.8 1850.7V1875.7ZM1002.8 1903.24V1928.24C1016.61 1928.24 1027.8 1917.05 1027.8 1903.24H1002.8ZM900.288 1903.24H875.288C875.288 1917.05 886.481 1928.24 900.288 1928.24V1903.24ZM900.288 1875.7V1850.7C886.481 1850.7 875.288 1861.89 875.288 1875.7H900.288ZM1077.33 1878.25L1062.33 1898.25L1062.33 1898.25L1077.33 1878.25ZM1081.92 1885.22L1057.78 1891.72C1057.81 1891.82 1057.83 1891.92 1057.86 1892.01L1081.92 1885.22ZM1112.35 1993V2018C1120.18 2018 1127.56 2014.33 1132.29 2008.09C1137.01 2001.84 1138.54 1993.74 1136.41 1986.21L1112.35 1993ZM1074.78 1993L1050.43 1998.64C1053.05 2009.98 1063.15 2018 1074.78 2018V1993ZM1057.1 1916.67L1032.64 1921.82C1032.67 1921.98 1032.71 1922.15 1032.75 1922.31L1057.1 1916.67ZM1055.91 1910.04L1031.16 1913.58C1031.17 1913.63 1031.18 1913.69 1031.19 1913.75L1055.91 1910.04ZM1055.06 1903.24L1079.92 1900.62C1078.58 1887.9 1067.86 1878.24 1055.06 1878.24V1903.24ZM1050.47 1903.24V1878.24C1037.68 1878.24 1026.95 1887.9 1025.61 1900.62L1050.47 1903.24ZM1049.62 1910.04L1074.34 1913.75C1074.35 1913.69 1074.36 1913.63 1074.37 1913.58L1049.62 1910.04ZM1048.43 1916.67L1072.79 1922.31C1072.82 1922.15 1072.86 1921.98 1072.89 1921.82L1048.43 1916.67ZM1030.75 1993V2018C1042.39 2018 1052.48 2009.98 1055.11 1998.64L1030.75 1993ZM993.181 1993L969.122 1986.21C966.994 1993.74 968.52 2001.84 973.246 2008.09C977.972 2014.33 985.35 2018 993.181 2018V1993ZM1023.61 1885.22L1047.67 1892.01C1047.7 1891.92 1047.73 1891.82 1047.75 1891.72L1023.61 1885.22ZM1028.2 1878.25L1043.2 1898.25L1043.2 1898.25L1028.2 1878.25ZM1083.96 1941.83H1108.96C1108.96 1928.02 1097.77 1916.83 1083.96 1916.83V1941.83ZM1083.96 1967.67V1992.67C1097.77 1992.67 1108.96 1981.48 1108.96 1967.67H1083.96ZM1021.57 1967.67H996.571C996.571 1981.48 1007.76 1992.67 1021.57 1992.67V1967.67ZM1021.57 1941.83V1916.83C1007.76 1916.83 996.571 1928.02 996.571 1941.83H1021.57ZM1156.32 1875.7H1181.32C1181.32 1861.89 1170.12 1850.7 1156.32 1850.7V1875.7ZM1156.32 1993V2018C1170.12 2018 1181.32 2006.81 1181.32 1993H1156.32ZM1119.77 1993H1094.77C1094.77 2006.81 1105.96 2018 1119.77 2018V1993ZM1119.77 1875.7V1850.7C1105.96 1850.7 1094.77 1861.89 1094.77 1875.7H1119.77ZM1282.17 1875.7H1307.17C1307.17 1861.89 1295.97 1850.7 1282.17 1850.7V1875.7ZM1246.64 1990.28L1228.96 2007.96C1229.14 2008.14 1229.32 2008.31 1229.5 2008.49L1246.64 1990.28ZM1241.03 1982.29L1262.95 1970.27C1262.69 1969.81 1262.43 1969.36 1262.15 1968.92L1241.03 1982.29ZM1215.53 1942L1193.51 1953.85C1193.79 1954.37 1194.09 1954.87 1194.4 1955.37L1215.53 1942ZM1211.11 1932.48L1187.54 1940.84C1187.65 1941.15 1187.77 1941.46 1187.89 1941.76L1211.11 1932.48ZM1207.71 1921.94L1231.71 1914.97C1228.61 1904.29 1218.83 1896.94 1207.71 1896.94V1921.94ZM1206.52 1921.94V1896.94C1199.19 1896.94 1192.23 1900.15 1187.48 1905.73C1182.73 1911.31 1180.67 1918.69 1181.83 1925.92L1206.52 1921.94ZM1207.71 1932.82L1182.75 1934.33C1182.77 1934.61 1182.79 1934.88 1182.81 1935.15L1207.71 1932.82ZM1208.22 1993V2018C1222.02 2018 1233.22 2006.81 1233.22 1993H1208.22ZM1174.22 1993H1149.22C1149.22 2006.81 1160.41 2018 1174.22 2018V1993ZM1209.58 1878.42L1191.9 1896.1L1191.9 1896.1L1209.58 1878.42ZM1215.36 1886.41L1193.74 1898.96C1193.91 1899.26 1194.09 1899.55 1194.27 1899.84L1215.36 1886.41ZM1239.84 1924.83L1261.65 1912.61C1261.42 1912.2 1261.17 1911.8 1260.92 1911.4L1239.84 1924.83ZM1244.43 1934.18L1221.49 1944.12C1221.58 1944.33 1221.67 1944.54 1221.77 1944.75L1244.43 1934.18ZM1248.85 1944.89L1225.35 1953.43C1228.94 1963.31 1238.33 1969.89 1248.85 1969.89V1944.89ZM1250.04 1944.89V1969.89C1257.21 1969.89 1264.03 1966.81 1268.78 1961.44C1273.52 1956.06 1275.73 1948.9 1274.84 1941.79L1250.04 1944.89ZM1248.85 1934.18L1223.9 1935.79C1223.91 1936.06 1223.94 1936.32 1223.96 1936.59L1248.85 1934.18ZM1248.51 1923.64H1273.51C1273.51 1923.61 1273.51 1923.58 1273.51 1923.55L1248.51 1923.64ZM1248.34 1875.7V1850.7C1241.69 1850.7 1235.32 1853.35 1230.63 1858.05C1225.94 1862.76 1223.31 1869.14 1223.34 1875.79L1248.34 1875.7ZM1441.84 1888.45L1466.82 1887.48C1466.82 1887.47 1466.82 1887.46 1466.82 1887.45L1441.84 1888.45ZM1445.92 1993V2018C1452.72 2018 1459.23 2015.23 1463.94 2010.33C1468.66 2005.43 1471.17 1998.82 1470.9 1992.03L1445.92 1993ZM1412.77 1993L1387.79 1993.99C1388.33 2007.4 1399.35 2018 1412.77 2018V1993ZM1409.2 1903.24L1434.18 1902.25C1433.65 1888.84 1422.62 1878.24 1409.2 1878.24V1903.24ZM1406.65 1903.24V1878.24C1394.67 1878.24 1384.38 1886.74 1382.11 1898.5L1406.65 1903.24ZM1395.09 1963.08L1370.55 1958.34C1370.48 1958.67 1370.43 1959 1370.38 1959.33L1395.09 1963.08ZM1348 1963.08L1372.6 1958.61C1372.58 1958.5 1372.56 1958.38 1372.54 1958.27L1348 1963.08ZM1336.27 1903.24L1360.81 1898.43C1358.51 1886.7 1348.23 1878.24 1336.27 1878.24V1903.24ZM1333.72 1903.24V1878.24C1320.23 1878.24 1309.17 1888.95 1308.74 1902.44L1333.72 1903.24ZM1330.83 1993V2018C1344.33 2018 1355.39 2007.29 1355.82 1993.8L1330.83 1993ZM1297.68 1993L1272.7 1992.03C1272.44 1998.82 1274.95 2005.43 1279.66 2010.33C1284.38 2015.23 1290.88 2018 1297.68 2018V1993ZM1301.76 1888.45L1276.78 1887.45C1276.78 1887.46 1276.78 1887.47 1276.78 1887.48L1301.76 1888.45ZM1360.41 1887.09L1335.8 1891.5C1335.81 1891.52 1335.81 1891.55 1335.82 1891.58L1360.41 1887.09ZM1368.91 1933.67L1393.6 1929.72C1393.57 1929.54 1393.54 1929.36 1393.51 1929.18L1368.91 1933.67ZM1369.93 1942.34L1345.01 1944.26C1345.03 1944.57 1345.06 1944.89 1345.1 1945.21L1369.93 1942.34ZM1370.78 1951.18L1345.86 1953.1C1346.86 1966.12 1357.72 1976.18 1370.78 1976.18V1951.18ZM1372.31 1951.18V1976.18C1385.01 1976.18 1395.69 1966.66 1397.15 1954.05L1372.31 1951.18ZM1373.16 1942.34L1348.33 1939.47C1348.29 1939.79 1348.26 1940.11 1348.24 1940.42L1373.16 1942.34ZM1374.35 1933.67L1349.71 1929.44C1349.7 1929.54 1349.68 1929.63 1349.67 1929.72L1374.35 1933.67ZM1382.34 1887.09L1357.73 1882.68C1357.72 1882.74 1357.71 1882.8 1357.7 1882.86L1382.34 1887.09ZM1509.19 1875.19L1508.79 1900.19C1508.92 1900.19 1509.06 1900.19 1509.19 1900.19V1875.19ZM1530.44 1875.7L1529.21 1900.67C1529.35 1900.68 1529.48 1900.68 1529.62 1900.69L1530.44 1875.7ZM1549.31 1877.23L1574.26 1878.86C1575.11 1865.8 1565.74 1854.29 1552.77 1852.47L1549.31 1877.23ZM1547.61 1903.24V1928.24C1560.78 1928.24 1571.7 1918.02 1572.56 1904.87L1547.61 1903.24ZM1547.61 1965.46L1572.56 1963.83C1571.7 1950.68 1560.78 1940.46 1547.61 1940.46V1965.46ZM1549.31 1991.47L1552.29 2016.29C1565.47 2014.71 1575.12 2003.09 1574.26 1989.84L1549.31 1991.47ZM1509.19 1993.51V1968.51C1509.06 1968.51 1508.92 1968.51 1508.79 1968.51L1509.19 1993.51ZM1468.39 1986.37L1450.91 2004.25C1451.04 2004.38 1451.18 2004.51 1451.32 2004.63L1468.39 1986.37ZM1468.39 1882.5L1485.66 1900.57L1485.67 1900.57L1468.39 1882.5ZM1463.8 1920.75V1895.75C1449.99 1895.75 1438.8 1906.94 1438.8 1920.75H1463.8ZM1541.49 1920.75H1566.49C1566.49 1906.94 1555.3 1895.75 1541.49 1895.75V1920.75ZM1541.49 1945.23V1970.23C1555.3 1970.23 1566.49 1959.04 1566.49 1945.23H1541.49ZM1463.8 1945.23H1438.8C1438.8 1959.04 1449.99 1970.23 1463.8 1970.23V1945.23ZM1670.81 1875.7H1695.81C1695.81 1861.89 1684.61 1850.7 1670.81 1850.7V1875.7ZM1635.28 1990.28L1617.6 2007.96C1617.78 2008.14 1617.96 2008.31 1618.14 2008.49L1635.28 1990.28ZM1629.67 1982.29L1651.59 1970.27C1651.34 1969.81 1651.07 1969.36 1650.79 1968.92L1629.67 1982.29ZM1604.17 1942L1582.16 1953.85C1582.43 1954.37 1582.73 1954.87 1583.04 1955.37L1604.17 1942ZM1599.75 1932.48L1576.19 1940.84C1576.3 1941.15 1576.41 1941.46 1576.54 1941.76L1599.75 1932.48ZM1596.35 1921.94L1620.36 1914.97C1617.26 1904.29 1607.47 1896.94 1596.35 1896.94V1921.94ZM1595.16 1921.94V1896.94C1587.83 1896.94 1580.87 1900.15 1576.12 1905.73C1571.37 1911.31 1569.31 1918.69 1570.48 1925.92L1595.16 1921.94ZM1596.35 1932.82L1571.39 1934.33C1571.41 1934.61 1571.43 1934.88 1571.46 1935.15L1596.35 1932.82ZM1596.86 1993V2018C1610.66 2018 1621.86 2006.81 1621.86 1993H1596.86ZM1562.86 1993H1537.86C1537.86 2006.81 1549.05 2018 1562.86 2018V1993ZM1598.22 1878.42L1580.54 1896.1L1580.54 1896.1L1598.22 1878.42ZM1604 1886.41L1582.38 1898.96C1582.55 1899.26 1582.73 1899.55 1582.91 1899.84L1604 1886.41ZM1628.48 1924.83L1650.29 1912.61C1650.06 1912.2 1649.82 1911.8 1649.56 1911.4L1628.48 1924.83ZM1633.07 1934.18L1610.13 1944.12C1610.22 1944.33 1610.32 1944.54 1610.41 1944.75L1633.07 1934.18ZM1637.49 1944.89L1613.99 1953.43C1617.59 1963.31 1626.98 1969.89 1637.49 1969.89V1944.89ZM1638.68 1944.89V1969.89C1645.85 1969.89 1652.67 1966.81 1657.42 1961.44C1662.17 1956.06 1664.37 1948.9 1663.48 1941.79L1638.68 1944.89ZM1637.49 1934.18L1612.54 1935.79C1612.56 1936.06 1612.58 1936.32 1612.6 1936.59L1637.49 1934.18ZM1637.15 1923.64H1662.15C1662.15 1923.61 1662.15 1923.58 1662.15 1923.55L1637.15 1923.64ZM1636.98 1875.7V1850.7C1630.33 1850.7 1623.96 1853.35 1619.27 1858.05C1614.58 1862.76 1611.95 1869.14 1611.98 1875.79L1636.98 1875.7ZM1750.93 1875.7H1775.93C1775.93 1861.89 1764.73 1850.7 1750.93 1850.7V1875.7ZM1750.93 1993V2018C1764.73 2018 1775.93 2006.81 1775.93 1993H1750.93ZM1714.04 1993H1689.04C1689.04 2006.81 1700.23 2018 1714.04 2018V1993ZM1714.04 1875.7V1850.7C1700.23 1850.7 1689.04 1861.89 1689.04 1875.7H1714.04ZM1783.74 1875.7H1808.74C1808.74 1861.89 1797.54 1850.7 1783.74 1850.7V1875.7ZM1783.74 1903.24V1928.24C1797.54 1928.24 1808.74 1917.05 1808.74 1903.24H1783.74ZM1681.23 1903.24H1656.23C1656.23 1917.05 1667.42 1928.24 1681.23 1928.24V1903.24ZM1681.23 1875.7V1850.7C1667.42 1850.7 1656.23 1861.89 1656.23 1875.7H1681.23ZM386.101 1875.02V1900.02C392.762 1900.02 399.599 1900.08 406.614 1900.19L407.011 1875.19L407.407 1850.19C400.142 1850.08 393.039 1850.02 386.101 1850.02V1875.02ZM407.011 1875.19V1900.19C413.874 1900.19 420.547 1900.35 427.033 1900.67L428.261 1875.7L429.489 1850.73C422.147 1850.37 414.654 1850.19 407.011 1850.19V1875.19ZM428.261 1875.7L427.441 1900.69C433.645 1900.89 439.034 1901.34 443.664 1901.99L447.131 1877.23L450.597 1852.47C443.894 1851.53 436.703 1850.96 429.08 1850.71L428.261 1875.7ZM447.131 1877.23L422.184 1875.6L420.484 1901.61L445.431 1903.24L470.377 1904.87L472.077 1878.86L447.131 1877.23ZM445.431 1903.24V1878.24H402.421V1903.24V1928.24H445.431V1903.24ZM402.421 1903.24V1878.24C395.835 1878.24 387.523 1880.06 380.504 1886.44L397.321 1904.94L414.137 1923.44C409.612 1927.55 404.699 1928.24 402.421 1928.24V1903.24ZM397.321 1904.94L380.504 1886.44C373.615 1892.7 370.451 1901.11 370.451 1909.36H395.451H420.451C420.451 1911.35 420.097 1913.91 418.942 1916.64C417.769 1919.41 416.047 1921.7 414.137 1923.44L397.321 1904.94ZM395.451 1909.36H370.451V1959.34H395.451H420.451V1909.36H395.451ZM395.451 1959.34H370.451C370.451 1967.59 373.615 1976 380.504 1982.26L397.321 1963.76L414.137 1945.26C416.047 1947 417.769 1949.29 418.942 1952.06C420.097 1954.79 420.451 1957.35 420.451 1959.34H395.451ZM397.321 1963.76L380.504 1982.26C387.523 1988.64 395.836 1990.46 402.421 1990.46V1965.46V1940.46C404.699 1940.46 409.612 1941.15 414.137 1945.26L397.321 1963.76ZM402.421 1965.46V1990.46H445.431V1965.46V1940.46H402.421V1965.46ZM445.431 1965.46L420.484 1967.09L422.184 1993.1L447.131 1991.47L472.077 1989.84L470.377 1963.83L445.431 1965.46ZM447.131 1991.47L444.152 1966.65C439.173 1967.25 433.479 1967.71 427.033 1968.03L428.261 1993L429.489 2017.97C436.869 2017.61 443.754 2017.05 450.109 2016.29L447.131 1991.47ZM428.261 1993L427.033 1968.03C420.547 1968.35 413.874 1968.51 407.011 1968.51V1993.51V2018.51C414.654 2018.51 422.147 2018.33 429.489 2017.97L428.261 1993ZM407.011 1993.51L406.614 1968.51C399.599 1968.62 392.762 1968.68 386.101 1968.68V1993.68V2018.68C393.039 2018.68 400.142 2018.62 407.407 2018.51L407.011 1993.51ZM386.101 1993.68V1968.68C384.615 1968.68 383.914 1968.46 383.717 1968.39C383.57 1968.33 383.475 1968.29 383.283 1968.11L366.211 1986.37L349.138 2004.63C359.583 2014.4 372.588 2018.68 386.101 2018.68V1993.68ZM366.211 1986.37L383.688 1968.49C383.606 1968.41 383.61 1968.4 383.649 1968.46C383.69 1968.52 383.717 1968.58 383.727 1968.61C383.758 1968.68 383.561 1968.26 383.561 1966.99H358.561H333.561C333.561 1980.82 338.259 1994 348.733 2004.25L366.211 1986.37ZM358.561 1966.99H383.561V1901.71H358.561H333.561V1966.99H358.561ZM358.561 1901.71H383.561C383.561 1900.44 383.759 1900.06 383.699 1900.21C383.674 1900.27 383.624 1900.37 383.552 1900.48C383.481 1900.58 383.441 1900.61 383.482 1900.57L366.211 1882.5L348.939 1864.43C338.265 1874.63 333.561 1887.89 333.561 1901.71H358.561ZM366.211 1882.5L383.491 1900.57C383.706 1900.36 383.795 1900.33 383.893 1900.29C384.039 1900.23 384.678 1900.02 386.101 1900.02V1875.02V1850.02C372.423 1850.02 359.348 1854.47 348.93 1864.43L366.211 1882.5ZM361.621 1920.75V1945.75H439.311V1920.75V1895.75H361.621V1920.75ZM439.311 1920.75H414.311V1945.23H439.311H464.311V1920.75H439.311ZM439.311 1945.23V1920.23H361.621V1945.23V1970.23H439.311V1945.23ZM361.621 1945.23H386.621V1920.75H361.621H336.621V1945.23H361.621ZM568.63 1875.7H543.63V1980.25H568.63H593.63V1875.7H568.63ZM568.63 1980.25H543.63C543.63 1980.65 543.548 1976.35 547.765 1972.13C551.982 1967.92 556.276 1968 555.88 1968V1993V2018C563.984 2018 574.653 2015.96 583.12 2007.49C591.587 1999.02 593.63 1988.35 593.63 1980.25H568.63ZM555.88 1993V1968H541.77V1993V2018H555.88V1993ZM541.77 1993V1968C541.777 1968 541.997 1968 542.392 1968.05C542.788 1968.11 543.41 1968.22 544.196 1968.47C545.831 1968.98 548.076 1970.04 550.234 1972.07L533.1 1990.28L515.966 2008.49C524.271 2016.3 534.428 2018 541.77 2018V1993ZM533.1 1990.28L550.778 1972.6C551.122 1972.95 551.112 1973 550.798 1972.56C550.497 1972.13 550.028 1971.39 549.41 1970.27L527.49 1982.29L505.57 1994.31C508.072 1998.87 511.27 2003.8 515.422 2007.96L533.1 1990.28ZM527.49 1982.29L548.615 1968.92L523.115 1928.63L501.99 1942L480.866 1955.37L506.366 1995.66L527.49 1982.29ZM501.99 1942L524.002 1930.15C522.903 1928.11 521.823 1925.8 520.782 1923.2L497.57 1932.48L474.358 1941.76C476.037 1945.96 477.904 1950 479.978 1953.85L501.99 1942ZM497.57 1932.48L521.131 1924.12C520.044 1921.06 519.06 1918.01 518.179 1914.97L494.17 1921.94L470.161 1928.91C471.32 1932.9 472.603 1936.88 474.009 1940.84L497.57 1932.48ZM494.17 1921.94V1896.94H492.98V1921.94V1946.94H494.17V1921.94ZM492.98 1921.94L468.299 1925.92C468.727 1928.57 469.037 1931.38 469.216 1934.33L494.17 1932.82L519.124 1931.31C518.85 1926.78 518.366 1922.33 517.661 1917.96L492.98 1921.94ZM494.17 1932.82L469.279 1935.15C469.552 1938.06 469.68 1940.79 469.68 1943.36H494.68H519.68C519.68 1939.13 519.469 1934.83 519.061 1930.49L494.17 1932.82ZM494.68 1943.36H469.68V1993H494.68H519.68V1943.36H494.68ZM494.68 1993V1968H460.68V1993V2018H494.68V1993ZM460.68 1993H485.68V1888.45H460.68H435.68V1993H460.68ZM460.68 1888.45H485.68C485.68 1888.05 485.762 1892.35 481.545 1896.57C477.328 1900.78 473.034 1900.7 473.43 1900.7V1875.7V1850.7C465.326 1850.7 454.657 1852.74 446.19 1861.21C437.723 1869.68 435.68 1880.35 435.68 1888.45H460.68ZM473.43 1875.7V1900.7H487.54V1875.7V1850.7H473.43V1875.7ZM487.54 1875.7V1900.7C487.534 1900.7 487.301 1900.7 486.88 1900.64C486.459 1900.59 485.787 1900.46 484.936 1900.19C483.167 1899.62 480.692 1898.43 478.362 1896.1L496.04 1878.42L513.718 1860.74C505.313 1852.34 494.733 1850.7 487.54 1850.7V1875.7ZM496.04 1878.42L478.362 1896.1C478.112 1895.85 478.199 1895.89 478.589 1896.43C478.965 1896.95 479.506 1897.77 480.2 1898.96L501.82 1886.41L523.44 1873.86C520.867 1869.43 517.683 1864.71 513.718 1860.74L496.04 1878.42ZM501.82 1886.41L480.736 1899.84L505.216 1938.26L526.3 1924.83L547.384 1911.4L522.904 1872.98L501.82 1886.41ZM526.3 1924.83L504.487 1937.05C505.608 1939.05 506.769 1941.39 507.951 1944.12L530.89 1934.18L553.829 1924.24C552.065 1920.17 550.166 1916.28 548.113 1912.61L526.3 1924.83ZM530.89 1934.18L508.235 1944.75C509.494 1947.45 510.69 1950.34 511.815 1953.43L535.31 1944.89L558.805 1936.35C557.21 1931.96 555.459 1927.71 553.545 1923.61L530.89 1934.18ZM535.31 1944.89V1969.89H536.5V1944.89V1919.89H535.31V1944.89ZM536.5 1944.89L561.307 1941.79C560.881 1938.38 560.511 1935.05 560.194 1931.77L535.31 1934.18L510.426 1936.59C510.789 1940.34 511.212 1944.14 511.693 1947.99L536.5 1944.89ZM535.31 1934.18L560.258 1932.57C560.066 1929.59 559.97 1926.62 559.97 1923.64H534.97H509.97C509.97 1927.69 510.101 1931.74 510.362 1935.79L535.31 1934.18ZM534.97 1923.64L559.97 1923.55L559.8 1875.61L534.8 1875.7L509.8 1875.79L509.97 1923.73L534.97 1923.64ZM534.8 1875.7V1900.7H568.63V1875.7V1850.7H534.8V1875.7ZM648.748 1875.7H623.748V1993H648.748H673.748V1875.7H648.748ZM648.748 1993V1968H611.858V1993V2018H648.748V1993ZM611.858 1993H636.858V1875.7H611.858H586.858V1993H611.858ZM611.858 1875.7V1900.7H648.748V1875.7V1850.7H611.858V1875.7ZM681.558 1875.7H656.558V1903.24H681.558H706.558V1875.7H681.558ZM681.558 1903.24V1878.24H579.048V1903.24V1928.24H681.558V1903.24ZM579.048 1903.24H604.048V1875.7H579.048H554.048V1903.24H579.048ZM579.048 1875.7V1900.7H681.558V1875.7V1850.7H579.048V1875.7ZM718.796 1875.02V1900.02C725.457 1900.02 732.295 1900.08 739.309 1900.19L739.706 1875.19L740.103 1850.19C732.837 1850.08 725.735 1850.02 718.796 1850.02V1875.02ZM739.706 1875.19V1900.19C746.569 1900.19 753.242 1900.35 759.728 1900.67L760.956 1875.7L762.184 1850.73C754.843 1850.37 747.349 1850.19 739.706 1850.19V1875.19ZM760.956 1875.7L760.137 1900.69C766.34 1900.89 771.729 1901.34 776.36 1901.99L779.826 1877.23L783.292 1852.47C776.589 1851.53 769.398 1850.96 761.775 1850.71L760.956 1875.7ZM779.826 1877.23L754.879 1875.6L753.179 1901.61L778.126 1903.24L803.073 1904.87L804.773 1878.86L779.826 1877.23ZM778.126 1903.24V1878.24H735.116V1903.24V1928.24H778.126V1903.24ZM735.116 1903.24V1878.24C728.531 1878.24 720.218 1880.06 713.199 1886.44L730.016 1904.94L746.833 1923.44C742.307 1927.55 737.394 1928.24 735.116 1928.24V1903.24ZM730.016 1904.94L713.199 1886.44C706.31 1892.7 703.146 1901.11 703.146 1909.36H728.146H753.146C753.146 1911.35 752.793 1913.91 751.638 1916.64C750.464 1919.41 748.743 1921.7 746.833 1923.44L730.016 1904.94ZM728.146 1909.36H703.146V1959.34H728.146H753.146V1909.36H728.146ZM728.146 1959.34H703.146C703.146 1967.59 706.31 1976 713.199 1982.26L730.016 1963.76L746.833 1945.26C748.743 1947 750.464 1949.29 751.638 1952.06C752.793 1954.79 753.146 1957.35 753.146 1959.34H728.146ZM730.016 1963.76L713.199 1982.26C720.218 1988.64 728.531 1990.46 735.116 1990.46V1965.46V1940.46C737.394 1940.46 742.307 1941.15 746.833 1945.26L730.016 1963.76ZM735.116 1965.46V1990.46H778.126V1965.46V1940.46H735.116V1965.46ZM778.126 1965.46L753.179 1967.09L754.879 1993.1L779.826 1991.47L804.773 1989.84L803.073 1963.83L778.126 1965.46ZM779.826 1991.47L776.847 1966.65C771.869 1967.25 766.174 1967.71 759.728 1968.03L760.956 1993L762.184 2017.97C769.564 2017.61 776.45 2017.05 782.804 2016.29L779.826 1991.47ZM760.956 1993L759.728 1968.03C753.242 1968.35 746.569 1968.51 739.706 1968.51V1993.51V2018.51C747.349 2018.51 754.843 2018.33 762.184 2017.97L760.956 1993ZM739.706 1993.51L739.309 1968.51C732.295 1968.62 725.457 1968.68 718.796 1968.68V1993.68V2018.68C725.735 2018.68 732.837 2018.62 740.103 2018.51L739.706 1993.51ZM718.796 1993.68V1968.68C717.31 1968.68 716.61 1968.46 716.412 1968.39C716.266 1968.33 716.17 1968.29 715.978 1968.11L698.906 1986.37L681.834 2004.63C692.279 2014.4 705.283 2018.68 718.796 2018.68V1993.68ZM698.906 1986.37L716.384 1968.49C716.301 1968.41 716.305 1968.4 716.344 1968.46C716.385 1968.52 716.413 1968.58 716.422 1968.61C716.453 1968.68 716.256 1968.26 716.256 1966.99H691.256H666.256C666.256 1980.82 670.955 1994 681.428 2004.25L698.906 1986.37ZM691.256 1966.99H716.256V1901.71H691.256H666.256V1966.99H691.256ZM691.256 1901.71H716.256C716.256 1900.44 716.454 1900.06 716.394 1900.21C716.37 1900.27 716.32 1900.37 716.248 1900.48C716.176 1900.58 716.136 1900.61 716.177 1900.57L698.906 1882.5L681.634 1864.43C670.96 1874.63 666.256 1887.88 666.256 1901.71H691.256ZM698.906 1882.5L716.186 1900.57C716.401 1900.36 716.491 1900.33 716.588 1900.29C716.735 1900.23 717.374 1900.02 718.796 1900.02V1875.02V1850.02C705.118 1850.02 692.044 1854.47 681.625 1864.43L698.906 1882.5ZM694.316 1920.75V1945.75H772.006V1920.75V1895.75H694.316V1920.75ZM772.006 1920.75H747.006V1945.23H772.006H797.006V1920.75H772.006ZM772.006 1945.23V1920.23H694.316V1945.23V1970.23H772.006V1945.23ZM694.316 1945.23H719.316V1920.75H694.316H669.316V1945.23H694.316ZM843.185 1874V1899C853.464 1899 860.224 1899.99 864.29 1901.2L871.405 1877.23L878.52 1853.26C868.081 1850.16 856.026 1849 843.185 1849V1874ZM871.405 1877.23L864.29 1901.2C865.8 1901.64 866.462 1902.06 866.621 1902.17C866.728 1902.24 866.588 1902.16 866.445 1901.94L887.385 1888.28L908.326 1874.62C901.026 1863.43 890.183 1856.73 878.52 1853.26L871.405 1877.23ZM887.385 1888.28L866.798 1902.46C866.55 1902.1 866.774 1902.26 867.062 1903.43C867.358 1904.64 867.655 1906.65 867.655 1909.7H892.655H917.655C917.655 1897.77 915.439 1884.93 907.973 1874.1L887.385 1888.28ZM892.655 1909.7H867.655C867.655 1911.66 867.354 1913.13 866.932 1914.3L890.445 1922.79L913.959 1931.28C916.484 1924.29 917.655 1917.03 917.655 1909.7H892.655ZM890.445 1922.79L866.797 1914.68C866.929 1914.3 867.166 1913.81 867.515 1913.34C867.859 1912.88 868.158 1912.63 868.239 1912.57L883.135 1932.65L898.032 1952.73C905.419 1947.25 911.02 1939.86 914.094 1930.9L890.445 1922.79ZM883.135 1932.65L867.925 1912.81C868.693 1912.22 869.132 1912.11 868.857 1912.21C868.562 1912.31 867.707 1912.55 866.095 1912.73L868.855 1937.58L871.616 1962.43C880.394 1961.45 890.082 1958.83 898.346 1952.49L883.135 1932.65ZM868.855 1937.58H843.855V1938.6H868.855H893.855V1937.58H868.855ZM868.855 1938.6L866.238 1963.46C865.96 1963.43 865.749 1963.4 865.61 1963.37C865.471 1963.34 865.396 1963.32 865.387 1963.32C865.379 1963.32 865.429 1963.33 865.539 1963.37C865.649 1963.41 865.812 1963.47 866.027 1963.57L875.995 1940.64L885.964 1917.71C881.706 1915.86 876.811 1914.3 871.472 1913.74L868.855 1938.6ZM875.995 1940.64L866.885 1963.92C864.953 1963.16 864.212 1962.22 864.44 1962.48L883.305 1946.08L902.171 1929.68C897.865 1924.72 892.251 1920.16 885.105 1917.36L875.995 1940.64ZM883.305 1946.08L864.807 1962.9C863.824 1961.82 863.402 1960.94 863.291 1960.69C863.19 1960.46 863.329 1960.7 863.507 1961.64L888.065 1956.96L912.624 1952.28C911.212 1944.87 908.244 1936.35 901.804 1929.26L883.305 1946.08ZM888.065 1956.96L863.839 1963.13L873.019 1999.17L897.245 1993L921.472 1986.83L912.292 1950.79L888.065 1956.96ZM897.245 1993V1968H858.655V1993V2018H897.245V1993ZM858.655 1993L883.074 1987.64L875.424 1952.79L851.005 1958.15L826.587 1963.51L834.237 1998.36L858.655 1993ZM851.005 1958.15L875.487 1953.08C874.517 1948.4 871.782 1937.9 862.006 1931.14L847.775 1951.69L833.545 1972.24C829.843 1969.68 828.048 1966.69 827.327 1965.25C826.6 1963.8 826.465 1962.93 826.524 1963.22L851.005 1958.15ZM847.775 1951.69L862.775 1931.69C854.694 1925.63 845.504 1925.16 840.975 1925.16V1950.16V1975.16C841.337 1975.16 840.754 1975.2 839.568 1974.93C838.445 1974.68 835.755 1973.92 832.775 1971.69L847.775 1951.69ZM840.975 1950.16L841.309 1925.16C832.752 1925.05 825.66 1924.99 820.065 1924.99V1949.99V1974.99C825.351 1974.99 832.199 1975.05 840.642 1975.16L840.975 1950.16ZM820.065 1949.99V1924.99C814.895 1924.99 810.63 1924.93 807.223 1924.83L806.465 1949.82L805.708 1974.81C809.781 1974.93 814.582 1974.99 820.065 1974.99V1949.99ZM806.465 1949.82L807.223 1924.83C803.735 1924.73 800.247 1924.57 796.758 1924.36L795.245 1949.31L793.733 1974.26C797.724 1974.51 801.716 1974.69 805.708 1974.81L806.465 1949.82ZM795.245 1949.31L820.24 1949.82L820.75 1924.66L795.755 1924.15L770.761 1923.64L770.251 1948.8L795.245 1949.31ZM795.755 1924.15V1949.15H842.335V1924.15V1899.15H795.755V1924.15ZM842.335 1924.15V1949.15C846.949 1949.15 852.964 1948.77 858.816 1946.7L850.495 1923.13L842.175 1899.56C842.804 1899.33 843.278 1899.22 843.541 1899.16C843.81 1899.1 843.942 1899.08 843.91 1899.09C843.88 1899.09 843.736 1899.11 843.46 1899.12C843.186 1899.14 842.815 1899.15 842.335 1899.15V1924.15ZM850.495 1923.13L858.816 1946.7C866.653 1943.94 873.935 1938.05 877.617 1928.84L854.405 1919.56L831.193 1910.28C832.199 1907.76 833.824 1905.31 836.061 1903.27C838.243 1901.27 840.472 1900.16 842.175 1899.56L850.495 1923.13ZM854.405 1919.56L877.309 1929.58C880.069 1923.27 880.595 1916.86 880.595 1912.08H855.595H830.595C830.595 1912.67 830.555 1912.73 830.608 1912.4C830.657 1912.1 830.85 1911.03 831.501 1909.54L854.405 1919.56ZM855.595 1912.08H880.595C880.595 1907.49 880.153 1900.65 877.06 1894.03L854.405 1904.6L831.751 1915.17C830.89 1913.33 830.658 1911.99 830.608 1911.67C830.549 1911.3 830.595 1911.38 830.595 1912.08H855.595ZM854.405 1904.6L877.617 1895.32C873.935 1886.11 866.653 1880.22 858.816 1877.46L850.495 1901.03L842.175 1924.6C840.472 1924 838.243 1922.89 836.061 1920.89C833.824 1918.85 832.199 1916.4 831.193 1913.88L854.405 1904.6ZM850.495 1901.03L858.816 1877.46C852.964 1875.39 846.949 1875.01 842.335 1875.01V1900.01V1925.01C842.815 1925.01 843.186 1925.02 843.46 1925.04C843.736 1925.05 843.88 1925.07 843.91 1925.07C843.942 1925.08 843.81 1925.06 843.541 1925C843.278 1924.94 842.803 1924.83 842.175 1924.6L850.495 1901.03ZM842.335 1900.01V1875.01C830.48 1875.01 820.437 1875.07 812.233 1875.18L812.585 1900.18L812.937 1925.18C820.827 1925.07 830.618 1925.01 842.335 1925.01V1900.01ZM812.585 1900.18L812.233 1875.18C804.302 1875.29 797.604 1875.52 793.23 1876.02L796.095 1900.86L798.961 1925.7C800.48 1925.52 804.775 1925.29 812.937 1925.18L812.585 1900.18ZM796.095 1900.86L820.951 1898.17L818.231 1873.01L793.375 1875.7L768.52 1878.39L771.24 1903.55L796.095 1900.86ZM793.375 1875.7L796.077 1900.55C800.879 1900.03 805.263 1899.68 809.244 1899.48L807.995 1874.51L806.747 1849.54C801.661 1849.8 796.298 1850.24 790.674 1850.85L793.375 1875.7ZM807.995 1874.51L809.213 1899.48C813.394 1899.28 818.026 1899.17 823.125 1899.17V1874.17V1849.17C817.345 1849.17 811.891 1849.29 806.777 1849.54L807.995 1874.51ZM823.125 1874.17L823.635 1899.16C828.966 1899.06 835.473 1899 843.185 1899V1874V1849C835.258 1849 828.391 1849.06 822.615 1849.18L823.125 1874.17ZM829.585 1875.7H804.585V1993H829.585H854.585V1875.7H829.585ZM829.585 1993V1968H793.375V1993V2018H829.585V1993ZM793.375 1993H818.375V1875.7H793.375H768.375V1993H793.375ZM793.375 1875.7V1900.7H829.585V1875.7V1850.7H793.375V1875.7ZM969.988 1875.7H944.988V1993H969.988H994.988V1875.7H969.988ZM969.988 1993V1968H933.098V1993V2018H969.988V1993ZM933.098 1993H958.098V1875.7H933.098H908.098V1993H933.098ZM933.098 1875.7V1900.7H969.988V1875.7V1850.7H933.098V1875.7ZM1002.8 1875.7H977.798V1903.24H1002.8H1027.8V1875.7H1002.8ZM1002.8 1903.24V1878.24H900.288V1903.24V1928.24H1002.8V1903.24ZM900.288 1903.24H925.288V1875.7H900.288H875.288V1903.24H900.288ZM900.288 1875.7V1900.7H1002.8V1875.7V1850.7H900.288V1875.7ZM1069.51 1875.7V1900.7C1068.55 1900.7 1067.31 1900.56 1065.93 1900.11C1064.54 1899.65 1063.32 1898.99 1062.33 1898.25L1077.33 1878.25L1092.33 1858.25C1085.56 1853.17 1077.64 1850.7 1069.51 1850.7V1875.7ZM1077.33 1878.25L1062.33 1898.25C1061.2 1897.4 1060.15 1896.31 1059.3 1895.02C1058.46 1893.75 1058.01 1892.57 1057.78 1891.72L1081.92 1885.22L1106.06 1878.72C1103.94 1870.82 1099.42 1863.57 1092.33 1858.25L1077.33 1878.25ZM1081.92 1885.22L1057.86 1892.01L1088.29 1999.79L1112.35 1993L1136.41 1986.21L1105.98 1878.43L1081.92 1885.22ZM1112.35 1993V1968H1074.78V1993V2018H1112.35V1993ZM1074.78 1993L1099.14 1987.36L1081.46 1911.03L1057.1 1916.67L1032.75 1922.31L1050.43 1998.64L1074.78 1993ZM1057.1 1916.67L1081.56 1911.52C1081.22 1909.86 1080.91 1908.13 1080.63 1906.33L1055.91 1910.04L1031.19 1913.75C1031.6 1916.48 1032.08 1919.17 1032.64 1921.82L1057.1 1916.67ZM1055.91 1910.04L1080.66 1906.5C1080.36 1904.4 1080.11 1902.44 1079.92 1900.62L1055.06 1903.24L1030.2 1905.86C1030.46 1908.35 1030.78 1910.92 1031.16 1913.58L1055.91 1910.04ZM1055.06 1903.24V1878.24H1050.47V1903.24V1928.24H1055.06V1903.24ZM1050.47 1903.24L1025.61 1900.62C1025.42 1902.44 1025.17 1904.4 1024.87 1906.5L1049.62 1910.04L1074.37 1913.58C1074.75 1910.92 1075.07 1908.35 1075.33 1905.86L1050.47 1903.24ZM1049.62 1910.04L1024.9 1906.33C1024.63 1908.13 1024.32 1909.86 1023.97 1911.52L1048.43 1916.67L1072.89 1921.82C1073.45 1919.17 1073.94 1916.48 1074.34 1913.75L1049.62 1910.04ZM1048.43 1916.67L1024.08 1911.03L1006.4 1987.36L1030.75 1993L1055.11 1998.64L1072.79 1922.31L1048.43 1916.67ZM1030.75 1993V1968H993.181V1993V2018H1030.75V1993ZM993.181 1993L1017.24 1999.79L1047.67 1892.01L1023.61 1885.22L999.552 1878.43L969.122 1986.21L993.181 1993ZM1023.61 1885.22L1047.75 1891.72C1047.52 1892.57 1047.07 1893.75 1046.23 1895.02C1045.38 1896.31 1044.33 1897.4 1043.2 1898.25L1028.2 1878.25L1013.2 1858.25C1006.11 1863.57 1001.6 1870.82 999.471 1878.72L1023.61 1885.22ZM1028.2 1878.25L1043.2 1898.25C1042.22 1898.99 1041 1899.65 1039.61 1900.11C1038.23 1900.56 1036.98 1900.7 1036.02 1900.7V1875.7V1850.7C1027.9 1850.7 1019.98 1853.17 1013.2 1858.25L1028.2 1878.25ZM1036.02 1875.7V1900.7H1069.51V1875.7V1850.7H1036.02V1875.7ZM1083.96 1941.83H1058.96V1967.67H1083.96H1108.96V1941.83H1083.96ZM1083.96 1967.67V1942.67H1021.57V1967.67V1992.67H1083.96V1967.67ZM1021.57 1967.67H1046.57V1941.83H1021.57H996.571V1967.67H1021.57ZM1021.57 1941.83V1966.83H1083.96V1941.83V1916.83H1021.57V1941.83ZM1156.32 1875.7H1131.32V1993H1156.32H1181.32V1875.7H1156.32ZM1156.32 1993V1968H1119.77V1993V2018H1156.32V1993ZM1119.77 1993H1144.77V1875.7H1119.77H1094.77V1993H1119.77ZM1119.77 1875.7V1900.7H1156.32V1875.7V1850.7H1119.77V1875.7ZM1282.17 1875.7H1257.17V1980.25H1282.17H1307.17V1875.7H1282.17ZM1282.17 1980.25H1257.17C1257.17 1980.65 1257.08 1976.35 1261.3 1972.13C1265.52 1967.92 1269.81 1968 1269.42 1968V1993V2018C1277.52 2018 1288.19 2015.96 1296.66 2007.49C1305.12 1999.02 1307.17 1988.35 1307.17 1980.25H1282.17ZM1269.42 1993V1968H1255.31V1993V2018H1269.42V1993ZM1255.31 1993V1968C1255.31 1968 1255.53 1968 1255.93 1968.05C1256.32 1968.11 1256.94 1968.22 1257.73 1968.47C1259.37 1968.98 1261.61 1970.04 1263.77 1972.07L1246.64 1990.28L1229.5 2008.49C1237.81 2016.3 1247.96 2018 1255.31 2018V1993ZM1246.64 1990.28L1264.31 1972.6C1264.66 1972.95 1264.65 1973 1264.33 1972.56C1264.03 1972.13 1263.56 1971.39 1262.95 1970.27L1241.03 1982.29L1219.1 1994.31C1221.61 1998.87 1224.8 2003.8 1228.96 2007.96L1246.64 1990.28ZM1241.03 1982.29L1262.15 1968.92L1236.65 1928.63L1215.53 1942L1194.4 1955.37L1219.9 1995.66L1241.03 1982.29ZM1215.53 1942L1237.54 1930.15C1236.44 1928.11 1235.36 1925.8 1234.32 1923.2L1211.11 1932.48L1187.89 1941.76C1189.57 1945.96 1191.44 1950 1193.51 1953.85L1215.53 1942ZM1211.11 1932.48L1234.67 1924.12C1233.58 1921.06 1232.6 1918.01 1231.71 1914.97L1207.71 1921.94L1183.7 1928.91C1184.85 1932.9 1186.14 1936.88 1187.54 1940.84L1211.11 1932.48ZM1207.71 1921.94V1896.94H1206.52V1921.94V1946.94H1207.71V1921.94ZM1206.52 1921.94L1181.83 1925.92C1182.26 1928.57 1182.57 1931.38 1182.75 1934.33L1207.71 1932.82L1232.66 1931.31C1232.39 1926.78 1231.9 1922.33 1231.2 1917.96L1206.52 1921.94ZM1207.71 1932.82L1182.81 1935.15C1183.09 1938.06 1183.22 1940.79 1183.22 1943.36H1208.22H1233.22C1233.22 1939.13 1233 1934.83 1232.6 1930.49L1207.71 1932.82ZM1208.22 1943.36H1183.22V1993H1208.22H1233.22V1943.36H1208.22ZM1208.22 1993V1968H1174.22V1993V2018H1208.22V1993ZM1174.22 1993H1199.22V1888.45H1174.22H1149.22V1993H1174.22ZM1174.22 1888.45H1199.22C1199.22 1888.05 1199.3 1892.35 1195.08 1896.57C1190.86 1900.78 1186.57 1900.7 1186.97 1900.7V1875.7V1850.7C1178.86 1850.7 1168.19 1852.74 1159.73 1861.21C1151.26 1869.68 1149.22 1880.35 1149.22 1888.45H1174.22ZM1186.97 1875.7V1900.7H1201.08V1875.7V1850.7H1186.97V1875.7ZM1201.08 1875.7V1900.7C1201.07 1900.7 1200.84 1900.7 1200.41 1900.64C1199.99 1900.59 1199.32 1900.46 1198.47 1900.19C1196.7 1899.62 1194.23 1898.43 1191.9 1896.1L1209.58 1878.42L1227.25 1860.74C1218.85 1852.34 1208.27 1850.7 1201.08 1850.7V1875.7ZM1209.58 1878.42L1191.9 1896.1C1191.65 1895.85 1191.73 1895.89 1192.12 1896.43C1192.5 1896.95 1193.04 1897.77 1193.74 1898.96L1215.36 1886.41L1236.97 1873.86C1234.4 1869.43 1231.22 1864.71 1227.25 1860.74L1209.58 1878.42ZM1215.36 1886.41L1194.27 1899.84L1218.75 1938.26L1239.84 1924.83L1260.92 1911.4L1236.44 1872.98L1215.36 1886.41ZM1239.84 1924.83L1218.02 1937.05C1219.14 1939.05 1220.3 1941.39 1221.49 1944.12L1244.43 1934.18L1267.36 1924.24C1265.6 1920.17 1263.7 1916.28 1261.65 1912.61L1239.84 1924.83ZM1244.43 1934.18L1221.77 1944.75C1223.03 1947.45 1224.23 1950.34 1225.35 1953.43L1248.85 1944.89L1272.34 1936.35C1270.74 1931.96 1268.99 1927.71 1267.08 1923.61L1244.43 1934.18ZM1248.85 1944.89V1969.89H1250.04V1944.89V1919.89H1248.85V1944.89ZM1250.04 1944.89L1274.84 1941.79C1274.42 1938.38 1274.05 1935.05 1273.73 1931.77L1248.85 1934.18L1223.96 1936.59C1224.32 1940.34 1224.75 1944.14 1225.23 1947.99L1250.04 1944.89ZM1248.85 1934.18L1273.79 1932.57C1273.6 1929.59 1273.51 1926.62 1273.51 1923.64H1248.51H1223.51C1223.51 1927.69 1223.64 1931.74 1223.9 1935.79L1248.85 1934.18ZM1248.51 1923.64L1273.51 1923.55L1273.34 1875.61L1248.34 1875.7L1223.34 1875.79L1223.51 1923.73L1248.51 1923.64ZM1248.34 1875.7V1900.7H1282.17V1875.7V1850.7H1248.34V1875.7ZM1428.92 1875.7V1900.7C1428.91 1900.7 1427.93 1900.71 1426.38 1900.18C1424.72 1899.62 1422.67 1898.53 1420.8 1896.68C1416.88 1892.82 1416.84 1888.96 1416.86 1889.45L1441.84 1888.45L1466.82 1887.45C1466.5 1879.44 1464.14 1869.21 1455.92 1861.09C1447.58 1852.87 1437.17 1850.7 1428.92 1850.7V1875.7ZM1441.84 1888.45L1416.86 1889.42L1420.94 1993.97L1445.92 1993L1470.9 1992.03L1466.82 1887.48L1441.84 1888.45ZM1445.92 1993V1968H1412.77V1993V2018H1445.92V1993ZM1412.77 1993L1437.75 1992.01L1434.18 1902.25L1409.2 1903.24L1384.22 1904.23L1387.79 1993.99L1412.77 1993ZM1409.2 1903.24V1878.24H1406.65V1903.24V1928.24H1409.2V1903.24ZM1406.65 1903.24L1382.11 1898.5L1370.55 1958.34L1395.09 1963.08L1419.64 1967.82L1431.2 1907.98L1406.65 1903.24ZM1395.09 1963.08L1370.38 1959.33C1370.49 1958.61 1371.32 1955.05 1375.08 1952.02C1378.59 1949.2 1381.61 1949.3 1381.15 1949.3V1974.3V1999.3C1388.85 1999.3 1398.28 1997.53 1406.43 1990.97C1414.84 1984.2 1418.57 1975.03 1419.81 1966.83L1395.09 1963.08ZM1381.15 1974.3V1949.3H1362.11V1974.3V1999.3H1381.15V1974.3ZM1362.11 1974.3V1949.3C1361.83 1949.3 1364.74 1949.25 1368.11 1951.93C1371.65 1954.75 1372.49 1958.02 1372.6 1958.61L1348 1963.08L1323.41 1967.55C1324.87 1975.62 1328.74 1984.5 1336.99 1991.06C1345.06 1997.48 1354.35 1999.3 1362.11 1999.3V1974.3ZM1348 1963.08L1372.54 1958.27L1360.81 1898.43L1336.27 1903.24L1311.74 1908.05L1323.47 1967.89L1348 1963.08ZM1336.27 1903.24V1878.24H1333.72V1903.24V1928.24H1336.27V1903.24ZM1333.72 1903.24L1308.74 1902.44L1305.85 1992.2L1330.83 1993L1355.82 1993.8L1358.71 1904.04L1333.72 1903.24ZM1330.83 1993V1968H1297.68V1993V2018H1330.83V1993ZM1297.68 1993L1322.66 1993.97L1326.74 1889.42L1301.76 1888.45L1276.78 1887.48L1272.7 1992.03L1297.68 1993ZM1301.76 1888.45L1326.74 1889.45C1326.76 1888.96 1326.72 1892.82 1322.81 1896.68C1320.93 1898.53 1318.89 1899.62 1317.22 1900.18C1315.67 1900.71 1314.69 1900.7 1314.68 1900.7V1875.7V1850.7C1306.44 1850.7 1296.02 1852.87 1287.69 1861.09C1279.47 1869.2 1277.1 1879.44 1276.78 1887.45L1301.76 1888.45ZM1314.68 1875.7V1900.7H1346.47V1875.7V1850.7H1314.68V1875.7ZM1346.47 1875.7V1900.7C1346.47 1900.7 1346.3 1900.7 1345.99 1900.66C1345.67 1900.62 1345.19 1900.53 1344.58 1900.35C1343.32 1899.96 1341.7 1899.22 1340.09 1897.91C1336.6 1895.06 1335.87 1891.86 1335.8 1891.5L1360.41 1887.09L1385.02 1882.68C1383.6 1874.73 1379.86 1865.83 1371.73 1859.19C1363.68 1852.61 1354.34 1850.7 1346.47 1850.7V1875.7ZM1360.41 1887.09L1335.82 1891.58L1344.32 1938.16L1368.91 1933.67L1393.51 1929.18L1385.01 1882.6L1360.41 1887.09ZM1368.91 1933.67L1344.23 1937.62C1344.57 1939.76 1344.83 1941.97 1345.01 1944.26L1369.93 1942.34L1394.86 1940.42C1394.58 1936.82 1394.16 1933.25 1393.6 1929.72L1368.91 1933.67ZM1369.93 1942.34L1345.1 1945.21C1345.4 1947.84 1345.65 1950.47 1345.86 1953.1L1370.78 1951.18L1395.71 1949.26C1395.46 1946 1395.14 1942.74 1394.77 1939.47L1369.93 1942.34ZM1370.78 1951.18V1976.18H1372.31V1951.18V1926.18H1370.78V1951.18ZM1372.31 1951.18L1397.15 1954.05C1397.52 1950.78 1397.84 1947.52 1398.09 1944.26L1373.16 1942.34L1348.24 1940.42C1348.03 1943.05 1347.78 1945.68 1347.48 1948.31L1372.31 1951.18ZM1373.16 1942.34L1398 1945.21C1398.3 1942.61 1398.65 1940.08 1399.04 1937.62L1374.35 1933.67L1349.67 1929.72C1349.15 1932.93 1348.71 1936.18 1348.33 1939.47L1373.16 1942.34ZM1374.35 1933.67L1398.99 1937.9L1406.98 1891.32L1382.34 1887.09L1357.7 1882.86L1349.71 1929.44L1374.35 1933.67ZM1382.34 1887.09L1406.95 1891.5C1406.87 1891.94 1406.1 1895.17 1402.59 1898C1399.22 1900.73 1396.25 1900.7 1396.45 1900.7V1875.7V1850.7C1388.61 1850.7 1379.27 1852.57 1371.19 1859.09C1362.98 1865.72 1359.17 1874.64 1357.73 1882.68L1382.34 1887.09ZM1396.45 1875.7V1900.7H1428.92V1875.7V1850.7H1396.45V1875.7ZM1488.28 1875.02V1900.02C1494.94 1900.02 1501.78 1900.08 1508.79 1900.19L1509.19 1875.19L1509.59 1850.19C1502.32 1850.08 1495.22 1850.02 1488.28 1850.02V1875.02ZM1509.19 1875.19V1900.19C1516.05 1900.19 1522.72 1900.35 1529.21 1900.67L1530.44 1875.7L1531.67 1850.73C1524.33 1850.37 1516.83 1850.19 1509.19 1850.19V1875.19ZM1530.44 1875.7L1529.62 1900.69C1535.82 1900.89 1541.21 1901.34 1545.84 1901.99L1549.31 1877.23L1552.77 1852.47C1546.07 1851.53 1538.88 1850.96 1531.26 1850.71L1530.44 1875.7ZM1549.31 1877.23L1524.36 1875.6L1522.66 1901.61L1547.61 1903.24L1572.56 1904.87L1574.26 1878.86L1549.31 1877.23ZM1547.61 1903.24V1878.24H1504.6V1903.24V1928.24H1547.61V1903.24ZM1504.6 1903.24V1878.24C1498.01 1878.24 1489.7 1880.06 1482.68 1886.44L1499.5 1904.94L1516.32 1923.44C1511.79 1927.55 1506.88 1928.24 1504.6 1928.24V1903.24ZM1499.5 1904.94L1482.68 1886.44C1475.79 1892.7 1472.63 1901.11 1472.63 1909.36H1497.63H1522.63C1522.63 1911.35 1522.28 1913.91 1521.12 1916.64C1519.95 1919.41 1518.23 1921.7 1516.32 1923.44L1499.5 1904.94ZM1497.63 1909.36H1472.63V1959.34H1497.63H1522.63V1909.36H1497.63ZM1497.63 1959.34H1472.63C1472.63 1967.59 1475.79 1976 1482.68 1982.26L1499.5 1963.76L1516.32 1945.26C1518.23 1947 1519.95 1949.29 1521.12 1952.06C1522.28 1954.79 1522.63 1957.35 1522.63 1959.34H1497.63ZM1499.5 1963.76L1482.68 1982.26C1489.7 1988.64 1498.01 1990.46 1504.6 1990.46V1965.46V1940.46C1506.88 1940.46 1511.79 1941.15 1516.32 1945.26L1499.5 1963.76ZM1504.6 1965.46V1990.46H1547.61V1965.46V1940.46H1504.6V1965.46ZM1547.61 1965.46L1522.66 1967.09L1524.36 1993.1L1549.31 1991.47L1574.26 1989.84L1572.56 1963.83L1547.61 1965.46ZM1549.31 1991.47L1546.33 1966.65C1541.35 1967.25 1535.66 1967.71 1529.21 1968.03L1530.44 1993L1531.67 2017.97C1539.05 2017.61 1545.93 2017.05 1552.29 2016.29L1549.31 1991.47ZM1530.44 1993L1529.21 1968.03C1522.72 1968.35 1516.05 1968.51 1509.19 1968.51V1993.51V2018.51C1516.83 2018.51 1524.33 2018.33 1531.67 2017.97L1530.44 1993ZM1509.19 1993.51L1508.79 1968.51C1501.78 1968.62 1494.94 1968.68 1488.28 1968.68V1993.68V2018.68C1495.22 2018.68 1502.32 2018.62 1509.59 2018.51L1509.19 1993.51ZM1488.28 1993.68V1968.68C1486.79 1968.68 1486.09 1968.46 1485.89 1968.39C1485.75 1968.33 1485.65 1968.29 1485.46 1968.11L1468.39 1986.37L1451.32 2004.63C1461.76 2014.4 1474.77 2018.68 1488.28 2018.68V1993.68ZM1468.39 1986.37L1485.87 1968.49C1485.78 1968.41 1485.79 1968.4 1485.83 1968.46C1485.87 1968.52 1485.9 1968.58 1485.9 1968.61C1485.94 1968.68 1485.74 1968.26 1485.74 1966.99H1460.74H1435.74C1435.74 1980.82 1440.44 1994 1450.91 2004.25L1468.39 1986.37ZM1460.74 1966.99H1485.74V1901.71H1460.74H1435.74V1966.99H1460.74ZM1460.74 1901.71H1485.74C1485.74 1900.44 1485.94 1900.06 1485.88 1900.21C1485.85 1900.27 1485.8 1900.37 1485.73 1900.48C1485.66 1900.58 1485.62 1900.61 1485.66 1900.57L1468.39 1882.5L1451.12 1864.43C1440.44 1874.63 1435.74 1887.88 1435.74 1901.71H1460.74ZM1468.39 1882.5L1485.67 1900.57C1485.88 1900.36 1485.97 1900.33 1486.07 1900.29C1486.22 1900.23 1486.86 1900.02 1488.28 1900.02V1875.02V1850.02C1474.6 1850.02 1461.53 1854.47 1451.11 1864.43L1468.39 1882.5ZM1463.8 1920.75V1945.75H1541.49V1920.75V1895.75H1463.8V1920.75ZM1541.49 1920.75H1516.49V1945.23H1541.49H1566.49V1920.75H1541.49ZM1541.49 1945.23V1920.23H1463.8V1945.23V1970.23H1541.49V1945.23ZM1463.8 1945.23H1488.8V1920.75H1463.8H1438.8V1945.23H1463.8ZM1670.81 1875.7H1645.81V1980.25H1670.81H1695.81V1875.7H1670.81ZM1670.81 1980.25H1645.81C1645.81 1980.65 1645.73 1976.35 1649.94 1972.13C1654.16 1967.92 1658.45 1968 1658.06 1968V1993V2018C1666.16 2018 1676.83 2015.96 1685.3 2007.49C1693.77 1999.02 1695.81 1988.35 1695.81 1980.25H1670.81ZM1658.06 1993V1968H1643.95V1993V2018H1658.06V1993ZM1643.95 1993V1968C1643.96 1968 1644.17 1968 1644.57 1968.05C1644.97 1968.11 1645.59 1968.22 1646.37 1968.47C1648.01 1968.98 1650.25 1970.04 1652.41 1972.07L1635.28 1990.28L1618.14 2008.49C1626.45 2016.3 1636.61 2018 1643.95 2018V1993ZM1635.28 1990.28L1652.96 1972.6C1653.3 1972.95 1653.29 1973 1652.98 1972.56C1652.67 1972.13 1652.21 1971.39 1651.59 1970.27L1629.67 1982.29L1607.75 1994.31C1610.25 1998.87 1613.45 2003.8 1617.6 2007.96L1635.28 1990.28ZM1629.67 1982.29L1650.79 1968.92L1625.29 1928.63L1604.17 1942L1583.04 1955.37L1608.54 1995.66L1629.67 1982.29ZM1604.17 1942L1626.18 1930.15C1625.08 1928.11 1624 1925.8 1622.96 1923.2L1599.75 1932.48L1576.54 1941.76C1578.21 1945.96 1580.08 1950 1582.16 1953.85L1604.17 1942ZM1599.75 1932.48L1623.31 1924.12C1622.22 1921.06 1621.24 1918.01 1620.36 1914.97L1596.35 1921.94L1572.34 1928.91C1573.5 1932.9 1574.78 1936.88 1576.19 1940.84L1599.75 1932.48ZM1596.35 1921.94V1896.94H1595.16V1921.94V1946.94H1596.35V1921.94ZM1595.16 1921.94L1570.48 1925.92C1570.9 1928.57 1571.21 1931.38 1571.39 1934.33L1596.35 1932.82L1621.3 1931.31C1621.03 1926.78 1620.54 1922.33 1619.84 1917.96L1595.16 1921.94ZM1596.35 1932.82L1571.46 1935.15C1571.73 1938.06 1571.86 1940.79 1571.86 1943.36H1596.86H1621.86C1621.86 1939.13 1621.65 1934.83 1621.24 1930.49L1596.35 1932.82ZM1596.86 1943.36H1571.86V1993H1596.86H1621.86V1943.36H1596.86ZM1596.86 1993V1968H1562.86V1993V2018H1596.86V1993ZM1562.86 1993H1587.86V1888.45H1562.86H1537.86V1993H1562.86ZM1562.86 1888.45H1587.86C1587.86 1888.05 1587.94 1892.35 1583.72 1896.57C1579.51 1900.78 1575.21 1900.7 1575.61 1900.7V1875.7V1850.7C1567.5 1850.7 1556.83 1852.74 1548.37 1861.21C1539.9 1869.68 1537.86 1880.35 1537.86 1888.45H1562.86ZM1575.61 1875.7V1900.7H1589.72V1875.7V1850.7H1575.61V1875.7ZM1589.72 1875.7V1900.7C1589.71 1900.7 1589.48 1900.7 1589.06 1900.64C1588.64 1900.59 1587.96 1900.46 1587.11 1900.19C1585.35 1899.62 1582.87 1898.43 1580.54 1896.1L1598.22 1878.42L1615.9 1860.74C1607.49 1852.34 1596.91 1850.7 1589.72 1850.7V1875.7ZM1598.22 1878.42L1580.54 1896.1C1580.29 1895.85 1580.38 1895.89 1580.77 1896.43C1581.14 1896.95 1581.68 1897.77 1582.38 1898.96L1604 1886.41L1625.62 1873.86C1623.04 1869.43 1619.86 1864.71 1615.9 1860.74L1598.22 1878.42ZM1604 1886.41L1582.91 1899.84L1607.39 1938.26L1628.48 1924.83L1649.56 1911.4L1625.08 1872.98L1604 1886.41ZM1628.48 1924.83L1606.67 1937.05C1607.79 1939.05 1608.95 1941.39 1610.13 1944.12L1633.07 1934.18L1656.01 1924.24C1654.24 1920.17 1652.34 1916.28 1650.29 1912.61L1628.48 1924.83ZM1633.07 1934.18L1610.41 1944.75C1611.67 1947.45 1612.87 1950.34 1613.99 1953.43L1637.49 1944.89L1660.98 1936.35C1659.39 1931.96 1657.64 1927.71 1655.72 1923.61L1633.07 1934.18ZM1637.49 1944.89V1969.89H1638.68V1944.89V1919.89H1637.49V1944.89ZM1638.68 1944.89L1663.48 1941.79C1663.06 1938.38 1662.69 1935.05 1662.37 1931.77L1637.49 1934.18L1612.6 1936.59C1612.97 1940.34 1613.39 1944.14 1613.87 1947.99L1638.68 1944.89ZM1637.49 1934.18L1662.44 1932.57C1662.24 1929.59 1662.15 1926.62 1662.15 1923.64H1637.15H1612.15C1612.15 1927.69 1612.28 1931.74 1612.54 1935.79L1637.49 1934.18ZM1637.15 1923.64L1662.15 1923.55L1661.98 1875.61L1636.98 1875.7L1611.98 1875.79L1612.15 1923.73L1637.15 1923.64ZM1636.98 1875.7V1900.7H1670.81V1875.7V1850.7H1636.98V1875.7ZM1750.93 1875.7H1725.93V1993H1750.93H1775.93V1875.7H1750.93ZM1750.93 1993V1968H1714.04V1993V2018H1750.93V1993ZM1714.04 1993H1739.04V1875.7H1714.04H1689.04V1993H1714.04ZM1714.04 1875.7V1900.7H1750.93V1875.7V1850.7H1714.04V1875.7ZM1783.74 1875.7H1758.74V1903.24H1783.74H1808.74V1875.7H1783.74ZM1783.74 1903.24V1878.24H1681.23V1903.24V1928.24H1783.74V1903.24ZM1681.23 1903.24H1706.23V1875.7H1681.23H1656.23V1903.24H1681.23ZM1681.23 1875.7V1900.7H1783.74V1875.7V1850.7H1681.23V1875.7Z" fill="#F2F5EA" mask="url(#path-1-outside-1_4_543)"/>
<path d="M129.186 1860.82C139.936 1860.82 149.603 1861.83 157.925 1864.14C166.801 1866.45 174.61 1870.66 180.748 1877.12C182.726 1879.2 184.472 1881.47 186.01 1883.91C186.672 1879.04 188.534 1874.07 192.56 1870.05C197.856 1864.75 204.784 1863.2 210.961 1863.2H225.071C230.422 1863.2 236.883 1864.39 241.926 1869.11L242.41 1869.58L242.947 1870.13C245.558 1872.87 247.893 1876.26 250.018 1879.89L259.9 1895.4L259.831 1875.74C259.819 1872.42 261.131 1869.23 263.477 1866.88C265.822 1864.52 269.008 1863.2 272.331 1863.2H306.161C313.065 1863.2 318.661 1868.8 318.661 1875.7V1980.25C318.661 1986.43 317.108 1993.35 311.812 1998.65C306.517 2003.95 299.588 2005.5 293.411 2005.5H279.301C273.703 2005.5 267.179 2004.2 262.063 1999.38C261.972 1999.3 261.881 1999.21 261.792 1999.12C258.901 1996.23 256.432 1992.57 254.267 1988.67L244.711 1973.57V1993C244.711 1999.9 239.114 2005.5 232.211 2005.5H198.211C191.307 2005.5 185.711 1999.9 185.711 1993V1985.26C184.247 1987.51 182.599 1989.63 180.748 1991.58C174.629 1998.02 166.847 2002.29 157.991 2004.72C157.947 2004.73 157.902 2004.74 157.857 2004.75C149.582 2006.92 139.941 2007.88 129.186 2007.88C118.521 2007.88 108.909 2006.92 100.562 2004.76C100.485 2004.74 100.407 2004.72 100.33 2004.7C91.5668 2002.26 83.8752 1997.98 77.793 1991.58C75.8519 1989.54 74.133 1987.31 72.6162 1984.93V1993C72.6162 1999.9 67.0198 2005.5 60.1162 2005.5H23.5664C16.6628 2005.5 11.0664 1999.9 11.0664 1993V1875.7C11.0665 1868.8 16.6629 1863.2 23.5664 1863.2H60.1162C67.0197 1863.2 72.6161 1868.8 72.6162 1875.7V1883.77C74.1328 1881.39 75.8523 1879.16 77.793 1877.12C83.9202 1870.67 91.6801 1866.44 100.514 1864.12V1864.12C108.9 1861.84 118.532 1860.82 129.186 1860.82ZM129.186 1913.19C128.516 1913.19 128.009 1913.23 127.641 1913.28C127.455 1913.82 127.232 1914.61 127.024 1915.73C126.329 1919.47 125.876 1925.53 125.876 1934.35C125.876 1943.17 126.329 1949.23 127.024 1952.97C127.232 1954.09 127.455 1954.88 127.641 1955.42C128.009 1955.47 128.516 1955.51 129.186 1955.51C129.855 1955.51 130.361 1955.47 130.729 1955.42C130.915 1954.88 131.139 1954.09 131.347 1952.97C132.042 1949.23 132.495 1943.17 132.495 1934.35C132.495 1925.53 132.042 1919.47 131.347 1915.73C131.139 1914.61 130.915 1913.82 130.729 1913.28C130.361 1913.23 129.855 1913.19 129.186 1913.19Z" stroke="#F2F5EA" stroke-width="25" stroke-linejoin="round"/>
<path d="M1183.32 0L1190.52 10.2135C1194.97 7.07307 1196.88 1.41191 1195.23 -3.78027C1193.58 -8.97245 1188.76 -12.5 1183.32 -12.5V0ZM983.007 151.082L990.822 160.838L990.822 160.838L983.007 151.082ZM958.944 170.49L951.065 160.786C948.173 163.134 946.479 166.65 946.445 170.376C946.411 174.101 948.04 177.647 950.889 180.048L958.944 170.49ZM1111.65 304.292L1103.24 313.539C1107.78 317.672 1114.66 317.891 1119.46 314.056L1111.65 304.292ZM1503.34 31.2773L1497.08 20.4595L1497.08 20.4595L1503.34 31.2773ZM1559.13 0.164062L1559.58 -12.3279C1557.37 -12.4072 1555.17 -11.8988 1553.22 -10.8546L1559.13 0.164062ZM1799.86 241.534L1810.87 247.44C1811.91 245.499 1812.42 243.319 1812.35 241.118L1799.86 241.534ZM1768.97 296.899L1779.79 303.162L1779.79 303.162L1768.97 296.899ZM1493.07 692.197L1502.83 700.012L1502.83 700.012L1493.07 692.197ZM1113.86 1113.86L1122.7 1122.7L1122.7 1122.7L1113.86 1113.86ZM955.873 1265.7L947.393 1256.52C944.806 1258.91 943.346 1262.28 943.373 1265.8C943.401 1269.32 944.913 1272.67 947.538 1275.02L955.873 1265.7ZM1108.56 1396.87L1100.62 1406.52C1105.45 1410.5 1112.49 1410.29 1117.08 1406.02L1108.56 1396.87ZM1255.28 1255.28L1264.12 1264.12L1264.12 1264.12L1255.28 1255.28ZM1649.16 817.237L1658.92 825.052L1658.92 825.052L1649.16 817.237ZM1800 617.276H1812.5C1812.5 611.829 1808.97 607.01 1803.78 605.362C1798.59 603.714 1792.93 605.618 1789.79 610.069L1800 617.276ZM1800 1182.97L1789.79 1190.18C1792.93 1194.63 1798.59 1196.53 1803.78 1194.89C1808.97 1193.24 1812.5 1188.42 1812.5 1182.97H1800ZM1629.75 958.943L1639.46 951.064C1637.11 948.172 1633.59 946.478 1629.87 946.444C1626.14 946.41 1622.6 948.039 1620.19 950.887L1629.75 958.943ZM1495.95 1111.65L1486.7 1103.24C1482.57 1107.78 1482.35 1114.66 1486.19 1119.46L1495.95 1111.65ZM1768.97 1503.34L1779.78 1497.08L1779.78 1497.08L1768.97 1503.34ZM1799.85 1558.7L1812.34 1559.12C1812.42 1556.92 1811.91 1554.74 1810.87 1552.79L1799.85 1558.7ZM1558.7 1799.85L1552.79 1810.87C1554.73 1811.91 1556.92 1812.42 1559.12 1812.34L1558.7 1799.85ZM1503.34 1768.97L1497.08 1779.79L1497.08 1779.79L1503.34 1768.97ZM1108.05 1493.07L1100.23 1502.83L1100.23 1502.83L1108.05 1493.07ZM686.385 1113.86L677.546 1122.7L677.546 1122.7L686.385 1113.86ZM534.542 955.871L543.726 947.391C541.337 944.804 537.966 943.344 534.444 943.371C530.922 943.399 527.575 944.911 525.227 947.536L534.542 955.871ZM403.374 1108.56L393.723 1100.62C389.741 1105.45 389.956 1112.49 394.225 1117.08L403.374 1108.56ZM544.964 1255.28L536.125 1264.12L536.125 1264.12L544.964 1255.28ZM983.006 1649.16L975.191 1658.92L975.191 1658.92L983.006 1649.16ZM1182.97 1800V1812.5C1188.41 1812.5 1193.23 1808.97 1194.88 1803.78C1196.53 1798.59 1194.63 1792.93 1190.18 1789.79L1182.97 1800ZM617.275 1800L610.068 1789.79C605.617 1792.93 603.713 1798.59 605.361 1803.78C607.009 1808.97 611.828 1812.5 617.275 1812.5V1800ZM817.239 1649.16L825.054 1658.92L825.054 1658.92L817.239 1649.16ZM841.301 1629.75L849.18 1639.46C852.072 1637.11 853.766 1633.59 853.8 1629.87C853.834 1626.14 852.205 1622.6 849.357 1620.2L841.301 1629.75ZM688.594 1495.95L697.005 1486.7C692.461 1482.57 685.587 1482.35 680.789 1486.19L688.594 1495.95ZM296.901 1768.97L303.164 1779.78L303.164 1779.78L296.901 1768.97ZM241.532 1799.86L241.116 1812.35C243.317 1812.42 245.497 1811.91 247.438 1810.87L241.532 1799.86ZM0.164062 1559.12L-10.8546 1553.22C-11.8988 1555.17 -12.4072 1557.36 -12.3279 1559.57L0.164062 1559.12ZM31.2764 1503.34L42.0942 1509.61L42.0942 1509.61L31.2764 1503.34ZM307.175 1108.05L297.419 1100.23L297.419 1100.23L307.175 1108.05ZM686.386 686.386L677.547 677.547L677.547 677.547L686.386 686.386ZM844.374 534.54L852.854 543.724C855.442 541.335 856.901 537.964 856.874 534.442C856.846 530.92 855.334 527.573 852.709 525.225L844.374 534.54ZM691.683 403.375L699.627 393.724C694.789 389.742 687.751 389.957 683.165 394.226L691.683 403.375ZM544.965 544.965L536.126 536.126L536.126 536.126L544.965 544.965ZM151.082 983.007L141.326 975.192L141.326 975.192L151.082 983.007ZM0 1183.31H-12.5C-12.5 1188.76 -8.97246 1193.58 -3.78029 1195.23C1.41189 1196.88 7.07304 1194.97 10.2135 1190.52L0 1183.31ZM0 616.929L10.2135 609.722C7.07307 605.271 1.41191 603.367 -3.78027 605.014C-8.97246 606.661 -12.5 611.481 -12.5 616.929H0ZM151.081 817.237L141.325 825.052L141.325 825.052L151.081 817.237ZM170.489 841.3L160.785 849.179C163.133 852.071 166.649 853.765 170.375 853.799C174.1 853.833 177.646 852.204 180.047 849.356L170.489 841.3ZM304.292 688.593L313.539 697.004C317.672 692.46 317.891 685.586 314.056 680.788L304.292 688.593ZM31.2764 296.899L20.4585 303.162L20.4585 303.162L31.2764 296.899ZM0.15625 241.103L-12.3361 240.666C-12.4133 242.872 -11.9048 245.059 -10.8624 247.005L0.15625 241.103ZM241.104 0.15625L247.006 -10.8623C245.06 -11.9048 242.873 -12.4133 240.667 -12.3361L241.104 0.15625ZM296.898 31.2773L303.161 20.4595L303.161 20.4595L296.898 31.2773ZM1113.86 686.386L1122.7 677.547L1122.7 677.547L1113.86 686.386ZM1265.7 844.37L1256.52 852.85C1258.91 855.438 1262.28 856.897 1265.8 856.87C1269.32 856.842 1272.67 855.33 1275.02 852.705L1265.7 844.37ZM1396.87 691.683L1406.52 699.627C1410.5 694.789 1410.29 687.751 1406.02 683.165L1396.87 691.683ZM1255.28 544.965L1264.12 536.126L1264.12 536.126L1255.28 544.965ZM616.929 0V-12.5C611.481 -12.5 606.661 -8.97247 605.014 -3.7803C603.367 1.41186 605.271 7.07301 609.722 10.2135L616.929 0ZM1183.32 0L1176.11 -10.2135C1110.49 36.0896 1043.25 86.809 975.192 141.326L983.007 151.082L990.822 160.838C1058.52 106.611 1125.35 56.1996 1190.52 10.2135L1183.32 0ZM983.007 151.082L975.192 141.326C967.154 147.765 959.112 154.253 951.065 160.786L958.944 170.49L966.823 180.194C974.829 173.694 982.829 167.241 990.822 160.838L983.007 151.082ZM958.944 170.49L950.889 180.048C1001.69 222.87 1052.59 267.462 1103.24 313.539L1111.65 304.292L1120.06 295.045C1069.18 248.763 1018.05 203.963 967 160.932L958.944 170.49ZM1111.65 304.292L1119.46 314.056C1258.56 202.86 1391.15 110.674 1509.61 42.0952L1503.34 31.2773L1497.08 20.4595C1377.31 89.8028 1243.68 182.75 1103.85 294.528L1111.65 304.292ZM1503.34 31.2773L1509.61 42.0952C1528.63 31.081 1547.11 20.781 1565.03 11.1827L1559.13 0.164062L1553.22 -10.8546C1535.05 -1.11987 1516.33 9.31465 1497.08 20.4595L1503.34 31.2773ZM1559.13 0.164062L1558.68 12.656C1683.15 17.1229 1783.22 117.396 1787.36 241.95L1799.86 241.534L1812.35 241.118C1807.77 103.431 1697.17 -7.39004 1559.58 -12.3279L1559.13 0.164062ZM1799.86 241.534L1788.84 235.629C1779.31 253.417 1769.08 271.759 1758.15 290.636L1768.97 296.899L1779.79 303.162C1790.85 284.06 1801.2 265.48 1810.87 247.44L1799.86 241.534ZM1768.97 296.899L1758.15 290.636C1688.98 410.111 1595.8 543.966 1483.32 684.382L1493.07 692.197L1502.83 700.012C1615.9 558.864 1709.85 423.968 1779.79 303.162L1768.97 296.899ZM1493.07 692.197L1483.32 684.382C1370.96 824.64 1242.4 967.642 1105.02 1105.02L1113.86 1113.86L1122.7 1122.7C1260.68 984.72 1389.86 841.037 1502.83 700.012L1493.07 692.197ZM1113.86 1113.86L1105.02 1105.02C1053.13 1156.91 1000.44 1207.54 947.393 1256.52L955.873 1265.7L964.353 1274.89C1017.65 1225.68 1070.58 1174.82 1122.7 1122.7L1113.86 1113.86ZM955.873 1265.7L947.538 1275.02C998.555 1320.66 1049.72 1364.62 1100.62 1406.52L1108.56 1396.87L1116.51 1387.22C1065.88 1345.54 1014.98 1301.81 964.208 1256.39L955.873 1265.7ZM1108.56 1396.87L1117.08 1406.02C1166.6 1359.91 1215.73 1312.51 1264.12 1264.12L1255.28 1255.28L1246.44 1246.44C1198.26 1294.62 1149.35 1341.82 1100.04 1387.72L1108.56 1396.87ZM1255.28 1255.28L1264.12 1264.12C1406.9 1121.34 1541.03 972.214 1658.92 825.052L1649.16 817.237L1639.41 809.422C1522.14 955.817 1388.62 1104.26 1246.44 1246.44L1255.28 1255.28ZM1649.16 817.237L1658.92 825.052C1713.34 757.117 1763.98 689.997 1810.21 624.484L1800 617.276L1789.79 610.069C1743.87 675.133 1693.54 741.848 1639.41 809.422L1649.16 817.237ZM1800 617.276H1787.5V1182.97H1800H1812.5V617.276H1800ZM1800 1182.97L1810.21 1175.76C1758.35 1102.29 1701.11 1027 1639.46 951.064L1629.75 958.943L1620.05 966.822C1681.38 1042.37 1738.28 1117.2 1789.79 1190.18L1800 1182.97ZM1629.75 958.943L1620.19 950.887C1577.3 1001.78 1532.7 1052.67 1486.7 1103.24L1495.95 1111.65L1505.2 1120.06C1551.4 1069.27 1596.21 1018.14 1639.31 966.999L1629.75 958.943ZM1495.95 1111.65L1486.19 1119.46C1595.93 1256.75 1688.61 1389.49 1758.15 1509.61L1768.97 1503.34L1779.78 1497.08C1709.47 1375.63 1616.03 1241.85 1505.71 1103.85L1495.95 1111.65ZM1768.97 1503.34L1758.15 1509.61C1769.09 1528.51 1779.31 1546.84 1788.83 1564.6L1799.85 1558.7L1810.87 1552.79C1801.21 1534.78 1790.86 1516.21 1779.78 1497.08L1768.97 1503.34ZM1799.85 1558.7L1787.36 1558.27C1783.1 1682.86 1682.86 1783.1 1558.27 1787.36L1558.7 1799.85L1559.12 1812.34C1696.85 1807.63 1807.63 1696.85 1812.34 1559.12L1799.85 1558.7ZM1558.7 1799.85L1564.6 1788.83C1546.82 1779.3 1528.48 1769.08 1509.61 1758.15L1503.34 1768.97L1497.08 1779.79C1516.18 1790.84 1534.75 1801.2 1552.79 1810.87L1558.7 1799.85ZM1503.34 1768.97L1509.61 1758.15C1390.13 1688.98 1256.28 1595.8 1115.86 1483.31L1108.05 1493.07L1100.23 1502.83C1241.38 1615.89 1376.28 1709.85 1497.08 1779.79L1503.34 1768.97ZM1108.05 1493.07L1115.86 1483.31C975.603 1370.96 832.601 1242.4 695.224 1105.02L686.385 1113.86L677.546 1122.7C815.524 1260.67 959.206 1389.86 1100.23 1502.83L1108.05 1493.07ZM686.385 1113.86L695.224 1105.02C643.336 1053.13 592.705 1000.44 543.726 947.391L534.542 955.871L525.358 964.351C574.564 1017.64 625.425 1070.58 677.546 1122.7L686.385 1113.86ZM534.542 955.871L525.227 947.536C479.579 998.553 435.624 1049.72 393.723 1100.62L403.374 1108.56L413.025 1116.5C454.699 1065.88 498.429 1014.98 543.857 964.206L534.542 955.871ZM403.374 1108.56L394.225 1117.08C440.333 1166.6 487.731 1215.72 536.125 1264.12L544.964 1255.28L553.803 1246.44C505.618 1198.26 458.427 1149.35 412.523 1100.04L403.374 1108.56ZM544.964 1255.28L536.125 1264.12C678.903 1406.9 828.029 1541.03 975.191 1658.92L983.006 1649.16L990.821 1639.41C844.426 1522.14 695.98 1388.62 553.803 1246.44L544.964 1255.28ZM983.006 1649.16L975.191 1658.92C1043.13 1713.34 1110.25 1763.98 1175.76 1810.21L1182.97 1800L1190.18 1789.79C1125.11 1743.87 1058.4 1693.54 990.821 1639.41L983.006 1649.16ZM1182.97 1800V1787.5H617.275V1800V1812.5H1182.97V1800ZM617.275 1800L624.483 1810.21C689.997 1763.98 757.118 1713.34 825.054 1658.92L817.239 1649.16L809.424 1639.41C741.849 1693.54 675.133 1743.87 610.068 1789.79L617.275 1800ZM817.239 1649.16L825.054 1658.92C833.093 1652.48 841.134 1645.99 849.18 1639.46L841.301 1629.75L833.422 1620.05C825.415 1626.55 817.417 1633 809.424 1639.41L817.239 1649.16ZM841.301 1629.75L849.357 1620.2C798.467 1577.3 747.574 1532.7 697.005 1486.7L688.594 1495.95L680.182 1505.2C730.977 1551.4 782.107 1596.21 833.245 1639.31L841.301 1629.75ZM688.594 1495.95L680.789 1486.19C541.681 1597.38 409.093 1689.57 290.638 1758.15L296.901 1768.97L303.164 1779.78C422.939 1710.44 556.563 1617.49 696.399 1505.71L688.594 1495.95ZM296.901 1768.97L290.638 1758.15C271.76 1769.08 253.417 1779.3 235.627 1788.84L241.532 1799.86L247.438 1810.87C265.479 1801.2 284.061 1790.84 303.164 1779.78L296.901 1768.97ZM241.532 1799.86L241.948 1787.36C117.394 1783.22 17.1219 1683.15 12.656 1558.68L0.164062 1559.12L-12.3279 1559.57C-7.39109 1697.17 103.429 1807.77 241.116 1812.35L241.532 1799.86ZM0.164062 1559.12L11.1827 1565.03C20.7806 1547.11 31.0804 1528.63 42.0942 1509.61L31.2764 1503.34L20.4585 1497.08C9.31408 1516.33 -1.12018 1535.05 -10.8546 1553.22L0.164062 1559.12ZM31.2764 1503.34L42.0942 1509.61C111.264 1390.13 204.448 1256.28 316.931 1115.86L307.175 1108.05L297.419 1100.23C184.351 1241.38 90.3985 1376.28 20.4585 1497.08L31.2764 1503.34ZM307.175 1108.05L316.931 1115.86C429.286 975.604 557.847 832.602 695.225 695.225L686.386 686.386L677.547 677.547C539.569 815.524 410.388 959.207 297.419 1100.23L307.175 1108.05ZM686.386 686.386L695.225 695.225C747.113 643.336 799.806 592.703 852.854 543.724L844.374 534.54L835.894 525.356C782.601 574.562 729.668 625.426 677.547 677.547L686.386 686.386ZM844.374 534.54L852.709 525.225C801.425 479.339 750.26 435.405 699.627 393.724L691.683 403.375L683.738 413.026C734.098 454.481 785.003 498.191 836.039 543.856L844.374 534.54ZM691.683 403.375L683.165 394.226C633.641 440.334 584.52 487.732 536.126 536.126L544.965 544.965L553.804 553.804C601.988 505.619 650.895 458.428 700.2 412.524L691.683 403.375ZM544.965 544.965L536.126 536.126C393.348 678.904 259.212 828.03 141.326 975.192L151.082 983.007L160.838 990.822C278.109 844.427 411.626 695.982 553.804 553.804L544.965 544.965ZM151.082 983.007L141.326 975.192C86.8095 1043.25 36.0896 1110.48 -10.2135 1176.11L0 1183.31L10.2135 1190.52C56.1995 1125.35 106.611 1058.52 160.838 990.822L151.082 983.007ZM0 1183.31H12.5V616.929H0H-12.5V1183.31H0ZM0 616.929L-10.2135 624.135C36.0894 689.759 86.8084 756.996 141.325 825.052L151.081 817.237L160.837 809.422C106.61 741.728 56.1994 674.896 10.2135 609.722L0 616.929ZM151.081 817.237L141.325 825.052C147.764 833.09 154.252 841.133 160.785 849.179L170.489 841.3L180.193 833.421C173.693 825.415 167.24 817.415 160.837 809.422L151.081 817.237ZM170.489 841.3L180.047 849.356C222.939 798.466 267.538 747.573 313.539 697.004L304.292 688.593L295.045 680.181C248.84 730.976 204.033 782.106 160.931 833.244L170.489 841.3ZM304.292 688.593L314.056 680.788C202.86 541.68 110.673 409.091 42.0942 290.636L31.2764 296.899L20.4585 303.162C89.8019 422.937 182.75 556.562 294.528 696.398L304.292 688.593ZM31.2764 296.899L42.0942 290.636C31.0773 271.607 20.7756 253.123 11.1749 235.2L0.15625 241.103L-10.8624 247.005C-1.12567 265.182 9.31055 283.907 20.4585 303.162L31.2764 296.899ZM0.15625 241.103L12.6486 241.54C17.0014 117.103 117.103 17.0009 241.54 12.6486L241.104 0.15625L240.667 -12.3361C103.108 -7.52489 -7.52437 103.107 -12.3361 240.666L0.15625 241.103ZM241.104 0.15625L235.201 11.1748C253.097 20.7622 271.58 31.063 290.635 42.0952L296.898 31.2773L303.161 20.4595C283.88 9.2965 265.157 -1.13868 247.006 -10.8623L241.104 0.15625ZM296.898 31.2773L290.635 42.0952C533.1 182.469 826.701 416.907 1105.02 695.225L1113.86 686.386L1122.7 677.547C843.36 398.211 548.052 162.239 303.161 20.4595L296.898 31.2773ZM1113.86 686.386L1105.02 695.225C1157.16 747.366 1207.77 800.053 1256.52 852.85L1265.7 844.37L1274.89 835.89C1225.91 782.849 1175.07 729.922 1122.7 677.547L1113.86 686.386ZM1265.7 844.37L1275.02 852.705C1320.66 801.689 1364.62 750.527 1406.52 699.627L1396.87 691.683L1387.22 683.738C1345.54 734.362 1301.81 785.264 1256.39 836.035L1265.7 844.37ZM1396.87 691.683L1406.02 683.165C1360.02 633.761 1312.63 584.641 1264.12 536.126L1255.28 544.965L1246.44 553.804C1294.74 602.109 1341.93 651.014 1387.72 700.2L1396.87 691.683ZM1255.28 544.965L1264.12 536.126C1053.59 325.597 831.609 136.179 624.135 -10.2135L616.929 0L609.722 10.2135C815.857 155.661 1036.75 344.119 1246.44 553.804L1255.28 544.965ZM616.929 0V12.5H1183.32V0V-12.5H616.929V0Z" fill="#F2F5EA"/>
</g>
<defs>
<clipPath id="clip0_4_543">
<rect width="1800" height="2000" fill="white"/>
</clipPath>
</defs>
</svg>
