<svg width="2000" height="2000" viewBox="0 0 2000 2000" fill="none" xmlns="http://www.w3.org/2000/svg">
<path d="M1283.32 100L1290.52 110.214C1294.97 107.073 1296.88 101.412 1295.23 96.2197C1293.58 91.0275 1288.76 87.5 1283.32 87.5V100ZM1083.01 251.082L1075.19 241.326L1083.01 251.082ZM1058.94 270.49L1051.07 260.786C1048.17 263.134 1046.48 266.65 1046.44 270.376C1046.41 274.101 1048.04 277.647 1050.89 280.048L1058.94 270.49ZM1211.65 404.293L1203.24 413.54C1207.78 417.673 1214.66 417.892 1219.46 414.057L1211.65 404.293ZM1603.34 131.277L1597.08 120.46L1603.34 131.277ZM1659.13 100.164L1659.58 87.6721C1657.37 87.5928 1655.17 88.1012 1653.22 89.1454L1659.13 100.164ZM1899.86 341.53L1910.87 347.436C1911.91 345.495 1912.42 343.315 1912.35 341.114L1899.86 341.53ZM1868.97 396.899L1879.78 403.162V403.162L1868.97 396.899ZM1593.07 792.197L1602.83 800.012L1593.07 792.197ZM1213.86 1213.86L1222.7 1222.7L1213.86 1213.86ZM1055.87 1365.7L1047.39 1356.52C1044.8 1358.91 1043.34 1362.28 1043.37 1365.8C1043.4 1369.32 1044.91 1372.67 1047.54 1375.02L1055.87 1365.7ZM1208.56 1496.87L1200.62 1506.52C1205.45 1510.5 1212.49 1510.29 1217.08 1506.02L1208.56 1496.87ZM1355.28 1355.28L1364.12 1364.12L1355.28 1355.28ZM1749.16 917.237L1758.92 925.052L1749.16 917.237ZM1900 717.273H1912.5C1912.5 711.826 1908.97 707.007 1903.78 705.359C1898.59 703.711 1892.93 705.615 1889.79 710.066L1900 717.273ZM1900 1282.97L1889.79 1290.18C1892.93 1294.63 1898.59 1296.53 1903.78 1294.89C1908.97 1293.24 1912.5 1288.42 1912.5 1282.97H1900ZM1729.75 1058.94L1739.46 1051.06C1737.11 1048.17 1733.59 1046.48 1729.87 1046.44C1726.14 1046.41 1722.6 1048.04 1720.2 1050.89L1729.75 1058.94ZM1595.95 1211.65L1586.7 1203.24C1582.57 1207.78 1582.35 1214.66 1586.19 1219.46L1595.95 1211.65ZM1868.97 1603.34L1879.78 1597.08L1868.97 1603.34ZM1899.85 1658.7L1912.34 1659.12C1912.42 1656.92 1911.91 1654.73 1910.87 1652.79L1899.85 1658.7ZM1658.7 1899.85L1652.79 1910.87C1654.73 1911.91 1656.92 1912.42 1659.12 1912.34L1658.7 1899.85ZM1603.34 1868.97L1597.08 1879.79L1603.34 1868.97ZM1208.05 1593.07L1200.23 1602.83L1208.05 1593.07ZM786.386 1213.86L777.547 1222.7L786.386 1213.86ZM634.543 1055.87L643.727 1047.39C641.338 1044.8 637.967 1043.34 634.445 1043.37C630.923 1043.4 627.576 1044.91 625.227 1047.54L634.543 1055.87ZM503.375 1208.56L493.724 1200.62C489.742 1205.45 489.957 1212.49 494.226 1217.08L503.375 1208.56ZM644.965 1355.28L636.126 1364.12L644.965 1355.28ZM1083.01 1749.16L1075.19 1758.92L1083.01 1749.16ZM1282.97 1900V1912.5C1288.42 1912.5 1293.24 1908.97 1294.88 1903.78C1296.53 1898.59 1294.63 1892.93 1290.18 1889.79L1282.97 1900ZM717.273 1900L710.066 1889.79C705.615 1892.93 703.711 1898.59 705.359 1903.78C707.007 1908.97 711.826 1912.5 717.273 1912.5V1900ZM917.237 1749.16L925.052 1758.92L917.237 1749.16ZM941.3 1729.75L949.179 1739.46C952.071 1737.11 953.765 1733.59 953.799 1729.87C953.833 1726.14 952.204 1722.59 949.356 1720.19L941.3 1729.75ZM788.593 1595.95L797.004 1586.7C792.46 1582.57 785.586 1582.35 780.788 1586.19L788.593 1595.95ZM396.899 1868.97L403.162 1879.78L396.899 1868.97ZM341.53 1899.86L341.114 1912.35C343.315 1912.42 345.495 1911.91 347.436 1910.87L341.53 1899.86ZM100.164 1659.12L89.1454 1653.22C88.1012 1655.17 87.5928 1657.36 87.6721 1659.57L100.164 1659.12ZM131.276 1603.34L120.459 1597.08H120.459L131.276 1603.34ZM407.175 1208.05L397.419 1200.23L407.175 1208.05ZM786.386 786.386L777.547 777.547L786.386 786.386ZM944.374 634.541L952.854 643.725C955.442 641.336 956.901 637.965 956.874 634.443C956.846 630.921 955.334 627.574 952.709 625.225L944.374 634.541ZM791.682 503.376L799.626 493.725C794.788 489.743 787.75 489.958 783.164 494.227L791.682 503.376ZM644.965 644.965L636.126 636.126L644.965 644.965ZM251.082 1083.01L241.326 1075.19L251.082 1083.01ZM100 1283.31H87.5C87.5 1288.76 91.0275 1293.58 96.2197 1295.23C101.412 1296.88 107.073 1294.97 110.214 1290.52L100 1283.31ZM100 716.928L110.214 709.721C107.073 705.27 101.412 703.366 96.2197 705.013C91.0275 706.66 87.5 711.48 87.5 716.928H100ZM251.082 917.237L241.326 925.052L251.082 917.237ZM270.49 941.3L260.786 949.179C263.134 952.071 266.65 953.765 270.375 953.799C274.101 953.833 277.647 952.204 280.048 949.356L270.49 941.3ZM404.293 788.593L413.54 797.004C417.673 792.46 417.892 785.586 414.057 780.788L404.293 788.593ZM131.277 396.899L120.46 403.162L131.277 396.899ZM100.156 341.102L87.6639 340.665C87.5867 342.871 88.0952 345.058 89.1376 347.004L100.156 341.102ZM341.105 100.156L347.008 89.1377C345.062 88.0953 342.875 87.5867 340.669 87.6639L341.105 100.156ZM396.899 131.277L403.162 120.46L396.899 131.277ZM1213.86 786.386L1222.7 777.547L1213.86 786.386ZM1365.7 944.37L1356.52 952.85C1358.91 955.438 1362.28 956.897 1365.8 956.87C1369.32 956.842 1372.67 955.33 1375.02 952.705L1365.7 944.37ZM1496.87 791.683L1506.52 799.627C1510.5 794.789 1510.29 787.751 1506.02 783.165L1496.87 791.683ZM1355.28 644.965L1364.12 636.126L1355.28 644.965ZM716.929 100V87.5C711.481 87.5 706.661 91.0275 705.014 96.2197C703.367 101.412 705.271 107.073 709.722 110.213L716.929 100ZM1283.32 100L1276.11 89.7865C1210.49 136.09 1143.25 186.809 1075.19 241.326L1083.01 251.082L1090.82 260.838C1158.52 206.611 1225.35 156.2 1290.52 110.214L1283.32 100ZM1083.01 251.082L1075.19 241.326C1067.15 247.765 1059.11 254.253 1051.07 260.786L1058.94 270.49L1066.82 280.194C1074.83 273.694 1082.83 267.241 1090.82 260.838L1083.01 251.082ZM1058.94 270.49L1050.89 280.048C1101.69 322.87 1152.59 367.463 1203.24 413.54L1211.65 404.293L1220.06 395.046C1169.18 348.764 1118.05 303.963 1067 260.932L1058.94 270.49ZM1211.65 404.293L1219.46 414.057C1358.56 302.861 1491.15 210.674 1609.61 142.095L1603.34 131.277L1597.08 120.46C1477.31 189.803 1343.68 282.751 1203.85 394.529L1211.65 404.293ZM1603.34 131.277L1609.61 142.095C1628.63 131.081 1647.11 120.781 1665.03 111.183L1659.13 100.164L1653.22 89.1454C1635.05 98.8802 1616.33 109.315 1597.08 120.46L1603.34 131.277ZM1659.13 100.164L1658.68 112.656C1783.15 117.123 1883.22 217.394 1887.36 341.946L1899.86 341.53L1912.35 341.114C1907.77 203.429 1797.17 92.6099 1659.58 87.6721L1659.13 100.164ZM1899.86 341.53L1888.84 335.625C1879.3 353.415 1869.08 371.758 1858.15 390.636L1868.97 396.899L1879.78 403.162C1890.84 384.059 1901.2 365.477 1910.87 347.436L1899.86 341.53ZM1868.97 396.899L1858.15 390.636C1788.98 510.111 1695.8 643.966 1583.31 784.382L1593.07 792.197L1602.83 800.012C1715.89 658.864 1809.84 523.968 1879.78 403.162L1868.97 396.899ZM1593.07 792.197L1583.31 784.382C1470.96 924.64 1342.4 1067.64 1205.02 1205.02L1213.86 1213.86L1222.7 1222.7C1360.67 1084.72 1489.86 941.037 1602.83 800.012L1593.07 792.197ZM1213.86 1213.86L1205.02 1205.02C1153.13 1256.91 1100.44 1307.54 1047.39 1356.52L1055.87 1365.7L1064.35 1374.88C1117.64 1325.68 1170.58 1274.82 1222.7 1222.7L1213.86 1213.86ZM1055.87 1365.7L1047.54 1375.02C1098.55 1420.66 1149.71 1464.62 1200.62 1506.52L1208.56 1496.87L1216.5 1487.22C1165.88 1445.54 1114.98 1401.81 1064.21 1356.38L1055.87 1365.7ZM1208.56 1496.87L1217.08 1506.02C1266.6 1459.91 1315.72 1412.51 1364.12 1364.12L1355.28 1355.28L1346.44 1346.44C1298.26 1394.62 1249.35 1441.82 1200.04 1487.72L1208.56 1496.87ZM1355.28 1355.28L1364.12 1364.12C1506.9 1221.34 1641.03 1072.21 1758.92 925.052L1749.16 917.237L1739.41 909.422C1622.14 1055.82 1488.62 1204.26 1346.44 1346.44L1355.28 1355.28ZM1749.16 917.237L1758.92 925.052C1813.34 857.116 1863.98 789.995 1910.21 724.481L1900 717.273L1889.79 710.066C1843.87 775.131 1793.54 841.847 1739.41 909.422L1749.16 917.237ZM1900 717.273H1887.5V1282.97H1900H1912.5V717.273H1900ZM1900 1282.97L1910.21 1275.76C1858.35 1202.29 1801.11 1127 1739.46 1051.06L1729.75 1058.94L1720.05 1066.82C1781.38 1142.37 1838.28 1217.2 1889.79 1290.18L1900 1282.97ZM1729.75 1058.94L1720.2 1050.89C1677.3 1101.78 1632.7 1152.67 1586.7 1203.24L1595.95 1211.65L1605.2 1220.06C1651.4 1169.27 1696.21 1118.14 1739.31 1067L1729.75 1058.94ZM1595.95 1211.65L1586.19 1219.46C1695.93 1356.75 1788.61 1489.49 1858.15 1609.61L1868.97 1603.34L1879.78 1597.08C1809.47 1475.63 1716.03 1341.85 1605.71 1203.85L1595.95 1211.65ZM1868.97 1603.34L1858.15 1609.61C1869.09 1628.51 1879.31 1646.84 1888.83 1664.6L1899.85 1658.7L1910.87 1652.79C1901.21 1634.78 1890.86 1616.2 1879.78 1597.08L1868.97 1603.34ZM1899.85 1658.7L1887.36 1658.27C1883.1 1782.86 1782.86 1883.1 1658.27 1887.36L1658.7 1899.85L1659.12 1912.34C1796.85 1907.63 1907.63 1796.85 1912.34 1659.12L1899.85 1658.7ZM1658.7 1899.85L1664.6 1888.83C1646.82 1879.3 1628.48 1869.08 1609.61 1858.15L1603.34 1868.97L1597.08 1879.79C1616.18 1890.84 1634.75 1901.2 1652.79 1910.87L1658.7 1899.85ZM1603.34 1868.97L1609.61 1858.15C1490.13 1788.98 1356.28 1695.8 1215.86 1583.31L1208.05 1593.07L1200.23 1602.83C1341.38 1715.89 1476.28 1809.85 1597.08 1879.79L1603.34 1868.97ZM1208.05 1593.07L1215.86 1583.31C1075.6 1470.96 932.602 1342.4 795.225 1205.02L786.386 1213.86L777.547 1222.7C915.525 1360.67 1059.21 1489.86 1200.23 1602.83L1208.05 1593.07ZM786.386 1213.86L795.225 1205.02C743.337 1153.13 692.706 1100.44 643.727 1047.39L634.543 1055.87L625.359 1064.35C674.565 1117.64 725.426 1170.58 777.547 1222.7L786.386 1213.86ZM634.543 1055.87L625.227 1047.54C579.58 1098.55 535.625 1149.72 493.724 1200.62L503.375 1208.56L513.026 1216.51C554.7 1165.88 598.43 1114.98 643.858 1064.21L634.543 1055.87ZM503.375 1208.56L494.226 1217.08C540.334 1266.6 587.732 1315.72 636.126 1364.12L644.965 1355.28L653.804 1346.44C605.619 1298.26 558.428 1249.35 512.524 1200.04L503.375 1208.56ZM644.965 1355.28L636.126 1364.12C778.904 1506.9 928.03 1641.03 1075.19 1758.92L1083.01 1749.16L1090.82 1739.41C944.427 1622.14 795.981 1488.62 653.804 1346.44L644.965 1355.28ZM1083.01 1749.16L1075.19 1758.92C1143.13 1813.34 1210.25 1863.98 1275.76 1910.21L1282.97 1900L1290.18 1889.79C1225.11 1843.87 1158.4 1793.54 1090.82 1739.41L1083.01 1749.16ZM1282.97 1900V1887.5H717.273V1900V1912.5H1282.97V1900ZM717.273 1900L724.481 1910.21C789.995 1863.98 857.116 1813.34 925.052 1758.92L917.237 1749.16L909.422 1739.41C841.847 1793.54 775.131 1843.87 710.066 1889.79L717.273 1900ZM917.237 1749.16L925.052 1758.92C933.092 1752.48 941.133 1745.99 949.179 1739.46L941.3 1729.75L933.421 1720.05C925.413 1726.55 917.415 1733 909.422 1739.41L917.237 1749.16ZM941.3 1729.75L949.356 1720.19C898.467 1677.3 847.572 1632.7 797.004 1586.7L788.593 1595.95L780.181 1605.2C830.976 1651.4 882.107 1696.21 933.244 1739.31L941.3 1729.75ZM788.593 1595.95L780.788 1586.19C641.68 1697.38 509.091 1789.57 390.636 1858.15L396.899 1868.97L403.162 1879.78C522.937 1810.44 656.561 1717.49 796.398 1605.71L788.593 1595.95ZM396.899 1868.97L390.636 1858.15C371.758 1869.08 353.415 1879.3 335.625 1888.84L341.53 1899.86L347.436 1910.87C365.477 1901.2 384.059 1890.84 403.162 1879.78L396.899 1868.97ZM341.53 1899.86L341.946 1887.36C217.393 1883.22 117.122 1783.15 112.656 1658.68L100.164 1659.12L87.6721 1659.57C92.6089 1797.17 203.428 1907.77 341.114 1912.35L341.53 1899.86ZM100.164 1659.12L111.183 1665.03C120.781 1647.11 131.08 1628.63 142.094 1609.61L131.276 1603.34L120.459 1597.08C109.314 1616.33 98.8798 1635.05 89.1454 1653.22L100.164 1659.12ZM131.276 1603.34L142.094 1609.61C211.264 1490.13 304.448 1356.28 416.931 1215.86L407.175 1208.05L397.419 1200.23C284.351 1341.38 190.399 1476.28 120.459 1597.08L131.276 1603.34ZM407.175 1208.05L416.931 1215.86C529.285 1075.6 657.847 932.602 795.225 795.225L786.386 786.386L777.547 777.547C639.569 915.524 510.388 1059.21 397.419 1200.23L407.175 1208.05ZM786.386 786.386L795.225 795.225C847.113 743.337 899.806 692.704 952.854 643.725L944.374 634.541L935.894 625.357C882.601 674.563 829.668 725.426 777.547 777.547L786.386 786.386ZM944.374 634.541L952.709 625.225C901.425 579.34 850.26 535.406 799.626 493.725L791.682 503.376L783.737 513.027C834.097 554.483 885.002 598.192 936.039 643.857L944.374 634.541ZM791.682 503.376L783.164 494.227C733.64 540.335 684.519 587.733 636.126 636.126L644.965 644.965L653.804 653.804C701.988 605.619 750.895 558.428 800.199 512.525L791.682 503.376ZM644.965 644.965L636.126 636.126C493.348 778.904 359.212 928.03 241.326 1075.19L251.082 1083.01L260.838 1090.82C378.109 944.427 511.626 795.982 653.804 653.804L644.965 644.965ZM251.082 1083.01L241.326 1075.19C186.81 1143.25 136.09 1210.48 89.7865 1276.11L100 1283.31L110.214 1290.52C156.199 1225.35 206.611 1158.52 260.838 1090.82L251.082 1083.01ZM100 1283.31H112.5V716.928H100H87.5V1283.31H100ZM100 716.928L89.7865 724.134C136.09 789.758 186.809 856.996 241.326 925.052L251.082 917.237L260.838 909.422C206.611 841.728 156.2 774.896 110.214 709.721L100 716.928ZM251.082 917.237L241.326 925.052C247.765 933.09 254.253 941.132 260.786 949.179L270.49 941.3L280.194 933.421C273.694 925.415 267.241 917.415 260.838 909.422L251.082 917.237ZM270.49 941.3L280.048 949.356C322.94 898.466 367.539 847.573 413.54 797.004L404.293 788.593L395.046 780.181C348.84 830.976 304.034 882.106 260.932 933.244L270.49 941.3ZM404.293 788.593L414.057 780.788C302.861 641.68 210.674 509.091 142.095 390.636L131.277 396.899L120.46 403.162C189.803 522.937 282.751 656.562 394.529 796.398L404.293 788.593ZM131.277 396.899L142.095 390.636C131.078 371.607 120.776 353.122 111.175 335.199L100.156 341.102L89.1376 347.004C98.8746 365.181 109.311 383.906 120.46 403.162L131.277 396.899ZM100.156 341.102L112.649 341.539C117.002 217.101 217.105 117 341.542 112.649L341.105 100.156L340.669 87.6639C203.11 92.4741 92.4762 203.106 87.6639 340.665L100.156 341.102ZM341.105 100.156L335.203 111.175C353.099 120.762 371.581 131.063 390.636 142.095L396.899 131.277L403.162 120.46C383.881 109.297 365.159 98.8613 347.008 89.1377L341.105 100.156ZM396.899 131.277L390.636 142.095C633.101 282.469 926.701 516.906 1205.02 795.225L1213.86 786.386L1222.7 777.547C943.361 498.211 648.053 262.239 403.162 120.46L396.899 131.277ZM1213.86 786.386L1205.02 795.225C1257.16 847.366 1307.77 900.053 1356.52 952.85L1365.7 944.37L1374.89 935.89C1325.91 882.849 1275.07 829.922 1222.7 777.547L1213.86 786.386ZM1365.7 944.37L1375.02 952.705C1420.67 901.689 1464.62 850.527 1506.52 799.627L1496.87 791.683L1487.22 783.738C1445.54 834.362 1401.82 885.264 1356.39 936.035L1365.7 944.37ZM1496.87 791.683L1506.02 783.165C1460.02 733.76 1412.63 684.641 1364.12 636.126L1355.28 644.965L1346.44 653.804C1394.75 702.109 1441.93 751.014 1487.72 800.2L1496.87 791.683ZM1355.28 644.965L1364.12 636.126C1153.59 425.596 931.609 236.179 724.135 89.7865L716.929 100L709.722 110.213C915.857 255.661 1136.76 444.119 1346.44 653.804L1355.28 644.965ZM716.929 100V112.5H1283.32V100V87.5H716.929V100Z" fill="#F2F5EA"/>
</svg>
